#N canvas 498 67 1176 842 10;
#X obj 28 95 cnv 15 400 90 empty empty Serial_R_W_mega 0 -10 0 20 -158827
-4160 0;
#X msg 85 120 close;
#X obj 240 73 tgl 15 0 empty ARD_MEGA_ON A_MEGA_ON 17 7 0 10 -4034
-258113 -258113 1 1;
#N canvas 603 896 610 117 dig_ins_display 0;
#X obj 137 64 tgl 10 0 empty empty empty 17 7 0 10 -262144 -1 -1 0
1;
#X obj 174 64 tgl 10 0 empty empty empty 17 7 0 10 -262144 -1 -1 1
1;
#X obj 193 64 tgl 10 0 empty empty empty 17 7 0 10 -262144 -1 -1 1
1;
#X obj 212 64 tgl 10 0 empty empty empty 17 7 0 10 -262144 -1 -1 1
1;
#X obj 156 64 tgl 10 0 empty empty empty 17 7 0 10 -262144 -1 -1 1
1;
#X obj 230 64 tgl 10 0 empty empty empty 17 7 0 10 -262144 -1 -1 0
1;
#X obj 26 21 r dig_val1;
#X text 103 22 LFOsrcRM;
#X obj 268 64 tgl 10 0 empty empty empty 17 7 0 10 -262144 -1 -1 0
1;
#X obj 249 64 tgl 10 0 empty empty empty 17 7 0 10 -262144 -1 -1 0
1;
#X obj 119 64 tgl 10 0 empty empty empty 17 7 0 10 -262144 -1 -1 0
1;
#X obj 100 64 tgl 10 0 empty empty empty 17 7 0 10 -262144 -1 -1 0
1;
#X obj 81 64 tgl 10 0 empty empty empty 17 7 0 10 -262144 -1 -1 0 1
;
#X obj 63 64 tgl 10 0 empty empty empty 17 7 0 10 -262144 -1 -1 0 1
;
#X obj 44 64 tgl 10 0 empty empty empty 17 7 0 10 -262144 -1 -1 0 1
;
#X obj 26 65 tgl 10 0 empty empty empty 17 7 0 10 -262144 -1 -1 0 1
;
#X obj 431 63 tgl 10 0 empty empty empty 17 7 0 10 -262144 -1 -1 0
1;
#X obj 460 63 tgl 10 0 empty empty empty 17 7 0 10 -262144 -1 -1 0
1;
#X obj 480 63 tgl 10 0 empty empty empty 17 7 0 10 -262144 -1 -1 0
1;
#X obj 499 63 tgl 10 0 empty empty empty 17 7 0 10 -262144 -1 -1 0
1;
#X obj 451 63 tgl 10 0 empty empty empty 17 7 0 10 -262144 -1 -1 0
1;
#X obj 519 63 tgl 10 0 empty empty empty 17 7 0 10 -262144 -1 -1 0
1;
#X obj 412 63 tgl 10 0 empty empty empty 17 7 0 10 -262144 -1 -1 0
1;
#X obj 392 63 tgl 10 0 empty empty empty 17 7 0 10 -262144 -1 -1 0
1;
#X obj 373 63 tgl 10 0 empty empty empty 17 7 0 10 -262144 -1 -1 0
1;
#X obj 353 63 tgl 10 0 empty empty empty 17 7 0 10 -262144 -1 -1 0
1;
#X obj 334 63 tgl 10 0 empty empty empty 17 7 0 10 -262144 -1 -1 0
1;
#X obj 315 64 tgl 10 0 empty empty empty 17 7 0 10 -262144 -1 -1 0
1;
#X obj 315 20 r dig_val2;
#X obj 119 79 s szat_down_4;
#X obj 26 37 unpack 0 0 0 0 0 0 0 0 0 0 0 0 0 0 0;
#X obj 278 64 tgl 10 0 empty empty empty 17 7 0 10 -262144 -1 -1 1
1;
#X obj 315 37 unpack 0 0 0 0 0 0 0 0 0 0 0 0 0 0 0;
#X obj 528 64 tgl 10 0 empty empty empty 17 7 0 10 -262144 -1 -1 0
1;
#X obj 546 64 tgl 10 0 empty empty empty 17 7 0 10 -262144 -1 -1 0
1;
#X obj 564 64 tgl 10 0 empty empty empty 17 7 0 10 -262144 -1 -1 1
1;
#X connect 6 0 30 0;
#X connect 10 0 29 0;
#X connect 28 0 32 0;
#X connect 30 0 15 0;
#X connect 30 1 14 0;
#X connect 30 2 13 0;
#X connect 30 3 12 0;
#X connect 30 4 11 0;
#X connect 30 5 10 0;
#X connect 30 6 0 0;
#X connect 30 7 4 0;
#X connect 30 8 1 0;
#X connect 30 9 2 0;
#X connect 30 10 3 0;
#X connect 30 11 5 0;
#X connect 30 12 9 0;
#X connect 30 13 8 0;
#X connect 30 14 31 0;
#X connect 32 0 27 0;
#X connect 32 1 26 0;
#X connect 32 2 25 0;
#X connect 32 3 24 0;
#X connect 32 4 23 0;
#X connect 32 5 22 0;
#X connect 32 6 16 0;
#X connect 32 7 20 0;
#X connect 32 8 17 0;
#X connect 32 9 18 0;
#X connect 32 10 19 0;
#X connect 32 11 21 0;
#X connect 32 12 33 0;
#X connect 32 13 34 0;
#X connect 32 14 35 0;
#X restore 215 163 pd dig_ins_display;
#N canvas 698 98 954 702 SER_R_W_MEGA 0;
#X obj 203 180 sel 255;
#X obj 226 261 < 128;
#X obj 226 285 + 1;
#X obj 226 332 - 128;
#X msg 580 119 devices;
#X text 261 179 unpacking stuff;
#X obj 249 224 t f f;
#X msg 530 119 close;
#X obj 226 309 cyclone/gate 2;
#N canvas 143 194 572 327 MESStoCOMPORT 0;
#X obj 72 50 loadbang;
#X msg 72 111 bits 8;
#X msg 72 144 parity 0;
#X msg 72 174 stopbit 0;
#X obj 72 72 bng 15 250 50 0 empty empty empty 17 7 0 10 -262144 -1
-1;
#X obj 72 226 outlet;
#X msg 203 54 devices;
#X msg 225 111 print HELLO;
#X obj 225 90 bng 15 250 50 0 empty empty empty 17 7 0 10 -262144 -1
-1;
#X msg 212 140 10;
#X msg 267 55 info;
#X msg 183 185 devicename /dev/ttyUSB0 \, baud 115200 \, 99;
#X connect 0 0 4 0;
#X connect 1 0 5 0;
#X connect 2 0 5 0;
#X connect 3 0 5 0;
#X connect 4 0 1 0;
#X connect 4 0 2 0;
#X connect 4 0 3 0;
#X connect 6 0 5 0;
#X connect 8 0 7 0;
#X connect 8 0 9 0;
#X connect 9 0 5 0;
#X connect 10 0 5 0;
#X connect 11 0 5 0;
#X restore 650 120 pd MESStoCOMPORT;
#N canvas 451 162 815 371 digitalIns 0;
#X obj 340 42 unpack 0 0;
#X obj 407 64 << 7;
#X text 425 16 digital;
#X obj 22 172 & 1;
#X obj 22 206 == 0;
#X obj 68 206 == 0;
#X obj 68 172 & 2;
#X obj 115 206 == 0;
#X obj 161 206 == 0;
#X obj 115 172 & 4;
#X obj 161 172 & 8;
#X obj 208 205 == 0;
#X obj 254 205 == 0;
#X obj 301 205 == 0;
#X obj 347 205 == 0;
#X obj 208 171 & 16;
#X obj 254 171 & 32;
#X obj 301 171 & 64;
#X obj 347 171 & 128;
#X obj 393 204 == 0;
#X obj 439 204 == 0;
#X obj 486 204 == 0;
#X obj 393 170 & 256;
#X obj 439 170 & 512;
#X obj 486 170 & 1024;
#X text 276 317 digital outs;
#X obj 340 15 inlet;
#X obj 534 206 == 0;
#X obj 583 205 == 0;
#X obj 633 206 == 0;
#X obj 682 206 == 0;
#X obj 534 172 & 2048;
#X obj 583 171 & 4096;
#X obj 633 172 & 8192;
#X obj 682 172 & 16384;
#X obj 22 329 outlet;
#X obj 707 131 print;
#X obj 707 102 spigot;
#X obj 746 81 tgl 15 0 empty empty empty 17 7 0 10 -262144 -1 -1 0
1;
#X obj 22 238 change;
#X obj 68 238 change;
#X obj 115 238 change;
#X obj 161 238 change;
#X obj 208 238 change;
#X obj 254 238 change;
#X obj 301 238 change;
#X obj 347 238 change;
#X obj 393 238 change;
#X obj 439 238 change;
#X obj 486 238 change;
#X obj 534 238 change;
#X obj 583 238 change;
#X obj 633 238 change;
#X obj 682 238 change;
#X obj 22 285 else/pack2 0 0 0 0 0 0 0 0 0 0 0 0 0 0 0, f 94;
#X obj 340 112 +;
#X obj 310 83 +;
#X connect 0 0 56 0;
#X connect 0 0 55 0;
#X connect 0 1 1 0;
#X connect 1 0 56 1;
#X connect 1 0 55 1;
#X connect 3 0 4 0;
#X connect 4 0 39 0;
#X connect 5 0 40 0;
#X connect 6 0 5 0;
#X connect 7 0 41 0;
#X connect 8 0 42 0;
#X connect 9 0 7 0;
#X connect 10 0 8 0;
#X connect 11 0 43 0;
#X connect 12 0 44 0;
#X connect 13 0 45 0;
#X connect 14 0 46 0;
#X connect 15 0 11 0;
#X connect 16 0 12 0;
#X connect 17 0 13 0;
#X connect 18 0 14 0;
#X connect 19 0 47 0;
#X connect 20 0 48 0;
#X connect 21 0 49 0;
#X connect 22 0 19 0;
#X connect 23 0 20 0;
#X connect 24 0 21 0;
#X connect 26 0 0 0;
#X connect 27 0 50 0;
#X connect 28 0 51 0;
#X connect 29 0 52 0;
#X connect 30 0 53 0;
#X connect 31 0 27 0;
#X connect 32 0 28 0;
#X connect 33 0 29 0;
#X connect 34 0 30 0;
#X connect 37 0 36 0;
#X connect 38 0 37 1;
#X connect 39 0 54 0;
#X connect 40 0 54 1;
#X connect 41 0 54 2;
#X connect 42 0 54 3;
#X connect 43 0 54 4;
#X connect 44 0 54 5;
#X connect 45 0 54 6;
#X connect 46 0 54 7;
#X connect 47 0 54 8;
#X connect 48 0 54 9;
#X connect 49 0 54 10;
#X connect 50 0 54 11;
#X connect 51 0 54 12;
#X connect 52 0 54 13;
#X connect 53 0 54 14;
#X connect 54 0 35 0;
#X connect 54 0 37 0;
#X connect 55 0 3 0;
#X connect 55 0 6 0;
#X connect 55 0 9 0;
#X connect 55 0 10 0;
#X connect 55 0 15 0;
#X connect 55 0 16 0;
#X connect 55 0 17 0;
#X connect 55 0 18 0;
#X connect 55 0 22 0;
#X connect 55 0 23 0;
#X connect 55 0 24 0;
#X connect 55 0 31 0;
#X connect 55 0 32 0;
#X connect 55 0 33 0;
#X connect 55 0 34 0;
#X restore 362 452 pd digitalIns;
#N canvas 775 245 783 357 digitalIns 0;
#X obj 339 62 unpack 0 0;
#X obj 406 84 << 7;
#X text 379 128 digital;
#X obj 339 35 inlet;
#X obj 21 161 & 1;
#X obj 21 195 == 0;
#X obj 67 195 == 0;
#X obj 67 161 & 2;
#X obj 114 195 == 0;
#X obj 160 195 == 0;
#X obj 114 161 & 4;
#X obj 160 161 & 8;
#X obj 207 194 == 0;
#X obj 253 194 == 0;
#X obj 300 194 == 0;
#X obj 346 194 == 0;
#X obj 207 160 & 16;
#X obj 253 160 & 32;
#X obj 300 160 & 64;
#X obj 346 160 & 128;
#X obj 392 193 == 0;
#X obj 438 193 == 0;
#X obj 485 193 == 0;
#X obj 392 159 & 256;
#X obj 438 159 & 512;
#X obj 485 159 & 1024;
#X text 275 306 digital outs;
#X obj 533 195 == 0;
#X obj 582 194 == 0;
#X obj 632 195 == 0;
#X obj 681 195 == 0;
#X obj 533 161 & 2048;
#X obj 582 160 & 4096;
#X obj 632 161 & 8192;
#X obj 681 161 & 16384;
#X obj 21 318 outlet;
#X obj 21 227 change;
#X obj 67 227 change;
#X obj 114 227 change;
#X obj 160 227 change;
#X obj 207 227 change;
#X obj 253 227 change;
#X obj 300 227 change;
#X obj 346 227 change;
#X obj 392 227 change;
#X obj 438 227 change;
#X obj 485 227 change;
#X obj 533 227 change;
#X obj 582 227 change;
#X obj 632 227 change;
#X obj 681 227 change;
#X obj 559 55 print;
#X obj 559 26 spigot;
#X obj 598 5 tgl 15 0 empty empty empty 17 7 0 10 -262144 -1 -1 0 1
;
#X obj 21 274 else/pack2 0 0 0 0 0 0 0 0 0 0 0 0 0 0 0, f 94;
#X obj 309 107 +;
#X obj 339 131 +;
#X connect 0 0 55 0;
#X connect 0 0 56 0;
#X connect 0 1 1 0;
#X connect 1 0 55 1;
#X connect 1 0 56 1;
#X connect 3 0 0 0;
#X connect 3 0 52 0;
#X connect 4 0 5 0;
#X connect 5 0 36 0;
#X connect 6 0 37 0;
#X connect 7 0 6 0;
#X connect 8 0 38 0;
#X connect 9 0 39 0;
#X connect 10 0 8 0;
#X connect 11 0 9 0;
#X connect 12 0 40 0;
#X connect 13 0 41 0;
#X connect 14 0 42 0;
#X connect 15 0 43 0;
#X connect 16 0 12 0;
#X connect 17 0 13 0;
#X connect 18 0 14 0;
#X connect 19 0 15 0;
#X connect 20 0 44 0;
#X connect 21 0 45 0;
#X connect 22 0 46 0;
#X connect 23 0 20 0;
#X connect 24 0 21 0;
#X connect 25 0 22 0;
#X connect 27 0 47 0;
#X connect 28 0 48 0;
#X connect 29 0 49 0;
#X connect 30 0 50 0;
#X connect 31 0 27 0;
#X connect 32 0 28 0;
#X connect 33 0 29 0;
#X connect 34 0 30 0;
#X connect 36 0 54 0;
#X connect 37 0 54 1;
#X connect 38 0 54 2;
#X connect 39 0 54 3;
#X connect 40 0 54 4;
#X connect 41 0 54 5;
#X connect 42 0 54 6;
#X connect 43 0 54 7;
#X connect 44 0 54 8;
#X connect 45 0 54 9;
#X connect 46 0 54 10;
#X connect 47 0 54 11;
#X connect 48 0 54 12;
#X connect 49 0 54 13;
#X connect 50 0 54 14;
#X connect 52 0 51 0;
#X connect 53 0 52 1;
#X connect 54 0 35 0;
#X connect 56 0 4 0;
#X connect 56 0 7 0;
#X connect 56 0 10 0;
#X connect 56 0 11 0;
#X connect 56 0 16 0;
#X connect 56 0 17 0;
#X connect 56 0 18 0;
#X connect 56 0 19 0;
#X connect 56 0 23 0;
#X connect 56 0 24 0;
#X connect 56 0 25 0;
#X connect 56 0 31 0;
#X connect 56 0 32 0;
#X connect 56 0 33 0;
#X connect 56 0 34 0;
#X restore 521 457 pd digitalIns;
#X obj 521 480 s dig_val2;
#X obj 362 475 s dig_val1;
#X obj 203 381 cyclone/zl group 240;
#X obj 203 21 inlet;
#X text 53 443 analog;
#X text 374 433 digital;
#X text 531 436 digital;
#X msg 319 25 info;
#X text 321 100 check if serial open;
#X text 324 138 DEFAULT POLLING INTERVAL IS 10MS;
#X obj 62 417 print;
#X obj 62 388 spigot;
#X obj 101 367 tgl 15 0 empty empty empty 17 7 0 10 -262144 -1 -1 0
1;
#X obj 10 300 print;
#X obj 11 164 switch;
#X obj 11 140 tgl 15 0 empty empty empty 17 7 0 10 -262144 -1 -1 0
1;
#X text 36 139 for debugging;
#X obj 10 277 timer;
#X obj 10 232 cyclone/cycle 2;
#X msg 10 208 symbol bang;
#X obj 10 186 t b b;
#X obj 10 253 bng 15 250 50 0 empty empty empty 17 7 0 10 -262144 -1
-1;
#X obj 112 254 bng 15 250 50 0 empty empty empty 17 7 0 10 -262144
-1 -1;
#X text 270 260 above 127 is control index;
#X text 12 64 LED CTRL from serial out;
#X text 2 77 bootm-panel and pwm leds;
#X msg 475 119 open 3;
#X obj 203 414 route 1 2 3, f 80;
#N canvas 101 381 319 467 56_a_in_norm_10_smth 0;
#X obj 30 22 inlet;
#X obj 135 117 << 7;
#X obj 30 137 +;
#X obj 30 54 cyclone/zl iter 2;
#X obj 30 81 cyclone/zl slice 1;
#X obj 214 85 print;
#X obj 214 56 spigot;
#X obj 253 35 tgl 15 0 empty empty empty 17 7 0 10 -262144 -1 -1 0
1;
#X obj 30 272 maxlib/listfunnel;
#X obj 30 349 unpack 0 0;
#X obj 30 164 expr $f1 * -0.001 + 1, f 19;
#X obj 30 296 clone -x 1_ARD_A_POT_SMTH 56 0.9, f 16;
#X obj 97 383 cyclone/zl group 56;
#X obj 97 408 outlet analog_values;
#X obj 30 245 cyclone/zl slice 56;
#X obj 30 211 cyclone/zl group 56;
#X connect 0 0 3 0;
#X connect 1 0 2 1;
#X connect 2 0 10 0;
#X connect 3 0 4 0;
#X connect 4 0 2 0;
#X connect 4 1 1 0;
#X connect 6 0 5 0;
#X connect 7 0 6 1;
#X connect 8 0 11 0;
#X connect 9 1 12 0;
#X connect 10 0 15 0;
#X connect 11 0 9 0;
#X connect 12 0 13 0;
#X connect 14 0 8 0;
#X connect 15 0 14 0;
#X connect 15 0 6 0;
#X restore 203 472 pd 56_a_in_norm_10_smth;
#X obj 203 136 comport 2 115200;
#X obj 62 103 r to_comport2;
#X obj 319 2 r ARD_mega_open?;
#N canvas 660 472 283 249 serial_open? 0;
#X obj 95 46 inlet;
#X floatatom 67 102 3 0 0 0 port - -;
#X obj 95 75 route port open;
#X obj 146 98 == 1;
#X obj 95 148 &&;
#X obj 102 123 t b f;
#X obj 95 184 outlet;
#X obj 95 100 == 2;
#X connect 0 0 2 0;
#X connect 2 0 1 0;
#X connect 2 0 7 0;
#X connect 2 1 3 0;
#X connect 3 0 5 0;
#X connect 4 0 6 0;
#X connect 5 0 4 0;
#X connect 5 1 4 1;
#X connect 7 0 4 0;
#X restore 404 203 pd serial_open?;
#X obj 404 232 tgl 15 0 ARD_MEGA_ON empty SER_ON 17 7 0 10 -258113
-1 -1 1 1;
#X obj 529 203 print ard_mega_state;
#X obj 762 581 tgl 15 0 empty DRAW_MEGA DRAW_MEGA_INS 17 7 0 10 -4034
-1 -1 1 1;
#X obj 762 535 tgl 15 0 DRAW_MEGA empty DRAW_MEGA_IN 17 7 0 10 -258113
-1 -1 0 1;
#X obj 133 424 print;
#X obj 133 395 spigot;
#X obj 172 374 tgl 15 0 empty empty empty 17 7 0 10 -262144 -1 -1 0
1;
#X obj 203 586 spigot, f 19;
#X obj 314 525 r END_LEDSEQ;
#X obj 314 568 tgl 15 0 empty empty empty 17 7 0 10 -262144 -1 -1 0
1;
#X obj 414 524 loadbang;
#X msg 414 547 0;
#X text 339 570 READ ANALOG INS 0/1;
#X obj 683 640 spigot;
#X obj 762 611 tgl 15 0 empty empty empty 17 7 0 10 -262144 -1 -1 1
1;
#X obj 716 457 inlet draw analog;
#X obj 683 663 array set 56_ANALOGin;
#X obj 668 178 route port;
#X obj 671 204 outlet port number;
#X obj 203 50 route open close info, f 32;
#X obj 454 59 print;
#X obj 454 30 spigot;
#X obj 493 9 tgl 15 0 empty empty empty 17 7 0 10 -262144 -1 -1 0 1
;
#X msg 329 80 info;
#X msg 266 82 close;
#X msg 203 82 open \$1;
#X msg 257 20 open 2;
#X floatatom 55 582 5 0 0 0 - - -;
#X obj 55 563 list length;
#X obj 203 619 t l l;
#X obj 203 652 s 56_analog_ins_list;
#X connect 0 0 14 0;
#X connect 0 1 6 0;
#X connect 1 0 2 0;
#X connect 2 0 8 0;
#X connect 3 0 14 0;
#X connect 4 0 41 0;
#X connect 6 0 8 1;
#X connect 6 1 1 0;
#X connect 7 0 41 0;
#X connect 8 0 3 0;
#X connect 8 1 14 0;
#X connect 9 0 41 0;
#X connect 10 0 13 0;
#X connect 11 0 12 0;
#X connect 14 0 39 0;
#X connect 15 0 64 0;
#X connect 19 0 64 0;
#X connect 23 0 22 0;
#X connect 24 0 23 1;
#X connect 26 0 32 0;
#X connect 27 0 26 0;
#X connect 29 0 25 0;
#X connect 30 0 33 0;
#X connect 30 1 34 0;
#X connect 31 0 30 0;
#X connect 32 0 31 0;
#X connect 33 0 29 0;
#X connect 34 0 29 1;
#X connect 38 0 41 0;
#X connect 39 0 40 0;
#X connect 39 0 73 0;
#X connect 39 1 10 0;
#X connect 39 2 11 0;
#X connect 40 0 52 0;
#X connect 41 0 0 0;
#X connect 41 0 50 0;
#X connect 41 1 46 0;
#X connect 41 1 44 0;
#X connect 41 1 62 0;
#X connect 42 0 23 0;
#X connect 42 0 41 0;
#X connect 43 0 19 0;
#X connect 44 0 45 0;
#X connect 47 0 59 0;
#X connect 50 0 49 0;
#X connect 51 0 50 1;
#X connect 52 0 74 0;
#X connect 53 0 54 0;
#X connect 54 0 52 1;
#X connect 55 0 56 0;
#X connect 56 0 54 0;
#X connect 58 0 61 0;
#X connect 59 0 58 1;
#X connect 60 0 58 1;
#X connect 62 0 63 0;
#X connect 64 0 70 0;
#X connect 64 1 69 0;
#X connect 64 2 68 0;
#X connect 66 0 65 0;
#X connect 67 0 66 1;
#X connect 68 0 41 0;
#X connect 68 0 66 0;
#X connect 69 0 41 0;
#X connect 69 0 66 0;
#X connect 70 0 41 0;
#X connect 70 0 66 0;
#X connect 71 0 64 0;
#X connect 73 0 72 0;
#X connect 74 0 75 0;
#X connect 74 1 58 0;
#X restore 32 144 pd SER_R_W_MEGA;
#X obj 440 95 cnv 15 600 90 empty empty Serial_R_LDRs 0 -10 0 20 -178368
-4160 0;
#X obj 600 78 tgl 15 0 empty LDR_ARD_ON A_LDR_ON 17 7 0 10 -4034 -258113
-258113 0 1;
#X obj 849 111 vsl 10 48 0 1 0 0 empty GLOBAL_SENS_TRESH empty 0 -9
0 10 -204800 -1 -1 0 1;
#X floatatom 849 166 5 0 0 1 TRESHOLD - -;
#N canvas 408 54 1225 860 Read_32LDRs 0;
#X obj 149 325 sel 255, f 15;
#X obj 156 380 < 128;
#X obj 156 400 + 1;
#X obj 156 443 - 128;
#X msg 149 259 99;
#X obj 251 345 t f f;
#X msg 521 240 info;
#X obj 585 196 bng 15 250 50 0 empty empty empty 17 7 0 10 -262144
-1 -1;
#X obj 489 173 t b b;
#X text 198 391 everything above 127;
#X text 193 403 is control index;
#X text 28 97 open/close port;
#X floatatom 789 260 5 0 0 0 - - -;
#X obj 156 422 cyclone/gate 2;
#X obj 149 466 cyclone/zl group 100;
#X text 620 152 open at startup;
#X text 558 241 check if open;
#X msg 378 284 devicename /dev/ttyUSB2 \, baud 115200 \, 99;
#X obj 489 152 r serial_ldr_start;
#X text 180 254 start pulling;
#X text 180 266 re-initialize port;
#X obj 149 224 del 2500;
#X obj 789 241 list length;
#X text 38 232 SER INIT;
#X text 18 381 UNPACK SER MESS;
#X obj 149 300 comport 1 115200, f 27;
#X msg 44 182 open 2;
#X obj 979 621 array set LDRS_INV_10_SMT;
#X obj 979 599 spigot;
#X obj 1012 573 tgl 15 0 empty empty empty 17 7 0 10 -262144 -1 -1
0 1;
#X obj 1036 572 inlet draw ldrs;
#N canvas 0 144 329 494 32_analog_ins 0;
#X obj 19 19 inlet;
#X obj 86 115 << 7;
#X obj 19 135 +, f 10;
#X obj 19 51 cyclone/zl iter 2;
#X obj 19 82 cyclone/zl slice 1, f 10;
#X obj 19 249 cyclone/zl slice 32;
#X text 141 172 normalize to 0-1;
#X obj 19 208 cyclone/zl group 33;
#X obj 19 163 expr $f1 * -0.001 + 1, f 19;
#X obj 19 278 maxlib/listfunnel;
#X obj 19 370 unpack 0 0;
#X obj 19 311 clone -x 1_LDR_smooth 32 0.25, f 16;
#X obj 76 397 cyclone/zl group 32;
#X text 135 338 SMOOTH LDR values;
#X obj 76 430 outlet ldrs;
#X connect 0 0 3 0;
#X connect 1 0 2 1;
#X connect 2 0 8 0;
#X connect 3 0 4 0;
#X connect 4 0 2 0;
#X connect 4 1 1 0;
#X connect 5 0 9 0;
#X connect 7 0 5 0;
#X connect 8 0 7 0;
#X connect 9 0 11 0;
#X connect 10 1 12 0;
#X connect 11 0 10 0;
#X connect 12 0 14 0;
#X restore 149 501 pd 32_analog_ins;
#X f 20;
#X text 16 502 SCALE NORML;
#X text 7 521 SMTH / NO SMTH;
#X floatatom 170 623 5 0 0 0 - - -;
#X text 25 646 MAX_SENS TRESH;
#X floatatom 259 626 5 0 0 0 - - -;
#X obj 152 650 s 01_TRESH;
#X text 703 752 patch 3 & 4;
#X obj 670 741 tgl 25 0 light_gate empty LIGHT_GATE 17 7 0 10 -4034
-1 -1 0 1;
#X obj 971 703 s LDRS_INV_10_SMT_list, f 23;
#X obj 238 652 s min_sens;
#X obj 817 748 s min_sen_vect;
#N canvas 0 164 294 274 serial_open? 0;
#X obj 94 26 inlet;
#X floatatom 63 87 3 0 0 0 port - -;
#X obj 94 52 route port open;
#X obj 145 85 == 1;
#X obj 94 135 &&;
#X obj 101 110 t b f;
#X obj 147 178 s LDR_ARD_ON;
#X obj 94 176 outlet;
#X text 83 206 if port2 open send 1;
#X obj 94 87 == 1;
#X connect 0 0 2 0;
#X connect 2 0 1 0;
#X connect 2 0 9 0;
#X connect 2 1 3 0;
#X connect 3 0 5 0;
#X connect 4 0 6 0;
#X connect 4 0 7 0;
#X connect 5 0 4 0;
#X connect 5 1 4 1;
#X connect 9 0 4 0;
#X restore 475 318 pd serial_open?;
#X obj 475 341 tgl 15 0 LDR_ARD_ON empty LDR_SER_ON 17 7 0 10 -258113
-1 -1 0 1;
#X obj 592 318 print ard_nano_state;
#X obj 521 196 del 500;
#X msg 51 291 open 2;
#N canvas 589 203 445 508 LDR_treshold 0;
#X obj 32 57 maxlib/listfunnel;
#X obj 64 333 value LDRS_AMOUNT;
#X obj 32 356 / 32, f 5;
#X obj 64 272 loadbang;
#X text 212 37 USEFUL FOR MANY PATCHES;
#X obj 32 432 line;
#X msg 32 410 \$1 \$2;
#X obj 32 388 pack f 20;
#X obj 92 366 r sens_01_slew;
#X obj 32 241 t f f, f 25;
#X text 32 11 GET BRIGHT SENS and VALUE 0-1 FROM BRIGHTEST SENSRO;
#X obj 32 462 outlet 0-1;
#X obj 204 422 outlet BRIGHTEST;
#X obj 32 28 inlet ldr_list;
#X obj 218 119 unpack f f;
#X obj 125 199 s TRSHLD_SENS_NUM;
#X obj 125 146 pack f f, f 13;
#X obj 320 181 spigot;
#X obj 358 161 tgl 15 0 empty empty empty 17 7 0 10 -262144 -1 -1 0
1;
#X obj 320 203 print on;
#X text 121 221 to filt res ping;
#X msg 193 56 vis 1 1;
#X obj 125 119 unpack f f;
#X obj 32 134 change;
#X obj 64 294 del 2000;
#X obj 141 294 bng 15 250 50 0 UPDATE_ALL_V empty UPDATE_ALL_V 17 7
0 10 -258113 -1 -1;
#X obj 32 82 clone 1_sens_treshold_DB 32;
#X obj 285 148 != 1;
#X connect 0 0 26 0;
#X connect 1 0 2 1;
#X connect 2 0 7 0;
#X connect 3 0 24 0;
#X connect 5 0 11 0;
#X connect 6 0 5 0;
#X connect 7 0 6 0;
#X connect 8 0 7 1;
#X connect 9 0 2 0;
#X connect 9 1 12 0;
#X connect 13 0 0 0;
#X connect 14 0 16 1;
#X connect 14 1 27 0;
#X connect 16 0 15 0;
#X connect 17 0 19 0;
#X connect 18 0 17 1;
#X connect 21 0 26 0;
#X connect 22 0 16 0;
#X connect 23 0 9 0;
#X connect 24 0 1 0;
#X connect 25 0 1 0;
#X connect 26 0 23 0;
#X connect 26 1 22 0;
#X connect 26 2 14 0;
#X restore 151 588 pd LDR_treshold;
#X obj 670 610 smlib/vmax, f 25;
#X obj 670 679 > 0.6;
#X obj 696 657 r GLOBAL_SENS_TRESH;
#X obj 670 711 change;
#X text 133 683 SENS MAX FROM TRESHOLD KEEPS LAST VALUE - more stable
;
#X text 981 639 to patch 1 & 2 - analog ins;
#X floatatom 684 636 5 0 0 1 MAX_SENS_VAL - MAX_LDR_V;
#X obj 499 583 t l l, f 29;
#X obj 499 617 smlib/vmin, f 12;
#X floatatom 499 651 5 0 0 0 - - -;
#X floatatom 842 720 5 0 0 0 - - -;
#X obj 151 549 t l l l l, f 105;
#N canvas 0 207 1436 411 4_LGs 0;
#X obj 55 22 inlet;
#X obj 55 66 list split 8, f 57;
#X obj 343 91 list split 8, f 44;
#X obj 615 119 list split 8, f 94;
#X text 280 36 first row;
#X text 527 73 second row;
#X obj 166 319 s LG_L_1;
#X obj 55 319 s 01_L_1;
#X obj 55 157 maxlib/listfunnel;
#X obj 55 292 line;
#X msg 55 270 \$1 \$2;
#X obj 55 248 pack f 20;
#X obj 1165 230 r sens_01_slew;
#X obj 55 226 / 8, f 5;
#X floatatom 15 232 5 0 0 0 - - -;
#X obj 781 88 print;
#X obj 781 66 spigot;
#X obj 820 45 tgl 15 0 empty empty empty 17 7 0 10 -262144 -1 -1 0
1;
#X obj 146 225 unpack f f;
#X obj 343 157 maxlib/listfunnel;
#X obj 343 292 line;
#X msg 343 270 \$1 \$2;
#X obj 343 248 pack f 20;
#X obj 343 226 / 8, f 5;
#X obj 343 182 clone 1_sens_treshold 8;
#X obj 434 225 unpack f f;
#X obj 343 319 s 01_L_2;
#X obj 454 319 s LG_L_2;
#X obj 615 157 maxlib/listfunnel;
#X obj 615 292 line;
#X msg 615 270 \$1 \$2;
#X obj 615 248 pack f 20;
#X obj 615 226 / 8, f 5;
#X obj 615 182 clone 1_sens_treshold 8;
#X obj 706 225 unpack f f;
#X obj 895 157 maxlib/listfunnel;
#X obj 895 292 line;
#X msg 895 270 \$1 \$2;
#X obj 895 248 pack f 20;
#X obj 895 226 / 8, f 5;
#X obj 895 182 clone 1_sens_treshold 8;
#X obj 986 225 unpack f f;
#X obj 615 319 s 01_L_3;
#X obj 725 326 s LG_L_3;
#X obj 895 319 s 01_L_4;
#X obj 1011 317 s LG_L_4;
#X obj 1066 155 smlib/vmax, f 11;
#X obj 1066 250 > 0.6;
#X obj 1066 275 change;
#X floatatom 1073 178 5 0 0 0 - - -;
#X floatatom 1109 179 5 0 0 0 - - -;
#X obj 993 319 tgl 15 0 empty empty empty 17 7 0 10 -262144 -1 -1 1
1;
#X obj 1066 320 tgl 15 0 empty empty empty 17 7 0 10 -262144 -1 -1
0 1;
#X obj 1093 200 r GLOBAL_SENS_TRESH, f 10;
#X obj 1108 299 swap;
#X floatatom 1108 323 1 0 0 0 - - -;
#X obj 1129 323 tgl 15 0 empty empty empty 17 7 0 10 -262144 -1 -1
0 1;
#X obj 783 149 smlib/vmax, f 11;
#X obj 783 254 > 0.6;
#X obj 783 279 change;
#X floatatom 790 172 5 0 0 0 - - -;
#X floatatom 836 173 5 0 0 0 - - -;
#X obj 783 327 tgl 15 0 empty empty empty 17 7 0 10 -262144 -1 -1 0
1;
#X obj 810 195 r GLOBAL_SENS_TRESH, f 10;
#X obj 825 309 swap;
#X floatatom 825 330 1 0 0 0 - - -;
#X obj 846 330 tgl 15 0 empty empty empty 17 7 0 10 -262144 -1 -1 0
1;
#X obj 704 327 tgl 15 0 empty empty empty 17 7 0 10 -262144 -1 -1 1
1;
#X obj 514 145 smlib/vmax, f 11;
#X obj 514 250 > 0.6;
#X obj 514 275 change;
#X floatatom 521 168 5 0 0 0 - - -;
#X floatatom 559 170 5 0 0 0 - - -;
#X obj 514 323 tgl 15 0 empty empty empty 17 7 0 10 -262144 -1 -1 0
1;
#X obj 541 196 r GLOBAL_SENS_TRESH, f 9;
#X obj 556 305 swap;
#X floatatom 556 326 1 0 0 0 - - -;
#X obj 577 326 tgl 15 0 empty empty empty 17 7 0 10 -262144 -1 -1 0
1;
#X obj 432 321 tgl 15 0 empty empty empty 17 7 0 10 -262144 -1 -1 1
1;
#X obj 226 147 smlib/vmax, f 11;
#X obj 226 252 > 0.6;
#X obj 226 277 change;
#X floatatom 233 170 5 0 0 0 - - -;
#X floatatom 277 171 5 0 0 0 - - -;
#X obj 226 321 tgl 15 0 empty empty empty 17 7 0 10 -262144 -1 -1 0
1;
#X obj 253 198 r GLOBAL_SENS_TRESH, f 10;
#X obj 268 297 swap;
#X floatatom 268 318 1 0 0 0 - - -;
#X obj 289 318 tgl 15 0 empty empty empty 17 7 0 10 -262144 -1 -1 0
1;
#X obj 147 319 tgl 15 0 empty empty empty 17 7 0 10 -262144 -1 -1 1
1;
#X floatatom 135 260 5 0 0 0 - - -;
#X obj 55 182 clone 1_sens_treshold 8;
#X obj 55 205 + 1;
#X obj 343 205 + 1;
#X obj 615 205 + 1;
#X obj 895 204 + 1;
#X connect 0 0 1 0;
#X connect 1 0 8 0;
#X connect 1 0 79 0;
#X connect 1 1 2 0;
#X connect 2 0 19 0;
#X connect 2 0 68 0;
#X connect 2 1 3 0;
#X connect 3 0 28 0;
#X connect 3 0 57 0;
#X connect 3 1 35 0;
#X connect 3 1 46 0;
#X connect 8 0 91 0;
#X connect 9 0 7 0;
#X connect 10 0 9 0;
#X connect 11 0 10 0;
#X connect 12 0 11 1;
#X connect 12 0 22 1;
#X connect 12 0 31 1;
#X connect 12 0 38 1;
#X connect 13 0 11 0;
#X connect 16 0 15 0;
#X connect 17 0 16 1;
#X connect 18 0 90 0;
#X connect 18 1 89 0;
#X connect 19 0 24 0;
#X connect 20 0 26 0;
#X connect 21 0 20 0;
#X connect 22 0 21 0;
#X connect 23 0 22 0;
#X connect 24 0 93 0;
#X connect 24 2 25 0;
#X connect 25 1 78 0;
#X connect 28 0 33 0;
#X connect 29 0 42 0;
#X connect 30 0 29 0;
#X connect 31 0 30 0;
#X connect 32 0 31 0;
#X connect 33 0 94 0;
#X connect 33 2 34 0;
#X connect 34 1 67 0;
#X connect 35 0 40 0;
#X connect 36 0 44 0;
#X connect 37 0 36 0;
#X connect 38 0 37 0;
#X connect 39 0 38 0;
#X connect 40 0 95 0;
#X connect 40 2 41 0;
#X connect 41 1 51 0;
#X connect 46 0 47 0;
#X connect 46 0 49 0;
#X connect 46 1 50 0;
#X connect 46 1 54 1;
#X connect 47 0 48 0;
#X connect 48 0 52 0;
#X connect 48 0 45 0;
#X connect 48 0 54 0;
#X connect 53 0 47 1;
#X connect 54 0 55 0;
#X connect 54 1 56 0;
#X connect 57 0 58 0;
#X connect 57 0 60 0;
#X connect 57 1 61 0;
#X connect 57 1 64 1;
#X connect 58 0 59 0;
#X connect 59 0 62 0;
#X connect 59 0 64 0;
#X connect 59 0 43 0;
#X connect 63 0 58 1;
#X connect 64 0 65 0;
#X connect 64 1 66 0;
#X connect 68 0 69 0;
#X connect 68 0 71 0;
#X connect 68 1 72 0;
#X connect 68 1 75 1;
#X connect 69 0 70 0;
#X connect 70 0 73 0;
#X connect 70 0 75 0;
#X connect 70 0 27 0;
#X connect 74 0 69 1;
#X connect 75 0 76 0;
#X connect 75 1 77 0;
#X connect 79 0 80 0;
#X connect 79 0 82 0;
#X connect 79 1 83 0;
#X connect 79 1 86 1;
#X connect 80 0 81 0;
#X connect 81 0 84 0;
#X connect 81 0 86 0;
#X connect 81 0 6 0;
#X connect 85 0 80 1;
#X connect 86 0 87 0;
#X connect 86 1 88 0;
#X connect 91 0 92 0;
#X connect 91 2 18 0;
#X connect 92 0 13 0;
#X connect 92 0 14 0;
#X connect 93 0 23 0;
#X connect 94 0 32 0;
#X connect 95 0 39 0;
#X restore 360 655 pd 4_LGs;
#X obj 177 109 inlet;
#X msg 293 113 info;
#X text 295 188 check if serial open;
#X obj 293 90 r ARD_mega_open?;
#X obj 177 138 route open close info, f 32;
#X msg 303 168 info;
#X msg 242 173 close;
#X msg 177 190 open \$1;
#X msg 231 108 open 2;
#X obj 149 165 t b f;
#X obj 957 318 route port;
#X obj 957 341 outlet port_number;
#X connect 0 0 14 0;
#X connect 0 1 5 0;
#X connect 1 0 2 0;
#X connect 2 0 13 0;
#X connect 3 0 14 0;
#X connect 4 0 25 0;
#X connect 5 0 13 1;
#X connect 5 1 1 0;
#X connect 6 0 25 0;
#X connect 7 0 6 0;
#X connect 8 0 21 0;
#X connect 8 1 46 0;
#X connect 13 0 3 0;
#X connect 13 1 14 0;
#X connect 14 0 31 0;
#X connect 17 0 25 0;
#X connect 18 0 8 0;
#X connect 21 0 4 0;
#X connect 22 0 12 0;
#X connect 25 0 0 0;
#X connect 25 1 43 0;
#X connect 25 1 45 0;
#X connect 25 1 72 0;
#X connect 26 0 25 0;
#X connect 28 0 27 0;
#X connect 29 0 28 1;
#X connect 30 0 28 1;
#X connect 31 0 60 0;
#X connect 43 0 44 0;
#X connect 46 0 6 0;
#X connect 47 0 25 0;
#X connect 48 0 34 0;
#X connect 48 0 37 0;
#X connect 48 1 36 0;
#X connect 48 1 41 0;
#X connect 49 0 50 0;
#X connect 49 0 55 0;
#X connect 49 1 59 0;
#X connect 49 1 42 0;
#X connect 50 0 52 0;
#X connect 51 0 50 1;
#X connect 52 0 39 0;
#X connect 56 0 57 0;
#X connect 56 1 49 0;
#X connect 57 0 58 0;
#X connect 60 0 48 0;
#X connect 60 1 61 0;
#X connect 60 2 56 0;
#X connect 60 3 40 0;
#X connect 60 3 28 0;
#X connect 62 0 66 0;
#X connect 63 0 66 0;
#X connect 65 0 63 0;
#X connect 66 0 71 0;
#X connect 66 1 68 0;
#X connect 66 2 67 0;
#X connect 67 0 25 0;
#X connect 68 0 25 0;
#X connect 69 0 25 0;
#X connect 70 0 66 0;
#X connect 71 0 21 0;
#X connect 71 1 69 0;
#X connect 72 0 73 0;
#X restore 453 123 pd Read_32LDRs;
#X f 19;
#X obj 838 111 vsl 10 48 0 1 0 0 empty MAX_LDR_V MAX_LDR_V -50 -9 0
10 -204800 -1 -1 1865 1;
#X text 669 77 SENSORS COUNT 1-32 (FROM LIST) \, but arrays are index
from 0;
#X msg 163 120 open 1;
#X msg 499 100 close;
#N canvas 247 259 1223 638 LED_CTRL_Ser 0;
#X floatatom 505 252 5 0 250 0 - - -;
#X obj 284 138 bng 15 250 50 0 empty empty empty 17 7 0 10 -262144
-1 -1;
#X floatatom 439 133 5 0 0 0 - - -;
#X floatatom 284 52 5 0 254 0 - - -;
#X floatatom 398 64 5 0 44 0 - - -;
#X obj 11 84 bng 15 250 50 0 empty empty empty 17 7 0 10 -262144 -1
-1;
#X obj 11 131 t l b;
#X text 55 133 Send message start pattern;
#X obj 10 155 drip;
#X obj 10 178 int;
#X obj 53 188 s to_comport2;
#X text 33 84 bang for list output;
#X obj 680 238 t b l, f 13;
#X obj 398 45 hradio 15 1 0 8 empty empty empty 0 -8 0 10 -262144 -1
-1 3;
#X text 370 44 led;
#X obj 398 106 + 0;
#X obj 438 85 hradio 15 1 1 3 empty empty empty 0 -8 0 10 -262144 -1
-1 1;
#X obj 284 76 t b f b;
#X text 447 70 GRB;
#X obj 599 92 tgl 15 0 empty empty empty 17 7 0 10 -262144 -1 -1 0
1;
#X text 1060 73 g;
#X text 1139 116 b;
#X text 1104 114 r;
#X obj 398 83 * 3;
#X msg 579 256 0;
#X obj 549 160 i;
#X obj 579 162 + 1;
#X obj 579 184 % 2;
#X floatatom 423 245 5 0 0 0 - - -;
#X obj 599 118 metro 1300;
#X obj 579 206 sel 0 1;
#X msg 680 66 250 0 0 250 0 0 250 0 0 250 0 0 250 0 0 250 0 0 250 0
0 250 0 0 250 0 0 250 0 0 255 0 0 250 0 0 250 0 0 250 0 0 255 0 0 250
0 0 250 0 0 250 0 0 255 0 0 250 0 0;
#X msg 53 154 254 254 254 254;
#X floatatom 629 79 5 0 0 0 - - -;
#X obj 644 145 bng 15 250 50 0 empty empty empty 17 7 0 10 -262144
-1 -1;
#X obj 667 296 s update_LEDS;
#X obj 769 262 array set LEDS;
#X obj 316 135 array set LEDS;
#X obj 284 162 s update_LEDS;
#X obj 12 60 r update_LEDS;
#X msg 504 277 \; LEDS const \$1 \; update_LEDS bang;
#X obj 11 107 array get LEDS;
#X msg 693 118 0 250 0 0 250 0 0 250 0 0 250 0 0 250 0 0 250 0 0 250
0 0 250 0 0 250 0 0 250 0 0 255 0 0 250 0 0 250 0 0 250 0 0 255 0 0
250 0 0 250 0 0 250 0 0 255 0 0 250 0;
#X msg 729 171 0 0 250 0 0 250 0 0 250 0 0 250 0 0 250 0 0 250 0 0
250 0 0 250 0 0 250 0 0 250 0 0 255 0 0 250 0 0 250 0 0 250 0 0 255
0 0 250 0 0 250 0 0 250 0 0 255 0 0 250;
#X obj 229 182 tgl 15 0 empty empty empty 17 7 0 10 -262144 -1 -1 0
1;
#X obj 229 224 i;
#X obj 229 246 + 1;
#X obj 229 202 metro 1300;
#X floatatom 286 183 5 0 0 0 - - -;
#X obj 229 291 * 3;
#X floatatom 307 389 5 0 0 0 - - -;
#X obj 285 358 + 0;
#X obj 319 314 hradio 15 1 1 3 empty empty empty 0 -8 0 10 -262144
-1 -1 1;
#X obj 241 427 array set LEDS;
#X floatatom 181 315 5 0 250 0 - - -;
#X obj 147 435 s update_LEDS;
#X text 355 2 BASIC WAY OF CONTROLLING LEDS;
#X floatatom 245 382 5 0 250 0 - - -;
#X obj 231 326 t b b f b;
#X msg 390 397 \; LEDS const 0 \; update_LEDS bang;
#X obj 229 268 % 20;
#X obj 435 205 bng 15 250 50 0 empty SEQ_ALL_LED_OFF LED_OFF 15 8 0
15 -258113 -1 -4160;
#X connect 0 0 40 0;
#X connect 1 0 38 0;
#X connect 3 0 17 0;
#X connect 4 0 23 0;
#X connect 5 0 41 0;
#X connect 6 0 8 0;
#X connect 6 1 32 0;
#X connect 8 0 9 0;
#X connect 9 0 10 0;
#X connect 12 0 35 0;
#X connect 12 1 36 0;
#X connect 13 0 4 0;
#X connect 15 0 2 0;
#X connect 15 0 37 1;
#X connect 16 0 15 1;
#X connect 17 0 1 0;
#X connect 17 1 37 0;
#X connect 17 2 15 0;
#X connect 19 0 29 0;
#X connect 23 0 15 0;
#X connect 24 0 40 0;
#X connect 25 0 26 0;
#X connect 26 0 27 0;
#X connect 26 0 25 1;
#X connect 27 0 28 0;
#X connect 27 0 30 0;
#X connect 29 0 25 0;
#X connect 29 0 35 0;
#X connect 30 0 24 0;
#X connect 30 1 42 0;
#X connect 31 0 12 0;
#X connect 32 0 10 0;
#X connect 33 0 29 1;
#X connect 34 0 12 0;
#X connect 39 0 5 0;
#X connect 41 0 6 0;
#X connect 42 0 12 0;
#X connect 43 0 12 0;
#X connect 44 0 47 0;
#X connect 45 0 46 0;
#X connect 46 0 45 1;
#X connect 46 0 60 0;
#X connect 47 0 45 0;
#X connect 48 0 47 1;
#X connect 49 0 58 0;
#X connect 51 0 50 0;
#X connect 51 0 53 1;
#X connect 52 0 51 1;
#X connect 54 0 58 0;
#X connect 57 0 53 0;
#X connect 58 0 55 0;
#X connect 58 1 57 0;
#X connect 58 2 51 0;
#X connect 58 3 59 0;
#X connect 60 0 49 0;
#X connect 61 0 24 0;
#X restore 819 702 pd LED_CTRL_Ser;
#N canvas 0 50 450 278 (subpatch) 0;
#X array LEDS 60 float 2;
#X coords 0 254 60 0 320 40 1 0 0;
#X restore 496 683 graph;
#X text 304 672 LED 1-8 SEQUENCER LEDS;
#X text 304 682 LED 9-20 PANEL LEDS;
#X text 304 692 LED 12-17 MIXER LEDS ON 1 PIN;
#X text 304 702 LED 18-20 lfo LEDS ON 1 PIN;
#X msg 32 120 open \$1;
#X obj 211 683 bng 25 50 10 0 update_LEDS empty UPDATE 0 7 0 10 -258113
-1 -1;
#X text 739 346 get rid of all the DSP on off switching in subpatches?
;
#X text 739 366 and all the rounding to zero / switching of when low
amp;
#X obj 115 99 tgl 15 0 DRAW_MEGA empty DRAW_MEGA_IN 17 7 0 10 -258113
-1 -1 1 1;
#X obj 29 41 cnv 15 800 25 empty empty Gene_Ral 0 -8 0 16 -204786 -4160
0;
#N canvas 36 294 335 564 cpumeter 0;
#X obj 16 147 cputime;
#X obj 16 7 loadbang;
#X obj 16 94 metro 1000;
#X msg 16 35 1;
#X floatatom 16 63 0 0 0 0 - - -;
#X obj 16 119 t b b;
#X obj 16 176 int;
#X text 61 63 <-- on/off;
#X obj 16 207 * 0.1;
#X msg 83 35 1000;
#X text 59 209 CPU load percent;
#X obj 100 100 cnv 15 100 20 empty CPU_DISP empty 25 10 0 20 -24198
-233017 0;
#X obj 100 101 nbx 2 18 0 100 0 0 empty CPU_LOAD CPU% 50 10 0 20 -24198
-233017 -233017 8 256;
#X obj 97 251 s CPU_LOAD;
#X obj 16 229 t f f, f 12;
#X text 104 270 show number;
#X obj 83 331 >= 80;
#X floatatom 137 396 5 0 0 0 - - -;
#X msg 83 396 223;
#X msg 16 393 76;
#X msg 48 394 194;
#X obj 83 353 change;
#X obj 83 375 sel 1;
#X msg 16 459 \; CPU_DISP color \$1 10 10 \; CPU_LOAD color \$1 10
10;
#X obj 16 342 change;
#X obj 16 364 sel 1;
#X obj 16 320 <= 20;
#X text 20 516 change color depending on CPU load;
#X obj 16 251 t f f, f 10;
#X connect 0 0 6 0;
#X connect 1 0 3 0;
#X connect 2 0 5 0;
#X connect 3 0 4 0;
#X connect 4 0 2 0;
#X connect 5 0 0 0;
#X connect 5 1 0 1;
#X connect 6 0 8 0;
#X connect 8 0 14 0;
#X connect 9 0 2 1;
#X connect 14 0 28 0;
#X connect 14 1 13 0;
#X connect 16 0 21 0;
#X connect 17 0 23 0;
#X connect 18 0 23 0;
#X connect 19 0 23 0;
#X connect 20 0 23 0;
#X connect 21 0 22 0;
#X connect 22 0 18 0;
#X connect 22 1 20 0;
#X connect 24 0 25 0;
#X connect 25 0 19 0;
#X connect 25 1 20 0;
#X connect 26 0 24 0;
#X connect 28 0 26 0;
#X connect 28 1 16 0;
#X coords 0 -1 1 1 100 20 2 100 100;
#X restore 104 43 pd cpumeter;
#N canvas 0 207 1133 509 STORE_CONSTANT_VALUES 0;
#X obj 79 86 value LDRS_AMOUNT;
#X msg 79 65 32;
#X floatatom 79 106 5 0 0 0 - - -;
#X obj 79 35 loadbang;
#X obj 112 67 bng 15 250 50 0 empty empty empty 17 7 0 10 -262144 -1
-1;
#X floatatom 209 106 5 0 0 0 - - -;
#X obj 243 68 bng 15 250 50 0 empty empty empty 17 7 0 10 -262144 -1
-1;
#X msg 209 67 8;
#X obj 209 86 value LED_SEQ_AMOUNT;
#X obj 833 138 value m_clock_max;
#X obj 776 92 value MAX_PANEL_LED_BRIGHT 10;
#X obj 365 86 value seq_trig_modes;
#X floatatom 365 106 5 0 0 0 - - -;
#X obj 403 61 bng 15 250 50 0 empty empty empty 17 7 0 10 -262144 -1
-1;
#X obj 75 364 loadbang;
#X msg 367 382 1;
#X msg 511 382 1;
#X msg 811 382 1;
#X obj 75 405 value sub_seq_1_max;
#X obj 223 405 value sub_seq_2_max;
#X obj 367 404 value sub_seq_3_max;
#X obj 511 404 value sub_seq_4_max;
#X obj 656 407 value sub_seq_5_max;
#X obj 811 407 value sub_seq_6_max;
#X obj 770 22 bng 15 250 50 0 UPDATE_ALL_V empty UPDATE_ALL_V 17 7
0 10 -258113 -1 -1;
#X msg 364 63 3;
#X obj 522 86 value LEDDEL_MIN;
#X obj 561 63 bng 15 250 50 0 empty empty empty 17 7 0 10 -262144 -1
-1;
#X msg 522 65 10;
#X floatatom 522 106 5 0 0 0 - - -;
#X obj 642 86 value LEDDEL_MIN;
#X obj 681 63 bng 15 250 50 0 empty empty empty 17 7 0 10 -262144 -1
-1;
#X msg 642 65 10;
#X floatatom 642 106 5 0 0 0 - - -;
#X text 142 364 sub seq variations;
#X text 74 349 SEQ;
#X obj 75 224 loadbang;
#X msg 511 241 1;
#X msg 811 241 1;
#X obj 511 264 value sub_seq_4_max;
#X obj 656 267 value sub_seq_5_max;
#X obj 811 267 value sub_seq_6_max;
#X msg 75 242 5;
#X msg 656 241 5;
#X text 74 209 MIX;
#X obj 75 265 v SND_FX_AMT;
#X obj 327 264 value SMPL_CATGORY_P4;
#X obj 770 55 bng 15 250 50 0 empty UPDATE_ALL_V UPDATE_ALL_V 17 7
0 10 -4034 -1 -1;
#X msg 656 382 4;
#X msg 75 382 5;
#X msg 223 382 2;
#X obj 170 265 value SMPL_CATGORY_P3;
#X msg 170 241 4;
#X msg 327 241 2;
#X connect 0 0 2 0;
#X connect 1 0 0 0;
#X connect 3 0 1 0;
#X connect 3 0 7 0;
#X connect 3 0 25 0;
#X connect 3 0 28 0;
#X connect 4 0 0 0;
#X connect 6 0 8 0;
#X connect 7 0 8 0;
#X connect 8 0 5 0;
#X connect 11 0 12 0;
#X connect 13 0 11 0;
#X connect 14 0 49 0;
#X connect 14 0 50 0;
#X connect 14 0 16 0;
#X connect 14 0 15 0;
#X connect 14 0 48 0;
#X connect 14 0 17 0;
#X connect 15 0 20 0;
#X connect 16 0 21 0;
#X connect 17 0 23 0;
#X connect 25 0 11 0;
#X connect 26 0 29 0;
#X connect 28 0 26 0;
#X connect 30 0 33 0;
#X connect 32 0 30 0;
#X connect 36 0 42 0;
#X connect 36 0 52 0;
#X connect 36 0 53 0;
#X connect 37 0 39 0;
#X connect 38 0 41 0;
#X connect 42 0 45 0;
#X connect 43 0 40 0;
#X connect 48 0 22 0;
#X connect 49 0 18 0;
#X connect 50 0 19 0;
#X connect 52 0 51 0;
#X connect 53 0 46 0;
#X restore 374 44 pd STORE_CONSTANT_VALUES;
#N canvas 483 80 716 731 initial_startup 0;
#X obj 22 184 cnv 15 500 100 empty empty Init_Serial 0 -10 0 20 -158827
-4160 0;
#X obj 109 7 tgl 15 0 empty ARD_MEGA_ON ARDUINO_MEGA_ON 17 7 0 10 -4034
-258113 -258113 1 1;
#X obj 233 9 tgl 15 0 empty LED_ARD_ON LED_ARD_ON 17 7 0 10 -4034 -258113
-258113 0 1;
#X obj 21 8 tgl 15 0 empty LDR_ARD_ON LDR_ARD_ON 17 7 0 10 -4034 -258113
-258113 0 1;
#X text 11 109 ALL SERIAL PORTS OPEN?;
#X obj 22 307 cnv 15 250 100 empty empty Init_Sound_Settings 0 -10
0 20 -228326 -4160 0;
#X obj 274 307 cnv 15 250 100 empty empty Init_Sfx 0 -10 0 20 -232576
-4160 0;
#X obj 25 187 loadbang;
#X obj 25 231 s serial_ldr_start, f 8;
#X obj 20 430 cnv 15 500 170 empty empty Init_Mix_&_Audio 0 -10 0 20
-137856 -4160 0;
#X obj 24 435 loadbang;
#X obj 61 457 tgl 15 0 empty empty empty 17 7 0 10 -262144 -1 -1 0
1;
#X msg 24 455 0;
#X msg 24 475 \; patch1level \$1 \; patch2level \$1 \; patch3level
\$1 \; patch4level \$1 \; patch5level \$1 \; levelMaster \$1 \; audio_in_gain
\$1 \; compress \$1;
#X obj 134 434 loadbang;
#X obj 134 476 s init_mute;
#X obj 189 435 tgl 15 0 empty empty empty 17 7 0 10 -262144 -1 -1 0
1;
#X msg 134 455 1;
#X obj 207 434 loadbang;
#X obj 244 455 tgl 15 0 empty empty empty 17 7 0 10 -262144 -1 -1 0
1;
#X obj 207 476 s init_pan;
#X obj 274 434 loadbang;
#X obj 329 435 tgl 15 0 empty empty empty 17 7 0 10 -262144 -1 -1 0
1;
#X msg 274 455 0;
#X obj 274 476 s all_sends_off;
#X obj 20 622 cnv 15 250 100 empty empty INIT_SEQ 0 -10 0 20 -203904
-4160 0;
#X obj 270 622 cnv 15 250 100 empty empty Init_Ser_Out_LED_Ctrl 0 -10
0 20 -260097 -4160 0;
#X obj 418 38 r DSP_ON/OFF;
#X msg 345 142 \; pd dsp \$1;
#X obj 345 37 loadbang;
#X msg 372 82 0;
#X text 416 22 FROM MASTER;
#X obj 427 64 tgl 15 0 empty empty empty 17 7 0 10 -262144 -1 -1 0
1;
#X text 10 123 START UP SEQUENCE;
#X obj 95 240 s smooth_factor_pots, f 9;
#X obj 77 187 t b b b b, f 10;
#X msg 278 643 0;
#X msg 310 663 1;
#X floatatom 347 665 5 20 200 0 - - -;
#X obj 279 625 tgl 15 0 empty pan_LEDS_updejt_01 empty 17 7 0 10 -262144
-1 -1 0 1;
#X obj 278 701 s update_panel_leds;
#X obj 390 648 r leds_up_rate;
#X obj 310 625 loadbang;
#X text 521 621 THINGS TO INITIALIZE;
#X text 522 630 PANEL LEDS FX SENDS!;
#X text 522 640 8 LEDS RGB;
#X floatatom 390 672 5 0 0 0 - - -;
#X obj 278 680 metro 20;
#X obj 164 264 s open 8_LED_SER;
#X obj 192 217 loadbang, f 9;
#X msg 174 239 0;
#X text 162 168 UPDATE SEQ LEDS del;
#X obj 25 213 del 20;
#X obj 95 206 del 50;
#X obj 310 643 del 500;
#X obj 22 625 loadbang;
#X obj 54 650 del 200;
#X msg 22 651 1;
#X obj 54 673 s init_ssm;
#X msg 207 453 0;
#X obj 303 187 loadbang;
#X text 389 255 regr_anal_in;
#X text 346 246 start sending pot values;
#X floatatom 347 230 5 20 200 0 - - -;
#X obj 281 266 s update_controls;
#X floatatom 338 209 5 50 200 1 CTRL_UPDATE_RATE CTRL_UPDATE_RATE -
;
#X obj 281 245 metro 50, f 10;
#X obj 281 225 tgl 18 0 empty CTRL_UPDATE CTRL 18 11 0 18 -4034 -1
-1 0 1;
#X obj 418 118 spigot;
#X obj 345 60 t b b;
#X msg 345 114 0;
#X obj 418 152 tgl 15 0 empty empty empty 17 7 0 10 -262144 -1 -1 0
1;
#X obj 451 88 tgl 15 0 empty empty empty 17 7 0 10 -262144 -1 -1 0
1;
#X obj 74 211 bng 15 250 50 0 empty empty empty 17 7 0 10 -262144 -1
-1;
#X obj 472 186 loadbang, f 9;
#X obj 472 205 t b b, f 12;
#X obj 472 226 s ARD_mega_open?;
#X obj 109 53 &&;
#X obj 109 27 t b f;
#X obj 154 55 &&;
#X obj 154 25 t b f;
#X obj 118 164 tgl 15 0 empty empty empty 17 7 0 10 -262144 -1 -1 0
1;
#X obj 109 81 tgl 15 0 empty empty empty 17 7 0 10 -262144 -1 -1 0
1;
#X obj 154 75 tgl 15 0 empty empty empty 17 7 0 10 -262144 -1 -1 0
1;
#X obj 154 93 sel 1;
#X obj 154 135 s startup_seq;
#X msg 154 114 1;
#X text 241 136 start LED seq;
#X text 473 90 WELCOME SEQ FINISHED;
#X obj 530 47 r END_LEDSEQ;
#X obj 164 194 r END_LEDSEQ;
#X msg 164 217 1;
#X obj 281 169 r END_LEDSEQ;
#X msg 303 206 0;
#X msg 95 222 0.8, f 5;
#X connect 1 0 78 0;
#X connect 2 0 80 0;
#X connect 3 0 77 0;
#X connect 7 0 35 0;
#X connect 10 0 12 0;
#X connect 11 0 13 0;
#X connect 12 0 13 0;
#X connect 14 0 17 0;
#X connect 16 0 15 0;
#X connect 17 0 15 0;
#X connect 18 0 59 0;
#X connect 19 0 20 0;
#X connect 21 0 23 0;
#X connect 22 0 24 0;
#X connect 23 0 24 0;
#X connect 27 0 32 0;
#X connect 27 0 68 0;
#X connect 29 0 69 0;
#X connect 30 0 68 1;
#X connect 35 0 52 0;
#X connect 35 2 53 0;
#X connect 36 0 47 0;
#X connect 37 0 47 0;
#X connect 38 0 47 1;
#X connect 39 0 47 0;
#X connect 41 0 46 0;
#X connect 41 0 47 1;
#X connect 42 0 54 0;
#X connect 47 0 40 0;
#X connect 49 0 50 0;
#X connect 50 0 48 0;
#X connect 52 0 8 0;
#X connect 53 0 94 0;
#X connect 54 0 37 0;
#X connect 55 0 57 0;
#X connect 55 0 56 0;
#X connect 56 0 58 0;
#X connect 59 0 20 0;
#X connect 60 0 93 0;
#X connect 63 0 66 1;
#X connect 65 0 66 1;
#X connect 66 0 64 0;
#X connect 67 0 66 0;
#X connect 68 0 28 0;
#X connect 68 0 71 0;
#X connect 69 0 70 0;
#X connect 69 1 30 0;
#X connect 70 0 28 0;
#X connect 72 0 68 1;
#X connect 73 0 8 0;
#X connect 74 0 75 0;
#X connect 75 0 76 0;
#X connect 77 0 79 0;
#X connect 77 0 82 0;
#X connect 78 0 77 0;
#X connect 78 1 77 1;
#X connect 79 0 83 0;
#X connect 80 0 79 0;
#X connect 80 1 79 1;
#X connect 83 0 84 0;
#X connect 84 0 86 0;
#X connect 86 0 85 0;
#X connect 89 0 72 0;
#X connect 90 0 91 0;
#X connect 91 0 48 0;
#X connect 92 0 67 0;
#X connect 93 0 67 0;
#X connect 94 0 34 0;
#X restore 230 44 pd initial_startup;
#X obj 36 44 pddp/dsp;
#X obj 555 46 bng 15 250 50 0 UPDATE_ALL_V empty UPDATE_ALL_V 17 7
0 10 -258113 -1 -1;
#X obj 645 46 bng 15 250 50 0 empty UPDATE_ALL_V UPDATE_ALL_V 17 7
0 10 -4034 -1 -1;
#N canvas 793 390 450 300 PARAM_RANGES 0;
#X text 47 29 SEND RANGES OF PARAMETERS THAT NEED TO BE TESTED / ADJUSTED
FROM HERE \, RATHER THEN HIDDEN SUBWINDOW;
#X floatatom 49 71 5 0 0 0 - - -;
#X obj 49 125 v 01-SLEW-MAX;
#X floatatom 49 148 5 0 0 0 - - -;
#X obj 23 76 bng 15 250 50 0 empty empty empty 17 7 0 10 -262144 -1
-1;
#X msg 94 97 send 01-SLEW-MAX;
#X text 52 181 zrobic master clock max?;
#X obj 209 178 s MSTR_CLCK_MAX;
#X obj 209 198 s RNDM_CLCK_MAX;
#X text 89 71 MAX SLEW OF SENSOR READING 1000? 2000? in MS;
#X text 52 201 zrobic RANDOM clock max?;
#X text 304 178 bpm jest 666;
#X text 307 198 ms jest 5000;
#X connect 1 0 2 0;
#X connect 2 0 3 0;
#X connect 4 0 2 0;
#X connect 5 0 2 0;
#X restore 860 44 pd PARAM_RANGES;
#X text 555 24 RED B=SEND GREEN B-RECEIVE;
#N canvas 80 176 792 783 init_seq 0;
#X obj 220 597 array set 8_LEDS;
#X text 564 439 green;
#X text 626 475 red;
#X text 702 514 blue;
#X obj 98 575 t b l;
#X text 491 400 yellow;
#X msg 132 397 250 250 0 250 250 0 255 250 0 250 250 0 250 250 0 250
250 0 255 250 0 250 250 0;
#X msg 200 434 250 0 0 250 0 0 255 0 0 250 0 0 250 0 0 250 0 0 255
0 0 250 0 0;
#X msg 270 472 0 250 0 0 250 0 0 255 0 0 250 0 0 250 0 0 250 0 0 255
0 0 250 0;
#X msg 339 509 0 0 250 0 0 250 0 0 255 0 0 250 0 0 250 0 0 250 0 0
255 0 0 250;
#X msg 408 546 250 250 250 250 250 250 255 250 250 250 250 250 250
250 250 250 250 250 255 250 250 250 250 250;
#X text 728 582 white;
#X obj 17 65 metro 500;
#X obj 17 95 f;
#X obj 59 95 + 1;
#X floatatom 59 172 5 0 0 0 - - -;
#X obj 168 39 tgl 15 0 empty empty empty 17 7 0 10 -262144 -1 -1 0
1;
#X obj 98 324 sel 0 1 2 3 4 5 6 7 8 9, f 58;
#X msg 98 367 0 0 0 0 0 0 0 0 0 0 0 0 0 0 0 0 0 0 0 0 0 0 0 0;
#X obj 98 633 t l b, f 6;
#X text 143 635 Send message start pattern;
#X msg 131 663 255 255 255 255;
#X obj 98 599 array get 8_LEDS;
#X obj 98 709 int;
#X obj 98 664 drip;
#X obj 98 687 clip 0 254;
#X obj 17 8 r startup_seq;
#X obj 17 118 % 11;
#X obj 17 143 t f f, f 14;
#X obj 17 172 == 10;
#X obj 17 195 sel 1;
#X obj 17 218 t b b, f 7;
#X msg 56 248 0;
#X msg 17 248 1;
#X obj 17 31 t f b, f 12;
#X msg 86 67 0;
#X obj 17 279 s END_LEDSEQ;
#N canvas 795 178 348 310 atSTART 0;
#X obj 159 156 + 1;
#X obj 200 156 i;
#X obj 124 82 r WELCOMEend;
#X text 57 38 open corresponding output;
#X text 59 55 stored in i to send clock ticks;
#X obj 124 106 t b b;
#X obj 124 180 gate;
#X msg 124 130 1;
#X obj 124 156 tgl 15 0 empty empty empty 17 7 0 10 -262144 -1 -1 0
1;
#X obj 200 180 + 1;
#X obj 178 183 tgl 15 0 empty empty empty 17 7 0 10 -262144 -1 -1 0
2;
#X obj 55 82 loadbang;
#X msg 87 131 0;
#X obj 125 209 outlet;
#X obj 223 83 inlet;
#X obj 186 116 t f f;
#X text 60 23 after start messege is finished;
#X obj 55 107 t b b;
#X msg 54 131 0;
#X text 35 244 until welcome message is finished;
#X text 37 231 at start dont send any clock ticks;
#X connect 0 0 6 1;
#X connect 1 0 9 0;
#X connect 1 0 10 0;
#X connect 2 0 5 0;
#X connect 5 0 7 0;
#X connect 5 1 1 0;
#X connect 6 0 13 0;
#X connect 7 0 8 0;
#X connect 8 0 6 0;
#X connect 9 0 13 0;
#X connect 11 0 17 0;
#X connect 12 0 8 0;
#X connect 14 0 15 0;
#X connect 15 0 0 0;
#X connect 15 1 1 1;
#X connect 17 0 18 0;
#X connect 17 1 12 0;
#X connect 18 0 13 0;
#X restore 348 78 pd atSTART;
#X obj 131 741 s START_LED_SEQ;
#X connect 4 0 22 0;
#X connect 4 1 0 0;
#X connect 6 0 4 0;
#X connect 7 0 0 0;
#X connect 7 0 4 0;
#X connect 8 0 0 0;
#X connect 8 0 4 0;
#X connect 9 0 0 0;
#X connect 9 0 4 0;
#X connect 10 0 0 0;
#X connect 10 0 4 0;
#X connect 12 0 13 0;
#X connect 13 0 14 0;
#X connect 13 0 27 0;
#X connect 14 0 13 1;
#X connect 16 0 12 0;
#X connect 17 0 18 0;
#X connect 17 1 6 0;
#X connect 17 2 18 0;
#X connect 17 3 7 0;
#X connect 17 4 18 0;
#X connect 17 5 8 0;
#X connect 17 6 18 0;
#X connect 17 7 9 0;
#X connect 17 8 18 0;
#X connect 17 9 10 0;
#X connect 17 10 18 0;
#X connect 18 0 0 0;
#X connect 18 0 4 0;
#X connect 19 0 24 0;
#X connect 19 1 21 0;
#X connect 21 0 38 0;
#X connect 22 0 19 0;
#X connect 23 0 38 0;
#X connect 24 0 25 0;
#X connect 25 0 23 0;
#X connect 26 0 34 0;
#X connect 27 0 28 0;
#X connect 28 0 29 0;
#X connect 28 0 15 0;
#X connect 28 1 17 0;
#X connect 29 0 30 0;
#X connect 30 0 31 0;
#X connect 31 0 33 0;
#X connect 31 1 32 0;
#X connect 32 0 16 0;
#X connect 33 0 36 0;
#X connect 34 0 12 0;
#X connect 34 1 35 0;
#X connect 35 0 13 1;
#X restore 765 45 pd init_seq;
#N canvas 139 149 1287 491 comments_decicions_2do 0;
#X text 390 211 CYFROWE BANGI W LISCIE SA WYSYŁANE CAŁY CZAS \, PROBLEM?
nie \, TYLKO WYSYŁA JAK SIE ZMIENIA;
#X text 391 148 SEND CONTROLS TO PATCHES SEPARATELY OR AS A LIST?;
#X text 391 162 AS LIST AND UNPACK IN THE PATCH AND THEN SEND INDIVIDUALS
ONES \, also add scaling then;
#X text 391 188 NORMALIZE ALL ANALOG INPUTS TO 0-1 and send;
#X text 391 200 SCALE AND MAP IN SUBPATCHES;
#X text 391 114 ANALOG AND DIGITAL INPUTS - SENSORS AND POTS;
#X text 16 255 SEQ CTRL;
#X text 16 268 DECIDE WHICH CONTROLS ARE GLOBAL AND WHICH SUB MODE
SPCIFIC;
#X text 15 281 SEND CONTROLS AS LIST TO EACH MODE ONLY IF IT'S SELECTED
;
#X text 390 234 SHIFT FROM SND CTRL CHANGES BEHAVIOUR OF SOME PARAMETERS
;
#X text 393 91 send LDRs as list? -array only used for max sens;
#X text 408 70 BRIGHTEST AND MAX GIVE VERY DIFFERENT RESULT;
#X text 390 243 SENS MAX FROM TRESHOLD KEEPS LAST VALUE - more stable
;
#X text 390 253 SENS MAX FROM SMLIB/VMAX JUMPS MORE WHEN NO LED ON
;
#X text 390 266 SENS MAX WAS FROM MAXLIB/VMAX;
#X text 390 275 NOW WITH TRESHOLD IS MUCH MORE ACCURATE;
#X obj 526 367 tgl 15 0 empty LG_GLOBAL LG 0 8 0 14 -4034 -258113 -4160
0 1;
#X obj 545 367 hsl 100 15 0 1 0 0 empty 01_TRESH 01_F_TRSHLD 2 8 0
10 -33289 -258113 -262144 5569 1;
#X floatatom 533 344 5 0 1 1 LG_TRSH_BEFORE_SMT - LG_treshold_before_smt
;
#X obj 438 346 tgl 15 0 empty LG_GLOBAL_NO_SMT LG_N0_SMT 0 8 0 14 -4034
-258113 -4160 0 1;
#X obj 438 409 timer;
#X floatatom 438 428 5 0 0 0 - - -;
#X obj 465 386 bng 15 250 50 0 empty empty empty 17 7 0 10 -262144
-1 -1;
#X obj 438 366 sel 1 0;
#X obj 504 388 sel 1 0;
#X text 434 319 COMPARE LG BEFORE AND AFTER SMT - we gain 30-40 ms
;
#X text 395 15 3 leddel modes;
#X text 395 25 Q - quantied to bpm notes;
#X text 395 36 M - manual multipleid by BPM;
#X text 394 45 L - Long;
#X text 395 55 ZMIENIAMY - JAK LEDDEL pot JEST PRZY 0;
#X text 800 44 MAKE TEMPLATE FOR ALL AUDIO PATCHES - DONE;
#X text 800 54 MAKE PATCH 1 - DOPIESZCZONE;
#X text 800 64 MAKE PATCH 2 - DOPIESZCZONE;
#X text 22 18 BRING DEALY FROM V1;
#X text 802 154 WYWALAM TEMPO CHANGE Z MASTER CLOCK - NIE UZYWAM \,
JEST OSOBNY MODE \, A TEZ WYWALE TMPCHANGE POT;
#X text 802 180 WYWALAM SEQ START - NIE UZYWAM \, A ZACZAC MOZEMY GDZIE
CHCEMY \, (PIERWSZY LED) \, TYLKO KONIEC-STEPS ZOSTAJE;
#X text 802 206 get rid of dir - not used;
#X text 802 141 FIX PATCH5 clicks - DONE - control signal was the porblem
;
#X text 799 124 FIX PATCH4 -was boring -got rid of the LIGHTGATE on
VOLUME;
#X text 433 331 WYDUPCAM TO;
#X text 24 36 TO SAVE CPU;
#X text 20 52 CHECK IF CONTROL WITH MATRIX OBJECT WOULD BE MORE CPU
FRIENDLY;
#X text 1031 409 musmuk audio - czek folder;
#X text 863 327 STUFF TO CHECK OUT FROM BROWSER:;
#X text 802 362 xgrove~ \, xplay~;
#X text 802 376 shaker~ \, karplus~;
#X text 802 390 stifkarplus~;
#X text 802 403 sitar~;
#X text 802 416 plucked~;
#X text 802 430 bangedwg~;
#X text 1032 359 upp - tutorial;
#X text 802 442 unauthorized;
#X text 1032 372 lyonpotpouri;
#X text 802 455 bsaylor susloop~;
#X text 1032 385 puradata folder examples;
#X text 802 347 AUDIO GENERATORS;
#X text 1032 347 LESSONS \, EXAMPLES:;
#X text 1031 399 from Edgar;
#X text 954 9 done;
#X text 802 276 osobny smooth ldrs osobny pots;
#X text 23 6 TO DO;
#X text 800 74 PATCH3 - fix clicks-added switch for B/T mode - in toggle
mode we don't get clicks and B we do when new B received before sample
finished playing;
#X text 392 0 NOTES;
#X text 800 21 FIX SM5 SSM3 - RANDOM METRO VARIABLE - WAS TOO FAST
\, MADE ABSTRACTION;
#X connect 16 0 24 0;
#X connect 19 0 23 0;
#X connect 20 0 21 0;
#X connect 22 0 20 0;
#X connect 23 0 20 0;
#X connect 23 1 20 0;
#X connect 24 0 20 1;
#X connect 24 1 20 1;
#X restore 231 19 pd comments_decicions_2do;
#X obj 82 681 bng 15 250 50 0 SEQ_ALL_LED_OFF empty LED_OFF 15 8 0
15 -4034 -1 -4160;
#X obj 215 99 tgl 18 0 CTRL_UPDATE empty CTRL 18 11 0 18 -258113 -1
-1 0 1;
#X floatatom 215 141 5 0 1 1 SMT_POT - smooth_factor_pots;
#X floatatom 216 120 5 50 200 1 CTRL_RATE - CTRL_UPDATE_RATE;
#X obj 279 101 bng 15 50 10 0 empty update_controls empty 17 7 0 10
-4034 -1 -1;
#N canvas 0 50 450 250 (subpatch) 0;
#X array LDRS_INV_10_SMT 32 float 2;
#X coords 0 1 32 0 150 50 1 0 0;
#X restore 871 113 graph;
#X floatatom 894 127 5 0 1 1 TRSH_BY_HND - GLOBAL_SENS_TRESH;
#X floatatom 670 129 5 0 0 1 TRESHOLD GLOBAL_SENS_TRESH -;
#X obj 597 166 hsl 100 15 0 1 0 0 empty 01_TRESH 01_F_TRSHLD 2 8 0
10 -33289 -258113 -262144 5569 1;
#X floatatom 670 112 5 0 1 1 SMTH_LDRS smooth smooth_factor_ldrs;
#X obj 768 97 tgl 25 0 empty light_gate LG 0 8 0 14 -4034 -258113 -33289
0 1;
#X obj 1022 114 vsl 10 48 0 1 0 0 empty MIN_LDR_V MIN -5 -9 0 10 -204800
-1 -1 0 1;
#X floatatom 594 148 5 0 0 1 MIN min_sens -;
#X obj 574 104 tgl 15 0 empty empty LDRs_DRAW 17 7 0 10 -258113 -1
-4160 1 1;
#X obj 785 167 hsl 50 15 0 1 0 0 empty 01_L_1 BTM_R 2 8 0 10 -261234
-258113 -262144 612 1;
#X obj 768 167 tgl 15 0 empty LG_L_1 empty 17 7 0 10 -262144 -1 -1
0 1;
#X obj 785 152 hsl 50 15 0 1 0 0 empty 01_L_2 3RD_R 2 8 0 10 -261234
-258113 -262144 3062 1;
#X obj 768 152 tgl 15 0 empty LG_L_2 empty 17 7 0 10 -262144 -1 -1
0 1;
#X obj 785 137 hsl 50 15 0 1 0 0 empty 01_L_3 2ND_R 2 8 0 10 -261234
-258113 -262144 2450 1;
#X obj 768 137 tgl 15 0 empty LG_L_3 empty 17 7 0 10 -262144 -1 -1
0 1;
#X obj 785 122 hsl 50 15 0 1 0 0 empty 01_L_4 TOP_R 2 8 0 10 -261234
-258113 -262144 4287 1;
#X obj 768 122 tgl 15 0 empty LG_L_4 empty 17 7 0 10 -262144 -1 -1
0 1;
#X floatatom 670 147 3 0 1000 1 01_SLEW 01_SLEW sens_01_slew;
#X floatatom 594 131 5 0 0 1 MIN_V min_sen_vect -;
#X text 668 97 PROCESS_SENSORS;
#N canvas 0 50 450 250 (subpatch) 0;
#X array 56_ANALOGin 56 float 2;
#X coords 0 1 56 0 56 50 1 0 0;
#X restore 310 110 graph;
#X msg 128 120 info;
#X floatatom 32 167 1 0 0 1 PORT - -;
#X floatatom 32 98 1 0 0 1 PORT ARD_MEGA_PORT -;
#X msg 70 98 2;
#X msg 541 100 info;
#X floatatom 453 146 1 0 0 1 PORT - -;
#X msg 453 99 open 2;
#X connect 1 0 4 0;
#X connect 4 0 63 0;
#X connect 7 0 8 0;
#X connect 9 0 67 0;
#X connect 12 0 4 0;
#X connect 13 0 9 0;
#X connect 20 0 4 0;
#X connect 49 0 9 1;
#X connect 62 0 4 0;
#X connect 64 0 20 0;
#X connect 65 0 20 0;
#X connect 66 0 9 0;
#X connect 68 0 9 0;
