#N canvas 101 52 880 723 10;
#X obj 59 34 inlet;
#X obj 411 75 inlet;
#X text 45 86 slice length;
#X text 159 86 speed (1= normal 0.5=half);
#X floatatom 16 147 5 0 0 0 - - -, f 5;
#X floatatom 417 108 5 0 0 0 - - -, f 5;
#X obj 59 186 t b f;
#X obj 41 221 arraysize \$1;
#X obj 41 247 t f f;
#X obj 41 320 t b f;
#X obj 41 342 samplerate~;
#X obj 41 364 /;
#X obj 41 416 *;
#X obj 59 389 r \$0slices;
#X obj 73 271 /;
#X obj 73 293 s \$0slices;
#X floatatom 2 415 5 0 0 0 - - -, f 5;
#X floatatom 41 473 5 0 0 0 - - -, f 5;
#X obj 310 195 t b f;
#X obj 136 448 phasor~;
#X obj 41 320 t b f;
#X obj 41 320 t b f;
#X obj 41 320 t b f;
#X obj 296 229 f 1;
#X obj 296 264 *, f 7;
#X obj 296 298 phasor~;
#X obj 296 321 *~;
#X obj 234 511 *~;
#X obj 314 370 wrap~;
#X obj 295 408 -~;
#X obj 137 508 *~;
#X obj 211 546 +~;
#X msg 397 231 0;
#X text 426 270 synq phasors;
#X obj 59 149 t f f f, f 28;
#X obj 210 572 tabread4~ \$1;
#X obj 209 597 *~;
#X obj 208 631 outlet~;
#X obj 339 477 -~ 0.5;
#X obj 338 502 wrap~;
#X obj 338 546 *~ 1;
#X obj 338 568 clip~ -0.5 0.5;
#X obj 338 590 cos~;
#X obj 338 612 -~ 1;
#X obj 338 634 *~ -0.5;
#X obj 338 524 -~ 0.5~;
#X text 405 493 subtracting 0.5 and wrapping produces a sawtooth wave
180 degrees out of pahse from orginal;
#X text 403 525 as before we subtract 0.5 again to center the saw back
from -0.5 to 0.5;
#X msg 493 392 1;
#X obj 493 371 moses 1;
#X text 554 374 sharpness - at least 1;
#X floatatom 597 336 5 0 0 0 - - -, f 5;
#X obj 498 168 loadbang;
#X msg 530 331 10;
#X msg 493 331 1;
#X obj 498 195 t b b;
#X msg 564 332 50;
#X text 328 352 int~ - get rid of fractions;
#X obj 389 298 r \$0slices;
#X text 418 475 that's amplitude envelope =;
#X floatatom 84 106 8 0 0 0 - - -, f 8;
#X obj 68 70 unpack f f, f 33;
#X obj 314 105 / 32;
#X obj 296 130 *;
#X floatatom 331 160 5 0 0 0 - - -, f 5;
#X connect 0 0 4 0;
#X connect 0 0 61 0;
#X connect 1 0 5 0;
#X connect 1 0 23 0;
#X connect 1 0 62 0;
#X connect 6 0 7 0;
#X connect 6 0 32 0;
#X connect 6 1 14 1;
#X connect 7 0 8 0;
#X connect 8 0 9 0;
#X connect 8 1 14 0;
#X connect 9 0 10 0;
#X connect 9 1 11 1;
#X connect 10 0 11 0;
#X connect 11 0 12 0;
#X connect 11 0 16 0;
#X connect 11 0 18 0;
#X connect 12 0 17 0;
#X connect 12 0 19 0;
#X connect 13 0 12 1;
#X connect 14 0 15 0;
#X connect 18 0 23 0;
#X connect 18 1 24 1;
#X connect 19 0 30 0;
#X connect 19 0 38 0;
#X connect 23 0 24 0;
#X connect 24 0 25 0;
#X connect 25 0 26 0;
#X connect 26 0 29 0;
#X connect 26 0 28 0;
#X connect 27 0 31 1;
#X connect 28 0 29 1;
#X connect 29 0 27 0;
#X connect 30 0 31 0;
#X connect 31 0 35 0;
#X connect 32 0 25 1;
#X connect 32 0 19 1;
#X connect 34 0 6 0;
#X connect 34 1 30 1;
#X connect 34 2 27 1;
#X connect 35 0 36 0;
#X connect 36 0 37 0;
#X connect 38 0 39 0;
#X connect 39 0 45 0;
#X connect 40 0 41 0;
#X connect 41 0 42 0;
#X connect 42 0 43 0;
#X connect 43 0 44 0;
#X connect 44 0 36 1;
#X connect 45 0 40 0;
#X connect 48 0 40 1;
#X connect 49 0 48 0;
#X connect 49 1 40 1;
#X connect 51 0 49 0;
#X connect 52 0 55 0;
#X connect 53 0 49 0;
#X connect 54 0 49 0;
#X connect 55 0 32 0;
#X connect 55 1 53 0;
#X connect 56 0 49 0;
#X connect 58 0 26 1;
#X connect 61 0 60 0;
#X connect 61 0 34 0;
#X connect 61 1 63 0;
#X connect 62 0 63 1;
#X connect 63 0 64 0;
#X connect 63 0 23 0;
