#N canvas 188 236 1154 689 10;
#X obj 840 97 bng 15 250 50 0 empty empty empty 17 7 0 10 -262144 -1
-1;
#X obj 654 507 print;
#X obj 654 478 spigot;
#X obj 693 457 tgl 15 0 empty empty empty 17 7 0 10 -262144 -1 -1 0
1;
#X obj 147 15 r PTCH4_CTRL_LIST;
#X obj 147 92 s PTCH4_PAR_A1;
#X obj 289 94 s PTCH4_PAR_A2;
#X obj 147 41 unpack f f f f f f, f 102;
#X obj 431 95 s PTCH4_PAR_A3;
#X obj 572 96 s PTCH4_PAR_D1;
#X obj 714 95 s PTCH4_PAR_D2;
#X obj 857 105 s PTCH4_PAR_D3;
#X obj 820 574 switch~;
#X floatatom 864 549 2 0 0 0 - - -, f 2;
#X text 841 548 dsp;
#X obj 820 544 tgl 15 0 empty empty empty 17 7 0 10 -262144 -1 -1 0
1;
#X obj 820 521 oneARDinCOMPARE 0.1;
#X floatatom 820 499 5 0 0 0 - patch4level -, f 5;
#X obj 714 69 1_ARD_DIG_SW;
#X text 146 112 length variable;
#X text 285 113 speed variablle;
#X obj 540 74 tgl 15 0 empty empty empty 17 7 0 10 -262144 -1 -1 0
1;
#N canvas 271 172 935 617 TimeStrecz_LSE2 0;
#X floatatom 235 207 5 0 0 0 - - -, f 5;
#X obj 225 182 change;
#X floatatom 83 385 5 0 0 0 - - -, f 5;
#X obj 226 296 *, f 13;
#X text 160 230 this is the number we multiply by;
#X floatatom 522 292 5 0 0 0 - - -, f 5;
#X text 576 299 speed;
#N canvas 0 172 850 750 timestreczMUJ_z_start_czange 0;
#X obj 152 473 phasor~;
#X floatatom 21 494 12 0 0 0 - - -, f 12;
#X obj 356 239 phasor~;
#X floatatom 29 388 12 0 0 0 - - -, f 12;
#X obj 153 496 *~, f 9;
#X obj 152 526 +~;
#X obj 356 453 *~;
#X obj 21 310 t b f, f 13;
#X obj 21 446 *;
#X msg 524 222 0;
#X obj 247 697 *~;
#X text 132 13 timestretch -- \$1: array name;
#X obj 247 721 outlet~;
#X obj 524 197 loadbang;
#X obj 356 215 *;
#X obj 367 154 t b f;
#X obj 356 190 f 1;
#X obj 355 37 inlet;
#X text 355 15 speed (1=normal \, 0.5=half);
#X floatatom 355 64 5 0 0 0 - - -, f 5;
#X floatatom 35 104 8 0 0 0 - - -, f 8;
#X obj 58 257 /, f 9;
#X text 17 11 slice length;
#X obj 21 231 t f f;
#X obj 21 337 samplerate~;
#X obj 21 34 inlet;
#X obj 53 285 s \$0slices;
#X obj 53 415 r \$0slices;
#X obj 391 321 r \$0slices;
#X obj 376 386 wrap~;
#X obj 357 410 -~;
#X obj 353 486 -~ 0.5;
#X obj 353 507 wrap~;
#X obj 353 526 -~ 0.5;
#X text 407 483 subtracting 0.5 and wrapping produces a sawtooth wave
180 degrees out of phase from the original.;
#X text 402 520 as before we subtract 1/2 again to center the sawtooth
from -1/2 to 1/2.;
#X obj 354 564 clip~ -0.5 0.5;
#X obj 354 545 *~ 1;
#X obj 354 584 cos~;
#X obj 354 622 *~ -0.5;
#X obj 354 603 -~ 1;
#X obj 284 508 loadbang;
#X obj 450 71 inlet;
#X floatatom 450 248 5 0 0 0 - - -, f 5;
#X text 555 221 sync phasors(orginal);
#X text 32 182 orginal(\$1)-abstraction;
#X text 239 644 orginal(\$1)-abstraction;
#X floatatom 53 446 5 0 0 0 - - -, f 5;
#X text 523 243 no sync \, but start in the middle of sample;
#X msg 285 528 10;
#X obj 356 361 *~;
#X obj 21 364 /, f 13;
#X obj 21 83 unpack f f, f 42;
#X obj 21 121 t b f f f, f 42;
#X obj 450 222 / 32;
#X text 472 104 sensor in;
#X obj 21 206 arraysize MajStrecz;
#X obj 247 668 tabread4~ MajStrecz;
#X connect 0 0 4 0;
#X connect 0 0 31 0;
#X connect 2 0 50 0;
#X connect 4 0 5 0;
#X connect 5 0 57 0;
#X connect 6 0 5 1;
#X connect 7 0 24 0;
#X connect 7 1 51 1;
#X connect 8 0 1 0;
#X connect 8 0 0 0;
#X connect 9 0 2 1;
#X connect 9 0 0 1;
#X connect 10 0 12 0;
#X connect 13 0 9 0;
#X connect 14 0 2 0;
#X connect 15 0 16 0;
#X connect 15 1 14 1;
#X connect 16 0 14 0;
#X connect 17 0 19 0;
#X connect 19 0 16 0;
#X connect 21 0 26 0;
#X connect 23 0 7 0;
#X connect 23 1 21 0;
#X connect 24 0 51 0;
#X connect 25 0 52 0;
#X connect 27 0 8 1;
#X connect 27 0 47 0;
#X connect 28 0 50 1;
#X connect 29 0 30 1;
#X connect 30 0 6 0;
#X connect 31 0 32 0;
#X connect 32 0 33 0;
#X connect 33 0 37 0;
#X connect 36 0 38 0;
#X connect 37 0 36 0;
#X connect 38 0 40 0;
#X connect 39 0 10 1;
#X connect 40 0 39 0;
#X connect 41 0 49 0;
#X connect 42 0 54 0;
#X connect 49 0 37 1;
#X connect 50 0 29 0;
#X connect 50 0 30 0;
#X connect 51 0 3 0;
#X connect 51 0 8 0;
#X connect 51 0 15 0;
#X connect 52 0 53 0;
#X connect 52 0 20 0;
#X connect 52 1 16 0;
#X connect 53 0 54 0;
#X connect 53 0 56 0;
#X connect 53 1 21 1;
#X connect 53 2 4 1;
#X connect 53 3 6 1;
#X connect 54 0 43 0;
#X connect 54 0 0 1;
#X connect 54 0 2 1;
#X connect 56 0 23 0;
#X connect 57 0 10 0;
#X restore 524 487 pd timestreczMUJ_z_start_czange;
#X text 141 145 CTRL INPUTS;
#X text 536 462 AUDIO PATCH GUTS;
#N canvas 684 355 535 354 speedCTRLLLL 0;
#X obj 220 31 inlet;
#X obj 122 269 outlet;
#X floatatom 263 208 5 0 0 0 - - -, f 5;
#X floatatom 328 205 5 0 0 0 - - -, f 5;
#X floatatom 405 234 5 0 0 0 - - -, f 5;
#X obj 237 159 + 0.01;
#X obj 392 201 moses 0.001;
#X obj 294 156 moses -0.0125;
#X obj 294 134 - 0.5;
#X text 253 241 speed ctrl source;
#X obj 122 111 vradio 15 1 1 3 empty empty empty 0 -8 0 10 -262144
-1 -1 1;
#X text 262 88 speed ctrl source;
#X text 171 58 sensor brightest;
#X obj 122 223 switch 2;
#X floatatom 183 158 5 0 0 0 - - -, f 5;
#X floatatom 151 111 5 0 0 0 - - -, f 5;
#X obj 135 168 outlet;
#X obj 345 43 inlet;
#X obj 122 27 inlet;
#X obj 220 90 / 8;
#X msg 42 75 1;
#X obj 42 53 loadbang, f 30;
#X connect 0 0 19 0;
#X connect 5 0 2 0;
#X connect 5 0 13 1;
#X connect 6 1 4 0;
#X connect 7 0 3 0;
#X connect 7 0 13 2;
#X connect 7 1 6 0;
#X connect 8 0 7 0;
#X connect 10 0 13 0;
#X connect 10 0 16 0;
#X connect 13 0 1 0;
#X connect 17 0 19 1;
#X connect 18 0 10 0;
#X connect 18 0 15 0;
#X connect 19 0 5 0;
#X connect 19 0 8 0;
#X connect 19 0 14 0;
#X connect 20 0 10 0;
#X connect 21 0 20 0;
#X restore 510 258 pd speedCTRLLLL;
#X floatatom 620 285 5 0 0 0 - - -, f 5;
#X obj 226 350 pack f f, f 41;
#X floatatom 351 185 5 0 0 0 - - -, f 5;
#X floatatom 672 231 5 0 0 0 - - -, f 5;
#N canvas 393 207 343 203 slice_length 0;
#X obj 58 17 inlet;
#X obj 184 138 outlet;
#X floatatom 215 103 8 0 0 0 - - -, f 8;
#X obj 58 64 cyclone/sampstoms~;
#X text 112 27 the length of slice in ms;
#X connect 0 0 3 0;
#X connect 3 1 2 0;
#X connect 3 1 1 0;
#X restore 84 362 pd slice_length;
#X text 121 378 length MS;
#X obj 314 162 1_exp_scale_ctrl 2000 1;
#X floatatom 669 463 5 0 0 0 - - -, f 5;
#X obj 738 440 change;
#X text 734 378 brightest sensor;
#X text 161 244 im mniej tym krotszy slice;
#X text 714 396 but we could us color also;
#X text 162 206 brightsens;
#X floatatom 333 309 5 0 0 0 - - -, f 5;
#X obj 225 160 r min_sens;
#X floatatom 561 229 5 0 0 0 - - -, f 5;
#X obj 561 204 change;
#X obj 661 206 1_exp_scale_ctrl 40 2;
#X obj 226 139 r max_sens;
#X text 284 253 fromm loadSample subpatch;
#X obj 226 380 t l l, f 43;
#X floatatom 420 455 5 0 0 0 - - -, f 5;
#X obj 406 432 change;
#X obj 561 182 r min_sens;
#X obj 738 418 r min_sens;
#X obj 406 410 r min_sens;
#X obj 228 511 outlet~;
#X obj 525 517 outlet~;
#X obj 333 272 r initialSlice;
#X obj 314 98 inlet length;
#X obj 510 93 inlet speed_src;
#X obj 661 91 inlet speed;
#X obj 510 124 + 1;
#X obj 736 326 outlet speed;
#X obj 227 477 1_KAC_stretch MajStrecz;
#X connect 1 0 0 0;
#X connect 1 0 3 0;
#X connect 3 0 12 0;
#X connect 3 0 15 0;
#X connect 7 0 38 0;
#X connect 10 0 5 0;
#X connect 10 0 12 1;
#X connect 10 0 44 0;
#X connect 10 1 11 0;
#X connect 12 0 31 0;
#X connect 15 0 2 0;
#X connect 17 0 13 0;
#X connect 17 0 3 1;
#X connect 19 0 18 0;
#X connect 19 0 7 2;
#X connect 25 0 1 0;
#X connect 26 0 10 1;
#X connect 27 0 26 0;
#X connect 28 0 14 0;
#X connect 28 0 10 2;
#X connect 31 0 45 0;
#X connect 31 1 7 0;
#X connect 33 0 32 0;
#X connect 33 0 45 1;
#X connect 34 0 27 0;
#X connect 35 0 19 0;
#X connect 36 0 33 0;
#X connect 39 0 3 1;
#X connect 39 0 24 0;
#X connect 40 0 17 0;
#X connect 41 0 43 0;
#X connect 42 0 28 0;
#X connect 43 0 10 0;
#X connect 45 0 37 0;
#X restore 531 368 pd TimeStrecz_LSE2;
#X text 812 160 LOAD and MANAGE samples;
#N canvas 104 172 968 631 tajmstrecz2_LSE1 0;
#X floatatom 16 182 5 0 0 0 - - -, f 5;
#X obj 16 136 change;
#X floatatom 234 306 8 0 0 0 - - -, f 8;
#X text 33 111 im mniejsza ta cyfra tym krotszy slice;
#X obj 296 277 *;
#X text 79 305 the length of slice;
#X text 32 97 this is the number we multiply by;
#X floatatom 580 291 5 0 0 0 - - -, f 5;
#X text 474 233 speed ctrl source;
#X text 623 292 speed;
#N canvas 346 172 945 816 timestreczMUJ_z_start_czange 0;
#X obj 297 373 phasor~;
#X floatatom 71 454 12 0 0 0 - - -, f 12;
#X obj 406 279 phasor~;
#X floatatom 79 368 12 0 0 0 - - -, f 12;
#X obj 298 446 *~;
#X obj 297 476 +~;
#X obj 406 443 *~;
#X obj 71 290 t b f;
#X obj 71 344 /;
#X obj 71 426 *;
#X msg 574 259 0;
#X obj 297 757 *~;
#X text 66 11 timestretch -- \$1: array name;
#X obj 297 781 outlet~;
#X obj 574 234 loadbang;
#X obj 406 351 *~;
#X obj 406 255 *;
#X obj 417 194 t b f;
#X obj 406 230 f 1;
#X obj 405 77 inlet;
#X text 405 55 speed (1=normal \, 0.5=half);
#X floatatom 405 104 5 0 0 0 - - -, f 5;
#X floatatom 71 100 8 0 0 0 - - -, f 8;
#X obj 71 141 t b f;
#X obj 103 237 /;
#X text 67 51 slice length;
#X obj 71 211 t f f;
#X obj 71 317 samplerate~;
#X obj 71 74 inlet;
#X obj 103 265 s \$0slices;
#X obj 103 395 r \$0slices;
#X obj 461 331 r \$0slices;
#X obj 426 376 wrap~;
#X obj 407 400 -~;
#X obj 433 493 -~ 0.5;
#X obj 433 518 wrap~;
#X obj 433 547 -~ 0.5;
#X text 487 490 subtracting 0.5 and wrapping produces a sawtooth wave
180 degrees out of phase from the original.;
#X text 482 541 as before we subtract 1/2 again to center the sawtooth
from -1/2 to 1/2.;
#X obj 434 599 clip~ -0.5 0.5;
#X obj 434 577 *~ 1;
#X obj 575 609 moses 1;
#X msg 575 633 1;
#X obj 434 624 cos~;
#X obj 434 672 *~ -0.5;
#X obj 434 647 -~ 1;
#X obj 575 562 loadbang;
#X obj 506 81 inlet;
#X floatatom 556 320 5 0 0 0 - - -, f 5;
#X obj 297 728 tabread4~ MajStrecz;
#X obj 71 166 arraysize MajStrecz;
#X text 605 258 sync phasors(orginal);
#X text 212 165 orginal(\$1)-abstraction;
#X text 289 704 orginal(\$1)-abstraction;
#X obj 506 244 / 31;
#X floatatom 103 426 5 0 0 0 - - -, f 5;
#X text 573 280 no sync \, but start in the middle of sample;
#X msg 575 584 100;
#X connect 0 0 4 0;
#X connect 0 0 34 0;
#X connect 1 0 0 0;
#X connect 2 0 15 0;
#X connect 3 0 17 0;
#X connect 4 0 5 0;
#X connect 5 0 49 0;
#X connect 6 0 5 1;
#X connect 7 0 27 0;
#X connect 7 1 8 1;
#X connect 8 0 3 0;
#X connect 8 0 9 0;
#X connect 9 0 1 0;
#X connect 10 0 2 1;
#X connect 10 0 0 1;
#X connect 11 0 13 0;
#X connect 14 0 10 0;
#X connect 15 0 32 0;
#X connect 15 0 33 0;
#X connect 16 0 2 0;
#X connect 17 0 18 0;
#X connect 17 1 16 1;
#X connect 18 0 16 0;
#X connect 19 0 21 0;
#X connect 21 0 18 0;
#X connect 22 0 23 0;
#X connect 22 0 4 1;
#X connect 22 0 6 1;
#X connect 23 0 50 0;
#X connect 23 0 54 0;
#X connect 23 1 24 1;
#X connect 24 0 29 0;
#X connect 26 0 7 0;
#X connect 26 1 24 0;
#X connect 27 0 8 0;
#X connect 28 0 22 0;
#X connect 30 0 9 1;
#X connect 30 0 55 0;
#X connect 31 0 15 1;
#X connect 32 0 33 1;
#X connect 33 0 6 0;
#X connect 34 0 35 0;
#X connect 35 0 36 0;
#X connect 36 0 40 0;
#X connect 39 0 43 0;
#X connect 40 0 39 0;
#X connect 41 0 42 0;
#X connect 41 1 40 1;
#X connect 42 0 40 1;
#X connect 43 0 45 0;
#X connect 44 0 11 1;
#X connect 45 0 44 0;
#X connect 46 0 57 0;
#X connect 47 0 54 0;
#X connect 49 0 11 0;
#X connect 50 0 26 0;
#X connect 54 0 48 0;
#X connect 54 0 0 1;
#X connect 54 0 2 1;
#X connect 57 0 41 0;
#X restore 496 497 pd timestreczMUJ_z_start_czange;
#X text 508 517 changed from abstraction-now brightest sensor chooses
where we start playing in the sample!!!;
#X text 723 498 AUDIO PATCH GUTS;
#X text 65 460 do zmiany miedzy smpl od poczatku zawsze i zaczynania
w zaleznosci od jasnego LDR;
#N canvas 882 395 433 309 speedCTRLLLL 0;
#X obj 144 24 inlet;
#X obj 98 258 outlet;
#X floatatom 177 181 5 0 0 0 - - -, f 5;
#X floatatom 242 178 5 0 0 0 - - -, f 5;
#X floatatom 319 207 5 0 0 0 - - -, f 5;
#X obj 161 152 + 0.01;
#X obj 306 174 moses 0.001;
#X obj 218 149 moses -0.0125;
#X obj 218 127 - 0.5;
#X text 167 214 speed ctrl source;
#X obj 46 104 vradio 15 1 1 3 empty empty empty 0 -8 0 10 -262144 -1
-1 1;
#X text 186 81 speed ctrl source;
#X text 33 50 sensor brightest;
#X obj 78 214 switch 2;
#X floatatom 107 151 5 0 0 0 - - -, f 5;
#X floatatom 75 104 5 0 0 0 - - -, f 5;
#X obj 46 259 outlet;
#X obj 46 155 t f f;
#X obj 269 36 inlet;
#X obj 49 20 inlet;
#X obj 144 83 / 32, f 22;
#X connect 0 0 20 0;
#X connect 5 0 2 0;
#X connect 5 0 13 1;
#X connect 6 1 4 0;
#X connect 7 0 3 0;
#X connect 7 0 13 2;
#X connect 7 1 6 0;
#X connect 8 0 7 0;
#X connect 10 0 17 0;
#X connect 13 0 1 0;
#X connect 17 0 16 0;
#X connect 17 1 13 0;
#X connect 18 0 20 1;
#X connect 19 0 10 0;
#X connect 20 0 5 0;
#X connect 20 0 8 0;
#X connect 20 0 14 0;
#X restore 450 258 pd speedCTRLLLL;
#X obj 333 179 r initialSlice;
#X text 69 487 change playback modes;
#X floatatom 333 231 5 0 0 0 - - -, f 5;
#X obj 296 354 t l l, f 29;
#X obj 296 330 pack f f, f 37;
#X obj 496 432 unpack f f, f 16;
#X obj 296 390 unpack f f;
#X floatatom 450 280 5 0 0 0 - - -, f 5;
#X floatatom 563 152 5 0 0 0 - - -, f 5;
#X obj 552 127 1_exp_scale_ctrl 40 2;
#X obj 314 92 inlet length;
#X obj 450 57 inlet speed_src;
#X obj 552 97 inlet speed;
#X obj 298 573 outlet~;
#X obj 495 572 outlet~;
#X floatatom 465 90 5 0 0 0 - - -, f 5;
#X obj 450 129 + 1;
#X text 87 72 sensor;
#X obj 16 71 r min_sens;
#X text 794 407 sensor;
#X obj 713 406 r min_sens;
#X floatatom 734 479 5 0 0 0 - - -, f 5;
#X obj 710 433 change;
#X text 572 181 sensor;
#X obj 501 180 r min_sens;
#X obj 626 323 outlet;
#X obj 296 417 1_KAC_stretch MajStrecz;
#X connect 1 0 0 0;
#X connect 1 0 4 0;
#X connect 4 0 2 0;
#X connect 4 0 19 0;
#X connect 10 0 29 0;
#X connect 14 0 22 0;
#X connect 14 1 7 0;
#X connect 14 1 19 1;
#X connect 14 1 40 0;
#X connect 15 0 4 1;
#X connect 15 0 17 0;
#X connect 18 0 21 0;
#X connect 18 1 20 0;
#X connect 19 0 18 0;
#X connect 20 0 10 0;
#X connect 20 1 10 1;
#X connect 21 0 41 0;
#X connect 21 1 41 1;
#X connect 24 0 23 0;
#X connect 24 0 14 2;
#X connect 25 0 4 1;
#X connect 26 0 30 0;
#X connect 26 0 31 0;
#X connect 27 0 24 0;
#X connect 31 0 14 0;
#X connect 33 0 1 0;
#X connect 35 0 37 0;
#X connect 37 0 36 0;
#X connect 37 0 10 2;
#X connect 39 0 14 1;
#X connect 41 0 28 0;
#X coords 0 631 1 630 140 70 0;
#X restore 285 366 pd tajmstrecz2_LSE1;
#N canvas 35 51 1181 390 loadSample2 0;
#X floatatom 177 220 7 0 0 0 - - -, f 7;
#X text 15 247 sampel size in samples;
#X text 121 268 in MS;
#X obj 177 302 s initialSlice;
#X obj 177 192 soundfiler;
#X floatatom 177 277 5 0 0 0 - - -, f 5;
#X obj 177 248 / 44.1;
#X msg 177 144 read -resize /home/ccrma/pd/sample/FX/FX_SMPL0\$1.wav
MajStrecz;
#X obj 72 46 loadbang;
#X obj 73 91 random 11;
#X floatatom 73 113 5 0 0 0 - - -, f 5;
#X obj 35 46 bng 15 250 50 0 empty empty empty 17 7 0 10 -262144 -1
-1;
#X obj 73 69 del 5000;
#X obj 124 193 print;
#X text 239 18 load new sample;
#X obj 219 19 bng 15 250 50 0 empty empty empty 17 7 0 10 -262144 -1
-1;
#X obj 177 72 i;
#X obj 177 39 t b;
#X obj 216 72 + 1;
#X obj 177 118 + 100;
#X msg 217 47 0;
#X floatatom 275 86 5 0 0 0 - - -, f 5;
#X obj 265 64 r SMPL_FX_AMT;
#X obj 177 96 % 9, f 13;
#X floatatom 731 229 7 0 0 0 - - -, f 7;
#X text 570 227 sampel size in samples;
#X text 676 288 in MS;
#X obj 731 201 soundfiler;
#X floatatom 731 286 5 0 0 0 - - -, f 5;
#X obj 730 27 inlet;
#X obj 773 29 bng 15 250 50 0 empty empty empty 17 7 0 10 -262144 -1
-1;
#X obj 731 82 i;
#X obj 731 49 t b;
#X obj 770 82 + 1;
#X obj 731 132 + 100;
#X msg 771 55 0;
#X floatatom 657 147 5 0 0 0 - - -, f 5;
#X obj 731 257 / 44.1;
#X floatatom 829 94 5 0 0 0 - - -, f 5;
#X obj 819 72 r SMPL_KIKS_AMT;
#X obj 731 106 % 9, f 13;
#X obj 680 200 print;
#X obj 619 37 loadbang;
#X obj 620 82 random 11;
#X floatatom 620 104 5 0 0 0 - - -, f 5;
#X obj 582 37 bng 15 250 50 0 empty empty empty 17 7 0 10 -262144 -1
-1;
#X obj 620 60 del 5000;
#X msg 731 159 read -resize /home/ccrma/pd/sample/KIKS/KC_SMPL0\$1.wav
MajStrecz;
#X obj 731 311 s initialSlice;
#X connect 0 0 6 0;
#X connect 4 0 0 0;
#X connect 5 0 3 0;
#X connect 6 0 5 0;
#X connect 7 0 4 0;
#X connect 8 0 12 0;
#X connect 9 0 10 0;
#X connect 11 0 9 0;
#X connect 12 0 9 0;
#X connect 15 0 17 0;
#X connect 16 0 18 0;
#X connect 16 0 23 0;
#X connect 17 0 16 0;
#X connect 18 0 16 1;
#X connect 19 0 7 0;
#X connect 20 0 16 1;
#X connect 22 0 21 0;
#X connect 22 0 23 1;
#X connect 23 0 19 0;
#X connect 24 0 37 0;
#X connect 27 0 24 0;
#X connect 28 0 48 0;
#X connect 29 0 32 0;
#X connect 30 0 31 0;
#X connect 31 0 33 0;
#X connect 31 0 40 0;
#X connect 32 0 31 0;
#X connect 33 0 31 1;
#X connect 34 0 47 0;
#X connect 35 0 31 1;
#X connect 37 0 28 0;
#X connect 39 0 38 0;
#X connect 39 0 40 1;
#X connect 40 0 36 0;
#X connect 40 0 34 0;
#X connect 42 0 46 0;
#X connect 43 0 44 0;
#X connect 43 0 34 0;
#X connect 45 0 43 0;
#X connect 46 0 43 0;
#X connect 47 0 27 0;
#X connect 47 0 41 0;
#X restore 815 205 pd loadSample2;
#X obj 261 593 throw~ ch4;
#X obj 398 592 throw~ ch4pre;
#N canvas 0 50 450 300 (subpatch) 0;
#X array MajStrecz 15059 float 0;
#X coords 0 1 15058 -1 250 100 1 0 0;
#X restore 814 241 graph;
#X text 198 184 CTRL INPUTS;
#X floatatom 239 212 5 0 0 0 - - -, f 5;
#X text 421 267 speed variablle;
#X text 285 174 length variable;
#X obj 415 287 r PTCH4_PAR_A2;
#X text 260 238 speed source;
#X obj 285 189 r PTCH4_PAR_A1;
#X floatatom 428 309 5 0 0 0 - - -, f 5;
#X obj 262 559 hip~ 20;
#X obj 280 469 r light_gate;
#X obj 352 500 tgl 15 0 empty empty empty 17 7 0 10 -262144 -1 -1 1
1;
#X text 388 473 now from global;
#X text 395 486 saves cpu?;
#X obj 262 534 *~;
#N canvas 27 267 674 463 demultiplex 0;
#X obj 278 36 inlet~;
#X obj 360 37 inlet~;
#X obj 125 32 inlet;
#X obj 382 344 outlet~;
#X obj 530 281 *~;
#X obj 447 279 *~;
#X obj 359 280 *~;
#X obj 277 281 *~;
#X text 13 74 bang to output;
#X obj 125 235 sig~;
#X obj 158 235 sig~;
#X obj 191 235 sig~;
#X obj 224 235 sig~;
#X obj 125 71 sel 0 1 2 3;
#X msg 125 96 1 0 0 0;
#X msg 143 124 0 1 0 0;
#X msg 162 152 0 0 1 0;
#X msg 180 180 0 0 0 1;
#X obj 125 215 unpack f f f f;
#X obj 295 254 lop~ 10;
#X obj 376 254 lop~ 10;
#X obj 465 254 lop~ 10;
#X obj 547 254 lop~ 10;
#X obj 448 36 inlet~;
#X obj 530 37 inlet~;
#X connect 0 0 7 0;
#X connect 1 0 6 0;
#X connect 2 0 13 0;
#X connect 4 0 3 0;
#X connect 5 0 3 0;
#X connect 6 0 3 0;
#X connect 7 0 3 0;
#X connect 9 0 19 0;
#X connect 10 0 20 0;
#X connect 11 0 21 0;
#X connect 12 0 22 0;
#X connect 13 0 14 0;
#X connect 13 1 15 0;
#X connect 13 2 16 0;
#X connect 13 3 17 0;
#X connect 14 0 18 0;
#X connect 15 0 18 0;
#X connect 16 0 18 0;
#X connect 17 0 18 0;
#X connect 18 0 9 0;
#X connect 18 1 10 0;
#X connect 18 2 11 0;
#X connect 18 3 12 0;
#X connect 19 0 7 1;
#X connect 20 0 6 1;
#X connect 21 0 5 1;
#X connect 22 0 4 1;
#X connect 23 0 5 0;
#X connect 24 0 4 0;
#X restore 261 441 pd demultiplex;
#X text 51 406 change playback modes;
#X obj 280 512 lop~ 50;
#X obj 280 490 sig~;
#X text 371 439 change between 4 playback modes;
#X obj 815 180 r PTCH4_PAR_D3;
#X obj 857 69 1_ARD_DIG_BTN 2 1;
#X obj 572 68 1_ARD_DIG_BTN 4 0;
#X obj 69 424 r PTCH4_PAR_D1;
#X floatatom 69 488 5 0 0 0 - - -, f 5;
#X text 662 296 speed variablle;
#X text 531 178 length variable;
#X obj 654 316 r PTCH4_PAR_A2;
#X text 598 222 speed source;
#X obj 531 193 r PTCH4_PAR_A1;
#X obj 592 238 r PTCH4_PAR_D2;
#X floatatom 614 264 5 0 0 0 - - -, f 5;
#X obj 350 237 r PTCH4_PAR_D2;
#X text 685 426 speed;
#X floatatom 670 396 5 0 0 0 - - -, f 5;
#X floatatom 382 394 5 0 0 0 - - -, f 5;
#X obj 4 346 print;
#X obj 4 324 spigot;
#X obj 43 303 tgl 15 0 empty empty empty 17 7 0 10 -262144 -1 -1 0
1;
#X obj 692 135 tgl 15 0 empty empty empty 17 7 0 10 -262144 -1 -1 1
1;
#X obj 688 104 bng 15 250 50 0 empty empty empty 17 7 0 10 -262144
-1 -1;
#X obj 583 132 s play_rec_smpl;
#X connect 2 0 1 0;
#X connect 3 0 2 1;
#X connect 4 0 7 0;
#X connect 4 0 65 0;
#X connect 7 0 5 0;
#X connect 7 1 6 0;
#X connect 7 2 8 0;
#X connect 7 3 50 0;
#X connect 7 4 18 0;
#X connect 7 4 67 0;
#X connect 7 5 49 0;
#X connect 13 0 12 0;
#X connect 15 0 12 0;
#X connect 16 0 15 0;
#X connect 17 0 16 0;
#X connect 18 0 10 0;
#X connect 22 0 43 3;
#X connect 22 1 43 4;
#X connect 22 2 2 0;
#X connect 22 2 62 0;
#X connect 24 0 43 1;
#X connect 24 1 43 2;
#X connect 24 2 2 0;
#X connect 24 2 63 0;
#X connect 33 0 36 0;
#X connect 33 0 24 2;
#X connect 35 0 30 0;
#X connect 35 0 24 0;
#X connect 37 0 26 0;
#X connect 37 0 27 0;
#X connect 38 0 39 0;
#X connect 38 0 46 0;
#X connect 42 0 37 0;
#X connect 43 0 42 0;
#X connect 45 0 42 1;
#X connect 46 0 45 0;
#X connect 48 0 25 0;
#X connect 49 0 0 0;
#X connect 49 1 11 0;
#X connect 50 0 21 0;
#X connect 50 0 9 0;
#X connect 50 1 68 0;
#X connect 50 1 69 0;
#X connect 51 0 52 0;
#X connect 51 0 43 0;
#X connect 55 0 22 2;
#X connect 57 0 22 0;
#X connect 58 0 22 1;
#X connect 58 0 59 0;
#X connect 60 0 24 1;
#X connect 65 0 64 0;
#X connect 66 0 65 1;
