#N canvas 459 255 807 527 12;
#X obj 147 469 outlet;
#X text 5 191 offset the start;
#X obj 126 237 *, f 11;
#X obj 126 271 % 16;
#X obj 126 305 <, f 52;
#X obj 126 369 sel 1;
#X obj 126 404 bng 15 250 50 0 empty empty empty 17 7 0 10 -262144
-1 -1;
#X text 86 401 notes;
#X obj 191 405 bng 15 250 50 0 empty empty empty 17 7 0 10 -262144
-1 -1;
#X text 210 403 rests;
#X obj 126 112 t f f, f 6;
#X obj 147 435 f;
#X text 195 467 store the step number;
#X text 28 109 step number;
#X text 535 290 number of hits we want;
#X floatatom 520 311 5 0 16 0 - - -;
#X obj 200 61 random 16, f 16;
#X text 527 333 hits;
#X obj 200 92 + 1, f 29;
#X obj 309 12 r hits_max;
#X obj 400 11 r hits_min;
#X floatatom 322 42 5 0 0 0 - - -;
#X floatatom 415 35 5 0 0 0 - - -;
#X obj 163 65 bng 15 250 50 0 empty empty empty 17 7 0 10 -262144 -1
-1;
#X obj 520 388 outlet;
#X floatatom 508 88 5 0 0 0 - - -;
#X text 552 87 set steps manually;
#X obj 200 12 r EUCLID_RNDM;
#X obj 102 40 inlet float;
#X text 33 16 COUNTER;
#X obj 126 11 r EU_CNT;
#X obj 487 61 inlet steps_by hand;
#X obj 528 204 i \$1;
#X text 570 207 \$1 arg - defalt steps;
#X obj 528 174 loadbang;
#X floatatom 57 260 5 0 0 0 - - -;
#X obj 216 140 loadbang;
#X obj 216 170 random \$1;
#X floatatom 216 195 5 0 0 0 - - -;
#X obj 334 142 bng 15 250 50 0 empty EUCLID_URN EUCLID_URN 17 7 0 10
-4034 -4160 -1;
#X obj 126 192 + 1, f 8;
#X connect 2 0 3 0;
#X connect 3 0 4 0;
#X connect 4 0 5 0;
#X connect 5 0 6 0;
#X connect 5 1 8 0;
#X connect 6 0 11 0;
#X connect 10 0 40 0;
#X connect 10 1 11 1;
#X connect 11 0 0 0;
#X connect 15 0 24 0;
#X connect 16 0 18 0;
#X connect 18 0 15 0;
#X connect 18 0 2 1;
#X connect 18 0 4 1;
#X connect 19 0 21 0;
#X connect 19 0 16 1;
#X connect 20 0 22 0;
#X connect 20 0 18 1;
#X connect 23 0 10 0;
#X connect 27 0 16 0;
#X connect 28 0 10 0;
#X connect 30 0 10 0;
#X connect 31 0 25 0;
#X connect 31 0 2 1;
#X connect 31 0 15 0;
#X connect 31 0 4 1;
#X connect 32 0 2 1;
#X connect 32 0 4 1;
#X connect 32 0 15 0;
#X connect 34 0 32 0;
#X connect 36 0 37 0;
#X connect 37 0 38 0;
#X connect 37 0 40 1;
#X connect 39 0 37 0;
#X connect 40 0 2 0;
#X connect 40 0 35 0;
