#N canvas 440 64 1027 538 10;
#X floatatom 141 86 5 0 0 0 - ch#1_fx1_s -, f 5;
#X floatatom 319 86 5 0 0 0 - ch#1_fx2_s -, f 5;
#X floatatom 473 88 5 0 0 0 - ch#1_fx3_s -, f 5;
#X floatatom 632 86 5 0 0 0 - ch#1_fx4_s -, f 5;
#X floatatom 19 84 5 0 0 0 - ch#1_fx0_s -, f 5;
#X text 271 23 ABSTRACTION CONTROLLING RGB LEDS FROM FX SEND LEVELS
POTS - THE DESTINATION CHANGES WITH THE FX SEL BUTTON;
#X floatatom 11 401 5 0 254 0 - - -, f 5;
#X msg 823 424 \; panel_leds 0 0 0 0 \; update_paneleds bang;
#X text 59 407 RED;
#X text 248 407 GREEN;
#X text 337 406 BLEU;
#X text 516 407 YELLOW;
#X msg 16 423 \; panel_leds 0 0 \$1 0 \; update_paneleds bang;
#X msg 179 424 \; panel_leds 0 \$1 0 0 \; update_paneleds bang;
#X msg 337 424 \; panel_leds 0 0 0 \$1 \; update_paneleds bang;
#X msg 502 423 \; panel_leds 0 \$1 \$1 0 \; update_paneleds bang;
#X floatatom 125 57 5 0 44 0 - - -, f 5;
#X obj 98 30 hradio 15 1 0 11 empty empty empty 0 -8 0 10 -262144 -1
-1 1;
#X floatatom 667 403 5 0 254 0 - - -, f 5;
#X text 155 477 first element of list like this is the index!!!;
#X text 721 407 VIOLET;
#X obj 173 240 int;
#X obj 173 212 * 10;
#X obj 173 265 clip 0 10;
#X obj 98 207 i \$1;
#X obj 98 234 * 4;
#X msg 137 207 1;
#X obj 98 260 +, f 6;
#X floatatom 129 287 5 0 0 0 - - -, f 5;
#X obj 141 153 t b b f;
#X obj 98 321 pack f f;
#X obj 393 236 int;
#X obj 393 208 * 10;
#X obj 393 261 clip 0 10;
#X obj 318 203 i \$1;
#X obj 318 230 * 4;
#X obj 318 256 +, f 6;
#X floatatom 349 283 5 0 0 0 - - -, f 5;
#X obj 319 150 t b b f;
#X obj 318 317 pack f f;
#X msg 357 203 0;
#X msg 316 345 \; panel_leds \$1 \$2 \; update_paneleds bang;
#X msg 96 349 \; panel_leds \$1 \$2 \; update_paneleds bang;
#X obj 548 234 int;
#X obj 548 206 * 10;
#X obj 548 259 clip 0 10;
#X obj 473 201 i \$1;
#X obj 473 228 * 4;
#X obj 473 254 +, f 6;
#X floatatom 504 281 5 0 0 0 - - -, f 5;
#X obj 473 147 t b b f;
#X obj 473 315 pack f f;
#X msg 471 343 \; panel_leds \$1 \$2 \; update_paneleds bang;
#X msg 512 201 2;
#X obj 707 235 int;
#X obj 707 207 * 10;
#X obj 707 260 clip 0 10;
#X obj 632 202 i \$1;
#X obj 632 229 * 4;
#X obj 632 255 +, f 6;
#X floatatom 663 282 5 0 0 0 - - -, f 5;
#X obj 632 148 t b b f;
#X obj 632 316 pack f f;
#X msg 671 202 0;
#X msg 630 344 \; panel_leds \$1 \$2 \$2 \; update_paneleds bang;
#X floatatom 789 84 5 0 0 0 - ch#1_fx5_s -, f 5;
#X obj 864 233 int;
#X obj 864 205 * 10;
#X obj 864 258 clip 0 10;
#X obj 789 200 i \$1;
#X obj 789 227 * 4;
#X obj 789 253 +, f 6;
#X floatatom 820 280 5 0 0 0 - - -, f 5;
#X obj 789 146 t b b f;
#X obj 789 314 pack f f;
#X msg 787 342 \; panel_leds \$1 \$2 \$2 \; update_paneleds bang;
#X msg 657 425 \; panel_leds 0 0 \$1 \$1 \; update_paneleds bang;
#X msg 828 200 1;
#X text 174 103 \$1 - ch fx receive number;
#X connect 0 0 29 0;
#X connect 1 0 38 0;
#X connect 2 0 50 0;
#X connect 3 0 61 0;
#X connect 6 0 12 0;
#X connect 17 0 16 0;
#X connect 17 0 24 0;
#X connect 18 0 76 0;
#X connect 21 0 23 0;
#X connect 22 0 21 0;
#X connect 23 0 30 1;
#X connect 24 0 25 0;
#X connect 25 0 27 0;
#X connect 26 0 27 1;
#X connect 27 0 28 0;
#X connect 27 0 30 0;
#X connect 29 0 24 0;
#X connect 29 1 26 0;
#X connect 29 2 22 0;
#X connect 30 0 42 0;
#X connect 31 0 33 0;
#X connect 32 0 31 0;
#X connect 33 0 39 1;
#X connect 34 0 35 0;
#X connect 35 0 36 0;
#X connect 36 0 37 0;
#X connect 36 0 39 0;
#X connect 38 0 34 0;
#X connect 38 1 40 0;
#X connect 38 2 32 0;
#X connect 39 0 41 0;
#X connect 40 0 36 1;
#X connect 43 0 45 0;
#X connect 44 0 43 0;
#X connect 45 0 51 1;
#X connect 46 0 47 0;
#X connect 47 0 48 0;
#X connect 48 0 49 0;
#X connect 48 0 51 0;
#X connect 50 0 46 0;
#X connect 50 1 53 0;
#X connect 50 2 44 0;
#X connect 51 0 52 0;
#X connect 53 0 48 1;
#X connect 54 0 56 0;
#X connect 55 0 54 0;
#X connect 56 0 62 1;
#X connect 57 0 58 0;
#X connect 58 0 59 0;
#X connect 59 0 60 0;
#X connect 59 0 62 0;
#X connect 61 0 57 0;
#X connect 61 1 63 0;
#X connect 61 2 55 0;
#X connect 62 0 64 0;
#X connect 63 0 59 1;
#X connect 65 0 73 0;
#X connect 66 0 68 0;
#X connect 67 0 66 0;
#X connect 68 0 74 1;
#X connect 69 0 70 0;
#X connect 70 0 71 0;
#X connect 71 0 72 0;
#X connect 71 0 74 0;
#X connect 73 0 69 0;
#X connect 73 1 77 0;
#X connect 73 2 67 0;
#X connect 74 0 75 0;
#X connect 77 0 71 1;
