#N canvas 304 196 757 559 10;
#X msg 359 499 \; led_levelss \$1 \$2 \$3 \$4;
#X msg 238 499 \; updateLEDS bang;
#X text 408 13 \$1 - led number;
#X obj 380 68 sel 1 2 3 4 5 6 7 8;
#X msg 380 86 0;
#X msg 401 86 3;
#X msg 424 86 6;
#X msg 445 86 9;
#X msg 464 86 12;
#X msg 485 86 15;
#X msg 508 86 18;
#X msg 529 86 21;
#X obj 348 29 f \$1;
#X text 385 28 arg 1-led number;
#X text 522 67 gets translated to array index;
#X obj 348 10 loadbang;
#X text 462 104 send index for this abstraction;
#X msg 394 430 \; led_levelss \$1 \$2 \$3 \$4 \; updateLEDS bang;
#X obj 404 195 loadbang;
#X obj 479 193 inlet RGB;
#X obj 582 295 inlet delay;
#X obj 582 317 s \$0-del;
#X text 581 348 delay of this LED only;
#X obj 380 103 s \$0-led_i;
#X obj 348 145 r \$0-led_i;
#X text 394 352 delay led off;
#X obj 348 168 t f f;
#X text 97 310 delay of this LED only;
#X obj 261 307 r \$0-del;
#X obj 261 421 outlet;
#X obj 348 50 t f f;
#X obj 246 42 r led_num;
#X obj 246 67 ==;
#X obj 217 84 tgl 15 0 empty empty empty 17 7 0 10 -262144 -1 -1 0
1;
#X obj 246 95 s \$0-led_current;
#X obj 582 238 r \$0-led_current;
#X text 46 21 1 if we're controling it now \, 0 otherwise;
#X obj 582 264 tgl 15 0 empty empty empty 17 7 0 10 -262144 -1 -1 0
1;
#X obj 362 281 list append;
#X msg 230 193 \$1 250 250 250;
#X obj 404 238 t b l;
#X obj 362 260 f;
#X floatatom 406 168 5 0 0 0 - - -, f 5;
#X obj 362 305 t b l;
#X floatatom 261 353 5 0 0 0 - - -, f 5;
#X msg 468 400 \$1 0 0 0;
#X obj 261 331 / \$1;
#X text 39 331 change del based on led number;
#X msg 404 214 0 0 0;
#X obj 362 352 del;
#X obj 348 396 pack f 0 0 0;
#X connect 3 0 4 0;
#X connect 3 1 5 0;
#X connect 3 2 6 0;
#X connect 3 3 7 0;
#X connect 3 4 8 0;
#X connect 3 5 9 0;
#X connect 3 6 10 0;
#X connect 3 7 11 0;
#X connect 4 0 23 0;
#X connect 5 0 23 0;
#X connect 6 0 23 0;
#X connect 7 0 23 0;
#X connect 8 0 23 0;
#X connect 9 0 23 0;
#X connect 10 0 23 0;
#X connect 11 0 23 0;
#X connect 12 0 30 0;
#X connect 15 0 12 0;
#X connect 18 0 48 0;
#X connect 19 0 40 0;
#X connect 20 0 21 0;
#X connect 24 0 26 0;
#X connect 24 0 42 0;
#X connect 26 0 39 0;
#X connect 26 0 50 0;
#X connect 26 1 41 1;
#X connect 28 0 46 0;
#X connect 28 0 49 1;
#X connect 30 0 32 1;
#X connect 30 1 3 0;
#X connect 31 0 32 0;
#X connect 32 0 33 0;
#X connect 32 0 34 0;
#X connect 35 0 37 0;
#X connect 38 0 43 0;
#X connect 40 0 41 0;
#X connect 40 1 38 1;
#X connect 41 0 38 0;
#X connect 43 0 49 0;
#X connect 43 1 17 0;
#X connect 44 0 29 0;
#X connect 45 0 17 0;
#X connect 46 0 44 0;
#X connect 48 0 40 0;
#X connect 49 0 50 0;
#X connect 50 0 17 0;
