#N canvas 103 511 1235 633 10;
#X obj 59 451 s update_8_LEDS;
#X obj 79 376 t b b, f 13;
#X obj 25 224 bng 15 250 50 0 empty empty empty 17 7 0 10 -262144 -1
-1;
#X obj 553 336 f \$1;
#X text 593 335 arg \$1 - led number;
#X obj 595 279 bng 15 250 50 0 empty empty empty 17 7 0 10 -262144
-1 -1;
#X obj 553 368 * 3;
#X obj 387 449 array set 8_LEDS, f 48;
#X obj 59 281 t b b b b, f 71;
#X msg 388 376 0 0 0;
#X text 430 377 clear OUR led;
#X text 414 393 to avoid stuck notes;
#X text 105 111 arg \$1 - led number;
#X msg 169 401 0 0 0;
#X text 216 403 led offf;
#X text 292 326 led on;
#X obj 613 108 r RGB;
#X floatatom 628 131 5 0 0 0 - - -;
#X obj 710 254 s \$0_del_1_led_314;
#X obj 125 328 r \$0_del_1_led_314;
#X msg 293 346 255;
#X floatatom 755 234 5 0 0 0 - - -;
#X text 102 129 arg \$2 \, rgb;
#X text 100 144 arg \$3 - dellength;
#X obj 553 413 + \$2, f 9;
#X obj 79 354 del \$3, f 7;
#X text 707 112 each led has its own delay;
#X obj 710 201 clip 10 10000;
#X floatatom 136 355 5 0 0 0 - - -;
#X obj 710 232 i;
#X obj 59 197 route bang float, f 26;
#X obj 148 247 t b f, f 61;
#X text 103 165 bang - trigger on eled \,;
#X text 106 181 float - play led with this nuymber;
#X floatatom 600 308 5 0 0 0 - - -;
#X text 626 414 arg \$2 \, rgb;
#X text 88 301 arg \$3 - dellength;
#X obj 710 127 r DEL_LED_ABS_314;
#X floatatom 720 179 5 0 0 0 - - -;
#X obj 305 83 i \$1;
#X obj 306 15 loadbang;
#X obj 305 38 t b b, f 26;
#X text 216 84 led number;
#X obj 484 143 i \$2;
#X text 457 143 rgb;
#X text 528 154 in;
#X text 518 140 \$2 rgb;
#X obj 58 32 inlet bang lub float;
#X obj 678 70 inlet RGB;
#X obj 710 150 / 4;
#X connect 1 0 0 0;
#X connect 1 1 13 0;
#X connect 2 0 8 0;
#X connect 3 0 6 0;
#X connect 5 0 3 0;
#X connect 6 0 24 0;
#X connect 8 0 0 0;
#X connect 8 0 25 0;
#X connect 8 1 20 0;
#X connect 8 2 9 0;
#X connect 8 3 3 0;
#X connect 9 0 7 0;
#X connect 13 0 7 0;
#X connect 16 0 17 0;
#X connect 16 0 24 1;
#X connect 19 0 25 1;
#X connect 19 0 28 0;
#X connect 20 0 7 0;
#X connect 24 0 7 1;
#X connect 25 0 1 0;
#X connect 27 0 21 0;
#X connect 27 0 29 0;
#X connect 29 0 18 0;
#X connect 30 0 8 0;
#X connect 30 1 31 0;
#X connect 31 0 8 0;
#X connect 31 1 3 1;
#X connect 34 0 3 1;
#X connect 37 0 38 0;
#X connect 37 0 49 0;
#X connect 39 0 30 0;
#X connect 40 0 41 0;
#X connect 41 0 39 0;
#X connect 41 1 43 0;
#X connect 43 0 31 0;
#X connect 47 0 30 0;
#X connect 48 0 24 1;
#X connect 49 0 27 0;
