#N canvas 446 207 860 458 10;
#X obj 52 400 s update_8_LEDS;
#X obj 62 351 t b b, f 13;
#X obj 18 129 bng 15 250 50 0 empty empty empty 17 7 0 10 -262144 -1
-1;
#X obj 393 241 f \$1;
#X text 433 240 arg \$1 - led number;
#X obj 396 219 bng 15 250 50 0 empty empty empty 17 7 0 10 -262144
-1 -1;
#X obj 393 293 * 3;
#X obj 227 374 array set 8_LEDS, f 48;
#X msg 276 318 0 0 0;
#X text 285 261 clear OUR led;
#X text 98 16 arg \$1 - led number;
#X msg 182 336 0 0 0;
#X text 169 318 led offf;
#X text 226 251 led on;
#X obj 453 292 r RGB;
#X obj 583 169 s \$0_del_1_led_314;
#X obj 78 273 r \$0_del_1_led_314;
#X msg 227 271 255;
#X floatatom 617 102 10 0 0 0 - - -;
#X text 95 34 arg \$2 \, rgb;
#X text 93 49 arg \$3 - dellength;
#X obj 393 338 + \$2, f 9;
#X text 580 27 each led has its own delay;
#X floatatom 109 310 5 0 0 0 - - -;
#X obj 583 107 i;
#X obj 52 79 inlet;
#X obj 52 102 route bang float, f 26;
#X obj 128 152 t b f, f 61;
#X text 96 70 bang - trigger on eled \,;
#X text 99 86 float - play led with this nuymber;
#X text 466 339 arg \$2 \, rgb;
#X text 68 252 arg \$3 - dellength;
#X obj 583 42 r DEL_LED_ABS_314;
#X obj 466 313 inlet rgb;
#X msg 603 290 \; 8_LEDS const 0;
#X obj 712 224 r ledgato;
#X obj 276 288 spigot, f 16;
#X obj 52 186 t b b b b b, f 71;
#X text 603 328 all leds off;
#X obj 749 255 tgl 15 0 empty empty empty 17 7 0 10 -262144 -1 -1 0
1;
#X obj 583 76 clip 10 1e+11;
#X obj 583 130 change;
#X obj 603 262 spigot, f 16;
#X obj 62 329 del \$3;
#X connect 1 0 0 0;
#X connect 1 1 11 0;
#X connect 2 0 37 0;
#X connect 3 0 6 0;
#X connect 5 0 3 0;
#X connect 6 0 21 0;
#X connect 8 0 7 0;
#X connect 11 0 7 0;
#X connect 14 0 21 1;
#X connect 16 0 23 0;
#X connect 16 0 43 1;
#X connect 17 0 7 0;
#X connect 21 0 7 1;
#X connect 24 0 41 0;
#X connect 25 0 26 0;
#X connect 26 0 37 0;
#X connect 26 1 27 0;
#X connect 27 0 37 0;
#X connect 27 1 3 1;
#X connect 32 0 40 0;
#X connect 33 0 21 1;
#X connect 35 0 36 1;
#X connect 35 0 39 0;
#X connect 35 0 42 1;
#X connect 36 0 8 0;
#X connect 37 0 0 0;
#X connect 37 0 43 0;
#X connect 37 1 17 0;
#X connect 37 2 36 0;
#X connect 37 3 3 0;
#X connect 37 4 42 0;
#X connect 40 0 18 0;
#X connect 40 0 24 0;
#X connect 41 0 15 0;
#X connect 42 0 34 0;
#X connect 43 0 1 0;
