#N canvas 407 195 527 418 10;
#X obj 97 288 l;
#X obj 115 268 r new_list;
#X obj 15 261 t l b;
#X obj 15 346 outlet;
#X obj 55 307 r \$0-led_no;
#X text 252 264 1 -REPLACE;
#X text 51 182 incoming list of RGB values;
#X msg 60 108 0;
#X msg 85 108 3;
#X msg 111 108 6;
#X msg 137 108 9;
#X msg 163 108 12;
#X msg 190 108 15;
#X msg 218 108 18;
#X msg 245 108 21;
#X obj 28 53 f \$1;
#X text 113 33 send led number unique for this abstraction;
#X obj 203 125 s \$0-led_no;
#X text 169 75 gets translated to array index;
#X obj 28 33 bng 15 250 50 0 empty empty empty 17 7 0 10 -262144 -1
-1;
#X obj 47 33 loadbang;
#X text 273 88 arg 1-led number;
#X msg 271 108 24;
#X obj 60 91 sel 1 2 3 4 5 6 7 8 9 10 11;
#X msg 297 108 27;
#X msg 327 108 30;
#X obj 28 72 t f f;
#X text 67 55 arg 1-led number (1-8);
#X text 152 129 led NO;
#X text 78 143 send led number unique for this abstraction;
#X text 130 247 changes one led colors;
#X text 132 220 compares with stored RGB list;
#X text 132 234 if list = stored list;
#X text 133 206 takes list of 3 values RGB;
#X obj 15 178 inlet;
#X obj 15 208 1_RGB_str_cpr;
#X obj 15 327 list-abs/list-replace;
#X connect 0 0 36 2;
#X connect 1 0 0 1;
#X connect 2 0 36 0;
#X connect 2 1 0 0;
#X connect 4 0 36 1;
#X connect 7 0 17 0;
#X connect 8 0 17 0;
#X connect 9 0 17 0;
#X connect 10 0 17 0;
#X connect 11 0 17 0;
#X connect 12 0 17 0;
#X connect 13 0 17 0;
#X connect 14 0 17 0;
#X connect 15 0 26 0;
#X connect 19 0 15 0;
#X connect 20 0 15 0;
#X connect 22 0 17 0;
#X connect 23 0 7 0;
#X connect 23 1 8 0;
#X connect 23 2 9 0;
#X connect 23 3 10 0;
#X connect 23 4 11 0;
#X connect 23 5 12 0;
#X connect 23 6 13 0;
#X connect 23 7 14 0;
#X connect 23 8 22 0;
#X connect 23 9 24 0;
#X connect 23 10 25 0;
#X connect 24 0 17 0;
#X connect 25 0 17 0;
#X connect 26 1 23 0;
#X connect 34 0 35 0;
#X connect 35 0 2 0;
#X connect 36 0 3 0;
