#N canvas 589 105 715 500 10;
#X obj 99 56 bng 15 250 50 0 empty empty empty 17 7 0 10 -262144 -1
-1;
#X obj 398 436 array set 8_LEDS;
#X obj 541 334 * 3;
#X obj 124 228 pack f f f, f 45;
#X obj 262 165 t b f;
#X obj 401 186 t b f;
#X obj 124 113 1_LED_FADINOUT_314;
#X obj 124 260 t l l, f 11;
#X obj 124 314 smlib/vmax;
#X obj 224 356 == 0;
#X obj 224 378 change;
#X obj 401 165 1_LED_FADINOUT_314;
#X obj 262 141 1_LED_FADINOUT_314;
#X msg 600 269 7;
#X obj 561 237 i \$1;
#X text 585 342 led no;
#X obj 561 218 loadbang;
#X obj 224 436 outlet bang when done;
#X obj 124 436 outlet update;
#X obj 124 55 t b f, f 60;
#X obj 124 83 t b b b, f 40;
#X obj 240 403 tgl 15 0 empty empty empty 17 7 0 10 -262144 -1 -1 1
1;
#X obj 124 33 inlet led number;
#X obj 398 374 spigot;
#X obj 377 290 r SQ3_SRART_01;
#X obj 415 314 tgl 15 0 empty empty empty 17 7 0 10 -262144 -1 -1 0
1;
#X text 361 271 close when other seq mode;
#X connect 0 0 20 0;
#X connect 2 0 1 1;
#X connect 3 0 7 0;
#X connect 4 0 3 0;
#X connect 4 1 3 1;
#X connect 5 0 3 0;
#X connect 5 1 3 2;
#X connect 6 0 3 0;
#X connect 7 0 8 0;
#X connect 7 1 23 0;
#X connect 8 0 18 0;
#X connect 8 0 9 0;
#X connect 9 0 10 0;
#X connect 10 0 17 0;
#X connect 10 0 21 0;
#X connect 11 0 5 0;
#X connect 12 0 4 0;
#X connect 13 0 2 0;
#X connect 14 0 2 0;
#X connect 16 0 14 0;
#X connect 19 0 20 0;
#X connect 19 1 2 0;
#X connect 20 0 6 0;
#X connect 20 1 12 0;
#X connect 20 2 11 0;
#X connect 22 0 19 0;
#X connect 23 0 1 0;
#X connect 24 0 23 1;
#X connect 24 0 25 0;
