#N canvas 0 54 1182 481 12;
#X floatatom 19 84 5 0 0 0 - ch#1_fx0_s -;
#X text 271 23 ABSTRACTION CONTROLLING RGB LEDS FROM FX SEND LEVELS
POTS - THE DESTINATION CHANGES WITH THE FX SEL BUTTON;
#X floatatom 125 57 5 0 44 0 - - -;
#X obj 98 30 hradio 15 1 0 11 empty empty empty 0 -8 0 10 -262144 -1
-1 1;
#X obj 173 240 int;
#X msg 137 207 1;
#X obj 98 260 +, f 6;
#X floatatom 129 287 5 0 0 0 - - -;
#X obj 141 153 t b b f;
#X obj 98 321 pack f f;
#X obj 393 236 int;
#X obj 318 256 +, f 6;
#X floatatom 349 283 5 0 0 0 - - -;
#X obj 319 150 t b b f;
#X obj 318 317 pack f f;
#X msg 357 203 0;
#X obj 548 234 int;
#X obj 473 254 +, f 6;
#X floatatom 504 281 5 0 0 0 - - -;
#X obj 473 147 t b b f;
#X obj 473 315 pack f f;
#X msg 512 201 2;
#X obj 707 235 int;
#X obj 632 255 +, f 6;
#X floatatom 663 282 5 0 0 0 - - -;
#X obj 632 148 t b b f;
#X obj 632 316 pack f f;
#X msg 671 202 0;
#X obj 864 233 int;
#X obj 789 253 +, f 6;
#X floatatom 820 280 5 0 0 0 - - -;
#X obj 789 146 t b b f;
#X obj 789 314 pack f f;
#X msg 828 200 1;
#X text 174 103 \$1 - ch fx receive number;
#X obj 98 207 i \$2;
#X obj 318 203 i \$2;
#X obj 473 201 i \$2;
#X obj 632 202 i \$2;
#X obj 789 200 i \$2;
#X floatatom 141 85 5 0 0 0 - ch#1_fx1_s -;
#X floatatom 319 79 5 0 0 0 - ch#1_fx2_s -;
#X floatatom 473 81 5 0 0 0 - ch#1_fx3_s -;
#X floatatom 632 80 5 0 0 0 - ch#1_fx4_s -;
#X floatatom 789 82 5 0 0 0 - ch#1_fx5_s -;
#X text 188 116 \$2 - separate led numebr (if different order then
channels;
#X obj 98 234 * 3;
#X obj 318 230 * 3;
#X obj 473 228 * 3;
#X obj 632 229 * 3;
#X obj 789 227 * 3;
#X msg 96 349 \; panel_leds \$1 \$2;
#X msg 787 342 \; panel_leds \$1 \$2 \$2;
#X msg 630 344 \; panel_leds \$1 \$2 \$2;
#X msg 471 343 \; panel_leds \$1 \$2;
#X msg 316 345 \; panel_leds \$1 \$2;
#X text 266 385 first element of list like this is the index!!!;
#X obj 173 265 clip 0 25;
#X obj 393 261 clip 0 25;
#X obj 548 259 clip 0 25;
#X obj 707 260 clip 0 25;
#X obj 864 258 clip 0 25;
#X obj 173 212 * 25;
#X obj 393 208 * 25;
#X obj 548 206 * 25;
#X obj 707 207 * 25;
#X obj 864 205 * 25;
#X connect 3 0 2 0;
#X connect 3 0 35 0;
#X connect 4 0 57 0;
#X connect 5 0 6 1;
#X connect 6 0 7 0;
#X connect 6 0 9 0;
#X connect 8 0 35 0;
#X connect 8 1 5 0;
#X connect 8 2 62 0;
#X connect 9 0 51 0;
#X connect 10 0 58 0;
#X connect 11 0 12 0;
#X connect 11 0 14 0;
#X connect 13 0 36 0;
#X connect 13 1 15 0;
#X connect 13 2 63 0;
#X connect 14 0 55 0;
#X connect 15 0 11 1;
#X connect 16 0 59 0;
#X connect 17 0 18 0;
#X connect 17 0 20 0;
#X connect 19 0 37 0;
#X connect 19 1 21 0;
#X connect 19 2 64 0;
#X connect 20 0 54 0;
#X connect 21 0 17 1;
#X connect 22 0 60 0;
#X connect 23 0 24 0;
#X connect 23 0 26 0;
#X connect 25 0 38 0;
#X connect 25 1 27 0;
#X connect 25 2 65 0;
#X connect 26 0 53 0;
#X connect 27 0 23 1;
#X connect 28 0 61 0;
#X connect 29 0 30 0;
#X connect 29 0 32 0;
#X connect 31 0 39 0;
#X connect 31 1 33 0;
#X connect 31 2 66 0;
#X connect 32 0 52 0;
#X connect 33 0 29 1;
#X connect 35 0 46 0;
#X connect 36 0 47 0;
#X connect 37 0 48 0;
#X connect 38 0 49 0;
#X connect 39 0 50 0;
#X connect 40 0 8 0;
#X connect 41 0 13 0;
#X connect 42 0 19 0;
#X connect 43 0 25 0;
#X connect 44 0 31 0;
#X connect 46 0 6 0;
#X connect 47 0 11 0;
#X connect 48 0 17 0;
#X connect 49 0 23 0;
#X connect 50 0 29 0;
#X connect 57 0 9 1;
#X connect 58 0 14 1;
#X connect 59 0 20 1;
#X connect 60 0 26 1;
#X connect 61 0 32 1;
#X connect 62 0 4 0;
#X connect 63 0 10 0;
#X connect 64 0 16 0;
#X connect 65 0 22 0;
#X connect 66 0 28 0;
