#N canvas 0 51 1069 808 10;
#X obj 301 700 line, f 10;
#X text 290 13 to jako opcja sterowania sekwencerem z fade in i fade
out;
#X text 289 26 pomysl jest taki - losuj 3 kolory (ledy?);
#X text 289 119 kiedy skonczy sie calosc wywylamy bang i ladujemy nastepna
obwiednie;
#X text 380 708 creation arguments:;
#X text 380 718 1 initial value;
#X text 379 730 2 time grain in milliseconds;
#X obj 646 257 + 25;
#X obj 491 256 + 25;
#X obj 646 237 random 235;
#X obj 336 257 + 25;
#X obj 180 260 + 25;
#X obj 625 608 pack f f;
#X obj 26 53 bng 25 250 50 0 empty empty empty 17 7 0 10 -258113 -1
-1;
#X text 289 41 kazdy dostaje swoje parametry: - 1 docelowac jasnosc
(20 do 255 random? sustain value) - 2 czas na ramp up (random 10 sekund?
atak time) - 3 swoj czas na pozostanie na tej wartosci (sustain time
\, rnd 5000?) - 4 decay time (CZAS NA ZEJSCIE DO ZERA rand 2000?);
#X text 680 256 1 sustain val;
#X text 524 256 2 atak;
#X text 374 259 3 sus time;
#X text 221 260 4 dec time;
#X msg 625 630 \$2 \$1;
#X text 675 630 odwruc kolejnosc;
#X obj 454 340 del, f 13;
#X obj 486 564 pack f f;
#X msg 486 585 \$2 \$1;
#X text 379 696 lista (dwa elementy - poczatek i ramp time);
#X text 522 584 odwruc kolejnosc;
#X text 351 432 opuzniony o czas ataku;
#X text 288 105 - w sumie potrzeba 3 obwiednie: atak sus decay;
#X text 554 563 sus;
#X text 686 567 atak;
#X text 334 616 dec;
#X msg 301 616 0 \$1;
#X obj 486 470 int, f 5;
#X obj 318 436 del;
#X obj 250 573 int;
#X text 258 476 opuzniony o czas ataku;
#X text 261 487 + czas sustain;
#X floatatom 180 618 5 0 0 0 - - -, f 5;
#X obj 325 462 bng 15 250 50 0 empty empty empty 17 7 0 10 -262144
-1 -1;
#X obj 180 237 random 10000;
#X obj 336 237 random 10000;
#X obj 491 237 random 10000;
#X obj 15 471 del;
#X obj 47 519 bng 15 250 50 0 empty empty empty 17 7 0 10 -262144 -1
-1;
#X obj 376 355 +;
#X obj 180 406 +;
#X text 115 449 total length of envelop;
#X obj 365 747 hsl 500 50 0 255 0 0 empty empty empty -2 -8 0 10 -4034
-1 -1 0 1;
#X obj 646 282 t f f;
#X obj 491 281 t f f f, f 15;
#X obj 336 284 t f f f b;
#X text 39 471 del total;
#X obj 180 283 t f f f, f 13;
#X obj 15 496 t b b;
#X text 156 31 loop on off;
#X text 56 56 start;
#X obj 26 162 t b b b b b, f 89;
#X obj 454 364 t b b;
#X obj 318 510 t b b;
#X obj 301 754 outlet;
#X obj 140 94 gate, f 8;
#X obj 140 31 tgl 15 0 empty empty empty 17 7 0 10 -262144 -1 -1 0
1;
#X obj 26 10 inlet env start;
#X obj 193 53 r lineEND_\$0;
#X obj 15 595 s lineEND_\$0;
#X obj 139 10 inlet loop;
#X obj 764 198 r LEDFADE_RNDMAX;
#X obj 764 220 * 10000;
#X text 818 223 rndm time env max;
#X msg 39 677 stop;
#X text 84 679 "stop" message to stop output;
#X obj 39 625 r SQ3_stop;
#X obj 39 647 t b b;
#X msg 95 661 0;
#X connect 0 0 47 0;
#X connect 0 0 59 0;
#X connect 7 0 48 0;
#X connect 8 0 49 0;
#X connect 9 0 7 0;
#X connect 10 0 50 0;
#X connect 11 0 52 0;
#X connect 12 0 19 0;
#X connect 13 0 56 0;
#X connect 19 0 0 0;
#X connect 21 0 57 0;
#X connect 22 0 23 0;
#X connect 23 0 0 0;
#X connect 31 0 0 0;
#X connect 32 0 22 0;
#X connect 33 0 38 0;
#X connect 33 0 58 0;
#X connect 34 0 31 0;
#X connect 39 0 11 0;
#X connect 40 0 10 0;
#X connect 41 0 8 0;
#X connect 42 0 53 0;
#X connect 44 0 45 1;
#X connect 45 0 37 0;
#X connect 48 0 22 1;
#X connect 48 1 12 1;
#X connect 49 0 44 1;
#X connect 49 1 21 1;
#X connect 49 2 12 0;
#X connect 50 0 33 1;
#X connect 50 1 32 1;
#X connect 50 2 44 0;
#X connect 50 3 21 0;
#X connect 52 0 45 0;
#X connect 52 1 42 1;
#X connect 52 2 34 1;
#X connect 53 0 64 0;
#X connect 53 1 43 0;
#X connect 56 1 39 0;
#X connect 56 2 40 0;
#X connect 56 3 41 0;
#X connect 56 4 9 0;
#X connect 57 0 33 0;
#X connect 57 1 32 0;
#X connect 58 0 42 0;
#X connect 58 1 34 0;
#X connect 62 0 13 0;
#X connect 63 0 60 1;
#X connect 65 0 61 0;
#X connect 66 0 67 0;
#X connect 67 0 41 1;
#X connect 67 0 40 1;
#X connect 67 0 39 1;
#X connect 69 0 0 0;
#X connect 71 0 72 0;
#X connect 72 0 69 0;
#X connect 72 1 73 0;
#X connect 73 0 0 0;
