#N canvas 0 51 589 563 10;
#X text 162 216 RGB?;
#X text 284 42 pot in;
#X obj 187 248 gate 3;
#X obj 134 388 pack \$1 0 0 0;
#X text 248 410 led number - get from abstraction?;
#X obj 293 72 inlet;
#X text 286 27 value;
#X obj 176 30 inlet;
#X text 29 190 wartosc z buttona - 0 zamkniete;
#X floatatom 186 148 5 0 0 0 - - -, f 5;
#X obj 154 414 print;
#X msg 221 354 0;
#X msg 283 352 0;
#X obj 283 299 t b b b \$1;
#X floatatom 72 319 5 0 0 0 - - -, f 5;
#X obj 206 297 t b b \$1 b;
#X obj 122 297 t b \$1 b b;
#X obj 85 411 t l;
#X obj 177 54 unpack 0 255;
#X msg 86 438 \; 8_LEDS \$1 \$2 \$3 \$4 \; update_8_LEDS bang;
#X obj 293 94 * 255;
#X obj 293 116 i;
#X connect 2 0 16 0;
#X connect 2 1 15 0;
#X connect 2 2 13 0;
#X connect 3 0 17 0;
#X connect 5 0 20 0;
#X connect 7 0 18 0;
#X connect 9 0 2 0;
#X connect 11 0 3 1;
#X connect 12 0 3 2;
#X connect 13 0 3 0;
#X connect 13 1 11 0;
#X connect 13 2 12 0;
#X connect 13 3 3 3;
#X connect 14 0 3 0;
#X connect 15 0 3 0;
#X connect 15 1 11 0;
#X connect 15 2 3 2;
#X connect 15 3 12 0;
#X connect 16 0 3 0;
#X connect 16 1 3 1;
#X connect 16 2 11 0;
#X connect 16 3 12 0;
#X connect 17 0 19 0;
#X connect 18 0 9 0;
#X connect 18 1 2 1;
#X connect 20 0 21 0;
#X connect 21 0 2 1;
