#N canvas 0 51 1069 715 10;
#X obj 584 447 metro;
#X obj 559 516 bng 15 250 50 0 empty empty empty 17 7 0 10 -262144
-1 -1;
#X obj 757 450 loadbang;
#X msg 758 470 100;
#X obj 783 285 i;
#X obj 648 397 gate;
#X obj 588 156 tgl 15 0 empty empty empty 17 7 0 10 -262144 -1 -1 0
1;
#X msg 621 128 0;
#X msg 588 128 1;
#X obj 588 108 sel \$1;
#X obj 587 85 inlet;
#X text 106 46 start metro;
#X text 82 59 based on external in;
#X text 80 74 1=start 0 = stop;
#X obj 782 263 inlet;
#X text 584 43 which metro conotrlling???;
#X text 29 445 arguments to abstraction: \$1 which metro are we contorlling
(1-16);
#X text 755 246 tempo of this metro;
#X text 31 473 \$2 - which led are we switching on of 1-16;
#X obj 447 564 outlet;
#X text 408 563 bang;
#X text 13 251 switch on manual contorl of this metro!!!;
#X text 87 459 switch on manual contorl of this metro!!!;
#X obj 471 139 tgl 15 0 empty empty empty 17 7 0 10 -262144 -1 -1 0
1;
#X obj 501 214 &&, f 8;
#X obj 543 241 tgl 15 0 empty empty empty 17 7 0 10 -262144 -1 -1 0
1;
#X obj 588 176 t b f;
#X obj 367 116 tgl 15 0 empty empty empty 17 7 0 10 -262144 -1 -1 0
1;
#X obj 367 214 &&;
#X obj 375 188 t b f;
#X obj 367 242 tgl 15 0 empty empty empty 17 7 0 10 -262144 -1 -1 0
1;
#X text 371 66 main pacz=5;
#X text 462 66 subpacz=2;
#X obj 501 240 t b f;
#X obj 501 262 &&;
#X obj 501 283 tgl 15 0 empty empty empty 17 7 0 10 -262144 -1 -1 0
1;
#X text 11 263 jak te wszystkie warunki sa spelnione to mozemy sterowac
wybrane metro - on/off + tempo;
#X text 582 56 input from gate \$1: 1-16;
#X text 40 93 na starcie nic nie wysylamy;
#X text 23 91 0;
#X text 22 115 1 if main seq patch is selected first toggle ON;
#X text 21 137 2 if manual sub seq patch is selected second toggle
ON;
#X text 752 191 metro ON/OFF;
#X obj 759 207 tgl 15 0 empty empty empty 17 7 0 10 -262144 -1 -1 0
1;
#X msg 616 514 255;
#X obj 584 488 t b b;
#X obj 584 399 gate;
#X obj 520 354 i;
#X text 258 355 store last value of SWITCH;
#X text 582 68 has to match the \$1 arg;
#X obj 557 416 tgl 15 0 empty empty empty 17 7 0 10 -262144 -1 -1 0
1;
#X text 789 397 delay;
#X text 240 319 send stored value when gate opened;
#X text 29 486 poprawic jeszcze tlko pamiec z subpacza tak jak w 4poly
mode DONE;
#X text 21 157 3 if arg \$1 equals the incoming value - then third
toggle ON;
#X obj 712 417 gate;
#X obj 520 319 t b f f f, f 28;
#X text 564 597 del contrl also individual;
#X obj 742 175 r LOOP_SQ6;
#X obj 754 346 r DEL_LED_ABS_314;
#X floatatom 754 368 5 0 0 0 - - -, f 5;
#X obj 367 88 inlet seqmode;
#X obj 471 88 inlet subseq;
#X obj 584 561 1_LED_MAN_314_B \$1 \$2;
#X connect 0 0 1 0;
#X connect 0 0 19 0;
#X connect 0 0 45 0;
#X connect 2 0 3 0;
#X connect 3 0 63 2;
#X connect 4 0 5 1;
#X connect 5 0 0 1;
#X connect 6 0 26 0;
#X connect 7 0 6 0;
#X connect 8 0 6 0;
#X connect 9 0 8 0;
#X connect 9 1 7 0;
#X connect 10 0 9 0;
#X connect 14 0 4 0;
#X connect 23 0 29 0;
#X connect 23 0 24 0;
#X connect 24 0 25 0;
#X connect 24 0 33 0;
#X connect 26 0 24 0;
#X connect 26 1 24 1;
#X connect 27 0 28 0;
#X connect 28 0 30 0;
#X connect 28 0 34 0;
#X connect 29 0 28 0;
#X connect 29 1 28 1;
#X connect 33 0 34 0;
#X connect 33 1 34 1;
#X connect 34 0 35 0;
#X connect 34 0 56 0;
#X connect 44 0 63 1;
#X connect 45 0 63 0;
#X connect 45 1 44 0;
#X connect 46 0 0 0;
#X connect 46 0 50 0;
#X connect 47 0 46 1;
#X connect 55 0 63 2;
#X connect 56 0 47 0;
#X connect 56 1 46 0;
#X connect 56 2 5 0;
#X connect 56 3 55 0;
#X connect 58 0 47 1;
#X connect 58 0 46 1;
#X connect 58 0 43 0;
#X connect 59 0 60 0;
#X connect 59 0 55 1;
#X connect 61 0 27 0;
#X connect 62 0 23 0;
0 8 empty SEQ_MODE SEQ_MODE 0 -8 0 10 -258113
-1 -4160 7;
#X obj 573 15 hradio 15 1 0 8 empty SUB_SEQ_MODE SUB_SEQ_MODE 0 -8
0 10 -258113 -1 -1 1;
#X obj 678 229 r SQ5_MAN_CLOCK;
#X obj 741 357 r LED_DEL_SQ5;
#X floatatom 802 309 5 0 0 0 - - -, f 5;
#X obj 430 349 sel 1;
#X msg 429 368 0;
#X obj 644 373 cyclone/gate;
#X obj 545 375 cyclone/gate;
#X obj 683 423 cyclone/gate;
#X connect 0 0 1 0;
#X connect 0 0 19 0;
#X connect 0 0 78 0;
#X connect 2 0 3 0;
#X connect 3 0 81 1;
#X connect 4 0 81 1;
#X connect 4 0 97 1;
#X connect 5 0 95 1;
#X connect 6 0 26 0;
#X connect 7 0 6 0;
#X connect 8 0 6 0;
#X connect 9 0 8 0;
#X connect 9 1 7 0;
#X connect 10 0 9 0;
#X connect 14 0 5 0;
#X connect 14 0 92 0;
#X connect 23 0 29 0;
#X connect 23 0 24 0;
#X connect 24 0 25 0;
#X connect 24 0 33 0;
#X connect 26 0 24 0;
#X connect 26 1 24 1;
#X connect 27 0 28 0;
#X connect 28 0 30 0;
#X connect 28 0 34 0;
#X connect 29 0 28 0;
#X connect 29 1 28 1;
#X connect 33 0 34 0;
#X connect 33 1 34 1;
#X connect 34 0 35 0;
#X connect 34 0 51 0;
#X connect 44 0 96 1;
#X connect 51 0 44 0;
#X connect 51 1 96 0;
#X connect 51 2 95 0;
#X connect 51 3 97 0;
#X connect 53 0 54 0;
#X connect 53 1 55 0;
#X connect 54 0 23 0;
#X connect 54 0 63 0;
#X connect 55 0 23 0;
#X connect 55 0 63 0;
#X connect 56 0 27 0;
#X connect 56 0 62 0;
#X connect 57 0 27 0;
#X connect 57 0 62 0;
#X connect 58 0 56 0;
#X connect 58 1 57 0;
#X connect 62 0 66 0;
#X connect 62 0 73 0;
#X connect 63 0 64 0;
#X connect 63 0 65 0;
#X connect 64 0 73 0;
#X connect 64 1 73 1;
#X connect 67 0 93 0;
#X connect 72 0 0 0;
#X connect 72 0 95 0;
#X connect 72 0 96 0;
#X connect 72 0 97 0;
#X connect 73 0 67 0;
#X connect 74 0 4 0;
#X connect 75 0 81 1;
#X connect 77 0 85 0;
#X connect 78 0 76 0;
#X connect 78 0 81 0;
#X connect 78 1 80 0;
#X connect 79 0 76 0;
#X connect 79 1 77 0;
#X connect 80 0 84 0;
#X connect 81 0 79 0;
#X connect 83 0 85 0;
#X connect 84 0 85 0;
#X connect 86 0 78 0;
#X connect 87 0 78 0;
#X connect 88 0 58 0;
#X connect 89 0 53 0;
#X connect 90 0 43 0;
#X connect 90 0 44 1;
#X connect 90 0 96 1;
#X connect 91 0 74 0;
#X connect 93 0 60 0;
#X connect 93 0 94 0;
#X connect 93 1 61 0;
#X connect 94 0 72 0;
#X connect 95 0 0 1;
#X connect 96 0 0 0;
