#N canvas 422 141 506 341 10;
#X obj 138 229 tabwrite led_levelss;
#X floatatom 138 183 5 0 0 0 - - -, f 5;
#X msg 28 249 \; updateLEDS bang;
#X floatatom 224 211 2 0 0 0 - - -, f 2;
#X text 177 183 value;
#X text 312 184 index;
#X floatatom 224 73 5 0 0 0 - - -, f 5;
#X obj 224 91 * 3;
#X obj 224 112 t f f f;
#X obj 224 183 + 0;
#X obj 255 183 + 1;
#X obj 285 183 + 2;
#X obj 292 101 t f b;
#X obj 292 77 unpack f f f;
#X obj 332 122 t f b;
#X obj 373 152 t f b;
#X floatatom 397 108 5 0 0 0 - - -, f 5;
#X floatatom 255 211 2 0 0 0 - - -, f 2;
#X floatatom 285 212 2 0 0 0 - - -, f 2;
#X obj 404 186 1_STR_VAL_n;
#X obj 184 33 inlet;
#X obj 291 39 inlet;
#X connect 1 0 0 0;
#X connect 6 0 7 0;
#X connect 7 0 8 0;
#X connect 8 0 9 0;
#X connect 8 1 10 0;
#X connect 8 2 11 0;
#X connect 9 0 0 1;
#X connect 9 0 3 0;
#X connect 10 0 0 1;
#X connect 10 0 17 0;
#X connect 11 0 0 1;
#X connect 11 0 18 0;
#X connect 12 0 1 0;
#X connect 12 1 9 0;
#X connect 13 0 12 0;
#X connect 13 1 14 0;
#X connect 13 2 15 0;
#X connect 13 2 16 0;
#X connect 14 0 1 0;
#X connect 14 1 10 0;
#X connect 15 0 1 0;
#X connect 15 1 11 0;
#X connect 20 0 7 0;
#X connect 21 0 13 0;
