#N canvas 593 84 693 640 10;
#X floatatom 352 271 5 0 0 0 - - -, f 5;
#X floatatom 391 307 5 0 0 0 - - -, f 5;
#X floatatom 430 351 5 0 0 0 - - -, f 5;
#X obj 330 416 pack f f f;
#X obj 296 290 1_STR_VAL_n;
#X obj 337 334 1_STR_VAL_n;
#X obj 256 254 1_STR_VAL_n;
#X obj 256 235 unpack f f f;
#X obj 370 384 t b f;
#X obj 411 384 t b f;
#X obj 256 201 inlet;
#X obj 330 526 outlet;
#X text 414 245 compares with stored RGB list;
#X text 415 231 takes list of 3 values RGB;
#X obj 324 190 loadbang;
#X text 383 190 init;
#X msg 324 208 0 0 0;
#X text 414 259 outputs if list = stored list;
#X obj 256 441 &&;
#X text 359 544 new list;
#X obj 256 525 outlet;
#X text 247 545 gate open/close;
#X obj 264 411 t b f;
#X obj 296 383 &&;
#X obj 306 361 t b f;
#X obj 273 496 tgl 15 0 empty empty empty 17 7 0 10 -262144 -1 -1 1
1;
#X obj 330 444 t l l;
#X text 364 465 previous list;
#X obj 112 401 l;
#X obj 38 38 r led_t;
#X msg 189 96 0;
#X msg 214 96 3;
#X msg 240 96 6;
#X msg 266 96 9;
#X msg 292 96 12;
#X msg 319 96 15;
#X msg 347 96 18;
#X msg 374 96 21;
#X obj 143 40 f \$1;
#X text 416 215 arg 1-led number;
#X text 228 19 send led number unique for this abstraction;
#X text 279 60 gets translated to array index;
#X obj 143 19 bng 15 250 50 0 empty empty empty 17 7 0 10 -262144 -1
-1;
#X obj 162 19 loadbang;
#X msg 400 96 24;
#X obj 189 79 sel 1 2 3 4 5 6 7 8 9 10 11;
#X msg 426 96 27;
#X msg 453 96 30;
#X text 185 42 led number;
#X obj 143 60 t f f f;
#X text 35 19 from parent;
#X obj 38 57 ==;
#X text 19 154 if our led is currently chosen;
#X obj 38 199 sel 1;
#X obj 38 370 t b b;
#X obj 38 399 f;
#X obj 38 424 list append;
#X text 44 168 send it's previous value;
#X msg 70 520 \; led_levelss \$1 \$2 \$3 \$4 \; updateLEDS bang;
#X obj 95 154 tgl 15 0 empty empty empty 17 7 0 10 -262144 -1 -1 0
1;
#X obj 189 113 s \$0-led_no;
#X obj 13 575 print prev;
#X obj 56 342 r \$0-led_no;
#X text 272 114 index;
#X obj 362 480 s \$0-prev_list;
#X obj 130 378 r \$0-prev_list;
#X obj 88 261 r \$0-led_no;
#X obj 70 282 f;
#X obj 70 306 list append;
#X obj 70 222 t b b;
#X msg 144 285 0 0 0;
#X obj 38 137 change;
#X text 72 323 if not make it dark;
#X obj 13 479 gate;
#X obj 13 455 r prev_led_val;
#X text 116 456 from snd pnl ON/OFF;
#X obj 54 480 tgl 15 0 empty empty empty 17 7 0 10 -262144 -1 -1 0
1;
#X connect 3 0 26 0;
#X connect 4 0 23 0;
#X connect 4 1 8 0;
#X connect 4 1 1 0;
#X connect 5 0 24 0;
#X connect 5 1 9 0;
#X connect 5 1 2 0;
#X connect 6 0 18 0;
#X connect 6 1 3 0;
#X connect 6 1 0 0;
#X connect 7 0 6 0;
#X connect 7 1 4 0;
#X connect 7 2 5 0;
#X connect 8 0 3 0;
#X connect 8 1 3 1;
#X connect 9 0 3 0;
#X connect 9 1 3 2;
#X connect 10 0 7 0;
#X connect 14 0 16 0;
#X connect 16 0 7 0;
#X connect 18 0 25 0;
#X connect 18 0 20 0;
#X connect 22 0 18 0;
#X connect 22 1 18 1;
#X connect 23 0 22 0;
#X connect 24 0 23 0;
#X connect 24 1 23 1;
#X connect 26 0 11 0;
#X connect 26 1 64 0;
#X connect 28 0 56 1;
#X connect 29 0 51 0;
#X connect 30 0 60 0;
#X connect 31 0 60 0;
#X connect 32 0 60 0;
#X connect 33 0 60 0;
#X connect 34 0 60 0;
#X connect 35 0 60 0;
#X connect 36 0 60 0;
#X connect 37 0 60 0;
#X connect 38 0 49 0;
#X connect 38 0 51 1;
#X connect 42 0 38 0;
#X connect 43 0 38 0;
#X connect 44 0 60 0;
#X connect 45 0 30 0;
#X connect 45 1 31 0;
#X connect 45 2 32 0;
#X connect 45 3 33 0;
#X connect 45 4 34 0;
#X connect 45 5 35 0;
#X connect 45 6 36 0;
#X connect 45 7 37 0;
#X connect 45 8 44 0;
#X connect 45 9 46 0;
#X connect 45 10 47 0;
#X connect 46 0 60 0;
#X connect 47 0 60 0;
#X connect 49 2 45 0;
#X connect 51 0 71 0;
#X connect 53 0 54 0;
#X connect 53 1 69 0;
#X connect 54 0 55 0;
#X connect 54 1 28 0;
#X connect 55 0 56 0;
#X connect 56 0 73 1;
#X connect 62 0 55 1;
#X connect 65 0 28 1;
#X connect 66 0 67 1;
#X connect 67 0 68 0;
#X connect 68 0 58 0;
#X connect 69 0 67 0;
#X connect 69 1 70 0;
#X connect 70 0 68 1;
#X connect 71 0 59 0;
#X connect 71 0 53 0;
#X connect 73 0 58 0;
#X connect 73 0 61 0;
#X connect 74 0 73 0;
#X connect 74 0 76 0;
