#N canvas 469 284 436 381 12;
#X obj 35 173 metro 1000;
#X obj 140 102 random;
#X obj 140 154 t f b;
#X obj 192 179 random 3;
#X obj 192 210 outlet RGB;
#X obj 35 8 inlet ON/OFF;
#X floatatom 189 92 5 0 0 0 - - -;
#X obj 140 131 + 20, f 5;
#X obj 35 211 outlet bang;
#X obj 119 211 outlet MS;
#X obj 179 11 r RNDM_CLOCK_SSM;
#X connect 0 0 1 0;
#X connect 0 0 8 0;
#X connect 1 0 7 0;
#X connect 2 0 0 1;
#X connect 2 0 9 0;
#X connect 2 1 3 0;
#X connect 3 0 4 0;
#X connect 5 0 0 0;
#X connect 7 0 2 0;
#X connect 10 0 1 1;
#X connect 10 0 6 0;
