#N canvas 0 54 1308 335 10;
#X text 435 44 ABSTRACTION FRO SENDING SEQ CTRL TO SPECIFIC SEQ MODES
;
#X text 435 61 \$1 = SEQ MODE;
#X obj 759 129 spigot, f 21;
#X obj 47 116 r SEQ_CTRL_12_ANALOG_LIST;
#X obj 837 41 r sed_ctrl_11_digital_ins;
#X obj 245 58 tgl 15 0 empty empty empty 17 7 0 10 -262144 -1 -1 1
1;
#X obj 47 138 spigot, f 33;
#X obj 305 138 s SQ\$1_ON_OFF;
#X obj 331 109 bng 15 250 50 0 empty empty empty 17 7 0 10 -262144
-1 -1;
#X obj 7 260 r TRESH_SQ\$1;
#X floatatom 7 282 5 0 0 0 - - -;
#X obj 97 260 r R_SQ\$1;
#X floatatom 97 282 5 0 0 0 - - -;
#X obj 158 260 r G_SQ\$1;
#X floatatom 158 282 5 0 0 0 - - -;
#X obj 219 260 r B_SQ\$1;
#X floatatom 219 282 5 0 0 0 - - -;
#X floatatom 280 278 5 0 0 0 - - -;
#X obj 390 260 r SWING_SQ\$1;
#X floatatom 390 282 5 0 0 0 - - -;
#X floatatom 479 282 5 0 0 0 - - -;
#X obj 582 260 r CLCK_SQ\$1;
#X floatatom 582 282 5 0 0 0 - - -;
#X obj 664 260 r RNDM_SQ\$1;
#X floatatom 664 282 5 0 0 0 - - -;
#X obj 412 131 r SEQ_MODE_SQ\$1;
#X floatatom 412 153 5 0 0 0 - - -;
#X obj 532 131 r SEQ_START_SQ\$1;
#X floatatom 532 153 5 0 0 0 - - -;
#X obj 653 131 r SEQ_END_SQ\$1;
#X floatatom 653 153 5 0 0 0 - - -;
#N canvas 0 54 1364 234 analog_seq_ctrls 0;
#X obj 44 23 inlet;
#X obj 44 52 unpack f f f f f f f f f f f f, f 184;
#X obj 44 76 s TRESH_SQ\$1;
#X obj 144 77 s R_SQ\$1;
#X obj 244 77 s G_SQ\$1;
#X obj 344 79 s B_SQ\$1;
#X obj 544 80 s SWING_SQ\$1;
#X obj 744 83 s CLCK_SQ\$1;
#X obj 844 83 s RNDM_SQ\$1;
#X obj 944 170 s SEQ_MODE_SQ\$1;
#X obj 1044 171 s SEQ_START_SQ\$1;
#X obj 1145 171 s SEQ_END_SQ\$1;
#X obj 444 79 s TMP_CHNG_SQ\$1, f 8;
#X obj 644 83 s LED_DEL_SQ\$1;
#X floatatom 954 111 5 0 0 0 - - -;
#X obj 944 78 1_ARD_ROT_SW_FROM_10_NORM 6 1;
#X floatatom 1062 137 5 0 0 0 - - -;
#X obj 1044 109 1_ARD_ROT_SW_FROM_10_NORM 8 1;
#X floatatom 1236 170 5 0 0 0 - - -;
#X obj 1145 137 1_ARD_ROT_SW_FROM_10_NORM 8 1;
#X connect 0 0 1 0;
#X connect 1 0 2 0;
#X connect 1 1 3 0;
#X connect 1 2 4 0;
#X connect 1 3 5 0;
#X connect 1 4 12 0;
#X connect 1 5 6 0;
#X connect 1 6 13 0;
#X connect 1 7 7 0;
#X connect 1 8 8 0;
#X connect 1 9 15 0;
#X connect 1 10 17 0;
#X connect 1 11 19 0;
#X connect 15 0 14 0;
#X connect 15 0 9 0;
#X connect 17 0 16 0;
#X connect 17 0 10 0;
#X connect 19 0 18 0;
#X connect 19 0 11 0;
#X restore 47 174 pd analog_seq_ctrls;
#X obj 479 260 r LED_DEL_SQ\$1;
#X obj 275 36 hradio 15 1 0 8 empty SEQ_MODE SEQ_MODE 0 -8 0 10 -258113
-1 -4160 2;
#X obj 280 260 r TMP_CHNG_SQ\$1;
#X obj 275 83 t f f, f 69;
#X obj 937 130 r SHIFT_SQ\$1;
#X floatatom 937 152 5 0 0 0 - - -;
#X obj 758 191 r LED_OFF_SQ\$1;
#X obj 758 221 bng 15 250 50 0 empty empty empty 17 7 0 10 -262144
-1 -1;
#X obj 825 218 r A_SCALE_SQ\$1;
#X obj 825 254 bng 15 250 50 0 empty empty empty 17 7 0 10 -262144
-1 -1;
#X obj 868 248 r RGB_SEL_SQ\$1;
#X obj 868 272 bng 15 250 50 0 empty empty empty 17 7 0 10 -262144
-1 -1;
#X obj 934 270 r BANG_SQ\$1;
#X obj 934 299 bng 15 250 50 0 empty empty empty 17 7 0 10 -262144
-1 -1;
#X obj 997 181 r DIR_SQ\$1;
#X floatatom 997 203 5 0 0 0 - - -;
#X obj 1037 202 r POLY_SQ\$1;
#X obj 1037 223 bng 15 250 50 0 empty empty empty 17 7 0 10 -262144
-1 -1;
#X obj 1068 223 r TAP_T_SQ\$1;
#X obj 1068 244 bng 15 250 50 0 empty empty empty 17 7 0 10 -262144
-1 -1;
#X obj 1097 250 r LOOP_SQ\$1;
#X floatatom 1097 272 5 0 0 0 - - -;
#X obj 1180 130 r TRIG_MODE_SQ41;
#X floatatom 1180 152 5 0 0 0 - - -;
#X obj 1038 129 r SUB_SEQ_MODE_SQ\$1;
#X floatatom 1038 151 5 0 0 0 - - -;
#N canvas 207 130 950 266 dig_seq_ctrl 0;
#X obj 30 15 inlet;
#X floatatom 846 126 5 0 0 0 - - -;
#X obj 713 126 1_ARD_DIG_BTN 5 1;
#X obj 166 193 change;
#X obj 30 43 unpack f f f f f f f f f f f, f 98;
#X obj 303 127 1_ARD_DIG_BTN;
#X obj 508 138 1_ARD_DIG_BTN;
#X obj 644 76 1_ARD_DIG_BTN 4 1;
#X obj 576 188 1_ARD_DIG_SW 1;
#X obj 78 86 bng 15 250 50 0 empty empty empty 17 7 0 10 -262144 -1
-1;
#X obj 30 63 change;
#X obj 30 83 sel 1;
#X obj 146 152 bng 15 250 50 0 empty empty empty 17 7 0 10 -262144
-1 -1;
#X obj 98 129 change;
#X obj 98 149 sel 1;
#X obj 282 86 bng 15 250 50 0 empty empty empty 17 7 0 10 -262144 -1
-1;
#X obj 234 63 change;
#X obj 234 83 sel 1;
#X obj 371 177 change;
#X obj 491 96 bng 15 250 50 0 empty empty empty 17 7 0 10 -262144 -1
-1;
#X obj 439 74 change;
#X obj 439 94 sel 1;
#X obj 30 106 s LED_OFF_SQ\$1;
#X obj 98 171 s A_SCALE_SQ\$1;
#X obj 166 213 s SHIFT_SQ\$1;
#X obj 234 106 s RGB_SEL_SQ\$1;
#X obj 302 150 s BANG_SQ\$1;
#X obj 371 206 s DIR_SQ\$1;
#X obj 439 115 s POLY_SQ\$1;
#X obj 508 159 s TAP_T_SQ\$1;
#X obj 576 211 s LOOP_SQ\$1;
#X obj 644 98 s TRIG_MODE_SQ41;
#X obj 713 171 s SUB_SEQ_MODE_SQ\$1;
#X connect 0 0 4 0;
#X connect 2 0 1 0;
#X connect 2 1 32 0;
#X connect 3 0 24 0;
#X connect 4 0 10 0;
#X connect 4 1 13 0;
#X connect 4 2 3 0;
#X connect 4 3 16 0;
#X connect 4 4 5 0;
#X connect 4 5 18 0;
#X connect 4 6 20 0;
#X connect 4 7 6 0;
#X connect 4 8 8 0;
#X connect 4 9 7 0;
#X connect 4 10 2 0;
#X connect 5 1 26 0;
#X connect 6 1 29 0;
#X connect 7 0 31 0;
#X connect 8 0 30 0;
#X connect 10 0 11 0;
#X connect 11 0 9 0;
#X connect 11 0 22 0;
#X connect 13 0 14 0;
#X connect 14 0 12 0;
#X connect 14 0 23 0;
#X connect 16 0 17 0;
#X connect 17 0 15 0;
#X connect 17 0 25 0;
#X connect 18 0 27 0;
#X connect 20 0 21 0;
#X connect 21 0 19 0;
#X connect 21 0 28 0;
#X restore 758 154 pd dig_seq_ctrl;
#X obj 275 61 1_SEQ_PATCH_LOGIC \$1;
#X connect 2 0 58 0;
#X connect 3 0 6 0;
#X connect 4 0 2 0;
#X connect 6 0 31 0;
#X connect 9 0 10 0;
#X connect 11 0 12 0;
#X connect 13 0 14 0;
#X connect 15 0 16 0;
#X connect 18 0 19 0;
#X connect 21 0 22 0;
#X connect 23 0 24 0;
#X connect 25 0 26 0;
#X connect 27 0 28 0;
#X connect 29 0 30 0;
#X connect 32 0 20 0;
#X connect 33 0 59 0;
#X connect 34 0 17 0;
#X connect 35 0 6 1;
#X connect 35 1 2 1;
#X connect 36 0 37 0;
#X connect 38 0 39 0;
#X connect 40 0 41 0;
#X connect 42 0 43 0;
#X connect 44 0 45 0;
#X connect 46 0 47 0;
#X connect 48 0 49 0;
#X connect 50 0 51 0;
#X connect 52 0 53 0;
#X connect 54 0 55 0;
#X connect 56 0 57 0;
#X connect 59 0 5 0;
#X connect 59 0 35 0;
