#N canvas 1440 432 558 193 10;
#X obj 74 32 inlet 1/0;
#X obj 164 31 inlet b_start;
#X obj 276 31 inlet b_stop;
#X obj 164 70 s SM\$1_B_start;
#X obj 276 71 s SM\$1_B_stop;
#X obj 74 70 s SM\$1_1/0;
#X connect 0 0 5 0;
#X connect 1 0 3 0;
#X connect 2 0 4 0;
