#N canvas 161 175 921 690 10;
#X obj 297 504 bng 15 250 50 0 empty empty empty 17 7 0 10 -262144
-1 -1;
#X obj 317 189 tgl 15 0 empty empty empty 17 7 0 10 -262144 -1 -1 0
1;
#X msg 388 407 tempo \$1 permin;
#X obj 388 360 line, f 46;
#X floatatom 412 385 5 0 0 0 - - -, f 5;
#X floatatom 437 274 5 0 0 0 - - -, f 5;
#X msg 388 333 \$1 \$2;
#X floatatom 491 288 5 0 0 0 - - -, f 5;
#X obj 388 159 tgl 15 0 empty empty empty 17 7 0 10 -262144 -1 -1 1
1;
#X obj 388 179 metro 2000;
#X obj 317 656 s update_8_LEDS;
#X msg 471 625 0 0 0;
#X obj 317 486 t b b;
#X obj 333 605 t b b, f 15;
#X obj 333 553 del 50;
#X msg 454 588 0 0 250;
#X obj 134 345 inlet start 1 metro;
#X obj 465 93 loadbang;
#X obj 496 140 f \$0;
#X floatatom 516 186 5 0 0 0 - - -, f 5;
#X obj 483 240 random 5000;
#X obj 388 220 t b b;
#X obj 388 310 pack f f, f 14;
#X text 325 243 new bpm;
#X text 570 241 how long to get there;
#X obj 500 265 s \$0-newlen;
#X obj 455 70 r \$0-newlen;
#X obj 279 72 r new_random;
#X obj 405 201 bng 15 250 50 0 empty empty empty 17 7 0 10 -262144
-1 -1;
#X obj 484 479 *;
#X obj 132 287 r start all metros;
#X obj 454 656 array set 8_LEDS \$1;
#X obj 598 77 r tempo_change_synq;
#X obj 677 137 random 5000;
#X obj 598 119 t f f;
#X text 84 201 \$0 - unique line lenght;
#X text 85 218 \$1 - led in array;
#X floatatom 417 120 5 0 0 0 - - -, f 5;
#X obj 496 162 clip 20 5000;
#X floatatom 489 521 5 0 0 0 - - -, f 5;
#X obj 465 115 t b b;
#X obj 542 405 r LED_DEL_SQ4;
#X obj 317 440 metro;
#X obj 388 243 random 66;
#X obj 388 271 + 50;
#X connect 1 0 42 0;
#X connect 2 0 42 0;
#X connect 3 0 2 0;
#X connect 3 0 4 0;
#X connect 3 0 29 0;
#X connect 5 0 22 0;
#X connect 6 0 3 0;
#X connect 7 0 22 1;
#X connect 8 0 9 0;
#X connect 9 0 21 0;
#X connect 11 0 31 0;
#X connect 12 0 10 0;
#X connect 12 0 14 0;
#X connect 12 1 15 0;
#X connect 13 0 10 0;
#X connect 13 1 11 0;
#X connect 14 0 13 0;
#X connect 15 0 31 0;
#X connect 16 0 42 0;
#X connect 17 0 40 0;
#X connect 18 0 38 0;
#X connect 20 0 22 1;
#X connect 20 0 25 0;
#X connect 21 0 43 0;
#X connect 21 1 20 0;
#X connect 22 0 6 0;
#X connect 26 0 9 1;
#X connect 26 0 37 0;
#X connect 27 0 21 0;
#X connect 28 0 21 0;
#X connect 29 0 14 1;
#X connect 29 0 39 0;
#X connect 30 0 8 0;
#X connect 30 0 42 0;
#X connect 32 0 34 0;
#X connect 34 0 8 0;
#X connect 34 1 3 1;
#X connect 38 0 9 1;
#X connect 38 0 19 0;
#X connect 40 0 21 0;
#X connect 40 1 18 0;
#X connect 41 0 29 1;
#X connect 42 0 0 0;
#X connect 42 0 12 0;
#X connect 43 0 44 0;
#X connect 44 0 22 0;
