#N canvas 505 118 889 649 10;
#X obj 562 492 bng 15 250 50 0 empty empty empty 17 7 0 10 -262144
-1 -1;
#X obj 770 512 loadbang;
#X msg 771 532 100;
#X obj 741 401 + 10;
#X obj 740 311 i;
#X obj 639 399 gate;
#X obj 663 162 tgl 15 0 empty empty empty 17 7 0 10 -262144 -1 -1 0
1;
#X msg 696 134 0;
#X msg 663 134 1;
#X obj 741 357 r LEDdelFACTOR;
#X obj 663 114 sel \$1;
#X obj 663 93 inlet;
#X text 213 55 start metro;
#X text 189 68 based on external in;
#X text 187 83 1=start 0 = stop;
#X obj 739 289 inlet;
#X text 662 49 which metro conotrlling???;
#X text 116 439 arguments to abstraction: \$1 which metro are we contorlling
(1-16);
#X text 709 272 tempo of this metro;
#X text 118 467 \$2 - which led are we switching on of 1-16;
#X obj 542 550 outlet;
#X text 513 549 bang;
#X text 120 275 switch on manual contorl of this metro!!!;
#X text 164 453 switch on manual contorl of this metro!!!;
#X obj 556 145 tgl 15 0 empty empty empty 17 7 0 10 -262144 -1 -1 1
1;
#X obj 556 220 &&;
#X obj 598 247 tgl 15 0 empty empty empty 17 7 0 10 -262144 -1 -1 0
1;
#X obj 593 192 t b f;
#X obj 482 122 tgl 15 0 empty empty empty 17 7 0 10 -262144 -1 -1 1
1;
#X obj 512 220 &&;
#X obj 520 194 t b f;
#X obj 512 248 tgl 15 0 empty empty empty 17 7 0 10 -262144 -1 -1 1
1;
#X text 446 42 main pacz=5;
#X text 547 22 subpacz=2;
#X obj 556 246 t b f;
#X obj 556 268 &&;
#X obj 556 289 tgl 15 0 empty empty empty 17 7 0 10 -262144 -1 -1 0
1;
#X text 118 287 jak te wszystkie warunki sa spelnione to mozemy sterowac
wybrane metro - on/off + tempo;
#X text 660 62 input from gate \$1: 1-16;
#X text 147 102 na starcie nic nie wysylamy;
#X text 50 100 0;
#X text 109 124 1 if main seq patch is selected first toggle ON;
#X text 128 146 2 if manual sub seq patch is selected second toggle
ON;
#X text 698 208 metro ON/OFF;
#X obj 705 254 tgl 15 0 empty empty empty 17 7 0 10 -262144 -1 -1 1
1;
#X obj 620 504 t b b;
#X obj 594 393 gate;
#X obj 558 359 i;
#X text 430 335 store last value of SWITCH;
#X text 660 74 has to match the \$1 arg;
#X text 732 337 delay;
#X text 331 311 send stored value when gate opened;
#X text 116 480 poprawic jeszcze tlko pamiec z subpacza tak jak w 4poly
mode DONE;
#X text 128 166 3 if arg \$1 equals the incoming value - then third
toggle ON;
#X obj 683 473 gate;
#X obj 585 305 t b f f f;
#X text 665 489 del contrl also individual;
#X msg 554 99 1;
#X msg 581 98 0;
#X msg 454 96 1;
#X msg 480 97 0;
#X msg 647 539 255;
#X obj 637 469 bng 15 250 50 0 empty empty empty 17 7 0 10 -262144
-1 -1;
#X text 189 351 stop all metros and ctrl data;
#X msg 429 368 0;
#X obj 382 402 bng 15 250 50 0 empty empty empty 17 7 0 10 -262144
-1 -1;
#X obj 461 369 bng 15 250 50 0 empty empty empty 17 7 0 10 -262144
-1 -1;
#X obj 414 188 == 0;
#X obj 469 188 == 0;
#X obj 438 218 t b f;
#X obj 485 214 tgl 15 0 empty empty empty 17 7 0 10 -262144 -1 -1 0
1;
#X obj 414 218 tgl 15 0 empty empty empty 17 7 0 10 -262144 -1 -1 0
1;
#X obj 449 264 tgl 15 0 empty empty empty 17 7 0 10 -262144 -1 -1 0
1;
#X text 125 198 This is basically reversed of;
#X text 125 210 the input conditions: if both;
#X text 126 221 main and sub patch are differnt;
#X text 96 246 send stop message to metros and gates;
#X obj 430 349 sel 1;
#X obj 520 390 tgl 15 0 empty empty empty 17 7 0 10 -262144 -1 -1 0
1;
#X obj 449 244 ||;
#X obj 741 378 * 4000;
#X obj 454 77 sel 6;
#X obj 554 80 sel 1;
#X obj 454 58 r SEQ_MODE;
#X obj 554 38 r LED_SUB_SEQ;
#X floatatom 574 60 5 0 0 0 - - -;
#X floatatom 728 249 5 0 0 0 - - -;
#X obj 698 227 r LOOP_SQ6;
#X obj 620 576 1_LED_MAN_314_B \$1 1 100;
#X floatatom 682 434 5 0 0 0 - - -;
#X floatatom 698 515 5 0 0 0 - - -;
#X obj 533 62 bng 15 250 50 0 empty empty empty 17 7 0 10 -262144 -1
-1;
#X obj 562 463 metro 10000;
#X connect 1 0 2 0;
#X connect 3 0 54 1;
#X connect 4 0 5 1;
#X connect 5 0 89 0;
#X connect 5 0 92 1;
#X connect 6 0 27 0;
#X connect 7 0 6 0;
#X connect 8 0 6 0;
#X connect 9 0 80 0;
#X connect 10 0 8 0;
#X connect 10 1 7 0;
#X connect 11 0 10 0;
#X connect 15 0 4 0;
#X connect 24 0 30 0;
#X connect 24 0 25 0;
#X connect 25 0 26 0;
#X connect 25 0 34 0;
#X connect 27 0 25 0;
#X connect 27 1 25 1;
#X connect 28 0 29 0;
#X connect 29 0 31 0;
#X connect 29 0 35 0;
#X connect 30 0 29 0;
#X connect 30 1 29 1;
#X connect 34 0 35 0;
#X connect 34 1 35 1;
#X connect 35 0 36 0;
#X connect 35 0 55 0;
#X connect 45 0 88 0;
#X connect 45 1 61 0;
#X connect 46 0 92 0;
#X connect 47 0 46 1;
#X connect 54 0 90 0;
#X connect 55 0 47 0;
#X connect 55 1 46 0;
#X connect 55 2 5 0;
#X connect 55 3 54 0;
#X connect 57 0 24 0;
#X connect 57 0 68 0;
#X connect 58 0 24 0;
#X connect 58 0 68 0;
#X connect 59 0 28 0;
#X connect 59 0 67 0;
#X connect 60 0 28 0;
#X connect 60 0 67 0;
#X connect 62 0 45 0;
#X connect 64 0 78 0;
#X connect 67 0 71 0;
#X connect 67 0 79 0;
#X connect 68 0 69 0;
#X connect 68 0 70 0;
#X connect 69 0 79 0;
#X connect 69 1 79 1;
#X connect 72 0 77 0;
#X connect 77 0 65 0;
#X connect 77 0 64 0;
#X connect 77 0 47 0;
#X connect 77 1 66 0;
#X connect 78 0 46 0;
#X connect 78 0 5 0;
#X connect 78 0 54 0;
#X connect 78 0 92 0;
#X connect 79 0 72 0;
#X connect 80 0 3 0;
#X connect 81 0 59 0;
#X connect 81 1 60 0;
#X connect 82 0 57 0;
#X connect 82 0 91 0;
#X connect 82 1 58 0;
#X connect 83 0 81 0;
#X connect 84 0 82 0;
#X connect 84 0 85 0;
#X connect 87 0 86 0;
#X connect 87 0 44 0;
#X connect 87 0 47 1;
#X connect 87 0 46 1;
#X connect 92 0 0 0;
#X connect 92 0 20 0;
#X connect 92 0 45 0;
