#N canvas 692 94 644 494 10;
#X floatatom -1668 227 5 0 0 0 - - -;
#X msg -1742 397 \; led_levelss \$1 \$2 \$3 \$4;
#X text -1726 221 RGB?;
#X text -1855 76 LED NO;
#X text -1592 22 pot in;
#X obj -1701 253 gate 3;
#X obj -1742 348 pack \$1 0 0 0;
#X text -1632 352 led number - get from abstraction?;
#X obj -1583 52 inlet;
#X text -1590 7 value;
#X obj -1852 96 inlet;
#X obj -1700 10 inlet;
#X obj -1699 34 unpack 0 0;
#X obj -1791 371 t b l;
#X obj -1828 411 s updateLEDS;
#X text -1847 170 wartosc z buttona - 0 zamkniete;
#X obj -1546 256 r 1RGBclear;
#X text -1546 238 when button pressed - set other values to 0;
#X msg -1548 302 0;
#X msg -1507 302 0;
#X msg -1466 300 0;
#X obj -1546 277 t b b b;
#X obj -1762 67 inlet;
#X floatatom -1690 128 5 0 0 0 - - -;
#X obj -1739 290 t b 0;
#X obj -1698 290 t b 0;
#X obj -1655 290 t b 0;
#X connect 0 0 5 1;
#X connect 5 0 24 0;
#X connect 5 1 25 0;
#X connect 5 2 26 0;
#X connect 6 0 13 0;
#X connect 8 0 0 0;
#X connect 10 0 6 0;
#X connect 11 0 12 0;
#X connect 12 0 23 0;
#X connect 12 1 0 0;
#X connect 13 0 14 0;
#X connect 13 1 1 0;
#X connect 16 0 21 0;
#X connect 21 0 18 0;
#X connect 21 1 19 0;
#X connect 21 2 20 0;
#X connect 22 0 5 0;
#X connect 23 0 5 0;
#X connect 24 0 6 0;
#X connect 24 1 6 1;
#X connect 25 0 6 0;
#X connect 25 1 6 2;
#X connect 26 0 6 0;
#X connect 26 1 6 3;
