#N canvas 417 179 1177 766 10;
#X msg 485 522 close;
#N canvas 0 50 450 278 (subpatch) 0;
#X array LEDS 60 float 2;
#X coords 0 254 60 0 320 40 1 0 0;
#X restore 328 462 graph;
#X floatatom 505 252 5 0 250 0 - - -;
#X msg 537 522 open 2;
#X obj 284 138 bng 15 250 50 0 empty empty empty 17 7 0 10 -262144
-1 -1;
#X floatatom 439 133 5 0 0 0 - - -;
#X floatatom 284 52 5 0 254 0 - - -;
#X floatatom 398 64 5 0 44 0 - - -;
#X obj 20 85 bng 15 250 50 0 empty empty empty 17 7 0 10 -262144 -1
-1;
#X obj 20 132 t l b;
#X text 64 134 Send message start pattern;
#X obj 10 155 drip;
#X obj 10 198 int;
#X obj 53 178 s to_comport2;
#X obj 384 521 r to_comport2;
#X obj 384 552 comport 2 115200;
#X text 42 85 bang for list output;
#X obj 680 238 t b l, f 13;
#X obj 398 45 hradio 15 1 0 8 empty empty empty 0 -8 0 10 -262144 -1
-1 3;
#X text 370 44 led;
#X obj 398 106 + 0;
#X obj 438 85 hradio 15 1 1 3 empty empty empty 0 -8 0 10 -262144 -1
-1 1;
#X obj 284 76 t b f b;
#X text 447 70 GRB;
#X obj 599 92 tgl 15 0 empty empty empty 17 7 0 10 -262144 -1 -1 0
1;
#X text 1060 73 g;
#X text 1139 116 b;
#X text 1104 114 r;
#X obj 398 83 * 3;
#X msg 579 256 0;
#X obj 549 160 i;
#X obj 579 162 + 1;
#X obj 579 184 % 2;
#X floatatom 423 245 5 0 0 0 - - -;
#X obj 599 118 metro 1300;
#X obj 579 206 sel 0 1;
#X msg 680 66 250 0 0 250 0 0 250 0 0 250 0 0 250 0 0 250 0 0 250 0
0 250 0 0 250 0 0 250 0 0 255 0 0 250 0 0 250 0 0 250 0 0 255 0 0 250
0 0 250 0 0 250 0 0 255 0 0 250 0 0;
#X msg 53 154 254 254 254 254;
#X floatatom 629 79 5 0 0 0 - - -;
#X msg 634 525 info;
#X msg 324 523 devices;
#X obj 477 584 print;
#X obj 644 145 bng 15 250 50 0 empty empty empty 17 7 0 10 -262144
-1 -1;
#X msg 578 524 open 1;
#X obj 680 263 s update_LEDS;
#X obj 769 262 array set LEDS;
#X obj 316 135 array set LEDS;
#X obj 284 162 s update_LEDS;
#X obj 21 61 r update_LEDS;
#X msg 504 277 \; LEDS const \$1 \; update_LEDS bang;
#X obj 20 108 array get LEDS;
#X text 136 451 LED 1-8 SEQUENCER LEDS;
#X text 136 461 LED 9-20 PANEL LEDS;
#X text 136 471 LED 12-17 MIXER LEDS ON 1 PIN;
#X text 136 481 LED 18-20 lfo LEDS ON 1 PIN;
#X msg 693 118 0 250 0 0 250 0 0 250 0 0 250 0 0 250 0 0 250 0 0 250
0 0 250 0 0 250 0 0 250 0 0 255 0 0 250 0 0 250 0 0 250 0 0 255 0 0
250 0 0 250 0 0 250 0 0 255 0 0 250 0;
#X msg 729 171 0 0 250 0 0 250 0 0 250 0 0 250 0 0 250 0 0 250 0 0
250 0 0 250 0 0 250 0 0 250 0 0 255 0 0 250 0 0 250 0 0 250 0 0 255
0 0 250 0 0 250 0 0 250 0 0 255 0 0 250;
#X obj 229 212 tgl 15 0 empty empty empty 17 7 0 10 -262144 -1 -1 1
1;
#X obj 229 254 i;
#X obj 229 276 + 1;
#X obj 229 232 metro 1300;
#X floatatom 286 213 5 0 0 0 - - -;
#X obj 229 298 % 20;
#X obj 229 321 * 3;
#X floatatom 269 374 5 0 0 0 - - -;
#X obj 228 347 + 0;
#X obj 268 326 hradio 15 1 1 3 empty empty empty 0 -8 0 10 -262144
-1 -1 1;
#X obj 184 416 array set LEDS;
#X floatatom 124 304 5 0 250 0 - - -;
#X obj 90 424 s update_LEDS;
#X text 355 2 BASIC WAY OF CONTROLLING LEDS;
#X obj 121 366 t b f b;
#X connect 0 0 15 0;
#X connect 2 0 49 0;
#X connect 3 0 15 0;
#X connect 4 0 47 0;
#X connect 6 0 22 0;
#X connect 7 0 28 0;
#X connect 8 0 50 0;
#X connect 9 0 11 0;
#X connect 9 1 37 0;
#X connect 11 0 12 0;
#X connect 11 0 13 0;
#X connect 14 0 15 0;
#X connect 15 1 41 0;
#X connect 17 0 44 0;
#X connect 17 1 45 0;
#X connect 18 0 7 0;
#X connect 20 0 5 0;
#X connect 20 0 46 1;
#X connect 21 0 20 1;
#X connect 22 0 4 0;
#X connect 22 1 46 0;
#X connect 22 2 20 0;
#X connect 24 0 34 0;
#X connect 28 0 20 0;
#X connect 29 0 49 0;
#X connect 30 0 31 0;
#X connect 31 0 32 0;
#X connect 31 0 30 1;
#X connect 32 0 33 0;
#X connect 32 0 35 0;
#X connect 34 0 30 0;
#X connect 34 0 44 0;
#X connect 35 0 29 0;
#X connect 35 1 55 0;
#X connect 36 0 17 0;
#X connect 37 0 13 0;
#X connect 38 0 34 1;
#X connect 39 0 15 0;
#X connect 40 0 15 0;
#X connect 42 0 17 0;
#X connect 43 0 15 0;
#X connect 48 0 8 0;
#X connect 50 0 9 0;
#X connect 55 0 17 0;
#X connect 56 0 17 0;
#X connect 57 0 60 0;
#X connect 58 0 59 0;
#X connect 59 0 58 1;
#X connect 59 0 62 0;
#X connect 60 0 58 0;
#X connect 61 0 60 1;
#X connect 62 0 63 0;
#X connect 63 0 65 0;
#X connect 65 0 64 0;
#X connect 65 0 67 1;
#X connect 66 0 65 1;
#X connect 68 0 71 0;
#X connect 71 0 69 0;
#X connect 71 1 67 0;
#X connect 71 2 65 0;
