#N canvas 366 512 1178 399 10;
#X msg 118 165 close;
#N canvas 0 50 450 278 (subpatch) 0;
#X array 8_LEDS 60 float 2;
#X coords 0 254 60 0 320 40 1 0 0;
#X restore 336 29 graph;
#X floatatom 198 12 5 0 250 0 - - -;
#X msg 170 165 open 2;
#X obj 261 165 bng 15 250 50 0 empty empty empty 17 7 0 10 -262144
-1 -1;
#X floatatom 499 186 5 0 0 0 - - -;
#X floatatom 344 105 5 0 254 0 - - -;
#X floatatom 458 117 5 0 44 0 - - -;
#X obj 20 45 bng 15 250 50 0 empty empty empty 17 7 0 10 -262144 -1
-1;
#X obj 20 92 t l b;
#X text 64 94 Send message start pattern;
#X obj 20 115 drip;
#X obj 20 137 int;
#X obj 20 68 array get 8_LEDS;
#X obj 53 138 s to_comport2;
#X obj 21 21 r update_8_LEDS;
#X obj 261 189 s update_8_LEDS;
#X obj 802 230 array set 8_LEDS;
#X msg 198 28 \; 8_LEDS const \$1 \; update_8_LEDS bang;
#X obj 17 164 r to_comport2;
#X obj 17 195 comport 2 115200;
#X text 42 45 bang for list output;
#X obj 680 208 t b l, f 13;
#X obj 680 233 s update_8_LEDS;
#X obj 376 188 array set 8_LEDS;
#X obj 458 98 hradio 15 1 0 8 empty empty empty 0 -8 0 10 -262144 -1
-1 3;
#X text 430 97 led;
#X obj 458 159 + 0;
#X obj 498 138 hradio 15 1 1 3 empty empty empty 0 -8 0 10 -262144
-1 -1 1;
#X obj 344 129 t b f b;
#X text 507 123 GRB;
#N canvas 407 152 793 611 old_way_of_updating_LEDS_serial 0;
#X obj 54 199 until;
#X obj 54 223 f;
#X obj 88 223 + 1;
#X msg 81 131 0;
#X obj 54 66 bng 15 250 50 0 empty empty empty 17 7 0 10 -262144 -1
-1;
#X obj 54 110 t b b;
#X obj 54 403 int;
#X obj 54 88 t b b;
#X text 114 86 Send message start pattern;
#X text 94 194 Send values themselves;
#X obj 54 179 / 3;
#X text 94 205 For each triplet of values in led_levels;
#X obj 475 301 * 3;
#X obj 475 325 + 0;
#X obj 336 301 * 3;
#X obj 336 325 + 1;
#X obj 197 301 * 3;
#X obj 197 325 + 2;
#X text 58 370 Force to integer and restrict to valid range [0..255]
;
#X obj 54 426 clip 0 255;
#X msg 114 104 255 255 255 255;
#X text 121 259 For each of R \, G \, B and alpha;
#X obj 54 301 * 3;
#X obj 54 325 + 2;
#X obj 54 453 + 1;
#X obj 54 259 t f f f f;
#X obj 197 403 int;
#X obj 197 426 clip 0 255;
#X obj 336 403 int;
#X obj 336 426 clip 0 255;
#X obj 475 403 int;
#X obj 475 426 clip 0 255;
#X text 131 441 For alpha use blue+1 \, just so we;
#X text 107 458 never get 255 \, 255 \, 255 \, 255 (the start pattern)
;
#X obj 54 26 tgl 15 0 empty empty empty 17 7 0 10 -262144 -1 -1 0 1
;
#X text 347 189 2 \, 3 \, 4 \, 5 \, 6 \, 7 \, 8 \, 9;
#X text 385 206 pins on ARDUINo;
#X obj 54 45 metro 20;
#X obj 142 43 r update_8_LEDS;
#X obj 114 124 s to_comport2;
#X obj 54 348 tabread 8_LEDS;
#X obj 197 348 tabread 8_LEDS;
#X obj 336 348 tabread 8_LEDS;
#X obj 475 348 tabread 8_LEDS;
#X obj 198 487 s to_comport2;
#X obj 54 153 arraysize 8_LEDS;
#X connect 0 0 1 0;
#X connect 1 0 2 0;
#X connect 1 0 25 0;
#X connect 2 0 1 1;
#X connect 3 0 1 1;
#X connect 4 0 7 0;
#X connect 5 0 45 0;
#X connect 5 1 3 0;
#X connect 6 0 19 0;
#X connect 7 0 5 0;
#X connect 7 1 20 0;
#X connect 10 0 0 0;
#X connect 12 0 13 0;
#X connect 13 0 43 0;
#X connect 14 0 15 0;
#X connect 15 0 42 0;
#X connect 16 0 17 0;
#X connect 17 0 41 0;
#X connect 19 0 24 0;
#X connect 20 0 39 0;
#X connect 22 0 23 0;
#X connect 23 0 40 0;
#X connect 24 0 44 0;
#X connect 25 0 22 0;
#X connect 25 1 16 0;
#X connect 25 2 14 0;
#X connect 25 3 12 0;
#X connect 26 0 27 0;
#X connect 27 0 44 0;
#X connect 28 0 29 0;
#X connect 29 0 44 0;
#X connect 30 0 31 0;
#X connect 31 0 44 0;
#X connect 34 0 37 0;
#X connect 37 0 4 0;
#X connect 40 0 6 0;
#X connect 41 0 26 0;
#X connect 42 0 28 0;
#X connect 43 0 30 0;
#X connect 45 0 10 0;
#X restore 667 17 pd old_way_of_updating_LEDS_serial;
#X obj 599 92 tgl 15 0 empty empty empty 17 7 0 10 -262144 -1 -1 0
1;
#X msg 703 138 0 250 0 0 250 0 0 255 0 0 250 0 0 250 0 0 250 0 0 255
0 0 250 0;
#X msg 729 171 0 0 250 0 0 250 0 0 255 0 0 250 0 0 250 0 0 250 0 0
255 0 0 250;
#X text 1092 83 g;
#X text 1139 116 b;
#X text 1104 114 r;
#X obj 458 136 * 3;
#X msg 273 7 0;
#X obj 549 160 i;
#X obj 579 162 + 1;
#X obj 579 184 % 2;
#X floatatom 423 245 5 0 0 0 - - -;
#X obj 599 118 metro 1300;
#X obj 579 206 sel 0 1;
#X msg 607 347 250 0 0 250 0 0 255 0 0 250 0 0 250 0 0 250 0 0 255
0 0 250 0 0;
#X msg 692 66 250 0 0 250 0 0 250 0 0 250 0 0 250 0 0 250 0 0 250 0
0 250 0 0 250 0 0 250 0 0 255 0 0 250 0 0 250 0 0 250 0 0 255 0 0 250
0 0 250 0 0 250 0 0 255 0 0 250 0 0;
#X msg 53 114 254 254 254 254;
#X floatatom 629 79 5 0 0 0 - - -;
#X msg 238 113 info;
#X msg 203 137 devices;
#X obj 125 229 print;
#X obj 644 145 bng 15 250 50 0 empty empty empty 17 7 0 10 -262144
-1 -1;
#X connect 0 0 20 0;
#X connect 2 0 18 0;
#X connect 3 0 20 0;
#X connect 4 0 16 0;
#X connect 6 0 29 0;
#X connect 7 0 38 0;
#X connect 8 0 13 0;
#X connect 9 0 11 0;
#X connect 9 1 48 0;
#X connect 11 0 12 0;
#X connect 11 0 14 0;
#X connect 13 0 9 0;
#X connect 15 0 8 0;
#X connect 19 0 20 0;
#X connect 20 1 52 0;
#X connect 22 0 23 0;
#X connect 22 1 17 0;
#X connect 25 0 7 0;
#X connect 27 0 24 1;
#X connect 27 0 5 0;
#X connect 28 0 27 1;
#X connect 29 0 4 0;
#X connect 29 1 24 0;
#X connect 29 2 27 0;
#X connect 32 0 44 0;
#X connect 33 0 22 0;
#X connect 34 0 22 0;
#X connect 38 0 27 0;
#X connect 39 0 18 0;
#X connect 40 0 41 0;
#X connect 41 0 42 0;
#X connect 41 0 40 1;
#X connect 42 0 43 0;
#X connect 42 0 45 0;
#X connect 44 0 23 0;
#X connect 44 0 40 0;
#X connect 45 0 39 0;
#X connect 45 1 33 0;
#X connect 47 0 22 0;
#X connect 48 0 14 0;
#X connect 49 0 44 1;
#X connect 50 0 20 0;
#X connect 51 0 20 0;
#X connect 53 0 22 0;
