#N canvas 53 54 1315 783 10;
#X obj -297 166 until;
#X obj -297 190 f;
#X obj -263 190 + 1;
#X msg -270 98 0;
#X obj -297 33 bng 15 250 50 0 empty empty empty 17 7 0 10 -262144
-1 -1;
#X obj -297 77 t b b;
#X obj -297 370 int;
#X obj -297 55 t b b;
#X text -237 53 Send message start pattern;
#X text 237 535 Serial port;
#X text -257 161 Send values themselves;
#X text 237 552 PD -> Arduino;
#X obj -297 146 / 3;
#X text -257 172 For each triplet of values in led_levels;
#X obj 124 268 * 3;
#X obj 124 292 + 0;
#X obj -15 268 * 3;
#X obj -15 292 + 1;
#X obj -154 268 * 3;
#X obj -154 292 + 2;
#X text -293 337 Force to integer and restrict to valid range [0..255]
;
#X obj -297 393 clip 0 255;
#X text 238 519 Send byte to serial port;
#X msg -237 71 255 255 255 255;
#X text -230 226 For each of R \, G \, B and alpha;
#X obj -297 268 * 3;
#X obj -297 292 + 2;
#X obj -297 420 + 1;
#X obj -297 226 t f f f f;
#X obj -154 370 int;
#X obj -154 393 clip 0 255;
#X obj -15 370 int;
#X obj -15 393 clip 0 255;
#X obj 124 370 int;
#X obj 124 393 clip 0 255;
#X text -220 408 For alpha use blue+1 \, just so we;
#X text -244 425 never get 255 \, 255 \, 255 \, 255 (the start pattern)
;
#X obj -297 -7 tgl 15 0 empty empty empty 17 7 0 10 -262144 -1 -1 0
1;
#X msg -64 505 close;
#N canvas 173 268 295 232 MESStoCOMPORT 0;
#X obj -220 -268 loadbang;
#X msg -194 -207 bits 8;
#X msg -196 -174 parity 0;
#X msg -195 -144 stopbit 0;
#X obj -218 -246 bng 15 250 50 0 empty empty empty 17 7 0 10 -262144
-1 -1;
#X obj -216 -92 outlet;
#X msg -63 -177 print HELLO;
#X obj -63 -198 bng 15 250 50 0 empty empty empty 17 7 0 10 -262144
-1 -1;
#X msg -76 -148 10;
#X msg -21 -233 info;
#X connect 0 0 4 0;
#X connect 1 0 5 0;
#X connect 2 0 5 0;
#X connect 3 0 5 0;
#X connect 4 0 1 0;
#X connect 4 0 2 0;
#X connect 4 0 3 0;
#X connect 7 0 6 0;
#X connect 7 0 8 0;
#X connect 8 0 5 0;
#X connect 9 0 5 0;
#X restore -40 531 pd MESStoCOMPORT;
#X text -42 557 Dziala bez openX mess \, wiec wywalam je;
#X obj -293 483 tgl 15 0 empty empty empty 17 7 0 10 -262144 -1 -1
1 1;
#X text -4 156 2 \, 3 \, 4 \, 5 \, 6 \, 7 \, 8 \, 9;
#N canvas 0 50 450 278 (subpatch) 0;
#X array 8_LEDS 32 float 2;
#X coords 0 254 32 0 320 40 1 0 0;
#X restore 279 300 graph;
#X msg 77 601 add2 \$1;
#X msg 137 601 set;
#X text 91 532 Arduino -> PD;
#X text 178 589 <- Click to clear message box;
#X text 177 602 Add received bytes to message box;
#X obj -293 531 print com send bytes;
#X msg 77 619;
#X obj -198 636 bytes2any;
#X text -22 637 Interpret bytes as ASCII and print text in Pd window
;
#X obj -198 656 print com recv text;
#X obj -119 636 import moocow;
#X obj -233 569 tgl 15 0 empty empty empty 17 7 0 10 -262144 -1 -1
0 1;
#X text 34 173 pins on ARDUINo;
#X floatatom 850 65 5 0 250 0 - - -, f 5;
#X obj -297 12 metro 20;
#X obj -202 584 cyclone/switch;
#X obj -293 506 cyclone/switch;
#X msg -12 505 open 2;
#X obj 726 166 int;
#X obj 766 168 + 1;
#X floatatom 750 257 5 0 0 0 - - -, f 5;
#X obj 585 204 bng 15 250 50 0 empty empty empty 17 7 0 10 -262144
-1 -1;
#X obj 726 208 * 3;
#X text 696 255 index;
#X obj 585 165 tgl 15 0 empty empty empty 17 7 0 10 -262144 -1 -1 0
1;
#X obj 585 184 metro 10;
#X obj 726 233 + 1;
#X floatatom 758 214 5 0 3 0 - - -, f 5;
#X obj 585 225 t b b b;
#X obj 415 642 bng 15 250 50 0 empty empty empty 17 7 0 10 -262144
-1 -1;
#X floatatom 653 663 5 0 0 0 - - -, f 5;
#X floatatom 498 582 5 0 254 0 - - -, f 5;
#X floatatom 612 594 5 0 44 0 - - -, f 5;
#X obj 329 72 bng 15 250 50 0 empty empty empty 17 7 0 10 -262144 -1
-1;
#X obj 523 203 print;
#X obj 337 139 t l b;
#X text 381 141 Send message start pattern;
#X msg 381 159 255 255 255 255;
#X obj 253 170 drip;
#X obj 255 196 int;
#X obj 329 105 array get 8_LEDS;
#X obj 356 205 s to_comport2;
#X obj 330 48 r update_8_LEDS;
#X obj 585 264 s update_8_LEDS;
#X obj 415 666 s update_8_LEDS;
#X obj 371 486 array set 8_LEDS;
#X obj -209 10 r update_8_LEDS;
#X msg 850 81 \; 8_LEDS const \$1 \; update_8_LEDS bang;
#X obj -237 91 s to_comport2;
#X obj -297 315 tabread 8_LEDS;
#X obj -154 315 tabread 8_LEDS;
#X obj -15 315 tabread 8_LEDS;
#X obj 124 315 tabread 8_LEDS;
#X obj -153 454 s to_comport2;
#X obj -155 489 r to_comport2;
#X obj -155 555 comport 2 115200;
#X obj 140 11 tgl 15 0 empty empty empty 17 7 0 10 -262144 -1 -1 0
1;
#X obj 140 30 metro 20;
#X obj 331 240 s to_comport2;
#X msg -21 476 devices;
#X obj 726 188 % 8;
#X msg 371 394 250 0 0 0 250 0 0 0 255 0 0 0 250 0 0 0 250 0 0 0 250
0 0 0 255 0 0 0 250 0 0 0;
#X msg 416 432 0 250 0 0 0 250 0 0 0 255 0 0 0 250 0 0 0 250 0 0 0
250 0 0 0 255 0 0 0 250 0 0;
#X text 816 400 green;
#X msg 505 470 0 0 250 0 0 0 250 0 0 0 255 0 0 0 250 0 0 0 250 0 0
0 250 0 0 0 255 0 0 0 250 0 0;
#X text 848 436 red;
#X text 932 477 blue;
#X text 351 72 bang for list output;
#X msg 338 357 250 250 0 0 250 250 0 0 255 250 0 0 250 250 0 0 250
250 0 0 250 250 0 0 255 250 0 0 250 250 0 0;
#X obj 301 433 t b l;
#X obj 231 441 bng 15 250 50 0 empty empty empty 17 7 0 10 -262144
-1 -1;
#X obj 234 466 s update_8_LEDS;
#X text 770 361 yellow;
#X obj 530 665 array set 8_LEDS;
#X obj 612 613 * 4;
#X obj -297 120 arraysize 8_LEDS;
#X obj 612 575 hradio 15 1 0 8 empty empty empty 0 -8 0 10 -262144
-1 -1 0;
#X text 584 574 led;
#X obj 612 636 + 0;
#X obj 652 615 hradio 15 1 1 3 empty empty empty 0 -8 0 10 -262144
-1 -1 2;
#X obj 498 606 t b f b;
#X text 661 600 GRB;
#X connect 0 0 1 0;
#X connect 1 0 2 0;
#X connect 1 0 28 0;
#X connect 2 0 1 1;
#X connect 3 0 1 1;
#X connect 4 0 7 0;
#X connect 5 0 119 0;
#X connect 5 1 3 0;
#X connect 6 0 21 0;
#X connect 7 0 5 0;
#X connect 7 1 23 0;
#X connect 12 0 0 0;
#X connect 14 0 15 0;
#X connect 15 0 96 0;
#X connect 16 0 17 0;
#X connect 17 0 95 0;
#X connect 18 0 19 0;
#X connect 19 0 94 0;
#X connect 21 0 27 0;
#X connect 23 0 92 0;
#X connect 25 0 26 0;
#X connect 26 0 93 0;
#X connect 27 0 97 0;
#X connect 28 0 25 0;
#X connect 28 1 18 0;
#X connect 28 2 16 0;
#X connect 28 3 14 0;
#X connect 29 0 30 0;
#X connect 30 0 97 0;
#X connect 31 0 32 0;
#X connect 32 0 97 0;
#X connect 33 0 34 0;
#X connect 34 0 97 0;
#X connect 37 0 58 0;
#X connect 38 0 99 0;
#X connect 39 0 99 0;
#X connect 41 0 60 0;
#X connect 44 0 50 0;
#X connect 45 0 50 0;
#X connect 50 0 51 0;
#X connect 51 0 53 0;
#X connect 55 0 59 0;
#X connect 57 0 91 0;
#X connect 58 0 4 0;
#X connect 59 0 44 0;
#X connect 60 0 49 0;
#X connect 61 0 99 0;
#X connect 62 0 63 0;
#X connect 62 0 104 0;
#X connect 63 0 62 1;
#X connect 65 0 72 0;
#X connect 66 0 70 0;
#X connect 68 0 69 0;
#X connect 69 0 65 0;
#X connect 70 0 64 0;
#X connect 70 0 89 1;
#X connect 71 0 70 1;
#X connect 72 0 87 0;
#X connect 72 1 89 0;
#X connect 72 2 62 0;
#X connect 73 0 88 0;
#X connect 75 0 124 0;
#X connect 76 0 118 0;
#X connect 77 0 84 0;
#X connect 79 0 82 0;
#X connect 79 0 85 0;
#X connect 79 1 81 0;
#X connect 81 0 85 0;
#X connect 82 0 83 0;
#X connect 84 0 79 0;
#X connect 86 0 77 0;
#X connect 93 0 6 0;
#X connect 94 0 29 0;
#X connect 95 0 31 0;
#X connect 96 0 33 0;
#X connect 98 0 60 1;
#X connect 98 0 99 0;
#X connect 99 0 59 1;
#X connect 100 0 101 0;
#X connect 103 0 99 0;
#X connect 104 0 66 0;
#X connect 105 0 89 0;
#X connect 106 0 89 0;
#X connect 108 0 89 0;
#X connect 112 0 113 0;
#X connect 113 0 114 0;
#X connect 113 1 89 0;
#X connect 114 0 115 0;
#X connect 118 0 122 0;
#X connect 119 0 12 0;
#X connect 120 0 76 0;
#X connect 122 0 117 1;
#X connect 122 0 74 0;
#X connect 123 0 122 1;
#X connect 124 0 73 0;
#X connect 124 1 117 0;
#X connect 124 2 122 0;
