#N canvas 288 51 966 809 10;
#X obj 43 206 until;
#X obj 43 230 f;
#X obj 77 230 + 1;
#X msg 70 138 0;
#X obj 43 73 bng 15 250 50 0 empty empty empty 17 7 0 10 -262144 -1
-1;
#X obj 43 117 t b b;
#X obj 43 410 int;
#X obj 43 95 t b b;
#X text 103 93 Send message start pattern;
#X obj 185 529 r to_comport;
#X obj 187 494 s to_comport;
#X obj 103 131 s to_comport;
#X text 563 521 Serial port;
#X text 83 201 Send values themselves;
#X text 563 538 PD -> Arduino;
#X obj 43 186 / 3;
#X text 83 212 For each triplet of values in led_levels;
#X obj 464 308 * 3;
#X obj 464 332 + 0;
#X obj 325 308 * 3;
#X obj 325 332 + 1;
#X obj 186 308 * 3;
#X obj 186 332 + 2;
#X text 47 377 Force to integer and restrict to valid range [0..255]
;
#X obj 43 433 clip 0 255;
#X text 564 505 Send byte to serial port;
#X msg 103 111 255 255 255 255;
#X text 110 266 For each of R \, G \, B and alpha;
#X obj 43 308 * 3;
#X obj 43 332 + 2;
#X obj 43 460 + 1;
#X obj 43 266 t f f f f;
#X obj 186 410 int;
#X obj 186 433 clip 0 255;
#X obj 325 410 int;
#X obj 325 433 clip 0 255;
#X obj 464 410 int;
#X obj 464 433 clip 0 255;
#X text 120 448 For alpha use blue+1 \, just so we;
#X text 96 465 never get 255 \, 255 \, 255 \, 255 (the start pattern)
;
#X obj 43 33 tgl 15 0 empty empty empty 17 7 0 10 -262144 -1 -1 0 1
;
#X obj 43 160 arraysize led_levelss;
#X obj 43 355 tabread led_levelss;
#X obj 186 355 tabread led_levelss;
#X obj 325 355 tabread led_levelss;
#X obj 464 355 tabread led_levelss;
#X msg 276 545 close;
#N canvas 179 218 295 232 MESStoCOMPORT 0;
#X obj -220 -268 loadbang;
#X msg -194 -207 bits 8;
#X msg -196 -174 parity 0;
#X msg -195 -144 stopbit 0;
#X obj -218 -246 bng 15 250 50 0 empty empty empty 17 7 0 10 -262144
-1 -1;
#X obj -216 -92 outlet;
#X msg -85 -234 devices;
#X msg -63 -177 print HELLO;
#X obj -63 -198 bng 15 250 50 0 empty empty empty 17 7 0 10 -262144
-1 -1;
#X msg -76 -148 10;
#X msg -21 -233 info;
#X connect 0 0 4 0;
#X connect 1 0 5 0;
#X connect 2 0 5 0;
#X connect 3 0 5 0;
#X connect 4 0 1 0;
#X connect 4 0 2 0;
#X connect 4 0 3 0;
#X connect 6 0 5 0;
#X connect 8 0 7 0;
#X connect 8 0 9 0;
#X connect 9 0 5 0;
#X connect 10 0 5 0;
#X restore 300 571 pd MESStoCOMPORT;
#X text 298 597 Dziala bez openX mess \, wiec wywalam je;
#X obj 47 523 tgl 15 0 empty empty empty 17 7 0 10 -262144 -1 -1 0
1;
#X text 336 196 2 \, 3 \, 4 \, 5 \, 6 \, 7 \, 8 \, 9;
#N canvas 0 50 450 278 (subpatch) 0;
#X array led_levelss 33 float 2;
#X coords 0 255 33 0 200 140 1 0 0;
#X restore 621 312 graph;
#X msg 417 641 add2 \$1;
#X msg 477 641 set;
#X text 431 572 Arduino -> PD;
#X text 518 629 <- Click to clear message box;
#X text 517 642 Add received bytes to message box;
#X obj 47 571 print com send bytes;
#X msg 417 659;
#X obj 142 676 bytes2any;
#X text 318 677 Interpret bytes as ASCII and print text in Pd window
;
#X obj 142 696 print com recv text;
#X obj 221 676 import moocow;
#X obj 107 609 tgl 15 0 empty empty empty 17 7 0 10 -262144 -1 -1 0
1;
#X text 374 213 pins on ARDUINo;
#X floatatom 295 60 5 0 0 0 - - -, f 5;
#X obj 43 52 metro 20;
#X obj 549 231 tabwrite led_levelss;
#X floatatom 549 198 5 0 0 0 - - -, f 5;
#X obj 666 125 int;
#X obj 706 127 + 1;
#X floatatom 690 216 5 0 0 0 - - -, f 5;
#X obj 526 79 bng 15 250 50 0 empty empty empty 17 7 0 10 -262144 -1
-1;
#X obj 666 167 * 3;
#X obj 666 147 % 8;
#X text 636 214 index;
#X text 551 215 led level;
#X obj 526 40 tgl 15 0 empty empty empty 17 7 0 10 -262144 -1 -1 0
1;
#X obj 526 59 metro 10;
#X obj 666 192 + 1;
#X floatatom 698 173 5 0 0 0 - - -, f 5;
#X msg 328 545 open 1;
#X obj 138 624 cyclone/switch;
#X obj 47 546 cyclone/switch;
#X msg 295 76 \; led_levelss const \$1 \; update_leds bang;
#X obj 63 73 r update_leds;
#X obj 526 100 t b b b;
#X obj 526 139 s update_leds;
#X obj 185 595 comport 1 115200;
#X connect 0 0 1 0;
#X connect 1 0 2 0;
#X connect 1 0 31 0;
#X connect 2 0 1 1;
#X connect 3 0 1 1;
#X connect 4 0 7 0;
#X connect 5 0 41 0;
#X connect 5 1 3 0;
#X connect 6 0 24 0;
#X connect 7 0 5 0;
#X connect 7 1 26 0;
#X connect 9 0 83 1;
#X connect 9 0 88 0;
#X connect 15 0 0 0;
#X connect 17 0 18 0;
#X connect 18 0 45 0;
#X connect 19 0 20 0;
#X connect 20 0 44 0;
#X connect 21 0 22 0;
#X connect 22 0 43 0;
#X connect 24 0 30 0;
#X connect 26 0 11 0;
#X connect 28 0 29 0;
#X connect 29 0 42 0;
#X connect 30 0 10 0;
#X connect 31 0 28 0;
#X connect 31 1 21 0;
#X connect 31 2 19 0;
#X connect 31 3 17 0;
#X connect 32 0 33 0;
#X connect 33 0 10 0;
#X connect 34 0 35 0;
#X connect 35 0 10 0;
#X connect 36 0 37 0;
#X connect 37 0 10 0;
#X connect 40 0 66 0;
#X connect 41 0 15 0;
#X connect 42 0 6 0;
#X connect 43 0 32 0;
#X connect 44 0 34 0;
#X connect 45 0 36 0;
#X connect 46 0 88 0;
#X connect 47 0 88 0;
#X connect 49 0 83 0;
#X connect 52 0 58 0;
#X connect 53 0 58 0;
#X connect 58 0 59 0;
#X connect 59 0 61 0;
#X connect 63 0 82 0;
#X connect 65 0 84 0;
#X connect 66 0 4 0;
#X connect 68 0 67 0;
#X connect 69 0 70 0;
#X connect 69 0 74 0;
#X connect 70 0 69 1;
#X connect 72 0 86 0;
#X connect 73 0 79 0;
#X connect 74 0 73 0;
#X connect 77 0 78 0;
#X connect 78 0 72 0;
#X connect 79 0 67 1;
#X connect 79 0 71 0;
#X connect 80 0 79 1;
#X connect 81 0 88 0;
#X connect 82 0 52 0;
#X connect 83 0 57 0;
#X connect 85 0 4 0;
#X connect 86 0 87 0;
#X connect 86 1 68 0;
#X connect 86 2 69 0;
#X connect 88 0 82 1;
