#N canvas 931 390 159 40 10;
#N canvas 2194 1081 929 778 LDRtoCOLORsensor 1;
#X text -527 -2896 BEZ FILTRA;
#X obj 109 -3011 r ldrASlist;
#X obj 109 -2990 listfunnel;
#X floatatom 166 -2923 5 0 0 0 - - -;
#X floatatom 204 -2923 5 0 0 0 - - -;
#X floatatom 243 -2924 5 0 0 0 - - -;
#X obj 109 -2969 route 2 26 31;
#X obj -66 -2978 r ldrASlist;
#X obj -66 -2957 listfunnel;
#X floatatom -75 -2915 5 0 0 0 - - -;
#X floatatom -39 -2916 5 0 0 0 - - -;
#X floatatom 0 -2916 5 0 0 0 - - -;
#X text -69 -2897 built in leds;
#X text -566 -2841 new NEOPIXEL leds;
#X text -414 -2896 RED: 39 42 39;
#X text -427 -2884 GREEN: 88 88 87;
#X text -421 -2873 BLUE: 173 \, 171 \, 172;
#X text -538 -2876 BUILT-IN LEDS;
#X obj 93 -2895 zl group 100;
#X obj 42 -2870 vmin;
#X obj 92 -2870 t l l;
#X obj 174 -2868 vmax;
#X text -419 -2840 GRN:147-164 125-145 125-140;
#X text -424 -2854 RED: 62-66 58-63 53-58;
#X text 8 -2787 get hi and low val of sensor reading;
#X text -414 -2826 B: 280-350 250-330 259-320;
#X text -474 -2975 red 564-580;
#X text -487 -2963 green 534-545;
#X text -479 -2952 blue;
#X text -446 -2952 420-440;
#X text -354 -2989 wiki says;
#X text -356 -2974 red led: 610-760nm;
#X text -355 -2963 green led:500-570nm;
#X text -356 -2950 blue led:450-500nm;
#X text -218 -2974 red 700;
#X text -217 -2963 green 530;
#X text -218 -2950 blue 470;
#N canvas 666 358 943 197 filtrBLUEzsiatki 0;
#X text -635 -1487 BLUE: 237 \, 208 \, 220;
#X text -614 -1512 RED: 97 89 91;
#X text -635 -1498 GREEN: 153 137 147;
#X text -634 -1567 GREEN: 111 112 113;
#X text -625 -1553 BLUE: 192 191 193;
#X text -609 -1580 RED: 56 64 59;
#X text -384 -1577 RED: 203 212 234;
#X text -397 -1563 GREEN: 228 214 240;
#X text -391 -1549 BLUE: 262 \, 256 270;
#X text -482 -1591 ROZNICA;
#X text -481 -1528 ROZNICA;
#X text -224 -1589 ROZNICA;
#X text -484 -1578 17 25 20;
#X text -484 -1565 23 24 26;
#X text -484 -1552 19 20 21;
#X text -484 -1515 58 47 52;
#X text -484 -1501 65 49 60;
#X text -484 -1486 64 37 49;
#X text -236 -1576 164 170 195;
#X text -236 -1563 140 126 153;
#X text -228 -1550 89 85 98;
#X text -597 -1600 1warstwa;
#X text -600 -1529 2warstwy;
#X text -370 -1596 4warstwy;
#X text -222 -1526 ROZNICA;
#X text -357 -1532 8warst;
#X text -527 -1625 FILTR z siatki foliowej niebieskiej;
#X text 10 -1590 ROZNICA;
#X text -109 -1593 16 warstw;
#X text -271 -1624 super \, bo niebieskiemu najmniej sie zmienia natezenie
jasnosci jak jest niebieski filter!!!!;
#X text -143 -1577 RED: 1022 1023 1023;
#X text -155 -1564 GREEN: 843 791 830;
#X text -147 -1550 BLUE: 615 580 610;
#X text -2 -1577 984 981 984;
#X text -2 -1564 755 703 743;
#X text -1 -1551 442 409 438;
#X text -389 -1514 RED: 750 722 778;
#X text -402 -1500 GREEN: 460 400 457;
#X text -396 -1486 BLUE: 376 351 377;
#X text -234 -1513 711 680 739;
#X text -234 -1500 372 312 370;
#X text -235 -1487 203 180 205;
#X text -147 -1532 nowe wyniki jeszcze lepsze \; -) !!!-sprawdzilem
tylko na 8 i 16 warst \, reszta chyba ok;
#X restore -108 -3038 pd filtrBLUEzsiatki;
#N canvas 90 51 972 303 filtryODtoszi 0;
#X text -370 -1447 FILTRAMI TOSZI:;
#X text -480 -1429 ROZNICA;
#X text -609 -1431 DARKBLUE 1;
#X text -210 -1429 ROZNICA;
#X text -339 -1431 DARKBLUE 2;
#X text -483 -1353 ROZNICA;
#X text -198 -1358 ROZNICA;
#X text -612 -1355 DARKGREEN 1;
#X text -362 -1359 DARKGREEN 2;
#X text -362 -1417 RED: 1022 1023 1023;
#X text -376 -1404 GREEN: 1020 1020 1021;
#X text -359 -1392 BLUE: 886 845 890;
#X text -212 -1416 984 981 984;
#X text -212 -1403 932 932 933;
#X text -212 -1390 713 674 718;
#X text -51 -1410 nowe wyniki lepsze;
#X text -627 -1417 RED: 961 956 956;
#X text -641 -1403 GREEN: 955 921 948;
#X text -633 -1389 BLUE: 536 497 533;
#X text -57 -1396 darkblue-1 leyer enough!;
#X text -482 -1416 922 914 917;
#X text -482 -1403 867 833 861;
#X text -483 -1390 363 326 361;
#X text -629 -1343 RED: 992 989 997;
#X text -643 -1329 GREEN: 259 234 257;
#X text -636 -1315 BLUE: 880 830 878;
#X text -485 -1340 953 947 958;
#X text -485 -1327 171 146 170;
#X text -485 -1314 707 659 706;
#X text -38 -1344 nowe wyniki lepsze;
#X text -382 -1345 RED: 1022 1023 1023;
#X text -385 -1331 GREEN: 517 455 510;
#X text -378 -1317 BLUE: 990 975 991;
#X text -210 -1345 984 981 984;
#X text -210 -1332 429 367 422;
#X text -209 -1318 817 804 819;
#X text -50 -1330 darkgreen- works great;
#X text -65 -1316 1 layer actually better then 2;
#X text -481 -1277 ROZNICA;
#X text -217 -1283 ROZNICA;
#X text -621 -1280 ORANGE 1;
#X text -361 -1284 ORANGE 2;
#X text -638 -1268 RED: 42 45 42;
#X text -652 -1254 GREEN: 139 133 138;
#X text -645 -1240 BLUE: 412 384 412;
#X text -479 -1265 3 3 3;
#X text -489 -1254 51 45 51;
#X text -498 -1243 239 213 240;
#X text -381 -1270 RED: 46 48 46;
#X text -384 -1256 GREEN: 209 197 208;
#X text -377 -1242 BLUE: 690 628 698;
#X text -213 -1272 7 6 7;
#X text -229 -1257 121 109 122;
#X text -228 -1243 517 457 526;
#X text -98 -1286 orange-works ok \, 1 and 2 layers \,;
#X text -79 -1270 but find better match;
#X text -494 -1211 ROZNICA;
#X text -252 -1218 ROZNICA;
#X text -616 -1213 lightBLUE 1;
#X text -384 -1216 lightBLUE 2;
#X text -633 -1201 RED: 92 93 91;
#X text -647 -1187 GREEN: 167 153 163;
#X text -640 -1173 BLUE: 224 218 225;
#X text -500 -1200 53 51 52;
#X text -502 -1188 79 65 76;
#X text -499 -1175 51 47 53;
#X text 62 -1210 1 leyer almost works;
#X text 61 -1223 lightBLUE ok \, but can be better;
#X text -401 -1203 RED: 218 202 204;
#X text -415 -1190 GREEN: 292 251 274;
#X text -408 -1176 BLUE: 288 274 283;
#X text -265 -1207 179 160 165;
#X text -264 -1192 204 163 187;
#X text -263 -1178 115 103 111;
#X text 63 -1197 2 layers - better;
#X text -19 -1221 ROZNICA;
#X text -141 -1219 lightBLUE 4;
#X text -158 -1206 RED: 752 700 736;
#X text -172 -1193 GREEN: 617 536 596;
#X text -165 -1179 BLUE: 440 418 438;
#X text -32 -1210 713 658 697;
#X text -31 -1195 529 448 509;
#X text -30 -1181 267 247 266;
#X text 63 -1184 4leyers also better;
#X restore -86 -3013 pd filtryODtoszi;
#N canvas 115 150 494 793 notki 0;
#X text -1064 -13063 do testow kolorow-filtrow najbardziej nadaje sie:5
\, 29 \, 32 - maja najbardziej zblizone wartosci na wszystkich kolorach
;
#X text -1061 -12979 MOZNA TAK NA PRAWDE NA OKO POWIEDZIEC CZY FILTR
BEDZIE DZIALAL UZYWAJAC TEJ MMETODY:;
#X text -1057 -12946 Jak sie patrzy na leda przez mocny filtr to widac
czy dany kolor przechodzi czy nie - na przyklad przy siatce niebieskiej
i 16 warstwach kolor niebieski wyraznie przeswituje i kolor zielony
tez \, ale czerwonego nie widac;
#X text -1066 -13035 licze 4 rzedy po 8 od lewej do prawej - od 1 do
8;
#X text -1064 -13022 w PD numery LDRs to 3 \, 27 i 32 (tak pokazujue
glowny pacz);
#X text -1061 -13006 ale my musimy odjac od tego wiec tak naprwde:
;
#X text -1067 -13116 WNIOSEK - BEDZIE DZIALAC TYLKO TRZA IDEALNIE KOLOR
DOPASOWAC i druga sprawa - jak przylepic / przyczepic filter do sensora?
a moze farbe jakas pomalowac?;
#X text -1054 -12867 IM NIZSZA WARTOSC TYM JASNIEJ - CZYLI WIECEJ DANEGO
KOLORU PRZECHODZI;
#X text -1055 -12803 COS mi to sie nie zgadzalo bo bardzo rozne wartosci
pokazywalo \, no i okazalo sie ze fitler blokuje tak dobrze ze poprostu
sosiedni sensor zczytywal jasniejszy - PATRZ CZY NUMER SENSORA SIE
ZGADZA;
#X text -1055 -12833 PATRZ CZY NUMER SENSORA SIE ZGADZA \, bo moze
to to sasiad zczytuje jak filter jest bardzo dobry!!!;
#X text -1049 -12731 TE filtry co kupilem to aja pelno jakichs opcji
wykozaczonych \, diffusersy sa \, itp \, mozna by he na dul lightholderow
przyczepic? ale po co?;
#X text -1050 -12677 sa tez takie co zmieniaja kolory \, albo robia
frost \, albo zmniejszaja kolor o jeden step...;
#X text -1049 -12646 The speed of light is defined exactly as 299 \,
792 \, 458 m/s. A photon of red-orange light from a HeNe laser has
a wavelength of 632.8 nm. Using the equation gives a frequency of 4.738X1014
Hz or about 474 trillion cycle per second.;
#X text -1050 -12538 LDRvalues z WBUDOWANYMIledami skaka o jakies 2
stopnie(b);
#X text -1051 -12523 LDR values z NEOPIXELAMI skaka o newet 80(blue)
\, 5(r) 20(g);
#X text -1051 -12507 LDR values z filtrem wartosci mniej skacza;
#X restore -587 -2977 pd notki;
#X text -426 -2749 ja wybieram te ktore maja jedne pik w spktrum \,
czyli najczystsze kolory \, - RGB \, nie mieszane (pink itp) pozna
to sprawdzic na wykresie;
#X obj -65 -2937 route 7 12 15;
#X obj 92 -2930 switch 3;
#X floatatom 92 -3035 5 0 0 0 - - -;
#X text -554 -2809 NEOPIXEL 12.06;
#X text -430 -2810 RED: 49-54 53-60 51-56;
#X text -426 -2784 GRN:117-134 115-135 120-135;
#X text -417 -2797 B: 259-320 230-300 250-310;
#X text -581 -2630 robie z jednym bo roznice male i czasu szkoda;
#X obj 2 -2843 - 49;
#X obj 136 -2840 - 54;
#X obj 42 -2843 - 117;
#X obj 174 -2839 - 134;
#X obj 85 -2843 - 256;
#X obj 218 -2839 - 320;
#X floatatom 2 -2806 5 0 0 0 - - -;
#X floatatom 42 -2806 5 0 0 0 - - -;
#X floatatom 85 -2808 5 0 0 0 - - -;
#X floatatom 136 -2805 5 0 0 0 - - -;
#X floatatom 174 -2805 5 0 0 0 - - -;
#X floatatom 218 -2807 5 0 0 0 - - -;
#X text 12 -2825 R;
#X text 50 -2826 G;
#X text 102 -2826 B;
#X text 153 -2822 R;
#X text 183 -2822 G;
#X text 222 -2823 B;
#X text -426 -2711 podzielilem na kilka grup: 1-slabe \,;
#X text -426 -2697 2 mniejszy pik ~ 450/550 i wiekszy powyzej700 \,
;
#X text -427 -2683 3- 1 pik ok400/500 drugi pow 800 \,;
#X text -427 -2671 4 2 rowne piki 450/550 i pow 800;
#X text -425 -2659 5 450/550 pik wiekszy;
#X text 258 -2806 ROZNICA;
#X floatatom -38 -2846 5 0 0 0 - - -;
#X floatatom 263 -2837 5 0 0 0 - - -;
#N canvas 2020 22 546 695 blueBESTfilters 1;
#X text 308 -1743 ROZNICA;
#X text 36 -1715 Berry Blue-721;
#X text 42 -1697 z grupy 3;
#X text 170 -1700 GRN:641-670;
#X text 176 -1685 B: 409-480;
#X text 321 -1715 665;
#X text 321 -1701 540;
#X text 36 -1287 moonlight b 183;
#X text 41 -1272 z grupy 4;
#X text 181 -1259 B: 344-415 (380);
#X text 175 -1272 GRN:303-333 (325);
#X text 324 -1287 830;
#X text 313 -1273 180-200;
#X text 311 -1260 88-95-120;
#X text 299 -1686 90-160-220;
#X text 33 -1235 bright blue-141;
#X text 49 -1212 group 5;
#X text 316 -1237 855;
#X text 167 -1222 GRN:305-335 (320);
#X text 305 -1223 188-200;
#X text 303 -1210 85-95-159;
#X text 54 -1634 group 5;
#X text 38 -1657 qfd blue-727;
#X text 321 -1645 449;
#X text 172 -1645 GRN:548-583 (0);
#X text 179 -1632 B: 522-589;
#X text 321 -1632 269;
#X text 321 -1659 967;
#X text 55 -1317 group 5;
#X text 28 -1339 double c.t blue-200;
#X text 174 -1340 RED: 226-232;
#X text 180 -1328 GRN:379-409;
#X text 188 -1317 B: 359-432;
#X text 310 -1316 100-112;
#X text 311 -1328 262-275;
#X text 312 -1342 176-178;
#X text 275 -1788 BLUE FILTERS;
#X text 179 -1209 B:344-415 (380);
#X text 168 -1235 RED:908;
#X text 176 -1285 RED:882;
#X text 168 -1714 RED:724-726;
#X text 171 -1657 RED:1022;
#X text 387 -1652 BLUE WINS by r700/ g180;
#X text 384 -1706 BLUE WINS by r445 g 320;
#X text 384 -1278 BLUE WINS by r710 g60;
#X text 389 -1226 BLUE WINS by r700/ g22;
#X text 375 -1318 BLUE WINS by r64 / g160;
#X restore -574 -2690 pd blueBESTfilters;
#N canvas 565 84 655 453 best_red_filters 0;
#X text -494 -2067 NEOPIXEL 12.06;
#X text -380 -2065 RED: 49-54 53-60 51-56;
#X text -263 -2009 ROZNICA;
#X text -451 -2093 robie z jednym bo roznice male i czasu szkoda;
#X text -510 -2029 RED FILTERS;
#X text -508 -1859 FLAME RED 164;
#X text -368 -1850 B: 906-918;
#X text -253 -1851 600-650;
#X text -382 -1864 GRN:620-629;
#X text -253 -1864 493-503;
#X text -381 -1878 RED: 63-67;
#X text -252 -1878 13;
#X text -501 -1922 blood red 789;
#X text -378 -1938 RED: 243-249;
#X text -379 -1925 GRN:995;
#X text -250 -1926 870;
#X text -378 -1912 B: 1020;
#X text -251 -1939 195;
#X text -250 -1912 700;
#X text -505 -1977 magenta 113;
#X text -375 -1991 RED: 65;
#X text -252 -1991 13;
#X text -376 -1978 GRN: 822;
#X text -252 -1977 700;
#X text -375 -1964 B: 819-840;
#X text -252 -1963 520-560;
#X text -508 -1801 marius red-787;
#X text -383 -1802 RED: 420;
#X text -255 -1803 365;
#X text -384 -1788 GRN: 1001;
#X text -255 -1790 880;
#X text -383 -1775 B: 1015;
#X text -256 -1776 700-750;
#X text -184 -1864 RED WINS by 480 / 587;
#X text -193 -1979 red WINS by 687/507;
#X text -197 -1924 RED WINS by 675 / 505;
#X text -191 -1791 red WINS 515/335;
#X restore -575 -2745 pd best_red_filters;
#N canvas 1896 22 668 631 GREEN_filters 0;
#X text -220 -2410 ROZNICA;
#X text -390 -2318 B: 819-840;
#X text -226 -2320 520-560;
#X text -575 -2339 DARK YELLO GREEN 90;
#X text -556 -2318 group 3;
#X text -388 -2344 RED: 964;
#X text -209 -2344 910;
#X text -393 -2332 GRN:360-390;
#X text -226 -2333 244-254;
#X text -559 -1832 jade 323;
#X text -387 -1844 RED: 600;
#X text -209 -1846 550;
#X text -392 -1833 GRN: 222-250;
#X text -221 -1835 106-115;
#X text -385 -1819 B: 409-477;
#X text -220 -1820 153-157;
#X text -159 -1833 GREEN WINS- just about;
#X text -566 -1871 SOFTGREEN 322;
#X text -391 -1889 RED: 2493-300;
#X text -206 -1888 244;
#X text -385 -1874 GRN:210-230;
#X text -211 -1875 90-100;
#X text -379 -1859 B: 404-470;
#X text -215 -1862 148-153;
#X text -581 -2387 primary green 139;
#X text -388 -2397 RED: 997;
#X text -210 -2398 943;
#X text -389 -2383 GRN: 360-390;
#X text -220 -2385 244-255;
#X text -383 -2370 B: 930-940;
#X text -219 -2372 618-686;
#X text -572 -1930 lee green 121;
#X text -552 -1909 group4;
#X text -550 -2371 group 3;
#X text -384 -1935 RED: 126;
#X text -211 -1935 73;
#X text -389 -1923 GRN:170-190;
#X text -222 -1924 52-55;
#X text -386 -1909 B:555-606;
#X text -227 -1911 290-300;
#X text -153 -1860 GREEN WINS- just about;
#X text -182 -1924 GREEN WINS- just about;
#X text -552 -1999 group4;
#X text -182 -2014 GREEN WINS- just about;
#X text -572 -2020 jas green 738;
#X text -384 -2025 RED: 170;
#X text -211 -2025 117;
#X text -389 -2013 GRN:190-210;
#X text -210 -2014 70;
#X text -386 -1999 B:722-750;
#X text -227 -2001 430-460;
#X text -558 -2142 group 3;
#X text -577 -2163 MOSS GREEN089;
#X text -390 -2168 RED: 264;
#X text -211 -2168 214;
#X text -395 -2156 GRN:217-240;
#X text -228 -2157 100-106;
#X text -392 -2142 B: 650-700;
#X text -228 -2144 375-400;
#X text -555 -2271 group 4;
#X text -387 -2297 RED: 1022;
#X text -208 -2297 970;
#X text -574 -2292 velvet GREEN735;
#X text -392 -2285 GRN:374-415;
#X text -225 -2286 255-280;
#X text -389 -2271 B: 716-755;
#X text -225 -2273 420-460;
#X text -555 -2191 group 4;
#X text -573 -2203 darkgreen124;
#X text -386 -2208 RED: 718;
#X text -207 -2208 665;
#X text -391 -2196 GRN:3240-270;
#X text -224 -2197 122-133;
#X text -388 -2182 B: 620-670;
#X text -224 -2184 335-370;
#X text -387 -1950 RED: 126;
#X text -214 -1950 73;
#X text -555 -1964 group4;
#X text -185 -1979 GREEN WINS- just about;
#X text -575 -1985 fern green122;
#X text -387 -1990 RED: 180;
#X text -214 -1990 127;
#X text -392 -1978 GRN:180-200;
#X text -224 -1979 63-66;
#X text -389 -1964 B:530-590;
#X text -230 -1966 250-275;
#X text -543 -2224 group 3;
#X text -574 -2242 TWICKENHAM green 736;
#X text -386 -2244 RED: 1020;
#X text -207 -2244 970;
#X text -391 -2232 GRN:450-477;
#X text -224 -2233 330-345;
#X text -388 -2218 B: 966-971;
#X text -224 -2220 650-712;
#X text -148 -2386 GREEN WINS by r688/700 b374/431;
#X text -151 -2332 GREEN WINS by r666/656 276/305;
#X text -150 -2284 GREEN WINS by r 715/740 b180;
#X text -149 -2196 GREEN WINS by r530 b230;
#X text -148 -2159 GREEN WINS by r107 b275;
#X text -146 -2232 GREEN WINS by r625 b260;
#X text -564 -2417 GRN FILTERS;
#X restore -575 -2718 pd GREEN_filters;
#X text -249 -2629 ROZNICA;
#X text -479 -2599 magenta 113;
#X text -371 -2613 RED: 65;
#X text -248 -2613 13;
#X text -372 -2600 GRN: 822;
#X text -248 -2599 700;
#X text -371 -2586 B: 819-840;
#X text -248 -2585 520-560;
#X text -180 -2602 red WINS by 687/507;
#X text -551 -2601 RED;
#X text -538 -2527 primary green 139;
#X text -402 -2527 RED: 997;
#X text -308 -2528 943;
#X text -403 -2513 GRN: 360-390;
#X text -308 -2515 244-255;
#X text -402 -2500 B: 930-940;
#X text -307 -2502 618-686;
#X text -481 -2509 group 3;
#X text -244 -2519 GREEN WINS by r688/700 b374/431;
#X text -516 -2394 Berry Blue-721;
#X text -485 -2378 z grupy 3;
#X text -407 -2380 GRN:641-670;
#X text -406 -2365 B: 409-480;
#X text -305 -2395 665;
#X text -305 -2381 540;
#X text -305 -2366 90-160-220;
#X text -406 -2394 RED:724-726;
#X text -242 -2397 BLUE WINS by r445 g 320;
#X text -561 -2526 GRN;
#X text -552 -2393 BLUE;
#X text -494 -3004 IM NIZSZA VAL TYM JASNIEJ-CZYLI WIECEJ DANEGO KOLORU
PRZECHODZI;
#N canvas 932 225 781 375 3LDR_to_COLOR_sensor_Faster 0;
#X obj -17 -2989 r ldrASlist;
#X obj -17 -2965 listfunnel;
#X floatatom -162 -2921 5 0 0 0 - - -;
#X obj -17 -2941 route 2 26 31;
#X obj -120 -2921 - 54;
#X floatatom -120 -2857 5 0 0 0 - - -;
#X text -178 -2924 R;
#X obj 12 -2921 - 134;
#X floatatom 12 -2857 5 0 0 0 - - -;
#X text -6 -2922 G;
#X text -47 -2858 ROZNICA;
#X floatatom 43 -2921 5 0 0 0 - - -;
#X obj 133 -2921 - 320;
#X floatatom 133 -2857 5 0 0 0 - - -;
#X text 223 -2922 B;
#X text -180 -2856 ROZNICA;
#X text -206 -2899 sensor 1 R filt;
#X text -25 -2902 sensor 2 G filt;
#X text 124 -2900 sensor 3 B filt;
#X text 131 -2835 tam gdzie najmniejsza roznica miedzy filtrowanym
a niefiltrowanym value to ten kolor rozpoznajemy;
#X text 185 -2864 to kolor tego sensora;
#X msg 136 -2691 blue_detected;
#X msg 22 -2692 green_detected;
#X msg -81 -2691 RED_detected;
#X obj 2 -2750 change;
#X obj 22 -2657 outlet;
#X text 69 -2967 3 ldrs \, each with different filter;
#X text 75 -2857 ROZNICA;
#X obj -23 -2799 vmin;
#X obj -23 -2821 pack f f f;
#X floatatom -59 -2774 5 0 0 0 - - -;
#X floatatom 2 -2773 5 0 0 0 - - -;
#X floatatom 174 -2921 5 0 0 0 - - -;
#X text 185 -2877 najmniejsza roznica;
#X text 185 -2852 rozponany;
#X obj 2 -2725 sel 1 2 3;
#X connect 0 0 1 0;
#X connect 1 0 3 0;
#X connect 3 0 2 0;
#X connect 3 0 4 0;
#X connect 3 1 7 0;
#X connect 3 1 11 0;
#X connect 3 2 12 0;
#X connect 3 2 32 0;
#X connect 4 0 5 0;
#X connect 4 0 29 0;
#X connect 7 0 8 0;
#X connect 7 0 29 1;
#X connect 12 0 13 0;
#X connect 12 0 29 2;
#X connect 21 0 25 0;
#X connect 22 0 25 0;
#X connect 23 0 25 0;
#X connect 24 0 35 0;
#X connect 28 0 30 0;
#X connect 28 1 31 0;
#X connect 29 0 28 0;
#X connect 31 0 24 0;
#X connect 35 0 23 0;
#X connect 35 1 22 0;
#X connect 35 2 21 0;
#X restore -584 -3037 pd 3LDR_to_COLOR_sensor_Faster;
#X obj -584 -3007 print fast;
#N canvas 932 225 743 633 3LDR_to_COLOR_sensor_first_slow 0;
#X obj -30 -2988 r ldrASlist;
#X obj -30 -2967 listfunnel;
#X floatatom -121 -2921 5 0 0 0 - - -;
#X obj -30 -2941 route 2 26 31;
#X obj -204 -2876 vmax;
#X obj -204 -2780 - 54;
#X floatatom -193 -2736 5 0 0 0 - - -;
#X text -229 -2876 R;
#X obj -1 -2854 vmax;
#X obj -1 -2780 - 134;
#X floatatom 5 -2734 5 0 0 0 - - -;
#X text 91 -2879 G;
#X text -51 -2733 ROZNICA;
#X floatatom 11 -2921 5 0 0 0 - - -;
#X obj 352 -2877 vmin;
#X obj 164 -2897 t l l;
#X obj 196 -2874 vmax;
#X obj 352 -2855 - 256;
#X obj 196 -2780 - 320;
#X floatatom 352 -2831 5 0 0 0 - - -;
#X floatatom 221 -2735 5 0 0 0 - - -;
#X text 179 -2780 B;
#X text -262 -2735 ROZNICA;
#X floatatom 237 -2854 5 0 0 0 - - -;
#X floatatom 248 -2921 5 0 0 0 - - -;
#X text -246 -2899 sensor 1 R filt;
#X text -25 -2902 sensor 2 G filt;
#X text 212 -2898 sensor 3 B filt;
#X floatatom 310 -2855 5 0 0 0 - - -;
#X obj 228 -2681 <;
#X obj 228 -2631 tgl 15 0 empty empty empty 17 7 0 10 -262144 -1 -1
0 1;
#X obj 178 -2679 <;
#X obj 177 -2631 tgl 15 0 empty empty empty 17 7 0 10 -262144 -1 -1
0 1;
#X text -143 -2477 tam gdzie najmniejsza roznica miedzy filtrowanym
a niefiltrowanym value to ten kolor rozpoznajemy;
#X obj 196 -2704 t f f;
#X obj 177 -2579 &&;
#X obj 177 -2542 tgl 15 0 empty empty empty 17 7 0 10 -262144 -1 -1
0 1;
#X text 294 -2704 jesli ta roznica jest;
#X text 296 -2690 jest najmniejsza;
#X text 297 -2676 to kolor tego sensora;
#X text 296 -2661 jest rozponany;
#X msg 177 -2498 blue_detected;
#X obj 178 -2655 change;
#X obj 49 -2686 <;
#X obj 49 -2636 tgl 15 0 empty empty empty 17 7 0 10 -262144 -1 -1
0 1;
#X obj -1 -2684 <;
#X obj -1 -2707 t f f;
#X obj 0 -2584 &&;
#X obj 0 -2547 tgl 15 0 empty empty empty 17 7 0 10 -262144 -1 -1 0
1;
#X obj -1 -2660 change;
#X msg 0 -2499 green_detected;
#X obj 0 -2637 tgl 15 0 empty empty empty 17 7 0 10 -262144 -1 -1 0
1;
#X obj 164 -2921 zl group 10;
#X obj -154 -2678 <;
#X obj -154 -2628 tgl 15 0 empty empty empty 17 7 0 10 -262144 -1 -1
0 1;
#X obj -204 -2676 <;
#X obj -204 -2703 t f f;
#X obj -204 -2576 &&;
#X obj -204 -2549 tgl 15 0 empty empty empty 17 7 0 10 -262144 -1 -1
0 1;
#X obj -204 -2652 change;
#X obj -204 -2629 tgl 15 0 empty empty empty 17 7 0 10 -262144 -1 -1
0 1;
#X msg -204 -2505 RED_detected;
#X obj 228 -2656 change;
#X obj 50 -2660 change;
#X obj -151 -2652 change;
#X obj -204 -2528 sel 1;
#X obj 0 -2524 sel 1;
#X obj 177 -2523 sel 1;
#X obj 228 -2612 t b f;
#X obj 49 -2618 t b f;
#X obj -153 -2610 t b f;
#X obj 0 -2401 outlet;
#X text 76 -2973 3 ldrs \, each with different filter;
#X text 162 -2737 ROZNICA;
#X obj -1 -2878 zl group 10;
#X obj -204 -2921 zl group 10;
#X connect 0 0 1 0;
#X connect 1 0 3 0;
#X connect 3 0 2 0;
#X connect 3 0 75 0;
#X connect 3 1 13 0;
#X connect 3 1 74 0;
#X connect 3 2 52 0;
#X connect 4 0 5 0;
#X connect 5 0 6 0;
#X connect 5 0 31 1;
#X connect 5 0 45 1;
#X connect 5 0 56 0;
#X connect 8 0 9 0;
#X connect 9 0 10 0;
#X connect 9 0 29 1;
#X connect 9 0 46 0;
#X connect 9 0 55 1;
#X connect 14 0 17 0;
#X connect 14 0 28 0;
#X connect 15 0 14 0;
#X connect 15 1 16 0;
#X connect 16 0 18 0;
#X connect 16 0 23 0;
#X connect 17 0 19 0;
#X connect 18 0 20 0;
#X connect 18 0 34 0;
#X connect 18 0 43 1;
#X connect 18 0 53 1;
#X connect 29 0 62 0;
#X connect 30 0 68 0;
#X connect 31 0 42 0;
#X connect 32 0 35 0;
#X connect 34 0 31 0;
#X connect 34 1 29 0;
#X connect 35 0 36 0;
#X connect 36 0 67 0;
#X connect 41 0 71 0;
#X connect 42 0 32 0;
#X connect 43 0 63 0;
#X connect 44 0 69 0;
#X connect 45 0 49 0;
#X connect 46 0 45 0;
#X connect 46 1 43 0;
#X connect 47 0 48 0;
#X connect 48 0 66 0;
#X connect 49 0 51 0;
#X connect 50 0 71 0;
#X connect 51 0 47 0;
#X connect 52 0 15 0;
#X connect 53 0 64 0;
#X connect 54 0 70 0;
#X connect 55 0 59 0;
#X connect 56 0 55 0;
#X connect 56 1 53 0;
#X connect 57 0 58 0;
#X connect 58 0 65 0;
#X connect 59 0 60 0;
#X connect 60 0 57 0;
#X connect 61 0 71 0;
#X connect 62 0 30 0;
#X connect 63 0 44 0;
#X connect 64 0 54 0;
#X connect 65 0 61 0;
#X connect 66 0 50 0;
#X connect 67 0 41 0;
#X connect 68 0 35 0;
#X connect 68 1 35 1;
#X connect 69 0 47 0;
#X connect 69 1 47 1;
#X connect 70 0 57 0;
#X connect 70 1 57 1;
#X connect 74 0 8 0;
#X connect 75 0 4 0;
#X restore -360 -3037 pd 3LDR_to_COLOR_sensor_first_slow;
#X text -46 -2432 patrzac na wykresy niebieskich na stronie majlepiej
miec cienki peak w niebieskim ktory spada stromo przy 500 i przy 550
nie ma go juz prawie a na 500 jest malutko;
#X text -47 -2396 other blue to check out from the website: 716 mikkel
blue? deep blue 120? special medium blue 363! 119 dark blue? 722 bray
blue? 132 medium blue? 118 light blue? 172 lagoon? special stewel blue
354? scuba blue 729?;
#X text -45 -2471 green to check: 740 aurora borealis green?;
#X text -46 -2520 patrzac na wykresy green to ten co wygral mial peak
dokladnie w polowie miedzy 500-550 \, ponizej 500 i powyzej 550 prawie
nic nie ma \, a inne kolorki co przegraly z ni mialy;
#X text -41 -2580 red to check? do we need? 182 light red \, 19 fire?
;
#X connect 1 0 2 0;
#X connect 2 0 6 0;
#X connect 6 0 3 0;
#X connect 6 0 42 1;
#X connect 6 1 4 0;
#X connect 6 1 42 2;
#X connect 6 2 5 0;
#X connect 6 2 42 3;
#X connect 7 0 8 0;
#X connect 8 0 41 0;
#X connect 18 0 20 0;
#X connect 19 0 49 0;
#X connect 19 0 51 0;
#X connect 19 0 53 0;
#X connect 19 0 73 0;
#X connect 20 0 19 0;
#X connect 20 1 21 0;
#X connect 21 0 50 0;
#X connect 21 0 52 0;
#X connect 21 0 54 0;
#X connect 21 0 74 0;
#X connect 41 0 9 0;
#X connect 41 1 10 0;
#X connect 41 2 11 0;
#X connect 42 0 18 0;
#X connect 43 0 42 0;
#X connect 49 0 55 0;
#X connect 50 0 58 0;
#X connect 51 0 56 0;
#X connect 52 0 59 0;
#X connect 53 0 57 0;
#X connect 54 0 60 0;
#X connect 109 0 110 0;
#X restore -2332 -2099 pd LDRtoCOLORsensor;
