#N canvas 337 158 724 501 10;
#X floatatom 369 327 0 0 0 0 - - -;
#N canvas 0 0 450 300 crusha 0;
#X obj 250 124 samphold~;
#X obj 300 98 phasor~;
#X obj 300 77 sig~;
#X obj 257 177 outlet~;
#X obj 235 54 inlet~;
#X obj 301 51 inlet;
#X connect 0 0 3 0;
#X connect 1 0 0 1;
#X connect 2 0 1 0;
#X connect 4 0 0 0;
#X connect 5 0 2 0;
#X restore 307 332 pd crusha;
#X obj 86 -30 vsl 20 30 0 1 0 0 empty empty empty 0 -9 0 10 -261682
-1 -1 1900 1;
#X obj 40 411 print;
#N canvas 0 0 450 300 mpack 0;
#X obj 159 41 inlet;
#X obj 166 116 outlet;
#X floatatom 182 66 5 0 0 0 - - -;
#X msg 152 70 0;
#X obj 168 91 pack 0 0 f;
#X connect 0 0 3 0;
#X connect 0 0 2 0;
#X connect 2 0 4 2;
#X connect 3 0 4 0;
#X connect 4 0 1 0;
#X restore 86 7 pd mpack;
#X obj 238 494 dac~;
#X obj 141 -30 vsl 20 30 0 1 0 0 empty empty empty 0 -9 0 10 -261682
-1 -1 2500 1;
#N canvas 0 0 450 300 mpack2 0;
#X obj 159 41 inlet;
#X obj 166 116 outlet;
#X floatatom 182 66 5 0 0 0 - - -;
#X msg 152 70 0;
#X obj 168 91 pack 0 1 f;
#X connect 0 0 3 0;
#X connect 0 0 2 0;
#X connect 2 0 4 2;
#X connect 3 0 4 0;
#X connect 4 0 1 0;
#X restore 141 7 pd mpack2;
#X obj 201 -30 vsl 20 30 0 1 0 0 empty empty empty 0 -9 0 10 -261682
-1 -1 1200 1;
#N canvas 0 0 450 300 mpack3 0;
#X obj 159 41 inlet;
#X obj 166 116 outlet;
#X floatatom 182 66 5 0 0 0 - - -;
#X msg 152 70 0;
#X obj 168 92 pack 0 2 f;
#X connect 0 0 3 0;
#X connect 0 0 2 0;
#X connect 2 0 4 2;
#X connect 3 0 4 0;
#X connect 4 0 1 0;
#X restore 201 7 pd mpack3;
#X obj 86 30 vsl 20 30 0 1 0 0 empty empty empty 0 -9 0 10 -261682
-1 -1 2100 1;
#X obj 141 30 vsl 20 30 0 1 0 0 empty empty empty 0 -9 0 10 -261682
-1 -1 1100 1;
#X obj 201 30 vsl 20 30 0 1 0 0 empty empty empty 0 -9 0 10 -261682
-1 -1 1600 1;
#N canvas 0 0 450 300 mpack4 0;
#X obj 159 41 inlet;
#X obj 166 116 outlet;
#X floatatom 182 66 5 0 0 0 - - -;
#X obj 168 91 pack 1 0 f;
#X msg 152 70 1;
#X connect 0 0 4 0;
#X connect 0 0 2 0;
#X connect 2 0 3 2;
#X connect 3 0 1 0;
#X connect 4 0 3 0;
#X restore 86 67 pd mpack4;
#N canvas 0 0 450 300 mpack5 0;
#X obj 159 41 inlet;
#X obj 166 116 outlet;
#X floatatom 182 66 5 0 0 0 - - -;
#X obj 168 91 pack 1 1 f;
#X msg 152 68 1;
#X connect 0 0 4 0;
#X connect 0 0 2 0;
#X connect 2 0 3 2;
#X connect 3 0 1 0;
#X connect 4 0 3 0;
#X restore 141 67 pd mpack5;
#N canvas 0 0 450 300 mpack6 0;
#X obj 159 41 inlet;
#X obj 166 116 outlet;
#X floatatom 182 66 5 0 0 0 - - -;
#X obj 168 92 pack 1 2 f;
#X msg 152 70 1;
#X connect 0 0 4 0;
#X connect 0 0 2 0;
#X connect 2 0 3 2;
#X connect 3 0 1 0;
#X connect 4 0 3 0;
#X restore 201 67 pd mpack6;
#X obj 86 90 vsl 20 30 0 1 0 0 empty empty empty 0 -9 0 10 -261682
-1 -1 700 1;
#X obj 141 90 vsl 20 30 0 1 0 0 empty empty empty 0 -9 0 10 -261682
-1 -1 1200 1;
#X obj 201 90 vsl 20 30 0 1 0 0 empty empty empty 0 -9 0 10 -261682
-1 -1 1000 1;
#N canvas 0 0 450 300 mpack7 0;
#X obj 159 41 inlet;
#X obj 166 116 outlet;
#X floatatom 182 66 5 0 0 0 - - -;
#X obj 168 91 pack 2 0 f;
#X msg 152 70 2;
#X connect 0 0 4 0;
#X connect 0 0 2 0;
#X connect 2 0 3 2;
#X connect 3 0 1 0;
#X connect 4 0 3 0;
#X restore 86 127 pd mpack7;
#N canvas 0 0 450 300 mpack8 0;
#X obj 159 41 inlet;
#X obj 166 116 outlet;
#X floatatom 182 66 5 0 0 0 - - -;
#X obj 168 89 pack 2 1 f;
#X msg 152 67 2;
#X connect 0 0 4 0;
#X connect 0 0 2 0;
#X connect 2 0 3 2;
#X connect 3 0 1 0;
#X connect 4 0 3 0;
#X restore 141 127 pd mpack8;
#N canvas 0 0 450 300 mpack9 0;
#X obj 159 41 inlet;
#X obj 166 116 outlet;
#X floatatom 182 66 5 0 0 0 - - -;
#X obj 168 92 pack 2 2 f;
#X msg 152 70 2;
#X connect 0 0 4 0;
#X connect 0 0 2 0;
#X connect 2 0 3 2;
#X connect 3 0 1 0;
#X connect 4 0 3 0;
#X restore 201 127 pd mpack9;
#X obj 28 167 s matmix;
#X obj 142 229 r matmix;
#X obj 40 390 r matmix;
#N canvas 0 0 450 300 bumdelay 0;
#X obj 149 135 *~ 0.5;
#X obj 137 28 inlet~;
#X obj 191 27 inlet;
#X obj 141 171 outlet~;
#X obj 174 110 delread~ bop;
#X obj 172 65 delwrite~ bop 600;
#X connect 0 0 3 0;
#X connect 1 0 0 0;
#X connect 1 0 5 0;
#X connect 2 0 4 0;
#X connect 4 0 0 0;
#X restore 298 310 pd bumdelay;
#X obj 203 186 osc~ 200;
#X obj 254 162 phasor~ 3;
#X floatatom 305 134 5 0 0 0 - - -;
#N canvas 0 0 457 343 choppa 0;
#X obj 130 46 inlet~;
#X obj 123 216 outlet~;
#X obj 231 45 inlet;
#X obj 187 47 loadbang;
#X obj 201 102 metro;
#X floatatom 283 80 5 0 0 0 - - -;
#X obj 192 139 bng 15 250 50 0 empty empty empty 17 7 0 10 -262144
-1 -1;
#X obj 198 75 tgl 15 0 empty empty empty 17 7 0 10 -262144 -1 -1 1
1;
#X obj 125 183 *~;
#X obj 187 170 random 2;
#X connect 0 0 8 0;
#X connect 2 0 4 1;
#X connect 3 0 7 0;
#X connect 4 0 6 0;
#X connect 5 0 4 1;
#X connect 6 0 9 0;
#X connect 7 0 4 0;
#X connect 8 0 1 0;
#X connect 9 0 8 1;
#X restore 177 301 pd choppa;
#X floatatom 229 279 5 0 0 0 - - -;
#X floatatom 363 288 0 0 0 0 - - -;
#X obj 260 86 noise~;
#X obj 213 253 matrix~ 3 3 1;
#X floatatom 303 86 5 0 0 0 - - -;
#X obj 288 109 *~ 0.4;
#X obj 229 454 *~;
#X floatatom 310 431 5 0 0 0 - - -;
#X obj 259 403 *~ 0.3;
#X obj 176 331 s~ bo;
#X obj 209 219 r~ bo;
#X obj 282 353 s~ bo2;
#X obj 279 223 r~ bo2;
#X connect 0 0 1 1;
#X connect 1 0 41 0;
#X connect 2 0 4 0;
#X connect 4 0 22 0;
#X connect 6 0 7 0;
#X connect 7 0 22 0;
#X connect 8 0 9 0;
#X connect 9 0 22 0;
#X connect 10 0 13 0;
#X connect 11 0 14 0;
#X connect 12 0 15 0;
#X connect 13 0 22 0;
#X connect 14 0 22 0;
#X connect 15 0 22 0;
#X connect 16 0 19 0;
#X connect 17 0 20 0;
#X connect 18 0 21 0;
#X connect 19 0 22 0;
#X connect 20 0 22 0;
#X connect 21 0 22 0;
#X connect 23 0 33 0;
#X connect 24 0 3 0;
#X connect 25 0 1 0;
#X connect 27 0 33 1;
#X connect 28 0 27 0;
#X connect 29 0 39 0;
#X connect 30 0 29 1;
#X connect 31 0 25 1;
#X connect 32 0 35 0;
#X connect 33 0 29 0;
#X connect 33 1 38 0;
#X connect 33 2 25 0;
#X connect 34 0 35 1;
#X connect 36 0 5 0;
#X connect 36 0 5 1;
#X connect 37 0 36 1;
#X connect 38 0 36 0;
#X connect 40 0 33 0;
#X connect 42 0 33 2;
