#N canvas 168 96 305 289 10;
#N canvas 5 22 716 259 metrix_out 0;
#X obj -211 -1865 r matrix_pre_send;
#X text -95 -1868 6*6*3=108-tyle message do matrixa ma elementow;
#X obj -211 -1845 zl group 108;
#X obj -211 -1824 list split 18;
#X obj -102 -1807 list split 18;
#X obj 19 -1790 list split 18;
#X obj 126 -1773 list split 18;
#X obj 248 -1756 list split 18;
#X obj -211 -1652 outlet;
#X obj -102 -1652 outlet;
#X obj 18 -1653 outlet;
#X obj 126 -1654 outlet;
#X obj 247 -1655 outlet;
#X obj 362 -1654 outlet;
#X obj -211 -1677 prepend set;
#X text -214 -1632 wysyłki na del pojedynczyh paczy;
#X obj -211 -1694 pack f f f f f f;
#X msg -211 -1722 \$3;
#X msg 18 -1722 \$9;
#X msg -193 -1722 \$3;
#X msg -174 -1722 \$3;
#X msg -156 -1722 \$3;
#X msg -137 -1722 \$3;
#X msg -118 -1722 \$3;
#X obj -102 -1677 prepend set;
#X obj -102 -1694 pack f f f f f f;
#X msg -102 -1721 \$6;
#X msg -84 -1722 \$6;
#X msg -65 -1722 \$6;
#X msg -47 -1722 \$6;
#X msg -28 -1722 \$6;
#X msg -9 -1722 \$6;
#X obj 18 -1678 prepend set;
#X obj 18 -1695 pack f f f f f f;
#X msg 36 -1722 \$9;
#X msg 55 -1722 \$9;
#X msg 73 -1722 \$9;
#X msg 92 -1722 \$9;
#X msg 111 -1722 \$9;
#X obj 126 -1695 pack f f f f f f;
#X obj 247 -1678 prepend set;
#X obj 247 -1695 pack f f f f f f;
#X obj 362 -1678 prepend set;
#X obj 362 -1695 pack f f f f f f;
#X msg 126 -1722 \$12;
#X msg 144 -1722 \$12;
#X msg 163 -1722 \$12;
#X msg 181 -1722 \$12;
#X msg 200 -1722 \$12;
#X msg 219 -1722 \$12;
#X msg 247 -1722 \$15;
#X msg 265 -1722 \$15;
#X msg 284 -1722 \$15;
#X msg 302 -1722 \$15;
#X msg 321 -1722 \$15;
#X msg 340 -1722 \$15;
#X msg 362 -1722 \$18;
#X msg 380 -1722 \$18;
#X msg 399 -1722 \$18;
#X msg 417 -1722 \$18;
#X msg 436 -1722 \$18;
#X msg 455 -1722 \$18;
#X obj 362 -1739 list;
#X obj 248 -1739 list;
#X obj 126 -1739 list;
#X obj 19 -1739 list;
#X obj -102 -1739 list;
#X obj -211 -1739 list;
#X obj 126 -1678 prepend set;
#X connect 0 0 2 0;
#X connect 2 0 3 0;
#X connect 3 0 67 0;
#X connect 3 1 4 0;
#X connect 4 0 66 0;
#X connect 4 1 5 0;
#X connect 5 0 65 0;
#X connect 5 1 6 0;
#X connect 6 0 64 0;
#X connect 6 1 7 0;
#X connect 7 0 63 0;
#X connect 7 1 62 0;
#X connect 14 0 8 0;
#X connect 16 0 14 0;
#X connect 17 0 16 0;
#X connect 18 0 33 0;
#X connect 19 0 16 1;
#X connect 20 0 16 2;
#X connect 21 0 16 3;
#X connect 22 0 16 4;
#X connect 23 0 16 5;
#X connect 24 0 9 0;
#X connect 25 0 24 0;
#X connect 26 0 25 0;
#X connect 27 0 25 1;
#X connect 28 0 25 2;
#X connect 29 0 25 3;
#X connect 30 0 25 4;
#X connect 31 0 25 5;
#X connect 32 0 10 0;
#X connect 33 0 32 0;
#X connect 34 0 33 1;
#X connect 35 0 33 2;
#X connect 36 0 33 3;
#X connect 37 0 33 4;
#X connect 38 0 33 5;
#X connect 39 0 68 0;
#X connect 40 0 12 0;
#X connect 41 0 40 0;
#X connect 42 0 13 0;
#X connect 43 0 42 0;
#X connect 44 0 39 0;
#X connect 45 0 39 1;
#X connect 46 0 39 2;
#X connect 47 0 39 3;
#X connect 48 0 39 4;
#X connect 49 0 39 5;
#X connect 50 0 41 0;
#X connect 51 0 41 1;
#X connect 52 0 41 2;
#X connect 53 0 41 3;
#X connect 54 0 41 4;
#X connect 55 0 41 5;
#X connect 56 0 43 0;
#X connect 57 0 43 1;
#X connect 58 0 43 2;
#X connect 59 0 43 3;
#X connect 60 0 43 4;
#X connect 61 0 43 5;
#X connect 62 0 61 0;
#X connect 62 0 60 0;
#X connect 62 0 59 0;
#X connect 62 0 58 0;
#X connect 62 0 57 0;
#X connect 62 0 56 0;
#X connect 63 0 55 0;
#X connect 63 0 54 0;
#X connect 63 0 53 0;
#X connect 63 0 52 0;
#X connect 63 0 51 0;
#X connect 63 0 50 0;
#X connect 64 0 49 0;
#X connect 64 0 48 0;
#X connect 64 0 47 0;
#X connect 64 0 46 0;
#X connect 64 0 45 0;
#X connect 64 0 44 0;
#X connect 65 0 38 0;
#X connect 65 0 37 0;
#X connect 65 0 36 0;
#X connect 65 0 35 0;
#X connect 65 0 34 0;
#X connect 65 0 18 0;
#X connect 66 0 31 0;
#X connect 66 0 30 0;
#X connect 66 0 29 0;
#X connect 66 0 28 0;
#X connect 66 0 27 0;
#X connect 66 0 26 0;
#X connect 67 0 23 0;
#X connect 67 0 22 0;
#X connect 67 0 21 0;
#X connect 67 0 20 0;
#X connect 67 0 19 0;
#X connect 67 0 17 0;
#X connect 68 0 11 0;
#X restore -306 -1562 pd metrix_out;
#X text -305 -1578 wysyłki na del pojedynczyh paczy;
#X msg -306 -1526 0 0 0 0 0 0;
#X msg -307 -1509 0 0 0 0 0 0;
#X msg -307 -1475 0 0 0 0 0 0;
#X msg -307 -1458 0 0 0 0 0 0;
#X msg -306 -1545 0 0 0 0 0 0;
#X text -341 -1544 DELay;
#X text -338 -1524 FLT;
#X text -364 -1441 Send to: Amod Fmod Redux;
#X text -354 -1431 Send to: FILTer RMOD Amod Fmod Redux;
#X text -335 -1508 RMOD;
#X msg -307 -1492 0 0 0 0 0 0;
#X text -326 -1493 AM;
#X text -329 -1473 FM;
#X text -329 -1457 RX;
#X connect 0 0 6 0;
#X connect 0 1 2 0;
#X connect 0 2 3 0;
#X connect 0 3 12 0;
#X connect 0 4 4 0;
#X connect 0 5 5 0;
