#N canvas 0 172 492 477 10;
#X obj 32 69 inlet control;
#X obj 32 221 metro 125;
#X obj 32 253 t b b;
#X obj 32 385 outlet b;
#X obj 32 328 t b b;
#X obj 64 284 del, f 19;
#X obj 103 386 outlet time;
#X obj 42 101 sel 0;
#X msg 42 123 0;
#X obj 131 69 inlet BPM;
#X obj 131 91 f \$1;
#X obj 131 113 swap 60000;
#X obj 131 135 /;
#X obj 131 167 / 4;
#X obj 131 189 t f f;
#X obj 186 14 loadbang;
#X obj 186 36 t b b b;
#X obj 209 68 inlet beats;
#X obj 209 90 f \$2;
#X obj 209 122 t b f;
#X obj 294 67 inlet swing amout;
#X obj 294 91 f \$3;
#X obj 294 113 / 99;
#X obj 294 135 + 1;
#X obj 194 206 t b f;
#X obj 194 228 *;
#X obj 103 362 f 0;
#X obj 135 361 + 1;
#X connect 0 0 1 0;
#X connect 0 0 7 0;
#X connect 1 0 2 0;
#X connect 2 0 4 0;
#X connect 2 1 5 0;
#X connect 4 0 3 0;
#X connect 4 1 26 0;
#X connect 5 0 4 0;
#X connect 7 0 8 0;
#X connect 8 0 26 1;
#X connect 9 0 10 0;
#X connect 10 0 11 0;
#X connect 11 0 12 0;
#X connect 12 0 13 0;
#X connect 13 0 14 0;
#X connect 14 0 1 1;
#X connect 14 1 25 0;
#X connect 15 0 16 0;
#X connect 16 0 10 0;
#X connect 16 1 18 0;
#X connect 16 2 21 0;
#X connect 17 0 18 0;
#X connect 18 0 19 0;
#X connect 19 0 13 0;
#X connect 19 1 13 1;
#X connect 20 0 21 0;
#X connect 21 0 22 0;
#X connect 22 0 23 0;
#X connect 23 0 24 0;
#X connect 24 0 25 0;
#X connect 24 1 25 1;
#X connect 25 0 5 1;
#X connect 26 0 27 0;
#X connect 26 0 6 0;
#X connect 27 0 26 1;
