#N canvas 197 198 400 300 10;
#X obj 99 75 hsl 128 15 0 127 0 0 empty empty 0 -2 -8 0 10 -262144
-1 -1 4900 1;
#X obj 77 176 /;
#X floatatom 75 213 5 0 0 0 - - -, f 5;
#X floatatom 17 157 5 0 0 0 - - -, f 5;
#X obj 97 16 loadbang;
#X obj 32 106 60000;
#X connect 0 0 1 1;
#X connect 1 0 2 0;
#X connect 3 0 1 0;
#X connect 4 0 0 0;
#X connect 5 0 1 0;
