#N canvas 121 111 480 475 10;
#X floatatom -1656 202 5 0 0 0 - - -;
#X msg -1742 417 \; led_levelss \$1 \$2 \$3 \$4;
#X text -1714 196 RGB?;
#X text -1592 22 pot in;
#X obj -1689 228 gate 3;
#X obj -1742 368 pack \$1 0 0 0;
#X text -1631 380 led number - get from abstraction?;
#X obj -1583 52 inlet;
#X text -1590 7 value;
#X obj -1700 10 inlet;
#X obj -1699 34 unpack 0 0;
#X obj -1828 431 s updateLEDS;
#X text -1847 170 wartosc z buttona - 0 zamkniete;
#X floatatom -1690 128 5 0 0 0 - - -;
#X obj -1722 394 print;
#X msg -1655 334 0;
#X msg -1593 332 0;
#X obj -1593 279 t b b b \$1;
#X floatatom -1804 299 5 0 0 0 - - -;
#X obj -1670 277 t b b \$1 b;
#X obj -1754 277 t b \$1 b b;
#X obj -1791 391 t b l b;
#X msg -1567 416 \; led_levelss const 0;
#X connect 0 0 4 1;
#X connect 4 0 20 0;
#X connect 4 1 19 0;
#X connect 4 2 17 0;
#X connect 5 0 21 0;
#X connect 7 0 0 0;
#X connect 9 0 10 0;
#X connect 10 0 13 0;
#X connect 10 1 0 0;
#X connect 13 0 4 0;
#X connect 15 0 5 1;
#X connect 16 0 5 2;
#X connect 17 0 5 0;
#X connect 17 1 15 0;
#X connect 17 2 16 0;
#X connect 17 3 5 3;
#X connect 18 0 5 0;
#X connect 19 0 5 0;
#X connect 19 1 15 0;
#X connect 19 2 5 2;
#X connect 19 3 16 0;
#X connect 20 0 5 0;
#X connect 20 1 5 1;
#X connect 20 2 15 0;
#X connect 20 3 16 0;
#X connect 21 0 11 0;
#X connect 21 1 1 0;
#X connect 21 2 22 0;
