#N canvas 541 160 404 452 10;
#X obj 28 33 inlet;
#X obj 28 77 change;
#X obj 28 99 sel 1;
#X text 130 130 send value when initialized;
#X text 28 3 \$1 counter max \, \$2 offest counter;
#X obj 28 369 outlet;
#X obj 71 245 + 1;
#X obj 28 245 i;
#X obj 28 272 % \$1, f 27;
#X obj 28 319 + \$2;
#X obj 165 204 outlet;
#X obj 79 117 loadbang;
#X obj 28 167 t b b, f 20;
#X text 239 237 R out=bang;
#X text 27 388 L out=int counter;
#X text 235 259 turn into counter;
#X text 27 17 BANG from btn;
#X obj 28 55 cyclone/speedlim 20;
#X text 233 274 \$1 counter max;
#X text 64 319 \$2 offest counter;
#X text 164 116 avoid faulty first output;
#X text 216 60 COUNTER MAX INLET;
#X obj 216 83 inlet CNT_max;
#X connect 0 0 17 0;
#X connect 1 0 2 0;
#X connect 2 0 12 0;
#X connect 6 0 7 1;
#X connect 7 0 6 0;
#X connect 7 0 8 0;
#X connect 8 0 9 0;
#X connect 9 0 5 0;
#X connect 11 0 12 0;
#X connect 12 0 7 0;
#X connect 12 1 10 0;
#X connect 17 0 1 0;
#X connect 22 0 8 1;
