#N canvas 827 463 253 238 10;
#X obj 51 14 inlet;
#X obj 51 134 outlet;
#X text 104 16 send o/1;
#X text 54 40 when treshold passed;
#X obj 51 58 > \$1;
#X obj 51 90 change;
#X connect 0 0 4 0;
#X connect 4 0 5 0;
#X connect 5 0 1 0;
