#N canvas 64 374 518 464 10;
#X obj 30 243 + 1;
#X obj 30 85 clip 0 1000;
#X obj 30 137 t f b;
#X obj 30 160 f;
#X obj 30 180 +;
#X obj 30 202 / 2;
#X obj 30 114 trigger f f;
#X obj 30 38 inlet;
#X text 83 354 scaled out value;
#X text 198 218 normalize it to 0-1;
#X text 128 155 averaging filter of last 2 values / low pass;
#X text 90 37 incoming value;
#X text 190 82 make sure output stays between 0-1;
#X text 192 200 * -1 because value of pot reversed;
#X obj 30 357 outlet;
#X text 82 21 for seq ctrl - values are swaped;
#X obj 30 60 speedlim 40;
#X msg 30 308 0;
#X text 183 304 round to 0;
#X obj 30 274 moses 0.01;
#X obj 30 222 * -0.01;
#X connect 0 0 19 0;
#X connect 1 0 6 0;
#X connect 2 0 3 1;
#X connect 2 1 3 0;
#X connect 3 0 4 0;
#X connect 4 0 5 0;
#X connect 5 0 20 0;
#X connect 6 0 2 0;
#X connect 6 1 4 1;
#X connect 7 0 16 0;
#X connect 16 0 1 0;
#X connect 17 0 14 0;
#X connect 19 0 17 0;
#X connect 19 1 14 0;
#X connect 20 0 0 0;
