#N canvas 680 185 444 231 10;
#X obj 22 37 inlet;
#X text 158 19 incoming sensor value;
#X obj 22 184 outlet;
#X text 80 184 scaled out value;
#X text 166 72 smooth value (float 0-1);
#X text 149 86 im blizsza zera tym wolniej sie rusza;
#X obj 22 80 mapping/smooth \$2;
#X obj 138 44 r smooth_factor_pots;
#X msg 22 156 0;
#X obj 22 124 t b;
#X obj 22 102 moses 0.01;
#X connect 0 0 6 0;
#X connect 6 0 10 0;
#X connect 7 0 6 1;
#X connect 8 0 2 0;
#X connect 9 0 8 0;
#X connect 10 0 9 0;
#X connect 10 1 2 0;
