#N canvas 103 389 418 295 10;
#X obj 154 150 int;
#X obj 154 28 inlet;
#X obj 154 230 outlet;
#X obj 154 206 change;
#X obj 154 83 * \$1;
#X text 190 92 HOW MANY STATES SWITCH HAS;
#X text 191 79 ARGUMENT \$1;
#X obj 154 182 + \$2;
#X text 202 182 \$2 - offset;
#X text 209 200 default 0 if no arg;
#X obj 154 55 mapping/smooth 0.9;
#X floatatom 213 22 5 0 0 0 - - -;
#X floatatom 96 203 5 0 0 0 - - -;
#X obj 154 116 - 0.25;
#X connect 0 0 7 0;
#X connect 0 0 12 0;
#X connect 1 0 10 0;
#X connect 3 0 2 0;
#X connect 4 0 13 0;
#X connect 7 0 3 0;
#X connect 10 0 4 0;
#X connect 11 0 10 0;
#X connect 13 0 0 0;
