#N canvas 901 400 377 392 10;
#X obj 126 158 sel 0 1, f 20;
#X obj 126 134 change;
#X obj 126 62 inlet;
#X obj 54 327 outlet;
#X text 177 134 out only if input changed;
#X msg 126 222 1;
#X msg 194 222 0;
#X msg 225 222 1;
#X msg 156 222 0;
#X obj 74 181 tgl 15 0 empty empty empty 17 7 0 10 -262144 -1 -1 1
1;
#X obj 54 220 + 1;
#X obj 54 97 loadbang;
#X obj 54 130 int \$1;
#X text 218 283 default - normal;
#X text 123 17 incoming value;
#X text 168 58 \$1 argument-out 0/1 1/0;
#X obj 54 285 cyclone/switch 2 2, f 21;
#X obj 126 94 speedlim 10;
#X connect 0 0 5 0;
#X connect 0 0 8 0;
#X connect 0 1 6 0;
#X connect 0 1 7 0;
#X connect 1 0 0 0;
#X connect 2 0 17 0;
#X connect 5 0 16 1;
#X connect 6 0 16 1;
#X connect 7 0 16 2;
#X connect 8 0 16 2;
#X connect 10 0 16 0;
#X connect 11 0 12 0;
#X connect 12 0 9 0;
#X connect 12 0 10 0;
#X connect 16 0 3 0;
#X connect 17 0 1 0;
