#N canvas 581 521 539 194 10;
#X obj 31 12 inlet;
#X obj 31 76 *;
#X text 81 102 upper limit;
#X obj 31 100 * \$1;
#X text 69 76 make exponential - lower values have finer resolution
;
#X obj 31 122 + \$2;
#X text 83 123 offset;
#X obj 31 146 outlet;
#X obj 31 34 speedlim 40;
#X connect 0 0 8 0;
#X connect 1 0 3 0;
#X connect 3 0 5 0;
#X connect 5 0 7 0;
#X connect 8 0 1 0;
#X connect 8 0 1 1;
