#N canvas 275 137 713 466 12;
#X floatatom 248 410 5 0 0 0 - - -;
#X obj 75 252 sel 0;
#X obj 166 86 r SEQ_urn_SQ2;
#X msg 181 268 clear;
#X obj 176 238 t b b;
#X obj 156 331 + 2, f 5;
#X obj 156 293 cyclone/urn 17, f 17;
#X obj 75 86 inlet float;
#X obj 75 398 outlet bang_led;
#X obj 156 205 spigot, f 18;
#X obj 279 31 inlet rndm_on;
#X obj 75 197 % \$1, f 6;
#X text 89 55 arg \$1 - modulo init value;
#X obj 156 33 inlet rndm_mew_b;
#X obj 259 388 outlet %_current;
#X obj 459 279 inlet URN_MOD;
#X floatatom 459 304 5 0 0 0 - - -;
#X obj 398 31 tgl 15 0 empty RNDM_CLCK_ON_SQ2 RNDM_CLCK_ON_SQ2 17 7
0 10 -4034 -1 -1 0 1;
#X floatatom 101 326 5 0 0 0 - - -;
#X connect 1 0 8 0;
#X connect 1 0 9 0;
#X connect 2 0 9 0;
#X connect 3 0 6 0;
#X connect 4 0 6 0;
#X connect 4 1 3 0;
#X connect 5 0 0 0;
#X connect 5 0 11 1;
#X connect 5 0 14 0;
#X connect 6 0 5 0;
#X connect 6 0 18 0;
#X connect 6 1 4 0;
#X connect 7 0 11 0;
#X connect 9 0 6 0;
#X connect 10 0 9 1;
#X connect 11 0 1 0;
#X connect 13 0 9 0;
#X connect 15 0 5 0;
#X connect 15 0 16 0;
#X connect 17 0 9 1;
