#N canvas 657 660 619 431 12;
#X floatatom 326 363 5 0 0 0 - - -;
#X obj 15 226 sel 0;
#X obj 106 60 r SEQ_urn_SQ2;
#X msg 121 242 clear;
#X obj 116 212 t b b;
#X obj 96 305 + 2, f 5;
#X obj 96 267 cyclone/urn 17, f 17;
#X obj 15 60 inlet float;
#X obj 15 372 outlet bang_led;
#X obj 326 10 tgl 15 0 empty DIR_SQ2 RNDM_1/0 17 7 0 10 -260097 -1
-1 0 1;
#X obj 96 179 spigot, f 18;
#X obj 219 5 inlet rndm_on;
#X obj 15 171 % \$1, f 6;
#X text 29 29 arg \$1 - modulo init value;
#X obj 96 7 inlet rndm_mew_b;
#X obj 326 100 sel 0 1;
#X text 364 133 rndm off=back to default val;
#X obj 326 128 i \$1;
#X obj 199 362 outlet %_current;
#X text 384 103 RAND MOD EACH CYCLE?;
#X obj 399 253 inlet URN_MOD;
#X floatatom 399 278 5 0 0 0 - - -;
#X obj 326 30 t f f;
#X connect 1 0 8 0;
#X connect 1 0 10 0;
#X connect 2 0 10 0;
#X connect 3 0 6 0;
#X connect 4 0 6 0;
#X connect 4 1 3 0;
#X connect 5 0 0 0;
#X connect 5 0 12 1;
#X connect 5 0 18 0;
#X connect 6 0 5 0;
#X connect 6 1 4 0;
#X connect 7 0 12 0;
#X connect 9 0 22 0;
#X connect 10 0 6 0;
#X connect 11 0 10 1;
#X connect 12 0 1 0;
#X connect 14 0 10 0;
#X connect 15 0 17 0;
#X connect 17 0 12 1;
#X connect 17 0 18 0;
#X connect 17 0 0 0;
#X connect 20 0 5 0;
#X connect 20 0 21 0;
#X connect 22 0 15 0;
#X connect 22 1 10 1;
