#N canvas 0 51 698 528 10;
#X obj 197 31 r LG_treshold_before_smt, f 22;
#X obj 144 303 change;
#X obj 144 381 outlet;
#X obj 144 42 inlet;
#X text 191 303 filter out repetiotion;
#X obj 267 383 outlet;
#X text 14 401 out 1=b for dark to bright;
#X text 195 421 out 2 = b for bright to dark;
#X text 360 43 treszhold val 0-1 from pot;
#X text 209 277 1/0 if treshold passed;
#X obj 258 124 f \$2;
#X text 4 41 \$1 - clone patch no;
#X text 294 123 \$2 - scale treshold max;
#X text 385 176 \$3 - scale treshold offset;
#X text 292 149 default treshold max;
#X text 141 9 input - sensor number:0-31 \, sens val 1-0;
#X obj 345 175 f \$3;
#X obj 53 184 print;
#X obj 53 162 spigot;
#X obj 92 141 tgl 15 0 empty empty empty 17 7 0 10 -262144 -1 -1 0
1;
#X obj 215 75 loadbang;
#X obj 215 99 t b b b b, f 19;
#X obj 197 231 -, f 15;
#X msg 301 206 0.4;
#X text 344 198 if no \$3 init arg;
#X text 339 211 default offset;
#X text 293 136 if no \$2 init arg;
#X obj 197 199 *;
#X msg 215 172 1.4;
#X obj 144 325 t f f, f 37;
#X obj 400 380 outlet LG;
#X floatatom 306 69 5 0 0 0 - - -, f 5;
#X floatatom 207 253 5 0 0 0 - - -, f 5;
#X floatatom 94 74 5 0 0 0 - - -, f 5;
#X obj 144 348 sel 1, f 18;
#X obj 144 277 <, f 8;
#X connect 0 0 27 0;
#X connect 0 0 31 0;
#X connect 1 0 29 0;
#X connect 3 0 33 0;
#X connect 3 0 35 0;
#X connect 10 0 27 1;
#X connect 16 0 22 1;
#X connect 18 0 17 0;
#X connect 19 0 18 1;
#X connect 20 0 21 0;
#X connect 21 0 28 0;
#X connect 21 1 10 0;
#X connect 21 2 23 0;
#X connect 21 3 16 0;
#X connect 22 0 32 0;
#X connect 22 0 35 1;
#X connect 23 0 22 1;
#X connect 27 0 22 0;
#X connect 28 0 27 1;
#X connect 29 0 34 0;
#X connect 29 1 30 0;
#X connect 34 0 2 0;
#X connect 34 1 5 0;
#X connect 35 0 1 0;
