#N canvas 922 308 487 558 10;
#X obj 23 438 outlet;
#X floatatom 108 66 5 0 0 0 - - -, f 5;
#X floatatom 134 325 5 0 0 0 - - -, f 5;
#X obj 23 40 inlet;
#X text 100 41 value2scale;
#X text 69 16 arguments to the object 1=route number for clone;
#X text 310 236 3 \, 4=scale MIN MAX;
#X text 301 289 5=median;
#X obj 23 358 mapping/smooth 0.33, f 21;
#X text 191 362 6 - smooth;
#X obj 23 95 cyclone/speedlim 40;
#X obj 23 177 mapping/median 4;
#X obj 91 295 + 1;
#X obj 43 316 / 100;
#X obj 43 252 * 100;
#X obj 43 285 int;
#X obj 23 215 maxlib/scale 0 1024 1 0, f 40;
#X connect 3 0 10 0;
#X connect 3 0 1 0;
#X connect 8 0 0 0;
#X connect 10 0 11 0;
#X connect 11 0 16 0;
#X connect 14 0 15 0;
#X connect 15 0 13 0;
#X connect 16 0 14 0;
#X connect 16 0 8 0;
#X connect 16 0 2 0;
