#N canvas 264 182 524 605 10;
#X text 64 34 wysylaj nowa wartosc tylko;
#X obj 62 229 inlet;
#X obj 82 547 outlet;
#X floatatom 103 229 5 0 0 0 - - -, f 5;
#X text 148 502 out value if matches previous;
#X text 142 230 in: value;
#X obj 122 280 s \$0-last_val_strd;
#X text 63 21 zapamietuj ostatnia wartosc;
#X obj 138 335 r \$0-last_val_strd;
#X text 132 375 is the stored val == to new val?;
#X obj 102 375 ==;
#X obj 144 400 tgl 15 0 empty empty empty 17 7 0 10 -262144 -1 -1 0
1;
#X floatatom 165 246 5 0 0 0 - - -, f 5;
#X obj 120 356 f;
#X obj 107 328 bng 15 250 50 0 empty empty empty 17 7 0 10 -262144
-1 -1;
#X obj 63 140 bng 15 250 50 0 empty empty empty 17 7 0 10 -262144 -1
-1;
#X text 292 309 from parent;
#X obj 82 506 spigot 0;
#X obj 62 260 t b f f f;
#X obj 62 200 s \$0-compare_stored_val;
#X obj 120 308 r \$0-compare_stored_val;
#X text 150 488 yes? then send it through;
#X obj 63 121 r compare_stored_value;
#X obj 102 397 sel 1;
#X msg 135 477 1;
#X floatatom 137 550 5 0 0 0 - - -, f 5;
#X obj 102 436 cyclone/onebang;
#X obj 235 141 bng 15 250 50 0 empty empty empty 17 7 0 10 -262144
-1 -1;
#X msg 227 439 0;
#X obj 234 201 s \$0-reset_onebang;
#X obj 204 397 r \$0-reset_onebang;
#X obj 235 124 r reset_1bang;
#X text 61 59 This will work with paczes that receive input from gate
I.E. not continuously!!!;
#X text 64 47 jesli nowa wartosc = wartosci przechowanej;
#X text 337 399 from parent;
#X obj 204 417 t b b b;
#X obj 62 158 r on_receiving;
#X text 225 224 close spigot;
#X obj 62 178 t b b;
#X obj 102 457 t b b;
#X msg 32 478 1;
#X obj 32 537 outlet;
#X msg 250 520 0;
#X text 61 88 it needs a BANG from parent pacz to reset one bang and
to compare stored val with incoming and to open/close gate;
#X obj 177 161 loadbang;
#X connect 1 0 3 0;
#X connect 1 0 18 0;
#X connect 8 0 13 1;
#X connect 10 0 11 0;
#X connect 10 0 23 0;
#X connect 12 0 18 0;
#X connect 13 0 10 1;
#X connect 17 0 2 0;
#X connect 17 0 25 0;
#X connect 18 1 17 0;
#X connect 18 2 10 0;
#X connect 18 3 6 0;
#X connect 20 0 13 0;
#X connect 20 0 14 0;
#X connect 22 0 15 0;
#X connect 23 0 26 0;
#X connect 24 0 17 1;
#X connect 26 0 39 0;
#X connect 28 0 17 1;
#X connect 30 0 35 0;
#X connect 31 0 27 0;
#X connect 35 0 26 1;
#X connect 35 1 28 0;
#X connect 35 2 42 0;
#X connect 36 0 38 0;
#X connect 38 0 19 0;
#X connect 38 1 29 0;
#X connect 39 0 40 0;
#X connect 39 1 24 0;
#X connect 40 0 41 0;
#X connect 42 0 41 0;
#X connect 44 0 38 0;
