#N canvas 830 438 253 238 10;
#X obj 51 129 sel 1;
#X obj 50 34 inlet;
#X obj 50 74 t f f;
#X msg 87 150 0;
#X msg 51 150 1;
#X obj 51 174 outlet;
#X text 103 36 send o/1;
#X text 54 90 when treshold passed;
#X obj 51 108 > \$1;
#X obj 50 54 cyclone/speedlim 30;
#X connect 0 0 4 0;
#X connect 0 1 3 0;
#X connect 1 0 9 0;
#X connect 2 0 8 0;
#X connect 3 0 5 0;
#X connect 4 0 5 0;
#X connect 8 0 0 0;
#X connect 9 0 2 0;
