#N canvas 789 187 612 403 10;
#X obj 67 82 inlet;
#X obj 67 134 unpack f f f f f f f f;
#X text 106 79 8 values;
#X floatatom 172 102 1 0 0 0 - - -, f 1;
#X text 397 65 dest from button;
#N canvas 352 520 479 257 storeCOMPARErecall 0;
#X obj 33 163 outlet;
#X obj 114 34 inlet;
#X text 87 33 val;
#X text 276 38 dest;
#X obj 276 156 outlet;
#X floatatom 224 131 5 0 0 0 - - -, f 5;
#X obj 114 82 unpack f f;
#X floatatom 89 165 5 0 0 0 - - -, f 5;
#X obj 181 134 tgl 15 0 empty empty empty 17 7 0 10 -262144 -1 -1 0
1;
#X floatatom 330 155 5 0 0 0 - - -, f 5;
#X obj 276 85 change;
#X floatatom 331 105 1 0 0 0 - - -, f 1;
#X obj 181 108 oneSTOREval \$1;
#X obj 276 61 r \$0-dest;
#X obj 33 138 cyclone/gate;
#X obj 114 59 oneLOWresFORcompare;
#X connect 1 0 15 0;
#X connect 6 0 14 1;
#X connect 6 1 12 0;
#X connect 10 0 12 1;
#X connect 10 0 11 0;
#X connect 12 0 8 0;
#X connect 12 0 14 0;
#X connect 12 1 5 0;
#X connect 12 2 9 0;
#X connect 12 2 4 0;
#X connect 13 0 10 0;
#X connect 14 0 7 0;
#X connect 14 0 0 0;
#X connect 15 0 6 0;
#X restore 212 245 pd storeCOMPARErecall;
#X floatatom 222 312 5 0 0 0 - - -, f 5;
#X floatatom 364 245 5 0 0 0 - - -, f 5;
#X obj 488 111 change;
#X floatatom 540 111 1 0 0 0 - - -, f 1;
#X obj 488 86 r \$0-dest;
#N canvas 352 520 369 172 storeCOMPARErecall 0;
#X obj 23 140 outlet;
#X obj 48 21 inlet;
#X text 21 20 val;
#X text 210 25 dest;
#X obj 210 143 outlet;
#X floatatom 158 118 5 0 0 0 - - -, f 5;
#X obj 48 69 unpack f f;
#X floatatom 79 142 5 0 0 0 - - -, f 5;
#X obj 115 121 tgl 15 0 empty empty empty 17 7 0 10 -262144 -1 -1 0
1;
#X floatatom 264 142 5 0 0 0 - - -, f 5;
#X obj 210 72 change;
#X floatatom 265 92 1 0 0 0 - - -, f 1;
#X obj 210 48 r \$0-dest;
#X obj 115 95 oneSTOREval \$1;
#X obj 23 115 cyclone/gate;
#X obj 48 46 oneLOWresFORcompare;
#X connect 1 0 15 0;
#X connect 6 0 14 1;
#X connect 6 1 13 0;
#X connect 10 0 11 0;
#X connect 10 0 13 1;
#X connect 12 0 10 0;
#X connect 13 0 8 0;
#X connect 13 0 14 0;
#X connect 13 1 5 0;
#X connect 13 2 9 0;
#X connect 13 2 4 0;
#X connect 14 0 7 0;
#X connect 14 0 0 0;
#X connect 15 0 6 0;
#X restore 298 280 pd storeCOMPARErecall;
#X floatatom 303 313 5 0 0 0 - - -, f 5;
#X floatatom 451 281 5 0 0 0 - - -, f 5;
#N canvas 343 514 369 172 storeCOMPARErecall 1;
#X obj 23 136 outlet;
#X obj 48 17 inlet;
#X text 21 16 val;
#X text 210 21 dest;
#X obj 210 139 outlet;
#X floatatom 158 114 5 0 0 0 - - -, f 5;
#X obj 48 65 unpack f f;
#X floatatom 79 138 5 0 0 0 - - -, f 5;
#X obj 115 117 tgl 15 0 empty empty empty 17 7 0 10 -262144 -1 -1 0
1;
#X floatatom 264 138 5 0 0 0 - - -, f 5;
#X obj 210 68 change;
#X floatatom 265 88 1 0 0 0 - - -, f 1;
#X obj 210 44 r \$0-dest;
#X obj 115 91 oneSTOREval \$1;
#X obj 23 111 cyclone/gate;
#X obj 48 42 oneLOWresFORcompare;
#X connect 1 0 15 0;
#X connect 6 0 14 1;
#X connect 6 1 13 0;
#X connect 10 0 11 0;
#X connect 10 0 13 1;
#X connect 12 0 10 0;
#X connect 13 0 8 0;
#X connect 13 0 14 0;
#X connect 13 1 5 0;
#X connect 13 2 9 0;
#X connect 13 2 4 0;
#X connect 14 0 7 0;
#X connect 14 0 0 0;
#X connect 15 0 6 0;
#X restore 340 299 pd storeCOMPARErecall;
#X floatatom 349 316 5 0 0 0 - - -, f 5;
#X floatatom 494 300 5 0 0 0 - - -, f 5;
#N canvas 358 524 369 172 storeCOMPARErecall 0;
#X obj -9 -12 outlet;
#X obj 36 -151 inlet;
#X text 9 -152 val;
#X text 198 -147 dest;
#X obj 198 -29 outlet;
#X floatatom 146 -54 5 0 0 0 - - -, f 5;
#X obj 36 -103 unpack f f;
#X floatatom 47 -10 5 0 0 0 - - -, f 5;
#X obj 103 -51 tgl 15 0 empty empty empty 17 7 0 10 -262144 -1 -1 0
1;
#X floatatom 252 -30 5 0 0 0 - - -, f 5;
#X obj 198 -100 change;
#X floatatom 253 -80 1 0 0 0 - - -, f 1;
#X obj 198 -124 r \$0-dest;
#X obj 103 -77 oneSTOREval \$1;
#X obj -9 -37 cyclone/gate;
#X obj 36 -126 oneLOWresFORcompare;
#X connect 1 0 15 0;
#X connect 6 0 14 1;
#X connect 6 1 13 0;
#X connect 10 0 11 0;
#X connect 10 0 13 1;
#X connect 12 0 10 0;
#X connect 13 0 8 0;
#X connect 13 0 14 0;
#X connect 13 1 5 0;
#X connect 13 2 9 0;
#X connect 13 2 4 0;
#X connect 14 0 7 0;
#X connect 14 0 0 0;
#X connect 15 0 6 0;
#X restore 254 261 pd storeCOMPARErecall;
#X floatatom 263 312 5 0 0 0 - - -, f 5;
#X floatatom 406 262 5 0 0 0 - - -, f 5;
#N canvas 358 524 369 172 storeCOMPARErecall 0;
#X obj 11 -32 outlet;
#X obj 36 -151 inlet;
#X text 9 -152 val;
#X text 198 -147 dest;
#X obj 198 -29 outlet;
#X floatatom 146 -54 5 0 0 0 - - -, f 5;
#X obj 36 -103 unpack f f;
#X floatatom 67 -30 5 0 0 0 - - -, f 5;
#X obj 103 -51 tgl 15 0 empty empty empty 17 7 0 10 -262144 -1 -1 0
1;
#X floatatom 252 -30 5 0 0 0 - - -, f 5;
#X obj 198 -100 change;
#X floatatom 253 -80 1 0 0 0 - - -, f 1;
#X obj 198 -124 r \$0-dest;
#X obj 103 -77 oneSTOREval \$1;
#X obj 11 -57 cyclone/gate;
#X obj 36 -126 oneLOWresFORcompare;
#X connect 1 0 15 0;
#X connect 6 0 14 1;
#X connect 6 1 13 0;
#X connect 10 0 11 0;
#X connect 10 0 13 1;
#X connect 12 0 10 0;
#X connect 13 0 8 0;
#X connect 13 0 14 0;
#X connect 13 1 5 0;
#X connect 13 2 9 0;
#X connect 13 2 4 0;
#X connect 14 0 7 0;
#X connect 14 0 0 0;
#X connect 15 0 6 0;
#X restore 171 226 pd storeCOMPARErecall;
#X floatatom 179 312 5 0 0 0 - - -, f 5;
#X floatatom 325 227 5 0 0 0 - - -, f 5;
#N canvas 358 524 369 172 storeCOMPARErecall 0;
#X obj 11 -32 outlet;
#X obj 36 -151 inlet;
#X text 9 -152 val;
#X text 198 -147 dest;
#X obj 198 -29 outlet;
#X floatatom 146 -54 5 0 0 0 - - -, f 5;
#X obj 36 -103 unpack f f;
#X floatatom 67 -30 5 0 0 0 - - -, f 5;
#X obj 103 -51 tgl 15 0 empty empty empty 17 7 0 10 -262144 -1 -1 0
1;
#X floatatom 252 -30 5 0 0 0 - - -, f 5;
#X obj 198 -100 change;
#X floatatom 253 -80 1 0 0 0 - - -, f 1;
#X obj 198 -124 r \$0-dest;
#X obj 103 -77 oneSTOREval \$1;
#X obj 11 -57 cyclone/gate;
#X obj 36 -126 oneLOWresFORcompare;
#X connect 1 0 15 0;
#X connect 6 0 14 1;
#X connect 6 1 13 0;
#X connect 10 0 11 0;
#X connect 10 0 13 1;
#X connect 12 0 10 0;
#X connect 13 0 8 0;
#X connect 13 0 14 0;
#X connect 13 1 5 0;
#X connect 13 2 9 0;
#X connect 13 2 4 0;
#X connect 14 0 7 0;
#X connect 14 0 0 0;
#X connect 15 0 6 0;
#X restore 85 184 pd storeCOMPARErecall;
#X floatatom 92 311 5 0 0 0 - - -, f 5;
#X floatatom 231 183 5 0 0 0 - - -, f 5;
#N canvas 349 518 369 172 storeCOMPARErecall 0;
#X obj 20 135 outlet;
#X obj 45 16 inlet;
#X text 18 15 val;
#X text 207 20 dest;
#X obj 207 138 outlet;
#X floatatom 155 113 5 0 0 0 - - -, f 5;
#X obj 45 41 oneLOWresFORcompare;
#X obj 45 64 unpack f f;
#X floatatom 76 137 5 0 0 0 - - -, f 5;
#X obj 112 116 tgl 15 0 empty empty empty 17 7 0 10 -262144 -1 -1 0
1;
#X floatatom 261 137 5 0 0 0 - - -, f 5;
#X obj 207 67 change;
#X floatatom 262 87 1 0 0 0 - - -, f 1;
#X obj 207 43 r \$0-dest;
#X obj 112 90 oneSTOREval \$1;
#X obj 20 110 cyclone/gate;
#X connect 1 0 6 0;
#X connect 6 0 7 0;
#X connect 7 0 15 1;
#X connect 7 1 14 0;
#X connect 11 0 12 0;
#X connect 11 0 14 1;
#X connect 13 0 11 0;
#X connect 14 0 9 0;
#X connect 14 0 15 0;
#X connect 14 1 5 0;
#X connect 14 2 10 0;
#X connect 14 2 4 0;
#X connect 15 0 8 0;
#X connect 15 0 0 0;
#X restore 44 162 pd storeCOMPARErecall;
#X floatatom 52 309 5 0 0 0 - - -, f 5;
#X floatatom 195 163 5 0 0 0 - - -, f 5;
#N canvas 361 526 369 172 storeCOMPARErecall 0;
#X obj 11 -32 outlet;
#X obj 36 -151 inlet;
#X text 9 -152 val;
#X text 198 -147 dest;
#X obj 198 -29 outlet;
#X floatatom 146 -54 5 0 0 0 - - -, f 5;
#X obj 36 -103 unpack f f;
#X floatatom 67 -30 5 0 0 0 - - -, f 5;
#X obj 103 -51 tgl 15 0 empty empty empty 17 7 0 10 -262144 -1 -1 0
1;
#X floatatom 252 -30 5 0 0 0 - - -, f 5;
#X obj 198 -100 change;
#X floatatom 253 -80 1 0 0 0 - - -, f 1;
#X obj 198 -124 r \$0-dest;
#X obj 103 -77 oneSTOREval \$1;
#X obj 11 -57 cyclone/gate;
#X obj 36 -126 oneLOWresFORcompare;
#X connect 1 0 15 0;
#X connect 6 0 14 1;
#X connect 6 1 13 0;
#X connect 10 0 11 0;
#X connect 10 0 13 1;
#X connect 12 0 10 0;
#X connect 13 0 8 0;
#X connect 13 0 14 0;
#X connect 13 1 5 0;
#X connect 13 2 9 0;
#X connect 13 2 4 0;
#X connect 14 0 7 0;
#X connect 14 0 0 0;
#X connect 15 0 6 0;
#X restore 129 204 pd storeCOMPARErecall;
#X floatatom 136 310 5 0 0 0 - - -, f 5;
#X floatatom 280 205 5 0 0 0 - - -, f 5;
#X obj 43 334 outlet;
#X text 291 175 arg \$1= destination of values;
#X obj 518 154 f \$1;
#X floatatom 518 176 5 0 0 0 - - -, f 5;
#X obj 85 334 outlet;
#X obj 129 334 outlet;
#X obj 171 334 outlet;
#X obj 212 334 outlet;
#X obj 254 334 outlet;
#X obj 298 334 outlet;
#X obj 340 334 outlet;
#X text 41 36 takes list \, and dest arg \, compares with stored value
amd dest value of the argument \, only outputs value if both previous
val = new and dest = \$1;
#X obj 517 134 bng 15 250 50 0 empty empty empty 17 7 0 10 -262144
-1 -1;
#X obj 172 82 inlet;
#X text 210 80 dest;
#X obj 270 105 s \$0-dest;
#X connect 0 0 1 0;
#X connect 1 0 26 0;
#X connect 1 1 23 0;
#X connect 1 2 29 0;
#X connect 1 3 20 0;
#X connect 1 4 5 0;
#X connect 1 5 17 0;
#X connect 1 6 11 0;
#X connect 1 7 14 0;
#X connect 5 0 6 0;
#X connect 5 0 39 0;
#X connect 5 1 7 0;
#X connect 10 0 9 0;
#X connect 10 0 8 0;
#X connect 11 0 12 0;
#X connect 11 0 41 0;
#X connect 11 1 13 0;
#X connect 14 0 15 0;
#X connect 14 0 42 0;
#X connect 14 1 16 0;
#X connect 17 0 18 0;
#X connect 17 0 40 0;
#X connect 17 1 19 0;
#X connect 20 0 21 0;
#X connect 20 0 38 0;
#X connect 20 1 22 0;
#X connect 23 0 24 0;
#X connect 23 0 36 0;
#X connect 23 1 25 0;
#X connect 26 0 27 0;
#X connect 26 0 32 0;
#X connect 26 1 28 0;
#X connect 29 0 30 0;
#X connect 29 0 37 0;
#X connect 29 1 31 0;
#X connect 34 0 35 0;
#X connect 44 0 34 0;
#X connect 45 0 3 0;
#X connect 45 0 47 0;
