#N canvas 54 184 1336 790 10;
#X text 806 211 outputs 1 if true \, 0 otherwise;
#X text 657 88 musza byc spelnione dwa warunki:;
#X text 656 106 1: numer podmenu sie zgadza;
#X text 657 130 2: liczba ktora zapamietalismy jest rowna wartosci
jaka otrzymujemy;
#X obj 432 153 change;
#X obj 409 239 tgl 15 0 empty empty empty 17 7 0 10 -262144 -1 -1 0
1;
#X obj 432 176 t f f;
#X obj 761 254 sel 1;
#X obj 415 559 &&;
#X floatatom 447 417 5 0 0 0 - - -, f 5;
#X obj 519 325 bng 15 250 50 0 empty empty empty 17 7 0 10 -262144
-1 -1;
#X floatatom 527 448 5 0 0 0 - - -, f 5;
#X obj 484 498 ==;
#X obj 489 519 tgl 15 0 empty empty empty 17 7 0 10 -262144 -1 -1 0
1;
#X obj 433 264 t f f b;
#X obj 415 581 tgl 15 0 empty empty empty 17 7 0 10 -262144 -1 -1 0
1;
#X msg 569 664 1;
#X obj 569 601 sel 1;
#X msg 625 665 0;
#X obj 761 300 t b b;
#X text 544 424 store last val;
#X text 578 395 stop storing val when submenu != 1;
#X text 658 40 zapamietuj ostatnia wartosc potencjometra;
#X text 659 66 jesli nowa wartosc w potencjometra = wartosci przechowanej
;
#X text 659 53 wysylaj nowa wartosc tylko;
#X text 238 24 zeby unikac skokow w wartosci \, wzorowane na BASTL
granpa;
#X text 434 284 first bang to czek if stored val == new value;
#X text 434 300 then close gate for saving value;
#X text 175 499 czek if stored value = new incoming value;
#X text 87 539 if incoming new value == stored value and submenu 1
selected;
#X text 322 663 open gate for sending new value;
#X text 805 253 if submenu changed & != then X;
#X text 810 293 close gate for sending value;
#X text 812 309 and reset onebang;
#X text 566 448 last value stored;
#X obj 439 55 inlet;
#X text 861 367 value in;
#X obj 819 368 t f f;
#X text 11 61 arguments to abstraction:;
#X obj 625 712 outlet;
#X obj 432 214 == \$1;
#X obj 761 212 != \$1;
#X text 439 238 if submenu val changed and correspnds to arg \$1;
#X text 12 76 \$1 - which element of submenus;
#X text 658 23 how it works:;
#X text 11 128 first czeck if number corresponds to \$1 (only when
changed);
#X text 11 167 if it doesn't then first close gate for sending output
and reset onebang;
#X text 10 259 if it does then first check if incoming val == stored
value;
#X text 11 273 then stop storing value;
#X text 11 291 and czek if stored val = incoming val;
#X text 93 554 open the output gate;
#X obj 814 584 outlet;
#X text 821 605 last value stored;
#X obj 439 76 unpack f f;
#X floatatom 368 102 5 0 0 0 - - -, f 5;
#X floatatom 600 103 5 0 0 0 - - -, f 5;
#X obj 519 425 i;
#X obj 569 714 outlet;
#X text 217 719 added gate output for low/hi resolution control;
#X text 403 103 list in: value \, DEST number;
#X text 680 709 out value if matches previous;
#X obj 517 52 inlet;
#X obj 569 625 cyclone/onebang;
#X obj 625 690 cyclone/gate;
#X obj 484 393 cyclone/gate;
#X connect 4 0 6 0;
#X connect 6 0 40 0;
#X connect 6 1 41 0;
#X connect 7 0 19 0;
#X connect 8 0 15 0;
#X connect 8 0 17 0;
#X connect 10 0 56 0;
#X connect 12 0 13 0;
#X connect 12 0 8 0;
#X connect 14 0 8 1;
#X connect 14 1 64 0;
#X connect 14 2 10 0;
#X connect 16 0 57 0;
#X connect 16 0 63 0;
#X connect 17 0 62 0;
#X connect 18 0 57 0;
#X connect 18 0 63 0;
#X connect 19 0 62 1;
#X connect 19 1 18 0;
#X connect 35 0 53 0;
#X connect 37 0 63 1;
#X connect 37 1 64 1;
#X connect 40 0 5 0;
#X connect 40 0 14 0;
#X connect 41 0 7 0;
#X connect 53 0 54 0;
#X connect 53 0 37 0;
#X connect 53 1 55 0;
#X connect 53 1 4 0;
#X connect 56 0 11 0;
#X connect 56 0 12 1;
#X connect 56 0 51 0;
#X connect 61 0 55 0;
#X connect 61 0 4 0;
#X connect 62 0 16 0;
#X connect 63 0 39 0;
#X connect 64 0 9 0;
#X connect 64 0 12 0;
#X connect 64 0 56 1;
