#N canvas 568 172 468 270 10;
#X obj 144 158 sel 1;
#X obj 144 107 <;
#X obj 144 133 change;
#X obj 52 201 outlet;
#X obj 144 22 inlet;
#X text 191 133 filter out repetiotion;
#X obj 269 203 outlet;
#X text 48 220 out 1=b for dark to bright;
#X text 217 220 out 2 = b for bright to dark;
#X obj 262 82 - 400;
#X obj 262 60 * 1400;
#X text 208 41 treszhold val 0-1 from pot;
#X text 307 59 MOJ scaling;
#X text 305 82 offset lower;
#X text 169 107 1/0 if treshold passed;
#X text 53 20 sensor val;
#X obj 199 1 r GLOBAL_SENS_TRESH;
#X floatatom 208 23 5 0 0 0 - - -, f 5;
#X connect 0 0 3 0;
#X connect 0 1 6 0;
#X connect 1 0 2 0;
#X connect 2 0 0 0;
#X connect 4 0 1 0;
#X connect 10 0 9 0;
#X connect 16 0 10 0;
#X connect 16 0 17 0;
#X connect 16 0 1 1;
