#N canvas 849 297 487 558 10;
#X obj 360 62 r ScaleByHand;
#X text 31 81 value to be scaled;
#X obj 156 365 switch 5;
#X text 221 366 choose scalling of sensors;
#X obj 208 171 hradio 15 1 0 6 empty empty empty 0 -8 0 10 -262144
-1 -1 1;
#X text 85 344 choose output range - most popular 0 - 1 or 0 - 1000
;
#X obj 156 390 unpack f f f f;
#X msg 175 267 500 1024 0 1;
#X text 272 265 feedback;
#X text 290 290 sines;
#X obj 136 427 maxlib/scale 1 1024 0 1;
#X text 302 317 sampler - cokolwiek;
#X obj 119 192 t b f;
#X msg 214 321 1 1024 100 1;
#X obj 136 511 outlet;
#X text 258 215 AUTO from sensor min max;
#X obj 169 214 r min;
#X obj 162 241 pack f f 0 1;
#X obj 214 213 r maxx;
#X obj 159 48 loadbang;
#X text 253 99 scale 1-100 = 3;
#X text 254 114 scale 1-100 = 2;
#X text 23 21 arguments to the object 1=route number \, 2 = scaling
;
#X obj 63 347 bng 15 250 50 0 empty empty empty 17 7 0 10 -262144 -1
-1;
#X floatatom 84 389 5 0 0 0 - - -, f 5;
#X obj 180 135 + 1;
#X obj 24 61 route \$1;
#X obj 182 102 f \$2;
#X obj 158 76 t b b;
#X obj 24 40 r LDRlistfunnel;
#X obj 251 61 r sensorSPEED;
#X msg 193 292 0 1024 1 0;
#X msg 87 110 30;
#X floatatom 39 106 5 0 0 0 - - -, f 5;
#X floatatom 64 494 5 0 0 0 - - -, f 5;
#X obj 135 451 mapping/median 6;
#X obj 136 486 mapping/smooth;
#X obj 24 135 cyclone/speedlim 20;
#X connect 0 0 2 5;
#X connect 2 0 6 0;
#X connect 2 0 24 0;
#X connect 6 0 10 1;
#X connect 6 1 10 2;
#X connect 6 2 10 3;
#X connect 6 3 10 4;
#X connect 7 0 2 2;
#X connect 10 0 35 0;
#X connect 12 0 7 0;
#X connect 12 0 31 0;
#X connect 12 0 13 0;
#X connect 12 1 2 0;
#X connect 13 0 2 4;
#X connect 16 0 17 0;
#X connect 17 0 2 1;
#X connect 18 0 17 1;
#X connect 19 0 28 0;
#X connect 23 0 2 0;
#X connect 25 0 12 0;
#X connect 25 0 4 0;
#X connect 26 0 33 0;
#X connect 26 0 37 0;
#X connect 27 0 25 0;
#X connect 28 0 32 0;
#X connect 28 1 27 0;
#X connect 29 0 26 0;
#X connect 30 0 37 1;
#X connect 31 0 2 3;
#X connect 32 0 37 1;
#X connect 35 0 34 0;
#X connect 35 0 36 0;
#X connect 36 0 14 0;
#X connect 37 0 10 0;
