#N canvas 68 562 1035 506 10;
#X text 14 -791 dziala \, ale wartosci skacza (nie wszystkie sie pokazuja)
\, trzeba albo zeskalowac albo zesmoothowac...;
#X obj 245 -901 scale 0 1023 0 100;
#X text 16 -759 median nie dziala \, smooth tez nie \, najlepiej skalowanie
i na int \, ale tracimy wtedy rozdzielczosc?;
#X obj 248 -926 / 10;
#X text 55 -880 dzielenie dziala spoko \, ale nie zawsze lapie;
#X text 58 -863 trza powoli ruszac gała;
#X text -35 -1040 VAL STORE MULTIPLE + WYSLIJ W ROZNE MIEJSCA;
#X floatatom -213 -708 5 0 0 0 - - -;
#X floatatom -166 -709 5 0 0 0 - - -;
#X floatatom -120 -708 5 0 0 0 - - -;
#X floatatom -73 -706 5 0 0 0 - - -;
#X floatatom -23 -710 5 0 0 0 - - -;
#X floatatom 25 -708 5 0 0 0 - - -;
#X floatatom 79 -712 5 0 0 0 - - -;
#X floatatom 130 -709 5 0 0 0 - - -;
#X obj -165 -1042 r panel1sound8val;
#X obj -123 -1011 unpack f f f f f f f f;
#X floatatom -143 -988 5 0 0 0 - - -;
#X floatatom -117 -987 5 0 0 0 - - -;
#X floatatom -83 -987 5 0 0 0 - - -;
#X floatatom -51 -986 5 0 0 0 - - -;
#X floatatom -16 -985 5 0 0 0 - - -;
#X floatatom 23 -982 5 0 0 0 - - -;
#X floatatom 60 -983 5 0 0 0 - - -;
#X floatatom 97 -982 5 0 0 0 - - -;
#X text -159 -1069 FOR MULTIPLE VALUES;
#X obj 304 -982 gate;
#X obj 304 -954 print;
#X obj 304 -1008 tgl 15 0 empty empty empty 17 7 0 10 -262144 -1 -1
0 1;
#X obj 374 -951 gate;
#X obj 374 -1036 tgl 15 0 empty empty empty 17 7 0 10 -262144 -1 -1
0 1;
#X text -239 -851 ARGUMENT - SUBSEND MENU FOR 8 VALUES;
#X text 98 -849 DOSTAJE liste z 8 wartosciamy w inletcie;
#X text 97 -839 a w destination w argumencie;
#X text 137 -825 sprawdza czy ten numer sie zgadza;
#X text 96 -817 na koniec pakuje z powrotem w jeden messydz;
#X obj 399 -1066 tgl 15 0 empty empty empty 17 7 0 10 -262144 -1 -1
0 1;
#X obj 400 -1047 metro 10;
#X obj 400 -1024 counter 102;
#X obj 400 -1000 t f f f f f f f f;
#X obj 399 -976 pack f f f f f f f f;
#X obj -165 -931 zl join;
#X obj -165 -907 t l l l l l;
#X obj -135 -731 unpack f f f f f f f f f;
#X floatatom 177 -712 5 0 0 0 - - -;
#X text 217 -713 lst=submenu;
#X floatatom -57 -926 5 0 0 0 - - -;
#X obj -373 -830 8STOREval 1;
#X obj -277 -830 8STOREval 2;
#X obj -184 -828 8STOREval 3;
#X obj -90 -828 8STOREval 4;
#X obj 10 -827 8STOREval 5;
#X obj -56 -951 r panel1sound8valDEST;
#X obj -320 -749 s 8storedSOUNDpanelVAL;
#X connect 15 0 16 0;
#X connect 15 0 41 0;
#X connect 16 0 17 0;
#X connect 16 1 18 0;
#X connect 16 2 19 0;
#X connect 16 3 20 0;
#X connect 16 4 21 0;
#X connect 16 5 22 0;
#X connect 16 6 23 0;
#X connect 16 7 24 0;
#X connect 26 0 27 0;
#X connect 28 0 26 0;
#X connect 29 0 41 0;
#X connect 30 0 29 0;
#X connect 36 0 37 0;
#X connect 37 0 38 0;
#X connect 38 0 39 0;
#X connect 39 0 40 0;
#X connect 39 1 40 1;
#X connect 39 2 40 2;
#X connect 39 3 40 3;
#X connect 39 4 40 4;
#X connect 39 5 40 5;
#X connect 39 6 40 6;
#X connect 39 7 40 7;
#X connect 40 0 29 1;
#X connect 41 0 42 0;
#X connect 42 0 47 0;
#X connect 42 1 48 0;
#X connect 42 2 49 0;
#X connect 42 3 50 0;
#X connect 42 4 51 0;
#X connect 43 0 7 0;
#X connect 43 1 8 0;
#X connect 43 2 9 0;
#X connect 43 3 10 0;
#X connect 43 4 11 0;
#X connect 43 5 12 0;
#X connect 43 6 13 0;
#X connect 43 7 14 0;
#X connect 43 8 44 0;
#X connect 47 0 43 0;
#X connect 47 0 53 0;
#X connect 48 0 43 0;
#X connect 48 0 53 0;
#X connect 49 0 43 0;
#X connect 49 0 53 0;
#X connect 50 0 43 0;
#X connect 50 0 53 0;
#X connect 51 0 43 0;
#X connect 51 0 53 0;
#X connect 52 0 46 0;
#X connect 52 0 41 1;
