#N canvas 10 108 1882 904 10;
#X obj 327 538 vsl 25 50 0 127 0 0 empty empty empty 0 -9 0 10 -262144
-1 -1 0 1;
#X floatatom 327 596 5 0 0 0 - - -;
#X obj 1525 38 line 0 100;
#X floatatom 1645 -1 5 0 0 0 - - -;
#X obj 1525 -3 cycle 2;
#X obj 1525 -65 tgl 15 0 empty empty empty 17 7 0 10 -262144 -1 -1
1 1;
#X msg 1525 -24 symbol fff;
#X text 1596 -25 musisz to dac zeby dzialalo - zamien bang w symbol
;
#X text -33 -87 argument do abstraction;
#X text -29 -75 zalezy ile chcemy kontrolowac parametrow;
#X obj -89 -77 gate \$1;
#X obj 412 514 gate 3;
#X obj -89 -99 inlet;
#X floatatom 1363 -121 5 0 0 0 - - -;
#X obj 362 595 send par1;
#X obj 427 538 vsl 25 50 0 127 0 0 empty empty empty 0 -9 0 10 -262144
-1 -1 0 1;
#X floatatom 427 596 5 0 0 0 - - -;
#X obj 525 537 vsl 25 50 0 127 0 0 empty empty empty 0 -9 0 10 -262144
-1 -1 0 1;
#X floatatom 525 595 5 0 0 0 - - -;
#X obj 462 595 send par2;
#X obj 560 594 send par3;
#X floatatom 328 657 5 0 0 0 - - -;
#X floatatom 428 657 5 0 0 0 - - -;
#X floatatom 526 656 5 0 0 0 - - -;
#X obj 328 635 r par1;
#X obj 428 635 r par2;
#X obj 526 634 r par3;
#X obj 1398 158 f;
#X obj 1362 -58 == 1;
#X obj 1362 82 gate;
#X obj 1362 -79 change;
#X obj 1369 -10 tgl 15 0 empty empty empty 17 7 0 10 -262144 -1 -1
0 1;
#X text 73 -34 outputs 1 if true \, 0 otherwise;
#X floatatom 1421 186 5 0 0 0 - - -;
#X obj 1398 11 bng 15 250 50 0 empty empty empty 17 7 0 10 -262144
-1 -1;
#X obj 1362 -35 t f f;
#X obj 1398 -10 sel 1;
#X obj 1525 -46 metro 4000;
#X msg 1525 18 0 4000;
#X msg 1583 17 127 4000;
#X obj 1645 17 pack f 0;
#X obj 1430 214 tgl 15 0 empty empty empty 17 7 0 10 -262144 -1 -1
0 1;
#X msg 1504 136 change;
#X text 1553 -67 data in simulation;
#X floatatom 1506 189 5 0 0 0 - - -;
#X msg 1506 165 -3000;
#X text 1410 -114 first czeck if number corresponds to ours;
#X obj 1362 179 ==;
#X floatatom 1330 127 5 0 0 0 - - -;
#X obj 1363 -101 t f b;
#X obj 1526 59 t f f;
#X obj 1362 104 t f f;
#X text -97 126 musza byc spelnione dwa warunki:;
#X text -98 144 1: numer podmenu sie zgadza;
#X text -97 168 2: liczba ktora zapamietalismy jest rowna wartosci
jaka otrzymujemy;
#X obj 1362 213 onebang;
#X floatatom 1609 68 5 0 0 0 - - -;
#X floatatom 2547 -54 5 0 0 0 - - -;
#X obj 2547 19 == 1;
#X obj 2547 -32 change;
#X obj 2524 55 tgl 15 0 empty empty empty 17 7 0 10 -262144 -1 -1 0
1;
#X obj 1604 181 bng 15 250 50 0 empty empty empty 17 7 0 10 -262144
-1 -1;
#X obj 1568 135 t f f;
#X obj 1604 160 sel 1;
#X text 2593 -60 first czeck if number corresponds to ours;
#X obj 2602 172 f;
#X obj 2747 88 line 0 100;
#X floatatom 2867 49 5 0 0 0 - - -;
#X obj 2747 47 cycle 2;
#X obj 2747 -15 tgl 15 0 empty empty empty 17 7 0 10 -262144 -1 -1
1 1;
#X msg 2747 26 symbol fff;
#X text 2818 25 musisz to dac zeby dzialalo - zamien bang w symbol
;
#X obj 2747 4 metro 4000;
#X msg 2747 68 0 4000;
#X msg 2805 67 127 4000;
#X obj 2867 67 pack f 0;
#X text 2775 -17 data in simulation;
#X text 2681 163 store last val;
#X obj 2645 143 gate;
#X text 2681 143 stop storing val when submenu != 1;
#X floatatom 2645 207 5 0 0 0 - - -;
#X floatatom 2800 111 5 0 0 0 - - -;
#X obj 2602 143 bng 15 250 50 0 empty empty empty 17 7 0 10 -262144
-1 -1;
#X floatatom 2602 207 5 0 0 0 - - -;
#X obj 2547 143 gate;
#X obj 2547 90 t f f b;
#X obj 2547 190 ==;
#X obj 2519 222 tgl 15 0 empty empty empty 17 7 0 10 -262144 -1 -1
0 1;
#X floatatom 2476 186 5 0 0 0 - - -;
#X obj 2546 265 onebang;
#X obj 2546 245 bng 15 250 50 0 empty empty empty 17 7 0 10 -262144
-1 -1;
#X obj 2545 327 gate;
#X obj 2524 288 bng 15 250 50 0 empty empty empty 17 7 0 10 -262144
-1 -1;
#X obj 2590 18 != 1;
#X obj 2547 -9 t f f;
#X obj 2590 40 sel 1;
#X obj 2617 82 bng 15 250 50 0 empty empty empty 17 7 0 10 -262144
-1 -1;
#X msg 2545 289 1;
#X floatatom 2545 364 5 0 0 0 - - -;
#X obj 2639 110 t f f f;
#X obj 2438 226 &&;
#X obj 2445 249 tgl 15 0 empty empty empty 17 7 0 10 -262144 -1 -1
0 1;
#X obj 2439 295 onebang;
#X obj 2417 318 bng 15 250 50 0 empty empty empty 17 7 0 10 -262144
-1 -1;
#X msg 2438 319 0;
#X obj 2590 60 t b b;
#X obj 2600 82 bng 15 250 50 0 empty empty empty 17 7 0 10 -262144
-1 -1;
#X obj 2439 272 sel 1;
#X floatatom 424 -91 5 0 0 0 - - -;
#X obj 424 -18 == 1;
#X obj 424 -69 change;
#X obj 401 18 tgl 15 0 empty empty empty 17 7 0 10 -262144 -1 -1 1
1;
#X obj 353 -16 != 1;
#X obj 424 -46 t f f;
#X obj 353 6 sel 1;
#X obj 721 89 line 0 100;
#X floatatom 841 50 5 0 0 0 - - -;
#X obj 721 48 cycle 2;
#X obj 721 -14 tgl 15 0 empty empty empty 17 7 0 10 -262144 -1 -1 1
1;
#X msg 721 27 symbol fff;
#X text 792 26 musisz to dac zeby dzialalo - zamien bang w symbol;
#X obj 721 5 metro 4000;
#X msg 721 69 0 4000;
#X msg 779 68 127 4000;
#X obj 841 68 pack f 0;
#X floatatom 774 112 5 0 0 0 - - -;
#X obj 415 267 &&;
#X obj 480 173 f;
#X obj 523 144 gate;
#X floatatom 523 208 5 0 0 0 - - -;
#X obj 480 144 bng 15 250 50 0 empty empty empty 17 7 0 10 -262144
-1 -1;
#X floatatom 480 208 5 0 0 0 - - -;
#X obj 482 233 ==;
#X obj 485 274 tgl 15 0 empty empty empty 17 7 0 10 -262144 -1 -1 0
1;
#X obj 424 58 t f f b;
#X obj 415 295 tgl 15 0 empty empty empty 17 7 0 10 -262144 -1 -1 0
1;
#X obj 327 311 onebang;
#X msg 327 335 1;
#X obj 327 286 sel 1;
#X obj 327 371 gate;
#X floatatom 327 396 5 0 0 0 - - -;
#X msg 391 336 0;
#X obj 522 105 t f f;
#X obj 363 41 t b b;
#X text 531 181 store last val;
#X text 531 161 stop storing val when submenu != 1;
#X text 470 -91 first czeck if number corresponds to our submenu (only
when sub menu changed);
#X text 749 -16 data in from pot or sth - simulation;
#X text -96 78 zapamietuj ostatnia wartosc potencjometra;
#X text -97 104 jesli nowa wartosc w potencjometra = wartosci przechowanej
;
#X text -95 91 wysylaj nowa wartosc tylko;
#X text -92 42 zeby unikac skokow w wartosci \, wzorowane na BASTL
granpa;
#X connect 0 0 1 0;
#X connect 0 0 14 0;
#X connect 2 0 50 0;
#X connect 2 0 56 0;
#X connect 3 0 40 0;
#X connect 4 0 38 0;
#X connect 4 1 39 0;
#X connect 5 0 37 0;
#X connect 6 0 4 0;
#X connect 11 0 0 0;
#X connect 11 1 15 0;
#X connect 11 2 17 0;
#X connect 12 0 10 0;
#X connect 13 0 49 0;
#X connect 15 0 16 0;
#X connect 15 0 19 0;
#X connect 17 0 18 0;
#X connect 17 0 20 0;
#X connect 24 0 21 0;
#X connect 25 0 22 0;
#X connect 26 0 23 0;
#X connect 27 0 33 0;
#X connect 27 0 47 1;
#X connect 28 0 35 0;
#X connect 29 0 51 0;
#X connect 30 0 28 0;
#X connect 34 0 27 0;
#X connect 35 0 29 0;
#X connect 35 0 31 0;
#X connect 35 1 36 0;
#X connect 36 0 34 0;
#X connect 37 0 6 0;
#X connect 38 0 2 0;
#X connect 39 0 2 0;
#X connect 40 0 2 0;
#X connect 42 0 45 0;
#X connect 45 0 44 0;
#X connect 45 0 27 1;
#X connect 47 0 41 0;
#X connect 47 0 55 0;
#X connect 49 0 30 0;
#X connect 50 1 27 1;
#X connect 51 0 47 0;
#X connect 51 0 48 0;
#X connect 57 0 59 0;
#X connect 58 0 60 0;
#X connect 58 0 85 0;
#X connect 59 0 94 0;
#X connect 60 0 100 1;
#X connect 62 1 63 0;
#X connect 63 0 61 0;
#X connect 65 0 83 0;
#X connect 65 0 86 1;
#X connect 66 0 81 0;
#X connect 66 0 99 0;
#X connect 67 0 75 0;
#X connect 68 0 73 0;
#X connect 68 1 74 0;
#X connect 69 0 72 0;
#X connect 70 0 68 0;
#X connect 72 0 70 0;
#X connect 73 0 66 0;
#X connect 74 0 66 0;
#X connect 75 0 66 0;
#X connect 78 0 65 1;
#X connect 78 0 80 0;
#X connect 82 0 65 0;
#X connect 84 0 86 0;
#X connect 84 0 88 0;
#X connect 85 0 84 0;
#X connect 85 1 78 0;
#X connect 85 2 82 0;
#X connect 86 0 87 0;
#X connect 86 0 100 0;
#X connect 89 0 92 0;
#X connect 89 0 97 0;
#X connect 90 0 89 0;
#X connect 91 0 98 0;
#X connect 93 0 95 0;
#X connect 94 0 58 0;
#X connect 94 1 93 0;
#X connect 95 0 105 0;
#X connect 96 0 89 1;
#X connect 97 0 91 0;
#X connect 99 0 84 1;
#X connect 99 1 78 1;
#X connect 99 2 91 1;
#X connect 100 0 101 0;
#X connect 100 0 90 0;
#X connect 100 0 107 0;
#X connect 102 0 103 0;
#X connect 102 0 104 0;
#X connect 104 0 91 0;
#X connect 105 0 106 0;
#X connect 105 1 96 0;
#X connect 106 0 102 1;
#X connect 107 0 102 0;
#X connect 107 1 104 0;
#X connect 108 0 110 0;
#X connect 109 0 111 0;
#X connect 109 0 134 0;
#X connect 110 0 113 0;
#X connect 112 0 114 0;
#X connect 113 0 109 0;
#X connect 113 1 112 0;
#X connect 114 0 143 0;
#X connect 115 0 125 0;
#X connect 115 0 142 0;
#X connect 116 0 124 0;
#X connect 117 0 122 0;
#X connect 117 1 123 0;
#X connect 118 0 121 0;
#X connect 119 0 117 0;
#X connect 121 0 119 0;
#X connect 122 0 115 0;
#X connect 123 0 115 0;
#X connect 124 0 115 0;
#X connect 126 0 135 0;
#X connect 126 0 138 0;
#X connect 127 0 131 0;
#X connect 127 0 132 1;
#X connect 128 0 127 1;
#X connect 128 0 129 0;
#X connect 128 0 132 0;
#X connect 130 0 127 0;
#X connect 132 0 133 0;
#X connect 132 0 126 0;
#X connect 134 0 126 1;
#X connect 134 1 128 0;
#X connect 134 2 130 0;
#X connect 136 0 137 0;
#X connect 137 0 139 0;
#X connect 138 0 136 0;
#X connect 139 0 140 0;
#X connect 141 0 139 0;
#X connect 142 0 139 1;
#X connect 142 1 128 1;
#X connect 143 0 136 1;
#X connect 143 1 141 0;
