#N canvas 97 22 1675 1009 10;
#X obj 187 554 vsl 25 50 0 127 0 0 empty empty empty 0 -9 0 10 -262144
-1 -1 3430 1;
#X floatatom 187 612 5 0 0 0 - - -;
#X text -204 63 argument do abstraction;
#X text -200 75 zalezy ile chcemy kontrolowac parametrow;
#X obj -260 73 gate \$1;
#X obj 272 530 gate 3;
#X obj 222 611 send par1;
#X obj 287 554 vsl 25 50 0 127 0 0 empty empty empty 0 -9 0 10 -262144
-1 -1 0 1;
#X floatatom 287 612 5 0 0 0 - - -;
#X obj 385 553 vsl 25 50 0 127 0 0 empty empty empty 0 -9 0 10 -262144
-1 -1 0 1;
#X floatatom 385 611 5 0 0 0 - - -;
#X obj 322 611 send par2;
#X obj 420 610 send par3;
#X floatatom 188 673 5 0 0 0 - - -;
#X floatatom 288 673 5 0 0 0 - - -;
#X floatatom 386 672 5 0 0 0 - - -;
#X obj 188 651 r par1;
#X obj 288 651 r par2;
#X obj 386 650 r par3;
#X text 762 -11 outputs 1 if true \, 0 otherwise;
#X text -257 -44 musza byc spelnione dwa warunki:;
#X text -258 -26 1: numer podmenu sie zgadza;
#X text -257 -2 2: liczba ktora zapamietalismy jest rowna wartosci
jaka otrzymujemy;
#X floatatom 270 -131 5 0 0 0 - - -;
#X obj 424 -18 == 1;
#X obj 424 -79 change;
#X obj 400 7 tgl 15 0 empty empty empty 17 7 0 10 -262144 -1 -1 1 1
;
#X obj 717 -10 != 1;
#X obj 424 -56 t f f;
#X obj 717 12 sel 1;
#X obj 991 255 line 0 100;
#X floatatom 1111 216 5 0 0 0 - - -;
#X obj 991 214 cycle 2;
#X obj 991 152 tgl 15 0 empty empty empty 17 7 0 10 -262144 -1 -1 1
1;
#X msg 991 193 symbol fff;
#X text 1062 192 musisz to dac zeby dzialalo - zamien bang w symbol
;
#X obj 991 171 metro 4000;
#X msg 991 235 0 4000;
#X msg 1049 234 127 4000;
#X obj 1111 234 pack f 0;
#X floatatom 1050 280 5 0 0 0 - - -;
#X obj 409 327 &&;
#X obj 510 213 f;
#X obj 475 161 gate;
#X floatatom 522 183 5 0 0 0 - - -;
#X obj 510 93 bng 15 250 50 0 empty empty empty 17 7 0 10 -262144 -1
-1;
#X floatatom 518 236 5 0 0 0 - - -;
#X obj 475 266 ==;
#X obj 452 289 tgl 15 0 empty empty empty 17 7 0 10 -262144 -1 -1 0
1;
#X obj 424 32 t f f b;
#X obj 409 366 tgl 15 0 empty empty empty 17 7 0 10 -262144 -1 -1 0
1;
#X obj 680 408 onebang;
#X msg 680 432 1;
#X obj 430 367 sel 1;
#X obj 680 498 gate;
#X floatatom 680 523 5 0 0 0 - - -;
#X msg 744 433 0;
#X obj 991 280 t f f;
#X obj 717 48 t b b;
#X text 535 212 store last val;
#X text 519 162 stop storing val when submenu != 1;
#X text 312 -134 first czeck if number corresponds to our submenu (only
when sub menu changed);
#X text 1019 150 data in from pot or sth - simulation;
#X text -256 -92 zapamietuj ostatnia wartosc potencjometra;
#X text -257 -66 jesli nowa wartosc w potencjometra = wartosci przechowanej
;
#X text -255 -79 wysylaj nowa wartosc tylko;
#X text -252 -128 zeby unikac skokow w wartosci \, wzorowane na BASTL
granpa;
#X text 430 6 if submenu val changed and correspnds to X;
#X text 429 48 first bang to czek if stored val == new value;
#X text 429 64 then close gate for saving value;
#X text 473 287 czek if stored value = new incoming value;
#X text 337 347 if incoming new value == stored value and submenu 1
selected;
#X text 716 495 open gate for sending new value;
#X text 764 10 if submenu changed & != then X;
#X text 768 41 close gate for sending value;
#X text 770 57 and reset onebang;
#X obj 270 -108 t f f;
#X text 557 236 last value stored;
#X obj 991 69 inlet;
#X obj 268 -163 inlet;
#X text 1045 69 value in;
#X floatatom 1050 99 5 0 0 0 - - -;
#X obj 991 99 t f f;
#X connect 0 0 1 0;
#X connect 0 0 6 0;
#X connect 5 0 0 0;
#X connect 5 1 7 0;
#X connect 5 2 9 0;
#X connect 7 0 8 0;
#X connect 7 0 11 0;
#X connect 9 0 10 0;
#X connect 9 0 12 0;
#X connect 16 0 13 0;
#X connect 17 0 14 0;
#X connect 18 0 15 0;
#X connect 23 0 76 0;
#X connect 24 0 26 0;
#X connect 24 0 49 0;
#X connect 25 0 28 0;
#X connect 27 0 29 0;
#X connect 28 0 24 0;
#X connect 28 1 27 0;
#X connect 29 0 58 0;
#X connect 30 0 40 0;
#X connect 30 0 57 0;
#X connect 31 0 39 0;
#X connect 32 0 37 0;
#X connect 32 1 38 0;
#X connect 33 0 36 0;
#X connect 34 0 32 0;
#X connect 36 0 34 0;
#X connect 37 0 30 0;
#X connect 38 0 30 0;
#X connect 39 0 30 0;
#X connect 41 0 50 0;
#X connect 41 0 53 0;
#X connect 42 0 46 0;
#X connect 42 0 47 1;
#X connect 43 0 42 1;
#X connect 43 0 44 0;
#X connect 43 0 47 0;
#X connect 45 0 42 0;
#X connect 47 0 48 0;
#X connect 47 0 41 0;
#X connect 49 0 41 1;
#X connect 49 1 43 0;
#X connect 49 2 45 0;
#X connect 51 0 52 0;
#X connect 52 0 54 0;
#X connect 53 0 51 0;
#X connect 54 0 55 0;
#X connect 54 0 5 1;
#X connect 56 0 54 0;
#X connect 57 0 54 1;
#X connect 57 1 43 1;
#X connect 58 0 51 1;
#X connect 58 1 56 0;
#X connect 76 0 5 0;
#X connect 76 1 25 0;
#X connect 78 0 82 0;
#X connect 78 0 81 0;
