#N canvas 1929 321 572 171 10;
#X floatatom 203 99 5 0 0 0 - - -;
#X text 25 102 out1=value if conditions met;
#X text 25 117 out2= stored value;
#X floatatom 248 99 5 0 0 0 - - -;
#X floatatom 248 28 5 0 0 0 - - -;
#X floatatom 293 100 5 0 0 0 - - -;
#X floatatom 345 101 5 0 0 0 - - -;
#X floatatom 389 102 5 0 0 0 - - -;
#X floatatom 464 102 5 0 0 0 - - -;
#X obj 203 55 pack f f;
#X floatatom 203 27 5 0 0 0 - - -;
#X obj 203 79 oneSTOREval 1;
#X obj 389 80 oneSTOREval 3;
#X obj 293 80 oneSTOREval 2;
#X floatatom 338 30 5 0 0 0 - - -;
#X obj 293 57 pack f f;
#X floatatom 293 29 5 0 0 0 - - -;
#X text 47 55 in=list: val \, sub number;
#X floatatom 434 28 5 0 0 0 - - -;
#X obj 389 55 pack f f;
#X floatatom 389 27 5 0 0 0 - - -;
#X connect 4 0 9 1;
#X connect 9 0 11 0;
#X connect 10 0 9 0;
#X connect 11 0 0 0;
#X connect 11 1 3 0;
#X connect 12 0 7 0;
#X connect 12 1 8 0;
#X connect 13 0 5 0;
#X connect 13 1 6 0;
#X connect 14 0 15 1;
#X connect 15 0 13 0;
#X connect 16 0 15 0;
#X connect 18 0 19 1;
#X connect 19 0 12 0;
#X connect 20 0 19 0;
