#N canvas 742 25 1177 561 10;
#X floatatom -172 -778 5 0 0 0 - - -;
#X obj -194 -803 r subMENUtest;
#X obj -447 -606 oneSTOREval 1;
#X text -377 -636 in = lista: val \, sub number;
#X text -441 -584 out 1=value if conditions met;
#X text -314 -564 out2= stored val;
#X obj -169 -522 ONEardANALOGin 20 6 0.5 0.1 2 0.1;
#X obj -447 -521 ONEardANALOGin 20 6 0.5 0.0001 0.01 0;
#X floatatom -447 -557 5 0 0 0 - - -;
#X floatatom -359 -555 5 0 0 0 - - -;
#X floatatom -150 -551 5 0 0 0 - - -;
#X floatatom -77 -554 5 0 0 0 - - -;
#X floatatom -322 -487 7 0 0 0 - - -;
#X floatatom -70 -490 7 0 0 0 - - -;
#X obj -169 -599 oneSTOREval 2;
#X obj -447 -487 s STOREDval1;
#X obj -169 -491 s STOREDval2;
#X obj -333 -790 r subMENUtestVAL;
#X text -451 -865 for testing 2nd pot from left from general ins;
#X text 473 -586 dziala \, ale wartosci skacza (nie wszystkie sie pokazuja)
\, trzeba albo zeskalowac albo zesmoothowac...;
#X obj -447 -683 pack f f;
#X obj -141 -679 scale 0 1023 0 100;
#X text 475 -554 median nie dziala \, smooth tez nie \, najlepiej skalowanie
i na int \, ale tracimy wtedy rozdzielczosc?;
#X obj -138 -704 / 10;
#X text -323 -727 dzielenie dziala spoko \, ale nie zawsze lapie;
#X text -320 -710 trza powoli ruszac gała;
#X floatatom -390 -749 5 0 0 0 - - -;
#X obj -442 -834 tgl 15 0 empty empty empty 17 7 0 10 -262144 -1 -1
0 1;
#X obj -441 -815 metro 10;
#X text -20 -1000 VAL STORE MULTIPLE + WYSLIJ W ROZNE MIEJSCA;
#X floatatom 177 -493 5 0 0 0 - - -;
#X floatatom 224 -494 5 0 0 0 - - -;
#X floatatom 270 -493 5 0 0 0 - - -;
#X floatatom 317 -491 5 0 0 0 - - -;
#X floatatom 367 -495 5 0 0 0 - - -;
#X floatatom 415 -493 5 0 0 0 - - -;
#X floatatom 469 -497 5 0 0 0 - - -;
#X floatatom 520 -494 5 0 0 0 - - -;
#X obj 423 -822 inlet selector;
#X obj 456 -795 + 1;
#X obj 422 -771 i;
#X obj 423 -793 bng 15 250 50 0 empty empty empty 17 7 0 10 -262144
-1 -1;
#X obj 423 -749 + 1;
#X obj 454 -772 % 5;
#X text -433 -884 for test lower left switch from general ins;
#X text -337 -821 FOR SINGLE VALUE;
#X obj 162 -832 r panel1sound8val;
#X obj 89 -772 unpack f f f f f f f f;
#X floatatom 106 -749 5 0 0 0 - - -;
#X floatatom 123 -729 5 0 0 0 - - -;
#X floatatom 149 -749 5 0 0 0 - - -;
#X floatatom 165 -728 5 0 0 0 - - -;
#X floatatom 196 -748 5 0 0 0 - - -;
#X floatatom 211 -727 5 0 0 0 - - -;
#X floatatom 238 -748 5 0 0 0 - - -;
#X floatatom 251 -725 5 0 0 0 - - -;
#X text 114 -874 FOR MULTIPLE VALUES;
#X obj 40 -861 gate;
#X obj 40 -833 print;
#X obj 40 -887 tgl 15 0 empty empty empty 17 7 0 10 -262144 -1 -1 0
1;
#X obj 313 -759 gate;
#X obj 313 -785 tgl 15 0 empty empty empty 17 7 0 10 -262144 -1 -1
0 1;
#X text 220 -646 ARGUMENT - SUBSEND MENU FOR 8 VALUES;
#X text 557 -644 DOSTAJE liste z 8 wartosciamy w inletcie;
#X text 556 -634 a w destination w argumencie;
#X text 596 -620 sprawdza czy ten numer sie zgadza;
#X text 555 -612 na koniec pakuje z powrotem w jeden messydz;
#X obj 86 -505 outlet;
#X obj -441 -784 counter 102;
#X obj 294 -951 tgl 15 0 empty empty empty 17 7 0 10 -262144 -1 -1
0 1;
#X obj 295 -932 metro 10;
#X obj 295 -909 counter 102;
#X obj 295 -885 t f f f f f f f f;
#X obj 294 -861 pack f f f f f f f f;
#X floatatom 423 -709 5 0 0 0 - - -;
#X obj 294 -729 zl join;
#X obj 294 -702 t l l l l l;
#X obj 276 -530 unpack f f f f f f f f f;
#X floatatom 567 -497 5 0 0 0 - - -;
#X obj 182 -625 8storeVal 2;
#X obj 86 -625 8storeVal 1;
#X obj 275 -623 8storeVal 3;
#X obj 369 -623 8storeVal 4;
#X obj 469 -622 8storeVal 5;
#X text 607 -498 lst=submenu;
#X obj -58 -861 + 1;
#X obj -92 -837 i;
#X obj -91 -859 bng 15 250 50 0 empty empty empty 17 7 0 10 -262144
-1 -1;
#X obj -91 -815 + 1;
#X obj -60 -838 % 5;
#X floatatom -91 -775 5 0 0 0 - - -;
#X floatatom 569 -797 5 0 0 0 - - -;
#X obj 547 -822 r subMENUtest;
#X connect 1 0 0 0;
#X connect 1 0 20 1;
#X connect 2 0 8 0;
#X connect 2 1 9 0;
#X connect 6 0 13 0;
#X connect 6 0 16 0;
#X connect 7 0 12 0;
#X connect 7 0 15 0;
#X connect 8 0 7 0;
#X connect 14 0 10 0;
#X connect 14 0 6 0;
#X connect 14 1 11 0;
#X connect 17 0 20 0;
#X connect 20 0 2 0;
#X connect 20 0 14 0;
#X connect 27 0 28 0;
#X connect 28 0 68 0;
#X connect 38 0 41 0;
#X connect 39 0 43 0;
#X connect 40 0 39 0;
#X connect 40 0 42 0;
#X connect 41 0 40 0;
#X connect 42 0 74 0;
#X connect 42 0 75 1;
#X connect 43 0 40 1;
#X connect 46 0 47 0;
#X connect 46 0 60 1;
#X connect 47 0 48 0;
#X connect 47 1 49 0;
#X connect 47 2 50 0;
#X connect 47 3 51 0;
#X connect 47 4 52 0;
#X connect 47 5 53 0;
#X connect 47 6 54 0;
#X connect 47 7 55 0;
#X connect 57 0 58 0;
#X connect 59 0 57 0;
#X connect 60 0 75 0;
#X connect 61 0 60 0;
#X connect 68 0 26 0;
#X connect 68 0 20 0;
#X connect 69 0 70 0;
#X connect 70 0 71 0;
#X connect 71 0 72 0;
#X connect 72 0 73 0;
#X connect 72 1 73 1;
#X connect 72 2 73 2;
#X connect 72 3 73 3;
#X connect 72 4 73 4;
#X connect 72 5 73 5;
#X connect 72 6 73 6;
#X connect 72 7 73 7;
#X connect 73 0 75 0;
#X connect 75 0 76 0;
#X connect 76 0 80 0;
#X connect 76 1 79 0;
#X connect 76 2 81 0;
#X connect 76 3 82 0;
#X connect 76 4 83 0;
#X connect 77 0 30 0;
#X connect 77 1 31 0;
#X connect 77 2 32 0;
#X connect 77 3 33 0;
#X connect 77 4 34 0;
#X connect 77 5 35 0;
#X connect 77 6 36 0;
#X connect 77 7 37 0;
#X connect 77 8 78 0;
#X connect 79 0 77 0;
#X connect 79 0 67 0;
#X connect 80 0 67 0;
#X connect 80 0 77 0;
#X connect 81 0 77 0;
#X connect 81 0 67 0;
#X connect 82 0 77 0;
#X connect 82 0 67 0;
#X connect 83 0 77 0;
#X connect 83 0 67 0;
#X connect 85 0 89 0;
#X connect 86 0 85 0;
#X connect 86 0 88 0;
#X connect 87 0 86 0;
#X connect 88 0 90 0;
#X connect 88 0 20 1;
#X connect 89 0 86 1;
#X connect 92 0 91 0;
#X connect 92 0 41 0;
