#N canvas 191 1042 1057 615 10;
#X obj 107 35 inlet;
#X obj 333 258 mtof;
#X text 47 536 audio out;
#X obj 314 184 bng 15 250 50 0 empty empty empty 17 7 0 10 -262144
-1 -1;
#X floatatom 505 246 5 0 0 0 - - -, f 5;
#X obj 653 182 ftom;
#X floatatom 653 115 5 0 0 0 - - -, f 5;
#X obj 653 133 mtof;
#X floatatom 638 370 10 0 0 0 - - -, f 10;
#X text 121 512 Q ZMIENIALO SIE Z CZESTOTLIWOSCIA? \, IM WYZSZA TYM
WIEKSZE Q;
#X text 39 13 audio in;
#X text 388 319 FREQ;
#X text 714 368 Q;
#X text 141 449 GAIN;
#X text 126 536 ARGUMENT TO ABSTRACTION \$1 = FILTER FREQUENCY IN MIDI!
;
#X obj 333 281 t f f;
#X floatatom 350 323 5 0 0 0 - - -, f 5;
#X obj 558 344 * 10, f 19;
#X text 695 183 MIDI MAX NOTE = 127;
#X obj 731 133 r q_factor;
#X obj 333 206 f \$2;
#X obj 394 186 f \$1;
#X obj 333 137 loadbang;
#X obj 394 213 * 3;
#X obj 333 232 +;
#X obj 46 34 inlet~;
#X obj 47 520 outlet~;
#X text 694 37 \$1 = sensor numebr = clone subpatch numebr;
#X text 104 16 sensor ctrls gain;
#X text 366 234 Ffreq from arg \$2;
#X text 693 55 \$2 = filt frequency = 15 + subpatch numebr * 3;
#X obj 731 277 t b f;
#X obj 621 252 + 1;
#X obj 505 31 r inverse_q_mapping;
#X obj 505 164 + 1;
#X floatatom 565 306 5 0 0 0 - - -, f 5;
#X obj 505 184 t b f, f 8;
#X text 133 360 round to 0;
#X msg 107 357 0;
#X obj 558 281 cyclone/switch 2 2;
#X obj 48 492 bp~, f 82;
#X obj 47 468 *~, f 9;
#X obj 621 228 * -1;
#X obj 653 205 / 127;
#X obj 107 403 * 1, f 10;
#X obj 558 375 t b f f, f 9;
#X obj 107 381 * 10;
#X obj 107 448 line;
#X obj 619 464 line;
#X obj 107 425 pack f 150;
#X obj 618 435 pack f 150;
#X obj 107 58 *;
#X obj 107 337 moses 0.15;
#X obj 225 299 switch~;
#X msg 225 276 0;
#X obj 225 254 loadbang;
#X obj 139 300 outlet dsp;
#X obj 139 247 change;
#X obj 139 120 change;
#X obj 139 224 spigot, f 9;
#X obj 139 162 sel 0, f 6;
#X msg 139 205 0;
#X obj 199 166 != 1;
#X obj 139 142 t f f f, f 17;
#X obj 255 185 sel 1, f 6;
#X msg 255 227 1;
#X obj 333 164 t b b b, f 18;
#X obj 107 80 t f f;
#X obj 139 99 > 0.1;
#X obj 139 183 del 5000;
#X connect 0 0 51 1;
#X connect 0 0 51 0;
#X connect 1 0 15 0;
#X connect 3 0 20 0;
#X connect 4 0 5 0;
#X connect 5 0 43 0;
#X connect 6 0 7 0;
#X connect 7 0 5 0;
#X connect 15 0 16 0;
#X connect 15 0 40 1;
#X connect 15 1 4 0;
#X connect 17 0 8 0;
#X connect 17 0 45 0;
#X connect 19 0 31 0;
#X connect 20 0 24 0;
#X connect 21 0 23 0;
#X connect 22 0 66 0;
#X connect 23 0 24 1;
#X connect 24 0 1 0;
#X connect 25 0 41 0;
#X connect 31 0 17 0;
#X connect 31 1 17 1;
#X connect 32 0 39 1;
#X connect 33 0 34 0;
#X connect 34 0 36 0;
#X connect 36 0 4 0;
#X connect 36 1 39 0;
#X connect 38 0 46 0;
#X connect 39 0 17 0;
#X connect 39 0 35 0;
#X connect 40 0 26 0;
#X connect 41 0 40 0;
#X connect 42 0 32 0;
#X connect 43 0 39 2;
#X connect 43 0 42 0;
#X connect 44 0 49 0;
#X connect 45 0 44 0;
#X connect 45 1 44 1;
#X connect 45 2 50 0;
#X connect 46 0 44 0;
#X connect 47 0 41 1;
#X connect 48 0 40 2;
#X connect 49 0 47 0;
#X connect 50 0 48 0;
#X connect 51 0 67 0;
#X connect 52 0 38 0;
#X connect 52 1 46 0;
#X connect 54 0 56 0;
#X connect 54 0 53 0;
#X connect 55 0 54 0;
#X connect 57 0 56 0;
#X connect 57 0 53 0;
#X connect 58 0 63 0;
#X connect 59 0 57 0;
#X connect 60 0 69 0;
#X connect 61 0 59 0;
#X connect 62 0 59 1;
#X connect 63 0 60 0;
#X connect 63 1 62 0;
#X connect 63 2 64 0;
#X connect 64 0 65 0;
#X connect 65 0 57 0;
#X connect 66 0 20 0;
#X connect 66 1 21 0;
#X connect 66 2 34 0;
#X connect 67 0 52 0;
#X connect 67 1 68 0;
#X connect 68 0 58 0;
#X connect 69 0 61 0;
