#N canvas 161 207 1225 688 12;
#X obj 233 170 inlet;
#X obj 409 258 mtof;
#X text 121 601 audio out;
#X obj 390 184 bng 15 250 50 0 empty empty empty 17 7 0 10 -262144
-1 -1;
#X floatatom 585 266 5 0 0 0 - - -;
#X obj 733 222 ftom;
#X floatatom 733 185 5 0 0 0 - - -;
#X obj 733 203 mtof;
#X text 75 64 Q ZMIENIALO SIE Z CZESTOTLIWOSCIA? \, IM WYZSZA TYM WIEKSZE
Q;
#X text 49 153 audio in;
#X text 464 319 FREQ;
#X text 795 486 Q;
#X text 267 448 GAIN;
#X obj 409 281 t f f;
#X floatatom 426 323 5 0 0 0 - - -;
#X obj 638 394 * 10, f 19;
#X text 775 223 MIDI MAX NOTE = 127;
#X obj 811 153 r q_factor;
#X obj 409 206 f \$2;
#X obj 470 186 f \$1;
#X obj 409 137 loadbang;
#X obj 470 213 * 3;
#X obj 409 232 +;
#X obj 56 174 inlet~;
#X obj 56 606 outlet~;
#X text 75 24 \$1 = sensor numebr = clone subpatch numebr;
#X text 230 151 sensor ctrls gain;
#X text 442 234 Ffreq from arg \$2;
#X text 74 42 \$2 = filt frequency = 15 + subpatch numebr * 3;
#X obj 811 347 t b f;
#X obj 701 292 + 1;
#X obj 585 141 r inverse_q_mapping;
#X obj 585 194 + 1;
#X floatatom 645 346 5 0 0 0 - - -;
#X obj 585 234 t b f, f 8;
#X text 259 269 round to 0;
#X msg 233 266 0;
#X obj 638 321 cyclone/switch 2 2;
#X obj 701 268 * -1;
#X obj 733 245 / 127;
#X obj 233 392 * 1, f 10;
#X obj 638 435 t b f f, f 9;
#X obj 233 290 * 10;
#X obj 233 447 line;
#X obj 233 193 *;
#X obj 233 246 moses 0.15;
#X obj 409 164 t b b b, f 18;
#X obj 233 215 t f f;
#X text 35 515 input signal;
#X text 408 508 center freq;
#X text 245 505 gain;
#X text 73 568 filtered output;
#X text 716 575 Q: Try range of 1-100;
#X obj 57 535 reson~ 1 2 3, f 76;
#X floatatom 280 478 5 0 0 0 - - -;
#X floatatom 744 485 5 0 0 0 - - -;
#X obj 233 477 sig~;
#X obj 233 424 pack f 50;
#X obj 698 510 sig~;
#X connect 0 0 44 1;
#X connect 0 0 44 0;
#X connect 1 0 13 0;
#X connect 3 0 18 0;
#X connect 4 0 5 0;
#X connect 5 0 39 0;
#X connect 6 0 7 0;
#X connect 7 0 5 0;
#X connect 13 0 14 0;
#X connect 13 0 53 2;
#X connect 13 1 4 0;
#X connect 15 0 41 0;
#X connect 17 0 29 0;
#X connect 18 0 22 0;
#X connect 19 0 21 0;
#X connect 20 0 46 0;
#X connect 21 0 22 1;
#X connect 22 0 1 0;
#X connect 23 0 53 0;
#X connect 29 0 15 0;
#X connect 29 1 15 1;
#X connect 30 0 37 1;
#X connect 31 0 32 0;
#X connect 32 0 34 0;
#X connect 34 0 4 0;
#X connect 34 1 37 0;
#X connect 36 0 42 0;
#X connect 37 0 15 0;
#X connect 37 0 33 0;
#X connect 38 0 30 0;
#X connect 39 0 37 2;
#X connect 39 0 38 0;
#X connect 40 0 57 0;
#X connect 41 0 40 0;
#X connect 41 1 40 1;
#X connect 41 2 58 0;
#X connect 41 2 55 0;
#X connect 42 0 40 0;
#X connect 43 0 54 0;
#X connect 43 0 56 0;
#X connect 44 0 47 0;
#X connect 45 0 36 0;
#X connect 45 1 42 0;
#X connect 46 0 18 0;
#X connect 46 1 19 0;
#X connect 46 2 32 0;
#X connect 47 0 45 0;
#X connect 53 0 24 0;
#X connect 56 0 53 1;
#X connect 57 0 43 0;
#X connect 58 0 53 3;
