#N canvas 0 51 1014 565 10;
#X obj 112 105 inlet;
#X obj 333 228 mtof;
#X text 47 506 audio out;
#X obj 314 144 bng 15 250 50 0 empty empty empty 17 7 0 10 -262144
-1 -1;
#X floatatom 505 196 5 0 0 0 - - -, f 5;
#X obj 682 122 ftom;
#X floatatom 682 85 5 0 0 0 - - -, f 5;
#X obj 682 103 mtof;
#X floatatom 701 330 10 0 0 0 - - -, f 10;
#X text 121 477 Q ZMIENIALO SIE Z CZESTOTLIWOSCIA? \, IM WYZSZA TYM
WIEKSZE Q;
#X text 39 87 audio in;
#X text 349 300 FREQ;
#X text 777 328 Q;
#X text 245 403 GAIN;
#X text 126 506 ARGUMENT TO ABSTRACTION \$1 = FILTER FREQUENCY IN MIDI!
;
#X obj 333 251 t f f;
#X floatatom 350 283 5 0 0 0 - - -, f 5;
#X floatatom 345 146 5 0 0 0 - - -, f 5;
#X obj 621 304 * 10, f 19;
#X text 724 123 MIDI MAX NOTE = 127;
#X obj 828 235 r q_factor;
#X obj 333 176 f \$2;
#X obj 394 146 f \$1;
#X obj 333 67 loadbang;
#X obj 394 173 * 3;
#X obj 333 202 +;
#X floatatom 287 241 5 0 0 0 - - -, f 5;
#X obj 46 108 inlet~;
#X obj 47 490 outlet~;
#X text 53 25 \$1 = sensor numebr = clone subpatch numebr;
#X text 129 86 sensor ctrls gain;
#X text 366 204 Ffreq from arg \$2;
#X text 52 43 \$2 = filt frequency = 15 + subpatch numebr * 3;
#X obj 828 269 t b f;
#X obj 682 232 + 1;
#X floatatom 641 254 5 0 0 0 - - -, f 5;
#X obj 505 71 r inverse_q_mapping;
#X obj 540 125 tgl 15 0 empty empty empty 17 7 0 10 -262144 -1 -1 0
1;
#X obj 505 124 + 1;
#X obj 488 257 bng 15 250 50 0 empty empty empty 17 7 0 10 -262144
-1 -1;
#X floatatom 564 305 5 0 0 0 - - -, f 5;
#X obj 505 154 t b f, f 17;
#X text 97 177 round to 0;
#X msg 111 201 0;
#X obj 621 271 cyclone/switch 2 2;
#X obj 48 452 bp~, f 82;
#X obj 47 428 *~, f 9;
#X obj 682 208 * -1;
#X obj 682 145 / 127;
#X obj 211 357 * 1, f 26;
#X obj 621 335 t b f f, f 9;
#X obj 211 255 * 10;
#X obj 211 402 line;
#X obj 677 424 line;
#X obj 211 379 pack f 150;
#X obj 680 395 pack f 150;
#X obj 179 174 t b f;
#X msg 179 199 1;
#X obj 65 309 switch~;
#X obj 65 259 change;
#X obj 112 128 *;
#X obj 112 151 moses 0.15;
#X obj 65 154 > 0.2;
#X obj 333 94 t b b b b, f 18;
#X obj 128 309 outlet dsp;
#X connect 0 0 60 1;
#X connect 0 0 60 0;
#X connect 1 0 15 0;
#X connect 3 0 21 0;
#X connect 4 0 5 0;
#X connect 5 0 48 0;
#X connect 6 0 7 0;
#X connect 7 0 5 0;
#X connect 15 0 16 0;
#X connect 15 0 45 1;
#X connect 15 1 4 0;
#X connect 17 0 21 0;
#X connect 18 0 8 0;
#X connect 18 0 50 0;
#X connect 20 0 33 0;
#X connect 21 0 25 0;
#X connect 22 0 24 0;
#X connect 23 0 63 0;
#X connect 24 0 25 1;
#X connect 25 0 1 0;
#X connect 25 0 26 0;
#X connect 27 0 46 0;
#X connect 33 0 18 0;
#X connect 33 1 18 1;
#X connect 34 0 35 0;
#X connect 34 0 44 1;
#X connect 36 0 37 0;
#X connect 36 0 38 0;
#X connect 38 0 41 0;
#X connect 39 0 44 0;
#X connect 41 0 4 0;
#X connect 41 1 44 0;
#X connect 43 0 51 0;
#X connect 43 0 59 0;
#X connect 44 0 18 0;
#X connect 44 0 40 0;
#X connect 45 0 28 0;
#X connect 46 0 45 0;
#X connect 47 0 34 0;
#X connect 48 0 44 2;
#X connect 48 0 47 0;
#X connect 49 0 54 0;
#X connect 50 0 49 0;
#X connect 50 1 49 1;
#X connect 50 2 55 0;
#X connect 51 0 49 0;
#X connect 52 0 46 1;
#X connect 53 0 45 2;
#X connect 54 0 52 0;
#X connect 55 0 53 0;
#X connect 56 0 57 0;
#X connect 56 1 51 0;
#X connect 57 0 59 0;
#X connect 59 0 58 0;
#X connect 59 0 64 0;
#X connect 60 0 61 0;
#X connect 60 0 62 0;
#X connect 61 0 43 0;
#X connect 61 1 56 0;
#X connect 62 0 59 0;
#X connect 63 0 21 0;
#X connect 63 1 22 0;
#X connect 63 2 38 0;
#X connect 63 3 43 0;
