#N canvas 374 105 633 566 10;
#X obj 37 221 line~;
#X obj 37 310 *~;
#X obj 37 378 *~;
#X text 102 159 start point in smpl(0-1) \, destination (0-1) \, time
;
#X text 85 377 multiply audio file * envelope;
#X msg 56 188 0 \, 1 100;
#X text 275 335 or use a table;
#X obj 55 274 r length;
#X msg 37 159 \$1 \, \$2 \$3;
#X msg 138 248 0 \, 127 \$3;
#X obj 37 133 t l l, f 17;
#X obj 138 274 line~;
#X obj 138 339 tabread~ hanning01;
#X obj 37 433 throw~ grain;
#X text 183 278 comment;
#X obj 37 334 tabread4~ kac;
#X obj 37 103 inlet;
#X obj 37 401 *~ 0.99;
#X connect 0 0 1 0;
#X connect 1 0 15 0;
#X connect 2 0 17 0;
#X connect 5 0 0 0;
#X connect 7 0 1 1;
#X connect 8 0 0 0;
#X connect 9 0 11 0;
#X connect 10 0 8 0;
#X connect 10 1 9 0;
#X connect 11 0 12 0;
#X connect 12 0 2 1;
#X connect 15 0 2 0;
#X connect 16 0 10 0;
#X connect 17 0 13 0;
