#N canvas 495 228 900 750 12;
#X obj 225 281 *;
#X obj 172 345 *, f 20;
#X text 584 326 from sample;
#X obj 120 594 tgl 15 0 empty empty empty 17 7 0 10 -262144 -1 -1 0
1;
#X text 139 592 Inlet 1 \, float: Start/stop playing looped sample
;
#X obj 540 665 bng 15 250 50 0 empty empty empty 17 7 0 10 -262144
-1 -1;
#X text 530 691 Outlet 4 \, bang: done;
#X msg 172 387 grain \$1;
#X obj 35 125 bng 15 250 50 0 empty empty empty 17 7 0 10 -262144 -1
-1;
#X text 491 153 Inlet 1 \, bang: Play sample once;
#X text 569 616 Inlet 3 \, float: Duration in milliseconds;
#X floatatom 585 306 10 0 0 0 - - -;
#X floatatom 390 369 5 0 0 0 - - -;
#X text 488 171 Inlet 1 \, grain float:;
#X floatatom 552 511 10 0 0 0 - - -;
#X obj 540 405 *, f 23;
#X text 196 508 grain length;
#X text 648 170 grain length (# of samples);
#X text 423 569 In 2-Pitch 1=original;
#X floatatom 390 505 5 0 0 0 - - -;
#X text 398 484 picz;
#X text 645 502 Dur in ms;
#X obj 725 352 r durFACTOR;
#X obj 309 153 r grainLENfactor;
#X obj 108 662 outlet~;
#X obj 251 662 outlet~;
#X text 623 647 * dur factor from pot;
#X text 568 631 random based on;
#X text 563 650 smp len;
#X obj 172 313 random, f 8;
#X text 487 186 randomized based on smp len;
#X text 685 186 * grain Factor from pot;
#X floatatom 199 493 9 0 0 0 - - -;
#X obj 109 38 inlet;
#X obj 49 85 bng 15 250 50 0 empty empty empty 17 7 0 10 -262144 -1
-1;
#X obj 375 190 inlet 01-sens;
#X obj 395 662 outlet~;
#X obj 89 159 tgl 15 0 empty empty empty 17 7 0 10 -262144 -1 -1 0
1;
#X obj 79 36 tgl 15 0 empty empty empty 17 7 0 10 -262144 -1 -1 0 1
;
#X floatatom 388 568 5 0 0 0 - - -;
#X text 398 690 out 3 - progress;
#X obj 337 273 t f f f, f 24;
#X obj 540 315 *;
#X floatatom 375 238 5 0 0 0 - - -;
#X floatatom 551 351 9 0 0 0 - - -;
#X obj 172 158 sel 1;
#X text 156 81 FLOAT 1 / 0 PLAY SMPL LOOPED ON OFF;
#X obj 390 311 * 0.5;
#X text 538 229 INLET 2 - PITCH FROM SENSOR - 0.5 - 1.5;
#X obj 725 375 * 0.5;
#X text 637 516 LESS - is MORE!;
#X text 219 229 from sample;
#X obj 390 343 + 0.5;
#X obj 243 210 r smp\$1Len;
#X obj 573 276 r smp\$1Len;
#X text 108 6 ABSTRACTION TO PLAY GRANULAR STRECZ;
#X text 389 4 ARG \$1 - NUMBER OF BUFFER / SUMPLER TO PLAY;
#X text 161 38 INLET 1 - 1/0 ON OFF LOOP;
#X text 257 118 INLET 2 -0-1 from sensor brightest;
#X obj 109 616 tof/sample_granule~ smpgranu\$1, f 62;
#X text 139 699 out 1 & 2 - audio out;
#X obj 109 177 sel 1;
#X obj 109 129 t f f, f 11;
#X connect 0 0 29 1;
#X connect 1 0 7 0;
#X connect 1 0 32 0;
#X connect 3 0 59 0;
#X connect 7 0 59 0;
#X connect 8 0 62 0;
#X connect 12 0 19 0;
#X connect 12 0 59 1;
#X connect 15 0 14 0;
#X connect 15 0 59 2;
#X connect 22 0 49 0;
#X connect 23 0 1 1;
#X connect 29 0 1 0;
#X connect 33 0 34 0;
#X connect 33 0 62 0;
#X connect 35 0 41 0;
#X connect 35 0 43 0;
#X connect 38 0 62 0;
#X connect 39 0 59 1;
#X connect 41 0 0 0;
#X connect 41 1 47 0;
#X connect 41 2 42 0;
#X connect 42 0 15 0;
#X connect 42 0 44 0;
#X connect 45 0 29 0;
#X connect 47 0 52 0;
#X connect 49 0 15 1;
#X connect 52 0 12 0;
#X connect 53 0 0 1;
#X connect 54 0 11 0;
#X connect 54 0 42 1;
#X connect 59 0 24 0;
#X connect 59 1 25 0;
#X connect 59 2 36 0;
#X connect 59 3 5 0;
#X connect 61 0 59 0;
#X connect 62 0 37 0;
#X connect 62 0 61 0;
#X connect 62 1 45 0;
