#N canvas 186 71 900 750 12;
#X obj 256 301 *;
#X obj 152 415 *, f 11;
#X text 662 144 from sample;
#X obj 3 566 tgl 15 0 empty empty empty 17 7 0 10 -262144 -1 -1 0 1
;
#X text 141 593 Inlet 1 \, float: Start/stop playing looped sample
;
#X obj 636 665 bng 15 250 50 0 empty empty empty 17 7 0 10 -262144
-1 -1;
#X text 557 690 Outlet 4 \, bang: done;
#X msg 152 447 grain \$1;
#X obj 164 91 bng 15 250 50 0 empty empty empty 17 7 0 10 -262144 -1
-1;
#X text 140 576 Inlet 1 \, bang: Play sample once;
#X text 579 616 Inlet 3 \, float: Duration in milliseconds;
#X floatatom 694 216 10 0 0 0 - - -;
#X floatatom 387 476 5 0 0 0 - - -;
#X floatatom 566 511 10 0 0 0 - - -;
#X obj 554 455 *, f 14;
#X text 7 426 grain length;
#X text 152 475 grain length (# of samples);
#X text 383 546 In 2-Pitch 1=original;
#X floatatom 387 522 5 0 0 0 - - -;
#X text 395 501 picz;
#X text 649 502 Dur in ms;
#X obj 108 662 outlet~;
#X obj 256 662 outlet~;
#X text 633 647 * dur factor from pot;
#X text 578 631 random based on;
#X text 573 650 smp len;
#X obj 152 323 random, f 8;
#X text 157 489 randomized based on smp len;
#X text 154 500 * grain Factor from pot;
#X floatatom 34 453 9 0 0 0 - - -;
#X obj 62 28 inlet;
#X obj 286 86 inlet 01-sens;
#X obj 405 662 outlet~;
#X obj 32 36 tgl 15 0 empty empty empty 17 7 0 10 -262144 -1 -1 0 1
;
#X text 373 691 out 3 - progress;
#X obj 256 193 t f f f, f 38;
#X obj 649 255 *;
#X floatatom 208 197 5 0 0 0 - - -;
#X floatatom 660 291 9 0 0 0 - - -;
#X obj 387 398 * 0.5;
#X text 385 93 INLET 2 - PITCH FROM SENSOR - 0.5 - 1.5;
#X text 641 516 LESS - is MORE!;
#X obj 387 423 + 0.5;
#X obj 274 230 r smp\$1Len;
#X obj 667 166 r smp\$1Len;
#X text 61 6 ABSTRACTION TO PLAY GRANULAR STRECZ;
#X text 389 4 ARG \$1 - NUMBER OF BUFFER / SUMPLER TO PLAY;
#X text 118 27 INLET 1 - 1/0 ON OFF LOOP;
#X text 383 77 INLET 2 -0-1 from sensor brightest;
#X obj 109 616 tof/sample_granule~ smpgranu\$1, f 64;
#X text 121 687 out 1 & 2 - audio out;
#X obj 27 563 r stop;
#X floatatom 285 275 10 0 0 0 - - -;
#X obj 109 87 sel 1;
#X obj 109 122 t b b b b, f 19;
#X obj 256 88 bng 15 250 50 0 empty empty empty 17 7 0 10 -262144 -1
-1;
#X obj 256 165 f;
#X obj 387 445 + 0, f 7;
#X floatatom 443 379 5 0 0 0 - - -;
#X obj 226 352 r LEN_factor;
#X obj 554 350 r LEN_factor;
#X obj 433 354 r PITCH_factor;
#X obj 554 661 outlet done;
#X text 11 231 STOP;
#X text 10 248 avoid clicks?;
#X obj 62 54 t f f;
#X obj 18 87 sel 0;
#X msg 54 231 0;
#X text 10 264 needed in some cases;
#X obj 57 163 tgl 15 0 empty SMPL_PL_STYLE SMPL_PL_STYLE 17 7 0 10
-258113 -1 -1 1 1;
#X obj 18 193 spigot;
#X obj 19 311 bng 15 250 50 0 empty empty empty 17 7 0 10 -262144 -1
-1;
#X obj 554 375 + 0.05;
#X connect 0 0 26 1;
#X connect 1 0 7 0;
#X connect 1 0 29 0;
#X connect 3 0 49 0;
#X connect 7 0 49 0;
#X connect 8 0 54 0;
#X connect 12 0 18 0;
#X connect 12 0 49 1;
#X connect 14 0 13 0;
#X connect 14 0 49 2;
#X connect 26 0 1 0;
#X connect 30 0 65 0;
#X connect 31 0 56 0;
#X connect 33 0 65 0;
#X connect 35 0 0 0;
#X connect 35 1 39 0;
#X connect 35 2 36 0;
#X connect 36 0 38 0;
#X connect 36 0 14 1;
#X connect 39 0 42 0;
#X connect 42 0 57 0;
#X connect 43 0 0 1;
#X connect 43 0 52 0;
#X connect 44 0 11 0;
#X connect 44 0 36 1;
#X connect 49 0 21 0;
#X connect 49 1 22 0;
#X connect 49 2 32 0;
#X connect 49 3 5 0;
#X connect 49 3 62 0;
#X connect 51 0 49 0;
#X connect 53 0 54 0;
#X connect 54 0 49 0;
#X connect 54 1 26 0;
#X connect 54 2 56 0;
#X connect 55 0 56 0;
#X connect 56 0 35 0;
#X connect 56 0 37 0;
#X connect 57 0 12 0;
#X connect 59 0 1 1;
#X connect 60 0 72 0;
#X connect 61 0 57 1;
#X connect 61 0 58 0;
#X connect 65 0 66 0;
#X connect 65 1 53 0;
#X connect 66 0 70 0;
#X connect 67 0 49 0;
#X connect 69 0 70 1;
#X connect 70 0 67 0;
#X connect 70 0 71 0;
#X connect 72 0 14 0;
