#N canvas 179 56 1139 794 12;
#X text 248 12 ABSTRACTION TO PLAY 1 GRAIN WHEN SENSOR TRESHOLD IS
PASSED;
#X text 485 346 Semitones of pitch shift;
#X text 270 654 1 set start of grain in delay buffer based on sensor
number;
#X text 271 636 del length buffer = 3200 ms;
#X obj 16 12 inlet 1_grain;
#X text 248 30 we expect bang and float (sensor number);
#X text 270 696 3 randomize length of envelope for playback time;
#X text 268 717 4 set pan position of grain;
#X text 268 736 5 play grain with amp envelope;
#X floatatom 619 279 5 0 0 0 - - -;
#X obj 595 225 / 32;
#X text 652 250 del buff length;
#X obj 423 340 - 16;
#X text 486 363 0 = No pitch shift;
#X floatatom 439 363 5 0 0 0 - - -;
#X text 269 675 2 set transpose of grain (based on sensor number);
#X text 605 297 start of grain in del buffer;
#X floatatom 110 259 5 0 0 0 - - -;
#X obj 16 287 pipe, f 5;
#X text 56 229 min len;
#X text 152 256 length 1 grain;
#X obj 104 173 r rand_grain_max_len_ms;
#X floatatom 439 425 5 0 0 0 - - -;
#X obj 328 424 * 1, f 14;
#X text 400 451 Relative playback speed;
#X floatatom 344 452 5 0 0 0 - - -;
#X obj 423 396 expr pow(2 \, $f1/12);
#X text 504 423 length;
#X obj 16 513 line~;
#X obj 16 460 pack 0 0, f 45;
#X obj 17 541 +~, f 83;
#X msg 16 488 \$2 \, \$1 \$1;
#X obj 224 366 line~;
#X obj 16 602 *~, f 30;
#X obj 224 393 tabread4~ kac_win, f 9;
#X text 667 278 Offset/delay in ms;
#X text 232 429 amp env;
#X text 265 603 amp env;
#X obj 15 740 outlet~;
#X obj 117 740 outlet~;
#X obj 120 346 random 100;
#X obj 120 373 * 0.01;
#X obj 15 713 *~;
#X obj 117 713 *~;
#X obj 33 684 expr 1-$f1;
#X text 66 421 random pan position;
#X obj 349 209 t f f f, f 33;
#X obj 16 315 t f b f f, f 45;
#X obj 120 398 s \$0_grain_pan;
#X obj 135 663 r \$0_grain_pan;
#X floatatom 158 698 5 0 0 0 - - -;
#X text 50 399 local v;
#X obj 16 571 vd~ kac_del;
#X obj 595 250 * 3500;
#X obj 16 201 random 100, f 13;
#X msg 224 341 0 \, 256 \$1;
#X obj 16 631 *~ 0.5;
#X obj 48 60 f \$1;
#X obj 16 37 t f b;
#X obj 16 82 ==, f 5;
#X obj 16 110 sel 1;
#X obj 140 87 bng 15 250 50 0 empty empty empty 17 7 0 10 -262144 -1
-1;
#X floatatom 349 234 5 0 0 0 - - -;
#X obj 16 135 t b b, f 48;
#X obj 349 183 f \$1;
#X obj 73 117 bng 15 250 50 0 empty empty empty 17 7 0 10 -262144 -1
-1;
#X obj 16 229 + 5;
#X obj 16 258 t f f, f 10;
#X text 242 62 if input sensor == our patch clone number - trigger
a grain;
#X connect 4 0 58 0;
#X connect 10 0 53 0;
#X connect 12 0 14 0;
#X connect 12 0 26 0;
#X connect 18 0 47 0;
#X connect 21 0 54 1;
#X connect 23 0 25 0;
#X connect 23 0 29 1;
#X connect 26 0 22 0;
#X connect 26 0 23 1;
#X connect 28 0 30 0;
#X connect 29 0 31 0;
#X connect 30 0 52 0;
#X connect 31 0 28 0;
#X connect 32 0 34 0;
#X connect 33 0 56 0;
#X connect 34 0 33 1;
#X connect 40 0 41 0;
#X connect 41 0 48 0;
#X connect 42 0 38 0;
#X connect 43 0 39 0;
#X connect 44 0 42 1;
#X connect 46 0 62 0;
#X connect 46 1 12 0;
#X connect 46 2 10 0;
#X connect 47 0 29 0;
#X connect 47 1 40 0;
#X connect 47 2 55 0;
#X connect 47 3 23 0;
#X connect 49 0 43 1;
#X connect 49 0 44 0;
#X connect 49 0 50 0;
#X connect 52 0 33 0;
#X connect 53 0 9 0;
#X connect 53 0 30 1;
#X connect 54 0 66 0;
#X connect 55 0 32 0;
#X connect 56 0 42 0;
#X connect 56 0 43 0;
#X connect 57 0 59 1;
#X connect 58 0 59 0;
#X connect 58 1 57 0;
#X connect 59 0 60 0;
#X connect 60 0 63 0;
#X connect 60 0 65 0;
#X connect 61 0 63 0;
#X connect 63 0 54 0;
#X connect 63 1 64 0;
#X connect 64 0 46 0;
#X connect 66 0 17 0;
#X connect 66 0 67 0;
#X connect 67 0 18 0;
#X connect 67 1 18 1;
