#N canvas 117 263 1250 576 10;
#X obj 1054 55 inlet;
#X obj 281 221 -~ 3.14159;
#X obj 281 199 *~ 6.28319;
#X msg 224 43 0;
#X obj 37 14 inlet;
#X text 73 34 lfo freq as float;
#X obj 37 74 sig~;
#X text 79 72 change to sig;
#X floatatom 94 16 5 0 0 0 - - -, f 5;
#X text 92 94 filter out cliks;
#X obj 1054 319 sig~;
#X obj 1053 393 lop~ 80;
#X floatatom 1062 301 5 0 0 0 - - -, f 5;
#X obj 224 14 inlet;
#X obj 37 94 lop~ 80;
#X text 252 43 for syncing lfo;
#X text 265 13 reset phase-bang;
#X text 1006 35 lfo range float;
#X text 929 354 change to sig;
#X text 929 369 filter out cliks;
#X obj 120 294 *~ 0.5;
#X obj 119 316 +~ 0.5;
#X obj 197 294 *~ 0.5;
#X obj 196 316 +~ 0.5;
#X obj 119 229 -~ 0.25;
#X obj 119 253 cos~;
#X obj 381 317 +~ 0.5;
#X obj 380 254 abs~;
#X obj 282 295 *~ 0.5;
#X obj 281 317 +~ 0.5;
#X text 44 366 1 - phasor;
#X obj 280 410 *~;
#X obj 382 408 *~;
#X obj 197 408 *~;
#X text 296 367 4 - tangens;
#X text 136 367 2 - cos;
#X text 214 367 3 - tri;
#X obj 38 143 phasor~, f 27;
#X obj 119 409 *~;
#X obj 1107 302 tgl 15 0 empty empty empty 17 7 0 10 -262144 -1 -1
0 1;
#X obj 37 410 *~;
#X obj 563 264 snapshot~;
#X text 577 247 bang to output;
#X obj 279 511 *~, f 111;
#X text 389 366 5-tang abs;
#X obj 464 225 *~ 0.5;
#X obj 463 247 +~ 0.5;
#X obj 463 202 cyclone/rand~;
#X obj 37 53 t f f;
#X floatatom 463 71 10 0 0 0 - - -, f 10;
#X text 487 366 6-rand;
#X obj 464 409 *~;
#X obj 575 215 noise~;
#X obj 563 303 abs;
#X obj 37 74 sig~;
#X obj 563 324 sig~;
#X obj 564 409 *~;
#X text 567 365 7-s&h noise;
#X obj 730 64 + 1;
#X obj 666 41 bng 15 250 50 0 empty empty empty 17 7 0 10 -262144 -1
-1;
#X obj 666 75 i 0;
#X obj 719 14 loadbang;
#X obj 666 14 inlet;
#X obj 730 86 % 7;
#X obj 698 192 sel 0 1 2 3 4 5 6;
#X msg 698 217 1 0 0 0 0 0 0;
#X msg 715 235 0 1 0 0 0 0 0;
#X msg 731 253 0 0 1 0 0 0 0;
#X msg 748 271 0 0 0 1 0 0 0;
#X msg 765 290 0 0 0 0 1 0 0;
#X msg 780 310 0 0 0 0 0 1 0;
#X msg 799 329 0 0 0 0 0 0 1;
#X obj 699 346 unpack f f f f f f f;
#X obj 699 366 sig~;
#X obj 732 366 sig~;
#X obj 765 366 sig~;
#X obj 798 366 sig~;
#X obj 831 366 sig~;
#X obj 864 366 sig~;
#X obj 897 366 sig~;
#X obj 55 383 lop~ 80;
#X obj 136 383 lop~ 80;
#X obj 215 383 lop~ 80;
#X obj 297 383 lop~ 80;
#X obj 409 383 lop~ 80;
#X obj 481 383 lop~ 80;
#X obj 582 383 lop~ 80;
#X text 721 41 lfo shape - bang;
#X obj 196 229 cyclone/triangle~, f 9;
#X obj 666 477 print LFO_SHAPE;
#X msg 666 415 symbol RAMP;
#X msg 709 435 symbol COS;
#X msg 753 455 symbol TRI;
#X msg 796 415 symbol TANG;
#X msg 840 435 symbol ABSTANG;
#X msg 927 413 symbol S&H_NOISE;
#X obj 666 100 t f f;
#X obj 666 393 sel 0 1 2 3 4 5 6, f 44;
#X obj 563 160 threshold~ 0.99 1 0.1 1, f 13;
#X obj 282 274 cyclone/tanh~;
#X text 468 104 how oftn new value;
#X text 467 94 freq of rand~;
#X msg 883 455 symbol RAND_SMT;
#X obj 29 515 block~ 4096 1 0.5;
#X obj 279 539 outlet~ lfo_full range;
#X text 30 541 block size \, downsampling for CPU;
#X obj 456 537 outlet~ for_led_range_0_1;
#X obj 280 463 +~;
#X text 467 127 detect transition of phasor;
#X text 502 143 and then sample noise;
#X connect 0 0 10 0;
#X connect 1 0 27 0;
#X connect 1 0 99 0;
#X connect 2 0 1 0;
#X connect 3 0 37 1;
#X connect 4 0 48 0;
#X connect 6 0 14 0;
#X connect 8 0 48 0;
#X connect 10 0 11 0;
#X connect 11 0 43 1;
#X connect 12 0 10 0;
#X connect 13 0 3 0;
#X connect 14 0 37 0;
#X connect 20 0 21 0;
#X connect 21 0 38 0;
#X connect 22 0 23 0;
#X connect 23 0 33 0;
#X connect 24 0 25 0;
#X connect 25 0 20 0;
#X connect 26 0 32 0;
#X connect 27 0 26 0;
#X connect 28 0 29 0;
#X connect 29 0 31 0;
#X connect 31 0 107 0;
#X connect 32 0 107 0;
#X connect 33 0 107 0;
#X connect 37 0 2 0;
#X connect 37 0 24 0;
#X connect 37 0 40 0;
#X connect 37 0 88 0;
#X connect 37 0 98 0;
#X connect 38 0 107 0;
#X connect 39 0 10 0;
#X connect 40 0 107 0;
#X connect 41 0 53 0;
#X connect 43 0 104 0;
#X connect 45 0 46 0;
#X connect 46 0 51 0;
#X connect 47 0 45 0;
#X connect 48 0 6 0;
#X connect 48 1 49 0;
#X connect 49 0 47 0;
#X connect 51 0 107 0;
#X connect 52 0 41 0;
#X connect 53 0 55 0;
#X connect 55 0 56 0;
#X connect 56 0 107 0;
#X connect 58 0 63 0;
#X connect 59 0 60 0;
#X connect 60 0 58 0;
#X connect 60 0 96 0;
#X connect 61 0 59 0;
#X connect 62 0 59 0;
#X connect 63 0 60 1;
#X connect 64 0 65 0;
#X connect 64 1 66 0;
#X connect 64 2 67 0;
#X connect 64 3 68 0;
#X connect 64 4 69 0;
#X connect 64 5 70 0;
#X connect 64 6 71 0;
#X connect 65 0 72 0;
#X connect 66 0 72 0;
#X connect 67 0 72 0;
#X connect 68 0 72 0;
#X connect 69 0 72 0;
#X connect 70 0 72 0;
#X connect 71 0 72 0;
#X connect 72 0 73 0;
#X connect 72 1 74 0;
#X connect 72 2 75 0;
#X connect 72 3 76 0;
#X connect 72 4 77 0;
#X connect 72 5 78 0;
#X connect 72 6 79 0;
#X connect 73 0 80 0;
#X connect 74 0 81 0;
#X connect 75 0 82 0;
#X connect 76 0 83 0;
#X connect 77 0 84 0;
#X connect 78 0 85 0;
#X connect 79 0 86 0;
#X connect 80 0 40 1;
#X connect 81 0 38 1;
#X connect 82 0 33 1;
#X connect 83 0 31 1;
#X connect 84 0 32 1;
#X connect 85 0 51 1;
#X connect 86 0 56 1;
#X connect 88 0 22 0;
#X connect 90 0 89 0;
#X connect 91 0 89 0;
#X connect 92 0 89 0;
#X connect 93 0 89 0;
#X connect 94 0 89 0;
#X connect 95 0 89 0;
#X connect 96 0 97 0;
#X connect 96 1 64 0;
#X connect 97 0 90 0;
#X connect 97 1 91 0;
#X connect 97 2 92 0;
#X connect 97 3 93 0;
#X connect 97 4 94 0;
#X connect 97 5 102 0;
#X connect 97 6 95 0;
#X connect 98 0 41 0;
#X connect 99 0 28 0;
#X connect 102 0 89 0;
#X connect 107 0 43 0;
#X connect 107 0 106 0;
