#N canvas 599 420 830 470 10;
#X floatatom 168 322 7 0 0 0 - - -, f 7;
#X text 7 320 sampel size in samples;
#X text 113 391 in MS;
#X obj 168 304 soundfiler;
#X floatatom 198 369 5 0 0 0 - - -, f 5;
#X obj 167 70 inlet;
#X obj 210 72 bng 15 250 50 0 empty empty empty 17 7 0 10 -262144 -1
-1;
#X obj 168 125 i;
#X obj 168 92 t b;
#X obj 207 125 + 1;
#X obj 168 195 + 100;
#X msg 208 98 0;
#X floatatom 94 210 5 0 0 0 - - -, f 5;
#X obj 168 340 / 44.1;
#X floatatom 298 162 5 0 0 0 - - -, f 5;
#X obj 421 108 r SMPL_KIKS_AMT;
#X obj 168 169 % 9, f 13;
#X obj 331 382 outlet sampl;
#X obj 168 392 outlet length;
#X text 166 7 load samples from given folder one by one with bang;
#X obj 312 105 r SMPL_\$1_AMT;
#X obj 391 148 print smpl\$1_amt;
#X msg 168 222 read -resize /home/ccrma/pd/sample/\$1/KC_SMPL0\$1.wav
MajStrecz;
#X connect 0 0 13 0;
#X connect 3 0 0 0;
#X connect 5 0 8 0;
#X connect 6 0 7 0;
#X connect 7 0 9 0;
#X connect 7 0 16 0;
#X connect 8 0 7 0;
#X connect 9 0 7 1;
#X connect 10 0 22 0;
#X connect 11 0 7 1;
#X connect 13 0 4 0;
#X connect 13 0 18 0;
#X connect 16 0 12 0;
#X connect 16 0 10 0;
#X connect 20 0 21 0;
#X connect 20 0 16 1;
#X connect 20 0 14 0;
#X connect 22 0 3 0;
#X connect 22 0 17 0;
