#N canvas 565 51 805 825 10;
#X obj 12 437 bng 15 250 50 0 empty empty empty 17 7 0 10 -262144 -1
-1;
#X obj 40 459 tabplay~ impulse;
#X obj 40 797 throw~ 1imp;
#X text 35 438 impulse;
#X floatatom 233 381 5 0 0 0 - - -, f 5;
#X floatatom 195 572 5 0 0 0 - - -, f 5;
#X floatatom 226 493 5 0 0 0 - - -, f 5;
#X obj 33 377 bng 15 250 50 0 empty empty empty 17 7 0 10 -262144 -1
-1;
#X floatatom 306 501 5 0 0 0 - - -, f 5;
#X obj 70 405 t b b b b, f 50;
#X obj 70 745 *~ 20, f 50;
#X floatatom 559 594 8 0 0 0 - - -, f 8;
#X obj 70 61 inlet passed treshold sens number;
#X text 72 7 \$1 = sensor numebr = clone subpatch numebr;
#X text 71 25 \$2 = route MIDI to frequency based on subpatch numebr
;
#X text 105 40 from external scaling = if \$1= rounte get set MIDI
;
#X obj 180 252 route \$1;
#X obj 187 325 mtof;
#X text 238 362 freq;
#X obj 319 316 ftom;
#X obj 435 356 * -1;
#X obj 435 377 + 1;
#X floatatom 446 398 5 0 0 0 - - -, f 5;
#X obj 319 430 * \$3;
#X text 365 432 Q initial;
#X floatatom 336 460 10 0 0 0 - - -, f 10;
#X text 408 310 Q mapped to MIDI note;
#X obj 70 716 bp~ \$1 100, f 33;
#X text 312 593 Q;
#X text 204 594 F;
#X text 403 709 G;
#X obj 185 518 f \$2;
#X obj 301 473 f;
#X obj 435 435 * \$4;
#X obj 417 544 f;
#X floatatom 314 579 9 0 0 0 - - -, f 9;
#X floatatom 636 509 5 0 0 0 - - -, f 5;
#X obj 604 472 t b f;
#X obj 527 471 t b f;
#X obj 187 347 t b f f;
#X obj 180 230 r 1_PING_SCALES;
#X obj 155 277 f \$2;
#X obj 26 141 bng 15 250 50 0 empty empty empty 17 7 0 10 -262144 -1
-1;
#X obj 301 543 * 1, f 9;
#X obj 417 579 * 1, f 10;
#X obj 527 387 r Q_F;
#X floatatom 328 382 5 0 0 0 - - -, f 5;
#X obj 604 417 r G_F;
#X text 408 335 G has reversed mapping;
#X floatatom 455 467 5 0 0 0 - - -, f 5;
#X obj 319 339 / 128;
#X obj 449 620 f \$1;
#X obj 449 665 * -1;
#X obj 449 686 + 1;
#X obj 319 360 *;
#X obj 417 712 * 1;
#X floatatom 427 744 8 0 0 0 - - -, f 8;
#X floatatom 573 642 5 0 0 0 - - -, f 5;
#X floatatom 509 707 5 0 0 0 - - -, f 5;
#X text 479 437 G int;
#X obj 417 599 t f b;
#X msg 172 146 1;
#X text 325 177 DSP ON ONLY IF VOICE PLAYING!;
#X text 313 62 trigger if sensor=clone;
#X text 248 253 new midi note from list;
#N canvas 653 77 1049 755 2ndOSC 0;
#X obj 488 32 inlet;
#X obj 208 668 outlet~;
#X obj 209 48 inlet~;
#X obj 208 396 bp~, f 81;
#X obj 488 323 +, f 28;
#X floatatom 260 516 7 0 0 0 - - -, f 7;
#X floatatom 500 346 5 0 0 0 - - -, f 5;
#X obj 552 103 mtof;
#X text 308 85 pol tonu = 100centow;
#X obj 616 108 mtof;
#X obj 552 125 -;
#X obj 552 81 + 0.5;
#X text 136 108 to have the same ratio at different frequencies!!!
;
#X obj 488 237 random;
#X obj 527 192 * 100;
#X text 252 342 2nd osc freq based on first;
#X text 572 196 to get floats;
#X text 295 263 to get floats;
#X obj 488 259 * 0.01;
#X obj 583 226 * 0.5;
#X text 233 148 range of 100 cents in HZ (freq);
#X obj 552 156 t f f;
#X obj 488 284 -, f 14;
#X text 89 286 to get positive as well as negative values - higher
and lower freqs;
#X text 111 135 Generate second freq of impulse from the first one
;
#X text 181 327 finally add it to the freq of first osc;
#X text 45 473 volume of detuned osc;
#X obj 208 530 *~ 0;
#X text 528 34 freq orginal;
#X obj 488 58 t b f f f, f 28;
#X text 207 29 impulse in;
#X obj 616 87 - 0.5;
#X obj 681 88 mtof;
#X obj 348 520 switch~;
#X obj 260 472 t f f;
#X obj 332 522 tgl 15 0 empty empty empty 17 7 0 10 -262144 -1 -1 0
1;
#X floatatom 341 477 5 0 0 0 - - -, f 5;
#X text 550 349 freq 2 offset;
#X obj 332 496 oneARDinCOMPARE 0.1;
#X obj 260 449 r PTCH5_PAR_A1;
#X obj 400 455 tgl 15 0 empty empty empty 17 7 0 10 -262144 -1 -1 0
1;
#X obj 207 591 *~ 20, f 90;
#X obj 772 319 inlet Q;
#X obj 829 456 inlet G, f 41;
#X connect 0 0 29 0;
#X connect 2 0 3 0;
#X connect 3 0 27 0;
#X connect 4 0 3 1;
#X connect 4 0 6 0;
#X connect 7 0 10 0;
#X connect 9 0 10 1;
#X connect 10 0 21 0;
#X connect 11 0 7 0;
#X connect 13 0 18 0;
#X connect 14 0 13 1;
#X connect 18 0 22 0;
#X connect 19 0 22 1;
#X connect 21 0 14 0;
#X connect 21 1 19 0;
#X connect 22 0 4 0;
#X connect 27 0 41 0;
#X connect 29 0 13 0;
#X connect 29 1 11 0;
#X connect 29 2 31 0;
#X connect 29 3 32 0;
#X connect 31 0 9 0;
#X connect 32 0 4 1;
#X connect 34 0 27 1;
#X connect 34 0 5 0;
#X connect 34 1 38 0;
#X connect 38 0 35 0;
#X connect 38 0 33 0;
#X connect 39 0 36 0;
#X connect 39 0 34 0;
#X connect 40 0 38 0;
#X connect 41 0 1 0;
#X connect 42 0 3 2;
#X connect 43 0 41 1;
#X restore 39 682 pd 2ndOSC;
#X obj 155 299 t f f;
#X obj 449 642 / 32;
#X obj 534 145 print;
#X obj 534 103 spigot;
#X obj 573 86 tgl 15 0 empty empty empty 17 7 0 10 -262144 -1 -1 0
1;
#X obj 70 121 t b b b b, f 22;
#X obj 450 92 f \$1;
#X obj 475 71 loadbang;
#X obj 18 78 bng 15 250 50 0 empty empty empty 17 7 0 10 -262144 -1
-1;
#X obj 250 111 ==, f 25;
#X obj 70 93 t b f b, f 52;
#X obj 460 236 switch~;
#X msg 279 173 1;
#X msg 251 173 0;
#X obj 251 154 del 2000;
#X obj 491 211 change;
#X obj 250 133 sel 1, f 23;
#X obj 531 233 outlet dspstatus;
#X obj 40 773 *~ 0.25;
#X connect 0 0 1 0;
#X connect 1 0 27 0;
#X connect 1 0 65 0;
#X connect 6 0 31 1;
#X connect 7 0 9 0;
#X connect 9 0 1 0;
#X connect 9 1 31 0;
#X connect 9 2 32 0;
#X connect 9 3 34 0;
#X connect 10 0 84 0;
#X connect 12 0 42 0;
#X connect 12 0 76 0;
#X connect 16 0 41 1;
#X connect 17 0 39 0;
#X connect 19 0 50 0;
#X connect 20 0 21 0;
#X connect 21 0 22 0;
#X connect 21 0 33 0;
#X connect 23 0 25 0;
#X connect 23 0 32 1;
#X connect 27 0 10 0;
#X connect 31 0 5 0;
#X connect 31 0 27 1;
#X connect 32 0 8 0;
#X connect 32 0 43 0;
#X connect 33 0 34 1;
#X connect 33 0 49 0;
#X connect 34 0 44 0;
#X connect 37 0 44 0;
#X connect 37 1 36 0;
#X connect 37 1 44 1;
#X connect 38 0 43 0;
#X connect 38 1 43 1;
#X connect 39 1 31 1;
#X connect 39 2 19 0;
#X connect 39 2 4 0;
#X connect 40 0 16 0;
#X connect 41 0 66 0;
#X connect 43 0 27 2;
#X connect 43 0 35 0;
#X connect 43 0 65 2;
#X connect 44 0 11 0;
#X connect 44 0 60 0;
#X connect 45 0 38 0;
#X connect 47 0 37 0;
#X connect 50 0 54 0;
#X connect 50 0 54 1;
#X connect 51 0 67 0;
#X connect 52 0 53 0;
#X connect 53 0 55 1;
#X connect 53 0 58 0;
#X connect 54 0 20 0;
#X connect 54 0 23 0;
#X connect 54 0 46 0;
#X connect 55 0 56 0;
#X connect 55 0 10 1;
#X connect 55 0 65 3;
#X connect 60 0 55 0;
#X connect 60 1 51 0;
#X connect 65 0 84 0;
#X connect 66 0 65 1;
#X connect 66 1 17 0;
#X connect 67 0 52 0;
#X connect 67 0 57 0;
#X connect 69 0 68 0;
#X connect 70 0 69 1;
#X connect 71 0 9 0;
#X connect 71 1 41 0;
#X connect 71 2 61 0;
#X connect 72 0 75 1;
#X connect 73 0 72 1;
#X connect 73 0 79 0;
#X connect 74 0 71 0;
#X connect 75 0 82 0;
#X connect 76 0 71 0;
#X connect 76 1 75 0;
#X connect 76 2 72 0;
#X connect 78 0 81 0;
#X connect 79 0 81 0;
#X connect 80 0 79 0;
#X connect 81 0 77 0;
#X connect 81 0 83 0;
#X connect 82 0 80 0;
#X connect 82 0 78 0;
#X connect 84 0 2 0;
