#N canvas 0 54 751 821 12;
#X obj 12 437 bng 15 250 50 0 empty empty empty 17 7 0 10 -262144 -1
-1;
#X obj 40 459 tabplay~ impulse;
#X obj 40 777 throw~ 1imp;
#X text 35 438 impulse;
#X floatatom 233 291 5 0 0 0 - - -;
#X floatatom 195 452 5 0 0 0 - - -;
#X floatatom 226 393 5 0 0 0 - - -;
#X obj 33 307 bng 15 250 50 0 empty empty empty 17 7 0 10 -262144 -1
-1;
#X floatatom 306 451 5 0 0 0 - - -;
#X obj 70 355 t b b b b, f 50;
#X obj 70 71 inlet passed treshold sens number;
#X text 72 17 \$1 = sensor numebr = clone subpatch numebr;
#X text 71 35 \$2 = route MIDI to frequency based on subpatch numebr
;
#X text 105 50 from external scaling = if \$1= rounte get set MIDI
;
#X obj 155 162 route \$1;
#X obj 187 235 mtof;
#X text 238 272 freq;
#X obj 319 236 ftom;
#X obj 435 266 * -1;
#X obj 435 287 + 1;
#X floatatom 446 318 5 0 0 0 - - -;
#X obj 319 380 * \$3;
#X text 365 382 Q initial;
#X floatatom 336 410 10 0 0 0 - - -;
#X text 408 220 Q mapped to MIDI note;
#X obj 70 686 bp~ \$1 100, f 33;
#X text 196 590 Q;
#X text 204 474 F;
#X text 463 629 G;
#X obj 185 418 f \$2;
#X obj 301 423 f;
#X obj 435 385 * \$4;
#X obj 417 494 f;
#X obj 187 257 t b f f;
#X obj 155 140 r 1_PING_SCALES;
#X obj 130 187 f \$2;
#X obj 26 131 bng 15 250 50 0 empty empty empty 17 7 0 10 -262144 -1
-1;
#X obj 301 493 * 1, f 9;
#X obj 435 455 * 1, f 10;
#X obj 527 317 r Q_F;
#X floatatom 328 302 5 0 0 0 - - -;
#X obj 613 382 r G_F;
#X text 408 245 G has reversed mapping;
#X floatatom 455 417 5 0 0 0 - - -;
#X obj 319 259 / 128;
#X obj 602 590 f \$1;
#X obj 602 633 * -1;
#X obj 602 656 + 1;
#X obj 319 280 *;
#X floatatom 338 618 5 0 0 0 - - -;
#X floatatom 662 677 5 0 0 0 - - -;
#X text 479 387 G int;
#X text 313 72 trigger if sensor=clone;
#X text 223 163 new midi note from list;
#N canvas 344 80 1049 755 2ndOSC 0;
#X obj 488 32 inlet;
#X obj 208 668 outlet~;
#X obj 209 48 inlet~;
#X obj 208 396 bp~, f 81;
#X obj 488 323 +, f 28;
#X floatatom 310 486 7 0 0 0 - - -;
#X floatatom 500 346 5 0 0 0 - - -;
#X obj 552 103 mtof;
#X text 308 85 pol tonu = 100centow;
#X obj 616 108 mtof;
#X obj 552 125 -;
#X obj 552 81 + 0.5;
#X text 136 108 to have the same ratio at different frequencies!!!
;
#X obj 488 237 random;
#X obj 527 192 * 100;
#X text 252 342 2nd osc freq based on first;
#X text 572 196 to get floats;
#X text 295 263 to get floats;
#X obj 488 259 * 0.01;
#X obj 583 226 * 0.5;
#X text 233 148 range of 100 cents in HZ (freq);
#X obj 552 156 t f f;
#X obj 488 284 -, f 14;
#X text 89 286 to get positive as well as negative values - higher
and lower freqs;
#X text 111 135 Generate second freq of impulse from the first one
;
#X text 181 327 finally add it to the freq of first osc;
#X text 45 473 volume of detuned osc;
#X text 528 34 freq orginal;
#X obj 488 58 t b f f f, f 28;
#X text 207 29 impulse in;
#X obj 616 87 - 0.5;
#X obj 681 88 mtof;
#X text 550 349 freq 2 offset;
#X obj 772 319 inlet Q;
#X obj 268 489 sig~;
#X obj 208 550 *~, f 9;
#X obj 207 591 *~, f 90;
#X obj 834 516 inlet~ G;
#X obj 268 451 r PTCH4_PAR_A2;
#X obj 267 516 lop~ 10;
#X connect 0 0 28 0;
#X connect 2 0 3 0;
#X connect 3 0 35 0;
#X connect 4 0 3 1;
#X connect 4 0 6 0;
#X connect 7 0 10 0;
#X connect 9 0 10 1;
#X connect 10 0 21 0;
#X connect 11 0 7 0;
#X connect 13 0 18 0;
#X connect 14 0 13 1;
#X connect 18 0 22 0;
#X connect 19 0 22 1;
#X connect 21 0 14 0;
#X connect 21 1 19 0;
#X connect 22 0 4 0;
#X connect 28 0 13 0;
#X connect 28 1 11 0;
#X connect 28 2 30 0;
#X connect 28 3 31 0;
#X connect 30 0 9 0;
#X connect 31 0 4 1;
#X connect 33 0 3 2;
#X connect 34 0 39 0;
#X connect 35 0 36 0;
#X connect 36 0 1 0;
#X connect 37 0 36 1;
#X connect 38 0 34 0;
#X connect 38 0 5 0;
#X connect 39 0 35 1;
#X restore 39 642 pd 2ndOSC;
#X f 17;
#X obj 130 209 t f f;
#X obj 602 612 / 32;
#X obj 534 155 print;
#X obj 534 113 spigot;
#X obj 573 96 tgl 15 0 empty empty empty 17 7 0 10 -262144 -1 -1 0
1;
#X obj 18 88 bng 15 250 50 0 empty empty empty 17 7 0 10 -262144 -1
-1;
#X obj 417 543 sig~;
#X obj 70 111 t b b, f 9;
#X obj 70 730 *~, f 50;
#X floatatom 211 587 5 0 0 0 - - -;
#X obj 69 507 tabplay~ impulse;
#X obj 40 753 *~ 0.99;
#X obj 213 548 line;
#X floatatom 367 549 5 0 0 0 - - -;
#X obj 614 308 bng 15 250 50 0 empty empty empty 17 7 0 10 -262144
-1 -1;
#X floatatom 467 537 5 0 0 0 - - -;
#X obj 418 567 lop~ 20;
#X msg 214 521 \$1 100;
#X connect 0 0 1 0;
#X connect 1 0 54 0;
#X connect 6 0 29 1;
#X connect 7 0 9 0;
#X connect 9 0 1 0;
#X connect 9 0 65 0;
#X connect 9 1 29 0;
#X connect 9 2 30 0;
#X connect 9 3 32 0;
#X connect 10 0 36 0;
#X connect 10 0 62 0;
#X connect 14 0 35 1;
#X connect 15 0 33 0;
#X connect 17 0 44 0;
#X connect 18 0 19 0;
#X connect 19 0 20 0;
#X connect 19 0 31 0;
#X connect 21 0 23 0;
#X connect 21 0 30 1;
#X connect 25 0 63 0;
#X connect 29 0 5 0;
#X connect 29 0 25 1;
#X connect 30 0 8 0;
#X connect 30 0 37 0;
#X connect 31 0 43 0;
#X connect 31 0 38 0;
#X connect 32 0 68 0;
#X connect 32 0 61 0;
#X connect 33 1 29 1;
#X connect 33 2 17 0;
#X connect 33 2 4 0;
#X connect 34 0 14 0;
#X connect 35 0 55 0;
#X connect 37 0 72 0;
#X connect 38 0 32 1;
#X connect 39 0 37 1;
#X connect 41 0 38 1;
#X connect 44 0 48 0;
#X connect 44 0 48 1;
#X connect 45 0 56 0;
#X connect 46 0 47 0;
#X connect 47 0 50 0;
#X connect 48 0 18 0;
#X connect 48 0 21 0;
#X connect 48 0 40 0;
#X connect 54 0 66 0;
#X connect 55 0 54 1;
#X connect 55 1 15 0;
#X connect 56 0 46 0;
#X connect 58 0 57 0;
#X connect 59 0 58 1;
#X connect 60 0 62 0;
#X connect 61 0 71 0;
#X connect 62 0 9 0;
#X connect 62 1 35 0;
#X connect 63 0 66 0;
#X connect 65 0 25 0;
#X connect 66 0 2 0;
#X connect 67 0 25 2;
#X connect 67 0 64 0;
#X connect 67 0 54 2;
#X connect 71 0 63 1;
#X connect 71 0 54 3;
#X connect 72 0 67 0;
