#N canvas 493 181 840 614 10;
#X obj 173 103 inlet;
#X obj 333 222 mtof;
#X text 13 500 audio out;
#X obj 314 138 bng 15 250 50 0 empty empty empty 17 7 0 10 -262144
-1 -1;
#X floatatom 365 269 5 0 0 0 - - -, f 5;
#X floatatom 601 219 5 0 0 0 - - -, f 5;
#X obj 554 196 ftom;
#X floatatom 569 243 5 0 0 0 - - -, f 5;
#X floatatom 554 159 5 0 0 0 - - -, f 5;
#X obj 554 177 mtof;
#X floatatom 508 434 10 0 0 0 - - -, f 10;
#X text 10 553 Q ZMIENIALO SIE Z CZESTOTLIWOSCIA? \, IM WYZSZA TYM
WIEKSZE Q;
#X obj 409 522 outlet;
#X text 6 81 audio in;
#X floatatom 187 367 5 0 0 0 - - -, f 5;
#X obj 13 432 cyclone/reson~ 1 100 50, f 69;
#X text 344 368 FREQ;
#X text 584 432 Q;
#X text 189 387 GAIN;
#X text 15 582 ARGUMENT TO ABSTRACTION \$1 = FILTER FREQUENCY IN MIDI!
;
#X obj 333 245 t f f;
#X floatatom 345 351 5 0 0 0 - - -, f 5;
#X obj 554 219 / 127;
#X floatatom 345 140 5 0 0 0 - - -, f 5;
#X obj 493 398 * 10;
#X text 596 197 MIDI MAX NOTE = 127;
#X obj 700 269 r q_factor;
#X floatatom 732 340 5 0 0 0 - - -, f 5;
#X obj 333 170 f \$2;
#X obj 393 140 f \$1;
#X obj 333 81 loadbang;
#X obj 393 167 * 3;
#X obj 333 196 +;
#X floatatom 287 235 5 0 0 0 - - -, f 5;
#X floatatom 223 247 5 0 0 0 - - -, f 5;
#X obj 13 102 inlet~;
#X obj 13 484 outlet~;
#X text 459 519 G \, F \, Q for this patch;
#X text 20 19 \$1 = sensor numebr = clone subpatch numebr;
#X text 96 80 sensor ctrls gain;
#X floatatom 96 206 5 0 0 0 - - -, f 5;
#X text 366 198 Ffreq from arg \$2;
#X text 19 37 \$2 = filt frequency = 15 + subpatch numebr * 3;
#X obj 700 303 t b f;
#X obj 554 282 * -1;
#X obj 554 306 + 1;
#X floatatom 513 328 5 0 0 0 - - -, f 5;
#X obj 461 75 r inverse_q_mapping;
#X obj 496 109 tgl 15 0 empty empty empty 17 7 0 10 -262144 -1 -1 0
1;
#X obj 461 108 + 1;
#X obj 455 291 bng 15 250 50 0 empty empty empty 17 7 0 10 -262144
-1 -1;
#X floatatom 454 377 5 0 0 0 - - -, f 5;
#X obj 461 138 t b f;
#X obj 173 146 moses 0.1;
#X text 190 186 round to 0;
#X msg 173 205 0;
#X obj 409 480 pack f f f;
#X obj 333 108 t b b b, f 9;
#X obj 173 306 * 1000;
#X obj 493 345 cyclone/switch 2 2;
#X connect 0 0 40 0;
#X connect 0 0 53 0;
#X connect 1 0 20 0;
#X connect 3 0 28 0;
#X connect 4 0 6 0;
#X connect 6 0 5 0;
#X connect 6 0 22 0;
#X connect 8 0 9 0;
#X connect 9 0 6 0;
#X connect 10 0 56 2;
#X connect 15 0 36 0;
#X connect 20 0 15 2;
#X connect 20 0 21 0;
#X connect 20 0 56 1;
#X connect 20 1 4 0;
#X connect 22 0 7 0;
#X connect 22 0 44 0;
#X connect 22 0 59 2;
#X connect 23 0 28 0;
#X connect 24 0 10 0;
#X connect 24 0 15 3;
#X connect 26 0 43 0;
#X connect 28 0 32 0;
#X connect 29 0 31 0;
#X connect 30 0 57 0;
#X connect 31 0 32 1;
#X connect 32 0 1 0;
#X connect 32 0 33 0;
#X connect 35 0 15 0;
#X connect 43 0 24 0;
#X connect 43 1 27 0;
#X connect 43 1 24 1;
#X connect 44 0 45 0;
#X connect 45 0 46 0;
#X connect 45 0 59 1;
#X connect 47 0 48 0;
#X connect 47 0 49 0;
#X connect 49 0 52 0;
#X connect 50 0 59 0;
#X connect 52 0 4 0;
#X connect 52 1 59 0;
#X connect 53 0 55 0;
#X connect 53 1 58 0;
#X connect 55 0 58 0;
#X connect 56 0 12 0;
#X connect 57 0 28 0;
#X connect 57 1 29 0;
#X connect 57 2 49 0;
#X connect 58 0 14 0;
#X connect 58 0 15 1;
#X connect 58 0 56 0;
#X connect 59 0 24 0;
#X connect 59 0 51 0;
