#N canvas 2052 343 629 444 10;
#X obj -8 53 inlet;
#X floatatom 245 89 5 0 0 0 - - -;
#X obj -57 313 *~ 0.99;
#X obj 207 90 f \$1;
#X obj 208 112 mtof;
#X obj 207 57 loadbang;
#X text -57 350 audio out;
#X obj 142 312 outlet;
#X text 142 330 center frequency;
#X obj 268 59 bng 15 250 50 0 empty empty empty 17 7 0 10 -262144 -1
-1;
#X obj -57 32 inlet~;
#X obj 22 149 dbtorms;
#X floatatom 20 197 5 0 0 0 - - -;
#X floatatom 208 137 5 0 0 0 - - -;
#X obj -57 292 hip~ 15;
#X text 240 110 filtra freq from creation argument;
#X text 66 148 from db to AMP;
#X text 54 168 100db = 1 (max);
#X floatatom 50 127 5 0 0 0 - - -;
#X text 36 50 Gain;
#X obj 20 127 + 6;
#X text 284 177 center freq = 60;
#X floatatom 245 178 5 0 0 0 - - -;
#X obj 208 158 ftom;
#X floatatom 245 213 5 0 0 0 - - -;
#X floatatom 292 59 5 0 0 0 - - -;
#X obj 292 89 mtof;
#X obj 208 178 / 60;
#X obj 208 208 * 50;
#X floatatom 268 264 5 0 0 0 - - -;
#X text 38 29 Q ZMIENIALO SIE Z CZESTOTLIWOSCIA? \, IM WYZSZA TYM WIEKSZE
Q;
#X text 37 9 wartosc z sensora do sterowania i gain;
#X text 273 325 Q for this patch;
#X obj 268 302 outlet;
#X obj -57 334 outlet~;
#X text -54 11 audio in;
#X floatatom -51 86 5 0 0 0 - - -;
#X obj -9 123 *;
#X floatatom 51 104 5 0 0 0 - - -;
#X obj 22 166 * 10;
#X obj -15 166 * 100;
#X floatatom -41 197 5 0 0 0 - - -;
#X obj 390 244 pack f f f;
#X floatatom 390 213 5 0 0 0 - - -;
#X floatatom 454 143 5 0 0 0 - - -;
#X floatatom 485 214 5 0 0 0 - - -;
#X obj -38 230 noise~;
#X obj -29 397 dac~;
#X obj 431 178 t b f;
#X obj -57 273 cyclone/reson~ 1 100 50;
#X connect 0 0 18 0;
#X connect 0 0 36 0;
#X connect 0 0 20 0;
#X connect 0 0 37 0;
#X connect 0 0 37 1;
#X connect 1 0 4 0;
#X connect 2 0 34 0;
#X connect 2 0 47 0;
#X connect 2 0 47 1;
#X connect 3 0 4 0;
#X connect 4 0 7 0;
#X connect 4 0 13 0;
#X connect 5 0 3 0;
#X connect 9 0 3 0;
#X connect 10 0 49 0;
#X connect 11 0 39 0;
#X connect 13 0 23 0;
#X connect 14 0 2 0;
#X connect 20 0 11 0;
#X connect 23 0 22 0;
#X connect 23 0 27 0;
#X connect 25 0 26 0;
#X connect 26 0 23 0;
#X connect 27 0 24 0;
#X connect 27 0 28 0;
#X connect 28 0 29 0;
#X connect 29 0 33 0;
#X connect 37 0 38 0;
#X connect 37 0 40 0;
#X connect 39 0 12 0;
#X connect 40 0 41 0;
#X connect 43 0 42 0;
#X connect 44 0 48 0;
#X connect 45 0 42 2;
#X connect 46 0 49 0;
#X connect 48 0 42 0;
#X connect 48 1 42 1;
#X connect 49 0 14 0;
