#N canvas 196 54 1440 821 10;
#X text 109 737 output;
#X obj 745 380 inlet;
#X obj 166 269 mtof, f 5;
#X obj 191 163 bng 15 250 50 0 empty empty empty 17 7 0 10 -262144
-1 -1;
#X text 23 386 FREQ;
#X obj 166 189 f \$2;
#X obj 243 159 f \$1;
#X obj 166 20 loadbang;
#X obj 166 686 *~, f 97;
#X obj 165 737 outlet~;
#X obj 964 412 r RAMP_TIME;
#X text 1050 418 0-1;
#X text 1003 571 scale \, offset ramp time;
#X obj 143 22 bng 15 250 50 0 empty empty empty 17 7 0 10 -262144 -1
-1;
#X floatatom 254 128 2 0 32 0 - - -;
#X text 36 242 midi + offset;
#X obj 745 591 pack 0 1000, f 37;
#X text 954 397 line ramp time - global from pot;
#X text 872 615 amp time-global from pot \, DEF=1000;
#X text 784 380 LDRs input list 10-norm;
#X text 774 75 \$1=sensor/clone numebr-used to get freq from funda
mental;
#X text 774 96 \$2 - fundamental freq MIDI (or HZ??);
#X text 775 32 $ ARGS;
#X text 773 114 global variables from send parameters;
#X text 773 127 amp ramp time-from pot via send \, DEF=1000;
#X text 773 140 funda_mental - offset freq 0-12 midi \, DEF=0;
#X text 775 48 1 SINOSC VOICE FOR ADDITIVE CLONE PATCH;
#X obj 243 181 + 1;
#X obj 166 351 *, f 15;
#X text 774 61 freq = MIDI MOTE ARG \$2 * clone numbner;
#X text 774 153 mul_fact-by what factor we multiply freq note - 2-5
\, def 2;
#X floatatom 318 467 5 0 0 0 - - -;
#X text 311 704 freq of clone;
#X obj 469 51 r HARM_RAND;
#X obj 469 109 sel 0 1, f 13;
#X msg 469 171 1;
#X floatatom 1018 518 5 0 0 0 - - -;
#X floatatom 126 244 5 0 0 0 - - -;
#X text 87 128 sensor numebr 0-31;
#X text 93 140 clone numebr 0-31;
#X text 246 200 1-32;
#X text 60 188 midi note arg \$2;
#X obj 378 214 + 1;
#X obj 341 147 sel 0 1, f 13;
#X msg 320 206 1;
#X floatatom 119 470 5 0 0 0 - - -;
#X obj 341 124 r HARM_RATIO;
#X obj 243 325 *, f 23;
#X obj 320 257 t b b f, f 10;
#X floatatom 378 237 5 0 0 0 - - -;
#X obj 166 394 t f f, f 33;
#X text 532 457 beat freq;
#X obj 406 468 outlet 2nd osc freq;
#X obj 361 432 +, f 29;
#X text 24 401 = MIDInote in HZ;
#X text 23 417 * clone numbner;
#X obj 186 471 outlet 1st freq;
#X obj 166 517 osc~;
#X obj 361 518 osc~;
#X obj 469 310 t b b f, f 11;
#X obj 469 80 change;
#X obj 361 611 *~, f 44;
#X obj 621 512 sig~;
#X obj 167 614 *~, f 14;
#X obj 247 537 sig~ 1;
#X obj 248 571 -~;
#X text 626 281 mix between two oscillators;
#X obj 621 259 r BEAT_MIX;
#X floatatom 817 407 5 0 0 0 - - -;
#X floatatom 122 382 5 0 0 0 - - -;
#X obj 166 47 t b b b b, f 39;
#X obj 964 561 + 10;
#X floatatom 801 637 5 0 0 0 - - -;
#X obj 745 432 moses 0.1;
#X msg 745 455 0;
#X obj 166 713 *~ 0.5;
#X obj 745 625 line~;
#X obj 167 561 *~ 0.5;
#X obj 361 568 *~ 0.5;
#X obj 964 519 * 1000;
#X obj 964 435 *;
#X obj 513 187 / 100;
#X floatatom 513 232 5 0 0 0 - - -;
#X obj 621 555 lop~ 10;
#X obj 248 593 lop~ 10;
#X floatatom 273 348 5 0 0 0 - - -;
#X obj 378 170 random 100;
#X obj 378 192 / 100;
#X obj 513 165 random 500;
#X obj 513 209 - 2.5;
#X connect 1 0 68 0;
#X connect 1 0 73 0;
#X connect 2 0 28 0;
#X connect 2 0 37 0;
#X connect 3 0 5 0;
#X connect 5 0 2 0;
#X connect 6 0 27 0;
#X connect 7 0 70 0;
#X connect 8 0 75 0;
#X connect 10 0 80 0;
#X connect 10 0 80 1;
#X connect 13 0 70 0;
#X connect 14 0 6 0;
#X connect 16 0 72 0;
#X connect 16 0 76 0;
#X connect 27 0 47 0;
#X connect 28 0 50 0;
#X connect 28 0 69 0;
#X connect 33 0 60 0;
#X connect 34 0 35 0;
#X connect 34 1 88 0;
#X connect 35 0 59 0;
#X connect 42 0 48 0;
#X connect 42 0 49 0;
#X connect 43 0 44 0;
#X connect 43 1 86 0;
#X connect 44 0 48 0;
#X connect 46 0 43 0;
#X connect 47 0 28 1;
#X connect 47 0 85 0;
#X connect 48 0 28 0;
#X connect 48 1 47 0;
#X connect 48 2 47 1;
#X connect 50 0 45 0;
#X connect 50 0 56 0;
#X connect 50 0 57 0;
#X connect 50 1 53 0;
#X connect 53 0 31 0;
#X connect 53 0 52 0;
#X connect 53 0 58 0;
#X connect 57 0 77 0;
#X connect 58 0 78 0;
#X connect 59 1 53 0;
#X connect 59 2 53 1;
#X connect 60 0 34 0;
#X connect 61 0 8 0;
#X connect 62 0 65 1;
#X connect 62 0 83 0;
#X connect 63 0 8 0;
#X connect 64 0 65 0;
#X connect 65 0 84 0;
#X connect 67 0 62 0;
#X connect 70 0 5 0;
#X connect 70 1 6 0;
#X connect 70 2 44 0;
#X connect 70 3 35 0;
#X connect 71 0 16 1;
#X connect 73 0 74 0;
#X connect 73 1 16 0;
#X connect 74 0 16 0;
#X connect 75 0 9 0;
#X connect 76 0 8 1;
#X connect 77 0 63 0;
#X connect 78 0 61 0;
#X connect 79 0 36 0;
#X connect 79 0 71 0;
#X connect 80 0 79 0;
#X connect 81 0 89 0;
#X connect 83 0 61 1;
#X connect 84 0 63 1;
#X connect 86 0 87 0;
#X connect 87 0 42 0;
#X connect 88 0 81 0;
#X connect 89 0 59 0;
#X connect 89 0 82 0;
