#N canvas 163 207 1120 742 10;
#X obj 76 181 + 0, f 30;
#X obj 172 532 outlet;
#X text 25 670 output;
#X obj 251 154 t b f;
#X obj 487 130 inlet;
#X obj 76 249 mtof;
#X obj 57 102 bng 15 250 50 0 empty empty empty 17 7 0 10 -262144 -1
-1;
#X text 21 291 FREQ;
#X text 879 499 GAIN;
#X obj 76 129 f \$2;
#X obj 178 79 f \$1;
#X obj 76 20 loadbang;
#X text 538 179 sensor ctrls gain;
#X obj 498 512 moses 0.1;
#X text 421 533 round to 0;
#X msg 498 531 0;
#X obj 76 523 osc~;
#X obj 77 634 *~, f 32;
#X obj 77 672 outlet~;
#X obj 250 31 r FUNDA_MENTAL;
#X obj 863 282 r RAMP_TIME;
#X obj 498 593 line~;
#X obj 76 47 t b b, f 15;
#X text 83 70 sensor numebr;
#X text 949 288 0-1;
#X obj 863 541 + 20;
#X text 902 541 scale \, offset ramp time;
#X obj 251 89 * 12;
#X obj 251 111 int;
#X obj 251 133 change;
#X obj 53 22 bng 15 250 50 0 empty empty empty 17 7 0 10 -262144 -1
-1;
#X floatatom 189 48 2 0 32 0 - - -;
#X text 194 207 midi + offset;
#X text 90 82 clone numebr;
#X obj 498 571 pack 0 1000, f 52;
#X text 853 267 line ramp time - global from pot;
#X text 622 595 amp time-global from pot \, DEF=1000;
#X text 351 29 freq ofset from pot 12 midi notes;
#X text 499 82 LDRs input list 10-norm;
#X text 692 97 \$1=sensor/clone numebr-used to get freq from funda
mental;
#X text 692 113 \$2 - fundamental freq MIDI (or HZ??);
#X text 678 29 $ ARGS;
#X text 692 131 global variables from send parameters;
#X text 692 152 amp ramp time-from pot via send \, DEF=1000;
#X text 692 165 funda_mental - offset freq 0-12 midi \, DEF=0;
#X text 691 49 1 SINOSC VOICE FOR ADDITIVE CLONE PATCH;
#X text 44 148 first midi note arg \$2;
#X obj 178 101 + 1;
#X obj 76 291 *;
#X text 691 67 freq = MIDI MOTE ARG \$2 * clone numbner;
#X text 692 180 mul_fact-by what factor we multiply freq note - 2-5
\, def 2;
#X text 108 367 freq = MIDI MOTE to HZ * clone numbner;
#X obj 76 323 *, f 52;
#X text 188 345 change ratio to inharmonic?;
#X floatatom 131 348 5 0 0 0 - - -;
#X obj 361 278 t b f, f 11;
#X text 172 554 freq of clone;
#X obj 405 220 / 100;
#X obj 405 242 + 1;
#X obj 361 90 r HARM_RAND;
#X obj 361 172 sel 0 1, f 13;
#X obj 405 198 random 200;
#X msg 361 234 1;
#X obj 503 198 *;
#X obj 498 244 t f f, f 21;
#X obj 728 526 switch~;
#X obj 642 266 > 0.1;
#X obj 728 461 loadbang;
#X obj 642 527 outlet dsp;
#X obj 863 519 * 1000;
#X obj 642 454 change;
#X obj 642 287 change;
#X obj 642 391 spigot, f 9;
#X obj 642 329 sel 0, f 6;
#X obj 642 350 del 2000;
#X msg 642 372 0;
#X obj 702 333 != 1;
#X obj 642 309 t f f f, f 17;
#X obj 758 352 sel 1, f 6;
#X msg 758 374 1;
#X obj 539 297 print;
#X msg 760 484 0;
#X obj 539 132 route \$1;
#X msg 728 483 0;
#X floatatom 917 351 5 0 0 0 - - -;
#X connect 0 0 5 0;
#X connect 3 0 0 0;
#X connect 3 1 0 1;
#X connect 4 0 82 0;
#X connect 4 0 63 0;
#X connect 4 0 63 1;
#X connect 5 0 48 0;
#X connect 6 0 9 0;
#X connect 9 0 0 0;
#X connect 10 0 47 0;
#X connect 11 0 22 0;
#X connect 13 0 15 0;
#X connect 13 1 34 0;
#X connect 15 0 34 0;
#X connect 16 0 17 0;
#X connect 17 0 18 0;
#X connect 19 0 27 0;
#X connect 20 0 69 0;
#X connect 20 0 84 0;
#X connect 21 0 17 1;
#X connect 22 0 9 0;
#X connect 22 1 10 0;
#X connect 25 0 34 1;
#X connect 27 0 28 0;
#X connect 28 0 29 0;
#X connect 29 0 3 0;
#X connect 30 0 22 0;
#X connect 31 0 10 0;
#X connect 34 0 21 0;
#X connect 47 0 48 1;
#X connect 48 0 52 0;
#X connect 52 0 1 0;
#X connect 52 0 54 0;
#X connect 52 0 16 0;
#X connect 55 0 52 0;
#X connect 55 1 52 1;
#X connect 57 0 58 0;
#X connect 58 0 55 0;
#X connect 59 0 60 0;
#X connect 60 0 62 0;
#X connect 60 1 61 0;
#X connect 61 0 57 0;
#X connect 62 0 55 0;
#X connect 63 0 64 0;
#X connect 64 0 13 0;
#X connect 64 1 66 0;
#X connect 66 0 71 0;
#X connect 67 0 83 0;
#X connect 69 0 25 0;
#X connect 70 0 68 0;
#X connect 70 0 65 0;
#X connect 71 0 77 0;
#X connect 72 0 70 0;
#X connect 73 0 74 0;
#X connect 74 0 75 0;
#X connect 75 0 72 0;
#X connect 76 0 72 1;
#X connect 77 0 73 0;
#X connect 77 1 76 0;
#X connect 77 2 78 0;
#X connect 78 0 79 0;
#X connect 79 0 70 0;
#X connect 83 0 68 0;
#X connect 83 0 65 0;
