#N canvas 23 207 1203 760 10;
#X text 27 736 output;
#X obj 748 380 inlet;
#X obj 166 269 mtof, f 5;
#X obj 191 163 bng 15 250 50 0 empty empty empty 17 7 0 10 -262144
-1 -1;
#X text 23 376 FREQ;
#X text 814 511 GAIN;
#X obj 166 189 f \$2;
#X obj 253 139 f \$1;
#X obj 166 60 loadbang;
#X text 778 450 sensor ctrls gain;
#X obj 748 512 moses 0.1;
#X text 671 553 round to 0;
#X msg 748 551 0;
#X obj 166 656 *~, f 97;
#X obj 25 704 outlet~;
#X obj 621 289 r FUNDA_MENTAL;
#X obj 967 412 r RAMP_TIME;
#X obj 748 613 line~;
#X obj 166 107 t b b, f 15;
#X text 1053 418 0-1;
#X obj 967 561 + 20;
#X text 1006 571 scale \, offset ramp time;
#X obj 143 62 bng 15 250 50 0 empty empty empty 17 7 0 10 -262144 -1
-1;
#X floatatom 264 108 2 0 32 0 - - -;
#X text 36 242 midi + offset;
#X obj 748 591 pack 0 1000, f 37;
#X text 957 397 line ramp time - global from pot;
#X text 872 615 amp time-global from pot \, DEF=1000;
#X text 397 105 freq ofset from pot 12 midi notes;
#X text 787 380 LDRs input list 10-norm;
#X text 774 75 \$1=sensor/clone numebr-used to get freq from funda
mental;
#X text 774 96 \$2 - fundamental freq MIDI (or HZ??);
#X text 775 32 $ ARGS;
#X text 773 114 global variables from send parameters;
#X text 773 127 amp ramp time-from pot via send \, DEF=1000;
#X text 773 140 funda_mental - offset freq 0-12 midi \, DEF=0;
#X text 775 48 1 SINOSC VOICE FOR ADDITIVE CLONE PATCH;
#X obj 253 161 + 1;
#X obj 166 351 *, f 15;
#X text 774 61 freq = MIDI MOTE ARG \$2 * clone numbner;
#X text 774 153 mul_fact-by what factor we multiply freq note - 2-5
\, def 2;
#X floatatom 318 467 5 0 0 0 - - -;
#X text 311 674 freq of clone;
#X obj 469 221 r HARM_RAND;
#X obj 469 279 sel 0 1, f 13;
#X obj 513 305 random 200;
#X msg 469 341 1;
#X obj 748 448 *;
#X obj 790 416 route \$1;
#X floatatom 1021 518 5 0 0 0 - - -;
#X floatatom 126 244 5 0 0 0 - - -;
#X obj 967 465 *;
#X text 87 128 sensor numebr 0-31;
#X text 93 140 clone numebr 0-31;
#X text 256 180 1-32;
#X text 60 188 midi note arg \$2;
#X obj 348 182 / 100;
#X obj 348 204 + 1;
#X obj 311 138 sel 0 1, f 13;
#X obj 348 160 random 200;
#X msg 311 196 1;
#X floatatom 119 470 5 0 0 0 - - -;
#X obj 311 105 r HARM_RATIO;
#X obj 292 83 tgl 15 0 empty empty empty 17 7 0 10 -262144 -1 -1 0
1;
#X obj 253 315 *, f 21;
#X obj 271 257 t b b f, f 18;
#X floatatom 348 227 5 0 0 0 - - -;
#X obj 513 349 - 1;
#X obj 166 394 t f f, f 33;
#X text 532 457 beat freq;
#X obj 406 468 outlet 2nd osc freq;
#X obj 361 432 +, f 29;
#X text 24 391 = MIDInote in HZ;
#X text 23 407 * clone numbner;
#X obj 186 471 outlet 1st freq;
#X obj 166 517 osc~;
#X obj 361 518 osc~;
#X obj 469 380 t b b f, f 11;
#X obj 469 250 change;
#X obj 361 611 *~, f 44;
#X obj 621 512 sig~;
#X obj 621 555 lop~ 1;
#X obj 167 614 *~, f 14;
#X obj 247 537 sig~ 1;
#X obj 248 571 -~;
#X obj 248 593 lop~ 1;
#X text 626 311 mix between two oscillators;
#X obj 167 562 *~ 0.5, f 7;
#X obj 361 568 *~ 0.5, f 7;
#X obj 967 519 * 5000;
#X obj 513 327 / 10;
#X connect 1 0 48 0;
#X connect 1 0 47 0;
#X connect 1 0 47 1;
#X connect 2 0 38 0;
#X connect 3 0 6 0;
#X connect 6 0 2 0;
#X connect 7 0 37 0;
#X connect 8 0 18 0;
#X connect 10 0 12 0;
#X connect 10 1 25 0;
#X connect 12 0 25 0;
#X connect 13 0 14 0;
#X connect 15 0 80 0;
#X connect 16 0 51 0;
#X connect 16 0 51 1;
#X connect 17 0 13 1;
#X connect 18 0 6 0;
#X connect 18 1 7 0;
#X connect 20 0 25 1;
#X connect 22 0 18 0;
#X connect 23 0 7 0;
#X connect 25 0 17 0;
#X connect 37 0 64 0;
#X connect 38 0 68 0;
#X connect 43 0 78 0;
#X connect 44 0 46 0;
#X connect 44 1 45 0;
#X connect 45 0 90 0;
#X connect 46 0 77 0;
#X connect 47 0 10 0;
#X connect 51 0 49 0;
#X connect 51 0 89 0;
#X connect 56 0 57 0;
#X connect 57 0 65 0;
#X connect 57 0 66 0;
#X connect 58 0 60 0;
#X connect 58 1 59 0;
#X connect 59 0 56 0;
#X connect 60 0 65 0;
#X connect 62 0 58 0;
#X connect 63 0 58 0;
#X connect 64 0 38 1;
#X connect 65 0 38 0;
#X connect 65 1 64 0;
#X connect 65 2 64 1;
#X connect 67 0 77 0;
#X connect 68 0 61 0;
#X connect 68 0 74 0;
#X connect 68 0 75 0;
#X connect 68 1 71 0;
#X connect 71 0 41 0;
#X connect 71 0 70 0;
#X connect 71 0 76 0;
#X connect 75 0 87 0;
#X connect 76 0 88 0;
#X connect 77 1 71 0;
#X connect 77 2 71 1;
#X connect 78 0 44 0;
#X connect 79 0 13 0;
#X connect 80 0 81 0;
#X connect 80 0 84 1;
#X connect 81 0 79 1;
#X connect 82 0 13 0;
#X connect 83 0 84 0;
#X connect 84 0 85 0;
#X connect 85 0 82 1;
#X connect 87 0 82 0;
#X connect 88 0 79 0;
#X connect 89 0 20 0;
#X connect 90 0 67 0;
