#N canvas 351 129 1120 742 10;
#X obj 96 363 + 0, f 30;
#X obj 95 604 outlet;
#X text 95 626 freq overall;
#X text 220 606 output;
#X obj 271 336 t b f;
#X obj 536 373 inlet;
#X obj 96 402 mtof;
#X obj 37 102 bng 15 250 50 0 empty empty empty 17 7 0 10 -262144 -1
-1;
#X floatatom 553 454 5 0 0 0 - - -, f 5;
#X text 60 441 FREQ;
#X text 555 467 GAIN;
#X floatatom -6 101 5 0 0 0 - - -, f 5;
#X obj 56 129 f \$2;
#X obj 158 79 f \$1;
#X obj 56 10 loadbang;
#X obj 96 205 +, f 15;
#X floatatom 110 227 5 0 0 0 - - -, f 5;
#X text 578 373 sensor ctrls gain;
#X floatatom 573 397 5 0 0 0 - - -, f 5;
#X obj 493 398 moses 0.1;
#X text 416 429 round to 0;
#X msg 493 427 0;
#X obj 535 431 *;
#X obj 271 509 osc~;
#X obj 272 570 *~, f 32;
#X obj 272 608 outlet~;
#X obj 198 166 * 2, f 11;
#X obj 315 251 r FUNDA_MENTAL;
#X obj 658 453 r RAMP_TIME;
#X obj 493 549 line~;
#X floatatom 671 530 5 0 0 0 - - -, f 5;
#X floatatom 174 389 5 0 0 0 - - -, f 5;
#X obj 56 47 t b b, f 15;
#X text 63 70 sensor numebr;
#X text 744 454 0-1;
#X obj 658 497 + 20;
#X text 697 497 scale \, offset ramp time;
#X obj 271 271 * 12;
#X obj 271 293 int;
#X obj 271 315 change;
#X floatatom 271 250 5 0 1 0 - - -, f 5;
#X floatatom 776 454 5 0 1 0 - - -, f 5;
#X floatatom 493 374 5 0 1 0 - - -, f 5;
#X obj 33 12 bng 15 250 50 0 empty empty empty 17 7 0 10 -262144 -1
-1;
#X floatatom 169 48 2 0 32 0 - - -, f 2;
#X floatatom 22 440 5 0 0 0 - - -, f 5;
#X text 24 148 freq arg \$2;
#X text 214 389 midi + offset;
#X text 70 82 clone numebr;
#X text 155 227 midi note from init;
#X text 90 489 freq = MIDI MOTE ARG \$2 + ( clone numbner * 2);
#X obj 493 527 pack 0 1000, f 24;
#X obj 658 475 * 2000;
#X text 658 433 line ramp time - global from pot;
#X text 712 530 amp time-global from pot \, DEF=1000;
#X text 420 251 freq ofset from pot 12 midi notes;
#X floatatom 315 272 5 0 0 0 - - -, f 5;
#X text 494 348 LDRs input list 10-norm;
#X text 514 51 \$1=sensor/clone numebr-used to get freq from funda
mental;
#X text 514 67 \$2 - fundamental freq MIDI (or HZ??);
#X text 514 38 $ ARGS;
#X text 514 85 global variables from send parameters;
#X text 514 106 amp ramp time-from pot via send \, DEF=1000;
#X text 514 119 funda_mental - offset freq 0-12 midi \, DEF=0;
#X text 514 134 mul_fact-by what factor we multiply fund MIDI note
- 2-5 \, def 2;
#X obj 210 8 r MUL_FACT;
#X obj 210 90 * 5;
#X obj 210 112 + 2;
#X text 513 3 1 SINOSC VOICE FOR ADDITIVE CLONE PATCH;
#X text 513 21 freq = MIDI MOTE ARG \$2 + ( clone numbner * 2);
#X obj 210 44 round_zero 0.1;
#X floatatom 303 9 5 0 1 0 - - -, f 5;
#X floatatom 250 106 5 0 0 0 - - -, f 5;
#X obj 209 66 change;
#X floatatom 134 110 2 0 32 0 - - -, f 2;
#X obj 210 134 t b b f;
#X connect 0 0 31 0;
#X connect 0 0 6 0;
#X connect 4 0 0 0;
#X connect 4 1 0 1;
#X connect 5 0 18 0;
#X connect 5 0 19 0;
#X connect 6 0 23 0;
#X connect 6 0 45 0;
#X connect 6 0 1 0;
#X connect 7 0 12 0;
#X connect 11 0 12 0;
#X connect 12 0 15 0;
#X connect 13 0 26 0;
#X connect 13 0 74 0;
#X connect 14 0 32 0;
#X connect 15 0 16 0;
#X connect 15 0 0 0;
#X connect 19 0 21 0;
#X connect 19 1 22 0;
#X connect 19 1 22 1;
#X connect 21 0 8 0;
#X connect 21 0 51 0;
#X connect 22 0 8 0;
#X connect 22 0 51 0;
#X connect 23 0 24 0;
#X connect 24 0 25 0;
#X connect 26 0 15 1;
#X connect 27 0 37 0;
#X connect 27 0 56 0;
#X connect 28 0 52 0;
#X connect 29 0 24 1;
#X connect 32 0 12 0;
#X connect 32 1 13 0;
#X connect 35 0 30 0;
#X connect 35 0 51 1;
#X connect 37 0 38 0;
#X connect 38 0 39 0;
#X connect 39 0 4 0;
#X connect 40 0 37 0;
#X connect 41 0 52 0;
#X connect 42 0 19 0;
#X connect 43 0 32 0;
#X connect 44 0 13 0;
#X connect 51 0 29 0;
#X connect 52 0 35 0;
#X connect 65 0 70 0;
#X connect 66 0 67 0;
#X connect 67 0 72 0;
#X connect 67 0 75 0;
#X connect 70 0 73 0;
#X connect 71 0 70 0;
#X connect 73 0 66 0;
#X connect 75 0 15 0;
#X connect 75 1 26 0;
#X connect 75 2 26 1;
