#N canvas 613 105 684 672 10;
#X obj 92 340 bng 15 250 50 0 empty empty empty 17 7 0 10 -262144 -1
-1;
#X obj 80 366 tabplay~ impulse;
#X obj 192 47 loadbang;
#X obj 126 436 bp~;
#X text 179 536 useful filter settings on bpass q of 17 - poltonowy
filter q of 4 - third octave filter q of 100 - speed of fluctuation
gts around 4 hz at 440 centre freq q of 1 = 1 octave band width for
white noise making an impulse - make a table with 1 points - 1 sample
will be 1 the rest 0 q describes the amount if times that filter rings
before dying out;
#X text 80 29 INLETS - BANG;
#X obj 67 606 throw~ 1imp;
#X text 110 65 impulse;
#X obj 80 46 inlet;
#X obj 293 354 outlet;
#X obj 122 48 bng 15 250 50 0 empty empty empty 17 7 0 10 -262144 -1
-1;
#X obj 327 110 f \$1;
#X obj 89 68 bng 15 250 50 0 empty empty empty 17 7 0 10 -262144 -1
-1;
#X obj 295 46 inlet;
#X floatatom 348 46 5 0 0 0 - - -, f 5;
#X text 108 132 ffreq in MIDI;
#X text 110 141 from abs arg;
#X obj 215 134 f \$1;
#X obj 112 246 mtof;
#X text 337 326 Q \, FREQ \, 2dn frew Offset \, as list;
#X obj 293 302 pack f f f;
#X obj 387 281 r \$0-offset;
#X obj 158 287 s \$0-freq;
#X obj 321 281 r \$0-freq;
#X text 100 7 CREATion ARGUMENTS -FILTER FREQ IN MIDI note;
#X obj 293 150 t f f;
#X obj 66 563 +~;
#X obj 264 48 bng 15 250 50 0 empty empty empty 17 7 0 10 -262144 -1
-1;
#X obj 295 76 t f f;
#X obj 192 68 t b b b;
#X obj 302 252 s \$0-Q;
#X obj 142 415 r \$0-Q;
#X obj 190 499 line~;
#X msg 190 477 \$1 20;
#X obj 127 538 *~;
#X obj 23 527 *~;
#N canvas 258 122 844 596 2ndOSC 0;
#X obj 538 36 inlet;
#X obj 531 502 outlet~;
#X obj 212 384 inlet~;
#X obj 531 400 bp~;
#X obj 538 327 +;
#X floatatom 583 470 7 0 0 0 - - -, f 7;
#X floatatom 550 350 5 0 0 0 - - -, f 5;
#X floatatom 492 265 5 0 0 0 - - -, f 5;
#X obj 457 133 mtof;
#X text 258 109 pol tonu = 100centow;
#X obj 504 132 mtof;
#X floatatom 504 153 5 0 0 0 - - -, f 5;
#X obj 474 153 -;
#X floatatom 421 185 5 0 0 0 - - -, f 5;
#X obj 457 111 + 0.5;
#X text 86 132 to have the same ratio at different frequencies!!!;
#X obj 538 241 random;
#X obj 577 216 * 100;
#X text 302 346 2nd osc freq based on first;
#X text 613 216 to get floats;
#X text 345 267 to get floats;
#X obj 538 263 * 0.01;
#X floatatom 705 294 5 0 0 0 - - -, f 5;
#X obj 705 271 * 0.5;
#X floatatom 425 157 5 0 0 0 - - -, f 5;
#X text 183 172 range of 100 cents in HZ (freq);
#X obj 577 188 t f f;
#X obj 538 288 -;
#X text 139 290 to get positive as well as negative values - higher
and lower freqs;
#X text 61 159 Generate second freq of impulse from the first one;
#X text 231 331 finally add it to the freq of first osc;
#X floatatom 566 328 5 0 0 0 - - -, f 5;
#X text 363 427 volume of detuned osc;
#X obj 531 484 *~ 0;
#X text 578 38 freq orginal;
#X obj 538 62 t b f f f;
#X text 210 365 impulse in;
#X obj 629 383 inlet;
#X obj 504 111 - 0.5;
#X obj 553 109 mtof;
#X text 670 382 Q;
#X obj 671 474 switch~;
#X obj 583 426 t f f;
#X obj 655 476 tgl 15 0 empty empty empty 17 7 0 10 -262144 -1 -1 1
1;
#X floatatom 664 431 5 0 0 0 - - -, f 5;
#X obj 723 330 outlet;
#X text 615 329 freq 2 offset;
#X obj 655 450 oneARDinCOMPARE 0.1;
#X obj 583 403 r PTCH5_PAR_A1;
#X connect 0 0 35 0;
#X connect 2 0 3 0;
#X connect 3 0 33 0;
#X connect 4 0 3 1;
#X connect 4 0 6 0;
#X connect 8 0 12 0;
#X connect 8 0 24 0;
#X connect 10 0 11 0;
#X connect 10 0 12 1;
#X connect 12 0 13 0;
#X connect 12 0 26 0;
#X connect 14 0 8 0;
#X connect 16 0 21 0;
#X connect 17 0 16 1;
#X connect 21 0 7 0;
#X connect 21 0 27 0;
#X connect 23 0 22 0;
#X connect 23 0 27 1;
#X connect 26 0 17 0;
#X connect 26 1 23 0;
#X connect 27 0 4 0;
#X connect 27 0 31 0;
#X connect 27 0 45 0;
#X connect 33 0 1 0;
#X connect 35 0 16 0;
#X connect 35 1 14 0;
#X connect 35 2 38 0;
#X connect 35 3 39 0;
#X connect 37 0 3 2;
#X connect 38 0 10 0;
#X connect 39 0 4 1;
#X connect 42 0 33 1;
#X connect 42 0 5 0;
#X connect 42 1 47 0;
#X connect 47 0 43 0;
#X connect 47 0 41 0;
#X connect 48 0 44 0;
#X connect 48 0 42 0;
#X restore 22 435 pd 2ndOSC;
#X obj 80 87 t b b;
#X obj 52 211 t f f, f 9;
#X obj 61 415 r \$0-Q;
#X floatatom 423 304 5 0 0 0 - - -, f 5;
#X obj 112 267 t f f f;
#N canvas 252 240 380 264 QkeyboardTrack 1;
#X obj 53 222 outlet;
#X obj 207 35 inlet;
#X text 40 138 Q;
#X obj 53 138 *;
#X text 208 226 lower q = louder;
#X floatatom 137 224 9 0 0 0 - - -, f 9;
#X obj 207 56 mtof;
#X floatatom 207 99 5 0 0 0 - - -, f 5;
#X obj 207 76 / 261;
#X text 87 135 change q depending on frequency -;
#X text 80 145 the higher frequency the higher the q;
#X text 246 76 srodek freq;
#X text 39 183 Q;
#X text 69 56 Q factor;
#X obj 53 97 *;
#X obj 53 34 r PTCH5_PAR_A2;
#X obj 53 183 * 10000;
#X connect 1 0 6 0;
#X connect 3 0 16 0;
#X connect 6 0 8 0;
#X connect 8 0 7 0;
#X connect 8 0 3 1;
#X connect 14 0 3 0;
#X connect 15 0 14 0;
#X connect 15 0 14 1;
#X connect 16 0 5 0;
#X connect 16 0 0 0;
#X restore 293 231 pd QkeyboardTrack;
#X text 425 231 lower q = louder;
#X text 371 250 change q depending on frequency -;
#X text 364 260 the higher frequency the higher the q;
#X text 264 25 midi note from scales;
#N canvas 41 527 246 223 VOLUMEkeytrack 0;
#X obj 155 57 inlet;
#X obj 109 201 outlet;
#X floatatom 155 117 5 0 0 0 - - -, f 5;
#X obj 18 113 *;
#X obj 155 93 / 60;
#X text 31 93 srodek klawiatury;
#X floatatom 61 199 5 0 0 0 - - -, f 5;
#X obj 18 158 moses 100;
#X text 26 40 Q factor;
#X text 153 33 midi note;
#X floatatom 52 68 5 0 0 0 - - -, f 5;
#X floatatom 18 198 5 0 0 0 - - -, f 5;
#X obj 18 135 * 1000;
#X obj 18 15 r PTCH5_PAR_A2;
#X connect 0 0 4 0;
#X connect 3 0 12 0;
#X connect 4 0 2 0;
#X connect 4 0 3 1;
#X connect 7 0 11 0;
#X connect 7 1 6 0;
#X connect 7 1 1 0;
#X connect 12 0 7 0;
#X connect 13 0 3 0;
#X connect 13 0 10 0;
#X restore 325 460 pd VOLUMEkeytrack;
#X floatatom 325 502 5 0 0 0 - - -, f 5;
#X text 272 480 volume higher with higher freq;
#X text 462 282 freq 2 offset;
#X obj 33 466 s \$0-offset;
#X obj 67 584 cyclone/atan~;
#X connect 0 0 1 0;
#X connect 1 0 3 0;
#X connect 1 0 36 0;
#X connect 2 0 29 0;
#X connect 3 0 34 0;
#X connect 8 0 12 0;
#X connect 8 0 37 0;
#X connect 10 0 37 0;
#X connect 11 0 25 0;
#X connect 13 0 28 0;
#X connect 14 0 28 0;
#X connect 17 0 38 0;
#X connect 18 0 41 0;
#X connect 20 0 9 0;
#X connect 21 0 20 2;
#X connect 21 0 40 0;
#X connect 23 0 20 1;
#X connect 25 0 42 0;
#X connect 25 1 47 0;
#X connect 26 0 52 0;
#X connect 27 0 29 0;
#X connect 28 0 17 1;
#X connect 28 1 11 0;
#X connect 29 0 37 0;
#X connect 29 1 17 0;
#X connect 29 2 11 0;
#X connect 31 0 3 2;
#X connect 32 0 34 1;
#X connect 32 0 35 1;
#X connect 33 0 32 0;
#X connect 34 0 26 1;
#X connect 35 0 26 0;
#X connect 36 0 35 0;
#X connect 36 1 51 0;
#X connect 37 0 1 0;
#X connect 37 1 17 0;
#X connect 38 0 36 1;
#X connect 38 1 18 0;
#X connect 39 0 36 2;
#X connect 41 1 3 1;
#X connect 41 2 22 0;
#X connect 42 0 30 0;
#X connect 42 0 20 0;
#X connect 47 0 33 0;
#X connect 47 0 48 0;
#X connect 52 0 6 0;
