#N canvas 43 415 288 347 10;
#X obj 18 197 int;
#X obj 18 34 inlet;
#X obj 18 267 outlet;
#X obj 18 243 change;
#X obj 18 134 mapping/smooth 0.5;
#X obj 18 57 speedlim 50;
#X obj 18 110 * \$1;
#X text 54 119 HOW MANY STATES SWITCH HAS;
#X obj 18 79 expr (( $f1 / 1024) * -1) + 1;
#X text 55 106 ARGUMENT \$1;
#X text 95 173 force output on load;
#X obj 31 170 loadbang;
#X obj 18 219 + \$2;
#X text 66 219 \$2 - offset;
#X connect 0 0 12 0;
#X connect 1 0 5 0;
#X connect 3 0 2 0;
#X connect 4 0 0 0;
#X connect 5 0 8 0;
#X connect 6 0 4 0;
#X connect 8 0 6 0;
#X connect 11 0 0 0;
#X connect 12 0 3 0;
