#N canvas 792 396 443 226 10;
#X obj 24 18 inlet;
#X text 160 20 incoming sensor value;
#X obj 24 194 outlet;
#X text 82 194 scaled out value;
#X text 153 150 3;
#X text 168 152 smooth value (float 0-1);
#X text 151 166 im blizsza zera tym wolniej sie rusza;
#X obj 24 65 t f b;
#X obj 24 88 f;
#X obj 25 108 +;
#X obj 25 130 / 2;
#X obj 24 42 trigger f f;
#X text 98 67 averaging filter of last 2 values / low pass;
#X obj 140 108 r smooth_factor_ldrs;
#X obj 24 160 mapping/smooth \$2;
#X connect 0 0 11 0;
#X connect 7 0 8 1;
#X connect 7 1 8 0;
#X connect 8 0 9 0;
#X connect 9 0 10 0;
#X connect 10 0 14 0;
#X connect 11 0 7 0;
#X connect 11 1 9 1;
#X connect 14 0 2 0;
