#N canvas 353 396 442 458 10;
#X obj 58 96 int;
#X floatatom 108 353 5 0 0 0 - - -, f 5;
#X obj 58 150 sel 0 1, f 9;
#X obj 58 126 change;
#X obj 58 22 inlet;
#X obj 58 354 outlet;
#X text 146 353 scaled out value;
#X text 118 124 out only if input changed;
#X text 121 98 force to int;
#X obj 58 328 + \$2;
#X obj 58 49 cyclone/speedlim 50;
#X text 211 217 send value when initialized;
#X text 105 23 \$1 counter max \, \$2 offest counter;
#X obj 107 283 + 1;
#X obj 58 289 i;
#X obj 107 302 % \$1;
#X obj 279 357 outlet;
#X obj 149 204 loadbang;
#X text 209 203 to avoid zero as first output;
#X text 273 379 R out=bang;
#X text 58 374 L out=int counter;
#X text 147 305 turn into counter;
#X text 102 7 incoming analog value;
#X text 98 327 arg 2=offset;
#X obj 68 174 bng 15 250 50 0 empty empty empty 17 7 0 10 -262144 -1
-1;
#X obj 98 174 bng 15 250 50 0 empty empty empty 17 7 0 10 -262144 -1
-1;
#X obj 121 175 bng 15 250 50 0 empty empty empty 17 7 0 10 -262144
-1 -1;
#X obj 58 71 * 0.001;
#X msg 31 199 0;
#X msg 88 195 1;
#X obj 58 266 t b b, f 32;
#X connect 0 0 3 0;
#X connect 2 0 24 0;
#X connect 2 0 28 0;
#X connect 2 0 30 0;
#X connect 2 1 25 0;
#X connect 2 1 29 0;
#X connect 2 2 26 0;
#X connect 3 0 2 0;
#X connect 4 0 10 0;
#X connect 9 0 1 0;
#X connect 9 0 5 0;
#X connect 10 0 27 0;
#X connect 13 0 15 0;
#X connect 14 0 13 0;
#X connect 14 0 9 0;
#X connect 15 0 14 1;
#X connect 17 0 30 0;
#X connect 27 0 0 0;
#X connect 30 0 14 0;
#X connect 30 1 16 0;
