#N canvas 830 427 450 292 10;
#X obj 26 17 inlet;
#X obj 26 240 outlet;
#X text 84 240 scaled out value;
#X obj 26 71 / 1024;
#X text 90 70 normalize it to 0-1;
#X obj 26 114 t f b;
#X obj 26 137 f;
#X obj 26 167 +;
#X obj 26 189 / 2;
#X obj 26 91 trigger f f;
#X text 100 116 averaging filter of last 2 values / low pass;
#X text 86 19 incoming value;
#X obj 26 215 change;
#X obj 26 44 speedlim 30;
#X connect 0 0 13 0;
#X connect 3 0 9 0;
#X connect 5 0 6 1;
#X connect 5 1 6 0;
#X connect 6 0 7 0;
#X connect 7 0 8 0;
#X connect 8 0 12 0;
#X connect 9 0 5 0;
#X connect 9 1 7 1;
#X connect 12 0 1 0;
#X connect 13 0 3 0;
