#N canvas 1753 593 349 230 10;
#X obj 12 11 inlet;
#X obj 75 178 outlet;
#X obj 12 52 change;
#X text 52 10 button in;
#X obj 12 72 sel 1;
#X obj 159 112 + 1;
#X obj 75 114 i;
#X floatatom 128 177 5 0 0 0 - - -;
#X obj 159 131 % \$1;
#X obj 75 148 + \$2;
#X text 194 113 turn into counter;
#X obj 12 176 outlet;
#X obj 75 85 loadbang;
#X obj 12 31 speedlim 30;
#X text 11 195 L out=bang;
#X text 98 196 R out=int counter;
#X text 101 23 \$1 - counter max;
#X text 101 38 \$2 - offset;
#X text 135 84 to avoid zero as first output;
#X obj 12 92 t b b;
#X connect 0 0 13 0;
#X connect 2 0 4 0;
#X connect 4 0 19 0;
#X connect 5 0 8 0;
#X connect 6 0 5 0;
#X connect 6 0 9 0;
#X connect 8 0 6 1;
#X connect 9 0 7 0;
#X connect 9 0 1 0;
#X connect 12 0 6 0;
#X connect 13 0 2 0;
#X connect 19 0 11 0;
#X connect 19 1 6 0;
