#N canvas 598 416 552 281 10;
#X obj 22 13 inlet;
#X obj 22 233 outlet;
#X text 80 233 scaled out value;
#X text 169 97 smooth value (float 0-1);
#X text 149 115 im blizsza zera tym wolniej sie rusza;
#X obj 22 141 change;
#X text 153 137 out only if input changed;
#X obj 22 172 * \$3;
#X obj 22 202 + \$4;
#X obj 22 40 cyclone/speedlim 50;
#X text 115 14 incoming value;
#X text 163 40 speedlim ms \, - od 20 do 50 jest ok;
#X text 146 76 median int (usredniaj ostatnie x values) \,;
#X obj 22 76 mapping/median \$1;
#X obj 22 109 mapping/smooth \$2;
#X text 151 99 2;
#X text 156 190 3 scale out range max;
#X text 117 210 4 - offset value (+ / - int /float);
#X connect 0 0 9 0;
#X connect 5 0 7 0;
#X connect 7 0 8 0;
#X connect 8 0 1 0;
#X connect 9 0 13 0;
#X connect 13 0 14 0;
#X connect 14 0 5 0;
