#N canvas 273 82 864 689 10;
#X obj 88 191 loadbang;
#X msg 452 499 0;
#X msg 477 499 3;
#X msg 503 499 6;
#X msg 529 499 9;
#X msg 555 499 12;
#X msg 582 499 15;
#X msg 610 499 18;
#X msg 637 499 21;
#X obj 406 444 f \$1;
#X text 491 424 send led number unique for this abstraction;
#X obj 595 516 s \$0-led_no;
#X text 561 466 gets translated to array index;
#X obj 406 424 bng 15 250 50 0 empty empty empty 17 7 0 10 -262144
-1 -1;
#X obj 425 424 loadbang;
#X text 665 479 arg 1-led number;
#X msg 663 499 24;
#X obj 452 482 sel 1 2 3 4 5 6 7 8 9 10 11;
#X msg 689 499 27;
#X msg 699 499 30;
#X text 60 93 incoming list of RGB values;
#X text 65 77 using list replace method;
#X obj 59 134 t l l;
#X obj 316 209 l;
#X obj 91 160 s \$0-ind_LED_state;
#X obj 334 185 r \$0-ind_LED_state;
#X obj 316 120 r update_ind_LED;
#X text 269 240 takes list \, and dest arg \, compares with stored
value amd dest value of the argument \, only outputs value if both
previous val = new and dest = \$1;
#X text 234 186 dest;
#X floatatom 140 546 5 0 0 0 - - -, f 5;
#X floatatom 181 546 5 0 0 0 - - -, f 5;
#X floatatom 225 546 5 0 0 0 - - -, f 5;
#X obj 231 205 r \$0-LED_t;
#X floatatom 252 254 1 0 0 0 - - -, f 1;
#X obj 59 376 * 0.001;
#X obj 59 253 ONElistSTOREandCOMPARE \$1;
#X obj 59 439 * 255;
#X obj 59 471 i;
#X obj 142 440 * 255;
#X obj 142 472 i;
#X obj 225 440 * 255;
#X obj 225 472 i;
#X text 59 422 man contr val for led-RGB;
#X obj 356 491 s \$0-LED_t;
#X text 68 235 list in;
#X obj 59 543 pack f f f;
#X obj 141 588 l;
#X obj 159 567 r new_list;
#X obj 59 565 t l b;
#X obj 59 650 outlet;
#X obj 99 609 r \$0-led_no;
#X text 67 25 takes list of 3 values RGB;
#X text 64 66 changes one led colors;
#X text 66 39 compares with stored RGB list;
#X text 66 53 if LED number = target and RGB list = stored list;
#X text 480 185 store unique RGB val for this led;
#X text 445 446 arg 1-led number (1-8);
#X text 434 532 target for list stored and compared abstraction;
#X text 426 515 same as LED number (1-8);
#X msg 88 212 0 0 0 0 0 0 0 0;
#X obj 328 395 inlet dest;
#X text 461 466 led NO;
#X floatatom 318 432 1 0 0 0 - - -, f 1;
#X obj 59 284 - 23;
#X obj 59 346 change;
#X obj 59 113 inlet RGB;
#X obj 59 315 clip 0 1000;
#X obj 59 406 *;
#X obj 142 376 * 0.001;
#X obj 142 284 - 23;
#X obj 142 346 change;
#X obj 142 315 clip 0 1000;
#X obj 142 406 *;
#X obj 225 376 * 0.001;
#X obj 225 284 - 23;
#X obj 225 346 change;
#X obj 225 315 clip 0 1000;
#X obj 225 406 *;
#X text 147 191 init;
#X text 316 102 B from parent patch when LED No changes;
#X text 98 136 last stored ind LED RGB list;
#X obj 328 375 r led_target;
#X obj 142 494 t b f;
#X obj 225 493 t b f;
#X obj 316 139 s \$0-ind_LED;
#X obj 316 159 r \$0-ind_LED;
#X obj 406 558 outlet;
#X text 467 560 led nr;
#X obj 406 463 t f f f;
#X obj 328 571 !=;
#X text 355 575 if LED not currently selected send 0 0 0 for this led
;
#X obj 328 593 sel 1;
#X msg 328 614 0 0 0;
#X obj 399 619 tgl 15 0 empty empty empty 17 7 0 10 -262144 -1 -1 0
1;
#X floatatom 386 466 1 0 0 0 - - -, f 1;
#X obj 59 631 list-abs/list-replace;
#X connect 0 0 59 0;
#X connect 1 0 11 0;
#X connect 2 0 11 0;
#X connect 3 0 11 0;
#X connect 4 0 11 0;
#X connect 5 0 11 0;
#X connect 6 0 11 0;
#X connect 7 0 11 0;
#X connect 8 0 11 0;
#X connect 9 0 88 0;
#X connect 9 0 94 0;
#X connect 13 0 9 0;
#X connect 14 0 9 0;
#X connect 16 0 11 0;
#X connect 17 0 1 0;
#X connect 17 1 2 0;
#X connect 17 2 3 0;
#X connect 17 3 4 0;
#X connect 17 4 5 0;
#X connect 17 5 6 0;
#X connect 17 6 7 0;
#X connect 17 7 8 0;
#X connect 17 8 16 0;
#X connect 17 9 18 0;
#X connect 17 10 19 0;
#X connect 18 0 11 0;
#X connect 19 0 11 0;
#X connect 22 0 35 0;
#X connect 22 1 24 0;
#X connect 23 0 35 0;
#X connect 25 0 23 1;
#X connect 26 0 84 0;
#X connect 32 0 33 0;
#X connect 32 0 35 1;
#X connect 34 0 67 0;
#X connect 34 0 67 1;
#X connect 35 0 63 0;
#X connect 35 1 69 0;
#X connect 35 2 74 0;
#X connect 36 0 37 0;
#X connect 37 0 45 0;
#X connect 37 0 29 0;
#X connect 38 0 39 0;
#X connect 39 0 30 0;
#X connect 39 0 82 0;
#X connect 40 0 41 0;
#X connect 41 0 45 2;
#X connect 41 0 31 0;
#X connect 41 0 83 0;
#X connect 45 0 48 0;
#X connect 46 0 95 2;
#X connect 47 0 46 1;
#X connect 48 0 95 0;
#X connect 48 1 46 0;
#X connect 50 0 95 1;
#X connect 59 0 35 0;
#X connect 60 0 62 0;
#X connect 60 0 43 0;
#X connect 60 0 89 0;
#X connect 63 0 66 0;
#X connect 64 0 34 0;
#X connect 65 0 22 0;
#X connect 66 0 64 0;
#X connect 67 0 36 0;
#X connect 68 0 72 0;
#X connect 68 0 72 1;
#X connect 69 0 71 0;
#X connect 70 0 68 0;
#X connect 71 0 70 0;
#X connect 72 0 38 0;
#X connect 73 0 77 0;
#X connect 73 0 77 1;
#X connect 74 0 76 0;
#X connect 75 0 73 0;
#X connect 76 0 75 0;
#X connect 77 0 40 0;
#X connect 81 0 62 0;
#X connect 81 0 43 0;
#X connect 81 0 89 0;
#X connect 82 0 45 0;
#X connect 82 1 45 1;
#X connect 83 0 45 0;
#X connect 83 1 45 2;
#X connect 85 0 23 0;
#X connect 88 0 86 0;
#X connect 88 0 89 1;
#X connect 88 1 43 0;
#X connect 88 2 17 0;
#X connect 89 0 91 0;
#X connect 89 0 93 0;
#X connect 91 0 92 0;
#X connect 92 0 95 0;
#X connect 95 0 49 0;
