#N canvas 492 95 481 538 10;
#X obj 183 262 t b f;
#X obj 27 262 t b f;
#X floatatom 27 205 3 0 0 0 - - -, f 3;
#X obj 105 284 pack 0 0 0;
#X obj 183 242 clip 0 255;
#X obj 287 329 l;
#X obj 305 309 r new_list;
#X obj 105 302 t l b;
#X obj 268 142 loadbang;
#X obj 105 242 clip 0 255;
#X obj 105 387 outlet;
#X obj 27 242 clip 0 255;
#X floatatom 105 205 3 0 0 0 - - -, f 3;
#X floatatom 183 205 3 0 0 0 - - -, f 3;
#X msg 47 496 0;
#X msg 72 496 3;
#X msg 98 496 6;
#X msg 124 496 9;
#X msg 150 496 12;
#X msg 177 496 15;
#X msg 205 496 18;
#X msg 232 496 21;
#X obj 47 459 f \$1;
#X text 84 457 arg 1-led number;
#X obj 27 221 change;
#X obj 105 221 change;
#X obj 183 221 change;
#X text 113 439 send led number unique for this abstraction;
#X obj 190 513 s \$0-led_no;
#X obj 157 334 r \$0-led_no;
#X text 199 456 gets translated to array index;
#X obj 205 72 inlet;
#X obj 105 178 unpack f f f;
#X obj 28 439 bng 15 250 50 0 empty empty empty 17 7 0 10 -262144 -1
-1;
#X obj 47 439 loadbang;
#X text 260 476 arg 1-led number;
#X text 24 410 takes list of 3 values RGB \, replaces only one led
value;
#X msg 258 496 24;
#X obj 47 479 sel 1 2 3 4 5 6 7 8 9 10 11;
#X msg 284 496 27;
#X msg 311 496 30;
#X msg 268 161 0 0 0;
#X text 246 71 incoming list of RGB values;
#X text 26 423 using list replace method;
#X obj 205 93 t l l;
#X obj 24 92 l;
#X obj 237 113 s \$0-ind_LED_state;
#X obj 42 68 r \$0-ind_LED_state;
#X text 267 182 init-no colour;
#X text 42 53 store unique RGB val for this led;
#X obj 24 33 r update_ind_LED;
#X text 144 34 get BANG from parent patch and upade;
#X text 243 94 store ind LED RGB values;
#X obj 105 368 list-abs/list-replace;
#X connect 0 0 3 0;
#X connect 0 1 3 2;
#X connect 1 0 3 0;
#X connect 1 1 3 1;
#X connect 2 0 24 0;
#X connect 3 0 7 0;
#X connect 4 0 0 0;
#X connect 5 0 53 2;
#X connect 6 0 5 1;
#X connect 7 0 53 0;
#X connect 7 1 5 0;
#X connect 8 0 41 0;
#X connect 9 0 3 0;
#X connect 11 0 1 0;
#X connect 12 0 25 0;
#X connect 13 0 26 0;
#X connect 14 0 28 0;
#X connect 15 0 28 0;
#X connect 16 0 28 0;
#X connect 17 0 28 0;
#X connect 18 0 28 0;
#X connect 19 0 28 0;
#X connect 20 0 28 0;
#X connect 21 0 28 0;
#X connect 22 0 38 0;
#X connect 24 0 11 0;
#X connect 25 0 9 0;
#X connect 26 0 4 0;
#X connect 29 0 53 1;
#X connect 31 0 44 0;
#X connect 32 0 2 0;
#X connect 32 1 12 0;
#X connect 32 2 13 0;
#X connect 33 0 22 0;
#X connect 34 0 22 0;
#X connect 37 0 28 0;
#X connect 38 0 14 0;
#X connect 38 1 15 0;
#X connect 38 2 16 0;
#X connect 38 3 17 0;
#X connect 38 4 18 0;
#X connect 38 5 19 0;
#X connect 38 6 20 0;
#X connect 38 7 21 0;
#X connect 38 8 37 0;
#X connect 38 9 39 0;
#X connect 38 10 40 0;
#X connect 39 0 28 0;
#X connect 40 0 28 0;
#X connect 41 0 32 0;
#X connect 44 0 32 0;
#X connect 44 1 46 0;
#X connect 45 0 32 0;
#X connect 47 0 45 1;
#X connect 50 0 45 0;
#X connect 53 0 10 0;
