#N canvas 496 316 749 363 10;
#X obj 204 179 t b f;
#X obj 48 179 t b f;
#X floatatom 48 119 3 0 0 0 - - -, f 3;
#X obj 126 196 pack 0 0 0;
#X obj 204 159 clip 0 255;
#X obj 288 254 l;
#X obj 306 234 r new_list;
#X obj 126 217 t l b;
#X obj 48 81 loadbang;
#X obj 126 159 clip 0 255;
#X obj 126 306 outlet;
#X obj 48 159 clip 0 255;
#X floatatom 126 119 3 0 0 0 - - -, f 3;
#X floatatom 204 119 3 0 0 0 - - -, f 3;
#X msg 309 201 0;
#X msg 340 201 3;
#X msg 373 201 6;
#X msg 404 201 9;
#X msg 433 201 12;
#X msg 464 201 15;
#X msg 497 201 18;
#X msg 528 201 21;
#X obj 309 149 f \$1;
#X text 346 148 arg 1-led number;
#X msg 48 102 0;
#X obj 48 138 change;
#X obj 126 138 change;
#X obj 204 138 change;
#X text 375 125 send led number unique for this abstraction;
#X obj 452 218 s \$0-led_no;
#X obj 188 261 r \$0-led_no;
#X text 468 148 gets translated to array index;
#X obj 127 69 inlet;
#X obj 127 90 unpack f f f;
#X obj 292 125 bng 15 250 50 0 empty empty empty 17 7 0 10 -262144
-1 -1;
#X obj 309 125 loadbang;
#X text 244 68 using list replace;
#X text 246 100 arg 1-led number;
#X text 246 86 takes list of 3 values RGB \, replaces only one led
value;
#X msg 561 201 24;
#X obj 309 170 sel 1 2 3 4 5 6 7 8 9 10 11;
#X msg 594 201 27;
#X msg 625 201 30;
#X obj 126 286 list-abs/list-replace;
#X connect 0 0 3 0;
#X connect 0 1 3 2;
#X connect 1 0 3 0;
#X connect 1 1 3 1;
#X connect 2 0 25 0;
#X connect 3 0 7 0;
#X connect 4 0 0 0;
#X connect 5 0 43 2;
#X connect 6 0 5 1;
#X connect 7 0 43 0;
#X connect 7 1 5 0;
#X connect 8 0 24 0;
#X connect 9 0 3 0;
#X connect 11 0 1 0;
#X connect 12 0 26 0;
#X connect 13 0 27 0;
#X connect 14 0 29 0;
#X connect 15 0 29 0;
#X connect 16 0 29 0;
#X connect 17 0 29 0;
#X connect 18 0 29 0;
#X connect 19 0 29 0;
#X connect 20 0 29 0;
#X connect 21 0 29 0;
#X connect 22 0 40 0;
#X connect 24 0 13 0;
#X connect 24 0 12 0;
#X connect 24 0 2 0;
#X connect 25 0 11 0;
#X connect 26 0 9 0;
#X connect 27 0 4 0;
#X connect 30 0 43 1;
#X connect 32 0 33 0;
#X connect 33 0 2 0;
#X connect 33 1 12 0;
#X connect 33 2 13 0;
#X connect 34 0 22 0;
#X connect 35 0 22 0;
#X connect 39 0 29 0;
#X connect 40 0 14 0;
#X connect 40 1 15 0;
#X connect 40 2 16 0;
#X connect 40 3 17 0;
#X connect 40 4 18 0;
#X connect 40 5 19 0;
#X connect 40 6 20 0;
#X connect 40 7 21 0;
#X connect 40 8 39 0;
#X connect 40 9 41 0;
#X connect 40 10 42 0;
#X connect 41 0 29 0;
#X connect 42 0 29 0;
#X connect 43 0 10 0;
