#N canvas 260 215 1005 561 10;
#X obj 266 309 inlet RGB;
#X msg 88 255 0;
#X msg 113 255 3;
#X msg 139 255 6;
#X msg 165 255 9;
#X msg 191 255 12;
#X msg 218 255 15;
#X msg 246 255 18;
#X msg 273 255 21;
#X obj 42 178 f \$1;
#X text 79 176 arg 1-led number;
#X text 108 158 send led number unique for this abstraction;
#X obj 231 272 s \$0-led_no;
#X text 203 177 gets translated to array index;
#X obj 23 158 bng 15 250 50 0 empty empty empty 17 7 0 10 -262144 -1
-1;
#X obj 42 158 loadbang;
#X msg 299 255 24;
#X obj 88 238 sel 1 2 3 4 5 6 7 8 9 10 11;
#X msg 325 255 27;
#X msg 352 255 30;
#X text 21 142 use append methd;
#X obj 388 235 outlet;
#X text 67 93 arg \$1-led number;
#X text 390 256 led number;
#X text 335 310 incoming list of RGB values;
#X obj 266 329 t l l;
#X text 304 330 store ind LED RGB values;
#X text 65 70 changes one led colors;
#X text 66 57 if LED number = target and RGB list = stored list;
#X text 68 35 takes led NO and list of 3 values RGB;
#X text 67 46 stores and compares with previous RGB list;
#X obj 12 381 inlet led_number;
#X obj 641 345 f \$1;
#X obj 641 325 bng 15 250 50 0 empty empty empty 17 7 0 10 -262144
-1 -1;
#X obj 660 325 loadbang;
#X obj 591 392 s \$0-LED_t;
#X text 669 433 target for list stored and compared abstraction;
#X text 661 416 same as LED number (1-8);
#X obj 563 296 inlet dest;
#X floatatom 553 333 1 0 0 0 - - -, f 1;
#X obj 563 276 r led_target;
#X obj 641 459 outlet;
#X obj 641 364 t f f f;
#X obj 563 472 !=;
#X text 590 476 if LED not currently selected send 0 0 0 for this led
;
#X obj 563 494 sel 1;
#X msg 563 515 0 0 0;
#X obj 634 520 tgl 15 0 empty empty empty 17 7 0 10 -262144 -1 -1 0
1;
#X floatatom 621 367 1 0 0 0 - - -, f 1;
#X obj 42 214 t f f f;
#X obj 298 356 1_RGB_str_cpr;
#X connect 0 0 25 0;
#X connect 1 0 12 0;
#X connect 2 0 12 0;
#X connect 3 0 12 0;
#X connect 4 0 12 0;
#X connect 5 0 12 0;
#X connect 6 0 12 0;
#X connect 7 0 12 0;
#X connect 8 0 12 0;
#X connect 9 0 49 0;
#X connect 14 0 9 0;
#X connect 15 0 9 0;
#X connect 16 0 12 0;
#X connect 17 0 1 0;
#X connect 17 1 2 0;
#X connect 17 2 3 0;
#X connect 17 3 4 0;
#X connect 17 4 5 0;
#X connect 17 5 6 0;
#X connect 17 6 7 0;
#X connect 17 7 8 0;
#X connect 17 8 16 0;
#X connect 17 9 18 0;
#X connect 17 10 19 0;
#X connect 18 0 12 0;
#X connect 19 0 12 0;
#X connect 25 1 50 0;
#X connect 32 0 42 0;
#X connect 32 0 48 0;
#X connect 33 0 32 0;
#X connect 34 0 32 0;
#X connect 38 0 39 0;
#X connect 38 0 35 0;
#X connect 38 0 43 0;
#X connect 40 0 39 0;
#X connect 40 0 35 0;
#X connect 40 0 43 0;
#X connect 42 0 41 0;
#X connect 42 0 43 1;
#X connect 42 1 35 0;
#X connect 43 0 45 0;
#X connect 43 0 47 0;
#X connect 45 0 46 0;
#X connect 49 2 17 0;
