#N canvas 140 144 455 287 10;
#X obj 34 21 inlet;
#X text 170 23 incoming sensor value;
#X obj 34 258 outlet;
#X text 92 258 scaled out value;
#X text 163 214 3;
#X text 178 216 smooth value (float 0-1);
#X text 161 230 im blizsza zera tym wolniej sie rusza;
#X obj 34 129 t f b;
#X obj 34 152 f;
#X obj 35 172 +;
#X obj 35 194 / 2;
#X obj 34 106 trigger f f;
#X text 108 131 averaging filter of last 2 values / low pass;
#X obj 150 188 r smooth_factor_ldrs;
#X obj 34 47 / 1024;
#X text 99 50 normalize to 0-1 (so we can treat as signal);
#X obj 34 80 *;
#X text 98 80 multiply by itself so we get exponential curve?;
#X obj 34 224 mapping/smooth \$1;
#X connect 0 0 14 0;
#X connect 7 0 8 1;
#X connect 7 1 8 0;
#X connect 8 0 9 0;
#X connect 9 0 10 0;
#X connect 10 0 18 0;
#X connect 11 0 7 0;
#X connect 11 1 9 1;
#X connect 13 0 18 1;
#X connect 14 0 16 0;
#X connect 14 0 16 1;
#X connect 16 0 11 0;
#X connect 18 0 2 0;
