#N canvas 530 139 933 665 10;
#N canvas 0 50 450 278 (subpatch) 0;
#X array sampleData 616557 float 2;
#X coords 0 1 616557 -1 100 100 1 0 0;
#X restore 46 23 graph;
#X msg 52 170 read -resize \$1 sampleData;
#X obj 52 193 soundfiler;
#X obj 52 148 openpanel;
#X obj 52 129 bng 15 250 50 0 empty empty empty 17 7 0 10 -262144 -1
-1;
#X floatatom 52 217 15 0 0 0 - - -, f 15;
#X obj 30 196 bng 15 250 50 0 empty empty empty 17 7 0 10 -262144 -1
-1;
#X msg 150 90 \; pd dsp \$1;
#X obj 150 70 tgl 15 0 empty empty empty 17 7 0 10 -262144 -1 -1 0
1;
#X obj 54 241 s total_dur;
#X obj 19 562 *~;
#X obj 19 589 dac~;
#X floatatom 37 538 8 0 1 0 - - -, f 8;
#X floatatom 32 444 5 0 0 0 - - -, f 5;
#X floatatom 83 458 5 0 0 0 - - -, f 5;
#X obj 83 484 s g-dur;
#X floatatom 140 461 5 0 0 0 - - -, f 5;
#X obj 140 484 s g-speed;
#X msg 20 486 next \$1;
#X obj 260 451 *~;
#X obj 260 478 dac~;
#X floatatom 278 427 8 0 1 0 - - -, f 8;
#X obj 383 337 pack 0 0 0;
#X text 451 312 adds numebr in front and output list of 3;
#X text 540 365 only output midi note and velocity;
#X text 488 328 send to differnt outlet based on voice number;
#X obj 383 290 makenote;
#X msg 508 265 \$1 \$2 \$3;
#X text 573 265 pitch \, vel \, dur;
#X obj 585 162 random 127;
#X obj 585 186 + 1;
#X text 543 220 avoid note off;
#X obj 508 188 + 1;
#X obj 507 162 random 126;
#X obj 664 186 + 20;
#X obj 507 133 t b b b;
#X obj 508 240 pack f f f;
#X obj 507 110 bng 15 250 50 0 empty empty empty 17 7 0 10 -262144
-1 -1;
#X obj 20 514 clone grain_clone 16;
#X obj 260 399 grain_poly;
#X obj 34 299 phasor~;
#X obj 34 325 *~;
#X obj 21 386 snapshot~;
#X obj 14 326 bng 15 250 50 0 empty empty empty 17 7 0 10 -262144 -1
-1;
#X obj 96 316 tgl 15 0 empty empty empty 17 7 0 10 -262144 -1 -1 0
1;
#X floatatom 82 435 15 0 0 0 - - -, f 15;
#X obj 34 268 expr 44100 / $f1;
#X text 94 288 sample length / smpl freq;
#X obj 337 450 *~;
#X obj 337 477 dac~;
#X floatatom 355 426 8 0 1 0 - - -, f 8;
#X obj 337 398 grain_poly;
#X obj 413 450 *~;
#X obj 413 477 dac~;
#X floatatom 431 426 8 0 1 0 - - -, f 8;
#X obj 413 398 grain_poly;
#X obj 490 449 *~;
#X obj 490 476 dac~;
#X floatatom 508 425 8 0 1 0 - - -, f 8;
#X obj 490 397 grain_poly;
#X obj 384 214 f;
#X obj 420 213 + 1;
#X obj 383 237 % 127;
#X floatatom 340 262 5 0 0 0 - - -, f 5;
#X msg 383 263 \$1 100 100;
#X text 584 124 RANDOM ORDER;
#X obj 566 448 *~;
#X obj 566 475 dac~;
#X floatatom 584 424 8 0 1 0 - - -, f 8;
#X obj 566 396 grain_poly;
#X obj 643 447 *~;
#X obj 643 474 dac~;
#X floatatom 661 423 8 0 1 0 - - -, f 8;
#X obj 643 395 grain_poly;
#X obj 719 447 *~;
#X obj 719 474 dac~;
#X floatatom 737 423 8 0 1 0 - - -, f 8;
#X obj 719 395 grain_poly;
#X obj 796 446 *~;
#X obj 796 473 dac~;
#X floatatom 814 422 8 0 1 0 - - -, f 8;
#X obj 796 394 grain_poly;
#X obj 383 365 route 1 2 3 4 5 6 7 8;
#X obj 383 313 poly 8 1;
#X obj 664 162 random 50;
#X obj 95 336 metro 100;
#X obj 395 189 bng 15 250 50 0 empty empty empty 17 7 0 10 -262144
-1 -1;
#X obj 102 387 random 200;
#X obj 21 415 +;
#X floatatom 170 361 5 0 0 0 - - -, f 5;
#X obj 96 357 t b b;
#X obj 384 123 tgl 15 0 empty empty empty 17 7 0 10 -262144 -1 -1 0
1;
#X obj 384 164 t b b;
#X obj 383 143 metro 10;
#X floatatom 434 113 5 0 0 0 - - -, f 5;
#X connect 1 0 2 0;
#X connect 2 0 5 0;
#X connect 3 0 1 0;
#X connect 4 0 3 0;
#X connect 5 0 9 0;
#X connect 5 0 46 0;
#X connect 5 0 41 1;
#X connect 6 0 5 0;
#X connect 8 0 7 0;
#X connect 10 0 11 0;
#X connect 10 0 11 1;
#X connect 12 0 10 1;
#X connect 13 0 18 0;
#X connect 14 0 15 0;
#X connect 16 0 17 0;
#X connect 18 0 38 0;
#X connect 19 0 20 0;
#X connect 19 0 20 1;
#X connect 21 0 19 1;
#X connect 22 0 82 0;
#X connect 26 0 83 0;
#X connect 26 1 83 1;
#X connect 27 0 26 0;
#X connect 29 0 30 0;
#X connect 30 0 36 1;
#X connect 32 0 36 0;
#X connect 33 0 32 0;
#X connect 34 0 36 2;
#X connect 35 0 33 0;
#X connect 35 1 29 0;
#X connect 35 2 84 0;
#X connect 36 0 27 0;
#X connect 37 0 35 0;
#X connect 38 0 10 0;
#X connect 39 0 19 0;
#X connect 40 0 41 0;
#X connect 41 0 42 0;
#X connect 42 0 45 0;
#X connect 42 0 88 0;
#X connect 43 0 42 0;
#X connect 44 0 85 0;
#X connect 46 0 40 0;
#X connect 48 0 49 0;
#X connect 48 0 49 1;
#X connect 50 0 48 1;
#X connect 51 0 48 0;
#X connect 52 0 53 0;
#X connect 52 0 53 1;
#X connect 54 0 52 1;
#X connect 55 0 52 0;
#X connect 56 0 57 0;
#X connect 56 0 57 1;
#X connect 58 0 56 1;
#X connect 59 0 56 0;
#X connect 60 0 61 0;
#X connect 60 0 62 0;
#X connect 61 0 60 1;
#X connect 62 0 63 0;
#X connect 62 0 64 0;
#X connect 64 0 26 0;
#X connect 66 0 67 0;
#X connect 66 0 67 1;
#X connect 68 0 66 1;
#X connect 69 0 66 0;
#X connect 70 0 71 0;
#X connect 70 0 71 1;
#X connect 72 0 70 1;
#X connect 73 0 70 0;
#X connect 74 0 75 0;
#X connect 74 0 75 1;
#X connect 76 0 74 1;
#X connect 77 0 74 0;
#X connect 78 0 79 0;
#X connect 78 0 79 1;
#X connect 80 0 78 1;
#X connect 81 0 78 0;
#X connect 82 0 39 0;
#X connect 82 1 51 0;
#X connect 82 2 55 0;
#X connect 82 3 59 0;
#X connect 82 4 69 0;
#X connect 82 5 73 0;
#X connect 82 6 77 0;
#X connect 82 7 81 0;
#X connect 83 0 22 0;
#X connect 83 1 22 1;
#X connect 83 2 22 2;
#X connect 84 0 34 0;
#X connect 85 0 90 0;
#X connect 86 0 60 0;
#X connect 87 0 88 1;
#X connect 88 0 18 0;
#X connect 89 0 87 1;
#X connect 90 0 42 0;
#X connect 90 1 87 0;
#X connect 91 0 93 0;
#X connect 92 0 60 0;
#X connect 93 0 92 0;
#X connect 94 0 93 1;
