#N canvas 628 40 933 665 12;
#N canvas 0 22 450 278 (subpatch) 0;
#X array sampleData 231967 float 2;
#X coords 0 1 231967 -1 100 100 1;
#X restore 46 23 graph;
#X msg 52 170 read -resize \$1 sampleData;
#X obj 52 193 soundfiler;
#X obj 52 148 openpanel;
#X obj 52 129 bng 15 250 50 0 empty empty empty 17 7 0 10 -262144 -1
-1;
#X floatatom 52 217 15 0 0 0 - - -;
#X obj 30 196 bng 15 250 50 0 empty empty empty 17 7 0 10 -262144 -1
-1;
#X msg 150 90 \; pd dsp \$1;
#X obj 150 70 tgl 15 0 empty empty empty 17 7 0 10 -262144 -1 -1 1
1;
#X obj 54 241 s total_dur;
#X obj 260 451 *~;
#X obj 260 478 dac~;
#X floatatom 278 427 8 0 1 0 - - -;
#X obj 381 337 pack 0 0 0;
#X text 451 312 adds numebr in front and output list of 3;
#X text 540 365 only output midi note and velocity;
#X text 488 328 send to differnt outlet based on voice number;
#X obj 381 290 makenote;
#X obj 260 399 grain_poly;
#X obj 337 450 *~;
#X obj 337 477 dac~;
#X floatatom 355 426 8 0 1 0 - - -;
#X obj 413 450 *~;
#X obj 413 477 dac~;
#X floatatom 431 426 8 0 1 0 - - -;
#X obj 490 449 *~;
#X obj 490 476 dac~;
#X floatatom 508 425 8 0 1 0 - - -;
#X obj 380 113 f;
#X obj 416 112 + 1;
#X obj 380 136 % 127;
#X floatatom 340 262 5 0 0 0 - - -;
#X msg 381 265 \$1 100 100;
#X obj 566 448 *~;
#X obj 566 475 dac~;
#X floatatom 584 424 8 0 1 0 - - -;
#X obj 643 447 *~;
#X obj 643 474 dac~;
#X floatatom 661 423 8 0 1 0 - - -;
#X obj 719 447 *~;
#X obj 719 474 dac~;
#X floatatom 737 423 8 0 1 0 - - -;
#X obj 796 446 *~;
#X obj 796 473 dac~;
#X floatatom 814 422 8 0 1 0 - - -;
#X obj 381 365 route 1 2 3 4 5 6 7 8;
#X obj 381 313 poly 8 1;
#X obj 358 94 bng 15 250 50 0 empty empty empty 17 7 0 10 -262144 -1
-1;
#X obj 380 39 tgl 15 0 empty empty empty 17 7 0 10 -262144 -1 -1 1
1;
#X obj 380 62 metro 100;
#X obj 380 90 t b b;
#X obj 70 319 s g-dur;
#X floatatom 70 298 5 0 0 0 - - -;
#X floatatom 128 289 5 0 0 0 - - -;
#X obj 128 318 s g-speed;
#X obj 204 317 s g-start_jitter;
#X floatatom 204 294 5 0 0 0 - - -;
#X obj 337 398 grain_poly;
#X obj 413 398 grain_poly;
#X obj 490 397 grain_poly;
#X obj 566 396 grain_poly;
#X obj 643 395 grain_poly;
#X obj 719 395 grain_poly;
#X obj 796 394 grain_poly;
#X obj 381 159 t f b b;
#X obj 494 194 random 100;
#X obj 494 218 + 10;
#X obj 381 242 pack f f f;
#X obj 415 194 random 127;
#X obj 415 218 + 1;
#X floatatom 440 37 5 0 0 0 - - -;
#X connect 1 0 2 0;
#X connect 2 0 5 0;
#X connect 3 0 1 0;
#X connect 4 0 3 0;
#X connect 5 0 9 0;
#X connect 6 0 5 0;
#X connect 8 0 7 0;
#X connect 10 0 11 0;
#X connect 10 0 11 1;
#X connect 12 0 10 1;
#X connect 13 0 45 0;
#X connect 17 0 46 0;
#X connect 17 1 46 1;
#X connect 18 0 10 0;
#X connect 19 0 20 0;
#X connect 19 0 20 1;
#X connect 21 0 19 1;
#X connect 22 0 23 0;
#X connect 22 0 23 1;
#X connect 24 0 22 1;
#X connect 25 0 26 0;
#X connect 25 0 26 1;
#X connect 27 0 25 1;
#X connect 28 0 29 0;
#X connect 28 0 30 0;
#X connect 29 0 28 1;
#X connect 30 0 31 0;
#X connect 30 0 64 0;
#X connect 32 0 17 0;
#X connect 33 0 34 0;
#X connect 33 0 34 1;
#X connect 35 0 33 1;
#X connect 36 0 37 0;
#X connect 36 0 37 1;
#X connect 38 0 36 1;
#X connect 39 0 40 0;
#X connect 39 0 40 1;
#X connect 41 0 39 1;
#X connect 42 0 43 0;
#X connect 42 0 43 1;
#X connect 44 0 42 1;
#X connect 45 0 18 0;
#X connect 45 1 57 0;
#X connect 45 2 58 0;
#X connect 45 3 59 0;
#X connect 45 4 60 0;
#X connect 45 5 61 0;
#X connect 45 6 62 0;
#X connect 45 7 63 0;
#X connect 46 0 13 0;
#X connect 46 1 13 1;
#X connect 46 2 13 2;
#X connect 47 0 28 0;
#X connect 48 0 49 0;
#X connect 49 0 50 0;
#X connect 50 0 28 0;
#X connect 52 0 51 0;
#X connect 53 0 54 0;
#X connect 56 0 55 0;
#X connect 57 0 19 0;
#X connect 58 0 22 0;
#X connect 59 0 25 0;
#X connect 60 0 33 0;
#X connect 61 0 36 0;
#X connect 62 0 39 0;
#X connect 63 0 42 0;
#X connect 64 0 67 0;
#X connect 64 1 68 0;
#X connect 64 2 65 0;
#X connect 65 0 66 0;
#X connect 66 0 67 2;
#X connect 67 0 32 0;
#X connect 68 0 69 0;
#X connect 69 0 67 1;
#X connect 70 0 49 1;
