#N canvas 830 23 433 534 12;
#X obj 112 285 tabread4~ sampleData;
#X obj 112 260 vline~;
#X msg 112 236 \$1 \, \$2 \$3;
#X text 193 212 start \, end time;
#X obj 112 211 pack f f f;
#X obj 112 152 t f f;
#X floatatom 55 100 15 0 0 0 - - -;
#X obj 145 177 +;
#X floatatom 210 103 5 1 10000 0 DUR - -;
#X obj 210 146 * 44.1;
#X floatatom 285 105 5 0 0 0 speed - -;
#X obj 286 175 / 1;
#X obj 285 147 t b f;
#X obj 97 64 bng 15 250 50 0 empty empty empty 17 7 0 10 -262144 -1
-1;
#X floatatom 61 178 5 0 0 0 - - -;
#X obj 112 390 outlet~;
#X obj 55 30 inlet;
#X obj 210 28 r g-dur;
#X obj 285 30 r g-speed;
#X obj 294 332 vline~;
#X msg 294 305 1 20 \, 0 20 \$1;
#X obj 112 363 *~;
#X obj 294 281 f;
#X obj 314 260 - 20;
#X obj 294 260 bng 15 250 50 0 empty empty empty 17 7 0 10 -262144
-1 -1;
#X connect 0 0 21 0;
#X connect 1 0 0 0;
#X connect 2 0 1 0;
#X connect 2 0 24 0;
#X connect 4 0 2 0;
#X connect 5 0 4 0;
#X connect 5 0 14 0;
#X connect 5 1 7 0;
#X connect 6 0 5 0;
#X connect 7 0 4 1;
#X connect 8 0 9 0;
#X connect 8 0 11 0;
#X connect 9 0 7 1;
#X connect 10 0 12 0;
#X connect 11 0 4 2;
#X connect 11 0 23 0;
#X connect 12 0 11 0;
#X connect 12 1 11 1;
#X connect 13 0 6 0;
#X connect 16 0 6 0;
#X connect 17 0 8 0;
#X connect 18 0 10 0;
#X connect 19 0 21 1;
#X connect 20 0 19 0;
#X connect 21 0 15 0;
#X connect 22 0 20 0;
#X connect 23 0 22 1;
#X connect 24 0 22 0;
