#N canvas 307 51 1128 609 10;
#X obj 486 142 route 1 2 3 4 5 6 7 8 9 10 11 12 13 14 15 16;
#N canvas 37 50 383 440 generateFREQS 0;
#X obj 116 77 t l b;
#X obj 81 95 iter;
#X obj 79 130 t f b;
#X obj 79 183 fswap;
#X obj 27 306 * 2;
#X obj 25 364 * 60;
#X msg 149 215 note \$1;
#X obj 114 15 inlet;
#X obj 24 332 - 1;
#X obj 81 247 t l f;
#X obj 28 279 unpack 1 1;
#X obj 79 222 pack 2 2;
#X obj 106 159 counter 0 1 16;
#X msg 114 47 1 2 3 4 5 6 7 8 9 10 11 12 13 14 15 16;
#X obj 23 391 outlet;
#X obj 149 381 outlet;
#X obj 244 15 inlet;
#X floatatom 289 19 5 0 0 0 - - -, f 5;
#X connect 0 0 1 0;
#X connect 0 1 12 2;
#X connect 1 0 2 0;
#X connect 2 0 3 0;
#X connect 2 1 12 0;
#X connect 3 0 11 0;
#X connect 3 1 11 1;
#X connect 4 0 8 0;
#X connect 5 0 14 0;
#X connect 7 0 13 0;
#X connect 8 0 5 0;
#X connect 9 0 10 0;
#X connect 10 0 4 0;
#X connect 11 0 9 0;
#X connect 12 0 3 1;
#X connect 12 0 6 0;
#X connect 12 0 15 0;
#X connect 13 0 0 0;
#X connect 16 0 5 1;
#X connect 17 0 5 1;
#X restore 473 69 pd generateFREQS;
#X obj 472 23 bng 15 250 50 0 empty empty empty 17 7 0 10 -262144 -1
-1;
#X floatatom 580 43 5 0 0 0 - - -, f 5;
#X text 581 81 jakie parametry w kazdym glosie? frequency - default
+ sterowane z potentiometra? amp - sterowane z LDR jakie parametry
globalne volume ramp time;
#X obj 493 93 swap 0 0;
#X obj 275 223 r a17;
#X obj 317 262 r a1;
#X text 316 245 control amp from LDR;
#X floatatom 721 33 5 0 0 0 - - -, f 5;
#X text 755 31 globalattack time;
#X obj 493 117 pack 0 0 0;
#X obj 723 59 t b f;
#X floatatom 236 322 5 0 0 0 - - -, f 5;
#X floatatom 287 320 5 0 0 0 - - -, f 5;
#X floatatom 324 320 5 0 0 0 - - -, f 5;
#N canvas 732 393 600 365 single_sine 1;
#X obj 122 166 osc~;
#X obj 18 12 inlet;
#X text 121 147 freq;
#X obj 19 125 + 0;
#X obj 110 19 inlet;
#X obj 19 272 outlet;
#X text 147 19 dodaj freq ofset z potencjometra;
#X text 20 251 freq overall;
#X obj 352 21 inlet;
#X text 391 22 control amp from LDR;
#X obj 124 274 outlet~;
#X text 128 250 output;
#X obj 248 92 / 1024;
#X obj 19 42 unpack f f;
#X obj 271 277 outlet;
#X obj 250 143 pack 0 20;
#X text 90 42 freq \, atak time;
#X obj 220 183 line~ 0 20;
#X obj 123 200 *~;
#X obj 271 238 unpack 0 0;
#X obj 338 277 outlet;
#X obj 36 87 t b f;
#X obj 148 90 t b f;
#X text 363 242 freq amp ramptime;
#X connect 0 0 18 0;
#X connect 1 0 13 0;
#X connect 3 0 0 0;
#X connect 3 0 5 0;
#X connect 4 0 21 0;
#X connect 8 0 12 0;
#X connect 12 0 15 0;
#X connect 13 0 3 0;
#X connect 13 1 22 0;
#X connect 15 0 17 0;
#X connect 15 0 19 0;
#X connect 17 0 18 1;
#X connect 18 0 10 0;
#X connect 19 0 14 0;
#X connect 19 1 20 0;
#X connect 21 0 3 0;
#X connect 21 1 3 1;
#X connect 22 0 15 0;
#X connect 22 1 15 1;
#X restore 237 288 pd single_sine;
#X obj 530 200 print;
#X text 232 338 freq amp ramptime;
#X text 612 30 freq of lowest osc;
#X text 312 217 dodaj freq ofset z potencjometra;
#X obj 371 268 r a18;
#X obj 411 268 r a2;
#X text 125 92 IMITUJ LDR IN: 0-1024;
#X floatatom 294 48 5 0 1024 0 - - -, f 5;
#X msg 294 91 \$1;
#X obj 707 402 osc~;
#X text 706 383 freq;
#X obj 605 361 + 0;
#X obj 617 235 inlet;
#X obj 605 508 outlet;
#X text 654 235 dodaj freq ofset z potencjometra;
#X text 576 487 freq overall;
#X obj 937 257 inlet;
#X text 976 258 control amp from LDR;
#X obj 710 510 outlet~;
#X text 714 486 output;
#X obj 833 328 / 1024;
#X obj 604 278 unpack f f;
#X text 675 278 freq \, atak time;
#X obj 708 436 *~;
#X obj 621 323 t b f;
#X obj 733 326 t b f;
#X obj 835 379 pack 0 200;
#X obj 764 414 line~ 0 2000;
#X obj 60 138 r LDRS_INV_10_SMT_list;
#X obj 60 160 listfunnel;
#X connect 0 0 16 0;
#X connect 0 0 17 0;
#X connect 1 0 5 0;
#X connect 1 1 5 1;
#X connect 2 0 1 0;
#X connect 3 0 1 1;
#X connect 5 0 11 0;
#X connect 5 1 11 1;
#X connect 6 0 16 1;
#X connect 7 0 16 2;
#X connect 9 0 12 0;
#X connect 11 0 0 0;
#X connect 12 0 1 0;
#X connect 12 1 11 2;
#X connect 16 0 13 0;
#X connect 16 2 14 0;
#X connect 16 3 15 0;
#X connect 24 0 25 0;
#X connect 25 0 16 2;
#X connect 26 0 40 0;
#X connect 28 0 26 0;
#X connect 28 0 30 0;
#X connect 29 0 41 0;
#X connect 33 0 37 0;
#X connect 37 0 43 0;
#X connect 38 0 28 0;
#X connect 38 1 42 0;
#X connect 40 0 35 0;
#X connect 41 0 28 0;
#X connect 41 1 28 1;
#X connect 42 0 43 0;
#X connect 42 1 43 1;
#X connect 43 0 44 0;
#X connect 44 0 40 1;
#X connect 45 0 46 0;
