#N canvas 61 234 1314 470 10;
#X obj 93 102 print;
#X obj 93 73 spigot;
#X obj 132 52 tgl 15 0 empty empty empty 17 7 0 10 -262144 -1 -1 0
1;
#X obj 320 380 throw~ ch2;
#X obj 401 380 throw~ ch2pre;
#X text 248 381 OUTPUTS:;
#X floatatom 514 290 5 0 1 0 - patch2level -, f 5;
#X obj 514 381 switch~;
#X floatatom 527 356 2 0 0 0 - - -, f 2;
#X text 544 355 dsp;
#X obj 514 339 tgl 15 0 empty empty empty 17 7 0 10 -262144 -1 -1 0
1;
#X obj 514 310 oneARDinCOMPARE 0.1;
#X obj 403 150 r PTCH2_PAR_A3;
#X obj 138 152 r PTCH2_PAR_A1;
#X obj 292 155 r PTCH2_PAR_A2;
#X obj 183 99 s PTCH2_PAR_A1;
#X obj 289 99 s PTCH2_PAR_A2;
#X obj 396 99 s PTCH2_PAR_A3;
#X obj 503 100 s PTCH2_PAR_D1;
#X obj 642 101 s PTCH2_PAR_D2;
#X obj 183 16 r PTCH2_CTRL_LIST;
#X obj 183 38 unpack f f f f f, f 61;
#X text 311 19 CTRL INPUTS;
#X obj 503 63 1_ARD_DIG_BTN 4 0;
#X floatatom 206 76 5 0 0 0 - - -, f 5;
#X floatatom 316 76 5 0 0 0 - - -, f 5;
#X obj 642 61 1_ARD_DIG_BTN;
#X obj 126 392 print;
#X obj 126 363 spigot;
#X obj 165 342 tgl 15 0 empty empty empty 17 7 0 10 -262144 -1 -1 0
1;
#X obj 162 248 r LDRS_INV_10_SMT_list;
#X floatatom 92 158 5 0 1 0 - - -, f 5;
#X obj 90 180 s MUL_FACT;
#X floatatom 248 150 5 0 1 0 - - -, f 5;
#X text 1031 184 freq ofset from pot 12 midi notes;
#X obj 259 180 s FUNDA_MENTAL;
#X text 765 72 \$1=sensor/clone numebr-used to get freq from funda
mental;
#X text 765 88 \$2 - fundamental freq MIDI (or HZ??);
#X text 765 59 $ ARGS;
#X text 765 106 global variables from send parameters;
#X text 765 127 amp ramp time-from pot via send \, DEF=1000;
#X text 765 140 funda_mental - offset freq 0-12 midi \, DEF=0;
#X text 765 155 mul_fact-by what factor we multiply fund MIDI note
- 2-5 \, def 2;
#X text 764 24 1 SINOSC VOICE FOR ADDITIVE CLONE PATCH;
#X text 764 42 freq = MIDI MOTE ARG \$2 + ( clone numbner * 2);
#X text 595 182 0-1;
#X floatatom 512 144 5 0 1 0 - - -, f 5;
#X obj 509 181 s RAMP_TIME;
#X text 509 161 line ramp time;
#X msg 82 247 vis 31 1;
#X obj 162 312 clone 1_SIN_4_ADD 32 24;
#X obj 319 345 *~ 0.2, f 8;
#X obj 162 270 maxlib/listfunnel;
#X text 852 264 old version where we worked with midi;
#X connect 1 0 0 0;
#X connect 2 0 1 1;
#X connect 6 0 11 0;
#X connect 8 0 7 0;
#X connect 10 0 7 0;
#X connect 11 0 10 0;
#X connect 12 0 47 0;
#X connect 13 0 32 0;
#X connect 14 0 35 0;
#X connect 20 0 21 0;
#X connect 21 0 15 0;
#X connect 21 0 24 0;
#X connect 21 1 16 0;
#X connect 21 1 25 0;
#X connect 21 2 17 0;
#X connect 21 3 23 0;
#X connect 21 4 26 0;
#X connect 23 0 18 0;
#X connect 26 0 19 0;
#X connect 28 0 27 0;
#X connect 29 0 28 1;
#X connect 30 0 52 0;
#X connect 31 0 32 0;
#X connect 33 0 35 0;
#X connect 46 0 47 0;
#X connect 49 0 50 0;
#X connect 50 0 28 0;
#X connect 50 1 51 0;
#X connect 51 0 3 0;
#X connect 51 0 4 0;
#X connect 52 0 50 0;
