#N canvas 67 282 1220 548 10;
#X text 48 399 harmonic generator;
#X floatatom 18 13 5 0 0 0 - - -, f 5;
#X obj 354 157 osc~;
#X obj 614 155 osc~;
#X obj 880 144 osc~;
#X obj 296 108 * 8;
#X obj 90 148 osc~;
#X obj 556 103 * 16;
#X floatatom 296 159 5 0 0 0 - - -, f 5;
#X floatatom 556 158 5 0 0 0 - - -, f 5;
#X floatatom 822 149 5 0 0 0 - - -, f 5;
#X obj 822 96 * 24;
#X obj 612 447 dac~;
#X text 17 -27 freq;
#X obj 87 -14 loadbang;
#X text 119 8 midi;
#X msg 87 8 24;
#X obj 354 132 mtof;
#X obj 88 114 mtof;
#X floatatom 18 150 5 0 0 0 - - -, f 5;
#X obj 614 126 mtof;
#X obj 880 115 mtof;
#X obj 87 36 t f f f f, f 115;
#X floatatom 172 9 5 0 0 0 - - -, f 5;
#X obj 18 36 t f f f f, f 115;
#X obj 611 415 *~ 0.25, f 30;
#X msg 18 -7 32.7;
#X obj 17 176 r LDRS_INV_10_SMT_list;
#X obj 17 254 print;
#X obj 17 225 spigot;
#X obj 56 204 tgl 15 0 empty empty empty 17 7 0 10 -262144 -1 -1 0
1;
#X msg 315 84 12;
#X msg 581 81 24;
#X msg 847 76 36;
#X msg 314 62 10;
#X msg 581 61 20;
#X msg 847 56 30;
#X obj 120 198 unpack f f f f f f f f f f f f f f f f f f f f f f f
f f f f f f f f f, f 145;
#X floatatom 120 232 5 -1 1 0 - - -, f 5;
#X floatatom 152 253 5 -1 1 0 - - -, f 5;
#X floatatom 184 234 5 -1 1 0 - - -, f 5;
#X floatatom 217 255 5 -1 1 0 - - -, f 5;
#X floatatom 250 234 5 -1 1 0 - - -, f 5;
#X floatatom 283 255 5 -1 1 0 - - -, f 5;
#X floatatom 315 234 5 -1 1 0 - - -, f 5;
#X floatatom 346 253 5 -1 1 0 - - -, f 5;
#X floatatom 390 229 5 -1 1 0 - - -, f 5;
#X floatatom 422 250 5 -1 1 0 - - -, f 5;
#X floatatom 454 231 5 -1 1 0 - - -, f 5;
#X floatatom 487 252 5 -1 1 0 - - -, f 5;
#X floatatom 519 231 5 -1 1 0 - - -, f 5;
#X floatatom 552 252 5 -1 1 0 - - -, f 5;
#X floatatom 584 231 5 -1 1 0 - - -, f 5;
#X floatatom 613 250 5 -1 1 0 - - -, f 5;
#X floatatom 649 221 5 -1 1 0 - - -, f 5;
#X floatatom 680 242 5 -1 1 0 - - -, f 5;
#X floatatom 713 223 5 -1 1 0 - - -, f 5;
#X floatatom 746 244 5 -1 1 0 - - -, f 5;
#X floatatom 780 223 5 -1 1 0 - - -, f 5;
#X floatatom 811 244 5 -1 1 0 - - -, f 5;
#X floatatom 845 223 5 -1 1 0 - - -, f 5;
#X floatatom 877 242 5 -1 1 0 - - -, f 5;
#X floatatom 916 225 5 -1 1 0 - - -, f 5;
#X floatatom 948 246 5 -1 1 0 - - -, f 5;
#X floatatom 979 227 5 -1 1 0 - - -, f 5;
#X floatatom 1010 248 5 -1 1 0 - - -, f 5;
#X floatatom 1039 227 5 -1 1 0 - - -, f 5;
#X floatatom 1068 248 5 -1 1 0 - - -, f 5;
#X floatatom 1098 227 5 -1 1 0 - - -, f 5;
#X floatatom 1137 246 5 -1 1 0 - - -, f 5;
#X obj 354 110 + 12;
#X msg 379 88 24;
#X obj 614 104 + 24;
#X msg 639 82 48;
#X obj 880 96 + 36;
#X msg 905 75 72;
#X obj 351 313 sigpack/harmgen~ 0 0 0 0 0 0 0 0 0 0, f 46;
#X obj 611 379 sigpack/harmgen~ 0 0 0 0 0 0 0 0 0 0, f 42;
#X obj 877 419 sigpack/harmgen~ 0 0 0 0 0 0 0 0 0 0, f 41;
#X obj 90 366 sigpack/harmgen~ 0 0 0 0 0 0 0 0 0 0, f 46;
#X connect 1 0 24 0;
#X connect 2 0 76 0;
#X connect 3 0 77 0;
#X connect 4 0 78 0;
#X connect 5 0 2 0;
#X connect 5 0 8 0;
#X connect 6 0 79 0;
#X connect 7 0 3 0;
#X connect 7 0 9 0;
#X connect 11 0 10 0;
#X connect 11 0 4 0;
#X connect 14 0 16 0;
#X connect 16 0 22 0;
#X connect 17 0 8 0;
#X connect 17 0 2 0;
#X connect 18 0 19 0;
#X connect 18 0 6 0;
#X connect 20 0 9 0;
#X connect 20 0 3 0;
#X connect 21 0 10 0;
#X connect 21 0 4 0;
#X connect 22 0 18 0;
#X connect 22 1 70 0;
#X connect 22 2 72 0;
#X connect 22 3 74 0;
#X connect 23 0 22 0;
#X connect 24 0 6 0;
#X connect 24 0 19 0;
#X connect 24 1 5 0;
#X connect 24 2 7 0;
#X connect 24 3 11 0;
#X connect 25 0 12 0;
#X connect 25 0 12 1;
#X connect 26 0 1 0;
#X connect 27 0 29 0;
#X connect 27 0 37 0;
#X connect 29 0 28 0;
#X connect 30 0 29 1;
#X connect 31 0 5 1;
#X connect 32 0 7 1;
#X connect 33 0 11 1;
#X connect 34 0 5 1;
#X connect 35 0 7 1;
#X connect 36 0 11 1;
#X connect 37 0 38 0;
#X connect 37 0 79 1;
#X connect 37 1 39 0;
#X connect 37 1 79 2;
#X connect 37 2 40 0;
#X connect 37 2 79 3;
#X connect 37 3 41 0;
#X connect 37 3 79 4;
#X connect 37 4 42 0;
#X connect 37 4 79 5;
#X connect 37 5 43 0;
#X connect 37 5 79 6;
#X connect 37 6 44 0;
#X connect 37 6 79 7;
#X connect 37 7 45 0;
#X connect 37 7 79 8;
#X connect 37 8 46 0;
#X connect 37 8 76 1;
#X connect 37 9 47 0;
#X connect 37 9 76 2;
#X connect 37 10 48 0;
#X connect 37 10 76 3;
#X connect 37 11 49 0;
#X connect 37 11 76 4;
#X connect 37 12 50 0;
#X connect 37 12 76 5;
#X connect 37 13 51 0;
#X connect 37 13 76 6;
#X connect 37 14 52 0;
#X connect 37 14 76 7;
#X connect 37 15 53 0;
#X connect 37 15 76 8;
#X connect 37 16 54 0;
#X connect 37 16 77 1;
#X connect 37 17 55 0;
#X connect 37 17 77 2;
#X connect 37 18 56 0;
#X connect 37 18 77 3;
#X connect 37 19 57 0;
#X connect 37 19 77 4;
#X connect 37 20 58 0;
#X connect 37 20 77 5;
#X connect 37 21 59 0;
#X connect 37 21 77 6;
#X connect 37 22 60 0;
#X connect 37 22 77 7;
#X connect 37 23 61 0;
#X connect 37 23 77 8;
#X connect 37 24 62 0;
#X connect 37 24 78 1;
#X connect 37 25 63 0;
#X connect 37 25 78 2;
#X connect 37 26 64 0;
#X connect 37 26 78 3;
#X connect 37 27 65 0;
#X connect 37 27 78 4;
#X connect 37 28 66 0;
#X connect 37 28 78 5;
#X connect 37 29 67 0;
#X connect 37 29 78 6;
#X connect 37 30 68 0;
#X connect 37 30 78 7;
#X connect 37 31 69 0;
#X connect 37 31 78 8;
#X connect 70 0 17 0;
#X connect 71 0 70 1;
#X connect 72 0 20 0;
#X connect 73 0 72 1;
#X connect 74 0 21 0;
#X connect 75 0 74 1;
#X connect 76 0 25 0;
#X connect 77 0 25 0;
#X connect 78 0 25 0;
#X connect 79 0 25 0;
