#N canvas 1300 80 1262 473 10;
#X obj 486 142 route 1 2 3 4 5 6 7 8 9 10 11 12 13 14 15 16;
#N canvas 2036 59 463 476 generateFREQS 0;
#X obj 61 74 t l b;
#X obj 26 92 iter;
#X obj 24 127 t f b;
#X obj 24 180 fswap;
#X obj -28 303 * 2;
#X obj -30 361 * 60;
#X msg 94 212 note \$1;
#X obj 59 12 inlet;
#X obj -31 329 - 1;
#X obj 26 244 t l f;
#X obj -27 276 unpack 1 1;
#X obj 24 219 pack 2 2;
#X obj 51 156 counter 0 1 16;
#X msg 59 44 1 2 3 4 5 6 7 8 9 10 11 12 13 14 15 16;
#X obj -32 388 outlet;
#X obj 94 378 outlet;
#X obj 189 12 inlet;
#X floatatom 234 16 5 0 0 0 - - -;
#X connect 0 0 1 0;
#X connect 0 1 12 2;
#X connect 1 0 2 0;
#X connect 2 0 3 0;
#X connect 2 1 12 0;
#X connect 3 0 11 0;
#X connect 3 1 11 1;
#X connect 4 0 8 0;
#X connect 5 0 14 0;
#X connect 7 0 13 0;
#X connect 8 0 5 0;
#X connect 9 0 10 0;
#X connect 10 0 4 0;
#X connect 11 0 9 0;
#X connect 12 0 3 1;
#X connect 12 0 6 0;
#X connect 12 0 15 0;
#X connect 13 0 0 0;
#X connect 16 0 5 1;
#X connect 17 0 5 1;
#X restore 473 69 pd generateFREQS;
#X obj 406 53 bng 15 250 50 0 empty empty empty 17 7 0 10 -262144 -1
-1;
#X floatatom 445 16 5 0 0 0 - - -;
#X text 581 81 jakie parametry w kazdym glosie? frequency - default
+ sterowane z potentiometra? amp - sterowane z LDR jakie parametry
globalne volume ramp time;
#X obj 493 93 swap 0 0;
#X obj 28 228 r a17;
#X obj 69 230 r a1;
#X text 68 213 control amp from LDR;
#X floatatom 558 14 5 0 0 0 - - -;
#X obj 493 117 pack 0 0 0;
#X obj 558 39 t b f;
#X floatatom -12 290 5 0 0 0 - - -;
#X obj 601 301 *~ 0.062;
#X floatatom 39 288 5 0 0 0 - - -;
#X floatatom 76 288 5 0 0 0 - - -;
#N canvas 1944 186 600 365 single_sine 0;
#X obj 122 166 osc~;
#X obj 18 12 inlet;
#X text 121 147 freq;
#X obj 20 125 + 0;
#X obj 110 19 inlet;
#X obj 52 272 outlet;
#X text 147 19 dodaj freq ofset z potencjometra;
#X text 23 251 freq overall;
#X obj 352 21 inlet;
#X text 391 22 control amp from LDR;
#X obj 125 274 outlet~;
#X text 129 250 output;
#X obj 248 92 / 1024;
#X obj 19 42 unpack f f;
#X obj 259 277 outlet;
#X obj 250 143 pack 0 20;
#X text 90 42 freq \, atak time;
#X obj 220 183 line~ 0 20;
#X obj 123 200 *~;
#X obj 271 218 unpack 0 0;
#X obj 312 279 outlet;
#X obj 36 87 t b f;
#X obj 148 90 t b f;
#X text 267 254 freq amp ramptime;
#X connect 0 0 18 0;
#X connect 1 0 13 0;
#X connect 3 0 0 0;
#X connect 3 0 5 0;
#X connect 4 0 21 0;
#X connect 8 0 12 0;
#X connect 12 0 15 0;
#X connect 13 0 3 0;
#X connect 13 1 22 0;
#X connect 15 0 17 0;
#X connect 15 0 19 0;
#X connect 17 0 18 1;
#X connect 18 0 10 0;
#X connect 19 0 14 0;
#X connect 19 1 20 0;
#X connect 21 0 3 0;
#X connect 21 1 3 1;
#X connect 22 0 15 0;
#X connect 22 1 15 1;
#X restore -11 256 pd single_sine;
#X obj 282 168 print;
#X text -16 306 freq amp ramptime;
#X text 323 19 freq of lowest osc;
#X text 64 185 dodaj freq ofset z potencjometra;
#N canvas 1944 186 600 365 single_sine 0;
#X obj 122 166 osc~;
#X obj 18 12 inlet;
#X text 121 147 freq;
#X obj 20 125 + 0;
#X obj 110 19 inlet;
#X obj 52 272 outlet;
#X text 147 19 dodaj freq ofset z potencjometra;
#X text 23 251 freq overall;
#X obj 352 21 inlet;
#X text 391 22 control amp from LDR;
#X obj 125 274 outlet~;
#X text 129 250 output;
#X obj 248 92 / 1024;
#X obj 19 42 unpack f f;
#X obj 259 277 outlet;
#X obj 250 143 pack 0 20;
#X text 90 42 freq \, atak time;
#X obj 220 183 line~ 0 20;
#X obj 123 200 *~;
#X obj 271 218 unpack 0 0;
#X obj 312 279 outlet;
#X obj 36 87 t b f;
#X obj 148 90 t b f;
#X text 267 254 freq amp ramptime;
#X connect 0 0 18 0;
#X connect 1 0 13 0;
#X connect 3 0 0 0;
#X connect 3 0 5 0;
#X connect 4 0 21 0;
#X connect 8 0 12 0;
#X connect 12 0 15 0;
#X connect 13 0 3 0;
#X connect 13 1 22 0;
#X connect 15 0 17 0;
#X connect 15 0 19 0;
#X connect 17 0 18 1;
#X connect 18 0 10 0;
#X connect 19 0 14 0;
#X connect 19 1 20 0;
#X connect 21 0 3 0;
#X connect 21 1 3 1;
#X connect 22 0 15 0;
#X connect 22 1 15 1;
#X restore 83 259 pd single_sine;
#X obj 123 236 r a18;
#X obj 163 236 r a2;
#N canvas 1944 186 600 365 single_sine 0;
#X obj 122 166 osc~;
#X obj 18 12 inlet;
#X text 121 147 freq;
#X obj 20 125 + 0;
#X obj 110 19 inlet;
#X obj 52 272 outlet;
#X text 147 19 dodaj freq ofset z potencjometra;
#X text 23 251 freq overall;
#X obj 352 21 inlet;
#X text 391 22 control amp from LDR;
#X obj 125 274 outlet~;
#X text 129 250 output;
#X obj 248 92 / 1024;
#X obj 19 42 unpack f f;
#X obj 259 277 outlet;
#X obj 250 143 pack 0 20;
#X text 90 42 freq \, atak time;
#X obj 220 183 line~ 0 20;
#X obj 123 200 *~;
#X obj 271 218 unpack 0 0;
#X obj 312 279 outlet;
#X obj 36 87 t b f;
#X obj 148 90 t b f;
#X text 267 254 freq amp ramptime;
#X connect 0 0 18 0;
#X connect 1 0 13 0;
#X connect 3 0 0 0;
#X connect 3 0 5 0;
#X connect 4 0 21 0;
#X connect 8 0 12 0;
#X connect 12 0 15 0;
#X connect 13 0 3 0;
#X connect 13 1 22 0;
#X connect 15 0 17 0;
#X connect 15 0 19 0;
#X connect 17 0 18 1;
#X connect 18 0 10 0;
#X connect 19 0 14 0;
#X connect 19 1 20 0;
#X connect 21 0 3 0;
#X connect 21 1 3 1;
#X connect 22 0 15 0;
#X connect 22 1 15 1;
#X restore 177 259 pd single_sine;
#N canvas 1944 186 600 365 single_sine 0;
#X obj 122 166 osc~;
#X obj 18 12 inlet;
#X text 121 147 freq;
#X obj 20 125 + 0;
#X obj 110 19 inlet;
#X obj 52 272 outlet;
#X text 147 19 dodaj freq ofset z potencjometra;
#X text 23 251 freq overall;
#X obj 352 21 inlet;
#X text 391 22 control amp from LDR;
#X obj 125 274 outlet~;
#X text 129 250 output;
#X obj 248 92 / 1024;
#X obj 19 42 unpack f f;
#X obj 259 277 outlet;
#X obj 250 143 pack 0 20;
#X text 90 42 freq \, atak time;
#X obj 220 183 line~ 0 20;
#X obj 123 200 *~;
#X obj 271 218 unpack 0 0;
#X obj 312 279 outlet;
#X obj 36 87 t b f;
#X obj 148 90 t b f;
#X text 267 254 freq amp ramptime;
#X connect 0 0 18 0;
#X connect 1 0 13 0;
#X connect 3 0 0 0;
#X connect 3 0 5 0;
#X connect 4 0 21 0;
#X connect 8 0 12 0;
#X connect 12 0 15 0;
#X connect 13 0 3 0;
#X connect 13 1 22 0;
#X connect 15 0 17 0;
#X connect 15 0 19 0;
#X connect 17 0 18 1;
#X connect 18 0 10 0;
#X connect 19 0 14 0;
#X connect 19 1 20 0;
#X connect 21 0 3 0;
#X connect 21 1 3 1;
#X connect 22 0 15 0;
#X connect 22 1 15 1;
#X restore 269 259 pd single_sine;
#N canvas 1944 186 600 365 single_sine 0;
#X obj 122 166 osc~;
#X obj 18 12 inlet;
#X text 121 147 freq;
#X obj 20 125 + 0;
#X obj 110 19 inlet;
#X obj 52 272 outlet;
#X text 147 19 dodaj freq ofset z potencjometra;
#X text 23 251 freq overall;
#X obj 352 21 inlet;
#X text 391 22 control amp from LDR;
#X obj 125 274 outlet~;
#X text 129 250 output;
#X obj 248 92 / 1024;
#X obj 19 42 unpack f f;
#X obj 259 277 outlet;
#X obj 250 143 pack 0 20;
#X text 90 42 freq \, atak time;
#X obj 220 183 line~ 0 20;
#X obj 123 200 *~;
#X obj 271 218 unpack 0 0;
#X obj 312 279 outlet;
#X obj 36 87 t b f;
#X obj 148 90 t b f;
#X text 267 254 freq amp ramptime;
#X connect 0 0 18 0;
#X connect 1 0 13 0;
#X connect 3 0 0 0;
#X connect 3 0 5 0;
#X connect 4 0 21 0;
#X connect 8 0 12 0;
#X connect 12 0 15 0;
#X connect 13 0 3 0;
#X connect 13 1 22 0;
#X connect 15 0 17 0;
#X connect 15 0 19 0;
#X connect 17 0 18 1;
#X connect 18 0 10 0;
#X connect 19 0 14 0;
#X connect 19 1 20 0;
#X connect 21 0 3 0;
#X connect 21 1 3 1;
#X connect 22 0 15 0;
#X connect 22 1 15 1;
#X restore 361 261 pd single_sine;
#N canvas 1944 186 600 365 single_sine 0;
#X obj 122 166 osc~;
#X obj 18 12 inlet;
#X text 121 147 freq;
#X obj 20 125 + 0;
#X obj 110 19 inlet;
#X obj 52 272 outlet;
#X text 147 19 dodaj freq ofset z potencjometra;
#X text 23 251 freq overall;
#X obj 352 21 inlet;
#X text 391 22 control amp from LDR;
#X obj 125 274 outlet~;
#X text 129 250 output;
#X obj 248 92 / 1024;
#X obj 19 42 unpack f f;
#X obj 259 277 outlet;
#X obj 250 143 pack 0 20;
#X text 90 42 freq \, atak time;
#X obj 220 183 line~ 0 20;
#X obj 123 200 *~;
#X obj 271 218 unpack 0 0;
#X obj 312 279 outlet;
#X obj 36 87 t b f;
#X obj 148 90 t b f;
#X text 267 254 freq amp ramptime;
#X connect 0 0 18 0;
#X connect 1 0 13 0;
#X connect 3 0 0 0;
#X connect 3 0 5 0;
#X connect 4 0 21 0;
#X connect 8 0 12 0;
#X connect 12 0 15 0;
#X connect 13 0 3 0;
#X connect 13 1 22 0;
#X connect 15 0 17 0;
#X connect 15 0 19 0;
#X connect 17 0 18 1;
#X connect 18 0 10 0;
#X connect 19 0 14 0;
#X connect 19 1 20 0;
#X connect 21 0 3 0;
#X connect 21 1 3 1;
#X connect 22 0 15 0;
#X connect 22 1 15 1;
#X restore 468 263 pd single_sine;
#N canvas 1944 186 600 365 single_sine 0;
#X obj 122 166 osc~;
#X obj 18 12 inlet;
#X text 121 147 freq;
#X obj 20 125 + 0;
#X obj 110 19 inlet;
#X obj 52 272 outlet;
#X text 147 19 dodaj freq ofset z potencjometra;
#X text 23 251 freq overall;
#X obj 352 21 inlet;
#X text 391 22 control amp from LDR;
#X obj 125 274 outlet~;
#X text 129 250 output;
#X obj 248 92 / 1024;
#X obj 19 42 unpack f f;
#X obj 259 277 outlet;
#X obj 250 143 pack 0 20;
#X text 90 42 freq \, atak time;
#X obj 220 183 line~ 0 20;
#X obj 123 200 *~;
#X obj 271 218 unpack 0 0;
#X obj 312 279 outlet;
#X obj 36 87 t b f;
#X obj 148 90 t b f;
#X text 267 254 freq amp ramptime;
#X connect 0 0 18 0;
#X connect 1 0 13 0;
#X connect 3 0 0 0;
#X connect 3 0 5 0;
#X connect 4 0 21 0;
#X connect 8 0 12 0;
#X connect 12 0 15 0;
#X connect 13 0 3 0;
#X connect 13 1 22 0;
#X connect 15 0 17 0;
#X connect 15 0 19 0;
#X connect 17 0 18 1;
#X connect 18 0 10 0;
#X connect 19 0 14 0;
#X connect 19 1 20 0;
#X connect 21 0 3 0;
#X connect 21 1 3 1;
#X connect 22 0 15 0;
#X connect 22 1 15 1;
#X restore 562 263 pd single_sine;
#N canvas 1944 186 600 365 single_sine 0;
#X obj 122 166 osc~;
#X obj 18 12 inlet;
#X text 121 147 freq;
#X obj 20 125 + 0;
#X obj 110 19 inlet;
#X obj 52 272 outlet;
#X text 147 19 dodaj freq ofset z potencjometra;
#X text 23 251 freq overall;
#X obj 352 21 inlet;
#X text 391 22 control amp from LDR;
#X obj 125 274 outlet~;
#X text 129 250 output;
#X obj 248 92 / 1024;
#X obj 19 42 unpack f f;
#X obj 259 277 outlet;
#X obj 250 143 pack 0 20;
#X text 90 42 freq \, atak time;
#X obj 220 183 line~ 0 20;
#X obj 123 200 *~;
#X obj 271 218 unpack 0 0;
#X obj 312 279 outlet;
#X obj 36 87 t b f;
#X obj 148 90 t b f;
#X text 267 254 freq amp ramptime;
#X connect 0 0 18 0;
#X connect 1 0 13 0;
#X connect 3 0 0 0;
#X connect 3 0 5 0;
#X connect 4 0 21 0;
#X connect 8 0 12 0;
#X connect 12 0 15 0;
#X connect 13 0 3 0;
#X connect 13 1 22 0;
#X connect 15 0 17 0;
#X connect 15 0 19 0;
#X connect 17 0 18 1;
#X connect 18 0 10 0;
#X connect 19 0 14 0;
#X connect 19 1 20 0;
#X connect 21 0 3 0;
#X connect 21 1 3 1;
#X connect 22 0 15 0;
#X connect 22 1 15 1;
#X restore 654 263 pd single_sine;
#N canvas 1944 186 600 365 single_sine 0;
#X obj 122 166 osc~;
#X obj 18 12 inlet;
#X text 121 147 freq;
#X obj 20 125 + 0;
#X obj 110 19 inlet;
#X obj 52 272 outlet;
#X text 147 19 dodaj freq ofset z potencjometra;
#X text 23 251 freq overall;
#X obj 352 21 inlet;
#X text 391 22 control amp from LDR;
#X obj 125 274 outlet~;
#X text 129 250 output;
#X obj 248 92 / 1024;
#X obj 19 42 unpack f f;
#X obj 259 277 outlet;
#X obj 250 143 pack 0 20;
#X text 90 42 freq \, atak time;
#X obj 220 183 line~ 0 20;
#X obj 123 200 *~;
#X obj 271 218 unpack 0 0;
#X obj 312 279 outlet;
#X obj 36 87 t b f;
#X obj 148 90 t b f;
#X text 267 254 freq amp ramptime;
#X connect 0 0 18 0;
#X connect 1 0 13 0;
#X connect 3 0 0 0;
#X connect 3 0 5 0;
#X connect 4 0 21 0;
#X connect 8 0 12 0;
#X connect 12 0 15 0;
#X connect 13 0 3 0;
#X connect 13 1 22 0;
#X connect 15 0 17 0;
#X connect 15 0 19 0;
#X connect 17 0 18 1;
#X connect 18 0 10 0;
#X connect 19 0 14 0;
#X connect 19 1 20 0;
#X connect 21 0 3 0;
#X connect 21 1 3 1;
#X connect 22 0 15 0;
#X connect 22 1 15 1;
#X restore 758 264 pd single_sine;
#N canvas 1944 186 600 365 single_sine 0;
#X obj 122 166 osc~;
#X obj 18 12 inlet;
#X text 121 147 freq;
#X obj 20 125 + 0;
#X obj 110 19 inlet;
#X obj 52 272 outlet;
#X text 147 19 dodaj freq ofset z potencjometra;
#X text 23 251 freq overall;
#X obj 352 21 inlet;
#X text 391 22 control amp from LDR;
#X obj 125 274 outlet~;
#X text 129 250 output;
#X obj 248 92 / 1024;
#X obj 19 42 unpack f f;
#X obj 259 277 outlet;
#X obj 250 143 pack 0 20;
#X text 90 42 freq \, atak time;
#X obj 220 183 line~ 0 20;
#X obj 123 200 *~;
#X obj 271 218 unpack 0 0;
#X obj 312 279 outlet;
#X obj 36 87 t b f;
#X obj 148 90 t b f;
#X text 267 254 freq amp ramptime;
#X connect 0 0 18 0;
#X connect 1 0 13 0;
#X connect 3 0 0 0;
#X connect 3 0 5 0;
#X connect 4 0 21 0;
#X connect 8 0 12 0;
#X connect 12 0 15 0;
#X connect 13 0 3 0;
#X connect 13 1 22 0;
#X connect 15 0 17 0;
#X connect 15 0 19 0;
#X connect 17 0 18 1;
#X connect 18 0 10 0;
#X connect 19 0 14 0;
#X connect 19 1 20 0;
#X connect 21 0 3 0;
#X connect 21 1 3 1;
#X connect 22 0 15 0;
#X connect 22 1 15 1;
#X restore 853 267 pd single_sine;
#N canvas 1944 186 600 365 single_sine 0;
#X obj 122 166 osc~;
#X obj 18 12 inlet;
#X text 121 147 freq;
#X obj 20 125 + 0;
#X obj 110 19 inlet;
#X obj 52 272 outlet;
#X text 147 19 dodaj freq ofset z potencjometra;
#X text 23 251 freq overall;
#X obj 352 21 inlet;
#X text 391 22 control amp from LDR;
#X obj 125 274 outlet~;
#X text 129 250 output;
#X obj 248 92 / 1024;
#X obj 19 42 unpack f f;
#X obj 259 277 outlet;
#X obj 250 143 pack 0 20;
#X text 90 42 freq \, atak time;
#X obj 220 183 line~ 0 20;
#X obj 123 200 *~;
#X obj 271 218 unpack 0 0;
#X obj 312 279 outlet;
#X obj 36 87 t b f;
#X obj 148 90 t b f;
#X text 267 254 freq amp ramptime;
#X connect 0 0 18 0;
#X connect 1 0 13 0;
#X connect 3 0 0 0;
#X connect 3 0 5 0;
#X connect 4 0 21 0;
#X connect 8 0 12 0;
#X connect 12 0 15 0;
#X connect 13 0 3 0;
#X connect 13 1 22 0;
#X connect 15 0 17 0;
#X connect 15 0 19 0;
#X connect 17 0 18 1;
#X connect 18 0 10 0;
#X connect 19 0 14 0;
#X connect 19 1 20 0;
#X connect 21 0 3 0;
#X connect 21 1 3 1;
#X connect 22 0 15 0;
#X connect 22 1 15 1;
#X restore 951 264 pd single_sine;
#N canvas 1944 186 600 365 single_sine 0;
#X obj 122 166 osc~;
#X obj 18 12 inlet;
#X text 121 147 freq;
#X obj 20 125 + 0;
#X obj 110 19 inlet;
#X obj 52 272 outlet;
#X text 147 19 dodaj freq ofset z potencjometra;
#X text 23 251 freq overall;
#X obj 352 21 inlet;
#X text 391 22 control amp from LDR;
#X obj 125 274 outlet~;
#X text 129 250 output;
#X obj 248 92 / 1024;
#X obj 19 42 unpack f f;
#X obj 259 277 outlet;
#X obj 250 143 pack 0 20;
#X text 90 42 freq \, atak time;
#X obj 220 183 line~ 0 20;
#X obj 123 200 *~;
#X obj 271 218 unpack 0 0;
#X obj 312 279 outlet;
#X obj 36 87 t b f;
#X obj 148 90 t b f;
#X text 267 254 freq amp ramptime;
#X connect 0 0 18 0;
#X connect 1 0 13 0;
#X connect 3 0 0 0;
#X connect 3 0 5 0;
#X connect 4 0 21 0;
#X connect 8 0 12 0;
#X connect 12 0 15 0;
#X connect 13 0 3 0;
#X connect 13 1 22 0;
#X connect 15 0 17 0;
#X connect 15 0 19 0;
#X connect 17 0 18 1;
#X connect 18 0 10 0;
#X connect 19 0 14 0;
#X connect 19 1 20 0;
#X connect 21 0 3 0;
#X connect 21 1 3 1;
#X connect 22 0 15 0;
#X connect 22 1 15 1;
#X restore 1045 264 pd single_sine;
#N canvas 1944 186 600 365 single_sine 0;
#X obj 122 166 osc~;
#X obj 18 12 inlet;
#X text 121 147 freq;
#X obj 20 125 + 0;
#X obj 110 19 inlet;
#X obj 52 272 outlet;
#X text 147 19 dodaj freq ofset z potencjometra;
#X text 23 251 freq overall;
#X obj 352 21 inlet;
#X text 391 22 control amp from LDR;
#X obj 125 274 outlet~;
#X text 129 250 output;
#X obj 248 92 / 1024;
#X obj 19 42 unpack f f;
#X obj 259 277 outlet;
#X obj 250 143 pack 0 20;
#X text 90 42 freq \, atak time;
#X obj 220 183 line~ 0 20;
#X obj 123 200 *~;
#X obj 271 218 unpack 0 0;
#X obj 312 279 outlet;
#X obj 36 87 t b f;
#X obj 148 90 t b f;
#X text 267 254 freq amp ramptime;
#X connect 0 0 18 0;
#X connect 1 0 13 0;
#X connect 3 0 0 0;
#X connect 3 0 5 0;
#X connect 4 0 21 0;
#X connect 8 0 12 0;
#X connect 12 0 15 0;
#X connect 13 0 3 0;
#X connect 13 1 22 0;
#X connect 15 0 17 0;
#X connect 15 0 19 0;
#X connect 17 0 18 1;
#X connect 18 0 10 0;
#X connect 19 0 14 0;
#X connect 19 1 20 0;
#X connect 21 0 3 0;
#X connect 21 1 3 1;
#X connect 22 0 15 0;
#X connect 22 1 15 1;
#X restore 1146 264 pd single_sine;
#N canvas 1944 186 600 365 single_sine 0;
#X obj 122 166 osc~;
#X obj 18 12 inlet;
#X text 121 147 freq;
#X obj 20 125 + 0;
#X obj 110 19 inlet;
#X obj 52 272 outlet;
#X text 147 19 dodaj freq ofset z potencjometra;
#X text 23 251 freq overall;
#X obj 352 21 inlet;
#X text 391 22 control amp from LDR;
#X obj 125 274 outlet~;
#X text 129 250 output;
#X obj 248 92 / 1024;
#X obj 19 42 unpack f f;
#X obj 259 277 outlet;
#X obj 250 143 pack 0 20;
#X text 90 42 freq \, atak time;
#X obj 220 183 line~ 0 20;
#X obj 123 200 *~;
#X obj 271 218 unpack 0 0;
#X obj 312 279 outlet;
#X obj 36 87 t b f;
#X obj 148 90 t b f;
#X text 267 254 freq amp ramptime;
#X connect 0 0 18 0;
#X connect 1 0 13 0;
#X connect 3 0 0 0;
#X connect 3 0 5 0;
#X connect 4 0 21 0;
#X connect 8 0 12 0;
#X connect 12 0 15 0;
#X connect 13 0 3 0;
#X connect 13 1 22 0;
#X connect 15 0 17 0;
#X connect 15 0 19 0;
#X connect 17 0 18 1;
#X connect 18 0 10 0;
#X connect 19 0 14 0;
#X connect 19 1 20 0;
#X connect 21 0 3 0;
#X connect 21 1 3 1;
#X connect 22 0 15 0;
#X connect 22 1 15 1;
#X restore 1241 269 pd single_sine;
#N canvas 1944 186 600 365 single_sine 0;
#X obj 122 166 osc~;
#X obj 18 12 inlet;
#X text 121 147 freq;
#X obj 20 125 + 0;
#X obj 110 19 inlet;
#X obj 52 272 outlet;
#X text 147 19 dodaj freq ofset z potencjometra;
#X text 23 251 freq overall;
#X obj 352 21 inlet;
#X text 391 22 control amp from LDR;
#X obj 125 274 outlet~;
#X text 129 250 output;
#X obj 248 92 / 1024;
#X obj 19 42 unpack f f;
#X obj 259 277 outlet;
#X obj 250 143 pack 0 20;
#X text 90 42 freq \, atak time;
#X obj 220 183 line~ 0 20;
#X obj 123 200 *~;
#X obj 271 218 unpack 0 0;
#X obj 312 279 outlet;
#X obj 36 87 t b f;
#X obj 148 90 t b f;
#X text 267 254 freq amp ramptime;
#X connect 0 0 18 0;
#X connect 1 0 13 0;
#X connect 3 0 0 0;
#X connect 3 0 5 0;
#X connect 4 0 21 0;
#X connect 8 0 12 0;
#X connect 12 0 15 0;
#X connect 13 0 3 0;
#X connect 13 1 22 0;
#X connect 15 0 17 0;
#X connect 15 0 19 0;
#X connect 17 0 18 1;
#X connect 18 0 10 0;
#X connect 19 0 14 0;
#X connect 19 1 20 0;
#X connect 21 0 3 0;
#X connect 21 1 3 1;
#X connect 22 0 15 0;
#X connect 22 1 15 1;
#X restore 1337 271 pd single_sine;
#N canvas 1944 186 600 365 single_sine 0;
#X obj 122 166 osc~;
#X obj 18 12 inlet;
#X text 121 147 freq;
#X obj 20 125 + 0;
#X obj 110 19 inlet;
#X obj 52 272 outlet;
#X text 147 19 dodaj freq ofset z potencjometra;
#X text 23 251 freq overall;
#X obj 352 21 inlet;
#X text 391 22 control amp from LDR;
#X obj 125 274 outlet~;
#X text 129 250 output;
#X obj 248 92 / 1024;
#X obj 19 42 unpack f f;
#X obj 259 277 outlet;
#X obj 250 143 pack 0 20;
#X text 90 42 freq \, atak time;
#X obj 220 183 line~ 0 20;
#X obj 123 200 *~;
#X obj 271 218 unpack 0 0;
#X obj 312 279 outlet;
#X obj 36 87 t b f;
#X obj 148 90 t b f;
#X text 267 254 freq amp ramptime;
#X connect 0 0 18 0;
#X connect 1 0 13 0;
#X connect 3 0 0 0;
#X connect 3 0 5 0;
#X connect 4 0 21 0;
#X connect 8 0 12 0;
#X connect 12 0 15 0;
#X connect 13 0 3 0;
#X connect 13 1 22 0;
#X connect 15 0 17 0;
#X connect 15 0 19 0;
#X connect 17 0 18 1;
#X connect 18 0 10 0;
#X connect 19 0 14 0;
#X connect 19 1 20 0;
#X connect 21 0 3 0;
#X connect 21 1 3 1;
#X connect 22 0 15 0;
#X connect 22 1 15 1;
#X restore 1441 270 pd single_sine;
#X obj 1481 247 r a32;
#X obj 1521 247 r a16;
#X obj 1377 248 r a31;
#X obj 1417 248 r a15;
#X obj 1281 246 r a30;
#X obj 1321 246 r a14;
#X obj 1186 241 r a29;
#X obj 1228 241 r a13;
#X obj 1085 241 r a28;
#X obj 1125 241 r a12;
#X obj 991 241 r a27;
#X obj 1031 241 r a11;
#X obj 936 243 r a10;
#X obj 893 244 r a26;
#X obj 838 241 r a9;
#X obj 734 240 r a8;
#X obj 798 240 r a25;
#X obj 694 240 r a24;
#X obj 602 240 r a23;
#X obj 642 240 r a7;
#X obj 548 240 r a6;
#X obj 508 240 r a22;
#X obj 441 238 r a5;
#X obj 401 238 r a21;
#X obj 349 236 r a4;
#X obj 309 236 r a20;
#X obj 257 236 r a3;
#X obj 217 236 r a19;
#X floatatom 66 89 5 0 0 0 - - -;
#X obj 445 38 t b f;
#X obj 621 -34 loadbang;
#X obj 602 335 outlet~;
#X text 590 11 global ramp time;
#X floatatom 130 16 1 0 0 0 - - -;
#X obj 130 43 switch~;
#X text 152 20 control dsp of subpatch;
#X obj 162 -29 inlet;
#X obj 443 -35 inlet;
#X obj 558 -34 inlet;
#X msg 568 -8 20;
#X msg 455 -7 20;
#X connect 0 0 16 0;
#X connect 0 0 17 0;
#X connect 0 1 21 0;
#X connect 0 2 24 0;
#X connect 0 3 25 0;
#X connect 0 4 26 0;
#X connect 0 5 27 0;
#X connect 0 6 28 0;
#X connect 0 7 29 0;
#X connect 0 8 30 0;
#X connect 0 9 31 0;
#X connect 0 10 32 0;
#X connect 0 11 33 0;
#X connect 0 12 34 0;
#X connect 0 13 35 0;
#X connect 0 14 36 0;
#X connect 0 15 37 0;
#X connect 1 0 5 0;
#X connect 1 1 5 1;
#X connect 2 0 1 0;
#X connect 3 0 67 0;
#X connect 5 0 10 0;
#X connect 5 1 10 1;
#X connect 6 0 16 1;
#X connect 7 0 16 2;
#X connect 9 0 11 0;
#X connect 10 0 0 0;
#X connect 11 0 1 0;
#X connect 11 1 10 2;
#X connect 13 0 69 0;
#X connect 16 0 12 0;
#X connect 16 1 13 0;
#X connect 16 2 14 0;
#X connect 16 3 15 0;
#X connect 21 1 13 0;
#X connect 22 0 21 1;
#X connect 23 0 21 2;
#X connect 24 1 13 0;
#X connect 25 1 13 0;
#X connect 26 1 13 0;
#X connect 27 1 13 0;
#X connect 28 1 13 0;
#X connect 29 1 13 0;
#X connect 30 1 13 0;
#X connect 31 1 13 0;
#X connect 32 1 13 0;
#X connect 33 1 13 0;
#X connect 34 1 13 0;
#X connect 35 1 13 0;
#X connect 36 1 13 0;
#X connect 37 1 13 0;
#X connect 38 0 37 1;
#X connect 39 0 37 2;
#X connect 40 0 36 1;
#X connect 41 0 36 2;
#X connect 42 0 35 1;
#X connect 43 0 35 2;
#X connect 44 0 34 1;
#X connect 45 0 34 2;
#X connect 46 0 33 1;
#X connect 47 0 33 2;
#X connect 48 0 32 1;
#X connect 49 0 32 2;
#X connect 50 0 31 2;
#X connect 51 0 31 1;
#X connect 52 0 30 2;
#X connect 53 0 29 2;
#X connect 54 0 30 1;
#X connect 55 0 29 1;
#X connect 56 0 28 1;
#X connect 57 0 28 2;
#X connect 58 0 27 2;
#X connect 59 0 27 1;
#X connect 60 0 26 2;
#X connect 61 0 26 1;
#X connect 62 0 25 2;
#X connect 63 0 25 1;
#X connect 64 0 24 2;
#X connect 65 0 24 1;
#X connect 66 0 16 2;
#X connect 66 0 21 2;
#X connect 66 0 30 2;
#X connect 66 0 31 2;
#X connect 67 0 1 0;
#X connect 67 1 1 1;
#X connect 68 0 77 0;
#X connect 68 0 78 0;
#X connect 71 0 72 0;
#X connect 74 0 72 0;
#X connect 75 0 3 0;
#X connect 76 0 9 0;
#X connect 77 0 9 0;
#X connect 78 0 3 0;
