#N canvas 48 541 905 313 10;
#X obj -321 23 tgl 15 0 empty empty empty 17 7 0 10 -262144 -1 -1 1
1;
#X obj -321 71 counter 2 0 15;
#X floatatom -310 95 5 0 0 0 - - -;
#X floatatom -213 74 5 0 0 0 - - -;
#X obj -321 43 metro 100;
#X obj -530 97 tgl 15 0 empty empty empty 17 7 0 10 -262144 -1 -1 1
1;
#X msg -410 101 close;
#X msg -590 75 open 1;
#X msg -413 81 devices;
#X msg -492 99 99;
#N canvas 257 303 511 420 serialRead 0;
#X obj 167 129 sel 255;
#X obj 33 176 < 128;
#X obj 33 205 + 1;
#X obj 32 238 gate 2;
#X obj 34 277 - 128;
#X obj 160 328 route 1 2;
#X text 313 96 Close Serial port;
#X text 368 76 Open serial port by number;
#X text 517 56 print available devices (wait for it...);
#X msg 750 63 ports;
#X msg 350 42 info;
#X obj 156 303 zl group 100;
#X msg 176 61 devicename /dev/ttyUSB1;
#X msg 179 43 devicename /dev/ttyUSB0;
#X obj 142 365 outlet;
#X obj 233 365 outlet;
#X obj 59 11 inlet;
#X obj 15 10 inlet;
#X obj 61 43 metro 10;
#X msg 348 303 baud 115200;
#X obj 61 83 comport 2 115200;
#X obj 99 171 t 0 0;
#X obj 101 17 inlet;
#X connect 0 0 11 0;
#X connect 0 1 21 0;
#X connect 1 0 2 0;
#X connect 2 0 3 0;
#X connect 3 0 4 0;
#X connect 3 1 11 0;
#X connect 4 0 11 0;
#X connect 5 0 14 0;
#X connect 5 1 15 0;
#X connect 9 0 20 0;
#X connect 10 0 20 0;
#X connect 11 0 5 0;
#X connect 12 0 20 0;
#X connect 13 0 20 0;
#X connect 16 0 18 0;
#X connect 17 0 20 0;
#X connect 18 0 20 0;
#X connect 19 0 20 0;
#X connect 20 0 0 0;
#X connect 21 0 3 1;
#X connect 21 1 1 0;
#X connect 22 0 18 1;
#X restore -589 128 pd serialRead;
#N canvas 333 301 648 414 digitalIns 0;
#X obj 374 131 unpack 0 0;
#X obj 423 157 << 7;
#X obj 376 189 +;
#X text 439 132 digital;
#X obj 329 251 & 1;
#X obj 327 285 == 0;
#X obj 365 285 == 0;
#X obj 367 251 & 2;
#X obj 405 285 == 0;
#X obj 443 285 == 0;
#X obj 407 251 & 4;
#X obj 445 251 & 8;
#X obj 477 284 == 0;
#X obj 515 284 == 0;
#X obj 555 284 == 0;
#X obj 593 284 == 0;
#X obj 479 250 & 16;
#X obj 517 250 & 32;
#X obj 557 250 & 64;
#X obj 595 250 & 128;
#X obj 634 283 == 0;
#X obj 674 283 == 0;
#X obj 712 283 == 0;
#X obj 636 249 & 256;
#X obj 676 249 & 512;
#X obj 714 249 & 1024;
#X obj 444 324 pack 0 0 0 0 0 0 0 0 0 0 0;
#X text 627 321 digital outs;
#X obj 444 346 unpack 0 0 0 0 0 0 0 0 0 0 0 0;
#X floatatom 622 376 5 0 0 0 - - -;
#X text 367 324 digital outs;
#X obj 180 75 inlet;
#X connect 0 0 2 0;
#X connect 0 1 1 0;
#X connect 1 0 2 1;
#X connect 2 0 4 0;
#X connect 2 0 7 0;
#X connect 2 0 10 0;
#X connect 2 0 11 0;
#X connect 2 0 16 0;
#X connect 2 0 17 0;
#X connect 2 0 18 0;
#X connect 2 0 19 0;
#X connect 2 0 23 0;
#X connect 2 0 24 0;
#X connect 2 0 25 0;
#X connect 4 0 5 0;
#X connect 5 0 26 0;
#X connect 6 0 26 1;
#X connect 7 0 6 0;
#X connect 8 0 26 2;
#X connect 9 0 26 3;
#X connect 10 0 8 0;
#X connect 11 0 9 0;
#X connect 12 0 26 4;
#X connect 13 0 26 5;
#X connect 14 0 26 6;
#X connect 15 0 26 7;
#X connect 16 0 12 0;
#X connect 17 0 13 0;
#X connect 18 0 14 0;
#X connect 19 0 15 0;
#X connect 20 0 26 8;
#X connect 21 0 26 9;
#X connect 22 0 26 10;
#X connect 23 0 20 0;
#X connect 24 0 21 0;
#X connect 25 0 22 0;
#X connect 26 0 28 0;
#X connect 28 11 29 0;
#X connect 31 0 0 0;
#X restore -501 151 pd digitalIns;
#X obj -588 226 r a1;
#X obj -551 228 r a2;
#X obj -512 228 r a3;
#X obj -475 230 r a4;
#X obj -437 229 r a5;
#X obj -400 230 r a6;
#X obj -361 231 r a7;
#X obj -324 233 r a8;
#X obj -287 232 r a9;
#X obj -250 234 r a10;
#X obj -211 234 r a11;
#X obj -174 236 r a12;
#X obj -137 230 r a13;
#X obj -99 237 r a14;
#X obj -53 237 r a15;
#X obj -14 239 r a16;
#X floatatom -412 59 5 0 0 0 - - -;
#X floatatom -474 272 5 0 0 0 - - -;
#X floatatom -514 271 5 0 0 0 - - -;
#X floatatom -437 270 5 0 0 0 - - -;
#X floatatom -399 271 5 0 0 0 - - -;
#X floatatom -360 273 5 0 0 0 - - -;
#X floatatom -323 273 5 0 0 0 - - -;
#X floatatom -591 266 5 0 0 0 - - -;
#X floatatom -553 267 5 0 0 0 - - -;
#X floatatom -205 278 5 0 0 0 - - -;
#X floatatom -173 279 5 0 0 0 - - -;
#X floatatom -139 279 5 0 0 0 - - -;
#X floatatom -107 280 5 0 0 0 - - -;
#X floatatom -76 281 5 0 0 0 - - -;
#X floatatom -288 275 5 0 0 0 - - -;
#X floatatom -256 275 5 0 0 0 - - -;
#X floatatom -41 281 5 0 0 0 - - -;
#N canvas 60 376 1085 346 analogVal 0;
#X obj 144 122 << 7;
#X obj 478 105 +;
#X obj 421 144 gate 3;
#X obj 357 169 hradio 15 1 0 4 empty empty empty 0 -8 0 10 -262144
-1 -1 3;
#X text 516 102 zmien w zaleznosci od ilosci multiplezerow dla 2 multiplixerow
21 dla 1 13;
#X floatatom 418 182 5 0 0 0 - - -;
#X obj 355 118 loadbang 4;
#X msg 369 139 4;
#X msg 597 169 menufont;
#X obj 598 197 s pd-analOut;
#N canvas 101 315 998 476 analOut 0;
#X floatatom 245 218 5 0 0 0 - - -;
#X floatatom 245 197 5 0 0 0 - - -;
#X floatatom 284 151 5 0 0 0 - - -;
#X floatatom 285 174 5 0 0 0 - - -;
#X floatatom 285 194 5 0 0 0 - - -;
#X floatatom 286 222 5 0 0 0 - - -;
#X floatatom 248 153 5 0 0 0 - - -;
#X floatatom 246 176 5 0 0 0 - - -;
#X obj 262 101 listfunnel;
#X obj 303 123 spray 16;
#X text 490 189 analog outs;
#X floatatom 380 217 5 0 0 0 - - -;
#X floatatom 412 218 5 0 0 0 - - -;
#X floatatom 446 218 5 0 0 0 - - -;
#X floatatom 478 219 5 0 0 0 - - -;
#X floatatom 509 220 5 0 0 0 - - -;
#X floatatom 316 217 5 0 0 0 - - -;
#X floatatom 348 217 5 0 0 0 - - -;
#X floatatom 544 220 5 0 0 0 - - -;
#X floatatom 33 320 5 0 0 0 - - -;
#X floatatom 33 299 5 0 0 0 - - -;
#X floatatom 130 262 5 0 0 0 - - -;
#X floatatom 131 285 5 0 0 0 - - -;
#X floatatom 131 305 5 0 0 0 - - -;
#X floatatom 132 333 5 0 0 0 - - -;
#X floatatom 36 255 5 0 0 0 - - -;
#X floatatom 34 278 5 0 0 0 - - -;
#X obj 50 203 listfunnel;
#X text 151 250 analog outs;
#X obj 45 155 zl group 13;
#X obj 91 225 spray 8;
#X floatatom 106 397 5 0 0 0 - - -;
#X floatatom 147 399 5 0 0 0 - - -;
#X floatatom 188 402 5 0 0 0 - - -;
#X floatatom 227 401 5 0 0 0 - - -;
#X floatatom 264 404 5 0 0 0 - - -;
#X floatatom 305 402 5 0 0 0 - - -;
#X floatatom 26 398 5 0 0 0 - - -;
#X floatatom 69 399 5 0 0 0 - - -;
#X obj 575 107 listfunnel;
#X text 870 360 analog outs;
#X floatatom 406 407 5 0 0 0 - - -;
#X floatatom 438 404 5 0 0 0 - - -;
#X floatatom 472 404 5 0 0 0 - - -;
#X floatatom 504 405 5 0 0 0 - - -;
#X floatatom 535 406 5 0 0 0 - - -;
#X floatatom 342 403 5 0 0 0 - - -;
#X floatatom 374 403 5 0 0 0 - - -;
#X floatatom 574 408 5 0 0 0 - - -;
#X text 123 157 moze 14?;
#X floatatom 689 410 5 0 0 0 - - -;
#X floatatom 727 407 5 0 0 0 - - -;
#X floatatom 767 403 5 0 0 0 - - -;
#X floatatom 806 404 5 0 0 0 - - -;
#X floatatom 848 403 5 0 0 0 - - -;
#X floatatom 617 410 5 0 0 0 - - -;
#X floatatom 649 407 5 0 0 0 - - -;
#X floatatom 884 402 5 0 0 0 - - -;
#X obj 41 108 inlet;
#X obj 259 14 inlet;
#X obj 566 16 inlet;
#X obj 487 151 print;
#X obj 570 59 zl group 28;
#X obj 574 146 spray 24;
#X obj 584 82 zl slice 24;
#X obj 261 78 zl slice 16;
#X obj 49 180 zl slice 8;
#X obj 25 435 s a1;
#X obj 62 437 s a2;
#X obj 101 437 s a3;
#X obj 138 439 s a4;
#X obj 176 438 s a5;
#X obj 213 440 s a6;
#X obj 252 440 s a7;
#X obj 289 442 s a8;
#X obj 328 439 s a9;
#X obj 365 441 s a10;
#X obj 404 441 s a11;
#X obj 441 443 s a12;
#X obj 479 442 s a13;
#X obj 516 444 s a14;
#X obj 562 444 s a15;
#X obj 601 446 s a16;
#X obj 257 53 zl group 20;
#X connect 8 0 9 0;
#X connect 9 0 6 0;
#X connect 9 1 7 0;
#X connect 9 2 0 0;
#X connect 9 3 1 0;
#X connect 9 4 2 0;
#X connect 9 5 3 0;
#X connect 9 6 4 0;
#X connect 9 7 5 0;
#X connect 9 8 16 0;
#X connect 9 9 17 0;
#X connect 9 10 11 0;
#X connect 9 11 12 0;
#X connect 9 12 13 0;
#X connect 9 13 14 0;
#X connect 9 14 15 0;
#X connect 9 15 18 0;
#X connect 27 0 30 0;
#X connect 29 0 66 0;
#X connect 30 0 25 0;
#X connect 30 1 26 0;
#X connect 30 2 19 0;
#X connect 30 3 20 0;
#X connect 30 4 21 0;
#X connect 30 5 22 0;
#X connect 30 6 23 0;
#X connect 30 7 24 0;
#X connect 31 0 69 0;
#X connect 32 0 70 0;
#X connect 33 0 71 0;
#X connect 34 0 72 0;
#X connect 35 0 73 0;
#X connect 36 0 74 0;
#X connect 37 0 67 0;
#X connect 38 0 68 0;
#X connect 39 0 63 0;
#X connect 41 0 77 0;
#X connect 42 0 78 0;
#X connect 43 0 79 0;
#X connect 44 0 80 0;
#X connect 45 0 81 0;
#X connect 46 0 75 0;
#X connect 47 0 76 0;
#X connect 48 0 82 0;
#X connect 58 0 29 0;
#X connect 59 0 83 0;
#X connect 60 0 62 0;
#X connect 62 0 64 0;
#X connect 63 0 37 0;
#X connect 63 1 38 0;
#X connect 63 2 31 0;
#X connect 63 3 32 0;
#X connect 63 4 33 0;
#X connect 63 5 34 0;
#X connect 63 6 35 0;
#X connect 63 7 36 0;
#X connect 63 8 46 0;
#X connect 63 9 47 0;
#X connect 63 10 41 0;
#X connect 63 11 42 0;
#X connect 63 12 43 0;
#X connect 63 13 44 0;
#X connect 63 14 45 0;
#X connect 63 15 48 0;
#X connect 63 16 55 0;
#X connect 63 17 56 0;
#X connect 63 18 50 0;
#X connect 63 19 51 0;
#X connect 63 20 52 0;
#X connect 63 21 53 0;
#X connect 63 22 54 0;
#X connect 63 23 57 0;
#X connect 64 0 39 0;
#X connect 65 0 8 0;
#X connect 66 0 27 0;
#X connect 83 0 65 0;
#X restore 204 173 pd analOut;
#X floatatom 216 262 5 0 0 0 - - -;
#X floatatom 176 261 5 0 0 0 - - -;
#X floatatom 253 260 5 0 0 0 - - -;
#X floatatom 291 261 5 0 0 0 - - -;
#X floatatom 330 263 5 0 0 0 - - -;
#X floatatom 367 263 5 0 0 0 - - -;
#X floatatom 99 256 5 0 0 0 - - -;
#X floatatom 137 257 5 0 0 0 - - -;
#X obj 107 205 listfunnel;
#X obj 212 225 spray 16;
#X text 397 235 analog outs;
#X floatatom 487 266 5 0 0 0 - - -;
#X floatatom 519 267 5 0 0 0 - - -;
#X floatatom 553 267 5 0 0 0 - - -;
#X floatatom 585 268 5 0 0 0 - - -;
#X floatatom 616 269 5 0 0 0 - - -;
#X floatatom 404 263 5 0 0 0 - - -;
#X floatatom 436 263 5 0 0 0 - - -;
#X floatatom 651 269 5 0 0 0 - - -;
#X obj 109 94 zl slice 1;
#X obj 107 67 list-iter 2;
#X obj 113 150 +;
#X obj 110 182 zl group 21;
#X obj 102 289 s a1;
#X obj 139 291 s a2;
#X obj 178 291 s a3;
#X obj 215 293 s a4;
#X obj 253 292 s a5;
#X obj 290 294 s a6;
#X obj 329 294 s a7;
#X obj 366 296 s a8;
#X obj 405 293 s a9;
#X obj 442 295 s a10;
#X obj 481 295 s a11;
#X obj 518 297 s a12;
#X obj 556 296 s a13;
#X obj 593 298 s a14;
#X obj 639 298 s a15;
#X obj 683 292 s a16;
#X text 676 161 change font size - jak nie da sie polaczyc bo za maly
obiekt (sprej);
#X text 202 197 FOR DIFFRENT MULTIPLEXERS AMOUNT LOOK INSIDE;
#X obj 109 35 inlet;
#X connect 0 0 32 1;
#X connect 1 0 2 1;
#X connect 2 0 5 0;
#X connect 3 0 2 0;
#X connect 6 0 7 0;
#X connect 7 0 3 0;
#X connect 8 0 9 0;
#X connect 11 0 37 0;
#X connect 12 0 36 0;
#X connect 13 0 38 0;
#X connect 14 0 39 0;
#X connect 15 0 40 0;
#X connect 16 0 41 0;
#X connect 17 0 34 0;
#X connect 18 0 35 0;
#X connect 19 0 20 0;
#X connect 20 0 17 0;
#X connect 20 1 18 0;
#X connect 20 2 11 0;
#X connect 20 3 12 0;
#X connect 20 4 13 0;
#X connect 20 5 14 0;
#X connect 20 6 15 0;
#X connect 20 7 16 0;
#X connect 20 8 27 0;
#X connect 20 9 28 0;
#X connect 20 10 22 0;
#X connect 20 11 23 0;
#X connect 20 12 24 0;
#X connect 20 13 25 0;
#X connect 20 14 26 0;
#X connect 20 15 29 0;
#X connect 22 0 44 0;
#X connect 23 0 45 0;
#X connect 24 0 46 0;
#X connect 25 0 47 0;
#X connect 26 0 48 0;
#X connect 27 0 42 0;
#X connect 28 0 43 0;
#X connect 29 0 49 0;
#X connect 30 0 32 0;
#X connect 30 1 0 0;
#X connect 31 0 30 0;
#X connect 32 0 33 0;
#X connect 33 0 19 0;
#X connect 52 0 31 0;
#X restore -588 150 pd analogVal;
#N canvas 68 470 749 284 tlcSeq 0;
#X msg 313 136 close;
#X msg 260 157 baud 115200;
#X msg 264 114 pollintervall 10;
#X msg 261 181 devices;
#X obj 35 46 * 3;
#X obj 114 173 t l;
#X obj 33 93 moocow/any2bytes 128 -1;
#X obj 34 67 + 0;
#X obj 191 87 moocow/any2bytes 128 -1;
#X obj 114 143 zl join;
#X obj 37 119 Append 32;
#X obj 189 112 Append 10;
#X msg 265 134 open 2;
#X obj 48 178 print;
#X obj 114 213 comport 2 115200;
#X obj 35 19 inlet;
#X obj 105 20 inlet;
#X obj 187 19 inlet;
#X obj 234 17 inlet;
#X obj 299 18 inlet;
#X text 361 12 0 dec = 48 asci 1 dec = 49 2 dec = 50 3 dec = 51 4 =
== 52 5 ======53 6 54 7 55 8 56 9 57 32 === space;
#X text 363 39 1szy int to od 0 do 47 - numer kanalu 2 to od 0 do 4095
na koncu 1;
#X connect 0 0 14 0;
#X connect 1 0 14 0;
#X connect 2 0 14 0;
#X connect 3 0 14 0;
#X connect 4 0 7 0;
#X connect 5 0 14 0;
#X connect 6 0 10 0;
#X connect 7 0 6 0;
#X connect 8 0 11 0;
#X connect 9 0 5 0;
#X connect 10 0 9 0;
#X connect 11 0 9 1;
#X connect 12 0 14 0;
#X connect 15 0 4 0;
#X connect 16 0 7 1;
#X connect 17 0 8 0;
#X connect 18 0 14 0;
#X connect 19 0 14 0;
#X restore -321 159 pd tlcSeq;
#X msg -248 133 close;
#X msg -207 133 open 2;
#X text -275 94 R/G/B;
#X text -180 75 bright;
#X floatatom -268 13 5 0 0 0 - - -;
#X obj -168 106 del 1000;
#X msg -196 49 4000;
#X obj -211 -1 loadbang;
#X obj -210 22 t b b b;
#X msg -319 -4 1;
#X obj -581 -4 loadbang;
#X obj -583 22 t b b b;
#X msg -530 76 1;
#X obj -588 53 del 1000;
#X obj -505 -7 bng 15 250 50 0 empty empty empty 17 7 0 10 -262144
-1 -1;
#X obj -530 53 del 2000;
#X obj -491 77 del 3000;
#X connect 0 0 4 0;
#X connect 1 0 46 0;
#X connect 2 0 46 1;
#X connect 3 0 46 2;
#X connect 4 0 1 0;
#X connect 4 0 3 0;
#X connect 5 0 10 1;
#X connect 6 0 10 0;
#X connect 7 0 10 0;
#X connect 8 0 10 0;
#X connect 9 0 10 0;
#X connect 10 0 45 0;
#X connect 10 1 11 0;
#X connect 12 0 35 0;
#X connect 13 0 36 0;
#X connect 14 0 30 0;
#X connect 15 0 29 0;
#X connect 16 0 31 0;
#X connect 17 0 32 0;
#X connect 18 0 33 0;
#X connect 19 0 34 0;
#X connect 20 0 42 0;
#X connect 21 0 43 0;
#X connect 22 0 37 0;
#X connect 23 0 38 0;
#X connect 24 0 39 0;
#X connect 25 0 40 0;
#X connect 26 0 41 0;
#X connect 27 0 44 0;
#X connect 28 0 10 2;
#X connect 47 0 46 4;
#X connect 48 0 46 3;
#X connect 51 0 4 1;
#X connect 52 0 48 0;
#X connect 53 0 3 0;
#X connect 54 0 55 0;
#X connect 55 0 56 0;
#X connect 55 1 53 0;
#X connect 55 2 52 0;
#X connect 56 0 0 0;
#X connect 57 0 58 0;
#X connect 58 0 60 0;
#X connect 58 1 62 0;
#X connect 58 2 63 0;
#X connect 59 0 5 0;
#X connect 60 0 7 0;
#X connect 61 0 58 0;
#X connect 62 0 59 0;
#X connect 63 0 9 0;
