#N canvas 597 195 885 695 10;
#X declare -lib moocow;
#X msg 99 1118 devices;
#X msg 100 1250 close;
#X obj 33 1332 comport;
#N canvas 21 71 450 300 (subpatch) 0;
#X array led_levels 48 float 3;
#A 0 -36.8555 -37.0547 -37.2539 -37.4531 -37.6523 -37.8516 -38.0508
-38.25 -38.4492 -38.6484 -38.8477 -39.0469 -39.2461 -39.4453 -39.6445
-39.8438 -40.043 -40.2422 -40.4414 -40.6406 -40.8398 -41.0391 -41.2383
-41.4375 -41.6367 -41.8359 -41.8359 -41.8359 -41.8359 -41.8359 -41.8359
-41.8359 -41.8359 -41.8359 -41.8359 -41.8359 -41.8359 -41.8359 -41.8359
-41.8359 -41.8359 -41.8359 -41.8359 -41.8359 -41.8359 -41.8359 -41.8359
-40.8398;
#X coords 0 255 48 0 480 256 1 0 0;
#X restore 16 -54 graph;
#X obj 31 407 until;
#X obj 31 431 f;
#X obj 65 431 + 1;
#X msg 58 320 0;
#X obj 31 346 arraysize led_levels;
#X obj 31 209 bng 15 250 50 0 empty empty empty 17 7 0 10 -262144 -1
-1;
#X obj 58 732 print arr;
#X obj 31 283 t b b;
#X obj 41 613 int;
#X obj 31 231 t b b;
#X text 252 212 Send message start pattern;
#X obj 33 874 r to_comport;
#X obj 41 797 s to_comport;
#X obj 265 267 s to_comport;
#X text 23 856 Serial port;
#X text 19 264 Send values themselves;
#X msg 44 1403 add2 \$1;
#X msg 54 1427 set;
#X msg 103 1212 print HELLO;
#X obj 103 1191 bng 15 250 50 0 empty empty empty 17 7 0 10 -262144
-1 -1;
#X msg 186 1212 10;
#X obj 44 1659 bytes2any;
#X text 30 906 PD -> Arduino;
#X text 30 1365 Arduino -> PD;
#X text 85 1427 <- Click to clear message box;
#X text 41 1640 Interpret bytes as ASCII and print text in Pd window
;
#X text 42 1385 Add received bytes to message box;
#X obj 44 1681 print com recv text;
#X obj 45 925 print com send bytes;
#X obj 108 1660 import moocow;
#X text 102 -69 (RGB x 16);
#X obj 31 368 / 3;
#X text 27 302 For each triplet of values in led_levels;
#X obj 461 511 * 3;
#X obj 461 535 + 0;
#X obj 461 558 tabread led_levels;
#X obj 328 511 * 3;
#X obj 328 558 tabread led_levels;
#X obj 328 535 + 1;
#X obj 194 511 * 3;
#X obj 194 558 tabread led_levels;
#X obj 194 535 + 2;
#X text 38 593 Force to integer and restrict to valid range [0..255]
;
#X obj 41 636 clip 0 255;
#X text 39 779 Send byte to serial port;
#X msg 265 234 255 255 255 255;
#X text 38 457 For each of R \, G \, B and alpha;
#X obj 41 511 * 3;
#X obj 41 558 tabread led_levels;
#X obj 41 535 + 2;
#X obj 41 695 + 1;
#X obj 84 953 loadbang;
#X floatatom 339 1257 10 0 0 1 baud - -;
#X floatatom 414 1298 3 0 0 3 parity - -;
#X floatatom 439 1298 3 0 0 2 stop - -;
#X floatatom 464 1297 3 0 0 3 data - -;
#X floatatom 540 1259 3 0 0 0 port - -;
#X obj 489 1263 tgl 15 0 empty empty rts/cts -10 20 1 11 -24198 -258699
-1 0 1;
#X obj 515 1279 tgl 15 0 empty empty xon/xoff -14 20 1 11 -24198 -258699
-1 0 1;
#X text 278 1297 serial packet format:;
#X text 430 1247 handshaking:;
#X text 236 1329 flow control inputs:;
#X obj 364 1329 tgl 15 0 empty empty dsr 0 20 1 11 -24198 -258699 -1
0 1;
#X obj 389 1329 tgl 15 0 empty empty cts 0 20 1 11 -24198 -258699 -1
0 1;
#X obj 565 1260 tgl 15 0 empty empty open -6 20 1 11 -24198 -258699
-1 0 1;
#X obj 590 1294 print port_list;
#X obj 704 1250 print other;
#X obj 615 1257 tgl 15 0 empty empty hupcl -6 20 1 11 -24198 -258699
-1 0 1;
#X floatatom 640 1270 10 0 0 1 rxerrors - -;
#X obj 339 1220 route baud dsr cts parity stop data rtscts xonxoff
port open ports hupcl rxerrors;
#X msg 339 1196 info;
#X msg 100 1029 bits 8;
#X msg 99 1054 parity 0;
#X msg 99 1079 stopbit 0;
#X obj 41 475 t f f f f;
#X msg 44 1450 89 108 116 117 129 144 156 157 158 151 140 141 118 82
79 80 86 101 108 109 124 133 148 149 166 147 116 117 97 89 89 90 89
89 93 94 98 113 136 137 148 166 155 156 122 97 86 87 87 90 100 101
105 110 117 118 124 135 144 145 155 159 161 162 89 108 116 117 129
144 156 157 158 151 140 141 118 82 79 80 86 101 108 109 124 133 148
149 166 147 116 117 97 89 89 90 89 89 93 94 98 113 136 137 148 166
155 156 122 97 86 87 87 90 100 101 105 110 117 118 124 135 144 145
155 159 161 162 89 108 116 117 129 144 156 157 158 151 140 141 118
82 79 80 86 101 108 109 124 133 148 149 166 147 116 117 97 89 89 90
89 89 93 94 98 113 136 137 148 166 155 156 122 97 86 87 87 90 100 101
105 110 117 118 124 135 144 145 155 159 161 162 89 108 116 117 129
144 156 157 158 151 140 141 118 82 79 80 86 101 108 109 124 133 148
149 166 147 116 117 97 89 89 90 89 89 93 94 98 113 136 137 148 166
155 156 122 97 86 87 87 90 100 101 105 110 117 118 124 135 144 145
155 159 161 162 89 108 116 117 129 144 156 157 158 151 140 141 118
82 79 80 86 101 108 109 124 133 148 149 166 147 116 117 97 89 89 90
89 89 93 94 98 113 136 137 148 166 155 156 122 97 86 87 87 90 100 101
105 110 117 118 124 135 144 145 155 159 161 162 255 108 116 117 129
144 156 157 158 151 140 141 118 82 79 80 86 101 108 109 124 133 148
149 166 147 116 117 97 89 89 90 89 89 93 94 98 113 136 137 148 166
155 156 122 97 86 87 87 90 100 101 105 110 117 118 124 135 144 145
155 159 161 162 255 108 116 117 129 144 156 157 158 151 140 141 118
82 79 80 86 101 108 109 124 133 148 149 166 147 116 117 97 89 89 90
89 89 93 94 98 113 136 137 148 166 155 156 122 97 86 87 87 90 100 101
105 110 117 118 124 135 144 145 155 159 161 162 255 108 116 117 129
144 156 157 158 151 140 141 118 82 79 80 86 101 108 109 124 133 148
149 166 147 116 117 97 89 89 90 89 89 93 94 98 113 136 137 148 166
155 156 122 97 86 87 87 90 100 101 105 110 117 118 124 135 144 145
155 159 161 162 255 108 116 117 129 144 156 157 158 151 140 141 118
82 79 80 86 101 108 109 124 133 148 149 166 147 116 117 97 89 89 90
89 89 93 94 98 113 136 137 148 166 155 156 122 97 86 87 87 90 100 101
105 110 117 118 124 135 144 145 155 159 161 162 255 108 116 117 129
144 156 157 158 151 140 141 118 82 79 80 86 101 108 109 124 133 148
149 166 147 116 117 97 89 89 90 89 89 93 94 98 113 136 137 148 166
155 156 122 97 86 87 87 90 100 101 105 110 117 118 124 135 144 145
155 159 161 162 255 108 116 117 129 144 156 157 158 151 140 141 118
82 79 80 86 101 108 109 124 133 148 149 166 147 116 117 97 89 89 90
89 89 93 94 98 113 136 137 148 166 155 156 122 97 86 87 87 90 100 101
105 110 117 118 124 135 144 145 155 159 161 162 255 0 0 1 0 0 0 1 0
0 0 1 0 0 0 1 0 0 0 1 0 0 0 1 0 0 0 1 0 0 0 1 0 0 0 1 0 0 0 1 0 0 0
1 0 0 0 1 0 0 0 1 0 0 0 1 0 0 0 1 0 0 0 1 255 0 0 1 0 0 0 1 0 0 0 1
0 0 0 1 0 0 0 1 0 0 0 1 0 0 0 1 0 0 0 1 0 0 0 1 0 0 0 1 0 0 0 1 0 0
0 1 0 0 0 1 0 0 0 1 0 0 0 1 0 0 0 1 255 0 0 1 0 0 0 1 0 0 0 1 0 0 0
1 0 0 0 1 0 0 0 1 0 0 0 1 0 0 0 1 0 0 0 1 0 0 0 1 0 0 0 1 0 0 0 1 0
0 0 1 0 0 0 1 0 0 0 1 0 0 0 1 0 0 0 1 255 0 0 1 0 0 0 1 0 0 0 1 0 0
0 1 0 0 0 1 0 0 0 1 0 0 0 1 0 0 0 1 0 0 0 1 0 0 0 1 0 0 0 1 0 0 0 1
0 0 0 1 0 0 0 1 0 0 0 1 0 255 0 1 255 0 0 1 0 0 0 1 0 0 0 1 0 0 0 1
0 0 0 1 0 0 0 1 0 0 0 1 0 0 0 1 0 0 0 1 0 0 0 1 0 0 0 1 0 0 0 1 0 0
0 1 0 0 0 1 0 0 0 1 0 0 255 0 0 0 0 1 0 0 0 1 0 0 0 1 0 0 0 1 0 0 0
1 0 0 0 1 0 0 0 1 0 0 0 1 0 0 0 1 0 0 0 1 0 0 0 1 0 0 0 1 0 0 0 1 0
0 0 1 0 0 0 1 255 255 255 0 0 0 0 1 0 0 0 1 0 0 0 1 0 0 0 1 0 0 0 1
0 0 0 1 0 0 0 1 0 0 0 1 0 0 0 1 0 0 0 1 0 0 0 1 0 0 0 1 0 0 0 1 0 0
0 1 0 0 0 1 255 255 255 0 0 0 0 1 0 0 0 1 0 0 0 1 0 0 0 1 0 0 0 1 0
0 0 1 0 0 0 1 0 0 0 1 0 0 0 1 0 0 0 1 0 0 0 1 0 0 0 1 0 0 0 1 0 0 0
1 0 0 0 1 255 255 255 0 0 0 0 1 0 0 0 1 0 0 0 1 0 0 0 1 0 0 0 1 0 0
0 1 0 0 0 1 0 0 0 1 0 0 0 1 0 0 0 1 0 0 0 1 0 0 0 1 0 0 0 1 0 0 0 1
0 0 0 1 255 255 255 0 0 0 255 0 0 0 0 1 0 0 0 1 0 0 0 1 0 0 0 1 0 0
0 1 0 0 0 1 0 0 0 1 0 0 0 1 0 0 0 1 0 0 0 1 0 0 0 1 0 0 0 1 0 0 0 1
0 0 0 1 255 255 255 0 0 0 0 1 0 0 0 1 0 0 0 1 0 0 0 1 0 0 0 1 0 0 0
1 0 0 0 1 0 0 0 1 0 0 0 1 0 0 0 1 0 0 0 1 0 0 0 1 0 0 0 1 0 0 0 1 0
0 0 1 255 255 255 0 0 0 0 1 0 0 0 1 0 0 0 1 0 0 0 1 0 0 0 1 0 0 0 1
0 0 0 1 0 0 0 1 0 0 0 1 0 0 0 1 0 0 0 1 0 0 0 1 0 0 0 1 0 0 0 1 0 0
0 1 255 255 255 0 0 255 0 1 0 0 0 1 0 0 0 1 0 0 0 1 0 0 0 1 0 0 0 1
0 0 0 1 0 0 0 1 0 0 0 1 0 0 0 1 0 0 0 1 0 0 0 1 0 0 0 1 0 0 0 1 0 0
0 1 255 0 255 0 0 255 0 1 0 0 0 1 0 0 0 1 0 0 0 1 0 0 0 1 0 0 0 1 0
0 0 1 0 0 0 1 0 0 0 1 0 0 0 1 0 0 0 1 0 0 0 1 0 0 0 1 0 0 0 1 0 0 0
1 255 0 255 0 255 255 0 1 0 0 0 1 0 0 0 1 0 0 0 1 0 0 0 1 0 0 0 1 0
0 0 1 0 0 0 1 0 0 0 1 0 0 0 1 0 0 0 1 0 0 0 1 0 0 0 1 0 0 0 1 0 0 0
1 255 0 255 0 255 255 0 1 0 0 0 1 0 0 0 1 0 0 0 1 0 0 0 1 0 0 0 1 0
0 0 1 0 0 0 1 0 0 0 1 0 0 0 1 0 0 0 1 0 0 0 1 0 0 0 1 0 0 0 1 0 0 0
1 255 0 255 0 255 255 0 1 0 0 0 1 0 0 0 1 0 0 0 1 0 0 0 1 0 0 0 1 0
0 0 1 0 0 0 1 0 0 0 1 0 0 0 1 0 0 0 1 0 0 0 1 0 0 0 1 0 0 0 1 0 0 0
1 255 255 255 0 255 0 0 1 0 0 0 1 0 0 0 1 0 0 0 1 0 0 0 1 0 0 0 1 0
0 0 1 0 0 0 1 0 0 0 1 0 0 0 1 0 0 0 1 0 0 0 1 0 0 0 1 0 0 0 1 0 0 0
1 255 255 255 0 0 0 0 1 0 0 0 1 0 0 0 1 0 0 0 1 0 0 0 1 0 0 0 1 0 0
0 1 0 0 0 1 0 0 0 1 0 0 0 1 0 0 0 1 0 0 0 1 0 0 0 1 0 0 0 1 0 0 0 1
255 255 255 0 0 0 0 1 0 0 0 1 0 0 0 1 0 0 0 1 0 0 0 1 0 0 0 1 0 0 0
1 0 0 0 1 0 0 0 1 0 0 0 1 0 0 0 1 0 0 0 1 0 0 0 1 0 0 0 1 0 0 0 1 255
255 255 0 0 0 0 1 0 0 0 1 0 0 0 1 0 0 0 1 0 0 0 1 0 0 0 1 0 0 0 1 0
0 0 1 0 0 0 1 0 0 0 1 0 0 0 1 0 0 0 1 0 0 0 1 0 0 0 1 0 0 0 1 255 255
255 0 0 0 0 1 0 0 0 1 0 0 0 1 0 0 0 1 0 0 0 1 0 0 0 1 0 0 0 1 0 0 0
1 0 0 0 1 0 0 0 1 0 0 0 1 0 0 0 1 0 0 0 1 0 0 0 1 0 0 0 1 255 255 0
1 0 0 0 1 0 0 0 1 0 0 0 1 0 0 0 1 0 0 0 1 0 0 0 1 0 0 0 1 0 0 0 1 0
0 0 1 0 0 0 1 0 0 0 1 0 0 0 1 0 0 0 1 0 0 0 1 0 0 0 1 255 255 0 1 0
0 0 1 0 0 0 1 0 0 0 1 0 0 0 1 0 0 0 1 0 0 0 1 0 0 0 1 0 0 0 1 0 0 0
1 0 0 0 1 0 0 0 1 0 0 0 1 0 0 0 1 0 0 0 1 0 0 0 1 0 255 0 1 0 0 0 1
0 0 0 1 0 0 0 1 0 0 0 1 0 0 0 1 0 0 0 1 0 0 0 1 0 0 0 1 0 0 0 1 0 0
0 1 0 0 0 1 0 0 0 1 0 0 0 1 0 0 0 1 0 0 0 1 0 255 0 1 0 0 0 1 0 0 0
1 0 0 0 1 0 0 0 1 0 0 0 1 0 0 0 1 0 0 0 1 0 0 0 1 0 0 0 1 0 0 0 1 0
0 0 1 0 0 0 1 0 0 0 1 0 0 0 1 0 0 0 1 0 0 0 1 0 0 0 1 0 0 0 1 0 0 0
1 0 0 0 1 0 0 0 1 0 0 0 1 0 0 0 1 0 0 0 1 0 0 0 1 0 0 0 1 0 0 0 1 0
0 0 1 0 0 0 1 0 0 0 1 0 0 0 1 0 0 0 1 0 0 255 0 0 0 0 1 0 0 0 1 0 0
0 1 0 0 0 1 0 0 0 1 0 0 0 1 0 0 0 1 0 0 0 1 0 0 0 1 0 0 0 1 0 0 0 1
0 0 0 1 0 0 0 1 0 0 0 1 0 0 0 1 255 0 255 0 0 0 0 1 0 0 0 1 0 0 0 1
0 0 0 1 0 0 0 1 0 0 0 1 0 0 0 1 0 0 0 1 0 0 0 1 0 0 0 1 0 0 0 1 0 0
0 1 0 0 0 1 0 0 0 1 0 0 0 1 255 255 255 0 0 0 0 1 0 0 0 1 0 0 0 1 0
0 0 1 0 0 0 1 0 0 0 1 0 0 0 1 0 0 0 1 0 0 0 1 0 0 0 1 0 0 0 1 0 0 0
1 0 0 0 1 0 0 0 1 0 0 0 1 255 255 0 1 0 0 0 1 0 0 0 1 0 0 0 1 0 0 0
1 0 0 0 1 0 0 0 1 0 0 0 1 0 0 0 1 0 0 0 1 0 0 0 1 0 0 0 1 0 0 0 1 0
0 0 1 0 0 0 1 0 0 0 1 0 255 0 1 0 0 0 1 0 0 0 1 0 0 0 1 0 0 0 1 0 0
0 1 0 0 0 1 0 0 0 1 0 0 0 1 0 0 0 1 0 0 0 1 0 0 0 1 0 0 0 1 0 0 0 1
0 0 0 1 0 0 0 1 0 0 0 1 0 0 0 1 0 0 0 1 0 0 0 1 0 0 0 1 0 0 0 1 0 0
0 1 0 0 0 1 0 0 0 1 0 0 0 1 0 0 0 1 0 0 0 1 0 0 0 1 0 0 0 1 0 0 0 1
0 0 255 0 0 0 0 1 0 0 0 1 0 0 0 1 0 0 0 1 0 0 0 1 0 0 0 1 0 0 0 1 0
0 0 1 0 0 0 1 0 0 0 1 0 0 0 1 0 0 0 1 0 0 0 1 0 0 0 1 0 0 0 1 255 0
255 0 0 0 0 1 0 0 0 1 0 0 0 1 0 0 0 1 0 0 0 1 0 0 0 1 0 0 0 1 0 0 0
1 0 0 0 1 0 0 0 1 0 0 0 1 0 0 0 1 0 0 0 1 0 0 0 1 0 0 0 1 255 255 255
0 0 0 0 1 0 0 0 1 0 0 0 1 0 0 0 1 0 0 0 1 0 0 0 1 0 0 0 1 0 0 0 1 0
0 0 1 0 0 0 1 0 0 0 1 0 0 0 1 0 0 0 1 0 0 0 1 0 0 0 1 255 255 255 0
0 0 0 1 0 0 0 1 0 0 0 1 0 0 0 1 0 0 0 1 0 0 0 1 0 0 0 1 0 0 0 1 0 0
0 1 0 0 0 1 0 0 0 1 0 0 0 1 0 0 0 1 0 0 0 1 0 0 0 1 255 255 255 0 0
255 0 1 0 0 0 1 0 0 0 1 0 0 0 1 0 0 0 1 0 0 0 1 0 0 0 1 0 0 0 1 0 0
0 1 0 0 0 1 0 0 0 1 0 0 0 1 0 0 0 1 0 0 0 1 0 0 0 1 255 255 255 0 0
0 0 1 0 0 0 1 0 0 0 1 0 0 0 1 0 0 0 1 0 0 0 1 0 0 0 1 0 0 0 1 0 0 0
1 0 0 0 1 0 0 0 1 0 0 0 1 0 0 0 1 0 0 0 1 0 0 0 1 255 255 255 0 0 0
255 0 0 0 0 1 0 0 0 1 0 0 0 1 0 0 0 1 0 0 0 1 0 0 0 1 0 0 0 1 0 0 0
1 0 0 0 1 0 0 0 1 0 0 0 1 0 0 0 1 0 0 0 1 0 0 0 1 255 255 255 0 0 0
255 0 0 0 0 1 0 0 0 1 0 0 0 1 0 0 0 1 0 0 0 1 0 0 0 1 0 0 0 1 0 0 0
1 0 0 0 1 0 0 0 1 0 0 0 1 0 0 0 1 0 0 0 1 0 0 0 1 255 255 255 0 0 0
0 1 0 0 0 1 0 0 0 1 0 0 0 1 0 0 0 1 0 0 0 1 0 0 0 1 0 0 0 1 0 0 0 1
0 0 0 1 0 0 0 1 0 0 0 1 0 0 0 1 0 0 0 1 0 0 0 1 255 255 255 0 0 0 255
0 0 0 0 1 0 0 0 1 0 0 0 1 0 0 0 1 0 0 0 1 0 0 0 1 0 0 0 1 0 0 0 1 0
0 0 1 0 0 0 1 0 0 0 1 0 0 0 1 0 0 0 1 0 0 0 1 255 255 255 0 0 0 255
0 0 0 0 1 0 0 0 1 0 0 0 1 0 0 0 1 0 0 0 1 0 0 0 1 0 0 0 1 0 0 0 1 0
0 0 1 0 0 0 1 0 0 0 1 0 0 0 1 0 0 0 1 0 0 0 1 255 255 255 0 255 0 255
0 0 0 0 1 0 0 0 1 0 0 0 1 0 0 0 1 0 0 0 1 0 0 0 1 0 0 0 1 0 0 0 1 0
0 0 1 0 0 0 1 0 0 0 1 0 0 0 1 0 0 0 1 0 0 0 1 255 255 255 0 0 0 255
0 0 0 0 1 0 0 0 1 0 0 0 1 0 0 0 1 0 0 0 1 0 0 0 1 0 0 0 1 0 0 0 1 0
0 0 1 0 0 0 1 0 0 0 1 0 0 0 1 0 0 0 1 0 0 0 1 255 255 255 0 0 0 0 1
0 0 0 1 0 0 0 1 0 0 0 1 0 0 0 1 0 0 0 1 0 0 0 1 0 0 0 1 0 0 0 1 0 0
0 1 0 0 0 1 0 0 0 1 0 0 0 1 0 0 0 1 0 0 0 1 255 255 255 0 0 0 0 1 0
0 0 1 0 0 0 1 0 0 0 1 0 0 0 1 0 0 0 1 255 0 0 1 0 0 0 1 0 0 0 1 0 0
0 1 0 0 0 1 0 0 0 1 0 0 0 1 0 0 0 1 0 0 0 1 255 255 255 0 0 0 0 1 0
0 0 1 0 0 0 1 0 0 0 1 0 0 0 1 0 0 0 1 255 255 0 1 0 0 0 1 0 0 0 1 0
0 0 1 0 0 0 1 0 0 0 1 0 0 0 1 0 0 0 1 0 0 0 1 255 255 255 0 0 0 0 1
0 0 0 1 0 0 0 1 0 0 0 1 0 0 0 1 0 0 0 1 255 255 255 0 0 0 0 1 0 0 0
1 0 0 0 1 0 0 0 1 0 0 0 1 0 0 0 1 0 0 0 1 0 0 0 1 255 255 255 0 0 0
0 1 0 0 0 1 0 0 0 1 0 0 0 1 0 0 0 1 0 0 0 1 255 255 255 0 255 0 255
0 0 0 0 1 0 0 0 1 0 0 0 1 0 0 0 1 0 0 0 1 0 0 0 1 0 0 0 1 255 255 255
0 0 0 0 1 0 0 0 1 0 0 0 1 0 0 0 1 0 0 0 1 0 0 0 1 255 255 255 0 255
0 255 0 0 0 0 1 0 0 0 1 0 0 0 1 0 0 0 1 0 0 0 1 0 0 0 1 0 0 0 1 255
255 255 0 0 0 0 1 0 0 0 1 0 0 0 1 0 0 0 1 0 0 0 1 0 0 0 1 255 255 255
0 255 255 255 0 0 0 0 1 0 0 0 1 0 0 0 1 0 0 0 1 0 0 0 1 0 0 0 1 0 0
0 1 255 255 255 0 0 0 0 1 0 0 0 1 0 0 0 1 0 0 0 1 0 0 0 1 0 0 0 1 255
255 255 0 255 255 255 0 0 0 0 1 0 0 0 1 0 0 0 1 0 0 0 1 0 0 0 1 0 0
0 1 0 0 0 1 255 255 255 0 0 0 0 1 0 0 0 1 0 0 0 1 0 0 0 1 0 0 0 1 0
255 0 1 255 255 255 0 255 255 255 0 0 0 0 1 0 0 0 1 0 0 0 1 0 0 0 1
0 0 0 1 0 0 0 1 0 0 0 1 255 255 255 0 0 0 0 1 0 0 0 1 0 0 0 1 0 0 0
1 0 0 0 1 0 255 255 0 255 255 255 0 255 255 255 0 0 0 0 1 0 0 0 1 0
0 0 1 0 0 0 1 0 0 0 1 0 0 0 1 0 0 0 1 255 255 255 0 0 0 0 1 0 0 0 1
0 0 0 1 0 0 0 1 0 0 0 1 255 255 255 0 255 255 255 0 255 255 255 0 0
0 0 1 0 0 0 1 0 0 0 1 0 0 0 1 0 0 0 1 0 0 0 1 0 0 0 1 255 255 255 0
0 0 0 1 0 0 0 1 0 0 0 1 0 0 0 1 0 0 0 1 255 255 255 0 255 255 255 0
255 255 255 0 0 0 0 1 0 0 0 1 0 0 0 1 0 0 0 1 0 0 0 1 0 0 0 1 0 0 0
1 255 255 255 0 0 0 0 1 0 0 0 1 0 0 0 1 0 0 0 1 0 0 0 1 255 255 255
0 255 255 255 0 255 0 255 0 0 0 0 1 0 0 0 1 0 0 0 1 0 0 0 1 0 0 0 1
0 0 0 1 0 0 0 1 255 255 255 0 0 0 0 1 0 0 0 1 0 0 0 1 0 0 0 1 0 0 0
1 255 255 255 0 255 255 255 0 255 255 255 0 0 0 0 1 0 0 0 1 0 0 0 1
0 0 0 1 0 0 0 1 0 0 0 1 0 0 0 1 255 255 255 0 0 0 0 1 0 0 0 1 0 0 0
1 0 0 0 1 0 0 0 1 255 255 255 0 255 255 255 0 255 255 255 0 0 0 0 1
0 0 0 1 0 0 0 1 0 0 0 1 0 0 0 1 0 0 0 1 0 0 0 1 255 255 255 0 0 0 0
1 0 0 0 1 0 0 0 1 0 0 0 1 0 0 0 1 255 255 255 0 255 255 255 0 255 0
255 0 0 0 0 1 0 0 0 1 0 0 0 1 0 0 0 1 0 0 0 1 0 0 0 1 0 0 0 1 255 255
255 0 0 0 0 1 0 0 0 1 0 0 0 1 0 0 0 1 0 0 0 1 255 255 255 0 255 255
255 0 255 255 255 0 0 0 0 1 0 0 0 1 0 0 0 1 0 0 0 1 0 0 0 1 0 0 0 1
0 0 0 1 255 255 255 0 0 0 0 1 0 0 0 1 0 0 0 1 0 0 0 1 0 0 0 1 255 255
255 0 255 255 255 0 255 0 255 0 0 0 0 1 0 0 0 1 0 0 0 1 0 0 0 1 0 0
0 1 0 0 0 1 0 0 0 1 255 255 255 0 0 0 0 1 0 0 0 1 0 0 0 1 0 0 0 1 0
0 0 1 255 255 255 0 255 255 255 0 255 0 255 0 0 0 0 1 0 0 0 1 0 0 0
1 0 0 0 1 0 0 0 1 0 0 0 1 0 0 0 1 255 255 255 0 0 0 0 1 0 0 0 1 0 0
0 1 0 0 0 1 0 0 0 1 255 255 255 0 255 255 255 0 255 0 0 1 0 0 0 1 0
0 0 1 0 0 0 1 0 0 0 1 0 0 0 1 0 0 0 1 0 0 0 1 255 255 255 0 0 0 0 1
0 0 0 1 0 0 0 1 0 0 0 1 0 0 0 1 255 255 255 0 255 255 255 0 255 0 6
7 0 0 0 1 0 0 0 1 0 0 0 1 0 0 0 1 0 0 0 1 0 0 0 1 0 0 0 1 255 255 255
0 0 0 0 1 0 0 0 1 0 0 0 1 0 0 0 1 0 0 0 1 255 255 255 0 255 255 255
0 255 255 255 0 0 0 0 1 0 0 0 1 0 0 0 1 0 0 0 1 0 0 0 1 0 0 0 1 0 0
0 1 0 0 0 1 0 0 0 1 0 0 0 1 0 0 0 1 0 0 0 1 0 0 0 1 0 0 0 1 0 0 0 1
0 0 0 1 0 0 0 1 0 0 0 1 0 0 0 1 0 0 0 1 0 0 0 1 0 0 0 1 0 0 0 1 0 0
0 1 0 0 0 1 0 0 0 1 0 0 0 1 0 0 0 1 0 0 0 1 0 0 0 1 0 0 0 1 0 0 0 1
0 0 0 1 0 0 0 1 0 0 0 1 0 0 0 1 0 0 0 1 0 0 0 1 0 0 0 1 0 0 255 0 0
0 0 1 0 0 0 1 0 0 0 1 0 0 0 1 0 0 0 1 0 0 0 1 0 0 0 1 0 0 0 1 0 0 0
1 0 0 0 1 0 0 0 1 0 0 0 1 0 0 0 1 0 0 0 1 0 0 0 1 0 0 255 0 0 0 0 1
0 0 0 1 0 0 0 1 0 0 0 1 0 0 0 1 0 0 0 1 0 0 0 1 0 0 0 1 0 0 0 1 0 0
0 1 0 0 0 1 0 0 0 1 0 0 0 1 0 0 0 1 0 0 0 1 0 0 255 0 0 0 0 1 0 0 0
1 0 0 0 1 0 0 0 1 0 0 0 1 0 0 0 1 0 0 0 1 0 0 0 1 0 0 0 1 0 0 0 1 0
0 0 1 0 0 0 1 0 0 0 1 0 0 0 1 0 0 0 1 255 0 255 0 0 0 0 1 0 0 0 1 0
0 0 1 0 0 0 1 0 0 0 1 0 0 0 1 0 0 0 1 0 0 0 1 0 0 0 1 0 0 0 1 0 0 0
1 0 0 0 1 0 0 0 1 0 0 0 1 0 0 0 1 255 255 255 0 0 0 0 1 0 0 0 1 0 0
0 1 0 0 0 1 0 0 0 1 0 0 0 1 0 0 0 1 0 0 0 1 0 0 0 1 0 0 0 1 0 0 0 1
0 0 0 1 0 0 0 1 0 0 0 1 0 0 0 1 255 255 255 0 0 255 0 1 0 0 0 1 0 0
0 1 0 0 0 1 0 0 0 1 0 0 0 1 0 0 0 1 0 0 0 1 0 0 0 1 0 0 0 1 0 0 0 1
0 0 0 1 0 0 0 1 0 0 0 1 0 0 0 1 255 255 255 0 0 0 0 1 0 0 0 1 0 0 0
1 0 0 0 1 0 0 0 1 0 0 0 1 0 0 0 1 0 0 0 1 0 0 0 1 0 0 0 1 0 0 0 1 0
0 0 1 0 0 0 1 0 0 0 1 0 0 0 1 255 255 255 0 0 0 0 1 0 0 0 1 0 0 0 1
0 0 0 1 0 0 0 1 0 0 0 1 0 0 0 1 0 0 0 1 0 255 0 1 0 0 0 1 0 0 0 1 0
0 0 1 0 0 0 1 0 0 0 1 0 0 0 1 255 255 255 0 0 0 0 1 0 0 0 1 0 0 0 1
0 0 0 1 0 0 0 1 0 0 0 1 0 0 0 1 0 0 0 1 0 255 0 1 0 0 0 1 0 0 0 1 0
0 0 1 0 0 0 1 0 0 0 1 0 0 0 1 255 255 255 0 0 0 0 1 0 0 0 1 0 0 0 1
0 0 0 1 0 0 0 1 0 0 0 1 0 0 0 1 0 0 0 1 0 255 255 0 0 0 0 1 0 0 0 1
0 0 0 1 0 0 0 1 0 0 0 1 0 0 0 1 255 255 255 0 0 0 0 1 0 0 0 1 0 0 0
1 0 0 0 1 0 0 0 1 0 0 0 1 0 0 0 1 0 0 0 1 255 255 255 0 0 0 0 1 0 0
0 1 0 0 0 1 0 0 0 1 0 0 0 1 0 0 0 1 255 255 255 0 0 0 0 1 0 0 0 1 0
0 0 1 0 0 0 1 0 0 0 1 0 0 0 1 0 0 255 0 255 255 255 0 255 255 255 0
255 255 255 0 251 0 0 1 0 0 0 1 0 0 0 1 0 0 0 1 0 0 0 1 255 255 255
0 0 0 0 1 0 0 0 1 0 0 0 1 0 0 0 1 0 0 0 1 0 0 0 1 0 0 255 0 255 255
255 0 255 255 255 0 255 255 255 0 251 0 0 1 0 0 0 1 0 0 0 1 0 0 0 1
0 0 0 1 255 255 255 0 255 255 255 0 255 255 255 0 255 255 255 0 255
255 255 0 255 255 255 0 255 255 255 0 255 255 255 0 255 255 255 0 255
255 255 0 255 255 255 0 255 255 255 0 255 255 255 0 255 255 255 0 255
255 255 0 255 255 255 0 255 255 255 0 255 255 255 0 255 255 255 0 255
255 255 0 255 255 255 0 255 255 255 0 255 255 255 0 255 255 255 0 255
255 255 0 255 255 255 0 255 255 255 0 255 255 255 0 255 255 255 0 255
255 255 0 255 255 255 0 255 255 255 0 255 255 255 0 255 255 255 0 255
255 255 0 255 255 255 0 255 255 255 0 255 255 255 0 255 255 255 0 255
255 255 0 255 255 255 0 255 255 255 0 255 255 255 0 255 255 255 0 255
255 255 0 255 255 255 0 255 255 255 0 255 255 255 0 255 255 255 0 255
255 255 0 255 255 255 0 255 255 255 0 255 255 255 0 255 255 255 0 255
255 255 0 255 255 255 0 255 255 255 0 255 255 255 0 255 255 255 0 255
255 255 0 255 255 255 0 255 255 255 0 255 255 255 0 255 255 255 0 0
0 0 1 0 0 0 1 0 0 0 1 0 0 0 1 0 0 0 1 0 0 0 1 0 0 0 1 0 0 0 1 0 0 0
1 0 0 0 1 0 0 0 1 0 0 0 1 0 0 0 1 0 0 0 1 0 0 0 1 0 0 0 1 0 0 0 1 0
0 0 1 0 0 0 1 0 0 0 1 0 0 0 1 0 0 0 1 0 0 0 1 255 0 0 1 0 0 0 1 0 0
0 1 0 0 0 1 0 0 0 1 0 0 0 1 0 0 0 1 0 0 0 1 0 0 0 1 0 0 0 1 0 0 0 1
0 0 0 1 0 0 0 1 0 0 0 1 0 0 0 1 0 0 0 1 0 0 0 1 0 0 0 1 0 0 0 1 0 0
0 1 0 0 0 1 0 0 0 1 0 0 0 1 0 0 0 1 0 0 0 1 0 0 0 1 0 0 0 1 0 0 0 1
0 0 0 1 0 0 0 1 0 0 0 1 0 0 0 1 0 255 0 1 0 0 0 1 0 0 0 1 0 0 0 1 0
0 0 1 0 0 0 1 0 0 0 1 0 0 0 1 0 0 0 1 0 0 0 1 0 0 0 1 0 0 0 1 0 0 0
1 0 0 0 1 0 0 0 1 0 0 0 1 0 0 0 1 0 0 0 1 0 0 0 1 0 0 0 1 0 0 0 1 0
0 0 1 0 0 0 1 0 0 0 1 0 0 0 1 0 0 0 1 0 0 0 1 0 0 0 1 0 0 0 1 0 0 0
1 0 0 0 1 0 0 0 1 0 0 0 1 0 0 0 1 0 0 0 1 0 0 0 1 0 0 0 1 0 0 0 1 0
0 0 1 0 0 0 1 0 0 0 1 0 0 0 1 0 0 0 1 0 0 0 1 0 0 0 1 0 0 0 1 0 0 0
1 0 0 0 1 0 0 255 0 0 0 0 1 0 0 0 1 0 0 0 1 0 0 0 1 0 0 0 1 0 0 0 1
0 0 0 1 0 0 0 1 0 0 0 1 0 0 0 1 0 0 0 1 0 0 0 1 0 0 0 1 0 0 0 1 0 0
0 1 0 0 0 1 0 0 0 1 0 0 0 1 0 0 0 1 0 0 0 1 0 0 0 1 0 0 0 1 0 0 0 1
0 0 0 1 0 0 0 1 0 0 0 1 0 0 0 1 0 0 0 1 0 0 0 1 0 0 0 1 0 0 0 1 0 0
0 1 0 0 255 0 0 0 0 1 0 0 0 1 0 0 0 1 0 0 0 1 0 0 0 1 0 0 0 1 0 0 0
1 0 0 0 1 0 0 0 1 0 0 0 1 0 0 0 1 0 0 0 1 0 0 0 1 0 0 0 1 0 0 0 1 0
0 255 0 0 0 0 1 0 0 0 1 0 0 0 1 0 0 0 1 0 0 0 1 0 0 0 1 0 0 0 1 0 0
0 1 0 0 0 1 0 0 0 1 0 0 0 1 0 0 0 1 0 0 0 1 0 0 0 1 0 0 0 1 0 0 0 1
0 0 0 1 0 0 0 1 0 0 0 1 0 0 0 1 0 0 0 1 0 0 0 1 0 0 0 1 0 0 0 1 0 0
0 1 0 0 0 1 0 0 0 1 0 0 0 1 0 0 0 1 0 0 0 1 0 0 0 1 0 255 0 1 0 0 0
1 0 0 0 1 0 0 0 1 0 0 0 1 0 0 0 1 0 0 0 1 0 0 0 1 0 0 0 1 0 0 0 1 0
0 0 1 0 0 0 1 0 0 0 1 0 0 0 1 0 0 0 1 0 0 0 1 0 0 0 1 0 0 0 1 0 0 0
1 0 0 0 1 0 0 0 1 0 0 0 1 0 0 0 1 0 0 0 1 0 0 0 1 0 0 0 1 0 0 0 1 0
0 0 1 0 0 0 1 0 0 0 1 0 0 0 1 0 0 0 1 255 0 0 1 0 0 0 1 0 0 0 1 0 0
0 1 0 0 0 1 0 0 0 1 0 0 0 1 0 0 0 1 0 0 0 1 0 0 0 1 0 0 0 1 0 0 0 1
0 0 0 1 0 0 0 1 0 0 0 1 0 0 0 1 0 0 0 1 0 0 0 1 0 0 0 1 0 0 0 1 0 0
0 1 0 0 0 1 0 0 0 1 0 0 0 1 0 0 0 1 0 0 0 1 0 0 0 1 0 0 0 1 0 0 0 1
0 0 0 1 0 0 0 1 0 0 0 1 255 0 0 1 0 0 0 1 0 0 0 1 0 0 0 1 0 0 0 1 0
0 0 1 0 0 0 1 0 0 0 1 0 0 0 1 0 0 0 1 0 0 0 1 0 0 0 1 0 0 0 1 0 0 0
1 0 0 0 1 0 0 0 1 255 255 0 1 0 0 0 1 0 0 0 1 0 0 0 1 0 0 0 1 0 0 0
1 0 0 0 1 0 0 0 1 0 0 0 1 0 0 0 1 0 0 0 1 0 0 0 1 0 0 0 1 0 0 0 1 0
0 0 1 0 0 0 1 255 255 255 0 0 0 0 1 0 0 0 1 0 0 0 1 0 0 0 1 0 0 0 1
0 0 0 1 0 0 0 1 255 255 255 0 255 255 255 0 255 255 255 0 255 255 255
0 255 255 255 0 255 255 255 0 255 255 255 0 255 255 254 255 253 253
253 254 253 253 253 254 253 253 253 254 253 253 253 254 253 253 253
254 253 253 253 254 253 253 254 255 254 255 255 0 0 0 0 1 0 0 0 1 0
0 0 1 0 0 0 1 0 0 0 1 0 0 0 1 0 0 0 1 0 0 0 1 0 0 253 254 253 253 253
254 253 253 253 254 253 253 253 254 253 253 253 254 253 253 253 254
253 253 254 255 254 255 255 0 0 0 0 1 0 0 0 1 0 0 0 1 0 0 0 1 0 0 0
1 0 0 0 1 0 0 0 1 0 0 0 1 0 0 253 254 253 253 253 254 253 253 253 254
253 253 0 1 0 0 0 1 0 0 0 1 0 0 0 1 0 0 0 1 0 0 0 1 0 0 0 1 0 0 0 1
0 0 0 1 0 0 0 1 0 0 0 1 0 0 0 1 0 0 0 1 0 0 253 254 253 253 0 1 253
253 253 254 45 0 0 1 0 0 0 1 0 0 0 1 0 0 0 1 0 0 0 1 0 0 0 1 0 0 0
1 0 0 0 1 0 0 0 1 0 0 0 1 0 0 0 1 0 0 0 1 0 0 0 1 0 0 253 254 0 253
0 1 253 253 253 254 45 0 0 1 0 0 0 1 0 0 0 1 0 0 0 1 0 0 0 1 0 0 0
1 0 0 0 1 0 0 0 1 0 0 0 1 0 0 0 1 0 0 0 1 0 0 0 1 0 0 0 1 0 0 253 254
0 0 0 1 253 253 253 254 45 0 0 1 0 0 0 1 0 0 0 1 0 0 0 1 0 0 0 1 0
0 0 1 0 0 0 1 0 0 0 1 0 0 0 1 0 0 0 1 0 0 0 1 0 0 0 1 0 0 0 1 0 0 0
1 0 0 0 1 0 0 0 1 0 0 0 1 0 0 0 1 0 0 0 1 0 0 0 1 0 0 0 1 0 0 0 1 0
0 0 1 0 0 0 1 0 0 0 1 0 0 0 1 0 0 0 1 0 0 0 1 0 0 0 1 0 0 0 1 0 0 255
0 0 0 0 1 0 0 0 1 0 0 0 1 0 0 0 1 0 0 0 1 0 0 0 1 0 0 0 1 0 0 0 1 0
0 0 1 0 0 0 1 0 0 0 1 0 0 0 1 0 0 0 1 0 0 0 1 0 0 0 1 0 255 255 0 0
0 0 1 0 0 0 1 0 0 0 1 0 0 0 1 0 0 0 1 0 0 0 1 0 0 0 1 0 0 0 1 0 0 0
1 0 0 0 1 0 0 0 1 0 0 0 1 0 0 0 1 0 0 0 1 0 0 0 1 255 255 255 0 0 0
0 1 0 0 0 1 0 0 0 1 0 0 0 1 0 0 0 1 0 0 0 1 0 0 0 1 0 0 0 1 0 0 0 1
0 0 0 1 0 0 0 1 0 0 0 1 0 0 0 1 0 0 0 1 0 0 0 1 255 255 255 0 0 0 0
1 0 0 0 1 0 0 0 1 0 0 0 1 0 0 0 1 0 0 0 1 0 0 0 1 0 0 0 1 0 0 0 1 0
0 0 1 0 0 0 1 0 0 0 1 0 0 0 1 0 0 0 1 0 0 0 1 255 255 255 0 0 255 0
1 0 0 0 1 0 0 0 1 0 0 0 1 0 0 0 1 0 0 0 1 0 0 0 1 0 0 0 1 0 0 0 1 0
0 0 1 0 0 0 1 0 0 0 1 0 0 0 1 0 0 0 1 0 0 0 1 255 255 255 0 0 0 0 1
0 0 0 1 0 0 0 1 0 0 0 1 0 0 0 1 0 0 0 1 0 0 0 1 0 0 0 1 0 0 0 1 0 0
0 1 0 0 0 1 0 0 0 1 0 0 0 1 0 0 0 1 0 0 0 1 255 255 255 0 255 0 0 1
0 0 0 1 0 0 0 1 0 0 0 1 0 0 0 1 0 0 0 1 0 0 0 1 0 0 0 1 0 0 0 1 0 0
0 1 0 0 0 1 0 0 0 1 0 0 0 1 0 0 0 1 0 0 0 1 255 255 255 0 0 0 0 1 0
0 0 1 0 0 0 1 0 0 0 1 0 0 0 1 0 0 0 1 0 0 0 1 0 0 0 1 0 0 0 1 0 0 0
1 0 0 0 1 0 0 0 1 0 0 0 1 0 0 0 1 0 0 0 1 0 0 0 1 0 0 255 0 0 0 0 1
0 0 0 1 0 0 0 1 0 0 0 1 0 0 0 1 0 0 0 1 0 0 0 1 0 0 0 1 0 0 0 1 0 0
0 1 0 0 0 1 0 0 0 1 0 0 0 1 0 0 0 1 0 0 0 1 0 0 255 0 0 0 0 1 0 0 0
1 0 0 0 1 0 0 0 1 0 0 0 1 0 0 0 1 0 0 0 1 0 0 0 1 0 0 0 1 0 0 0 1 0
0 0 1 0 0 0 1 0 0 0 1 0 0 0 1 0 0 0 1 0 0 0 1 0 0 0 1 0 0 0 1 0 0 0
1 0 0 0 1 0 0 0 1 0 0 0 1 0 0 0 1 0 0 0 1 0 0 0 1 0 0 0 1 0 0 0 1 0
0 0 1 0 0 0 1 0 0 0 1 0 0 0 1 0 0 0 1 0 0 0 1 0 0 0 1 0 0 0 1 0 0 0
1 0 0 0 1 0 0 0 1 0 0 0 1 0 0 0 1 0 0 0 1 0 0 0 1 0 0 0 1 0 0 0 1 0
0 0 1 0 0 0 1 0 0 0 1 0 0 0 1 0 0 0 1 0 0 0 1 0 0 0 1 0 0 0 1 0 0 0
1 199 168 163 164 159 156 148 149 145 141 138 139 134 130 126 127 123
119 115 116 111 107 103 104 99 95 90 91 86 80 74 75 68 61 53 54 45
38 31 32 23 9 0 1 0 0 0 1 0 0 0 1 0 0 0 1 0 0 0 1 0 0 0 1 255 255 255
0 255 156 148 149 145 141 138 139 134 130 126 127 123 119 115 116 111
107 103 104 99 95 90 91 86 80 74 75 68 61 53 54 45 38 31 32 23 9 0
1 0 0 0 1 0 0 0 1 0 0 0 1 0 0 0 1 0 0 0 1 255 255 255 0 255 0 0 1 0
0 0 1 0 130 126 127 123 119 115 116 111 107 103 104 99 95 90 91 86
80 74 75 68 61 53 54 45 38 31 32 23 9 0 1 0 0 0 1 0 0 0 1 0 0 0 1 0
0 0 1 0 0 0 1 0 0 0 1 0 0 0 1 0 0 0 1 0 0 0 1 0 0 0 1 0 0 0 1 0 0 0
1 0 0 0 1 0 0 0 1 0 0 0 1 0 0 0 1 0 0 0 1 0 0 0 1 0 0 0 1 0 0 0 1 0
0 0 1 0 0 0 1 0 0 0 1 0 0 0 1 0 0 0 1 0 0 0 1 0 0 0 1 0 0 0 1 0 0 0
1 0 0 0 1 0 0 0 1 0 0 0 1 255 0 0 1 0 0 0 1 0 0 0 1 0 0 0 1 0 0 0 1
0 0 0 1 0 0 0 1 0 0 0 1 0 0 0 1 0 0 0 1 0 0 0 1 0 0 0 1 0 0 0 1 0 0
0 1 0 0 0 1 0 0 0 1 255 0 0 1 0 0 0 1 0 0 0 1 0 0 0 1 0 0 0 1 0 0 0
1 0 0 0 1 0 0 0 1 0 0 0 1 0 0 0 1 0 0 0 1 0 0 0 1 0 0 0 1 0 0 0 1 0
0 0 1 0 0 0 1 255 0 0 1 0 0 0 1 0 0 0 1 0 0 0 1 0 0 0 1 0 0 0 1 0 0
0 1 0 0 0 1 0 0 0 1 0 0 0 1 0 0 0 1 0 0 0 1 0 0 0 1 0 0 0 1 0 0 0 1
0 0 0 1 255 0 0 1 0 0 0 1 0 0 0 1 0 0 0 1 0 0 0 1 0 0 0 1 0 0 0 1 0
0 0 1 0 0 0 1 0 0 0 1 0 0 0 1 0 0 0 1 0 0 0 1 0 0 0 1 0 0 0 1 0 0 0
1 255 0 0 1 0 0 0 1 0 0 0 1 0 0 0 1 0 0 0 1 0 0 0 1 0 0 0 1 0 0 0 1
0 0 0 1 0 0 0 1 0 0 0 1 0 0 0 1 0 0 0 1 0 0 0 1 0 0 0 1 0 0 0 1 0 0
0 1 0 0 0 1 0 0 0 1 0 0 0 1 0 0 0 1 0 0 0 1 0 0 0 1 0 0 0 1 0 0 0 1
0 0 0 1 0 0 0 1 0 0 0 1 0 0 0 1 0 0 0 1 0 0 0 1 0 0 0 1 0 255 0 1 0
0 0 1 0 0 0 1 0 0 0 1 0 0 0 1 0 0 0 1 0 0 0 1 0 0 0 1 0 0 0 1 0 0 0
1 0 0 0 1 0 0 0 1 0 0 0 1 0 0 0 1 0 0 0 1 0 0 0 1 0 255 0 1 0 0 0 1
0 0 0 1 0 0 0 1 0 0 0 1 0 0 0 1 0 0 0 1 0 0 0 1 0 0 0 1 0 0 0 1 0 0
0 1 0 0 0 1 0 0 0 1 0 0 0 1 0 0 0 1 0 0 0 1 0 255 0 1 0 0 0 1 0 0 0
1 0 0 0 1 0 0 0 1 0 0 0 1 0 0 0 1 0 0 0 1 0 0 245 246 245 245 247 248
251 252 253 254 255 255 255 0 255 255 255 0 255 255 255 0 255 255 255
0 255 255 255 0 255 255 255 0 255 255 255 0 255 255 255 0 255 255 255
0 255 255 255 0 0 0 0 1 0 0 0 1 0 0 0 1 0 0 245 246 245 245 247 248
251 252 253 254 255 255 255 0 255 255 255 0 255 255 255 0 255 255 255
0 255 255 255 0 255 255 255 0 255 255 255 0 255 255 255 0 255 255 255
0 255 255 255 0 0 0 0 1 0 0 0 1 0 0 0 1 0 0 245 246 245 245 247 248
251 252 253 254 255 255 255 0 255 255 255 0 255 255 255 0 255 255 255
0 255 255 255 0 255 255 255 0 255 255 255 0 255 255 255 0 255 255 255
0 255 255 255 0 0 0 0 1 0 0 0 1 0 0 0 1 0 0 245 246 245 245 247 248
251 252 253 254 255 255 255 0 255 255 255 0 255 255 255 0 255 255 255
0 255 255 255 0 255 255 255 0 255 255 255 0 255 255 255 0 255 255 255
0 255 255 255 0 0 0 0 1 0 0 0 1 0 0 0 1 0 0 218 219 196 171 110 111
97 70 50 51 41 37 33 34 29 20 10 11 0 0 0 1 0 0 0 1 0 0 0 1 0 0 0 1
0 0 0 1 0 0 0 1 0 0 0 1 0 0 0 1 0 0 0 1 0 0 0 1 0 0 0 1 0 0 218 219
196 171 110 111 97 70 50 51 41 37 33 34 29 20 10 11 0 0 0 1 0 0 0 1
0 0 0 1 0 0 0 1 0 0 0 1 0 0 0 1 0 0 0 1 0 0 0 1 0 0 0 1 0 0 0 1 0 0
0 1 0 0 218 219 196 171 110 111 97 70 50 51 41 37 33 34 29 20 10 11
0 0 0 1 0 0 0 1 0 0 0 1 0 0 0 1 0 0 0 1 0 0 0 1 0 0 0 1 0 0 0 1 0 0
0 1 0 0 0 1 0 0 0 1 0 0 218 219 196 171 110 111 97 70 50 51 41 37 33
34 29 20 10 11 0 0 0 1 0 0 0 1 0 0 0 1 0 0 0 1 0 0 0 1 0 0 0 1 0 0
0 1 0 0 0 1 0 0 0 1 0 0 0 1 0 0 0 1 0 0 218 219 196 171 110 111 97
70 50 51 41 37 74 75 247 249 250 251 254 255 255 0 255 255 255 0 255
255 255 0 255 255 255 0 255 255 255 0 255 255 255 0 0 0 0 1 0 0 0 1
0 0 0 1 0 0 0 1 0 0 0 1 0 0 0 1 0 0 0 1 0 0 0 1 0 0 0 1 0 0 0 1 0 0
0 1 0 0 0 1 0 0 0 1 0 0 0 1 0 0 0 1 0 0 0 1 0 0 0 1 0 0 0 1 0 0 0 1
0 0 0 1 0 0 0 1 0 0 0 1 0 0 0 1 0 0 0 1 0 0 0 1 0 0 0 1 0 0 0 1 0 0
0 1 0 0 0 1 0 0 0 1 0 255 0 1 0 0 0 1 0 0 0 1 0 0 0 1 0 0 0 1 0 0 0
1 0 0 0 1 0 0 0 1 0 0 0 1 0 0 0 1 0 0 0 1 0 0 0 1 0 0 0 1 0 0 0 1 0
0 0 1 0 0 0 1 0 0 255 0 0 0 0 1 0 0 0 1 0 0 0 1 0 0 0 1 0 0 0 1 0 0
0 1 0 0 0 1 0 0 0 1 0 0 0 1 0 0 0 1 0 0 0 1 0 0 0 1 0 0 0 1 0 0 0 1
0 0 0 1 255 0 255 0 0 0 0 1 0 0 0 1 0 0 0 1 0 0 0 1 0 0 0 1 0 0 0 1
0 0 0 1 0 0 0 1 0 0 0 1 0 0 0 1 0 0 0 1 0 0 0 1 0 0 0 1 0 0 0 1 0 0
0 1 255 255 255 0 0 0 0 1 0 0 0 1 0 0 0 1 0 0 0 1 0 0 0 1 0 0 0 1 0
0 0 1 0 0 0 1 0 0 0 1 0 0 0 1 0 0 0 1 0 0 0 1 0 0 0 1 0 0 0 1 0 0 0
1 0 0 0 1 0 0 0 1 0 0 0 1 0 0 0 1 0 0 0 1 0 0 0 1 0 0 0 1 0 0 0 1 0
0 0 1 0 0 0 1 0 0 0 1 0 0 0 1 0 0 0 1 0 0 0 1 0 0 0 1 0 0 0 1 0 255
0 1 0 0 0 1 0 0 0 1 0 0 0 1 0 0 0 1 0 0 0 1 0 0 0 1 0 0 0 1 0 0 0 1
0 0 0 1 0 0 0 1 0 0 0 1 0 0 0 1 0 0 0 1 0 0 0 1 0 0 0 1 0 0 0 1 0 0
0 1 0 0 0 1 0 0 0 1 0 0 0 1 0 0 0 1 0 0 0 1 0 0 0 1 0 0 0 1 0 0 0 1
0 0 0 1 0 0 0 1 0 0 0 1 0 0 0 1 0 0 0 1 0 0 0 1 255 0 0 1 0 0 0 1 0
0 0 1 0 0 0 1 0 0 0 1 0 0 0 1 0 0 0 1 0 0 0 1 0 0 0 1 0 0 0 1 0 0 0
1 0 0 0 1 0 0 0 1 0 0 0 1 0 0 0 1 0 0 0 1 0 0 0 1 0 0 0 1 0 0 0 1 0
0 0 1 0 0 0 1 0 0 0 1 0 0 0 1 0 0 0 1 0 0 0 1 0 0 0 1 0 0 0 1 0 0 0
1 0 0 0 1 0 0 0 1 0 0 0 1 0 0 0 1 0 0 255 0 0 0 0 1 0 0 0 1 0 0 0 1
0 0 0 1 0 0 0 1 0 0 0 1 0 0 0 1 0 0 0 1 0 0 0 1 0 0 0 1 0 0 0 1 0 0
0 1 0 0 0 1 0 0 0 1 0 0 0 1 0 0 0 1 0 0 0 1 0 0 0 1 0 0 0 1 0 0 0 1
0 0 0 1 0 0 0 1 0 0 0 1 0 0 0 1 0 0 0 1 0 0 0 1 0 0 0 1 0 0 0 1 0 0
0 1 0 0 0 1 0 0 0 1 0 0 0 1 0 0 255 0 0 0 0 1 0 0 0 1 0 0 0 1 0 0 0
1 0 0 0 1 0 0 0 1 0 0 0 1 0 0 0 1 0 0 0 1 0 0 0 1 0 0 0 1 0 0 0 1 0
0 0 1 0 0 0 1 0 0 0 1 0 0 255 0 0 0 0 1 0 0 0 1 0 0 0 1 0 0 0 1 0 0
0 1 0 0 0 1 0 0 0 1 0 0 0 1 0 0 0 1 0 0 0 1 0 0 0 1 0 0 0 1 0 0 0 1
0 0 0 1 0 0 0 1 0 0 255 0 0 0 0 1 0 0 0 1 0 0 0 1 0 0 0 1 0 0 0 1 0
0 0 1 0 0 0 1 0 0 0 1 0 0 0 1 0 0 0 1 0 0 0 1 0 0 0 1 0 0 0 1 0 0 0
1 0 0 0 1 0 0 255 0 0 0 0 1 0 0 0 1 0 0 0 1 0 0 0 1 0 0 0 1 0 0 0 1
0 0 0 1 0 0 0 1 0 0 0 1 0 0 0 1 0 0 0 1 0 0 0 1 0 0 0 1 0 0 0 1 0 0
0 1 0 0 255 0 0 0 0 1 0 0 0 1 0 0 0 1 0 0 0 1 0 0 0 1 0 0 0 1 0 0 0
1 0 0 0 1 0 0 0 1 0 0 0 1 0 0 0 1 0 0 0 1 0 0 0 1 0 0 0 1 0 0 0 1 0
255 255 0 0 0 0 1 0 0 0 1 0 0 0 1 0 0 0 1 0 0 0 1 0 0 0 1 0 0 0 1 0
0 0 1 0 0 0 1 0 0 0 1 0 0 0 1 0 0 0 1 0 0 0 1 0 0 0 1 0 0 0 1 0 255
255 0 0 0 0 1 0 0 0 1 0 0 0 1 0 0 0 1 0 0 0 1 0 0 0 1 0 0 0 1 0 0 0
1 0 0 0 1 0 0 0 1 0 0 0 1 0 0 0 1 0 0 0 1 0 0 0 1 0 0 0 1 255 255 255
0 0 0 0 1 0 0 0 1 0 0 0 1 0 0 0 1 0 0 0 1 0 0 0 1 0 0 0 1 0 0 0 1 0
0 0 1 0 0 0 1 0 0 0 1 0 0 0 1 0 0 0 1 0 0 0 1 0 0 0 1 0 255 255 0 0
0 0 1 0 0 0 1 0 0 0 1 0 0 0 1 0 0 0 1 0 0 0 1 0 0 0 1 0 0 0 1 0 0 0
1 0 0 0 1 0 0 0 1 0 0 0 1 0 0 0 1 0 0 0 1 0 0 0 1 0 0 255 0 0 0 0 1
0 0 0 1 0 0 0 1 0 0 0 1 0 0 0 1 0 0 0 1 0 0 0 1 0 0 0 1 0 0 0 1 0 0
0 1 0 0 0 1 0 0 0 1 0 0 0 1 0 0 0 1 0 0 0 1 0 0 0 1 0 0 0 1 0 0 0 1
0 0 0 1 0 0 0 1 0 0 0 1 0 0 0 1 0 0 0 1 0 0 0 1 0 0 0 1 0 0 0 1 0 0
0 1 0 0 0 1 0 0 0 1 0 0 0 1 0 0 0 1 0 0 0 1 0 0 0 1 0 0 0 1 0 0 0 1
0 0 0 1 0 0 0 1 0 0 0 1 0 0 0 1 0 0 0 1 0 0 0 1 0 0 0 1 0 0 0 1 0 0
0 1 0 0 0 1 0 0 0 1 0 0 0 1 0 0 0 1 0 0 0 1 0 0 0 1 0 0 0 1 0 0 0 1
0 0 0 1 0 0 0 1 0 0 0 1 0 0 0 1 0 0 0 1 0 0 0 1 0 0 0 1 0 0 0 1 0 0
0 1 0 0 0 1 0 0 0 1 0 0 0 1 0 0 0 1 0 0 0 1 0 0 0 1 0 0 0 1 0 0 0 1
0 0 0 1 0 0 0 1 0 0 0 1 0 0 0 1 0 0 0 1 0 0 0 1 0 0 0 1 0 0 0 1 0 0
0 1 0 0 0 1 0 0 0 1 0 0 0 1 0 0 0 1 0 0 0 1 0 0 0 1 0 0 0 1 0 0 0 1
0 0 0 1 0 0 0 1 0 0 0 1 0 0 0 1 0 0 0 1 0 0 0 1 0 0 0 1 0 0 0 1 0 0
0 1 0 0 0 1 0 0 255 0 0 0 0 1 0 0 0 1 0 0 0 1 0 0 0 1 0 0 0 1 0 0 0
1 0 0 0 1 0 0 0 1 0 0 0 1 0 0 0 1 0 0 0 1 0 0 0 1 0 0 0 1 0 0 0 1 0
0 0 1 0 0 0 1 0 0 0 1 0 0 0 1 0 0 0 1 0 0 0 1 0 0 0 1 0 0 0 1 0 0 0
1 0 0 0 1 0 0 0 1 0 0 0 1 0 0 0 1 0 0 0 1 0 0 0 1 0 0 0 1 0 0 0 1 255
0 0 1 0 0 0 1 0 0 0 1 0 0 0 1 0 0 0 1 0 0 0 1 0 0 0 1 0 0 0 1 0 0 0
1 0 0 0 1 0 0 0 1 0 0 0 1 0 0 0 1 0 0 0 1 0 0 0 1 0 0 0 1 0 0 0 1 0
0 0 1 0 0 0 1 0 0 0 1 0 0 0 1 0 0 0 1 0 0 0 1 0 0 0 1 0 0 0 1 0 0 0
1 0 0 0 1 0 0 0 1 0 0 0 1 0 0 0 1 0 0 0 1 0 0 0 1 0 255 0 1 0 0 0 1
0 0 0 1 0 0 0 1 0 0 0 1 0 0 0 1 0 0 0 1 0 0 0 1 0 0 0 1 0 0 0 1 0 0
0 1 0 0 0 1 0 0 0 1 0 0 0 1 0 0 0 1 0 0 0 1 0 0 0 1 0 0 0 1 0 255 0
1 0 0 0 1 0 0 0 1 0 0 0 1 0 0 0 1 0 0 0 1 0 0 0 1 0 0 0 1 0 0 0 1 0
0 0 1 0 0 0 1 0 0 0 1 0 0 0 1 0 0 0 1 0 0 0 1 0 0 0 1 0 255 0 1 0 0
0 1 0 0 0 1 0 0 0 1 0 0 0 1 0 0 0 1 0 0 0 1 0 0 0 1 0 0 0 1 0 0 0 1
0 0 0 1 0 0 0 1 0 0 0 1 0 0 0 1 0 0 0 1 0 0 0 1 0 255 0 1 0 255 0 1
0 0 0 1 0 0 0 1 0 0 0 1 0 0 0 1 0 0 0 1 0 0 0 1 0 0 0 1 0 0 0 1 0 0
0 1 0 0 0 1 0 0 0 1 0 0 0 1 0 0 0 1 0 0 0 1 0 255 0 1 0 255 0 1 0 0
0 1 0 0 0 1 0 0 0 1 0 0 0 1 0 0 0 1 0 0 0 1 0 0 0 1 0 0 0 1 0 0 0 1
0 0 0 1 0 0 0 1 0 0 0 1 0 0 0 1 0 0 0 1 0 255 0 1 0 0 0 1 0 0 0 1 0
0 0 1 0 0 0 1 0 0 0 1 0 0 0 1 0 0 0 1 0 0 0 1 0 0 0 1 0 0 0 1 0 0 0
1 0 0 0 1 0 0 0 1 0 0 0 1 0 0 0 1 0 255 0 1 0 0 0 1 0 0 0 1 0 0 0 1
0 0 0 1 0 0 0 1 0 0 0 1 0 0 0 1 0 0 0 1 0 0 0 1 0 0 0 1 0 0 0 1 0 0
0 1 0 0 0 1 0 255 0 1 0 0 0 1 0 255 0 1 0 0 0 1 0 0 0 1 0 0 0 1 0 0
0 1 0 0 0 1 0 0 0 1 0 0 0 1 0 0 0 1 0 0 0 1 0 0 0 1 0 0 0 1 0 0 0 1
0 0 0 1 0 0 0 1 0 0 0 1 0 255 0 1 0 0 0 1 0 0 0 1 0 0 0 1 0 0 0 1 0
0 0 1 0 0 0 1 0 0 0 1 0 0 0 1 0 0 0 1 0 0 0 1 0 0 0 1 0 0 0 1 0 0 0
1 0 0 255 0 0 0 0 1 0 255 0 1 0 0 0 1 0 0 0 1 0 0 0 1 0 0 0 1 0 0 0
1 0 0 0 1 0 0 0 1 0 0 0 1 0 0 0 1 0 0 0 1 0 0 0 1 0 0 0 1 0 0 0 1 0
0 255 0 0 0 0 1 0 255 0 1 0 0 0 1 0 0 0 1 0 0 0 1 0 0 0 1 0 0 0 1 0
0 0 1 0 0 0 1 0 0 0 1 0 0 0 1 0 0 0 1 0 0 0 1 0 0 0 1 0 0 0 1 0 255
255 0 0 0 0 1 0 255 0 1 0 0 0 1 0 0 0 1 0 0 0 1 0 0 0 1 0 0 0 1 0 0
0 1 0 0 0 1 0 0 0 1 0 0 0 1 0 0 0 1 0 0 0 1 0 0 0 1 0 0 0 1 0 0 255
0 0 0 0 1 0 255 0 1 0 0 0 1 0 0 0 1 0 0 0 1 0 0 0 1 0 0 0 1 0 0 0 1
0 0 0 1 0 0 0 1 0 0 0 1 0 0 0 1 0 0 0 1 0 0 0 1 0 0 0 1 0 0 0 1 0 0
0 1 0 255 0 1 0 0 0 1 0 0 0 1 0 0 0 1 0 0 0 1 0 0 0 1 0 0 0 1 0 0 0
1 0 0 0 1 0 0 0 1 0 0 0 1 0 0 0 1 0 0 0 1 0 0 0 1 0 0 0 1 0 0 255 0
0 255 0 1 0 0 0 1 0 0 0 1 0 0 0 1 0 0 0 1 0 0 0 1 0 0 0 1 0 0 0 1 0
0 0 1 0 0 0 1 0 0 0 1 0 0 0 1 0 0 0 1 0 0 0 1 0 0 0 1 0 0 255 0 0 255
0 1 0 0 0 1 0 0 0 1 0 0 0 1 0 0 0 1 0 0 0 1 0 0 0 1 0 0 0 1 0 0 0 1
0 0 0 1 0 0 0 1 0 0 0 1 0 0 0 1 0 0 0 1 0 0 0 1 0 0 255 0 0 255 0 1
0 0 0 1 0 0 0 1 0 0 0 1 0 0 0 1 0 0 0 1 0 0 0 1 0 0 0 1 0 0 0 1 0 0
0 1 0 0 0 1 0 0 0 1 0 0 0 1 0 0 0 1 0 0 0 1 255 0 255 0 0 255 0 1 0
0 0 1 0 0 0 1 0 0 0 1 0 0 0 1 0 0 0 1 0 0 0 1 0 0 0 1 0 0 0 1 0 0 0
1 0 0 0 1 0 0 0 1 0 0 0 1 0 0 0 1 0 0 0 1 255 255 255 0 0 255 0 1 0
0 0 1 0 0 0 1 0 0 0 1 0 0 0 1 0 0 0 1 0 0 0 1 0 0 0 1 0 0 0 1 0 0 0
1 0 0 0 1 0 0 0 1 0 0 0 1 0 0 0 1 0 0 0 1 255 255 255 0 0 255 0 1 0
0 0 1 0 0 0 1 0 0 0 1 0 0 0 1 0 0 0 1 0 0 0 1 0 0 0 1 0 0 0 1 0 0 0
1 0 0 0 1 0 0 0 1 0 0 0 1 0 0 0 1 0 0 0 1 255 255 255 0 0 255 0 1 0
0 0 1 0 0 0 1 0 0 0 1 0 0 0 1 0 0 0 1 0 0 0 1 0 0 0 1 0 0 0 1 0 0 0
1 0 0 0 1 0 0 0 1 0 0 0 1 0 0 0 1 0 0 0 1 255 255 255 0 0 255 0 1 0
0 0 1 0 0 0 1 0 0 0 1 0 0 0 1 0 0 0 1 0 0 0 1 0 0 0 1 0 0 0 1 0 0 0
1 0 0 0 1 0 0 0 1 0 0 0 1 0 0 0 1 0 0 0 1 255 255 255 0 238 225 222
223 220 215 217 218 233 239 242 243 242 242 242 243 242 243 247 248
248 250 251 252 251 251 251 252 251 250 248 249 246 241 240 241 240
240 240 241 241 243 244 245 246 247 248 249 249 251 251 252 252 253
253 254 253 254 254 255 254 255 255 0 0 0 0 1 0 0 0 1 0 0 0 1 0 0 0
1 0 0 0 1 0 0 0 1 0 0 0 1 0 0 0 1 0 0 0 1 0 0 0 1 0 0 0 1 0 0 0 1 0
0 0 1 0 0 0 1 0 0 0 1 0 0 0 1 0 0 0 1 0 0 0 1 0 0 0 1 0 0 0 1 0 0 0
1 0 0 0 1 0 0 0 1 0 0 0 1 0 0 0 1 0 0 0 1 0 0 0 1 0 0 0 1 0 0 0 1 0
0 0 1 0 0 0 1 0 0 255 0 0 0 0 1 0 0 0 1 0 0 0 1 0 0 0 1 0 0 0 1 0 0
0 1 0 0 0 1 0 0 0 1 0 0 0 1 0 0 0 1 0 0 0 1 0 0 0 1 0 0 0 1 0 0 0 1
0 255 0 1 0 0 255 0 0 0 0 1 0 0 0 1 0 0 0 1 0 0 0 1 0 0 0 1 0 0 0 1
0 0 0 1 0 0 0 1 0 0 0 1 0 0 0 1 0 0 0 1 0 0 0 1 0 0 0 1 0 0 0 1 0 0
0 1 0 0 255 0 0 0 0 1 0 0 0 1 0 0 0 1 0 0 0 1 0 0 0 1 0 0 0 1 0 0 0
1 0 0 0 1 0 0 0 1 0 0 0 1 0 0 0 1 0 0 0 1 0 0 0 1 0 0 0 1 0 0 255 0
0 0 255 0 0 0 0 1 0 0 0 1 0 0 0 1 0 0 0 1 0 0 0 1 0 0 0 1 0 0 0 1 0
0 0 1 0 0 0 1 0 0 0 1 0 0 0 1 0 0 0 1 0 0 0 1 0 0 0 1 0 0 0 1 0 0 255
0 0 0 0 1 0 0 0 1 0 0 0 1 0 0 0 1 0 0 0 1 0 0 0 1 0 0 0 1 0 0 0 1 0
0 0 1 0 0 0 1 0 0 0 1 0 0 0 1 0 0 0 1 0 0 0 1 255 0 0 1 0 0 255 0 0
0 0 1 0 0 0 1 0 0 0 1 0 0 0 1 0 0 0 1 0 0 0 1 0 0 0 1 0 0 0 1 0 0 0
1 0 0 0 1 0 0 0 1 0 0 0 1 0 0 0 1 0 0 0 1 0 0 0 1 0 0 255 0 0 0 0 1
0 0 0 1 0 0 0 1 0 0 0 1 0 0 0 1 0 0 0 1 0 0 0 1 0 0 0 1 0 0 0 1 0 0
0 1 0 0 0 1 0 0 0 1 0 0 0 1 0 0 0 1 0 0 0 1 255 0 255 0 0 0 0 1 0 0
0 1 0 0 0 1 0 0 0 1 0 0 0 1 0 0 0 1 0 0 0 1 0 0 0 1 0 0 0 1 0 0 0 1
0 0 0 1 0 0 0 1 0 0 0 1 0 0 0 1 0 0 0 1 255 255 255 0 0 0 0 1 0 0 0
1 0 0 0 1 0 0 0 1 0 0 0 1 0 0 0 1 0 0 0 1 0 0 0 1 0 0 0 1 0 0 0 1 0
0 0 1 0 0 0 1 0 0 0 1 0 0 0 1 0 0 0 1 255 255 255 0 0 0 0 1 0 0 0 1
0 0 0 1 0 0 0 1 0 0 0 1 0 0 0 1 0 0 0 1 0 0 0 1 0 0 0 1 0 0 0 1 0 0
0 1 0 0 0 1 0 0 0 1 0 0 0 1 0 0 0 1 0 255 255 0 0 0 0 1 0 0 0 1 0 0
0 1 0 0 0 1 0 0 0 1 0 0 0 1 0 0 0 1 0 0 0 1 0 0 0 1 0 0 0 1 0 0 0 1
0 0 0 1 0 0 0 1 0 0 0 1 0 0 0 1 0 0 255 0 0 0 0 1 0 0 0 1 0 0 0 1 0
0 0 1 0 0 0 1 0 0 0 1 0 0 0 1 0 0 0 1 0 0 0 1 0 0 0 1 0 0 0 1 0 0 0
1 0 0 0 1 0 0 0 1 0 0 0 1 0 0 0 1 0 0 0 1 0 0 0 1 0 0 0 1 0 0 0 1 0
0 0 1 0 0 0 1 0 0 0 1 0 0 0 1 0 0 0 1 0 0 0 1 0 0 0 1 0 0 0 1 0 0 0
1 0 0 0 1 0 0 0 1 0 0 0 1 0 0 0 1 0 0 0 1 0 0 0 1 0 0 0 1 0 0 0 1 0
0 0 1 0 0 0 1 0 0 0 1 0 0 0 1 0 0 0 1 0 0 0 1 0 0 0 1 0 0 0 1 0 0 0
1 0 0 0 1 0 0 0 1 0 0 0 1 0 0 0 1 0 0 0 1 0 0 0 1 0 0 0 1 0 0 0 1 0
0 0 1 0 0 0 1 0 0 0 1 0 0 0 1 0 0 0 1 0 0 0 1 0 0 0 1 0 0 0 1 0 0 0
1 0 0 0 1 0 0 0 1 0 0 0 1 0 0 0 1 0 0 0 1 0 0 0 1 0 0 0 1 0 0 0 1 0
0 0 1 0 0 0 1 0 0 0 1 0 0 0 1 0 0 0 1 0 0 0 1 0 0 0 1 0 0 0 1 0 0 0
1 0 0 0 1 0 0 0 1 0 0 0 1 0 0 0 1 0 0 0 1 0 0 0 1 0 0 0 1 0 0 0 1 0
0 0 1 0 0 0 1 0 0 0 1 0 0 0 1 0 0 0 1 0 0 0 1 0 0 0 1 0 0 0 1 0 0 0
1 0 0 0 1 0 0 0 1 0 0 0 1 0 0 0 1 0 0 0 1 0 0 0 1 0 0 0 1 0 0 0 1 0
0 0 1 0 0 0 1 0 0 0 1 0 0 0 1 0 0 0 1 0 0 0 1 0 0 255 0 0 0 0 1 0 0
0 1 0 0 0 1 0 0 0 1 0 0 0 1 0 0 0 1 0 0 0 1 0 0 0 1 0 0 0 1 0 0 0 1
0 0 0 1 0 0 0 1 0 0 0 1 0 0 0 1 0 0 0 1 0 0 0 1 0 0 0 1 0 0 0 1 0 0
0 1 0 0 0 1 0 0 0 1 0 0 0 1 0 0 0 1 0 0 0 1 0 0 0 1 0 0 0 1 0 0 0 1
0 0 0 1 0 0 0 1 0 0 0 1 0 0 0 1 0 0 0 1 0 0 0 1 0 0 0 1 0 0 0 1 0 0
0 1 0 0 0 1 0 0 0 1 0 0 0 1 0 0 0 1 0 0 0 1 0 0 0 1 0 0 0 1 0 0 0 1
0 0 0 1 0 0 0 1 0 0 0 1 0 0 0 1 0 0 0 1 0 0 0 1 0 0 0 1 0 0 0 1 0 0
0 1 0 0 0 1 0 0 0 1 0 0 0 1 0 0 0 1 0 0 0 1 0 0 0 1 0 0 0 1 0 0 0 1
0 0 0 1 0 0 0 1 0 0 0 1 0 0 0 1 0 0 0 1 0 0 0 1 0 0 0 1 0 0 0 1 0 0
0 1 0 0 0 1 0 0 0 1 0 0 0 1 0 0 0 1 0 0 0 1 0 0 0 1 0 0 0 1 0 0 0 1
0 0 0 1 0 0 0 1 0 0 0 1 0 0 0 1 0 0 0 1 0 0 0 1 0 0 0 1 0 0 0 1 0 0
0 1 0 0 0 1 0 0 0 1 0 0 0 1 0 0 0 1 0 0 0 1 0 0 0 1 0 0 0 1 0 0 0 1
0 0 192 193 0 0 0 1 0 0 0 1 0 0 0 1 0 0 0 1 0 0 0 1 0 0 0 1 0 0 0 1
0 0 0 1 0 0 0 1 0 0 0 1 0 0 0 1 0 0 0 1 0 0 0 1 0 0 0 1 0 0 0 1 0 0
0 1 0 0 0 1 0 0 0 1 0 0 0 1 0 0 0 1 0 0 0 1 0 0 0 1 0 0 0 1 0 0 0 1
0 0 0 1 0 0 0 1 0 0 0 1 0 0 0 1 0 0 0 1 0 0 0 1 0 0 0 1 0 0 0 1 0 0
0 1 0 0 0 1 0 0 0 1 0 0 0 1 0 0 0 1 0 0 0 1 0 0 0 1 0 0 0 1 0 0 0 1
0 0 0 1 0 0 0 1 0 0 0 1 0 0 0 1 0 0 0 1 0 0 0 1 0 0 255 0 0 0 0 1 0
0 0 1 0 0 0 1 0 0 0 1 0 0 0 1 0 0 0 1 0 0 0 1 0 0 0 1 0 0 0 1 0 0 0
1 0 0 0 1 0 0 0 1 0 0 0 1 0 0 0 1 0 0 0 1 0 0 255 0 0 0 0 1 0 0 0 1
0 0 0 1 0 0 0 1 0 0 0 1 0 0 0 1 0 0 0 1 0 0 0 1 0 0 0 1 0 0 0 1 0 0
0 1 0 0 0 1 0 0 0 1 0 0 0 1 0 0 0 1 0 0 255 0 0 0 0 1 0 0 0 1 0 0 0
1 0 0 0 1 0 0 0 1 0 0 0 1 0 0 0 1 0 0 0 1 0 0 0 1 0 0 0 1 0 0 0 1 0
0 0 1 0 0 0 1 0 0 0 1 0 0 0 1 255 0 255 0 0 0 0 1 0 0 0 1 0 0 0 1 0
0 0 1 0 0 0 1 0 0 0 1 0 0 0 1 0 0 0 1 0 0 0 1 0 0 0 1 0 0 0 1 0 0 0
1 0 0 0 1 0 0 0 1 0 0 0 1 255 0 255 0 0 0 0 1 0 0 0 1 0 0 0 1 0 0 0
1 0 0 0 1 0 0 0 1 0 0 0 1 0 0 0 1 0 0 0 1 0 0 0 1 0 0 0 1 0 0 0 1 0
0 0 1 0 0 0 1 0 0 0 1 255 255 255 0 0 0 0 1 0 0 0 1 0 0 0 1 0 0 0 1
0 0 0 1 0 0 0 1 0 0 0 1 0 0 0 1 0 0 0 1 0 0 0 1 0 0 0 1 0 0 0 1 0 0
0 1 0 0 0 1 0 0 0 1 255 255 0 1 0 0 0 1 0 0 0 1 0 0 0 1 0 0 0 1 0 0
0 1 0 0 0 1 0 0 0 1 0 0 0 1 0 0 0 1 0 0 0 1 0 0 0 1 0 0 0 1 0 0 0 1
0 0 0 1 0 0 0 1 0 255 0 1 0 0 0 1 0 0 0 1 0 0 0 1 0 0 0 1 0 0 0 1 0
0 0 1 0 0 0 1 0 0 0 1 0 0 0 1 0 0 0 1 0 0 0 1 0 0 0 1 0 0 0 1 0 0 0
1 0 0 0 1 0 0 0 1 0 0 0 1 0 0 0 1 0 0 0 1 0 0 0 1 0 0 0 1 0 0 0 1 0
0 0 1 0 0 0 1 0 0 0 1 0 0 0 1 0 0 0 1 0 0 0 1 0 0 0 1 0 0 0 1 0 0 0
1 0 0 0 1 0 0 0 1 0 0 0 1 0 0 0 1 0 0 0 1 0 0 0 1 0 0 0 1 0 0 0 1 0
0 0 1 0 0 0 1 0 0 0 1 0 0 0 1 0 0 0 1 0 0 0 1 0 0 0 1 0 0 0 1 0 0 0
1 0 0 0 1 0 0 0 1 0 0 0 1 0 0 0 1 0 0 0 1 0 0 0 1 0 0 0 1 0 0 0 1 0
0 0 1 0 0 0 1 0 0 0 1 0 0 0 1 0 0 0 1 0 0 0 1 0 0 0 1 0 0 0 1 0 0 0
1 0 255 0 1 0 0 0 1 0 0 0 1 0 0 0 1 0 0 0 1 0 0 0 1 0 0 0 1 0 0 0 1
0 0 0 1 0 0 0 1 0 0 0 1 0 0 0 1 0 0 0 1 0 0 0 1 0 0 0 1 0 0 0 1 0 0
0 1 0 0 0 1 0 0 0 1 0 0 0 1 0 0 0 1 0 0 0 1 0 0 0 1 0 0 0 1 0 0 0 1
0 0 0 1 0 0 0 1 0 0 0 1 0 0 0 1 0 0 0 1 0 0 0 1 0 0 0 1 0 0 0 1 0 0
0 1 0 0 0 1 0 0 0 1 0 0 0 1 0 0 0 1 0 0 0 1 0 0 0 1 0 0 0 1 0 0 0 1
0 0 0 1 0 0 0 1 0 0 0 1 0 0 0 1 0 0 0 1 0 0 0 1 0 0 0 1 0 0 0 1 0 0
0 1 0 0 0 1 0 0 0 1 0 0 0 1 0 0 0 1 0 0 0 1 0 0 0 1 0 0 0 1 0 0 0 1
0 0 0 1 0 0 0 1 0 0 0 1 0 0 0 1 0 0 0 1 0 0 0 1 0 0 0 1 0 0 0 1 0 0
0 1 0 0 0 1 0 0 0 1 0 0 0 1 0 0 0 1 0 0 0 1 0 0 0 1 0 0 0 1 0 0 0 1
0 0 0 1 0 0 0 1 0 0 0 1 0 0 0 1 0 0 0 1 0 0 0 1 0 0 0 1 0 0 0 1 0 0
0 1 0 0 0 1 0 0 0 1 0 0 0 1 0 0 0 1 0 0 0 1 0 0 0 1 0 0 0 1 0 0 0 1
0 0 0 1 0 0 0 1 0 0 0 1 0 0 0 1 0 0 0 1 0 0 0 1 0 0 0 1 0 0 0 1 0 0
0 1 0 0 0 1 0 0 0 1 0 0 0 1 0 0 0 1 0 0 0 1 0 0 0 1 0 0 0 1 0 0 0 1
0 0 0 1 0 0 0 1 0 0 0 1 0 0 0 1 0 0 0 1 0 0 0 1 0 0 0 1 0 0 0 1 0 0
0 1 0 0 0 1 0 0 0 1 0 0 0 1 0 0 0 1 0 0 0 1 0 0 0 1 0 0 0 1 0 0 0 1
0 0 0 1 0 0 0 1 0 0 0 1 0 0 0 1 0 0 0 1 0 0 0 1 0 0 0 1 0 0 0 1 0 0
0 1 0 0 0 1 0 0 0 1 0 0 0 1 0 0 0 1 0 0 0 1 0 0 0 1 0 0 0 1 0 0 0 1
0 0 0 1 0 0 0 1 0 0 0 1 0 0 0 1 0 0 0 1 0 0 0 1 0 0 0 1 0 0 0 1 0 0
0 1 0 0 0 1 0 0 0 1 0 0 0 1 0 0 0 1 0 0 0 1 0 0 0 1 96 100 105 106
107 129 145 146 148 150 151 152 151 152 153 154 154 155 160 161 170
167 163 164 155 144 130 131 120 113 110 111 106 103 99 100 96 92 88
89 84 80 74 75 68 58 53 54 48 40 32 33 23 13 3 4 0 0 0 1 0 0 0 1 96
100 105 106 107 129 145 146 148 150 151 152 151 152 153 154 154 155
160 161 170 167 163 164 155 144 130 131 120 113 110 111 106 103 99
100 96 92 88 89 84 80 74 75 68 58 53 54 48 40 32 33 23 13 3 4 0 0 0
1 0 0 0 1 17 163 214 215 239 239 233 234 177 150 151 152 151 152 153
154 154 155 160 161 170 167 163 164 155 144 130 131 120 113 110 111
106 103 99 100 96 92 88 89 84 80 74 75 68 58 53 54 48 40 32 33 23 13
3 4 0 0 0 1 0 0 0 1 6 6 4 5 0 0 0 1 0 0 0 1 0 152 153 154 154 155 160
161 170 167 163 164 155 144 130 131 120 113 110 111 106 103 99 100
96 92 88 89 84 80 74 75 68 58 53 54 48 40 32 33 23 13 3 4 0 0 0 1 0
0 0 1 45 0 0 1 0 0 0 1 0 0 0 1 0 152 153 154 154 155 160 161 170 167
163 164 155 144 130 131 120 113 110 111 106 103 99 100 96 92 88 89
84 80 74 75 68 58 53 54 48 40 32 33 23 13 3 4 0 0 0 1 0 0 0 1 163 0
0 1 0 0 0 1 0 0 0 1 0 152 153 154 154 155 160 161 170 167 163 164 155
144 130 131 120 113 110 111 106 103 99 100 96 92 88 89 84 80 74 75
68 58 53 54 48 40 32 33 23 13 3 4 0 0 0 1 0 0 0 1 255 0 0 1 0 0 0 1
0 0 0 1 0 152 153 154 154 155 160 161 170 167 163 164 155 144 130 131
120 113 110 111 106 103 99 100 96 92 88 89 84 80 74 75 68 58 53 54
48 40 32 33 23 13 3 4 0 0 0 1 0 0 0 1 255 0 0 1 0 0 0 1 0 0 0 1 0 152
153 154 154 155 160 161 170 167 163 164 155 144 130 131 120 113 110
111 106 103 99 100 96 92 88 89 84 80 74 75 68 58 53 54 48 40 32 33
23 13 3 4 0 0 0 1 0 0 0 1 255 0 0 1 0 0 0 1 0 0 0 1 0 152 153 154 154
155 160 161 170 167 163 164 155 144 130 131 120 113 110 111 106 103
99 100 96 92 88 89 84 80 74 75 68 58 53 54 48 40 32 33 23 13 3 4 0
0 0 1 0 0 0 1 255 0 0 1 0 0 0 1 0 0 0 1 0 152 153 154 154 155 160 161
170 167 163 164 155 144 130 131 120 113 110 111 106 103 99 100 96 92
88 89 84 80 74 75 68 58 53 54 48 40 32 33 23 13 3 4 0 0 0 1 0 0 0 1
255 0 0 1 0 0 248 249 0 0 0 1 0 152 153 154 154 155 160 161 170 167
163 164 155 144 130 131 120 113 110 111 106 103 99 100 96 92 88 89
84 80 74 75 68 58 53 54 48 40 32 33 23 13 3 4 0 0 0 1 0 0 0 1 255 0
0 1 0 0 0 1 0 0 0 1 0 152 153 154 154 155 160 161 170 167 163 164 155
144 130 131 120 113 110 111 106 103 99 100 96 92 88 89 84 80 74 75
68 58 53 54 48 40 32 33 23 13 3 4 0 0 0 1 0 0 0 1 255 0 0 1 0 0 0 1
0 0 0 1 0 152 153 154 154 155 160 161 170 167 163 164 155 144 130 131
120 113 110 111 106 103 99 100 96 92 88 89 84 80 74 75 68 58 53 54
48 40 32 33 23 13 3 4 0 0 0 1 0 0 0 1 255 0 0 1 0 0 0 1 0 0 0 1 0 152
153 154 154 155 160 161 170 167 163 164 155 144 130 131 120 113 110
111 106 103 99 100 96 92 88 89 84 80 74 75 68 58 53 54 48 40 32 33
23 13 3 4 0 0 0 1 0 0 0 1 255 0 0 1 0 0 0 1 0 0 0 1 0 152 153 154 154
155 160 161 170 167 163 164 155 144 130 131 120 113 110 111 106 103
99 100 96 92 88 89 84 80 74 75 68 58 53 54 48 40 32 33 23 13 3 4 0
0 0 1 0 0 0 1 255 0 0 1 0 0 0 1 0 0 0 1 0 152 153 154 154 155 160 161
170 167 163 164 155 144 130 131 120 113 110 111 106 103 99 100 96 92
88 89 84 80 74 75 68 58 53 54 48 40 32 33 23 13 3 4 0 0 0 1 0 0 0 1
255 0 0 1 0 0 0 1 0 0 0 1 0 152 153 154 154 155 160 161 170 167 163
164 155 144 130 131 120 113 110 111 106 103 99 100 96 92 88 89 84 80
74 75 68 58 53 54 48 40 32 33 23 13 3 4 0 0 0 1 0 0 0 1 255 0 0 1 0
0 0 1 0 0 0 1 0 152 153 154 154 155 160 161 170 167 163 164 155 144
130 131 120 113 110 111 106 103 99 100 96 92 88 89 84 80 74 75 68 58
53 54 48 40 32 33 23 13 3 4 0 0 0 1 0 0 0 1 255 0 0 1 0 0 0 1 0 0 0
1 0 152 153 154 154 155 160 161 170 167 163 164 155 144 130 131 120
113 110 111 106 103 99 100 96 92 88 89 84 80 74 75 68 58 53 54 48 40
32 33 23 13 3 4 0 0 0 1 0 0 0 1 255 0 0 1 0 0 0 1 0 0 0 1 0 152 153
154 154 155 160 161 170 167 163 164 155 144 130 131 120 113 110 111
106 103 99 100 96 92 88 89 84 80 74 75 68 58 53 54 48 40 32 33 23 13
3 4 0 0 0 1 0 0 0 1 255 0 0 1 0 0 0 1 0 0 0 1 0 152 153 154 154 155
160 161 170 167 163 164 155 144 130 131 120 113 110 111 106 103 99
100 96 92 88 89 84 80 74 75 68 58 53 54 48 40 32 33 23 13 3 4 0 0 0
1 0 0 0 1 255 0 0 1 0 0 0 1 0 0 0 1 0 152 153 154 154 155 160 161 170
167 163 164 155 144 130 131 120 113 110 111 106 103 99 100 96 92 88
89 84 80 74 75 68 58 53 54 48 40 32 33 23 13 3 4 0 0 0 1 0 0 0 1 255
0 0 1 0 0 0 1 0 0 0 1 0 152 153 154 154 155 160 161 170 167 163 164
155 144 130 131 120 113 110 111 106 103 99 100 96 92 88 89 84 80 74
75 68 58 53 54 48 40 32 33 23 13 3 4 0 0 0 1 0 0 0 1 255 0 0 1 0 0
0 1 0 0 0 1 0 152 153 154 154 155 160 161 170 167 163 164 155 144 130
131 120 113 110 111 106 103 99 100 96 92 88 89 84 80 74 75 68 58 53
54 48 40 32 33 23 13 3 4 0 0 0 1 0 0 0 1 255 0 0 1 0 0 0 1 0 0 0 1
0 152 153 154 154 155 160 161 170 167 163 164 155 144 130 131 120 113
110 111 106 103 99 100 96 92 88 89 84 80 74 75 68 58 53 54 48 40 32
33 23 13 3 4 0 0 0 1 0 0 0 1 255 0 0 1 0 0 0 1 0 0 0 1 0 152 153 154
154 155 160 161 170 167 163 164 155 144 130 131 120 113 110 111 106
103 99 100 96 92 88 89 84 80 255 0 68 58 53 54 48 40 32 33 23 13 3
4 0 0 0 1 0 0 0 1 255 0 0 1 0 0 0 1 0 0 0 1 0 152 153 154 154 155 160
161 170 167 163 164 155 144 130 131 120 113 110 111 106 103 99 100
96 92 88 89 84 80 255 0 68 58 53 54 48 40 32 33 23 13 3 4 0 0 0 1 0
0 0 1 255 0 0 1 0 0 0 1 0 0 0 1 0 152 153 154 154 155 160 161 170 167
163 164 155 144 130 131 120 113 110 111 106 103 99 100 96 92 88 89
84 80 255 0 68 58 53 54 48 40 32 33 23 13 3 4 0 0 0 1 0 0 0 1 255 0
0 1 0 0 0 1 0 0 0 1 0 152 153 154 154 0 0 1 0 0 0 1 0 0 0 1 0 0 0 1
0 0 0 1 0 0 0 1 0 0 0 1 0 0 0 1 0 0 0 1 0 0 0 1 0 0 0 1 0 0 0 1 255
0 0 1 0 0 0 1 0 0 0 1 0 0 0 1 0 0 0 1 0 0 0 1 0 0 0 1 0 0 0 1 0 0 0
1 0 0 0 1 0 0 0 1 0 0 0 1 0 0 0 1 0 0 0 1 0 0 0 1 0 0 0 1 255 0 0 1
0 0 0 1 0 0 0 1 0 0 0 1 0 0 0 1 0 0 0 1 0 0 0 1 0 0 0 1 0 0 0 1 0 0
0 1 0 0 0 1 0 0 0 1 0 0 0 1 0 0 0 1 0 0 0 1 0 0 0 1 255 0 0 1 0 0 0
1 0 0 0 1 0 0 0 1 0 0 0 1 0 0 0 1 0 0 0 1 0 0 0 1 0 0 0 1 0 0 0 1 0
0 0 1 0 0 0 1 0 0 0 1 0 0 0 1 0 0 0 1 0 0 0 1 255 0 0 1 0 0 0 1 0 0
0 1 0 0 0 1 0 0 0 1 0 0 0 1 0 0 0 1 0 0 0 1 0 0 0 1 0 0 0 1 0 0 0 1
0 0 0 1 0 0 0 1 0 0 0 1 0 0 0 1 0 0 0 1 255 0 0 1 0 0 0 1 0 0 0 1 0
0 0 1 0 0 0 1 0 0 0 1 0 0 0 1 0 0 0 1 0 0 0 1 0 0 0 1 0 0 0 1 0 0 200
201 0 0 0 1 0 0 0 1 0 0 0 1 0 0 0 1 255 0 0 1 0 0 0 1 0 0 0 1 0 0 0
1 0 0 0 1 0 0 0 1 0 0 0 1 0 0 0 1 0 0 0 1 0 0 0 1 0 0 0 1 0 0 255 0
0 0 0 1 0 0 0 1 0 0 0 1 0 0 0 1 255 0 0 1 0 0 0 1 0 0 0 1 0 0 0 1 0
0 0 1 0 0 0 1 0 0 0 1 0 0 0 1 0 0 0 1 0 0 0 1 0 0 0 1 196 0 255 0 0
0 0 1 0 0 0 1 0 0 0 1 0 0 0 1 255 0 0 1 0 0 0 1 0 0 0 1 0 0 0 1 0 0
0 1 0 0 0 1 0 0 0 1 0 0 0 1 0 0 0 1 0 0 0 1 0 0 0 1 255 0 255 0 0 0
0 1 0 0 0 1 0 0 0 1 0 0 0 1 255 0 0 1 0 0 0 1 0 0 0 1 0 0 0 1 0 0 0
1 0 0 0 1 0 0 0 1 0 0 0 1 0 0 0 1 0 0 0 1 0 0 0 1 255 255 255 0 0 0
0 1 0 0 0 1 0 0 0 1 0 0 0 1 255 0 0 1 0 0 0 1 0 0 0 1 0 0 0 1 0 0 0
1 0 0 0 1 0 0 0 1 0 0 0 1 0 0 0 1 0 0 0 1 0 0 0 1 255 255 0 1 0 0 0
1 0 0 0 1 0 0 0 1 0 0 0 1 255 0 0 1 0 0 0 1 0 0 0 1 0 0 0 1 0 0 0 1
0 0 0 1 0 0 0 1 0 0 0 1 0 0 0 1 0 0 0 1 0 0 0 1 0 255 0 1 0 0 0 1 0
0 0 1 0 0 0 1 0 0 0 1 255 0 0 1 0 0 0 1 0 0 0 1 0 0 0 1 0 0 0 1 0 0
0 1 0 0 0 1 0 0 0 1 0 0 0 1 0 0 0 1 0 0 0 1 0 0 0 1 0 0 0 1 0 0 0 1
0 0 0 1 0 0 0 1 255 0 0 1 0 0 0 1 0 0 0 1 0 0 0 1 0 0 0 1 0 0 0 1 0
0 0 1 0 0 0 1 0 0 0 1 0 0 0 1 0 0 0 1 0 0 0 1 0 0 0 1 0 0 0 1 0 0 0
1 0 0 0 1 255 0 0 1 0 0 0 1 0 0 0 1 0 0 0 1 0 0 0 1 0 0 0 1 0 0 0 1
0 0 0 1 0 0 0 1 0 0 0 1 0 0 0 1 0 0 0 1 0 0 0 1 0 0 0 1 0 0 0 1 0 0
0 1 255 0 0 1 0 0 0 1 0 0 0 1 0 0 0 1 0 0 0 1 0 0 0 1 0 0 0 1 0 0 0
1 0 0 0 1 0 0 0 1 0 0 0 1 0 0 0 1 0 0 0 1 0 0 0 1 0 0 0 1 0 0 0 1 255
0 0 1 0 0 0 1 0 0 0 1 0 0 0 1 0 0 0 1 0 0 0 1 0 0 0 1 0 0 0 1 0 0 0
1 0 0 0 1 0 0 0 1 0 0 0 1 0 0 0 1 0 0 0 1 0 0 0 1 0 0 0 1 255 0 0 1
0 0 0 1 0 0 0 1 0 0 0 1 0 0 0 1 0 0 0 1 0 0 0 1 0 0 0 1 0 0 0 1 0 0
0 1 0 0 0 1 0 0 0 1 0 255 0 1 0 0 0 1 0 0 0 1 0 0 0 1 255 0 0 1 0 0
0 1 0 0 0 1 0 0 0 1 0 0 0 1 0 0 0 1 0 0 0 1 0 0 0 1 0 0 0 1 0 0 0 1
0 0 0 1 0 0 0 1 0 0 0 1 0 0 0 1 0 0 0 1 0 0 0 1 255 0 0 1 0 0 0 1 0
0 0 1 0 0 0 1 0 0 0 1 0 0 0 1 0 0 0 1 0 0 0 1 0 0 0 1 0 0 0 1 0 0 0
1 0 0 0 1 0 0 255 0 0 0 0 1 0 0 0 1 0 0 0 1 255 0 0 1 0 0 0 1 0 0 0
1 0 0 0 1 0 0 0 1 0 0 0 1 0 0 0 1 0 0 0 1 0 0 0 1 0 0 0 1 0 0 0 1 0
0 0 1 0 0 255 0 0 0 0 1 0 0 0 1 0 0 0 1 255 0 0 1 0 0 0 1 0 0 0 1 0
0 0 1 0 0 0 1 0 0 0 1 0 0 0 1 0 0 0 1 0 0 0 1 0 0 0 1 0 0 0 1 0 0 0
1 255 0 255 0 0 0 0 1 0 0 0 1 0 0 0 1 255 0 0 1 0 0 0 1 0 0 0 1 0 0
0 1 0 0 0 1 0 0 0 1 0 0 0 1 0 0 0 1 0 0 0 1 0 0 0 1 0 0 0 1 0 0 0 1
255 0 0 1 0 0 0 1 0 0 0 1 0 0 0 1 255 0 0 1 0 0 0 1 0 0 0 1 0 0 0 1
0 0 0 1 0 0 0 1 0 0 0 1 0 0 0 1 0 0 0 1 0 0 0 1 0 0 0 1 0 0 0 1 90
0 0 1 0 0 0 1 0 0 0 1 0 0 0 1 255 0 0 1 0 0 0 1 0 0 0 1 0 0 0 1 0 0
0 1 0 0 0 1 0 0 0 1 0 0 0 1 0 0 0 1 0 0 0 1 0 0 0 1 0 0 0 1 0 0 0 1
0 0 0 1 0 0 0 1 0 0 0 1 255 0 0 1 0 0 0 1 0 0 0 1 0 0 0 1 0 0 0 1 0
0 0 1 0 0 0 1 0 0 0 1 0 0 0 1 0 0 0 1 0 0 0 1 0 0 0 1 0 0 0 1 0 0 0
1 0 0 0 1 0 0 0 1 255 0 0 1 0 0 0 1 0 0 0 1 0 0 0 1 0 0 0 1 0 0 0 1
0 0 0 1 0 0 0 1 0 0 0 1 0 0 0 1 0 0 0 1 0 0 0 1 0 0 0 1 0 0 0 1 0 0
0 1 0 0 0 1 255 0 0 1 0 0 0 1 0 0 0 1 0 0 0 1 0 0 0 1 0 0 0 1 0 0 0
1 0 0 0 1 0 0 0 1 0 0 0 1 0 0 0 1 0 0 0 1 0 0 0 1 0 0 0 1 0 0 0 1 0
0 0 1 255 0 0 1 0 0 0 1 0 0 0 1 0 0 0 1 0 0 0 1 0 0 0 1 0 0 0 1 0 0
0 1 0 0 0 1 0 0 0 1 0 0 0 1 0 0 0 1 0 0 0 1 0 0 0 1 0 0 0 1 0 0 0 1
255 0 0 1 0 0 0 1 0 0 0 1 0 0 0 1 0 0 0 1 0 0 0 1 0 0 0 1 0 0 0 1 0
0 0 1 0 0 0 1 0 0 0 1 0 0 0 1 0 0 0 1 0 0 0 1 0 0 0 1 0 0 0 1 255 0
0 1 0 0 0 1 0 0 0 1 0 0 0 1 0 0 0 1 0 0 0 1 0 0 0 1 0 0 0 1 0 0 0 1
0 0 0 1 0 0 0 1 0 0 0 1 0 0 0 1 0 0 0 1 0 0 0 1 0 0 0 1 255 0 0 1 0
0 0 1 0 0 0 1 0 0 0 1 0 0 0 1 0 0 0 1 0 0 0 1 0 0 0 1 0 0 0 1 0 0 0
1 0 0 0 1 0 0 0 1 0 0 0 1 255 0 0 1 0 0 0 1 0 0 0 1 255 0 0 1 0 0 0
1 0 0 0 1 0 0 0 1 0 0 0 1 0 0 0 1 0 0 0 1 0 0 0 1 0 0 0 1 0 0 0 1 0
0 0 1 0 0 0 1 0 0 0 1 255 0 0 1 0 0 0 1 0 0 0 1 255 0 0 1 0 0 0 1 0
0 0 1 0 0 0 1 0 0 0 1 0 0 0 1 0 0 0 1 0 0 0 1 0 0 0 1 0 0 0 1 0 0 0
1 0 0 0 1 0 0 0 1 255 0 0 1 0 0 0 1 0 0 0 1 255 0 0 1 0 0 0 1 0 0 0
1 0 0 0 1 0 0 0 1 0 0 0 1 0 0 0 1 0 0 0 1 0 0 0 1 0 0 0 1 0 0 0 1 0
0 0 1 0 0 0 1 255 255 0 1 0 0 0 1 0 0 0 1 255 0 0 1 0 0 0 1 0 0 0 1
0 0 0 1 0 0 0 1 0 0 0 1 0 0 0 1 0 0 0 1 0 0 0 1 0 0 0 1 0 0 0 1 0 0
0 1 0 0 0 1 255 255 0 1 0 0 0 1 0 0 0 1 255 0 0 1 0 0 0 1 0 0 0 1 0
0 0 1 0 0 0 1 0 0 0 1 0 0 0 1 0 0 0 1 0 0 0 1 0 0 0 1 0 0 0 1 0 0 0
1 0 0 0 1 255 255 255 0 0 0 0 1 0 0 0 1 255 0 0 1 0 0 0 1 0 0 0 1 0
0 0 1 0 0 0 1 0 0 0 1 0 0 0 1 0 0 0 1 0 0 0 1 0 0 0 1 0 0 0 1 0 0 0
1 0 0 0 1 0 255 255 0 0 0 0 1 0 0 0 1 255 0 0 1 0 0 0 1 0 0 0 1 0 0
0 1 0 0 0 1 0 0 0 1 0 0 0 1 0 0 0 1 0 0 0 1 0 0 0 1 0 0 0 1 0 0 0 1
0 0 0 1 0 0 255 0 0 0 0 1 0 0 0 1 255 0 0 1 0 0 0 1 0 0 0 1 0 0 0 1
0 0 0 1 0 0 0 1 0 0 0 1 0 0 0 1 0 0 0 1 0 0 0 1 0 0 0 1 0 0 0 1 0 0
0 1 0 0 0 1 0 0 0 1 0 0 0 1 255 0 0 1 0 0 0 1 0 0 0 1 0 0 0 1 0 0 0
1 0 0 0 1 0 0 0 1 0 0 0 1 0 0 0 1 0 0 0 1 0 0 0 1 0 0 0 1 0 0 0 1 0
0 255 0 0 0 0 1 0 0 0 1 255 0 0 1 0 0 0 1 0 0 0 1 0 0 0 1 0 0 0 1 0
0 0 1 0 0 0 1 0 0 0 1 0 0 0 1 0 0 0 1 0 0 0 1 0 0 0 1 0 0 0 1 0 0 0
1 0 0 0 1 0 0 0 1 255 0 0 1 0 0 0 1 0 0 0 1 0 0 0 1 0 0 0 1 0 0 0 1
0 0 0 1 0 0 0 1 0 0 0 1 0 0 0 1 0 0 0 1 0 0 0 1 0 0 0 1 0 0 0 1 0 0
0 1 0 0 0 1 255 0 0 1 0 0 0 1 0 0 0 1 0 0 0 1 0 0 0 1 0 0 0 1 0 0 0
1 0 0 0 1 0 0 0 1 0 0 0 1 0 0 0 1 0 0 0 1 0 0 0 1 0 0 0 1 0 0 0 1 0
0 0 1 255 0 0 1 0 0 0 1 0 0 0 1 0 0 0 1 0 0 0 1 0 0 0 1 0 0 0 1 0 0
0 1 0 0 0 1 0 0 0 1 0 0 0 1 0 0 0 1 0 0 0 1 0 0 0 1 0 0 0 1 0 0 0 1
255 0 0 1 0 0 0 1 0 0 0 1 0 0 0 1 0 0 0 1 0 0 0 1 0 0 0 1 0 0 0 1 0
0 0 1 0 0 0 1 0 0 0 1 0 0 0 1 0 0 0 1 0 0 0 1 0 0 0 1 0 0 0 1 255 0
0 1 0 0 0 1 0 0 0 1 0 0 0 1 0 0 0 1 0 0 0 1 0 0 0 1 0 0 0 1 0 0 0 1
0 0 0 1 0 0 0 1 0 0 0 1 0 0 0 1 0 0 0 1 0 0 255 0 0 0 0 1 255 0 0 1
0 0 0 1 0 0 0 1 0 0 0 1 0 0 0 1 0 0 0 1 0 0 0 1 0 0 0 1 0 0 0 1 0 0
0 1 0 0 0 1 0 0 0 1 0 0 0 1 0 0 0 1 0 0 0 1 0 0 0 1 255 0 0 1 0 0 0
1 0 0 0 1 0 0 0 1 0 0 0 1 0 0 0 1 0 0 0 1 0 0 0 1 0 0 0 1 0 0 0 1 0
0 0 1 0 0 0 1 0 0 0 1 0 0 0 1 255 0 0 1 0 0 0 1 255 0 0 1 0 0 0 1 0
0 0 1 0 0 0 1 0 0 0 1 0 0 0 1 0 0 0 1 0 0 0 1 0 0 0 1 0 0 0 1 0 0 0
1 0 0 0 1 0 0 0 1 0 0 0 1 0 0 0 1 0 0 0 1 255 0 0 1 0 0 0 1 0 0 0 1
0 0 0 1 0 0 0 1 0 0 0 1 0 0 0 1 0 0 0 1 0 0 0 1 0 0 0 1 0 0 0 1 0 0
0 1 0 0 0 1 0 0 0 1 0 0 0 1 0 0 0 1 255 0 0 1 0 0 0 1 0 0 0 1 0 0 0
1 0 0 0 1 0 0 0 1 0 0 0 1 0 0 0 1 0 0 0 1 0 0 0 1 0 0 0 1 0 0 0 1 0
0 0 1 0 0 0 1 0 0 0 1 0 0 0 1 27 67 67 68 67 0 0 1 0 0 0 1 0 0 0 1
0 0 0 1 0 0 0 1 0 0 0 1 0 0 0 1 0 0 0 1 0 0 0 1 0 0 0 1 0 0 0 1 0 0
0 1 0 0 0 1 0 0 0 1 0 0 0 1 27 135 240 241 67 0 0 1 0 0 0 1 0 0 0 1
0 0 0 1 0 0 0 1 0 0 0 1 0 0 0 1 0 0 0 1 0 0 0 1 0 0 0 1 0 0 0 1 0 0
0 1 0 0 0 1 0 0 0 1 0 0 0 1 27 7 249 250 67 0 0 1 0 0 0 1 0 0 0 1 0
0 0 1 0 0 0 1 0 0 0 1 0 0 0 1 0 0 0 1 0 0 0 1 0 0 0 1 0 0 0 1 0 0 0
1 0 0 0 1 0 0 0 1 0 0 0 1 0 0 249 250 67 0 0 1 0 0 0 1 0 0 0 1 0 0
0 1 0 0 0 1 0 0 0 1 0 0 0 1 0 0 0 1 0 0 0 1 0 0 0 1 0 0 0 1 0 0 0 1
0 0 0 1 0 0 0 1 0 0 0 1 0 0 249 250 67 0 0 1 0 0 0 1 0 0 0 1 0 0 0
1 0 0 0 1 0 0 0 1 0 0 0 1 0 0 0 1 0 0 0 1 0 0 0 1 0 0 0 1 0 0 0 1 0
0 0 1 0 0 0 1 0 0 0 1 0 0 249 250 67 0 0 1 0 0 0 1 0 0 0 1 0 0 0 1
0 0 0 1 0 0 0 1 0 0 0 1 0 0 0 1 0 0 0 1 0 0 0 1 0 0 0 1 0 0 0 1 0 0
0 1 0 255 0 1 0 0 0 1 0 0 249 250 67 0 0 1 0 0 0 1 0 0 0 1 0 0 0 1
0 0 0 1 0 0 0 1 0 0 0 1 0 0 0 1 0 0 0 1 0 0 0 1 0 0 0 1 0 0 0 1 0 0
0 1 0 0 0 1 0 0 0 1 0 0 249 250 67 0 0 1 0 0 0 1 0 0 0 1 0 0 0 1 0
0 0 1 0 0 0 1 0 0 0 1 0 0 0 1 0 0 0 1 0 0 0 1 0 0 0 1 0 0 0 1 0 0 0
1 0 0 255 0 0 0 0 1 0 0 249 250 67 0 0 1 0 0 0 1 0 0 0 1 0 0 0 1 0
0 0 1 0 0 0 1 0 0 0 1 0 0 0 1 0 0 0 1 0 0 0 1 0 0 0 1 0 0 0 1 0 0 0
1 0 0 0 1 0 0 0 1 0 0 249 250 67 0 0 1 0 0 0 1 0 0 0 1 0 0 0 1 0 0
0 1 0 0 0 1 0 0 0 1 0 0 0 1 0 0 0 1 0 0 0 1 0 0 0 1 0 0 0 1 0 0 0 1
0 0 0 1 0 0 0 1 0 0 249 250 67 0 0 1 0 0 0 1 0 0 0 1 0 0 0 1 0 0 0
1 0 0 0 1 0 0 0 1 0 0 0 1 0 0 0 1 0 0 0 1 0 0 0 1 0 0 0 1 0 0 0 1 255
0 0 1 0 0 0 1 0 0 249 250 67 0 0 1 0 0 0 1 0 0 0 1 0 0 0 1 0 0 0 1
0 0 0 1 0 0 0 1 0 0 0 1 0 0 0 1 0 0 0 1 0 0 0 1 0 0 0 1 0 0 0 1 255
0 0 1 0 0 0 1 0 0 249 250 67 0 0 1 0 0 0 1 0 0 0 1 0 0 0 1 0 0 0 1
0 0 0 1 0 0 0 1 0 0 0 1 0 0 0 1 0 0 0 1 0 0 0 1 0 0 0 1 0 0 0 1 255
0 0 1 0 0 0 1 0 0 249 250 67 0 0 1 0 0 0 1 0 0 0 1 0 0 0 1 0 0 0 1
0 0 0 1 0 0 0 1 0 0 0 1 0 0 0 1 0 0 0 1 0 0 0 1 0 0 0 1 0 0 0 1 255
0 0 1 0 0 0 1 0 0 249 250 67 0 0 1 0 0 0 1 0 0 0 1 0 0 0 1 0 0 0 1
0 0 0 1 0 0 0 1 0 0 0 1 0 0 0 1 0 0 0 1 0 0 0 1 0 0 0 1 0 0 0 1 255
0 0 1 0 0 0 1 0 0 249 250 67 0 0 1 0 0 0 1 0 0 0 1 0 0 0 1 0 0 0 1
0 0 0 1 0 0 0 1 0 0 0 1 0 0 0 1 0 0 0 1 0 0 0 1 0 0 0 1 0 0 0 1 0 0
0 1 0 0 0 1 0 0 249 250 67 0 0 1 0 0 0 1 0 0 0 1 0 0 0 1 0 0 0 1 0
0 0 1 0 0 0 1 0 0 0 1 0 0 0 1 0 0 0 1 0 0 0 1 0 0 0 1 0 0 0 1 0 0 0
1 0 0 0 1 0 0 249 250 67 0 0 1 0 0 0 1 0 0 0 1 0 0 0 1 0 0 0 1 0 0
0 1 0 0 0 1 0 0 0 1 0 0 0 1 0 0 0 1 0 0 0 1 0 0 0 1 0 0 0 1 0 0 0 1
0 0 0 1 0 0 249 250 67 0 0 1 0 0 0 1 0 0 0 1 0 0 0 1 0 0 0 1 0 0 0
1 0 0 0 1 0 0 0 1 0 0 0 1 0 0 0 1 0 0 0 1 0 0 0 1 0 0 0 1 0 0 0 1 0
0 0 1 0 0 249 250 67 0 0 1 0 0 0 1 0 0 0 1 0 0 0 1 0 0 0 1 0 0 0 1
0 0 0 1 0 0 0 1 0 0 0 1 0 0 0 1 0 0 0 1 0 0 0 1 0 0 0 1 0 0 0 1 0 0
0 1 0 0 249 250 67 0 0 1 0 0 0 1 0 0 0 1 0 0 0 1 0 0 0 1 0 0 0 1 0
0 0 1 0 0 0 1 0 0 0 1 0 0 0 1 0 0 0 1 0 0 0 1 0 0 0 1 0 0 0 1 0 0 0
1 0 0 249 250 67 0 0 1 0 0 0 1 0 0 0 1 0 0 0 1 0 0 0 1 0 0 0 1 0 0
0 1 0 0 0 1 0 0 0 1 0 0 0 1 0 0 0 1 0 0 0 1 0 0 0 1 0 0 0 1 0 0 0 1
0 0 249 250 67 0 0 1 0 0 0 1 0 0 0 1 0 0 0 1 0 0 0 1 0 0 0 1 0 0 0
1 0 0 0 1 0 0 0 1 0 0 0 1 0 0 0 1 0 0 0 1 0 0 0 1 0 0 0 1 255 0 0 1
0 0 249 250 67 0 0 1 0 0 0 1 0 0 0 1 0 0 0 1 0 0 0 1 0 0 0 1 0 0 0
1 0 0 0 1 0 0 0 1 0 0 0 1 0 0 0 1 0 0 0 1 0 0 0 1 0 0 0 1 255 255 0
1 0 0 249 250 67 0 0 1 0 0 0 1 0 0 0 1 0 0 0 1 0 0 0 1 0 0 0 1 0 0
0 1 0 0 0 1 0 0 0 1 0 0 0 1 0 0 0 1 0 0 0 1 0 0 0 1 0 0 0 1 255 255
255 0 0 0 249 250 67 0 0 1 0 0 0 1 0 0 0 1 0 0 0 1 0 0 0 1 0 0 0 1
0 0 0 1 0 0 0 1 0 0 0 1 0 0 0 1 0 0 0 1 0 0 0 1 0 0 0 1 0 0 0 1 255
255 255 0 0 0 249 250 67 0 0 1 0 0 0 1 0 0 0 1 0 0 0 1 0 0 0 1 0 0
0 1 0 0 0 1 0 0 0 1 0 0 0 1 0 0 0 1 0 0 0 1 0 0 0 1 0 0 0 1 0 0 0 1
255 255 255 0 0 0 249 250 67 0 0 1 0 0 0 1 0 0 0 1 0 0 0 1 0 0 0 1
0 0 0 1 0 0 0 1 0 0 0 1 0 0 0 1 0 0 0 1 0 0 0 1 0 0 0 1 0 0 0 1 0 0
0 1 0 255 255 0 0 0 249 250 67 0 0 1 0 0 0 1 0 0 0 1 0 0 0 1 0 0 0
1 0 0 0 1 0 0 0 1 0 0 0 1 0 0 0 1 0 0 0 1 0 0 0 1 0 0 0 1 0 0 0 1 0
0 0 1 0 0 255 0 0 0 249 250 67 0 0 1 0 0 0 1 0 0 0 1 0 0 0 1 0 0 0
1 0 0 0 1 0 0 0 1 0 0 0 1 0 0 0 1 0 0 0 1 0 0 0 1 0 0 0 1 0 0 0 1 0
0 0 1 0 0 0 1 0 0 249 250 67 0 0 1 0 0 0 1 0 0 0 1 0 0 0 1 0 0 0 1
0 0 0 1 0 0 0 1 0 0 0 1 0 0 0 1 0 0 0 1 0 0 0 1 0 0 0 1 0 0 0 1 0 0
0 1 0 0 0 1 0 0 249 250 67 0 0 1 0 0 0 1 0 0 0 1 0 0 0 1 0 0 0 1 0
0 0 1 0 0 0 1 0 0 0 1 0 0 0 1 0 0 0 1 0 0 0 1 0 0 0 1 0 0 0 1 0 0 0
1 0 0 0 1 0 0 249 250 67 0 0 1 0 0 0 1 0 0 0 1 0 0 0 1 0 0 0 1 0 0
0 1 0 0 0 1 0 0 0 1 0 0 0 1 0 0 0 1 0 0 0 1 0 0 0 1 0 0 0 1 0 0 0 1
0 0 0 1 0 0 249 250 67 0 0 1 0 0 0 1 0 0 0 1 0 0 0 1 0 0 0 1 0 0 0
1 0 0 0 1 0 0 0 1 0 0 0 1 0 0 0 1 0 0 0 1 0 0 0 1 0 0 0 1 0 0 0 1 0
0 0 1 0 0 249 250 67 0 0 1 0 0 0 1 0 0 0 1 0 0 0 1 0 0 0 1 0 0 0 1
0 0 0 1 0 0 0 1 0 0 0 1 0 0 0 1 0 0 0 1 0 0 0 1 0 0 0 1 0 0 0 1 0 0
0 1 0 0 249 250 67 0 0 1 0 0 0 1 0 0 0 1 0 0 0 1 0 0 0 1 0 0 0 1 0
0 0 1 0 0 0 1 0 0 0 1 0 0 0 1 0 0 0 1 0 0 0 1 0 0 0 1 0 0 0 1 0 0 0
1 0 0 249 250 67 0 0 1 0 0 0 1 0 0 0 1 0 0 0 1 0 0 0 1 0 0 0 1 0 0
0 1 0 0 0 1 0 0 0 1 0 0 0 1 0 0 0 1 0 0 0 1 0 0 0 1 0 0 0 1 0 0 0 1
0 0 0 1 0 0 0 1 0 0 0 1 0 0 0 1 0 0 0 1 0 0 0 1 0 0 0 1 0 0 0 1 0 0
0 1 0 0 0 1 0 0 0 1 0 0 0 1 0 0 0 1 0 0 0 1 0 0 0 1 0 0 0 1 0 0 0 1
0 0 0 1 0 0 0 1 0 0 0 1 0 0 0 1 0 0 0 1 0 0 0 1 0 0 0 1 0 0 0 1 0 0
0 1 0 0 0 1 0 0 0 1 0 0 0 1 0 0 0 1 0 0 0 1 0 0 0 1 0 0 0 1 0 0 0 1
0 0 0 1 0 0 0 1 0 0 0 1 0 0 0 1 0 0 0 1 0 0 0 1 0 0 0 1 0 0 0 1 0 0
0 1 0 0 0 1 0 0 0 1 0 0 0 1 0 0 0 1 0 0 0 1 0 0 0 1 0 0 0 1 0 0 0 1
0 0 0 1 0 0 0 1 0 0 0 1 0 0 0 1 0 0 0 1 0 0 0 1 0 0 0 1 0 0 0 1 0 0
0 1 0 0 0 1 0 0 0 1 0 0 0 1 0 0 0 1 0 0 0 1 0 0 0 1 0 0 0 1 0 0 0 1
0 0 0 1 0 0 0 1 0 0 0 1 0 0 0 1 0 0 0 1 0 0 0 1 0 0 0 1 0 0 0 1 0 0
0 1 0 0 0 1 0 0 0 1 0 0 0 1 0 0 0 1 0 0 0 1 0 0 0 1 0 0 0 1 0 0 0 1
0 0 0 1 0 0 0 1 0 0 0 1 0 0 0 1 0 0 0 1 0 0 0 1 0 0 0 1 0 0 0 1 0 0
0 1 0 0 0 1 0 0 0 1 0 0 0 1 0 0 0 1 0 0 0 1 0 0 0 1 0 0 0 1 0 0 0 1
0 0 0 1 0 0 0 1 0 0 0 1 0 0 0 1 0 0 0 1 0 0 0 1 0 0 0 1 0 0 0 1 0 0
0 1 0 0 0 1 0 0 0 1 0 0 0 1 0 0 0 1 0 0 0 1 0 0 0 1 0 0 0 1 0 0 0 1
0 0 0 1 0 0 0 1 0 0 0 1 0 0 0 1 0 0 0 1 0 0 0 1 0 0 0 1 0 0 0 1 0 0
0 1 0 0 0 1 0 0 0 1 0 0 0 1 0 0 0 1 0 0 0 1 0 0 0 1 0 0 0 1 0 0 0 1
0 0 0 1 0 0 0 1 0 0 0 1 0 0 0 1 0 0 0 1 0 0 0 1 0 0 0 1 0 0 0 1 0 0
0 1 0 0 0 1 0 0 0 1 0 0 0 1 0 0 0 1 0 0 0 1 0 0 0 1 0 0 0 1 0 0 0 1
0 0 0 1 0 0 0 1 0 0 0 1 0 0 0 1 0 0 0 1 0 0 0 1 0 0 0 1 0 0 0 1 0 0
0 1 0 0 0 1 0 0 0 1 0 0 0 1 0 0 0 1 0 0 0 1 0 0 0 1 0 0 0 1 0 0 0 1
0 0 0 1 0 0 0 1 0 0 0 1 0 0 0 1 0 0 0 1 0 0 0 1 0 0 0 1 0 0 0 1 0 0
0 1 0 0 0 1 0 0 0 1 0 0 0 1 0 0 0 1 0 0 0 1 0 0 0 1 0 0 0 1 0 0 0 1
0 0 0 1 0 0 0 1 0 0 0 1 0 0 0 1 0 0 0 1 0 0 0 1 0 0 0 1 0 0 0 1 0 0
0 1 0 0 0 1 0 0 0 1 0 0 0 1 0 0 0 1 0 0 0 1 0 0 0 1 0 0 0 1 0 0 0 1
0 0 0 1 0 0 0 1 0 0 0 1 0 0 0 1 0 0 0 1 0 0 0 1 0 0 0 1 0 0 0 1 0 0
0 1 0 0 0 1 0 0 0 1 0 0 0 1 0 0 0 1 0 0 0 1 0 0 0 1 0 0 0 1 0 0 0 1
0 0 0 1 0 0 0 1 0 0 0 1 0 0 0 1 0 0 0 1 0 0 0 1 0 0 0 1 0 0 0 1 0 0
0 1 0 0 0 1 0 0 0 1 0 0 0 1 0 0 0 1 0 0 0 1 0 0 0 1 0 0 0 1 0 0 0 1
0 0 0 1 0 0 0 1 0 0 0 1 0 0 0 1 0 0 0 1 0 0 0 1 0 0 0 1 0 0 0 1 0 0
0 1 0 0 0 1 0 0 0 1 0 0 0 1 0 0 0 1 0 0 0 1 0 0 0 1 0 0 0 1 0 0 0 1
0 0 0 1 0 0 0 1 0 0 0 1 0 0 0 1 0 0 0 1 0 0 0 1 0 0 0 1 0 0 0 1 0 0
0 1 0 0 0 1 0 0 0 1 0 0 0 1 0 0 0 1 0 0 0 1 0 0 0 1 0 0 0 1 0 0 0 1
255 0 0 1 0 0 0 1 0 0 0 1 0 0 0 1 0 0 0 1 0 0 0 1 0 0 0 1 0 0 0 1 0
0 0 1 0 0 0 1 0 0 0 1 0 0 0 1 0 0 0 1 0 0 0 1 0 0 0 1 0 0 0 1 255 0
0 1 0 0 0 1 0 0 0 1 0 0 0 1 0 0 0 1 0 0 0 1 0 0 0 1 0 0 0 1 0 0 0 1
0 0 0 1 0 0 0 1 0 0 0 1 0 0 0 1 0 0 0 1 0 0 0 1 0 0 0 1 255 0 0 1 0
0 0 1 0 0 0 1 0 0 0 1 0 0 0 1 0 0 0 1 0 0 0 1 0 0 0 1 0 0 0 1 0 0 0
1 0 0 0 1 0 0 0 1 0 0 0 1 0 0 0 1 0 0 0 1 0 0 0 1 255 255 0 1 0 0 0
1 0 0 0 1 0 0 0 1 0 0 0 1 0 0 0 1 0 0 0 1 0 0 0 1 0 0 0 1 0 0 0 1 0
0 0 1 0 0 0 1 0 0 0 1 0 0 0 1 0 0 0 1 0 0 0 1 255 255 0 1 0 0 0 1 0
0 0 1 0 0 0 1 0 0 0 1 0 0 0 1 0 0 0 1 0 0 0 1 0 0 0 1 0 0 0 1 0 0 0
1 0 0 0 1 0 0 0 1 0 0 0 1 0 0 0 1 0 0 0 1 255 255 0 1 0 0 0 1 0 0 0
1 0 0 0 1 0 0 0 1 0 0 0 1 0 0 0 1 0 0 0 1 0 0 0 1 0 0 0 1 0 0 0 1 0
0 0 1 0 0 0 1 0 0 0 1 0 0 0 1 0 0 0 1 255 0 0 1 0 0 0 1 0 0 0 1 0 0
0 1 0 0 0 1 0 0 0 1 0 0 0 1 0 0 0 1 0 0 0 1 0 0 0 1 0 0 0 1 0 0 0 1
0 0 0 1 0 0 0 1 0 0 0 1 0 0 0 1 255 0 0 1 0 0 0 1 0 0 0 1 0 0 0 1 0
0 0 1 0 0 0 1 0 0 0 1 0 0 0 1 0 0 0 1 0 0 0 1 0 0 0 1 0 0 0 1 0 0 0
1 0 0 0 1 0 0 0 1 0 0 0 1 255 0 0 1 0 0 0 1 0 0 0 1 0 0 0 1 0 0 0 1
0 0 0 1 0 0 0 1 0 0 0 1 0 0 0 1 0 0 0 1 0 0 0 1 0 0 0 1 0 0 0 1 0 0
0 1 0 0 0 1 0 0 0 1 255 0 0 1 0 0 0 1 0 0 0 1 0 0 0 1 0 0 0 1 0 0 0
1 0 0 0 1 0 0 0 1 0 0 0 1 0 0 0 1 0 0 0 1 0 0 0 1 0 0 0 1 0 0 0 1 0
0 0 1 0 0 0 1 255 0 0 1 0 0 0 1 0 0 0 1 0 0 0 1 0 0 0 1 0 0 0 1 0 0
0 1 0 0 0 1 0 0 0 1 0 0 0 1 0 0 0 1 0 0 0 1 0 0 0 1 0 0 0 1 0 0 0 1
0 0 0 1 255 0 0 1 0 0 0 1 0 0 0 1 0 0 0 1 0 0 0 1 0 0 0 1 0 0 0 1 0
0 0 1 0 0 0 1 0 0 0 1 0 0 0 1 0 0 0 1 0 0 0 1 0 0 0 1 0 0 0 1 0 0 0
1 255 0 0 1 0 0 0 1 0 0 0 1 0 0 0 1 0 0 0 1 0 0 0 1 0 0 0 1 0 0 0 1
0 0 0 1 0 0 0 1 0 0 0 1 0 0 0 1 0 0 0 1 0 0 0 1 0 0 0 1 0 0 0 1 255
0 0 1 0 0 0 1 0 0 0 1 0 0 0 1 0 0 0 1 0 0 0 1 0 0 0 1 0 0 0 1 0 0 0
1 0 0 0 1 0 0 0 1 0 0 0 1 0 0 0 1 0 0 0 1 0 0 0 1 0 0 0 1 255 0 0 1
0 0 0 1 0 0 0 1 0 0 0 1 0 0 0 1 0 0 0 1 0 0 0 1 0 0 0 1 0 0 0 1 0 0
0 1 0 0 0 1 0 0 0 1 0 0 0 1 0 0 0 1 0 0 0 1 0 0 0 1 255 0 0 1 0 255
0 1 0 0 0 1 0 0 0 1 0 0 0 1 0 0 0 1 0 0 0 1 0 0 0 1 0 0 0 1 0 0 0 1
0 0 0 1 0 0 0 1 0 0 0 1 0 0 0 1 0 0 0 1 0 0 0 1 255 0 0 1 255 0 0 1
255 0 0 1 255 0 0 1 255 0 0 1 255 0 0 1 253 0 0 1 255 0 0 1 255 0 0
1 255 0 0 1 254 0 0 1 255 0 0 1 255 0 0 1 255 0 0 1 255 0 0 1 255 0
0 1 255 0 0 1 255 0 0 1 255 0 0 1 255 0 0 1 255 0 0 1 255 0 0 1 253
0 0 1 255 0 0 1 255 0 0 1 255 0 0 1 254 0 0 1 255 0 0 1 255 0 0 1 255
0 0 1 255 0 0 1 255 0 0 1 255 0 0 1 255 0 0 1 255 0 0 1 255 0 0 1 255
0 0 1 255 0 0 1 253 0 0 1 255 0 0 1 255 0 0 1 255 0 0 1 254 0 0 1 255
0 0 1 255 0 0 1 255 0 0 1 255 0 0 1 255 0 0 1 255 0 0 1 255 0 0 1 255
0 0 1 255 0 0 1 255 0 0 1 255 0 0 1 253 0 0 1 255 0 0 1 255 0 0 1 255
0 0 1 254 0 0 1 255 0 0 1 255 0 0 1 255 0 0 1 255 0 0 1 255 0 0 1 255
0 0 1 255 0 0 1 255 0 0 1 255 0 0 1 255 0 0 1 255 0 0 1 253 0 0 1 255
0 0 1 255 0 0 1 255 0 0 1 254 0 0 1 255 0 0 1 255 0 0 1 255 0 0 1 255
0 0 1 255 0 0 1 255 0 0 1 255 0 0 1 255 0 0 1 255 0 0 1 255 0 0 1 255
0 0 1 253 0 0 1 255 0 0 1 255 0 0 1 255 0 0 1 254 0 0 1 255 0 0 1 255
0 0 1 255 0 0 1 255 0 0 1 255 0 0 1 255 0 0 1 255 0 0 1 255 0 0 1 255
0 0 1 255 0 0 1 255 0 0 1 253 0 0 1 255 0 0 1 255 0 0 1 255 0 0 1 254
0 0 1 255 0 0 1 255 0 0 1 255 0 0 1 255 0 0 1 255 0 0 1 255 0 0 1 255
0 0 1 255 0 0 1 255 0 0 1 255 0 0 1 255 0 0 1 253 0 0 1 255 0 0 1 255
0 0 1 255 0 0 1 254 0 0 1 255 0 0 1 255 0 0 1 255 0 0 1 255 0 0 1 255
0 0 1 255 0 0 1 255 0 0 1 255 0 0 1 255 0 0 1 255 0 0 1 255 0 0 1 253
0 0 1 255 0 0 1 255 0 0 1 255 0 0 1 254 0 0 1 255 0 0 1 255 0 0 1 255
0 0 1 255 0 0 1 255 0 0 1 255 0 0 1 255 0 0 1 255 0 0 1 255 0 0 1 255
0 0 1 255 0 0 1 253 0 0 1 255 0 0 1 255 0 0 1 255 0 0 1 254 0 0 1 255
0 0 1 255 0 0 1 255 0 0 1 255 0 0 1 255 0 0 1 255 0 0 1 255 0 0 1 255
0 0 1 255 0 0 1 255 0 0 1 255 0 0 1 253 0 0 1 255 0 0 1 255 0 0 1 255
0 0 1 254 0 0 1 255 0 0 1 255 0 0 1 255 0 0 1 255 0 0 1 255 0 0 1 255
0 0 1 255 0 0 1 255 0 0 1 255 0 0 1 255 0 0 1 255 0 0 1 253 0 0 1 255
0 0 1 255 0 0 1 255 0 0 1 254 0 0 1 255 0 0 1 255 0 0 1 255 0 0 1 255
0 0 1 255 0 0 1 255 0 0 1 255 0 0 1 255 0 0 1 255 0 0 1 255 0 0 1 255
0 0 1 253 0 0 1 255 0 0 1 255 0 0 1 255 0 0 1 254 0 0 1 255 0 0 1 255
0 0 1 255 0 0 1 255 0 0 1 255 0 0 1 255 0 0 1 255 0 0 1 255 0 0 1 255
0 0 1 255 0 0 1 255 0 0 1 253 0 0 1 255 0 0 1 255 0 0 1 255 0 0 1 254
0 0 1 255 0 0 1 255 0 0 1 255 0 0 1 255 0 0 1 255 0 0 1 255 0 0 1 255
0 0 1 255 0 0 1 255 0 0 1 255 0 0 1 255 0 0 1 253 0 0 1 255 0 0 1 255
0 0 1 255 0 0 1 254 0 0 1 255 0 0 1 255 0 0 1 255 0 0 1 255 0 0 1 255
0 0 1 255 0 0 1 255 0 0 1 255 0 0 1 255 0 0 1 255 0 0 1 255 0 0 1 253
0 0 1 255 0 0 1 255 0 0 1 255 0 0 1 254 0 0 1 255 0 0 1 255 0 0 1 255
0 0 1 255 0 0 1 255 0 0 1 255 0 0 1 255 0 0 1 255 0 0 1 255 0 0 1 255
0 0 1 255 0 0 1 253 0 0 1 255 0 0 1 255 0 0 1 255 0 0 1 254 0 0 1 255
0 0 1 255 0 0 1 255 0 0 1 255 0 0 1 255 0 0 1 255 0 0 1 255 0 0 1 255
0 0 1 255 0 0 1 255 0 0 1 255 0 0 1 253 0 0 1 255 0 0 1 255 0 0 1 255
0 0 1 254 0 0 1 255 0 0 1 255 0 0 1 255 0 0 1 255 0 0 1 255 0 0 1 255
0 0 1 255 0 0 1 255 0 0 1 255 0 0 1 255 0 0 1 255 0 0 1 253 0 0 1 255
0 0 1 255 0 0 1 255 0 0 1 254 0 0 1 255 0 0 1 255 0 0 1 255 0 0 1 255
0 0 1 255 0 0 1 255 0 0 1 255 0 0 1 255 0 0 1 255 0 0 1 255 0 0 1 255
0 0 1 253 0 0 1 255 0 0 1 255 0 0 1 255 0 0 1 254 0 0 1 255 0 0 1 255
0 0 1 255 0 0 1 255 0 0 1 255 0 0 1 255 0 0 1 255 0 0 1 255 0 0 1 255
0 0 1 255 0 0 1 255 0 0 1 253 0 0 1 255 0 0 1 255 0 0 1 255 0 0 1 254
0 0 1 255 0 0 1 255 0 0 1 255 0 0 1 255 0 0 1 255 0 0 1 255 0 0 1 255
0 0 1 255 0 0 1 255 0 0 1 255 0 0 1 255 0 0 1 253 0 0 1 255 0 0 1 255
0 0 1 255 0 0 1 254 0 0 1 255 0 0 1 255 0 0 1 255 0 0 1 255 0 0 1 255
0 0 1 255 0 0 1 255 0 0 1 255 0 0 1 255 0 0 1 255 0 0 1 255 0 0 1 253
0 0 1 255 0 0 1 255 0 0 1 255 0 0 1 254 0 0 1 255 0 0 1 255 0 0 1 255
0 0 1 255 0 0 1 255 0 0 1 255 0 0 1 255 0 0 1 255 0 0 1 255 0 0 1 255
0 0 1 255 0 0 1 253 0 0 1 255 0 0 1 255 0 0 1 255 0 0 1 254 0 0 1 255
0 0 1 255 0 0 1 255 0 0 1 255 0 0 1 255 0 0 1 255 0 0 1 255 0 0 1 255
0 0 1 255 0 0 1 255 0 0 1 255 0 0 1 253 0 0 1 255 0 0 1 255 0 0 1 255
0 0 1 254 0 0 1 255 0 0 1 255 0 0 1 255 0 0 1 255 0 0 1 255 0 0 1 255
0 0 1 255 0 0 1 255 0 0 1 255 0 0 1 255 0 0 1 255 0 0 1 253 0 0 1 255
0 0 1 255 0 0 1 255 0 0 1 254 0 0 1 255 0 0 1 255 0 0 1 255 0 0 1 255
0 0 1 255 0 0 1 255 0 0 1 0 0 0 1 0 0 0 1 0 0 0 1 0 0 0 1 0 0 0 1 0
0 0 1 0 0 0 1 0 0 0 1 0 0 0 1 0 0 0 1 0 0 0 1 0 0 0 1 0 0 0 1 0 0 0
1 0 0 0 1 0 0 0 1 0 0 0 1 0 0 0 1 0 0 0 1 0 0 0 1 0 0 0 1 0 0 0 1 0
0 0 1 0 0 0 1 0 0 0 1 0 0 0 1 0 0 0 1 0 0 0 1 0 0 0 1 0 0 0 1 0 0 0
1 0 0 0 1 0 0 0 1 0 0 0 1 0 0 0 1 0 0 0 1 0 0 0 1 0 0 0 1 0 0 0 1 0
0 0 1 0 0 0 1 0 0 0 1 0 0 0 1 0 0 0 1 0 0 0 1 0 0 0 1 0 0 0 1 0 255
0 1 0 255 0 1 0 255 0 1 0 255 0 1 0 255 0 1 0 255 0 1 0 255 0 1 0 255
0 1 0 255 0 1 0 255 0 1 0 255 0 1 0 255 0 1 0 255 0 1 0 255 0 1 0 255
0 1 0 255 0 1 0 255 0 1 0 255 0 1 0 255 0 1 0 255 0 1 0 255 0 1 0 255
0 1 0 255 0 1 0 255 0 1 0 255 0 1 0 255 0 1 0 255 0 1 0 255 0 1 0 255
0 1 0 255 0 1 0 255 0 1 0 255 0 1 0 255 0 1 0 255 0 1 0 255 0 1 0 255
0 1 0 255 0 1 0 255 0 1 0 255 0 1 0 255 0 1 0 255 0 1 0 255 0 1 0 255
0 1 0 255 0 1 0 255 0 1 0 255 0 1 0 255 0 1 0 255 0 1 0 255 0 1 0 255
0 1 0 255 0 1 0 255 0 1 0 255 0 1 0 255 0 1 0 255 0 1 0 255 0 1 0 255
0 1 0 255 0 1 0 255 0 1 0 255 0 1 0 255 0 1 0 255 0 1 0 255 0 1 0 255
0 1 0 255 0 1 0 255 0 1 0 255 0 1 0 255 0 1 0 255 0 1 0 255 0 1 0 255
0 1 0 255 0 1 0 255 0 1 0 255 0 1 0 255 0 1 0 255 0 1 0 255 0 1 0 255
0 1 0 255 0 1 0 255 0 1 0 255 0 1 0 255 0 1 0 255 0 1 0 255 0 1 0 255
0 1 0 255 0 1 0 255 0 1 0 255 0 1 0 255 0 1 0 255 0 1 0 255 0 1 0 255
0 1 0 255 0 1 0 255 0 1 0 255 0 1 0 255 0 1 0 255 0 1 0 255 0 1 0 255
0 1 0 255 0 1 0 255 0 1 0 255 0 1 0 255 0 1 0 255 0 1 0 255 0 1 0 255
0 1 0 255 0 1 0 255 0 1 0 255 0 1 0 255 0 1 0 255 0 1 0 255 0 1 0 255
0 1 0 255 0 1 0 255 0 1 0 255 0 1 0 255 0 1 0 255 0 1 0 255 0 1 0 255
0 1 0 255 0 1 0 255 0 1 0 255 0 1 0 255 0 1 0 255 0 1 0 255 0 1 0 255
0 1 0 255 0 1 0 255 0 1 0 255 0 1 0 255 0 1 0 255 0 1 0 255 0 1 0 255
0 1 0 255 0 1 0 255 0 1 0 255 0 1 0 255 0 1 0 255 0 1 0 255 0 1 0 255
0 1 0 255 0 1 0 255 0 1 0 255 0 1 0 255 0 1 0 255 0 1 0 255 0 1 0 255
0 1 0 255 0 1 0 255 0 1 0 255 0 1 0 255 0 1 0 255 0 1 0 255 0 1 0 255
0 1 0 255 0 1 0 255 0 1 0 255 0 1 0 255 0 1 0 255 0 1 0 255 0 1 0 255
0 1 0 255 0 1 0 255 0 1 0 255 0 1 0 255 0 1 0 255 0 1 0 255 0 1 0 255
0 1 0 255 0 1 0 255 0 1 0 255 0 1 0 255 0 1 0 255 0 1 0 255 0 1 0 255
0 1 0 255 0 1 0 255 0 1 0 255 0 1 0 255 0 1 0 255 0 1 0 255 0 1 0 255
0 1 0 255 0 1 0 255 0 1 0 255 0 1 0 255 0 1 0 255 0 1 0 255 0 1 0 255
0 1 0 255 0 1 0 255 0 1 0 255 0 1 0 255 0 1 0 255 0 1 0 255 0 1 0 255
0 1 0 255 0 1 0 255 0 1 0 255 0 1 0 255 0 1 0 255 0 1 0 255 0 1 0 255
0 1 0 255 0 1 0 255 0 1 0 255 0 1 0 255 0 1 0 255 0 1 0 255 0 1 0 255
0 1 0 255 0 1 0 255 0 1 0 255 0 1 0 255 0 1 0 255 0 1 0 255 0 1 0 255
0 1 0 255 0 1 0 255 0 1 0 255 0 1 0 255 0 1 0 255 0 1 0 255 0 1 0 255
0 1 0 255 0 1 0 255 0 1 0 255 0 1 0 255 0 1 0 255 0 1 0 255 0 1 0 255
0 1 0 255 0 1 0 255 0 1 0 255 0 1 0 255 0 1 0 255 0 1 0 255 0 1 0 255
0 1 0 255 0 1 0 255 0 1 0 255 0 1 0 255 0 1 0 255 0 1 0 255 0 1 0 255
0 1 0 255 0 1 0 255 0 1 0 255 0 1 0 255 0 1 0 255 0 1 0 255 0 1 0 255
0 1 0 255 0 1 0 255 0 1 0 255 0 1 0 255 0 1 0 255 0 1 0 255 0 1 0 255
0 1 0 255 0 1 0 255 0 1 0 255 0 1 0 255 0 1 0 255 0 1 0 255 0 1 0 255
0 1 0 255 0 1 0 255 0 1 0 255 0 1 0 255 0 1 0 255 0 1 0 255 0 1 0 255
0 1 0 255 0 1 0 255 0 1 0 255 0 1 0 255 0 1 0 255 0 1 0 255 0 1 0 255
0 1 0 255 0 1 0 255 0 1 0 255 0 1 0 255 0 1 0 255 0 1 0 255 0 1 0 255
0 1 0 255 0 1 0 255 0 1 0 255 0 1 0 255 0 1 0 255 0 1 0 255 0 1 0 255
0 1 0 255 0 1 0 255 0 1 0 255 0 1 0 255 0 1 0 255 0 1 0 255 0 1 0 255
0 1 0 255 0 1 0 255 0 1 0 255 0 1 0 255 0 1 0 255 0 1 0 255 0 1 0 255
0 1 0 255 0 1 0 255 0 1 0 255 0 1 0 255 0 1 0 255 0 1 0 255 0 1 0 255
0 1 0 255 0 1 0 255 0 1 0 255 0 1 0 255 0 1 0 255 0 1 0 255 0 1 0 255
0 1 0 255 0 1 0 255 0 1 0 255 0 1 0 255 0 1 0 255 0 1 0 255 0 1 0 255
0 1 0 255 0 1 0 255 0 1 0 255 0 1 0 255 0 1 0 255 0 1 0 255 0 1 0 255
0 1 0 255 0 1 0 255 0 1 0 255 0 1 0 255 0 1 0 255 0 1 0 255 0 1 0 255
0 1 0 255 0 1 0 255 0 1 0 255 0 1 0 255 0 1 0 255 0 1 0 255 0 1 0 255
0 1 0 255 0 1 0 255 0 1 0 255 0 1 0 255 0 1 0 255 0 1 0 255 0 1 0 255
0 1 0 255 0 1 0 255 0 1 0 255 0 1 0 255 0 1 0 255 0 1 0 255 0 1 0 255
0 1 0 255 0 1 0 255 0 1 0 255 0 1 0 255 0 1 0 255 0 1 0 255 0 1 0 255
0 1 0 255 0 1 0 255 0 1 0 255 0 1 0 255 0 1 0 255 0 1 0 255 0 1 0 255
0 1 0 255 0 1 0 255 0 1 0 255 0 1 0 255 0 1 0 255 0 1 0 255 0 1 0 255
0 1 0 255 0 1 0 255 0 1 0 255 0 1 0 255 0 1 0 255 0 1 0 255 0 1 0 255
0 1 0 255 0 1 0 255 0 1 0 255 0 1 0 255 0 1 0 255 0 1 0 255 0 1 0 255
0 1 0 255 0 1 0 255 0 1 0 255 0 1 0 255 0 1 0 255 0 1 0 255 0 1 0 255
0 1 0 255 0 1 0 255 0 1 0 255 0 1 0 255 0 1 0 255 0 1 0 255 0 1 0 255
0 1 0 255 0 1 0 255 0 1 0 5 4 5 2 1 0 1 0 0 0 1 0 0 0 1 0 0 0 1 0 0
0 1 0 0 0 1 0 0 0 1 0 0 0 1 0 0 0 1 0 0 0 1 0 0 0 1 0 0 0 1 0 0 0 1
0 0 0 1 0 0 0 1 0 5 4 5 2 1 0 1 0 0 0 1 0 0 0 1 0 0 0 1 0 0 0 1 0 0
0 1 0 0 0 1 0 0 0 1 0 0 0 1 0 0 0 1 0 0 0 1 0 0 0 1 0 0 0 1 0 0 0 1
0 0 0 1 0 5 4 5 2 1 0 1 0 0 0 1 0 0 0 1 0 0 0 1 0 0 0 1 0 0 0 1 0 0
0 1 0 0 0 1 0 0 0 1 0 0 0 1 0 0 0 1 0 0 0 1 0 0 0 1 0 0 0 1 0 0 0 1
0 5 4 5 2 1 0 1 0 0 0 1 0 0 0 1 0 0 0 1 0 0 0 1 0 0 0 1 0 0 0 1 0 0
0 1 0 0 0 1 0 0 0 1 0 0 0 1 0 0 0 1 0 0 0 1 0 0 0 1 0 0 0 1 0 5 4 5
2 1 0 1 0 0 0 1 0 0 0 1 0 0 0 1 0 0 0 1 0 0 0 1 0 0 0 1 0 0 0 1 0 0
0 1 0 0 0 1 0 0 0 1 0 0 0 1 0 0 0 1 0 0 0 1 0 0 0 1 255 5 4 5 2 1 0
1 0 0 0 1 0 0 0 1 0 0 0 1 0 0 0 1 0 0 0 1 0 0 0 1 0 0 0 1 0 0 0 1 0
0 0 1 0 0 0 1 0 0 0 1 0 0 0 1 0 0 0 1 0 0 0 1 255 5 4 5 255 1 0 1 255
0 0 1 255 0 0 1 255 0 0 1 255 0 0 1 255 0 0 1 255 0 0 1 255 0 0 1 255
0 0 1 255 0 0 1 255 0 0 1 255 0 0 1 255 0 0 1 255 0 0 1 255 0 0 1 255
5 4 5 255 1 0 1 255 0 0 1 255 0 0 1 255 0 0 1 255 0 0 1 255 0 0 1 255
0 0 1 255 0 0 1 255 0 0 1 255 0 0 1 255 0 0 1 255 0 0 1 255 0 0 1 255
0 0 1 255 0 0 1 255 5 4 5 255 1 0 1 255 0 0 1 255 0 0 1 255 0 0 1 255
0 0 1 255 0 0 1 255 0 0 1 255 0 0 1 255 0 0 1 255 0 0 1 255 0 0 1 255
0 0 1 255 0 0 1 255 0 0 1 255 0 0 1 255 5 4 5 255 1 0 1 255 0 0 1 255
0 0 1 255 0 0 1 255 0 0 1 255 0 0 1 255 0 0 1 255 0 0 1 255 0 0 1 255
0 0 1 255 0 0 1 255 0 0 1 255 0 0 1 255 0 0 1 255 0 0 1 255 5 4 5 255
1 0 1 255 0 0 1 255 0 0 1 255 0 0 1 255 0 0 1 255 0 0 1 255 0 0 1 255
0 0 1 255 0 0 1 255 0 0 1 255 0 0 1 255 0 0 1 255 0 0 1 255 0 0 1 255
0 0 1 255 5 4 5 255 1 0 1 255 0 0 1 255 0 0 1 255 0 0 1 255 0 0 1 255
0 0 1 255 0 0 1 255 0 0 1 255 0 0 1 255 0 0 1 255 0 0 1 255 0 0 1 255
0 0 1 255 0 0 1 255 0 0 1 255 5 4 5 255 1 0 1 255 0 0 1 255 0 0 1 255
0 0 1 255 0 0 1 255 0 0 1 255 0 0 1 255 0 0 1 255 0 0 1 255 0 0 1 255
0 0 1 255 0 0 1 255 0 0 1 255 0 0 1 255 0 0 1 255 5 4 5 255 1 0 1 255
0 0 1 255 0 0 1 255 0 0 1 255 0 0 1 255 0 0 1 255 0 0 1 255 0 0 1 255
0 0 1 255 0 0 1 255 0 0 1 255 0 0 1 255 0 0 1 255 0 0 1 255 0 0 1 255
5 4 5 255 1 0 1 255 0 0 1 255 0 0 1 255 0 0 1 255 0 0 1 255 0 0 1 255
0 0 1 255 0 0 1 255 0 0 1 255 0 0 1 255 0 0 1 255 0 0 1 255 0 0 1 255
0 0 1 255 0 0 1 255 5 4 5 255 1 0 1 255 0 0 1 255 0 0 1 255 0 0 1 255
0 0 1 255 0 0 1 255 0 0 1 255 0 0 1 255 0 0 1 255 0 0 1 255 0 0 1 255
0 0 1 255 0 0 1 255 0 0 1 255 0 0 1 255 5 4 5 255 1 0 1 255 0 0 1 255
0 0 1 255 0 0 1 255 0 0 1 255 0 0 1 255 0 0 1 255 0 0 1 255 0 0 1 255
0 0 1 255 0 0 1 255 0 0 1 255 0 0 1 255 0 0 1 255 0 0 1 255 5 4 5 255
1 0 1 255 0 0 1 255 0 0 1 255 0 0 1 255 0 0 1 255 0 0 1 255 0 0 1 255
0 0 1 255 0 0 1 255 0 0 1 255 0 0 1 255 0 0 1 255 0 0 1 255 0 0 1 255
0 0 1 255 5 4 5 255 1 0 1 255 0 0 1 255 0 0 1 255 0 0 1 255 0 0 1 255
0 0 1 255 0 0 1 255 0 0 1 255 0 0 1 255 0 0 1 255 0 0 1 255 0 0 1 255
0 0 1 255 0 0 1 255 0 0 1 255 5 4 5 255 1 0 1 255 0 0 1 255 0 0 1 255
0 0 1 255 0 0 1 255 0 0 1 255 0 0 1 255 0 0 1 255 0 0 1 255 0 0 1 255
0 0 1 255 0 0 1 255 0 0 1 255 0 0 1 255 0 0 1 255 5 4 5 255 1 0 1 255
0 0 1 255 0 0 1 255 0 0 1 255 0 0 1 255 0 0 1 255 0 0 1 255 0 0 1 255
0 0 1 255 0 0 1 255 0 0 1 255 0 0 1 255 0 0 1 255 0 0 1 255 0 0 1 255
5 4 5 255 1 0 1 255 0 0 1 255 0 0 1 255 0 0 1 255 0 0 1 255 0 0 1 255
0 0 1 255 0 0 1 255 0 0 1 255 0 0 1 255 0 0 1 255 0 0 1 255 0 0 1 255
0 0 1 255 0 0 1 255 5 4 5 255 1 0 1 255 0 0 1 255 0 0 1 255 0 0 1 255
0 0 1 255 0 0 1 255 0 0 1 255 0 0 1 255 0 0 1 255 0 0 1 255 0 0 1 255
0 0 1 255 0 0 1 255 0 0 1 255 0 0 1 255 5 4 5 255 1 0 1 255 0 0 1 255
0 0 1 255 0 0 1 255 0 0 1 255 0 0 1 255 0 0 1 255 0 0 1 255 0 0 1 255
0 0 1 255 0 0 1 255 0 0 1 255 0 0 1 255 0 0 1 255 0 0 1 255 5 4 5 255
1 0 1 255 0 0 1 255 0 0 1 255 0 0 1 255 0 0 1 255 0 0 1 255 0 0 1 255
0 0 1 255 0 0 1 255 0 0 1 255 0 0 1 255 0 0 1 255 0 0 1 255 0 0 1 255
0 0 1 255 5 4 5 255 1 0 1 255 0 0 1 255 0 0 1 255 0 0 1 255 0 0 1 255
0 0 1 255 0 0 1 255 0 0 1 255 0 0 1 255 0 0 1 255 0 0 1 255 0 0 1 255
0 0 1 255 0 0 1 255 0 0 1 255 5 4 5 255 1 0 1 255 0 0 1 255 0 0 1 255
0 0 1 255 0 0 1 255 0 0 1 255 0 0 1 255 0 0 1 255 0 0 1 255 0 0 1 255
0 0 1 255 0 0 1 255 0 0 1 255 0 0 1 255 0 0 1 255 5 4 5 255 1 0 1 255
0 0 1 255 0 0 1 255 0 0 1 255 0 0 1 255 0 0 1 255 0 0 1 255 0 0 1 255
0 0 1 255 0 0 1 255 0 0 1 255 0 0 1 255 0 0 1 255 0 0 1 255 0 0 1 255
5 4 5 255 1 0 1 255 0 0 1 255 0 0 1 255 0 0 1 255 0 0 1 255 0 0 1 255
0 0 1 255 0 0 1 255 0 0 1 255 0 0 1 255 0 0 1 255 0 0 1 255 0 0 1 255
0 0 1 255 0 0 1 255 5 4 5 255 1 0 1 255 0 0 1 255 0 0 1 255 0 0 1 255
0 0 1 255 0 0 1 255 0 0 1 255 0 0 1 255 0 0 1 255 0 0 1 255 0 0 1 255
0 0 1 255 0 0 1 255 0 0 1 255 0 0 1 255 5 4 5 255 1 0 1 255 0 0 1 255
0 0 1 255 0 0 1 255 0 0 1 255 0 0 1 255 0 0 1 255 0 0 1 255 0 0 1 255
0 0 1 255 0 0 1 255 0 0 1 255 0 0 1 255 0 0 1 255 0 0 1 255 5 4 5 255
1 0 1 255 0 0 1 255 0 0 1 255 0 0 1 255 0 0 1 255 0 0 1 255 0 0 1 255
0 0 1 255 0 0 1 255 0 0 1 255 0 0 1 255 0 0 1 255 0 0 1 255 0 0 1 255
0 0 1 255 5 4 5 255 1 0 1 255 0 0 1 255 0 0 1 255 0 0 1 255 0 0 1 255
0 0 1 255 0 0 1 255 0 0 1 255 0 0 1 255 0 0 1 255 0 0 1 255 0 0 1 255
0 0 1 255 0 0 1 255 0 0 1 255 5 4 5 255 1 0 1 255 0 0 1 255 0 0 1 255
0 0 1 255 0 0 1 255 0 0 1 255 0 0 1 255 0 0 1 255 0 0 1 255 0 0 1 255
0 0 1 255 0 0 1 255 0 0 1 255 0 0 1 255 0 0 1 255 164 169 170 173 176
180 181 184 188 192 193 255 0 0 1 255 0 0 1 255 0 0 1 255 0 0 1 255
0 0 1 255 0 0 1 255 0 0 1 255 0 0 1 255 0 0 1 255 0 0 1 255 0 0 1 255
0 0 1 255 0 0 1 255 164 169 170 173 176 180 181 184 188 192 193 255
0 0 1 255 0 0 1 255 0 0 1 255 0 0 1 255 0 0 1 255 0 0 1 255 0 0 1 255
0 0 1 255 0 0 1 255 0 0 1 255 0 0 1 255 0 0 1 255 0 0 1 255 164 169
170 173 176 180 181 184 188 192 193 255 0 0 1 255 0 0 1 219 139 45
46 0 0 0 1 255 0 0 1 255 0 0 1 255 0 0 1 255 0 0 1 255 0 0 1 255 0
0 1 255 0 0 1 255 0 0 1 255 0 0 1 0 0 0 1 0 0 0 1 0 0 0 1 0 0 0 1 0
0 0 1 0 0 0 1 0 0 0 1 0 0 0 1 0 0 0 1 0 0 0 1 0 0 0 1 0 0 0 1 0 0 0
1 0 0 0 1 0 0 0 1 0 0 0 1 0 0 0 1 0 0 0 1 0 0 0 1 0 0 0 1 0 0 0 1 0
0 0 1 0 0 0 1 0 0 0 1 0 0 0 1 0 0 0 1 0 0 0 1 0 0 0 1 0 0 0 1 0 0 0
1 0 0 0 1 0 0 0 1 0 0 0 1 0 0 0 1 0 0 0 1 0 0 0 1 0 0 0 1 0 0 0 1 0
0 0 1 0 0 0 1 0 0 0 1 0 0 0 1 0 0 0 1 0 0 0 1 0 0 0 1 0 0 0 1 0 0 0
1 0 0 0 1 0 0 0 1 0 0 0 1 0 0 0 1 0 0 0 1 0 0 0 1 0 0 0 1 0 0 0 1 0
0 0 1 0 0 0 1 0 0 0 1 0 0 0 1 0 0 0 1 0 0 0 1 0 0 0 1 0 0 0 1 0 0 0
1 0 0 0 1 0 0 0 1 0 0 0 1 0 0 0 1 0 0 0 1 0 0 0 1 0 0 0 1 0 0 0 1 0
0 0 1 0 0 0 1 0 0 0 1 0 0 0 1 0 0 0 1 0 0 0 1 0 0 0 1 0 0 0 1 0 0 0
1 0 0 0 1 0 0 0 1 0 0 0 1 0 0 0 1 0 0 0 1 0 0 0 1 0 0 0 1 0 0 0 1 0
0 0 1 0 0 0 1 0 0 0 1 0 0 0 1 0 0 0 1 0 0 0 1 0 0 0 1 0 0 0 1 0 0 0
1 0 0 0 1 0 0 0 1 0 0 0 1 0 0 0 1 0 0 0 1 0 0 0 1 0 0 0 1 0 0 0 1 0
0 0 1 0 0 0 1 0 0 0 1 0 0 0 1 0 0 0 1 0 0 0 1 0 0 0 1 0 0 0 1 0 0 0
1 0 0 0 1 0 0 0 1 0 0 0 1 0 0 0 1 0 0 0 1 0 0 0 1 0 0 0 1 0 0 0 1 0
0 0 1 0 0 0 1 0 0 0 1 0 0 0 1 0 0 0 1 0 0 0 1 0 0 0 1 0 0 0 1 0 0 0
1 0 0 0 1 0 0 0 1 0 0 0 1 0 0 0 1 0 0 0 1 0 0 0 1 0 0 0 1 0 0 0 1 0
0 0 1 0 0 0 1 0 0 0 1 0 0 0 1 0 0 0 1 0 0 0 1 0 0 0 1 0 0 0 1 0 0 0
1 0 0 0 1 0 0 0 1 0 0 0 1 0 0 0 1 0 0 0 1 0 0 0 1 0 0 0 1 0 0 0 1 0
0 0 1 0 0 0 1 0 0 0 1 0 0 0 1 0 0 0 1 0 0 0 1 0 0 0 1 0 0 0 1 0 0 0
1 0 0 0 1 0 0 0 1 0 0 0 1 0 0 0 1 0 0 0 1 0 0 0 1 0 0 0 1 0 0 0 1 0
0 0 1 0 0 0 1 0 0 0 1 0 0 0 1 0 0 0 1 0 0 0 1 0 0 0 1 0 0 0 1 0 0 0
1 0 0 0 1 0 0 0 1 0 0 0 1 0 0 0 1 0 0 0 1 0 0 0 1 0 0 0 1 0 0 0 1 0
0 0 1 0 0 0 1 0 0 0 1 0 0 0 1 0 0 0 1 0 0 0 1 0 0 0 1 0 0 0 1 0 0 0
1 0 0 0 1 0 0 0 1 0 0 0 1 0 0 0 1 0 0 0 1 0 0 0 1 0 0 0 1 0 0 0 1 0
0 0 1 0 0 0 1 0 0 0 1 0 0 0 1 0 0 0 1 0 0 0 1 0 0 0 1 0 0 0 1 0 0 0
1 0 0 0 1 0 0 0 1 0 0 0 1 0 0 0 1 0 0 0 1 0 0 0 1 0 0 0 1 0 0 0 1 0
0 0 1 0 0 0 1 0 0 0 1 0 0 0 1 0 0 0 1 0 0 0 1 0 0 0 1 0 0 0 1 0 0 0
1 0 0 0 1 0 0 0 1 0 0 0 1 0 0 0 1 0 0 0 1 0 0 0 1 0 0 0 1 0 0 0 1 0
0 0 1 0 0 0 1 0 0 0 1 0 0 0 1 0 0 0 1 0 0 0 1 0 0 0 1 0 0 0 1 0 0 0
1 0 0 0 1 0 0 0 1 0 0 0 1 0 0 0 1 0 0 0 1 0 0 0 1 0 0 0 1 0 0 0 1 0
0 0 1 0 0 0 1 0 0 0 1 0 0 0 1 0 0 0 1 0 0 0 1 0 0 0 1 0 0 0 1 0 0 0
1 0 0 0 1 0 0 0 1 0 0 0 1 0 0 0 1 0 0 0 1 0 0 0 1 0 0 0 1 0 0 0 1 0
0 0 1 0 0 0 1 0 0 0 1 0 0 0 1 0 0 0 1 0 0 0 1 0 0 0 1 0 0 0 1 0 0 0
1 0 0 0 1 0 0 0 1 0 0 0 1 0 0 0 1 0 0 0 1 0 0 0 1 0 0 0 1 0 0 0 1 0
0 0 1 0 0 0 1 0 0 0 1 0 0 0 1 0 0 0 1 0 0 0 1 0 0 0 1 0 0 0 1 0 0 0
1 0 0 0 1 0 0 0 1 0 0 0 1 0 0 0 1 0 0 0 1 0 0 0 1 0 0 0 1 0 0 0 1 0
0 0 1 0 0 0 1 0 0 0 1 0 0 0 1 0 0 0 1 0 0 0 1 0 0 0 1 0 0 0 1 0 0 0
1 0 0 0 1 0 0 0 1 0 0 0 1 0 0 0 1 0 0 0 1 0 0 0 1 0 0 0 1 0 0 0 1 0
0 0 1 0 0 0 1 0 0 0 1 0 0 0 1 0 0 0 1 0 0 0 1 0 0 0 1 0 0 0 1 0 0 0
1 0 0 0 1 0 0 0 1 0 0 0 1 0 0 0 1 0 0 0 1 0 0 0 1 0 0 0 1 0 0 0 1 0
0 0 1 0 0 0 1 0 0 0 1 0 0 0 1 0 0 0 1 0 0 0 1 0 0 0 1 0 0 0 1 0 0 0
1 0 0 0 1 0 0 0 1 0 0 0 1 0 0 0 1 0 0 0 1 0 0 0 1 0 0 0 1 0 0 0 1 0
0 0 1 0 0 0 1 0 0 0 1 0 0 0 1 0 0 0 1 0 0 0 1 0 0 0 1 0 0 0 1 0 0 0
1 0 0 0 1 0 0 0 1 0 0 0 1 0 0 0 1 0 0 0 1 0 0 0 1 0 0 0 1 0 0 0 1 0
0 0 1 0 0 0 1 0 0 0 1 0 0 0 1 0 0 0 1 0 0 0 1 0 0 0 1 0 0 0 1 0 0 0
1 0 0 0 1 0 0 0 1 0 0 0 1 0 0 0 1 0 0 0 1 0 0 0 1 0 0 0 1 0 0 0 1 0
0 0 1 0 0 0 1 0 0 0 1 0 0 0 1 0 0 0 1 0 0 0 1 0 0 0 1 0 0 0 1 0 0 0
1 0 0 0 1 0 0 0 1 0 0 0 1 0 0 0 1 0 0 0 1 0 0 0 1 0 0 0 1 0 0 0 1 0
0 0 1 0 0 0 1 0 0 0 1 0 0 0 1;
#X obj 84 974 bng 15 250 50 0 empty empty empty 17 7 0 10 -262144 -1
-1;
#X msg 100 1004 baud 115200;
#X obj 194 613 int;
#X obj 194 636 clip 0 255;
#X obj 328 613 int;
#X obj 328 636 clip 0 255;
#X obj 461 613 int;
#X obj 461 636 clip 0 255;
#X text 39 664 For alpha use blue+1 \, just so we;
#X text 39 677 never get 255 \, 255 \, 255 \, 255 (the start pattern)
;
#X obj 538 334 tabwrite led_levels;
#X floatatom 657 301 5 0 0 0 - - -;
#X msg 539 300 set \$1-led_levels;
#X floatatom 499 302 5 0 0 0 - - -;
#X obj 539 254 bng 15 250 50 0 empty empty empty 17 7 0 10 -262144
-1 -1;
#X obj 537 278 f \$0;
#X obj 721 32 tgl 15 0 empty empty empty 17 7 0 10 -262144 -1 -1 0
1;
#X floatatom 560 72 5 0 0 0 - - -;
#X obj 561 105 vsl 15 128 0 255 0 0 empty empty PWM 0 -9 0 8 -4160
-262144 -1 12700 1;
#X obj 619 175 vradio 15 1 0 3 empty empty RGB 0 -8 0 8 -4034 -4160
-45076 0;
#X floatatom 792 97 5 0 0 0 - - -;
#X text 867 306 set max;
#X obj 659 248 * 3;
#X obj 658 269 + 0;
#X floatatom 723 171 5 0 0 0 - - -;
#X obj 713 88 metro 100;
#X floatatom 619 228 5 0 0 0 - - -;
#X floatatom 823 372 5 0 0 0 - - -;
#X obj 615 -32 key;
#X obj 664 -3 print;
#X obj 669 62 sel 107;
#X msg 109 1145 open 5;
#X obj 582 -6 sel 108;
#X obj 619 247 t b f;
#X obj 712 123 counter 16 0 1;
#X obj 598 47 counter 2;
#X obj 595 22 sel 59;
#X obj 164 209 tgl 15 0 empty empty empty 17 7 0 10 -262144 -1 -1 0
1;
#X obj 164 231 metro 2000;
#X text 316 407 3 \, 5 \, 25 \, 29 \, 31 \, 33 \, 35 \, 37 \, 39 \,
41 \, 43 \, 45 \, 47 \, 49 \, 51 \, 5 2 \, 4 \, 24 \, 28 \, 30 \, 32
\, 34 \, 36 \, 38 \, 40 \, 42 \, 44 \, 46 \, 48 \, 50 \, 52;
#X msg 672 494 bang;
#X msg 633 472 bang;
#X floatatom 633 538 0 0 0 0 - - -;
#X text 668 472 Click here to start or reset;
#X obj 633 516 cputime;
#X connect 0 0 2 0;
#X connect 1 0 2 0;
#X connect 2 0 20 0;
#X connect 2 1 73 0;
#X connect 4 0 5 0;
#X connect 5 0 6 0;
#X connect 5 0 78 0;
#X connect 6 0 5 1;
#X connect 7 0 5 1;
#X connect 8 0 35 0;
#X connect 9 0 13 0;
#X connect 11 0 8 0;
#X connect 11 1 7 0;
#X connect 12 0 47 0;
#X connect 13 0 11 0;
#X connect 13 1 49 0;
#X connect 15 0 2 0;
#X connect 15 0 32 0;
#X connect 20 0 79 0;
#X connect 21 0 79 0;
#X connect 22 0 2 0;
#X connect 23 0 22 0;
#X connect 23 0 24 0;
#X connect 24 0 2 0;
#X connect 25 0 31 0;
#X connect 35 0 4 0;
#X connect 37 0 38 0;
#X connect 38 0 39 0;
#X connect 39 0 86 0;
#X connect 40 0 42 0;
#X connect 41 0 84 0;
#X connect 42 0 41 0;
#X connect 43 0 45 0;
#X connect 44 0 82 0;
#X connect 45 0 44 0;
#X connect 47 0 54 0;
#X connect 49 0 17 0;
#X connect 51 0 53 0;
#X connect 52 0 12 0;
#X connect 53 0 52 0;
#X connect 54 0 16 0;
#X connect 55 0 80 0;
#X connect 73 0 56 0;
#X connect 73 1 66 0;
#X connect 73 2 67 0;
#X connect 73 3 57 0;
#X connect 73 4 58 0;
#X connect 73 5 59 0;
#X connect 73 6 61 0;
#X connect 73 7 62 0;
#X connect 73 8 60 0;
#X connect 73 9 68 0;
#X connect 73 10 69 0;
#X connect 73 11 71 0;
#X connect 73 12 72 0;
#X connect 73 13 70 0;
#X connect 74 0 2 0;
#X connect 75 0 2 0;
#X connect 77 0 2 0;
#X connect 78 0 51 0;
#X connect 78 1 43 0;
#X connect 78 2 40 0;
#X connect 78 3 37 0;
#X connect 79 0 25 0;
#X connect 80 0 81 0;
#X connect 80 0 75 0;
#X connect 80 0 76 0;
#X connect 80 0 77 0;
#X connect 80 0 111 0;
#X connect 81 0 2 0;
#X connect 82 0 83 0;
#X connect 83 0 16 0;
#X connect 84 0 85 0;
#X connect 85 0 16 0;
#X connect 86 0 87 0;
#X connect 87 0 16 0;
#X connect 91 0 90 1;
#X connect 92 0 90 0;
#X connect 93 0 90 0;
#X connect 94 0 95 0;
#X connect 95 0 92 0;
#X connect 96 0 105 0;
#X connect 97 0 98 0;
#X connect 98 0 93 0;
#X connect 99 0 106 0;
#X connect 100 0 114 4;
#X connect 102 0 103 0;
#X connect 103 0 91 0;
#X connect 105 0 114 0;
#X connect 106 0 113 0;
#X connect 108 0 109 0;
#X connect 108 0 110 0;
#X connect 108 0 112 0;
#X connect 108 0 116 0;
#X connect 110 0 114 0;
#X connect 111 0 2 0;
#X connect 112 0 9 0;
#X connect 113 0 103 0;
#X connect 113 1 103 1;
#X connect 114 0 104 0;
#X connect 114 0 102 0;
#X connect 115 0 99 0;
#X connect 116 0 115 0;
#X connect 117 0 118 0;
#X connect 118 0 9 0;
#X connect 120 0 124 1;
#X connect 121 0 124 0;
#X connect 124 0 122 0;
