#N canvas 766 172 654 522 10;
#X obj 42 247 bng 15 250 50 0 empty empty empty 17 7 0 10 -262144 -1
-1;
#X obj 70 269 tabplay~ impulse;
#X obj 70 477 throw~ 1imp;
#X text 65 248 impulse;
#X obj 70 149 inlet;
#X obj 33 201 bng 15 250 50 0 empty empty empty 17 7 0 10 -262144 -1
-1;
#X obj 219 144 inlet;
#X obj 70 433 atan~;
#X floatatom 252 164 5 0 0 0 - - -, f 5;
#X obj 367 155 r Q;
#X floatatom 222 332 5 0 0 0 - - -, f 5;
#X floatatom 208 269 5 0 0 0 - - -, f 5;
#X floatatom 561 198 5 0 0 0 - - -, f 5;
#X text 237 115 midi note;
#X text 74 115 INLETS - BANG /TRIG;
#X obj 537 164 r G;
#X obj 185 303 mtof;
#X obj 185 238 f \$1;
#X floatatom 226 213 5 0 0 0 - - -, f 5;
#X floatatom 376 180 5 0 0 0 - - -, f 5;
#X obj 314 220 loadbang;
#X obj 431 169 loadbang;
#X text 576 170 gain;
#X obj 33 147 bng 15 250 50 0 empty empty empty 17 7 0 10 -262144 -1
-1;
#X floatatom 313 279 5 0 0 0 - - -, f 5;
#X obj 70 185 t b b b b, f 50;
#X obj 70 366 bp~ \$1 1000, f 33;
#X obj 70 395 *~ 20, f 52;
#X floatatom 466 299 5 0 0 0 - - -, f 5;
#X obj 431 254 f 20;
#X obj 298 253 f 1000;
#X obj 162 475 dac~;
#X obj 287 433 catch~ limp;
#X connect 0 0 1 0;
#X connect 1 0 26 0;
#X connect 4 0 5 0;
#X connect 4 0 25 0;
#X connect 6 0 8 0;
#X connect 6 0 17 1;
#X connect 7 0 2 0;
#X connect 7 0 31 0;
#X connect 7 0 31 1;
#X connect 9 0 19 0;
#X connect 9 0 30 1;
#X connect 15 0 12 0;
#X connect 15 0 29 1;
#X connect 16 0 10 0;
#X connect 16 0 26 1;
#X connect 17 0 11 0;
#X connect 17 0 16 0;
#X connect 18 0 17 1;
#X connect 20 0 30 0;
#X connect 21 0 29 0;
#X connect 23 0 25 0;
#X connect 25 0 1 0;
#X connect 25 1 17 0;
#X connect 25 2 30 0;
#X connect 25 3 29 0;
#X connect 26 0 27 0;
#X connect 27 0 7 0;
#X connect 29 0 27 1;
#X connect 29 0 28 0;
#X connect 30 0 24 0;
#X connect 30 0 26 2;
#X connect 32 0 31 0;
#X connect 32 0 31 1;
