#N canvas 482 139 748 682 10;
#X obj 245 88 bng 15 250 50 0 empty empty empty 17 7 0 10 -262144 -1
-1;
#X obj 384 57 print;
#X obj 384 28 spigot;
#X obj 443 7 tgl 15 0 empty empty empty 17 7 0 10 -262144 -1 -1 0 1
;
#X obj 19 11 r PTCH5_CTRL_LIST;
#X obj 19 41 unpack f f f, f 35;
#X obj 140 65 s PTCH5_PAR_A1;
#X obj 19 67 s PTCH5_PAR_A2;
#X obj 261 88 s PTCH5_PAR_D1;
#X obj 569 142 table impulse 10;
#X obj 495 140 loadbang;
#X obj 29 506 catch~ 1imp;
#X obj 28 589 throw~ ch5;
#X obj 29 537 *~ 1;
#X obj 116 589 throw~ ch5pre;
#X obj 533 113 outlet;
#X obj 465 116 switch~;
#X floatatom 458 91 2 0 0 0 - - -, f 2;
#X text 475 90 dsp;
#X obj 482 64 tgl 15 0 empty empty empty 17 7 0 10 -262144 -1 -1 1
1;
#X obj 481 38 oneARDinCOMPARE 0.1;
#X floatatom 481 21 5 0 0 0 - patch5level -, f 5;
#X obj 261 66 1_ARD_DIG_BTN;
#X msg 495 164 \; impulse 0 1 0 0 0 0 0 0 0 0 0;
#X obj 108 544 dac~;
#X obj 510 224 hsl 200 15 0 10 0 1 Q_F empty Q_factor 10 8 0 8 -195568
-33289 -33289 5800 0;
#X obj 499 244 hsl 200 15 0 10 0 1 G_F empty G_factor 10 8 0 8 -195568
-33289 -33289 8200 0;
#X msg 496 375 2;
#X msg 533 375 1;
#X obj 20 154 maxlib/listfunnel;
#X obj 20 176 s 1_PING_SCALES;
#X msg 496 284 31;
#X msg 497 330 16;
#X msg 20 119 36 38 39 41 43 44 46 47 48 50 51 53 55 56 58 59 60 62
63 65 67 68 70 71 72 74 75 77 79 80 82 83;
#X obj 361 525 cyclone/scope~ 130 130 256 3 128 -1 1 0 0 0 0 102 255
51 135 135 135 0;
#X floatatom 496 264 5 0 0 0 - - -, f 5;
#N canvas 19 51 1395 816 scales 0;
#X msg 23 179 36 38 39 41 43 44 46 47 48 50 51 53 55 56 58 59 60 62
63 65 67 68 70 71 72 74 75 77 79 80 82 83;
#X text 171 733 rozdystrybuj te midi noty do czestotliwosci w abstrakcjach
;
#X msg 736 172 62 62.39 62.77 63.16 63.54 63.94 64.32 64.71 65.1 65.48
65.87 66.26 66.65 67.03 67.42 67.81 68.19 68.58 68.97 69.35 69.74 70.13
70.52 70.9 71.29 71.68 72.06 72.45 72.84 73.23 73.61 74;
#X text 1159 165 microtonal 32;
#X text 1160 215 38.71 centa dodawac trza do poprzedniego zeby miec
31 tonowa skale;
#X text 1158 175 cents in microtonal: 0 39 77 116 154 194 232 271 310
348 387 426 465 503 542 581 619 658 697 735 774 813 852 890 929 968
1006 1045 1084 1123 1161 1200;
#X obj 84 49 + 1;
#X obj 50 73 i;
#X obj 51 53 bng 15 250 50 0 empty empty empty 17 7 0 10 -262144 -1
-1;
#X obj 95 128 bng 15 250 50 0 empty empty empty 17 7 0 10 -262144 -1
-1;
#X obj 74 128 bng 15 250 50 0 empty empty empty 17 7 0 10 -262144 -1
-1;
#X obj 54 127 bng 15 250 50 0 empty empty empty 17 7 0 10 -262144 -1
-1;
#X obj 31 126 bng 15 250 50 0 empty empty empty 17 7 0 10 -262144 -1
-1;
#X obj 117 128 bng 15 250 50 0 empty empty empty 17 7 0 10 -262144
-1 -1;
#X msg 452 360 0 2 4 5 7 8 9 11;
#X text 591 161 BASE - 1 octave;
#X text 183 163 4 octaves;
#X text 456 159 name \, comments;
#X msg 453 180 0 2 3 5 7 8 10 11;
#X obj 747 533 list length;
#X floatatom 748 556 5 0 0 0 - - -, f 5;
#X msg 735 242 15 18 21 24 27 30 33 36 39 42 45 48 51 54 57 60 63 66
69 72 75 78 81 84 87 90 93 96 99 102 105 108;
#N canvas 360 170 623 533 1scale24octaves 0;
#X text 102 11 one octave;
#X obj 89 137 drip 5;
#X obj 89 163 t f f f f;
#X text 216 131 make 4 octaves;
#X obj 189 372 print;
#X text 368 277 pack back to list;
#X text 214 334 4 octaves packed together;
#X obj 46 195 + 36;
#X obj 92 197 + 48;
#X obj 174 198 + 60;
#X obj 220 199 + 72;
#X floatatom 365 370 5 0 0 0 - - -, f 5;
#X text 416 374 should be 32;
#X text 39 440 here are our 4 octaves - copy paste and send it to cycle
object..;
#X msg 286 115 0 2 3 5 6 8 9 10 11;
#X text 44 83 output 1 by 1;
#X text 288 68 octatonic scale;
#X msg 282 50 0 2 3 5 6 8 9 11;
#X msg 283 89 0 1 3 4 6 7 9 10;
#X msg 41 399 36 38 39 41 43 44 46 47 48 50 51 53 55 56 58 59 60 62
63 65 67 68 70 71 72 74 75 77 79 80 82 83;
#X msg 283 15 0 2 3 5 7 8 10 11;
#X msg 89 32 0 1 3 4 5 6 10 11;
#X msg 287 169 0 2 4 5 7 8 9 11;
#X msg 288 219 0 2 3 5 7 8 10 11;
#X obj 43 371 cyclone/prepend set;
#X obj 99 334 cyclone/zl join;
#X obj 45 280 cyclone/zl group 8;
#X obj 45 306 cyclone/zl join;
#X obj 234 275 cyclone/zl group 8;
#X obj 234 305 cyclone/zl join;
#X obj 92 253 cyclone/zl group 8;
#X obj 280 250 cyclone/zl group 8;
#X obj 236 371 cyclone/zl len;
#X connect 1 0 2 0;
#X connect 2 0 7 0;
#X connect 2 1 8 0;
#X connect 2 2 9 0;
#X connect 2 3 10 0;
#X connect 7 0 26 0;
#X connect 8 0 30 0;
#X connect 9 0 28 0;
#X connect 10 0 31 0;
#X connect 14 0 1 0;
#X connect 17 0 1 0;
#X connect 18 0 1 0;
#X connect 20 0 1 0;
#X connect 21 0 1 0;
#X connect 22 0 1 0;
#X connect 24 0 19 0;
#X connect 25 0 4 0;
#X connect 25 0 24 0;
#X connect 25 0 32 0;
#X connect 26 0 27 0;
#X connect 27 0 25 0;
#X connect 28 0 29 0;
#X connect 29 0 25 1;
#X connect 30 0 27 1;
#X connect 31 0 29 1;
#X connect 32 0 11 0;
#X restore 588 95 pd 1scale24octaves;
#X msg 23 215 36 38 39 41 42 44 45 47 48 50 51 53 54 56 57 59 60 62
63 65 66 68 69 71 72 74 75 77 78 80 81 83;
#X msg 453 215 0 2 3 5 6 8 9 11;
#X text 583 178 C D Es F G As B H;
#X text 582 219 C D Es F Ges As A H;
#X msg 23 251 36 37 39 40 42 43 45 46 48 49 51 52 54 55 57 58 60 61
63 64 66 67 69 70 72 73 75 76 78 79 81 82;
#X msg 453 251 0 1 3 4 6 7 9 10;
#X msg 23 288 36 38 39 41 42 44 45 46 48 50 51 53 54 56 57 58 60 62
63 65 66 68 69 70 72 74 75 77 78 80 81 82;
#X msg 453 290 0 2 3 5 6 8 9 10;
#X msg 23 324 36 37 39 40 41 42 46 47 48 49 51 52 53 54 58 59 60 61
63 64 65 66 70 71 72 73 75 76 77 78 82 83;
#X msg 450 325 0 1 3 4 5 6 10 11;
#X msg 23 360 36 38 40 41 43 44 45 47 48 50 52 53 55 56 57 59 60 62
64 65 67 68 69 71 72 74 76 77 79 80 81 83;
#X text 458 230 octatonic scale?;
#X text 579 252 C Des Es E Fis G A B;
#X text 453 268 zajebista \; );
#X text 580 292 C D Es F Fis Gis A B;
#X text 1165 240 Co tercje mała jedziemy \, gura za glosna!!!;
#X obj 203 128 bng 15 250 50 0 empty empty empty 17 7 0 10 -262144
-1 -1;
#X obj 182 128 bng 15 250 50 0 empty empty empty 17 7 0 10 -262144
-1 -1;
#X obj 162 127 bng 15 250 50 0 empty empty empty 17 7 0 10 -262144
-1 -1;
#X obj 139 126 bng 15 250 50 0 empty empty empty 17 7 0 10 -262144
-1 -1;
#X obj 225 128 bng 15 250 50 0 empty empty empty 17 7 0 10 -262144
-1 -1;
#X obj 309 126 bng 15 250 50 0 empty empty empty 17 7 0 10 -262144
-1 -1;
#X obj 288 126 bng 15 250 50 0 empty empty empty 17 7 0 10 -262144
-1 -1;
#X obj 268 125 bng 15 250 50 0 empty empty empty 17 7 0 10 -262144
-1 -1;
#X obj 245 124 bng 15 250 50 0 empty empty empty 17 7 0 10 -262144
-1 -1;
#X obj 331 126 bng 15 250 50 0 empty empty empty 17 7 0 10 -262144
-1 -1;
#X msg 23 397 36 38 40 42 43 45 46 47 48 50 52 54 55 57 58 59 60 62
64 66 67 69 70 71 72 74 76 78 79 81 82 83;
#X msg 452 398 0 2 4 6 7 9 10 11;
#X text 459 417 acoustic + 11;
#X text 451 197 eolska/naturalna + 11;
#X msg 23 432 36 38 39 42 43 44 46 47 48 50 51 54 55 56 58 59 60 62
63 66 67 68 70 71 72 74 75 78 79 80 82 83;
#X msg 451 433 0 2 3 6 7 8 10 11;
#X msg 23 469 36 37 39 40 43 44 46 47 48 49 51 52 55 56 58 59 60 61
63 64 67 68 70 71 72 73 75 76 79 80 82 83;
#X text 449 488 from augmented;
#X msg 452 469 0 1 3 4 7 8 10 11;
#X msg 23 506 36 38 40 41 43 45 46 47 48 50 52 53 55 57 58 59 60 62
64 65 67 69 70 71 72 74 76 77 79 81 82 83;
#X msg 451 506 0 2 4 5 7 9 10 11;
#X text 450 525 bebop dominant;
#X obj 748 584 bng 15 250 50 0 empty empty empty 17 7 0 10 -262144
-1 -1;
#X msg 894 699 set;
#X obj 748 676 zl group 32;
#X msg 747 721;
#X msg 736 281 48 49 50 51 52 53 54 55 56 57 58 59 60 61 62 63 64 65
66 67 68 69 70 71 72 73 74 75 76 77 78 79;
#X msg 1155 282 0 1 2 3 4 5 6 7 8 9 10 11;
#X text 1179 299 chromatic 1/2 tone;
#X msg 23 541 36 38 39 41 43 45 46 47 48 50 51 53 55 57 58 59 60 62
63 65 67 69 70 71 72 74 75 77 79 81 82 83;
#X msg 451 542 0 2 3 5 7 9 10 11;
#X text 452 559 dorian + 11;
#X msg 23 578 36 37 40 41 43 44 46 47 48 49 52 53 55 56 58 59 60 61
64 65 67 68 70 71 72 73 76 77 79 80 82 83;
#X msg 453 579 0 1 4 5 7 8 10 11;
#X text 451 598 double harmonic + 10;
#X msg 23 617 36 37 40 42 44 45 46 47 48 49 52 54 56 57 58 59 60 61
64 66 68 69 70 71 72 73 76 78 80 81 82 83;
#X msg 454 617 0 1 4 6 8 9 10 11;
#X text 452 635 enigmatic+9;
#X msg 23 653 36 37 40 41 43 44 45 47 48 49 52 53 55 56 57 59 60 61
64 65 67 68 69 71 72 73 76 77 79 80 81 83;
#X msg 451 654 0 1 4 5 7 8 9 11;
#X text 450 672 flamenco mode + 9;
#X text 467 451 algerian?/gypsy?;
#X msg 23 690 36 38 40 41 43 44 46 47 48 50 52 53 55 56 58 59 60 62
64 65 67 68 70 71 72 74 76 77 79 80 82 83;
#X msg 453 690 0 2 4 5 7 8 10 11;
#X text 452 708 major hamronic + 10;
#X obj 938 697 zl len;
#X floatatom 936 720 5 0 0 0 - - -, f 5;
#X obj 748 630 f 0;
#X msg 851 600 0;
#X obj 844 532 print;
#X text 1147 318 quarter notes;
#X obj 907 621 / 32;
#X floatatom 907 643 5 0 0 0 - - -, f 5;
#X text 1154 372 1 hole tone divided into 32!;
#X msg 738 442 48 48.375 48.75 49.125 49.5 49.875 50.25 50.625 51 51.375
51.75 52.125 52.5 52.875 53.25 53.625 54 54.375 54.75 55.125 55.5 55.875
56.25 56.625 57 57.375 57.75 58.125 58.5 58.875 59.25 59.625;
#X text 1155 442 microtonal 32 by adding 0.375;
#X text 1169 470 12/32=0.375;
#X floatatom 24 102 5 0 0 0 - - -, f 5;
#X obj 61 101 sel 0 1 2 3 4 5 6 7 8 9 10 11 12 13 14 15 16 17 18 19
20 21;
#X obj 83 72 % 22;
#X obj 418 127 bng 15 250 50 0 empty empty empty 17 7 0 10 -262144
-1 -1;
#X obj 397 127 bng 15 250 50 0 empty empty empty 17 7 0 10 -262144
-1 -1;
#X obj 377 126 bng 15 250 50 0 empty empty empty 17 7 0 10 -262144
-1 -1;
#X obj 354 125 bng 15 250 50 0 empty empty empty 17 7 0 10 -262144
-1 -1;
#X obj 440 127 bng 15 250 50 0 empty empty empty 17 7 0 10 -262144
-1 -1;
#X obj 505 127 bng 15 250 50 0 empty empty empty 17 7 0 10 -262144
-1 -1;
#X obj 485 126 bng 15 250 50 0 empty empty empty 17 7 0 10 -262144
-1 -1;
#X obj 462 125 bng 15 250 50 0 empty empty empty 17 7 0 10 -262144
-1 -1;
#X text 22 144 most scales have 7 notes+octave so I add 1 extra note
to make it 8;
#X text 740 145 more crazy experiments;
#X obj 748 652 + 60;
#X msg 736 318 60 60.5 61 61.5 62 62.5 63 63.5 64 64.5 65 65.5 66 66.5
67 67.5 68 68.5 69 69.5 70 70.5 71 71.5 72 72.5 73 73.5 74 74.5 75
75.5;
#X msg 908 599 1;
#X obj 785 630 + 0.031;
#X msg 746 374 60 60.031 60.062 60.093 60.124 60.155 60.186 60.217
60.248 60.279 60.31 60.341 60.372 60.403 60.434 60.465 60.496 60.527
60.558 60.589 60.62 60.651 60.682 60.713 60.744 60.775 60.806 60.837
60.868 60.899 60.93 60.961;
#X text 1157 389 1/32 = 0.031;
#X text 771 577 poprubuj jeszcze poprostu dzielnie przez rozne liczby
;
#X floatatom 1111 636 5 0 0 0 - - -, f 5;
#X floatatom 1110 692 5 0 0 0 - - -, f 5;
#X obj 1111 662 mtof;
#X obj 51 23 r PTCH5_PAR_D1;
#X obj 748 602 cyclone/uzi 32;
#X obj 748 699 cyclone/prepend set;
#X obj 23 757 s 1_PING_SCALES;
#X obj 23 734 maxlib/listfunnel;
#X obj 754 113 loadbang;
#X connect 0 0 123 0;
#X connect 2 0 123 0;
#X connect 6 0 98 0;
#X connect 7 0 6 0;
#X connect 7 0 96 0;
#X connect 7 0 97 0;
#X connect 8 0 7 0;
#X connect 19 0 20 0;
#X connect 21 0 123 0;
#X connect 23 0 123 0;
#X connect 27 0 123 0;
#X connect 29 0 123 0;
#X connect 31 0 123 0;
#X connect 33 0 123 0;
#X connect 49 0 123 0;
#X connect 53 0 123 0;
#X connect 55 0 123 0;
#X connect 58 0 123 0;
#X connect 61 0 120 0;
#X connect 62 0 64 0;
#X connect 63 0 84 0;
#X connect 63 0 121 0;
#X connect 65 0 123 0;
#X connect 68 0 123 0;
#X connect 71 0 123 0;
#X connect 74 0 123 0;
#X connect 77 0 123 0;
#X connect 81 0 123 0;
#X connect 84 0 85 0;
#X connect 86 0 109 0;
#X connect 86 0 112 0;
#X connect 87 0 86 1;
#X connect 90 0 91 0;
#X connect 93 0 19 0;
#X connect 93 0 123 0;
#X connect 97 0 12 0;
#X connect 97 0 0 0;
#X connect 97 1 11 0;
#X connect 97 1 23 0;
#X connect 97 2 10 0;
#X connect 97 2 27 0;
#X connect 97 3 9 0;
#X connect 97 3 29 0;
#X connect 97 4 13 0;
#X connect 97 4 31 0;
#X connect 97 5 42 0;
#X connect 97 5 33 0;
#X connect 97 6 41 0;
#X connect 97 6 49 0;
#X connect 97 7 40 0;
#X connect 97 7 53 0;
#X connect 97 8 39 0;
#X connect 97 8 55 0;
#X connect 97 9 43 0;
#X connect 97 9 58 0;
#X connect 97 10 47 0;
#X connect 97 10 68 0;
#X connect 97 11 46 0;
#X connect 97 11 71 0;
#X connect 97 12 45 0;
#X connect 97 12 74 0;
#X connect 97 13 44 0;
#X connect 97 13 77 0;
#X connect 97 14 48 0;
#X connect 97 14 81 0;
#X connect 97 15 2 0;
#X connect 97 15 102 0;
#X connect 97 16 21 0;
#X connect 97 16 101 0;
#X connect 97 17 65 0;
#X connect 97 17 100 0;
#X connect 97 18 110 0;
#X connect 97 18 99 0;
#X connect 97 19 113 0;
#X connect 97 19 103 0;
#X connect 97 20 93 0;
#X connect 97 20 106 0;
#X connect 97 21 105 0;
#X connect 97 22 104 0;
#X connect 98 0 7 1;
#X connect 109 0 63 0;
#X connect 110 0 123 0;
#X connect 111 0 90 0;
#X connect 112 0 86 1;
#X connect 113 0 123 0;
#X connect 116 0 118 0;
#X connect 118 0 117 0;
#X connect 119 0 8 0;
#X connect 120 0 86 0;
#X connect 121 0 64 0;
#X connect 123 0 122 0;
#X connect 124 0 2 0;
#X restore 604 113 pd scales;
#X obj 304 42 tgl 15 0 empty empty empty 17 7 0 10 -262144 -1 -1 0
1;
#X obj 341 48 bng 15 250 50 0 empty empty empty 17 7 0 10 -262144 -1
-1;
#X msg 134 424 vis 31 1;
#X msg 31 351 0 0;
#X msg 136 349 31 31;
#X msg 135 374 31 0;
#X text 128 288 input 2 values = instance numbers;
#X text 120 306 if both are the same it triggers the voice;
#X text 118 321 if second is different - dsp off;
#X text 188 349 turn on 31;
#X text 187 371 turn off 31;
#X msg 41 371 0 1;
#X text 225 426 how to avoid clicks?;
#X text 64 348 on;
#X text 68 371 off;
#X obj 496 197 loadbang;
#X obj 454 314 bng 15 250 50 0 empty empty empty 17 7 0 10 -262144
-1 -1;
#X msg 85 349 16 16;
#X obj 72 292 bng 15 250 50 0 empty empty empty 17 7 0 10 -262144 -1
-1;
#X msg 316 354 16;
#X msg 320 385 17;
#X msg 372 386 18;
#X obj 365 355 bng 15 250 50 0 empty empty empty 17 7 0 10 -262144
-1 -1;
#X obj 203 177 metro 500;
#X obj 213 157 tgl 15 0 empty empty empty 17 7 0 10 -262144 -1 -1 0
1;
#X floatatom 268 154 5 0 0 0 - - -, f 5;
#X obj 203 202 random 32;
#X obj 496 402 1_PING_314_CLONE 2 36 100 100;
#X obj 497 351 1_PING_314_CLONE 16 64 100 100;
#X obj 496 306 1_PING_314_CLONE 31 84 100 100;
#X obj 203 254 pack f f;
#X obj 203 224 t f f;
#X obj 31 465 clone 1_PING_314_CLONE 32 64 100 100;
#X connect 2 0 1 0;
#X connect 3 0 2 1;
#X connect 4 0 5 0;
#X connect 4 0 2 0;
#X connect 5 0 7 0;
#X connect 5 1 6 0;
#X connect 5 2 22 0;
#X connect 10 0 23 0;
#X connect 11 0 34 0;
#X connect 11 0 13 0;
#X connect 11 0 24 0;
#X connect 11 0 24 1;
#X connect 13 0 12 0;
#X connect 13 0 14 0;
#X connect 17 0 16 0;
#X connect 19 0 16 0;
#X connect 19 0 15 0;
#X connect 20 0 19 0;
#X connect 21 0 20 0;
#X connect 22 0 0 0;
#X connect 22 0 8 0;
#X connect 26 0 35 0;
#X connect 27 0 64 0;
#X connect 28 0 64 0;
#X connect 29 0 30 0;
#X connect 31 0 66 0;
#X connect 32 0 65 0;
#X connect 33 0 29 0;
#X connect 37 0 6 0;
#X connect 38 0 22 0;
#X connect 39 0 69 0;
#X connect 40 0 69 0;
#X connect 41 0 69 0;
#X connect 42 0 69 0;
#X connect 48 0 69 0;
#X connect 52 0 25 0;
#X connect 52 0 26 0;
#X connect 53 0 31 0;
#X connect 53 0 27 0;
#X connect 54 0 69 0;
#X connect 55 0 41 0;
#X connect 55 0 54 0;
#X connect 55 0 40 0;
#X connect 56 0 69 0;
#X connect 57 0 69 0;
#X connect 58 0 69 0;
#X connect 59 0 58 0;
#X connect 59 0 57 0;
#X connect 59 0 56 0;
#X connect 60 0 63 0;
#X connect 61 0 60 0;
#X connect 62 0 60 1;
#X connect 63 0 68 0;
#X connect 67 0 69 0;
#X connect 68 0 67 0;
#X connect 68 1 67 1;
