#N canvas 4 51 691 817 10;
#X obj 265 88 bng 15 250 50 0 empty empty empty 17 7 0 10 -262144 -1
-1;
#X obj 404 57 print;
#X obj 404 28 spigot;
#X obj 443 7 tgl 15 0 empty empty empty 17 7 0 10 -262144 -1 -1 0 1
;
#X obj 39 11 r PTCH5_CTRL_LIST;
#X obj 39 41 unpack f f f, f 35;
#X obj 160 65 s PTCH5_PAR_A1;
#X obj 39 67 s PTCH5_PAR_A2;
#X obj 281 88 s PTCH5_PAR_D1;
#X obj 105 194 table impulse 10;
#X obj 31 192 loadbang;
#X obj 139 406 catch~ 1imp;
#N canvas 0 360 1336 440 32BPfiltersIMPULSE+SENSORS 0;
#X obj 993 393 outlet;
#X text 541 67 q = f / bandwidth;
#N canvas 0 171 1423 671 SENStoTRIGtreszholdINDIVIDUALoutputs 0;
#X text 636 549 threshold is in abstraction;
#X obj 134 223 bng 15 250 50 0 empty empty empty 17 7 0 10 -262144
-1 -1;
#X obj 151 246 bng 15 250 50 0 empty empty empty 17 7 0 10 -262144
-1 -1;
#X obj 182 269 bng 15 250 50 0 empty empty empty 17 7 0 10 -262144
-1 -1;
#X obj 219 295 bng 15 250 50 0 empty empty empty 17 7 0 10 -262144
-1 -1;
#X obj 244 316 bng 15 250 50 0 empty empty empty 17 7 0 10 -262144
-1 -1;
#X obj 269 345 bng 15 250 50 0 empty empty empty 17 7 0 10 -262144
-1 -1;
#X obj 296 368 bng 15 250 50 0 empty empty empty 17 7 0 10 -262144
-1 -1;
#X obj 316 391 bng 15 250 50 0 empty empty empty 17 7 0 10 -262144
-1 -1;
#X obj 344 412 bng 15 250 50 0 empty empty empty 17 7 0 10 -262144
-1 -1;
#X obj 373 436 bng 15 250 50 0 empty empty empty 17 7 0 10 -262144
-1 -1;
#X obj 396 454 bng 15 250 50 0 empty empty empty 17 7 0 10 -262144
-1 -1;
#X obj 416 485 bng 15 250 50 0 empty empty empty 17 7 0 10 -262144
-1 -1;
#X obj 435 508 bng 15 250 50 0 empty empty empty 17 7 0 10 -262144
-1 -1;
#X obj 455 536 bng 15 250 50 0 empty empty empty 17 7 0 10 -262144
-1 -1;
#X obj 464 566 bng 15 250 50 0 empty empty empty 17 7 0 10 -262144
-1 -1;
#X obj 411 94 unpack 0 0 0 0 0 0 0 0 0 0 0 0 0 0 0 0 0 0 0 0 0 0 0
0 0 0 0 0 0 0 0 0;
#X obj 44 201 outlet;
#X obj 83 228 outlet;
#X obj 100 252 outlet;
#X obj 128 270 outlet;
#X obj 161 292 outlet;
#X obj 190 317 outlet;
#X obj 207 342 outlet;
#X obj 240 367 outlet;
#X obj 264 390 outlet;
#X obj 292 413 outlet;
#X obj 323 435 outlet;
#X obj 349 463 outlet;
#X obj 366 487 outlet;
#X obj 384 511 outlet;
#X obj 400 537 outlet;
#X obj 415 565 outlet;
#X obj 586 193 outlet;
#X obj 620 223 outlet;
#X obj 662 243 outlet;
#X obj 712 261 outlet;
#X obj 735 282 outlet;
#X obj 754 302 outlet;
#X obj 816 322 outlet;
#X obj 846 350 outlet;
#X obj 887 369 outlet;
#X obj 926 389 outlet;
#X obj 968 409 outlet;
#X obj 1008 427 outlet;
#X obj 1036 458 outlet;
#X obj 1085 478 outlet;
#X obj 1137 498 outlet;
#X obj 1187 516 outlet;
#X floatatom 254 90 5 0 0 0 - - -, f 5;
#X obj 95 199 bng 15 250 50 0 empty empty empty 17 7 0 10 -262144 -1
-1;
#X floatatom 972 221 5 0 0 0 - - -, f 5;
#X obj 1129 520 bng 15 250 50 0 empty empty empty 17 7 0 10 -262144
-1 -1;
#X obj 1170 537 bng 15 250 50 0 empty empty empty 17 7 0 10 -262144
-1 -1;
#X obj 1046 482 bng 15 250 50 0 empty empty empty 17 7 0 10 -262144
-1 -1;
#X obj 1087 499 bng 15 250 50 0 empty empty empty 17 7 0 10 -262144
-1 -1;
#X obj 976 442 bng 15 250 50 0 empty empty empty 17 7 0 10 -262144
-1 -1;
#X obj 1017 459 bng 15 250 50 0 empty empty empty 17 7 0 10 -262144
-1 -1;
#X obj 893 404 bng 15 250 50 0 empty empty empty 17 7 0 10 -262144
-1 -1;
#X obj 934 421 bng 15 250 50 0 empty empty empty 17 7 0 10 -262144
-1 -1;
#X obj 824 356 bng 15 250 50 0 empty empty empty 17 7 0 10 -262144
-1 -1;
#X obj 865 373 bng 15 250 50 0 empty empty empty 17 7 0 10 -262144
-1 -1;
#X obj 741 318 bng 15 250 50 0 empty empty empty 17 7 0 10 -262144
-1 -1;
#X obj 782 335 bng 15 250 50 0 empty empty empty 17 7 0 10 -262144
-1 -1;
#X obj 677 267 bng 15 250 50 0 empty empty empty 17 7 0 10 -262144
-1 -1;
#X obj 718 284 bng 15 250 50 0 empty empty empty 17 7 0 10 -262144
-1 -1;
#X obj 594 229 bng 15 250 50 0 empty empty empty 17 7 0 10 -262144
-1 -1;
#X obj 635 246 bng 15 250 50 0 empty empty empty 17 7 0 10 -262144
-1 -1;
#X text 556 574 out 1=b for dark to bright;
#X text 750 574 out 2 = b for bright to dark;
#X obj 1274 534 bng 15 250 50 0 empty empty empty 17 7 0 10 -262144
-1 -1;
#X obj 78 174 oneSENSORtresh;
#X obj 521 53 r LDR_SMT_LIST;
#X obj 619 336 cyclone/onebang;
#X obj 411 32 r LDRS_INV_10_SMT_list;
#X obj 609 161 oneSENSORtresh;
#X obj 121 198 oneSENSORtresh;
#X obj 153 218 oneSENSORtresh;
#X obj 169 243 oneSENSORtresh;
#X obj 220 265 oneSENSORtresh;
#X obj 247 293 oneSENSORtresh;
#X obj 274 319 oneSENSORtresh;
#X obj 296 343 oneSENSORtresh;
#X obj 317 366 oneSENSORtresh;
#X obj 345 389 oneSENSORtresh;
#X obj 376 410 oneSENSORtresh;
#X obj 395 435 oneSENSORtresh;
#X obj 417 460 oneSENSORtresh;
#X obj 436 485 oneSENSORtresh;
#X obj 458 510 oneSENSORtresh;
#X obj 480 534 oneSENSORtresh;
#X obj 637 184 oneSENSORtresh;
#X obj 673 210 oneSENSORtresh;
#X obj 715 232 oneSENSORtresh;
#X obj 751 252 oneSENSORtresh;
#X obj 789 275 oneSENSORtresh;
#X obj 825 294 oneSENSORtresh;
#X obj 879 316 oneSENSORtresh;
#X obj 905 341 oneSENSORtresh;
#X obj 943 364 oneSENSORtresh;
#X obj 979 383 oneSENSORtresh;
#X obj 1021 405 oneSENSORtresh;
#X obj 1060 425 oneSENSORtresh;
#X obj 1095 448 oneSENSORtresh;
#X obj 1131 467 oneSENSORtresh;
#X obj 1173 489 oneSENSORtresh;
#X connect 16 0 49 0;
#X connect 16 0 71 0;
#X connect 16 1 76 0;
#X connect 16 2 77 0;
#X connect 16 3 78 0;
#X connect 16 4 79 0;
#X connect 16 5 80 0;
#X connect 16 6 81 0;
#X connect 16 7 82 0;
#X connect 16 8 83 0;
#X connect 16 9 84 0;
#X connect 16 10 85 0;
#X connect 16 11 86 0;
#X connect 16 12 87 0;
#X connect 16 13 88 0;
#X connect 16 14 89 0;
#X connect 16 15 90 0;
#X connect 16 16 75 0;
#X connect 16 17 91 0;
#X connect 16 18 92 0;
#X connect 16 19 93 0;
#X connect 16 20 94 0;
#X connect 16 21 95 0;
#X connect 16 22 96 0;
#X connect 16 23 97 0;
#X connect 16 24 98 0;
#X connect 16 25 99 0;
#X connect 16 26 100 0;
#X connect 16 27 101 0;
#X connect 16 28 102 0;
#X connect 16 29 103 0;
#X connect 16 30 104 0;
#X connect 16 31 51 0;
#X connect 16 31 105 0;
#X connect 71 0 17 0;
#X connect 71 0 50 0;
#X connect 74 0 16 0;
#X connect 75 0 33 0;
#X connect 75 0 66 0;
#X connect 76 0 18 0;
#X connect 76 0 1 0;
#X connect 77 0 2 0;
#X connect 77 0 19 0;
#X connect 78 0 3 0;
#X connect 78 0 20 0;
#X connect 79 0 4 0;
#X connect 79 0 21 0;
#X connect 80 0 5 0;
#X connect 80 0 22 0;
#X connect 81 0 6 0;
#X connect 81 0 23 0;
#X connect 82 0 7 0;
#X connect 82 0 24 0;
#X connect 83 0 8 0;
#X connect 83 0 25 0;
#X connect 84 0 9 0;
#X connect 84 0 26 0;
#X connect 85 0 10 0;
#X connect 85 0 27 0;
#X connect 86 0 11 0;
#X connect 86 0 28 0;
#X connect 87 0 12 0;
#X connect 87 0 29 0;
#X connect 88 0 13 0;
#X connect 88 0 30 0;
#X connect 89 0 14 0;
#X connect 89 0 31 0;
#X connect 90 0 15 0;
#X connect 90 0 32 0;
#X connect 91 0 34 0;
#X connect 91 0 67 0;
#X connect 92 0 35 0;
#X connect 92 0 64 0;
#X connect 93 0 36 0;
#X connect 93 0 65 0;
#X connect 94 0 37 0;
#X connect 94 0 62 0;
#X connect 95 0 38 0;
#X connect 95 0 63 0;
#X connect 96 0 39 0;
#X connect 96 0 60 0;
#X connect 97 0 40 0;
#X connect 97 0 61 0;
#X connect 98 0 41 0;
#X connect 98 0 58 0;
#X connect 99 0 42 0;
#X connect 99 0 59 0;
#X connect 100 0 43 0;
#X connect 100 0 56 0;
#X connect 101 0 44 0;
#X connect 101 0 57 0;
#X connect 102 0 45 0;
#X connect 102 0 54 0;
#X connect 103 0 46 0;
#X connect 103 0 55 0;
#X connect 104 0 47 0;
#X connect 104 0 52 0;
#X connect 105 0 48 0;
#X connect 105 0 53 0;
#X connect 105 1 70 0;
#X restore 224 147 pd SENStoTRIGtreszholdINDIVIDUALoutputs;
#X text 542 25 higher picz last szorter - make q higher for higher
freqs?;
#X text 108 174 INLETS - BANG;
#X text 43 35 Generate second freq of impulse from the first one which
is a fraction of the frequency (10%) this can be + or -;
#X text 538 42 change q depending on frequency - the higher frequency
the higher the q;
#X text 41 64 CREATE ARGUMENTS -FILTER FREQ(midi) \, Q \,;
#X obj 86 179 bng 15 250 50 0 empty empty empty 17 7 0 10 -262144 -1
-1;
#X text 347 393 OUTLET: FREQ \, Q \, LEVEL \, offset \, scaled Q list
;
#X obj 1182 356 bng 15 250 50 0 empty empty empty 17 7 0 10 -262144
-1 -1;
#X floatatom 167 115 5 0 0 0 - - -, f 5;
#X floatatom 1126 334 5 0 0 0 - - -, f 5;
#X obj 64 355 outlet;
#N canvas 37 51 1341 758 scales 0;
#X obj -352 407 outlet;
#X msg -352 -146 36 38 39 41 43 44 46 47 48 50 51 53 55 56 58 59 60
62 63 65 67 68 70 71 72 74 75 77 79 80 82 83;
#X text -304 408 rozdystrybuj te midi noty do czestotliwosci w abstrakcjach
;
#X msg 361 -153 62 62.39 62.77 63.16 63.54 63.94 64.32 64.71 65.1 65.48
65.87 66.26 66.65 67.03 67.42 67.81 68.19 68.58 68.97 69.35 69.74 70.13
70.52 70.9 71.29 71.68 72.06 72.45 72.84 73.23 73.61 74;
#X text 784 -160 microtonal 32;
#X text 785 -110 38.71 centa dodawac trza do poprzedniego zeby miec
31 tonowa skale;
#X text 783 -150 cents in microtonal: 0 39 77 116 154 194 232 271 310
348 387 426 465 503 542 581 619 658 697 735 774 813 852 890 929 968
1006 1045 1084 1123 1161 1200;
#X obj -291 -276 + 1;
#X obj -324 -252 i;
#X obj -324 -272 bng 15 250 50 0 empty empty empty 17 7 0 10 -262144
-1 -1;
#X obj -280 -197 bng 15 250 50 0 empty empty empty 17 7 0 10 -262144
-1 -1;
#X obj -301 -197 bng 15 250 50 0 empty empty empty 17 7 0 10 -262144
-1 -1;
#X obj -321 -198 bng 15 250 50 0 empty empty empty 17 7 0 10 -262144
-1 -1;
#X obj -344 -199 bng 15 250 50 0 empty empty empty 17 7 0 10 -262144
-1 -1;
#X obj -258 -197 bng 15 250 50 0 empty empty empty 17 7 0 10 -262144
-1 -1;
#X msg 77 35 0 2 4 5 7 8 9 11;
#X text 216 -164 BASE - 1 octave;
#X text -192 -162 4 octaves;
#X text 81 -166 name \, comments;
#X msg 78 -145 0 2 3 5 7 8 10 11;
#X obj 372 208 list length;
#X floatatom 373 231 5 0 0 0 - - -, f 5;
#X msg 360 -83 15 18 21 24 27 30 33 36 39 42 45 48 51 54 57 60 63 66
69 72 75 78 81 84 87 90 93 96 99 102 105 108;
#N canvas 363 172 623 533 1scale24octaves 0;
#X text 62 11 one octave;
#X obj 49 137 drip 5;
#X obj 49 163 t f f f f;
#X text 176 131 make 4 octaves;
#X obj 149 372 print;
#X obj 180 250 zl group 8;
#X obj 134 275 zl group 8;
#X obj 52 253 zl group 8;
#X obj 5 280 zl group 8;
#X text 218 277 pack back to list;
#X obj 5 306 zl join;
#X obj 134 305 zl join;
#X text 174 334 4 octaves packed together;
#X obj 6 195 + 36;
#X obj 52 197 + 48;
#X obj 134 198 + 60;
#X obj 180 199 + 72;
#X obj 196 371 zl len;
#X floatatom 245 370 5 0 0 0 - - -, f 5;
#X text 296 374 should be 32;
#X text -1 440 here are our 4 octaves - copy paste and send it to cycle
object..;
#X msg 246 115 0 2 3 5 6 8 9 10 11;
#X text 4 83 output 1 by 1;
#X text 248 68 octatonic scale;
#X msg 242 50 0 2 3 5 6 8 9 11;
#X msg 243 89 0 1 3 4 6 7 9 10;
#X msg 1 399 36 38 39 41 43 44 46 47 48 50 51 53 55 56 58 59 60 62
63 65 67 68 70 71 72 74 75 77 79 80 82 83;
#X msg 243 15 0 2 3 5 7 8 10 11;
#X msg 49 32 0 1 3 4 5 6 10 11;
#X msg 247 169 0 2 4 5 7 8 9 11;
#X msg 248 219 0 2 3 5 7 8 10 11;
#X obj 3 371 cyclone/prepend set;
#X obj 59 334 cyclone/zl join;
#X connect 1 0 2 0;
#X connect 2 0 13 0;
#X connect 2 1 14 0;
#X connect 2 2 15 0;
#X connect 2 3 16 0;
#X connect 5 0 11 1;
#X connect 6 0 11 0;
#X connect 7 0 10 1;
#X connect 8 0 10 0;
#X connect 10 0 32 0;
#X connect 11 0 32 1;
#X connect 13 0 8 0;
#X connect 14 0 7 0;
#X connect 15 0 6 0;
#X connect 16 0 5 0;
#X connect 17 0 18 0;
#X connect 21 0 1 0;
#X connect 24 0 1 0;
#X connect 25 0 1 0;
#X connect 27 0 1 0;
#X connect 28 0 1 0;
#X connect 29 0 1 0;
#X connect 31 0 26 0;
#X connect 32 0 4 0;
#X connect 32 0 17 0;
#X connect 32 0 31 0;
#X restore 213 -230 pd 1scale24octaves;
#X text 1182 -10 one octave;
#X obj 1051 18 drip 5;
#X obj 1051 44 t f f f f;
#X text 1054 107 make 4 octaves;
#X obj 1141 253 print;
#X obj 1182 131 zl group 8;
#X obj 1136 156 zl group 8;
#X obj 1054 134 zl group 8;
#X obj 1007 161 zl group 8;
#X text 1220 158 pack back to list;
#X obj 1007 187 zl join;
#X obj 1136 186 zl join;
#X text 1120 214 4 octaves packed together;
#X obj 1008 76 + 36;
#X obj 1054 78 + 48;
#X obj 1136 79 + 60;
#X obj 1182 80 + 72;
#X obj 1188 252 zl len;
#X floatatom 1237 251 5 0 0 0 - - -, f 5;
#X text 1278 254 should be 32;
#X text 1002 321 here are our 4 octaves - copy paste and send it to
cycle object..;
#X text 1110 20 output 1 by 1;
#X msg 1003 280 36 38 40 41 43 44 46 47 48 50 52 53 55 56 58 59 60
62 64 65 67 68 70 71 72 74 76 77 79 80 82 83;
#X msg -352 -110 36 38 39 41 42 44 45 47 48 50 51 53 54 56 57 59 60
62 63 65 66 68 69 71 72 74 75 77 78 80 81 83;
#X msg 78 -110 0 2 3 5 6 8 9 11;
#X text 208 -147 C D Es F G As B H;
#X text 207 -106 C D Es F Ges As A H;
#X msg -352 -74 36 37 39 40 42 43 45 46 48 49 51 52 54 55 57 58 60
61 63 64 66 67 69 70 72 73 75 76 78 79 81 82;
#X msg 957 254 set;
#X msg 78 -74 0 1 3 4 6 7 9 10;
#X msg -352 -37 36 38 39 41 42 44 45 46 48 50 51 53 54 56 57 58 60
62 63 65 66 68 69 70 72 74 75 77 78 80 81 82;
#X msg 78 -35 0 2 3 5 6 8 9 10;
#X msg -352 -1 36 37 39 40 41 42 46 47 48 49 51 52 53 54 58 59 60 61
63 64 65 66 70 71 72 73 75 76 77 78 82 83;
#X msg 75 0 0 1 3 4 5 6 10 11;
#X msg -352 35 36 38 40 41 43 44 45 47 48 50 52 53 55 56 57 59 60 62
64 65 67 68 69 71 72 74 76 77 79 80 81 83;
#X text 83 -95 octatonic scale?;
#X text 204 -73 C Des Es E Fis G A B;
#X text 78 -57 zajebista \; );
#X text 205 -33 C D Es F Fis Gis A B;
#X text 790 -85 Co tercje mała jedziemy \, gura za glosna!!!;
#X obj -172 -197 bng 15 250 50 0 empty empty empty 17 7 0 10 -262144
-1 -1;
#X obj -193 -197 bng 15 250 50 0 empty empty empty 17 7 0 10 -262144
-1 -1;
#X obj -213 -198 bng 15 250 50 0 empty empty empty 17 7 0 10 -262144
-1 -1;
#X obj -236 -199 bng 15 250 50 0 empty empty empty 17 7 0 10 -262144
-1 -1;
#X obj -150 -197 bng 15 250 50 0 empty empty empty 17 7 0 10 -262144
-1 -1;
#X obj -66 -199 bng 15 250 50 0 empty empty empty 17 7 0 10 -262144
-1 -1;
#X obj -87 -199 bng 15 250 50 0 empty empty empty 17 7 0 10 -262144
-1 -1;
#X obj -107 -200 bng 15 250 50 0 empty empty empty 17 7 0 10 -262144
-1 -1;
#X obj -130 -201 bng 15 250 50 0 empty empty empty 17 7 0 10 -262144
-1 -1;
#X obj -44 -199 bng 15 250 50 0 empty empty empty 17 7 0 10 -262144
-1 -1;
#X msg -352 72 36 38 40 42 43 45 46 47 48 50 52 54 55 57 58 59 60 62
64 66 67 69 70 71 72 74 76 78 79 81 82 83;
#X msg 77 73 0 2 4 6 7 9 10 11;
#X text 84 92 acoustic + 11;
#X text 76 -128 eolska/naturalna + 11;
#X msg -352 107 36 38 39 42 43 44 46 47 48 50 51 54 55 56 58 59 60
62 63 66 67 68 70 71 72 74 75 78 79 80 82 83;
#X msg 76 108 0 2 3 6 7 8 10 11;
#X msg -352 144 36 37 39 40 43 44 46 47 48 49 51 52 55 56 58 59 60
61 63 64 67 68 70 71 72 73 75 76 79 80 82 83;
#X text 74 163 from augmented;
#X msg 77 144 0 1 3 4 7 8 10 11;
#X msg -352 181 36 38 40 41 43 45 46 47 48 50 52 53 55 57 58 59 60
62 64 65 67 69 70 71 72 74 76 77 79 81 82 83;
#X msg 76 181 0 2 4 5 7 9 10 11;
#X text 75 200 bebop dominant;
#X obj 373 259 bng 15 250 50 0 empty empty empty 17 7 0 10 -262144
-1 -1;
#X msg 519 374 set;
#X obj 373 351 zl group 32;
#X msg 372 396;
#X msg 361 -44 48 49 50 51 52 53 54 55 56 57 58 59 60 61 62 63 64 65
66 67 68 69 70 71 72 73 74 75 76 77 78 79;
#X msg 780 -43 0 1 2 3 4 5 6 7 8 9 10 11;
#X text 804 -26 chromatic 1/2 tone;
#X msg -352 216 36 38 39 41 43 45 46 47 48 50 51 53 55 57 58 59 60
62 63 65 67 69 70 71 72 74 75 77 79 81 82 83;
#X msg 76 217 0 2 3 5 7 9 10 11;
#X text 77 234 dorian + 11;
#X msg -352 253 36 37 40 41 43 44 46 47 48 49 52 53 55 56 58 59 60
61 64 65 67 68 70 71 72 73 76 77 79 80 82 83;
#X msg 78 254 0 1 4 5 7 8 10 11;
#X text 76 273 double harmonic + 10;
#X msg -352 292 36 37 40 42 44 45 46 47 48 49 52 54 56 57 58 59 60
61 64 66 68 69 70 71 72 73 76 78 80 81 82 83;
#X msg 79 292 0 1 4 6 8 9 10 11;
#X text 77 310 enigmatic+9;
#X msg -352 328 36 37 40 41 43 44 45 47 48 49 52 53 55 56 57 59 60
61 64 65 67 68 69 71 72 73 76 77 79 80 81 83;
#X msg 76 329 0 1 4 5 7 8 9 11;
#X text 75 347 flamenco mode + 9;
#X text 92 126 algerian?/gypsy?;
#X msg 1050 -8 0 2 4 5 7 8 10 11;
#X msg -352 365 36 38 40 41 43 44 46 47 48 50 52 53 55 56 58 59 60
62 64 65 67 68 70 71 72 74 76 77 79 80 82 83;
#X msg 78 365 0 2 4 5 7 8 10 11;
#X text 77 383 major hamronic + 10;
#X text 999 361 koncze na ionian mode major scale z wiki listy: https://en.wikipedia.org/wiki/List_of_musical_scales_and_modes
;
#X obj 563 372 zl len;
#X floatatom 561 395 5 0 0 0 - - -, f 5;
#X obj 373 305 f 0;
#X msg 476 275 0;
#X obj 469 207 print;
#X text 772 -7 quarter notes;
#X obj 532 296 / 32;
#X floatatom 532 318 5 0 0 0 - - -, f 5;
#X text 779 47 1 hole tone divided into 32!;
#X msg 363 117 48 48.375 48.75 49.125 49.5 49.875 50.25 50.625 51 51.375
51.75 52.125 52.5 52.875 53.25 53.625 54 54.375 54.75 55.125 55.5 55.875
56.25 56.625 57 57.375 57.75 58.125 58.5 58.875 59.25 59.625;
#X text 780 117 microtonal 32 by adding 0.375;
#X text 794 145 12/32=0.375;
#X floatatom -351 -223 5 0 0 0 - - -, f 5;
#X obj -314 -224 sel 0 1 2 3 4 5 6 7 8 9 10 11 12 13 14 15 16 17 18
19 20 21;
#X obj -292 -253 % 22;
#X obj 43 -198 bng 15 250 50 0 empty empty empty 17 7 0 10 -262144
-1 -1;
#X obj 22 -198 bng 15 250 50 0 empty empty empty 17 7 0 10 -262144
-1 -1;
#X obj 2 -199 bng 15 250 50 0 empty empty empty 17 7 0 10 -262144 -1
-1;
#X obj -21 -200 bng 15 250 50 0 empty empty empty 17 7 0 10 -262144
-1 -1;
#X obj 65 -198 bng 15 250 50 0 empty empty empty 17 7 0 10 -262144
-1 -1;
#X obj 130 -198 bng 15 250 50 0 empty empty empty 17 7 0 10 -262144
-1 -1;
#X obj 110 -199 bng 15 250 50 0 empty empty empty 17 7 0 10 -262144
-1 -1;
#X obj 87 -200 bng 15 250 50 0 empty empty empty 17 7 0 10 -262144
-1 -1;
#X text -353 -181 most scales have 7 notes+octave so I add 1 extra
note to make it 8;
#X text 365 -180 more crazy experiments;
#X obj 373 327 + 60;
#X msg 361 -7 60 60.5 61 61.5 62 62.5 63 63.5 64 64.5 65 65.5 66 66.5
67 67.5 68 68.5 69 69.5 70 70.5 71 71.5 72 72.5 73 73.5 74 74.5 75
75.5;
#X msg 533 274 1;
#X obj 410 305 + 0.031;
#X msg 371 49 60 60.031 60.062 60.093 60.124 60.155 60.186 60.217 60.248
60.279 60.31 60.341 60.372 60.403 60.434 60.465 60.496 60.527 60.558
60.589 60.62 60.651 60.682 60.713 60.744 60.775 60.806 60.837 60.868
60.899 60.93 60.961;
#X text 782 64 1/32 = 0.031;
#X text 396 252 poprubuj jeszcze poprostu dzielnie przez rozne liczby
;
#X floatatom 736 311 5 0 0 0 - - -, f 5;
#X floatatom 735 367 5 0 0 0 - - -, f 5;
#X obj 736 337 mtof;
#X obj -323 -302 r PTCH5_PAR_D1;
#X obj 373 277 cyclone/uzi 32;
#X obj 373 374 cyclone/prepend set;
#X obj 1003 252 cyclone/prepend set;
#X obj 1061 215 cyclone/zl join;
#X connect 1 0 0 0;
#X connect 3 0 0 0;
#X connect 7 0 125 0;
#X connect 8 0 7 0;
#X connect 8 0 123 0;
#X connect 8 0 124 0;
#X connect 9 0 8 0;
#X connect 20 0 21 0;
#X connect 22 0 0 0;
#X connect 25 0 26 0;
#X connect 26 0 37 0;
#X connect 26 1 38 0;
#X connect 26 2 39 0;
#X connect 26 3 40 0;
#X connect 29 0 35 1;
#X connect 30 0 35 0;
#X connect 31 0 34 1;
#X connect 32 0 34 0;
#X connect 34 0 150 0;
#X connect 35 0 150 1;
#X connect 37 0 32 0;
#X connect 38 0 31 0;
#X connect 39 0 30 0;
#X connect 40 0 29 0;
#X connect 41 0 42 0;
#X connect 47 0 0 0;
#X connect 51 0 0 0;
#X connect 52 0 46 0;
#X connect 54 0 0 0;
#X connect 56 0 0 0;
#X connect 58 0 0 0;
#X connect 74 0 0 0;
#X connect 78 0 0 0;
#X connect 80 0 0 0;
#X connect 83 0 0 0;
#X connect 86 0 147 0;
#X connect 87 0 89 0;
#X connect 88 0 111 0;
#X connect 88 0 148 0;
#X connect 90 0 0 0;
#X connect 93 0 0 0;
#X connect 96 0 0 0;
#X connect 99 0 0 0;
#X connect 102 0 0 0;
#X connect 106 0 25 0;
#X connect 107 0 0 0;
#X connect 111 0 112 0;
#X connect 113 0 136 0;
#X connect 113 0 139 0;
#X connect 114 0 113 1;
#X connect 117 0 118 0;
#X connect 120 0 0 0;
#X connect 120 0 20 0;
#X connect 124 0 13 0;
#X connect 124 0 1 0;
#X connect 124 1 12 0;
#X connect 124 1 47 0;
#X connect 124 2 11 0;
#X connect 124 2 51 0;
#X connect 124 3 10 0;
#X connect 124 3 54 0;
#X connect 124 4 14 0;
#X connect 124 4 56 0;
#X connect 124 5 67 0;
#X connect 124 5 58 0;
#X connect 124 6 66 0;
#X connect 124 6 74 0;
#X connect 124 7 65 0;
#X connect 124 7 78 0;
#X connect 124 8 64 0;
#X connect 124 8 80 0;
#X connect 124 9 68 0;
#X connect 124 9 83 0;
#X connect 124 10 72 0;
#X connect 124 10 93 0;
#X connect 124 11 71 0;
#X connect 124 11 96 0;
#X connect 124 12 70 0;
#X connect 124 12 99 0;
#X connect 124 13 69 0;
#X connect 124 13 102 0;
#X connect 124 14 73 0;
#X connect 124 14 107 0;
#X connect 124 15 3 0;
#X connect 124 15 129 0;
#X connect 124 16 22 0;
#X connect 124 16 128 0;
#X connect 124 17 90 0;
#X connect 124 17 127 0;
#X connect 124 18 137 0;
#X connect 124 18 126 0;
#X connect 124 19 140 0;
#X connect 124 19 130 0;
#X connect 124 20 120 0;
#X connect 124 20 133 0;
#X connect 124 21 132 0;
#X connect 124 22 131 0;
#X connect 125 0 8 1;
#X connect 136 0 88 0;
#X connect 137 0 0 0;
#X connect 138 0 117 0;
#X connect 139 0 113 1;
#X connect 140 0 0 0;
#X connect 143 0 145 0;
#X connect 145 0 144 0;
#X connect 146 0 9 0;
#X connect 147 0 113 0;
#X connect 148 0 89 0;
#X connect 149 0 46 0;
#X connect 150 0 28 0;
#X connect 150 0 41 0;
#X connect 150 0 149 0;
#X restore 707 78 pd scales;
#X obj 74 241 oneBPimp 62.39 100;
#X obj 707 145 cyclone/cycle 32, f 41;
#X obj 1069 395 outlet, f 8;
#X obj 244 222 oneBPimp 64.32 100;
#X obj 500 355 oneBPimp 67.81 100;
#X obj 64 209 oneBPimp 62 100;
#X obj 444 288 oneBPimp 67.03 100;
#X obj 834 343 oneBPimp 71.68 100;
#X obj 994 369 oneBPimp 74 100;
#X obj 837 224 oneBPimp 72.06 100;
#X obj 312 364 oneBPimp 65.87 100;
#X obj 407 257 oneBPimp 66.65 100;
#X obj 97 277 oneBPimp 62.77 100;
#X obj 123 308 oneBPimp 63.16 100;
#X obj 136 337 oneBPimp 63.54 100;
#X obj 159 370 oneBPimp 63.94 100;
#X obj 247 250 oneBPimp 64.71 100;
#X obj 268 291 oneBPimp 65.1 100;
#X obj 288 328 oneBPimp 65.48 100;
#X obj 387 224 oneBPimp 66.26 100;
#X obj 473 323 oneBPimp 67.42 100;
#X obj 544 224 oneBPimp 68.19 100;
#X obj 570 259 oneBPimp 68.58 100;
#X obj 602 292 oneBPimp 68.97 100;
#X obj 639 323 oneBPimp 69.35 100;
#X obj 671 352 oneBPimp 69.74 100;
#X obj 694 226 oneBPimp 70.13 100;
#X obj 725 257 oneBPimp 70.52 100;
#X obj 760 283 oneBPimp 70.9 100;
#X obj 802 313 oneBPimp 71.29 100;
#X obj 880 254 oneBPimp 72.45 100;
#X obj 901 282 oneBPimp 72.84 100;
#X obj 943 310 oneBPimp 73.23 100;
#X obj 973 335 oneBPimp 73.61 100, f 40;
#X connect 2 0 20 0;
#X connect 2 1 15 0;
#X connect 2 2 27 0;
#X connect 2 3 28 0;
#X connect 2 4 29 0;
#X connect 2 5 30 0;
#X connect 2 6 18 0;
#X connect 2 7 31 0;
#X connect 2 8 32 0;
#X connect 2 9 33 0;
#X connect 2 10 25 0;
#X connect 2 11 34 0;
#X connect 2 12 26 0;
#X connect 2 13 21 0;
#X connect 2 14 35 0;
#X connect 2 15 19 0;
#X connect 2 16 36 0;
#X connect 2 17 37 0;
#X connect 2 18 38 0;
#X connect 2 19 39 0;
#X connect 2 20 40 0;
#X connect 2 21 41 0;
#X connect 2 22 42 0;
#X connect 2 23 43 0;
#X connect 2 24 44 0;
#X connect 2 25 22 0;
#X connect 2 26 24 0;
#X connect 2 27 45 0;
#X connect 2 28 46 0;
#X connect 2 29 47 0;
#X connect 2 30 48 0;
#X connect 2 31 23 0;
#X connect 8 0 15 0;
#X connect 8 0 20 0;
#X connect 8 0 27 0;
#X connect 10 0 23 0;
#X connect 14 0 16 0;
#X connect 14 0 17 0;
#X connect 16 0 11 0;
#X connect 16 0 20 1;
#X connect 16 1 15 1;
#X connect 16 2 27 1;
#X connect 16 3 28 1;
#X connect 16 4 29 1;
#X connect 16 5 30 1;
#X connect 16 6 18 1;
#X connect 16 7 31 1;
#X connect 16 8 32 1;
#X connect 16 9 33 1;
#X connect 16 10 25 1;
#X connect 16 11 34 1;
#X connect 16 12 26 1;
#X connect 16 13 21 1;
#X connect 16 14 35 1;
#X connect 16 15 19 1;
#X connect 16 16 36 1;
#X connect 16 17 37 1;
#X connect 16 18 38 1;
#X connect 16 19 39 1;
#X connect 16 20 40 1;
#X connect 16 21 41 1;
#X connect 16 22 42 1;
#X connect 16 23 43 1;
#X connect 16 24 44 1;
#X connect 16 25 22 1;
#X connect 16 26 24 1;
#X connect 16 27 45 1;
#X connect 16 28 46 1;
#X connect 16 29 47 1;
#X connect 16 30 48 1;
#X connect 16 31 12 0;
#X connect 16 31 23 1;
#X connect 20 0 13 0;
#X connect 23 0 0 0;
#X restore 34 105 pd 32BPfiltersIMPULSE+SENSORS;
#X obj 140 448 atan~ 0.99;
#X obj 138 549 throw~ ch5;
#X obj 139 477 *~ 1;
#X text 606 138 rozdystrybuj te midi noty do czestotliwosci w abstrakcjach
;
#X obj 261 118 cyclone/prepend set;
#X text 59 573 EACH PATCH THROWS CH\$1 AND THEN IT GETS SENT TO fx
POST FADER;
#X obj 256 548 throw~ ch5pre;
#X obj 533 113 outlet;
#X obj 465 116 switch~;
#X floatatom 458 91 2 0 0 0 - - -, f 2;
#X text 475 90 dsp;
#X obj 482 64 tgl 15 0 empty empty empty 17 7 0 10 -262144 -1 -1 1
1;
#X obj 481 38 oneARDinCOMPARE 0.1;
#X floatatom 481 21 5 0 0 0 - patch5level -, f 5;
#X obj 281 66 1_ARD_DIG_BTN;
#X msg 31 216 \; impulse 0 1 0 0 0 0 0 0 0 0 0;
#X obj 218 484 dac~;
#X obj 402 210 hsl 200 15 0 10 0 0 Q_F empty Q_factor 10 8 0 8 -195568
-33289 -33289 19900 0;
#X obj 401 253 hsl 200 15 0 10 0 0 G_F empty G_factor 10 8 0 8 -195568
-33289 -33289 19900 0;
#X obj 47 327 bng 15 250 50 0 empty empty empty 17 7 0 10 -262144 -1
-1;
#X floatatom 146 294 5 0 0 0 - - -, f 5;
#X msg 87 271 2;
#X msg 104 301 1;
#X msg 56 285 3;
#X obj 261 176 maxlib/listfunnel;
#X obj 261 227 s 1_PING_SCALES;
#X msg 358 309 31;
#X msg 217 328 16;
#X msg 161 141 36 38 39 41 43 44 46 47 48 50 51 53 55 56 58 59 60 62
63 65 67 68 70 71 72 74 75 77 79 80 82 83;
#X obj 471 485 cyclone/scope~ 130 130 256 3 128 -1 1 0 0 0 0 102 255
51 135 135 135 0;
#X floatatom 398 273 5 0 0 0 - - -, f 5;
#N canvas 0 51 1012 616 scales 0;
#X msg 37 40 62 62.39 62.77 63.16 63.54 63.94 64.32 64.71 65.1 65.48
65.87 66.26 66.65 67.03 67.42 67.81 68.19 68.58 68.97 69.35 69.74 70.13
70.52 70.9 71.29 71.68 72.06 72.45 72.84 73.23 73.61 74;
#X text 460 33 microtonal 32;
#X text 461 83 38.71 centa dodawac trza do poprzedniego zeby miec 31
tonowa skale;
#X text 459 43 cents in microtonal: 0 39 77 116 154 194 232 271 310
348 387 426 465 503 542 581 619 658 697 735 774 813 852 890 929 968
1006 1045 1084 1123 1161 1200;
#X msg 36 110 15 18 21 24 27 30 33 36 39 42 45 48 51 54 57 60 63 66
69 72 75 78 81 84 87 90 93 96 99 102 105 108;
#X text 466 108 Co tercje mała jedziemy \, gura za glosna!!!;
#X msg 37 149 48 49 50 51 52 53 54 55 56 57 58 59 60 61 62 63 64 65
66 67 68 69 70 71 72 73 74 75 76 77 78 79;
#X msg 456 150 0 1 2 3 4 5 6 7 8 9 10 11;
#X text 480 167 chromatic 1/2 tone;
#X text 448 186 quarter notes;
#X text 455 240 1 hole tone divided into 32!;
#X msg 39 310 48 48.375 48.75 49.125 49.5 49.875 50.25 50.625 51 51.375
51.75 52.125 52.5 52.875 53.25 53.625 54 54.375 54.75 55.125 55.5 55.875
56.25 56.625 57 57.375 57.75 58.125 58.5 58.875 59.25 59.625;
#X text 456 310 microtonal 32 by adding 0.375;
#X text 470 338 12/32=0.375;
#X msg 37 186 60 60.5 61 61.5 62 62.5 63 63.5 64 64.5 65 65.5 66 66.5
67 67.5 68 68.5 69 69.5 70 70.5 71 71.5 72 72.5 73 73.5 74 74.5 75
75.5;
#X msg 47 242 60 60.031 60.062 60.093 60.124 60.155 60.186 60.217 60.248
60.279 60.31 60.341 60.372 60.403 60.434 60.465 60.496 60.527 60.558
60.589 60.62 60.651 60.682 60.713 60.744 60.775 60.806 60.837 60.868
60.899 60.93 60.961;
#X text 458 257 1/32 = 0.031;
#X obj 28 496 s 1_PING_SCALES;
#X obj 11 400 maxlib/listfunnel;
#X connect 0 0 18 0;
#X connect 4 0 18 0;
#X connect 6 0 18 0;
#X connect 11 0 18 0;
#X connect 14 0 18 0;
#X connect 15 0 18 0;
#X connect 18 0 17 0;
#X restore 717 79 pd scales;
#X obj 93 358 1_PING_314_CLONE 2 36 100 100;
#X obj 324 42 tgl 15 0 empty empty empty 17 7 0 10 -262144 -1 -1 1
1;
#X obj 164 379 1_PING_314_CLONE 16 64 100 100;
#X obj 314 355 1_PING_314_CLONE 31 84 100 100;
#X connect 2 0 1 0;
#X connect 3 0 2 1;
#X connect 4 0 5 0;
#X connect 4 0 2 0;
#X connect 5 0 7 0;
#X connect 5 1 6 0;
#X connect 5 2 27 0;
#X connect 10 0 28 0;
#X connect 11 0 13 0;
#X connect 11 0 42 0;
#X connect 12 2 17 0;
#X connect 13 0 15 0;
#X connect 13 0 19 0;
#X connect 13 0 29 0;
#X connect 13 0 29 1;
#X connect 15 0 14 0;
#X connect 17 0 41 0;
#X connect 22 0 21 0;
#X connect 24 0 21 0;
#X connect 24 0 20 0;
#X connect 25 0 24 0;
#X connect 26 0 25 0;
#X connect 27 0 0 0;
#X connect 27 0 8 0;
#X connect 31 0 43 0;
#X connect 32 0 45 0;
#X connect 33 0 45 0;
#X connect 34 0 45 0;
#X connect 35 0 45 0;
#X connect 36 0 45 0;
#X connect 37 0 38 0;
#X connect 39 0 48 0;
#X connect 40 0 47 0;
#X connect 41 0 37 0;
#X connect 46 0 6 0;
