#N canvas 453 1239 934 309 10;
#X obj 311 125 outlet;
#X floatatom 71 71 5 0 0 0 - - -;
#X floatatom 127 71 5 0 0 0 - - -;
#X obj 71 39 oneSTOREval \$1;
#X obj 172 39 oneSTOREval \$1;
#X obj 268 43 oneSTOREval \$1;
#X obj 359 43 oneSTOREval \$1;
#X obj 451 43 oneSTOREval \$1;
#X obj 547 41 oneSTOREval \$1;
#X obj 647 44 oneSTOREval \$1;
#X text 367 7 submenu selector from abstraction name = \$1;
#X text 349 -141 8 values;
#X obj 311 -139 inlet;
#X text 84 7 list in: value \, submenu number;
#X text 79 -130 ARGUMENT - SUBSEND MENU FOR 8 VALUES;
#X text 512 118 sprawdza czy ten numer sie zgadza i potem pakuje z
powrotem w jeden messydz;
#X obj 754 48 oneSTOREval \$1;
#X text 831 -66 subMENU;
#X floatatom 696 -74 5 0 0 0 - - -;
#X text 734 -75 subMENU;
#X obj 71 -27 pack f f;
#X obj 172 -26 pack f f;
#X obj 269 -26 pack f f;
#X obj 359 -27 pack f f;
#X obj 451 -28 pack f f;
#X obj 547 -28 pack f f;
#X obj 648 -27 pack f f;
#X obj 754 -27 pack f f;
#X obj 835 -45 f;
#X floatatom 841 -21 5 0 0 0 - - -;
#X obj 311 -115 unpack f f f f f f f f f;
#X text 512 72 DOSTAJE liste z 8 wartosciamy i sub menu number w inletcie
;
#X text 512 93 rozpakowuje te wartosci \, dopisuje im numer gdzie wyslac
z abs\$1;
#X obj 311 96 pack f f f f f f f f f;
#X connect 3 0 1 0;
#X connect 3 1 2 0;
#X connect 3 1 33 0;
#X connect 4 1 33 1;
#X connect 5 1 33 2;
#X connect 6 1 33 3;
#X connect 7 1 33 4;
#X connect 8 1 33 5;
#X connect 9 1 33 6;
#X connect 12 0 30 0;
#X connect 16 1 33 7;
#X connect 20 0 3 0;
#X connect 21 0 4 0;
#X connect 22 0 5 0;
#X connect 23 0 6 0;
#X connect 24 0 7 0;
#X connect 25 0 8 0;
#X connect 26 0 9 0;
#X connect 27 0 16 0;
#X connect 28 0 20 1;
#X connect 28 0 21 1;
#X connect 28 0 22 1;
#X connect 28 0 23 1;
#X connect 28 0 24 1;
#X connect 28 0 25 1;
#X connect 28 0 26 1;
#X connect 28 0 27 1;
#X connect 28 0 29 0;
#X connect 28 0 33 8;
#X connect 30 0 20 0;
#X connect 30 1 21 0;
#X connect 30 2 22 0;
#X connect 30 3 23 0;
#X connect 30 4 24 0;
#X connect 30 5 25 0;
#X connect 30 6 26 0;
#X connect 30 7 27 0;
#X connect 30 8 18 0;
#X connect 30 8 28 0;
#X connect 33 0 0 0;
