#N canvas 371 393 716 259 10;
#X declare -lib zexy;
#X obj 19 -824 inlet;
#X text 112 -823 incoming sensor value;
#X text 436 -834 check various options and order of objects:;
#X text 441 -802 arguments to abstraction will be:;
#X text 449 -722 smooth value (float);
#X text 447 -696 output range min \, max;
#X text 458 -650 dodac int jeszcze?;
#X obj 19 -797 speedlim \$1;
#X text 439 -791 speedlim ms \, - od 20 do 50 jest ok;
#X text 440 -764 median int (usredniaj ostatnie x values) \,;
#X obj 19 -761 median \$2;
#X text 109 -798 1 speedlim ms \, - od 20 do 50 jest ok;
#X text 106 -762 2 median int (usredniaj ostatnie x values) \,;
#X obj 19 -604 outlet;
#X text 77 -604 scaled out value;
#X obj 19 -728 smooth \$3;
#X text 108 -737 3;
#X text 123 -736 smooth value (float 0-1);
#X text 106 -722 im blizsza zera tym wolniej sie rusza;
#X obj 19 -696 change;
#X text 117 -698 out only if input changed;
#X text 147 -664 scale out range 4=min 5=max;
#X obj 19 -635 + \$6;
#X text 114 -627 6 - offset value (+ / - int /float);
#X obj 19 -665 maxlib/scale 0 1023 \$4 \$5;
#X connect 0 0 7 0;
#X connect 7 0 10 0;
#X connect 10 0 15 0;
#X connect 15 0 19 0;
#X connect 19 0 24 0;
#X connect 22 0 13 0;
#X connect 24 0 22 0;
