#N canvas 760 744 147 224 10;
#X declare -lib zexy;
#X obj -754 -69 int;
#X obj -754 -181 inlet;
#X obj -754 2 outlet;
#X text -721 -71 force to int;
#X obj -754 -114 / 200;
#X obj -754 -45 + 1;
#X obj -754 -22 change;
#X text -715 -197 no args;
#X obj -754 -159 median 3;
#X obj -754 -94 smooth 0.5;
#X obj -754 -137 speedlim 50;
#X obj -680 -95 loadbang;
#X text -719 -182 incoming value;
#X text -713 1 out value;
#X connect 0 0 5 0;
#X connect 1 0 8 0;
#X connect 4 0 9 0;
#X connect 5 0 6 0;
#X connect 6 0 2 0;
#X connect 8 0 10 0;
#X connect 9 0 0 0;
#X connect 10 0 4 0;
#X connect 11 0 0 0;
