#N canvas 1041 451 363 306 10;
#X obj -764 -88 int;
#X obj -723 22 + 1;
#X obj -765 23 i;
#X floatatom -715 95 5 0 0 0 - - -;
#X obj -765 -34 sel 0 1;
#X obj -765 -58 change;
#X obj -764 -162 inlet;
#X text -695 -167 incoming sensor value;
#X obj -765 96 outlet;
#X text -677 95 scaled out value;
#X text -705 -60 out only if input changed;
#X obj -764 -137 speedlim 50;
#X obj -764 -113 / 1000;
#X text -702 -86 force to int;
#X obj -723 47 % \$1;
#X text -682 25 \$1 - modulo wartosc -counter max;
#X obj -765 70 + \$2;
#X text -719 71 2 - offset value (+ / - int );
#X obj -754 -10 loadbang;
#X text -702 -36 flipped for analog;
#X connect 0 0 5 0;
#X connect 1 0 14 0;
#X connect 2 0 1 0;
#X connect 2 0 16 0;
#X connect 4 0 2 0;
#X connect 5 0 4 0;
#X connect 6 0 11 0;
#X connect 11 0 12 0;
#X connect 12 0 0 0;
#X connect 14 0 2 1;
#X connect 16 0 3 0;
#X connect 16 0 8 0;
#X connect 18 0 2 0;
