#N canvas 1486 93 368 233 10;
#X obj 22 0 inlet;
#X obj 22 184 outlet;
#X obj 22 47 change;
#X text 62 -1 button in;
#X obj 22 69 sel 1;
#X obj 66 128 + 1;
#X obj 22 130 i;
#X floatatom 75 183 5 0 0 0 - - -;
#X obj 66 150 % \$1;
#X obj 22 154 + \$2;
#X obj 22 23 speedlim 50;
#X text 98 147 by default just bang out;
#X text 95 45 turn into counter;
#X text 62 66 with argument giving counter maximum;
#X obj -31 182 outlet;
#X text -79 153 first out=bang;
#X text 113 177 second out=int;
#X obj 31 91 loadbang;
#X text 91 90 to avoid zero at initialization;
#X text 90 106 send value when initialized;
#X connect 0 0 10 0;
#X connect 2 0 4 0;
#X connect 4 0 6 0;
#X connect 4 0 14 0;
#X connect 5 0 8 0;
#X connect 6 0 5 0;
#X connect 6 0 9 0;
#X connect 8 0 6 1;
#X connect 9 0 7 0;
#X connect 9 0 1 0;
#X connect 10 0 2 0;
#X connect 17 0 6 0;
