#N canvas 202 319 464 436 10;
#X obj -1863 -45 inlet;
#X floatatom -1888 75 2 0 0 0 - - -;
#X msg -1855 304 \; led_levelss \$1 \$2 \$3 \$4 \; updateLEDS bang
;
#X text -2058 74 wartosc RGB - 1=R 2=G 3=B;
#X text -2097 29 led number -\$1 abst argument;
#X text -2054 51 RGB abst argument \$2;
#X obj -1923 -22 loadbang;
#X text -1916 51 RGB;
#X obj -1896 51 i \$2;
#X obj -1896 95 gate 3;
#X obj -1866 142 t b \$1;
#X obj -1811 142 t b \$1;
#X obj -1756 142 t b \$1;
#X obj -1903 211 pack 0 0 0 0;
#X obj -1903 232 t b l;
#X obj -1923 22 i \$1;
#X obj -1923 -1 t b b;
#X obj -1760 232 inlet;
#X text -1748 212 del;
#X obj -1809 -18 r RGB2;
#X obj -1809 -18 r RGBb;
#X text -1804 -39 rgb;
#X msg -1743 32 0;
#X msg -1809 31 0;
#X msg -1775 30 0;
#X text -1861 52 jak inny led to wyczyszczaj array;
#X obj -1809 6 t f b b b;
#X text -2022 19 led number 0-45;
#X obj -1999 286 del 100;
#X text -1918 -45 in value;
#X text -1948 287 delay led off;
#X msg -1999 307 \; led_levelss const 0 \; updateLEDS bang;
#X connect 0 0 9 1;
#X connect 6 0 16 0;
#X connect 8 0 1 0;
#X connect 8 0 9 0;
#X connect 9 0 10 0;
#X connect 9 1 11 0;
#X connect 9 2 12 0;
#X connect 10 0 13 0;
#X connect 10 1 13 1;
#X connect 11 0 13 0;
#X connect 11 1 13 2;
#X connect 12 0 13 0;
#X connect 12 1 13 3;
#X connect 13 0 14 0;
#X connect 14 0 28 0;
#X connect 14 1 2 0;
#X connect 15 0 13 0;
#X connect 16 0 15 0;
#X connect 16 1 8 0;
#X connect 17 0 28 1;
#X connect 19 0 26 0;
#X connect 20 0 26 0;
#X connect 22 0 12 0;
#X connect 23 0 10 0;
#X connect 24 0 11 0;
#X connect 26 0 8 0;
#X connect 26 1 23 0;
#X connect 26 2 24 0;
#X connect 26 3 22 0;
#X connect 28 0 31 0;
