#N canvas 587 539 475 466 10;
#X text -1788 -123 value;
#X obj -2033 234 pack \$1 0 0 0;
#X floatatom -2056 206 5 0 0 0 - - -;
#X floatatom -2022 208 5 0 0 0 - - -;
#X floatatom -1991 208 5 0 0 0 - - -;
#X floatatom -1959 206 5 0 0 0 - - -;
#X floatatom -1924 206 5 0 0 0 - - -;
#X msg -1923 227 \$1 250 250 250;
#X msg -1944 133 \; led_levelss \$1 \$2 \$3 \$4 \; updateLEDS bang
;
#X obj -1857 14 gate 3;
#X floatatom -1973 -100 5 0 0 0 - - -;
#X obj -1980 -137 r RGB2;
#X obj -1980 -137 r RGBb;
#X obj -1777 161 print;
#X obj -1777 139 gate;
#X obj -1777 119 tgl 15 0 empty empty empty 17 7 0 10 -262144 -1 -1
0 1;
#X obj -1944 54 t b \$1;
#X obj -1899 54 t b \$1;
#X obj -1854 54 t b \$1;
#X obj -1944 95 pack 0 0 0 0;
#X obj -2099 -100 i \$1;
#X text -1975 -158 rgb;
#X obj -1754 120 bng 15 250 50 0 empty empty empty 17 7 0 10 -262144
-1 -1;
#X msg -1914 -9 0;
#X msg -1978 -13 0;
#X msg -1946 -11 0;
#X obj -1980 -35 t b b b b;
#X obj -2099 -23 * 3;
#X text -2053 187 numer leda \, followed by rgb values;
#X msg -2099 135 \; led_levelss const 0 \; updateLEDS bang;
#X obj -2099 40 t b f;
#X text -1842 -38 moze change dac jako opcje?;
#X text -2096 9 jak inny led to wyczyszczaj array;
#X obj -2079 -124 loadbang;
#X text -2121 -145 in - bang czy numer?;
#X obj -2099 -166 inlet;
#X obj -1857 -5 i \$2;
#X text -2026 -190 \$2 = RGB;
#X text -2145 -191 \$1 led number 0-15;
#X text -1819 -6 \$2 = RGB;
#X obj -2070 91 del \$3;
#X text -2092 115 switch off after \$3;
#X text -2067 -102 led number;
#X obj -1777 56 inlet;
#X text -1972 -189 switch off after \$3;
#X obj -1824 -121 inlet;
#X text -1776 36 del time;
#X text -2076 73 if needed to delay led off;
#X connect 2 0 1 0;
#X connect 3 0 1 1;
#X connect 4 0 1 2;
#X connect 5 0 1 3;
#X connect 6 0 7 0;
#X connect 9 0 16 0;
#X connect 9 1 17 0;
#X connect 9 2 18 0;
#X connect 11 0 10 0;
#X connect 11 0 26 0;
#X connect 11 0 9 0;
#X connect 12 0 10 0;
#X connect 12 0 26 0;
#X connect 12 0 9 0;
#X connect 14 0 13 0;
#X connect 15 0 14 0;
#X connect 16 0 19 0;
#X connect 16 1 19 1;
#X connect 17 0 19 0;
#X connect 17 1 19 2;
#X connect 18 0 19 0;
#X connect 18 1 19 3;
#X connect 19 0 8 0;
#X connect 19 0 14 1;
#X connect 20 0 27 0;
#X connect 22 0 14 1;
#X connect 23 0 18 0;
#X connect 24 0 16 0;
#X connect 25 0 17 0;
#X connect 26 1 24 0;
#X connect 26 2 25 0;
#X connect 26 3 23 0;
#X connect 27 0 30 0;
#X connect 30 0 40 0;
#X connect 30 0 29 0;
#X connect 30 1 19 0;
#X connect 33 0 20 0;
#X connect 35 0 20 0;
#X connect 36 0 9 0;
#X connect 43 0 40 1;
#X connect 45 0 9 1;
