#N canvas 433 670 557 342 10;
#X obj -203 -108 inlet;
#X obj -203 -56 unpack f f f f f f f f;
#X text -164 -111 8 values;
#X floatatom -98 -88 1 0 0 0 - - -;
#X text 127 -125 dest from button;
#N canvas 364 1428 369 172 storeCOMPARErecall 0;
#X obj 11 -32 outlet;
#X obj 36 -151 inlet;
#X text 9 -152 val;
#X text 198 -147 dest;
#X obj 198 -29 outlet;
#X floatatom 146 -54 5 0 0 0 - - -;
#X obj 36 -126 oneLOWresFORcompare;
#X obj 36 -103 unpack f f;
#X obj 11 -57 gate;
#X floatatom 67 -30 5 0 0 0 - - -;
#X obj 103 -51 tgl 15 0 empty empty empty 17 7 0 10 -262144 -1 -1 0
1;
#X floatatom 252 -30 5 0 0 0 - - -;
#X obj 198 -100 change;
#X floatatom 253 -80 1 0 0 0 - - -;
#X obj 103 -77 oneSTOREval \$1;
#X obj 198 -124 r \$0-dest;
#X connect 1 0 6 0;
#X connect 6 0 7 0;
#X connect 7 0 8 1;
#X connect 7 1 14 0;
#X connect 8 0 9 0;
#X connect 8 0 0 0;
#X connect 12 0 14 1;
#X connect 12 0 13 0;
#X connect 14 0 10 0;
#X connect 14 0 8 0;
#X connect 14 1 5 0;
#X connect 14 2 11 0;
#X connect 14 2 4 0;
#X connect 15 0 12 0;
#X restore -58 55 pd storeCOMPARErecall;
#X floatatom -48 122 5 0 0 0 - - -;
#X floatatom 94 55 5 0 0 0 - - -;
#X obj 218 -79 change;
#X floatatom 270 -79 1 0 0 0 - - -;
#X obj 218 -104 r \$0-dest;
#N canvas 364 1428 369 172 storeCOMPARErecall 0;
#X obj 11 -32 outlet;
#X obj 36 -151 inlet;
#X text 9 -152 val;
#X text 198 -147 dest;
#X obj 198 -29 outlet;
#X floatatom 146 -54 5 0 0 0 - - -;
#X obj 36 -126 oneLOWresFORcompare;
#X obj 36 -103 unpack f f;
#X obj 11 -57 gate;
#X floatatom 67 -30 5 0 0 0 - - -;
#X obj 103 -51 tgl 15 0 empty empty empty 17 7 0 10 -262144 -1 -1 0
1;
#X floatatom 252 -30 5 0 0 0 - - -;
#X obj 198 -100 change;
#X floatatom 253 -80 1 0 0 0 - - -;
#X obj 103 -77 oneSTOREval \$1;
#X obj 198 -124 r \$0-dest;
#X connect 1 0 6 0;
#X connect 6 0 7 0;
#X connect 7 0 8 1;
#X connect 7 1 14 0;
#X connect 8 0 9 0;
#X connect 8 0 0 0;
#X connect 12 0 14 1;
#X connect 12 0 13 0;
#X connect 14 0 10 0;
#X connect 14 0 8 0;
#X connect 14 1 5 0;
#X connect 14 2 11 0;
#X connect 14 2 4 0;
#X connect 15 0 12 0;
#X restore 28 90 pd storeCOMPARErecall;
#X floatatom 33 123 5 0 0 0 - - -;
#X floatatom 181 91 5 0 0 0 - - -;
#N canvas 352 1420 369 172 storeCOMPARErecall 0;
#X obj 11 -32 outlet;
#X obj 36 -151 inlet;
#X text 9 -152 val;
#X text 198 -147 dest;
#X obj 198 -29 outlet;
#X floatatom 146 -54 5 0 0 0 - - -;
#X obj 36 -126 oneLOWresFORcompare;
#X obj 36 -103 unpack f f;
#X obj 11 -57 gate;
#X floatatom 67 -30 5 0 0 0 - - -;
#X obj 103 -51 tgl 15 0 empty empty empty 17 7 0 10 -262144 -1 -1 0
1;
#X floatatom 252 -30 5 0 0 0 - - -;
#X obj 198 -100 change;
#X floatatom 253 -80 1 0 0 0 - - -;
#X obj 103 -77 oneSTOREval \$1;
#X obj 198 -124 r \$0-dest;
#X connect 1 0 6 0;
#X connect 6 0 7 0;
#X connect 7 0 8 1;
#X connect 7 1 14 0;
#X connect 8 0 9 0;
#X connect 8 0 0 0;
#X connect 12 0 14 1;
#X connect 12 0 13 0;
#X connect 14 0 10 0;
#X connect 14 0 8 0;
#X connect 14 1 5 0;
#X connect 14 2 11 0;
#X connect 14 2 4 0;
#X connect 15 0 12 0;
#X restore 70 109 pd storeCOMPARErecall;
#X floatatom 79 126 5 0 0 0 - - -;
#X floatatom 224 110 5 0 0 0 - - -;
#N canvas 364 1428 369 172 storeCOMPARErecall 0;
#X obj 11 -32 outlet;
#X obj 36 -151 inlet;
#X text 9 -152 val;
#X text 198 -147 dest;
#X obj 198 -29 outlet;
#X floatatom 146 -54 5 0 0 0 - - -;
#X obj 36 -126 oneLOWresFORcompare;
#X obj 36 -103 unpack f f;
#X obj 11 -57 gate;
#X floatatom 67 -30 5 0 0 0 - - -;
#X obj 103 -51 tgl 15 0 empty empty empty 17 7 0 10 -262144 -1 -1 0
1;
#X floatatom 252 -30 5 0 0 0 - - -;
#X obj 198 -100 change;
#X floatatom 253 -80 1 0 0 0 - - -;
#X obj 103 -77 oneSTOREval \$1;
#X obj 198 -124 r \$0-dest;
#X connect 1 0 6 0;
#X connect 6 0 7 0;
#X connect 7 0 8 1;
#X connect 7 1 14 0;
#X connect 8 0 9 0;
#X connect 8 0 0 0;
#X connect 12 0 14 1;
#X connect 12 0 13 0;
#X connect 14 0 10 0;
#X connect 14 0 8 0;
#X connect 14 1 5 0;
#X connect 14 2 11 0;
#X connect 14 2 4 0;
#X connect 15 0 12 0;
#X restore -16 71 pd storeCOMPARErecall;
#X floatatom -7 122 5 0 0 0 - - -;
#X floatatom 136 72 5 0 0 0 - - -;
#N canvas 364 1428 369 172 storeCOMPARErecall 0;
#X obj 11 -32 outlet;
#X obj 36 -151 inlet;
#X text 9 -152 val;
#X text 198 -147 dest;
#X obj 198 -29 outlet;
#X floatatom 146 -54 5 0 0 0 - - -;
#X obj 36 -126 oneLOWresFORcompare;
#X obj 36 -103 unpack f f;
#X obj 11 -57 gate;
#X floatatom 67 -30 5 0 0 0 - - -;
#X obj 103 -51 tgl 15 0 empty empty empty 17 7 0 10 -262144 -1 -1 0
1;
#X floatatom 252 -30 5 0 0 0 - - -;
#X obj 198 -100 change;
#X floatatom 253 -80 1 0 0 0 - - -;
#X obj 103 -77 oneSTOREval \$1;
#X obj 198 -124 r \$0-dest;
#X connect 1 0 6 0;
#X connect 6 0 7 0;
#X connect 7 0 8 1;
#X connect 7 1 14 0;
#X connect 8 0 9 0;
#X connect 8 0 0 0;
#X connect 12 0 14 1;
#X connect 12 0 13 0;
#X connect 14 0 10 0;
#X connect 14 0 8 0;
#X connect 14 1 5 0;
#X connect 14 2 11 0;
#X connect 14 2 4 0;
#X connect 15 0 12 0;
#X restore -99 36 pd storeCOMPARErecall;
#X floatatom -91 122 5 0 0 0 - - -;
#X floatatom 55 37 5 0 0 0 - - -;
#N canvas 364 1428 369 172 storeCOMPARErecall 0;
#X obj 11 -32 outlet;
#X obj 36 -151 inlet;
#X text 9 -152 val;
#X text 198 -147 dest;
#X obj 198 -29 outlet;
#X floatatom 146 -54 5 0 0 0 - - -;
#X obj 36 -126 oneLOWresFORcompare;
#X obj 36 -103 unpack f f;
#X obj 11 -57 gate;
#X floatatom 67 -30 5 0 0 0 - - -;
#X obj 103 -51 tgl 15 0 empty empty empty 17 7 0 10 -262144 -1 -1 0
1;
#X floatatom 252 -30 5 0 0 0 - - -;
#X obj 198 -100 change;
#X floatatom 253 -80 1 0 0 0 - - -;
#X obj 103 -77 oneSTOREval \$1;
#X obj 198 -124 r \$0-dest;
#X connect 1 0 6 0;
#X connect 6 0 7 0;
#X connect 7 0 8 1;
#X connect 7 1 14 0;
#X connect 8 0 9 0;
#X connect 8 0 0 0;
#X connect 12 0 14 1;
#X connect 12 0 13 0;
#X connect 14 0 10 0;
#X connect 14 0 8 0;
#X connect 14 1 5 0;
#X connect 14 2 11 0;
#X connect 14 2 4 0;
#X connect 15 0 12 0;
#X restore -185 -6 pd storeCOMPARErecall;
#X floatatom -178 121 5 0 0 0 - - -;
#X floatatom -39 -7 5 0 0 0 - - -;
#N canvas 361 1426 369 172 storeCOMPARErecall 0;
#X obj 11 -32 outlet;
#X obj 36 -151 inlet;
#X text 9 -152 val;
#X text 198 -147 dest;
#X obj 198 -29 outlet;
#X floatatom 146 -54 5 0 0 0 - - -;
#X obj 36 -126 oneLOWresFORcompare;
#X obj 36 -103 unpack f f;
#X obj 11 -57 gate;
#X floatatom 67 -30 5 0 0 0 - - -;
#X obj 103 -51 tgl 15 0 empty empty empty 17 7 0 10 -262144 -1 -1 0
1;
#X floatatom 252 -30 5 0 0 0 - - -;
#X obj 198 -100 change;
#X floatatom 253 -80 1 0 0 0 - - -;
#X obj 103 -77 oneSTOREval \$1;
#X obj 198 -124 r \$0-dest;
#X connect 1 0 6 0;
#X connect 6 0 7 0;
#X connect 7 0 8 1;
#X connect 7 1 14 0;
#X connect 8 0 9 0;
#X connect 8 0 0 0;
#X connect 12 0 14 1;
#X connect 12 0 13 0;
#X connect 14 0 10 0;
#X connect 14 0 8 0;
#X connect 14 1 5 0;
#X connect 14 2 11 0;
#X connect 14 2 4 0;
#X connect 15 0 12 0;
#X restore -226 -28 pd storeCOMPARErecall;
#X floatatom -218 119 5 0 0 0 - - -;
#X floatatom -75 -27 5 0 0 0 - - -;
#N canvas 364 1428 369 172 storeCOMPARErecall 0;
#X obj 11 -32 outlet;
#X obj 36 -151 inlet;
#X text 9 -152 val;
#X text 198 -147 dest;
#X obj 198 -29 outlet;
#X floatatom 146 -54 5 0 0 0 - - -;
#X obj 36 -126 oneLOWresFORcompare;
#X obj 36 -103 unpack f f;
#X obj 11 -57 gate;
#X floatatom 67 -30 5 0 0 0 - - -;
#X obj 103 -51 tgl 15 0 empty empty empty 17 7 0 10 -262144 -1 -1 0
1;
#X floatatom 252 -30 5 0 0 0 - - -;
#X obj 198 -100 change;
#X floatatom 253 -80 1 0 0 0 - - -;
#X obj 103 -77 oneSTOREval \$1;
#X obj 198 -124 r \$0-dest;
#X connect 1 0 6 0;
#X connect 6 0 7 0;
#X connect 7 0 8 1;
#X connect 7 1 14 0;
#X connect 8 0 9 0;
#X connect 8 0 0 0;
#X connect 12 0 14 1;
#X connect 12 0 13 0;
#X connect 14 0 10 0;
#X connect 14 0 8 0;
#X connect 14 1 5 0;
#X connect 14 2 11 0;
#X connect 14 2 4 0;
#X connect 15 0 12 0;
#X restore -141 14 pd storeCOMPARErecall;
#X floatatom -134 120 5 0 0 0 - - -;
#X floatatom 10 15 5 0 0 0 - - -;
#X obj -227 144 outlet;
#X text 69 -15 arg \$1= destination of values;
#X obj 248 -36 f \$1;
#X floatatom 248 -14 5 0 0 0 - - -;
#X obj -185 144 outlet;
#X obj -141 144 outlet;
#X obj -99 144 outlet;
#X obj -58 144 outlet;
#X obj -16 144 outlet;
#X obj 28 144 outlet;
#X obj 70 144 outlet;
#X text -229 -154 takes list \, and dest arg \, compares with stored
value amd dest value of the argument \, only outputs value if both
previous val = new and dest = \$1;
#X obj 247 -56 bng 15 250 50 0 empty empty empty 17 7 0 10 -262144
-1 -1;
#X obj -98 -108 inlet;
#X text -60 -110 dest;
#X obj 0 -85 s \$0-dest;
#X connect 0 0 1 0;
#X connect 1 0 26 0;
#X connect 1 1 23 0;
#X connect 1 2 29 0;
#X connect 1 3 20 0;
#X connect 1 4 5 0;
#X connect 1 5 17 0;
#X connect 1 6 11 0;
#X connect 1 7 14 0;
#X connect 5 0 6 0;
#X connect 5 0 39 0;
#X connect 5 1 7 0;
#X connect 10 0 9 0;
#X connect 10 0 8 0;
#X connect 11 0 12 0;
#X connect 11 0 41 0;
#X connect 11 1 13 0;
#X connect 14 0 15 0;
#X connect 14 0 42 0;
#X connect 14 1 16 0;
#X connect 17 0 18 0;
#X connect 17 0 40 0;
#X connect 17 1 19 0;
#X connect 20 0 21 0;
#X connect 20 0 38 0;
#X connect 20 1 22 0;
#X connect 23 0 24 0;
#X connect 23 0 36 0;
#X connect 23 1 25 0;
#X connect 26 0 27 0;
#X connect 26 0 32 0;
#X connect 26 1 28 0;
#X connect 29 0 30 0;
#X connect 29 0 37 0;
#X connect 29 1 31 0;
#X connect 34 0 35 0;
#X connect 44 0 34 0;
#X connect 45 0 3 0;
#X connect 45 0 47 0;
