#N canvas 2321 454 161 390 10;
#X obj -1390 -1122 inlet;
#X obj -1408 -1169 inlet;
#X text -1366 -1170 bang to count;
#X obj -1390 -1099 unpack;
#X text -1407 -1139 seq start/end;
#X text -1403 -1197 \$1 - urn max;
#X text -1400 -1212 simple urn seq;
#X obj -1337 -937 bng 15 250 50 0 empty empty empty 17 7 0 10 -262144
-1 -1;
#X msg -1338 -966 clear;
#X floatatom -1406 -884 5 0 0 0 - - -;
#X obj -1356 -859 outlet;
#X obj -1415 -858 outlet;
#X obj -1356 -879 bng 15 250 50 0 empty empty empty 17 7 0 10 -262144
-1 -1;
#X obj -1408 -1025 urn \$1;
#X obj -1345 -1066 i;
#X obj -1375 -1068 i;
#X obj -1408 -962 + 1;
#X obj -1408 -985 +;
#X obj -1344 -996 t b b b;
#X obj -1416 -916 maxlib/wrap 1 \$2;
#X text -1398 -1188 \$2 wrap to;
#X connect 0 0 3 0;
#X connect 1 0 13 0;
#X connect 3 0 15 1;
#X connect 3 0 17 1;
#X connect 3 1 14 1;
#X connect 8 0 7 0;
#X connect 8 0 13 0;
#X connect 12 0 10 0;
#X connect 13 0 17 0;
#X connect 13 1 18 0;
#X connect 14 0 13 1;
#X connect 15 0 17 1;
#X connect 16 0 19 0;
#X connect 17 0 16 0;
#X connect 18 1 14 0;
#X connect 18 1 15 0;
#X connect 18 2 8 0;
#X connect 19 0 12 0;
#X connect 19 0 9 0;
#X connect 19 0 11 0;
