#N canvas 883 383 478 420 10;
#X obj -764 -88 int;
#X obj -765 -34 sel 0 1;
#X obj -765 -58 change;
#X obj -764 -169 inlet;
#X text -695 -167 incoming sensor value;
#X obj -781 157 outlet;
#X text -733 156 scaled out value;
#X text -725 -60 out only if input changed;
#X obj -764 -143 speedlim 50;
#X text -722 -86 force to int;
#X obj -764 -113 / 1000;
#X msg -766 21 1;
#X msg -732 19 0;
#X text -857 88 1 argument - switch output 0/1 1/0;
#X msg -666 20 1;
#X msg -698 20 0;
#X obj -781 56 switch;
#X obj -857 4 tgl 15 0 empty empty empty 17 7 0 10 -262144 -1 -1 0
1;
#X obj -857 30 + 1;
#X obj -857 -53 loadbang;
#X obj -857 -28 int \$1;
#X connect 0 0 2 0;
#X connect 1 0 11 0;
#X connect 1 0 15 0;
#X connect 1 1 12 0;
#X connect 1 1 14 0;
#X connect 2 0 1 0;
#X connect 3 0 8 0;
#X connect 8 0 10 0;
#X connect 10 0 0 0;
#X connect 11 0 16 1;
#X connect 12 0 16 1;
#X connect 14 0 16 2;
#X connect 15 0 16 2;
#X connect 16 0 5 0;
#X connect 17 0 18 0;
#X connect 18 0 16 0;
#X connect 19 0 20 0;
#X connect 20 0 17 0;
