#N canvas 1042 237 242 298 10;
#X obj -915 -70 sel 0 1;
#X obj -915 -94 change;
#X obj -915 -146 inlet;
#X text -863 -149 incoming sensor value;
#X obj -932 119 outlet;
#X text -874 -94 out only if input changed;
#X msg -915 -19 1;
#X msg -881 -21 0;
#X msg -815 -20 1;
#X msg -847 -20 0;
#X obj -932 77 switch;
#X obj -744 23 tgl 15 0 empty empty empty 17 7 0 10 -262144 -1 -1 0
1;
#X obj -743 42 + 1;
#X obj -773 -131 loadbang;
#X obj -744 2 int \$1;
#X text -923 96 1 argument - flip output 0/1 1/0;
#X text -882 74 default - normal;
#X obj -915 16 i;
#X text -935 36 to avoid zero at initialization;
#X text -936 52 send value when initialized;
#X obj -846 15 i;
#X obj -892 -119 speedlim 15;
#X obj -771 -110 t b b;
#X connect 0 0 6 0;
#X connect 0 0 9 0;
#X connect 0 1 7 0;
#X connect 0 1 8 0;
#X connect 1 0 0 0;
#X connect 2 0 21 0;
#X connect 2 0 1 0;
#X connect 6 0 17 0;
#X connect 7 0 17 0;
#X connect 8 0 20 0;
#X connect 9 0 20 0;
#X connect 10 0 4 0;
#X connect 11 0 12 0;
#X connect 12 0 10 0;
#X connect 13 0 22 0;
#X connect 14 0 11 0;
#X connect 17 0 10 1;
#X connect 20 0 10 2;
#X connect 22 0 1 0;
#X connect 22 1 14 0;
