#N canvas 340 300 458 472 10;
#X floatatom -1656 202 5 0 0 0 - - -;
#X text -1714 196 RGB?;
#X text -1592 22 pot in;
#X obj -1689 228 gate 3;
#X obj -1742 368 pack \$1 0 0 0;
#X text -1628 390 led number - get from abstraction?;
#X obj -1583 52 inlet;
#X text -1590 7 value;
#X obj -1700 10 inlet;
#X text -1847 170 wartosc z buttona - 0 zamkniete;
#X floatatom -1690 128 5 0 0 0 - - -;
#X obj -1722 394 print;
#X msg -1655 334 0;
#X msg -1593 332 0;
#X obj -1593 279 t b b b \$1;
#X floatatom -1804 299 5 0 0 0 - - -;
#X obj -1670 277 t b b \$1 b;
#X obj -1754 277 t b \$1 b b;
#X msg -1790 418 \; led_levelss \$1 \$2 \$3 \$4 \; updateLEDS bang
;
#X obj -1791 391 t l;
#X obj -1699 34 unpack 0 255;
#X connect 0 0 3 1;
#X connect 3 0 17 0;
#X connect 3 1 16 0;
#X connect 3 2 14 0;
#X connect 4 0 19 0;
#X connect 6 0 0 0;
#X connect 8 0 20 0;
#X connect 10 0 3 0;
#X connect 12 0 4 1;
#X connect 13 0 4 2;
#X connect 14 0 4 0;
#X connect 14 1 12 0;
#X connect 14 2 13 0;
#X connect 14 3 4 3;
#X connect 15 0 4 0;
#X connect 16 0 4 0;
#X connect 16 1 12 0;
#X connect 16 2 4 2;
#X connect 16 3 13 0;
#X connect 17 0 4 0;
#X connect 17 1 4 1;
#X connect 17 2 12 0;
#X connect 17 3 13 0;
#X connect 19 0 18 0;
#X connect 20 0 10 0;
#X connect 20 1 0 0;
