#N canvas 978 238 300 438 10;
#X obj -2089 -255 pack \$1 0 0 0;
#X floatatom -2112 -283 5 0 0 0 - - -;
#X floatatom -2078 -281 5 0 0 0 - - -;
#X floatatom -2047 -281 5 0 0 0 - - -;
#X floatatom -2015 -283 5 0 0 0 - - -;
#X floatatom -1980 -283 5 0 0 0 - - -;
#X msg -1979 -262 \$1 250 250 250;
#X msg -2024 87 \; led_levelss \$1 \$2 \$3 \$4 \; updateLEDS bang;
#X obj -2004 -2 gate 3;
#X obj -2004 25 t b \$1;
#X obj -1959 25 t b \$1;
#X obj -1914 25 t b \$1;
#X obj -2024 64 pack 0 0 0 0;
#X obj -1971 -171 inlet;
#X obj -2051 -145 i \$1;
#X obj -2051 -102 * 3;
#X text -2109 -302 numer leda \, followed by rgb values;
#X obj -2051 -188 loadbang;
#X obj -2130 -189 inlet;
#X obj -2004 -118 i \$2;
#X text -2122 -204 \$1 led number 0-15;
#X text -1988 -191 val inlet;
#X obj -2051 -168 t b b;
#X text -2121 -148 led number;
#X text -2034 -121 rgb;
#X obj -1932 -159 inlet;
#X text -1951 -141 del for led off;
#X msg -1947 -26 0;
#X obj -1947 -49 del;
#X text -2082 -188 in;
#X text -1999 -204 \$2 rgb;
#X floatatom -2101 -86 5 0 0 0 - - -;
#X floatatom -2108 1 5 0 0 0 - - -;
#X obj -2051 -77 t b f;
#X obj -2131 -49 print;
#X connect 1 0 0 0;
#X connect 2 0 0 1;
#X connect 3 0 0 2;
#X connect 4 0 0 3;
#X connect 5 0 6 0;
#X connect 8 0 9 0;
#X connect 8 1 10 0;
#X connect 8 2 11 0;
#X connect 9 0 12 0;
#X connect 9 1 12 1;
#X connect 10 0 12 0;
#X connect 10 1 12 2;
#X connect 11 0 12 0;
#X connect 11 1 12 3;
#X connect 12 0 7 0;
#X connect 13 0 8 1;
#X connect 14 0 15 0;
#X connect 14 0 31 0;
#X connect 15 0 33 0;
#X connect 17 0 22 0;
#X connect 18 0 34 0;
#X connect 18 0 14 0;
#X connect 19 0 8 0;
#X connect 22 0 14 0;
#X connect 22 1 19 0;
#X connect 25 0 28 1;
#X connect 27 0 8 1;
#X connect 28 0 27 0;
#X connect 33 0 28 0;
#X connect 33 1 12 0;
#X connect 33 1 32 0;
