#N canvas 1168 643 452 314 10;
#X obj -28 53 inlet;
#X floatatom 153 75 5 0 0 0 - - -;
#X obj -57 243 *~ 0.99;
#X obj 115 76 f \$1;
#X obj 116 98 mtof;
#X obj 115 53 loadbang;
#X text -56 280 audio out;
#X obj 52 252 outlet;
#X text 52 270 center frequency;
#X obj 176 55 bng 15 250 50 0 empty empty empty 17 7 0 10 -262144 -1
-1;
#X obj -57 32 inlet~;
#X obj -28 99 dbtorms;
#X floatatom -12 147 5 0 0 0 - - -;
#X floatatom 117 118 5 0 0 0 - - -;
#X obj -56 218 hip~ 15;
#X text 148 96 filtra freq from creation argument;
#X text 16 98 from db to AMP;
#X text 2 118 100db = 1 (max);
#X obj 282 210 dbtorms;
#X floatatom 282 190 5 0 0 0 - - -;
#X floatatom 283 229 5 0 0 0 - - -;
#X floatatom 0 77 5 0 0 0 - - -;
#X text -13 29 Gain;
#X obj -28 123 * 10;
#X floatatom 234 189 5 0 0 0 - - -;
#X floatatom 235 228 5 0 0 0 - - -;
#X obj 234 209 db2v;
#X obj -30 77 + 6;
#X obj -57 192 reson~ 1 100 50;
#X text 195 156 center freq = 60;
#X floatatom 156 157 5 0 0 0 - - -;
#X obj 119 137 ftom;
#X floatatom 156 182 5 0 0 0 - - -;
#X floatatom 200 55 5 0 0 0 - - -;
#X obj 200 75 mtof;
#X obj 119 157 / 60;
#X obj 119 177 * 50;
#X floatatom 158 208 5 0 0 0 - - -;
#X text 25 29 Q ZMIENIALO SIE Z CZESTOTLIWOSCIA? \, IM WYZSZA TYM WIEKSZE
Q;
#X text -58 8 wartosc z sensora do sterowania i gain;
#X text 161 272 Q for this patch;
#X obj 155 248 outlet;
#X obj -56 264 outlet~;
#X connect 0 0 21 0;
#X connect 0 0 27 0;
#X connect 1 0 4 0;
#X connect 2 0 42 0;
#X connect 3 0 4 0;
#X connect 4 0 7 0;
#X connect 4 0 13 0;
#X connect 4 0 28 2;
#X connect 5 0 3 0;
#X connect 9 0 3 0;
#X connect 10 0 28 0;
#X connect 11 0 23 0;
#X connect 13 0 31 0;
#X connect 14 0 2 0;
#X connect 18 0 20 0;
#X connect 19 0 18 0;
#X connect 23 0 12 0;
#X connect 23 0 28 1;
#X connect 24 0 26 0;
#X connect 26 0 25 0;
#X connect 27 0 11 0;
#X connect 28 0 14 0;
#X connect 31 0 30 0;
#X connect 31 0 35 0;
#X connect 33 0 34 0;
#X connect 34 0 31 0;
#X connect 35 0 32 0;
#X connect 35 0 36 0;
#X connect 36 0 37 0;
#X connect 36 0 28 3;
#X connect 37 0 41 0;
