#N canvas 250 606 271 348 10;
#X obj -906 -712 inlet;
#X obj -921 -777 inlet;
#X obj -762 -773 inlet;
#X obj -921 -542 outlet;
#X obj -921 -597 + 1;
#X obj -808 -680 + 1;
#X obj -921 -620 i;
#X obj -769 -679 - 1;
#X floatatom -808 -612 2 0 0 0 - - -;
#X text -919 -798 bang to count;
#X text -818 -754 seq direction;
#X obj -906 -689 unpack;
#X obj -783 -797 loadbang;
#X obj -808 -639 % \$1;
#X obj -921 -570 maxlib/wrap 1 \$3;
#X obj -808 -704 gate 2;
#X obj -783 -727 i \$2;
#X text -920 -729 seq start/end;
#X text -814 -562 \$1 - seq max;
#X text -815 -549 \$2 direction 1upp 2down;
#X text -815 -575 simple seq \, arg:;
#X text -814 -537 \$3 - wrapping;
#X text -921 -848 inlets: bang to count \,;
#X text -921 -833 first/last step list;
#X text -924 -822 direction;
#X connect 0 0 11 0;
#X connect 1 0 6 0;
#X connect 2 0 15 0;
#X connect 2 0 16 1;
#X connect 4 0 14 0;
#X connect 5 0 13 0;
#X connect 6 0 4 0;
#X connect 6 0 15 1;
#X connect 7 0 13 0;
#X connect 11 0 4 1;
#X connect 11 1 13 1;
#X connect 12 0 16 0;
#X connect 13 0 6 1;
#X connect 13 0 8 0;
#X connect 14 0 3 0;
#X connect 15 0 5 0;
#X connect 15 1 7 0;
#X connect 16 0 15 0;
