#N canvas 79 471 343 338 10;
#X obj 18 197 int;
#X obj 18 14 inlet;
#X obj 18 287 outlet;
#X text 74 201 force to int;
#X obj 18 263 change;
#X obj 176 165 loadbang;
#X text 88 70 incoming value;
#X text 88 290 out value;
#X obj 18 115 mapping/median 3;
#X obj 18 164 mapping/smooth 0.5;
#X obj 18 92 + 1;
#X obj 18 71 * -0.001;
#X text 77 241 lowest val = 1;
#X obj 18 37 speedlim 50;
#X obj 18 140 * \$1;
#X text 66 12 ARGUMENT $;
#X text 147 13 HOW MANY STATES SWITCH HAS;
#X obj 18 240 + \$2;
#X text 105 38 ARGUMENT \$2 - offset;
#X connect 0 0 17 0;
#X connect 1 0 13 0;
#X connect 4 0 2 0;
#X connect 5 0 0 0;
#X connect 8 0 14 0;
#X connect 9 0 0 0;
#X connect 10 0 8 0;
#X connect 11 0 10 0;
#X connect 13 0 11 0;
#X connect 14 0 9 0;
#X connect 17 0 4 0;
