#N canvas 59 96 1027 217 12;
#X text 204 166 0-1;
#X text 207 110 0-1;
#X obj 929 115 print;
#X obj 929 90 spigot;
#X obj 962 61 tgl 15 0 empty empty empty 17 7 0 10 -262144 -1 -1 1
1;
#X text 65 26 INPUT CTRL LIST NORMALIZED;
#X obj 619 79 tgl 15 0 empty empty empty 17 7 0 10 -128992 -258113
-1 0 1;
#X obj 777 118 bng 15 250 50 0 FX_P\$1_PAR_D2B empty D2B 17 7 0 10
-258113 -1 -1;
#X obj 719 78 tgl 15 0 empty empty empty 17 7 0 10 -128992 -258113
-1 0 1;
#X obj 815 79 tgl 15 0 empty empty empty 17 7 0 10 -128992 -258113
-1 0 1;
#X obj 265 27 r FX\$1_CTRL_LIST;
#X obj 52 53 r FX3_CTRL_LIST;
#X text 411 17 TEMPLATE FOR ALL FX PATCHES - INPUT = LIST of 7;
#X text 410 34 4 POTS analgo \, 2 buttons 1 switch;
#X obj 264 54 unpack f f f f f f f, f 82;
#X obj 267 120 hsl 50 10 0 1 0 0 FX_P\$1_PAR_A1 empty A1 -20 6 0 10
-128992 -258113 -1 2385 1;
#X obj 362 118 hsl 50 10 0 1 0 0 FX_P\$1_PAR_A2 empty A2 -20 6 0 10
-128992 -258113 -1 1969 1;
#X obj 457 118 hsl 50 10 0 1 0 0 FX_P\$1_PAR_A3 empty A3 -20 6 0 10
-128992 -258113 -1 3755 1;
#X obj 552 118 hsl 50 10 0 1 0 0 FX_P\$1_PAR_A4 empty A4 -20 6 0 10
-128992 -258113 -1 1423 1;
#X obj 638 116 tgl 15 0 FX_P\$1_PAR_D1 empty D1 17 7 0 10 -258113 -1
-1 0 1;
#X obj 699 163 bng 15 250 50 0 empty FX_P\$1_PAR_D1B D1B 17 7 0 10
-4034 -1 -1;
#X obj 638 162 tgl 15 0 empty FX_P\$1_PAR_D1 D1 17 7 0 10 -4034 -1
-1 0 1;
#X obj 267 170 hsl 50 10 0 1 0 0 empty FX_P\$1_PAR_A1 A1 -20 6 0 10
-128992 -4034 -1 2385 1;
#X obj 362 168 hsl 50 10 0 1 0 0 empty FX_P\$1_PAR_A2 A2 -20 6 0 10
-128992 -4034 -1 1969 1;
#X obj 457 168 hsl 50 10 0 1 0 0 empty FX_P\$1_PAR_A3 A3 -20 6 0 10
-128992 -4034 -1 3755 1;
#X obj 552 168 hsl 50 10 0 1 0 0 empty FX_P\$1_PAR_A4 A4 -20 6 0 10
-128992 -4034 -1 1423 1;
#X obj 739 117 tgl 15 0 FX_P\$1_PAR_D2 empty D2 17 7 0 10 -258113 -1
-1 0 1;
#X obj 779 163 bng 15 250 50 0 empty FX_P\$1_PAR_D2B D2B 17 7 0 10
-4034 -1 -1;
#X obj 748 162 tgl 15 0 empty FX_P\$1_PAR_D2 D2 17 7 0 10 -4034 -1
-1 0 1;
#X obj 869 163 bng 15 250 50 0 empty FX_P\$1_PAR_D3B D3B 17 7 0 10
-4034 -1 -1;
#X obj 838 162 tgl 15 0 empty FX_P\$1_PAR_D3 D3 17 7 0 10 -4034 -1
-1 0 1;
#X text 56 100 NAMING IN PROPERTIES;
#X text 56 115 SEND;
#X text 86 114 FX_P#1_PAR_A1;
#X obj 871 117 bng 15 250 50 0 FX_P\$1_PAR_D3B empty D3B 17 7 0 10
-258113 -1 -1;
#X obj 835 117 tgl 15 0 FX_P\$1_PAR_D3 empty D3 17 7 0 10 -258113 -1
-1 0 1;
#X obj 639 79 1_ARD_DIG_SW 1, f 9;
#X connect 3 0 2 0;
#X connect 4 0 3 1;
#X connect 10 0 14 0;
#X connect 11 0 14 0;
#X connect 14 0 15 0;
#X connect 14 1 16 0;
#X connect 14 2 17 0;
#X connect 14 3 18 0;
#X connect 14 4 6 0;
#X connect 14 4 36 0;
#X connect 14 5 8 0;
#X connect 14 5 26 0;
#X connect 14 6 9 0;
#X connect 14 6 35 0;
#X connect 36 0 19 0;
#X coords 0 217 1 216 85 60 0;
