#N canvas 905 475 455 287 10;
#X obj 22 17 inlet;
#X text 158 19 incoming sensor value;
#X obj 22 184 outlet;
#X text 80 184 scaled out value;
#X text 166 142 smooth value (float 0-1);
#X text 149 156 im blizsza zera tym wolniej sie rusza;
#X obj 138 114 r smooth_factor_ldrs;
#X text 87 46 normalize to 0-1 (so we can treat as signal);
#X obj 22 43 / 1024;
#X obj 22 66 * -1;
#X obj 22 98 + 1;
#X floatatom 226 209 5 0 0 0 - - -, f 5;
#X obj 307 202 i \$1;
#X obj 318 178 bng 15 250 50 0 empty empty empty 17 7 0 10 -262144
-1 -1;
#X floatatom 311 225 5 0 0 0 - - -, f 5;
#X obj 267 252 print;
#X obj 22 150 mapping/smooth \$2;
#X connect 0 0 8 0;
#X connect 6 0 16 1;
#X connect 8 0 9 0;
#X connect 9 0 10 0;
#X connect 10 0 16 0;
#X connect 12 0 14 0;
#X connect 12 0 15 0;
#X connect 13 0 12 0;
#X connect 16 0 2 0;
#X connect 16 0 11 0;
