#N canvas 158 480 467 358 10;
#X obj 21 65 inlet;
#X text 131 62 incoming sensor value;
#X obj 21 325 outlet;
#X text 79 325 scaled out value;
#X text 159 276 smooth value (float 0-1);
#X text 148 287 im blizsza zera tym wolniej sie rusza;
#X obj 137 255 r smooth_factor_ldrs;
#X obj 21 99 speedlim \$1;
#X text 133 95 1 speedlim ms \, - od 20 do 50 jest ok;
#X obj 21 132 - 23;
#X text 133 133 force lower values to 0;
#X obj 21 162 clip 0 1000;
#X text 128 164 restrain values;
#X obj 21 226 * 0.001;
#X obj 21 281 mapping/smooth \$2;
#X obj 21 195 change;
#X text 134 227 normalize to 0-1 for audio parameters;
#X text 149 276 2;
#X text 28 16 arguments to abstraction;
#X text 27 29 1 speedlim ms \, 20 do 50 jest ok;
#X text 24 40 2 smooth - closer to 0 - more smut;
#X text 137 194 filterchange;
#X connect 0 0 7 0;
#X connect 6 0 14 1;
#X connect 7 0 9 0;
#X connect 9 0 11 0;
#X connect 11 0 15 0;
#X connect 13 0 14 0;
#X connect 14 0 2 0;
#X connect 15 0 13 0;
