#N canvas 131 51 482 449 10;
#X obj 156 322 osc~ 440;
#X obj 112 352 *~;
#X obj 112 396 dac~;
#X obj 82 323 vline~;
#X msg 82 302 1 \, 0 250;
#X obj 112 374 *~ 0.25;
#X msg 93 144 tempo \$1;
#X msg 156 144 resolution \$1;
#X msg 253 144 reset 0 \$1;
#X floatatom 93 125 5 0 0 2 tempo tempo -, f 5;
#X floatatom 156 126 5 0 0 2 resolution resolution -, f 5;
#X floatatom 253 126 5 0 0 2 quantum quantum -, f 5;
#X obj 201 299 f 440;
#X obj 119 193 abl_link~ 1 0 4 140;
#X obj 156 299 f 880;
#X obj 156 255 select 0;
#X obj 156 278 bng 15 250 50 0 empty empty empty 17 7 0 10 -262144
-1 -1;
#X obj 201 277 bng 15 250 50 0 empty empty empty 17 7 0 10 -262144
-1 -1;
#X obj 230 214 print tempo;
#X obj 18 125 tgl 15 0 empty empty connected 0 -8 0 10 -262144 -1 -1
1 1;
#X msg 18 145 connect \$1;
#X obj 199 382 print num_peers;
#X obj 199 360 r #abl_link_num_peers;
#X obj 119 222 t b f;
#X obj 321 177 loadbang;
#X msg 321 229 1;
#X obj 321 199 del 2000;
#X msg 321 265 \; pd dsp \$1;
#X obj 362 231 tgl 15 0 empty empty empty 17 7 0 10 -262144 -1 -1 0
1;
#X obj 20 21 loadbang;
#X msg 20 73 1;
#X obj 61 75 tgl 15 0 empty empty empty 17 7 0 10 -262144 -1 -1 0 1
;
#X obj 20 43 del 3000;
#X connect 0 0 1 1;
#X connect 1 0 5 0;
#X connect 3 0 1 0;
#X connect 4 0 3 0;
#X connect 4 0 3 0;
#X connect 5 0 2 0;
#X connect 5 0 2 1;
#X connect 6 0 13 0;
#X connect 7 0 13 0;
#X connect 8 0 13 0;
#X connect 9 0 6 0;
#X connect 10 0 7 0;
#X connect 11 0 8 0;
#X connect 12 0 0 0;
#X connect 13 0 23 0;
#X connect 13 3 18 0;
#X connect 14 0 0 0;
#X connect 15 0 16 0;
#X connect 15 1 17 0;
#X connect 16 0 14 0;
#X connect 17 0 12 0;
#X connect 19 0 20 0;
#X connect 20 0 13 0;
#X connect 22 0 21 0;
#X connect 23 0 4 0;
#X connect 23 1 15 0;
#X connect 24 0 26 0;
#X connect 25 0 27 0;
#X connect 26 0 25 0;
#X connect 28 0 27 0;
#X connect 29 0 32 0;
#X connect 30 0 19 0;
#X connect 32 0 30 0;
