#N canvas 900 294 309 380 10;
#X obj 43 98 sel 0 1;
#X obj 43 74 change;
#X obj 43 32 inlet;
#X obj 25 317 outlet;
#X text 94 74 out only if input changed;
#X msg 43 149 1;
#X msg 77 147 0;
#X msg 143 148 1;
#X msg 111 148 0;
#X obj 214 191 tgl 15 0 empty empty empty 17 7 0 10 -262144 -1 -1 1
1;
#X obj 214 210 + 1;
#X obj 190 37 loadbang;
#X obj 214 170 int \$1;
#X text 44 294 1 argument - flip output 0/1 1/0;
#X text 158 273 default - normal;
#X obj 43 184 i;
#X text 32 234 to avoid zero at initialization;
#X text 31 250 send value when initialized;
#X obj 112 183 i;
#X obj 182 58 t b b;
#X text 82 34 incoming value;
#X obj 43 54 speedlim 30;
#X obj 25 275 cyclone/switch;
#X connect 0 0 5 0;
#X connect 0 0 8 0;
#X connect 0 1 6 0;
#X connect 0 1 7 0;
#X connect 1 0 0 0;
#X connect 2 0 21 0;
#X connect 5 0 15 0;
#X connect 6 0 15 0;
#X connect 7 0 18 0;
#X connect 8 0 18 0;
#X connect 9 0 10 0;
#X connect 10 0 22 0;
#X connect 11 0 19 0;
#X connect 12 0 9 0;
#X connect 15 0 22 1;
#X connect 18 0 22 2;
#X connect 19 0 1 0;
#X connect 19 1 12 0;
#X connect 21 0 1 0;
#X connect 22 0 3 0;
