#N canvas 455 75 452 267 10;
#X obj 112 23 inlet;
#X obj 112 224 outlet;
#X obj 112 67 change;
#X text 33 29 button in;
#X obj 112 89 sel 1;
#X obj 156 148 + 1;
#X obj 112 160 i;
#X obj 156 170 % \$1;
#X obj 112 194 + \$2;
#X text 188 167 by default just bang out;
#X text 194 150 turn into counter;
#X text 152 86 with argument giving counter maximum;
#X obj 248 225 outlet;
#X obj 121 115 loadbang;
#X text 181 114 to avoid zero at initialization;
#X text 180 130 send value when initialized;
#X obj 112 45 cyclone/speedlim 40;
#X text 117 3 \$1 counter max \, \$2 offest counter;
#X text 111 250 OUTLET1=int counter;
#X text 253 247 OUT2 = bang;
#X connect 0 0 16 0;
#X connect 2 0 4 0;
#X connect 4 0 6 0;
#X connect 4 0 12 0;
#X connect 5 0 7 0;
#X connect 6 0 5 0;
#X connect 6 0 8 0;
#X connect 7 0 6 1;
#X connect 8 0 1 0;
#X connect 13 0 6 0;
#X connect 16 0 2 0;
