#N canvas 684 138 707 326 10;
#X floatatom 53 84 5 0 0 0 - - -, f 5;
#X floatatom 197 86 5 0 0 0 - - -, f 5;
#X obj 48 146 int;
#X obj 197 145 int;
#X obj 197 116 + 0.5;
#X msg 242 86 0.51;
#X msg 97 83 0.99;
#X floatatom 51 180 5 0 0 0 - - -, f 5;
#X floatatom 195 181 5 0 0 0 - - -, f 5;
#X text 249 118 where do we want to round;
#X text 49 23 To get a regular rounding for positive numbers \, to
pick the closest integer \, use the method shown on the right side
of Fig. 3.30. This will return 1 for an input of 0.5 or more and 0
for an input of 0.5 or less.;
#X text 255 145 An integer function \, int \, also abbreviated i gives
the whole part of a floating point number. This is a trun- cation \,
which just throws away any decimal digits. For positive numbers it
gives the floor function \, written ⌊x⌋ which is the integer less
than or equal to the input value. But take note of what happens for
negative values \, apply- ing int to −3.4 will give 3 \, an integer
greater than or equal to the input. Truncation is shown on the left
of Fig. 3.30.;
#X connect 0 0 2 0;
#X connect 1 0 4 0;
#X connect 2 0 7 0;
#X connect 3 0 8 0;
#X connect 4 0 3 0;
#X connect 5 0 4 0;
#X connect 6 0 2 0;
