#N canvas 1603 374 930 649 10;
#X obj 697 64 r sensorSMOOTH;
#X obj 165 522 smooth;
#X obj 205 484 hsl 128 15 0 1 0 0 empty empty empty -2 -8 0 10 -262130
-1 -1 0 1;
#X floatatom 237 523 5 0 0 0 - - -;
#X obj 578 66 r ScaleByHand;
#X text 18 72 value to be scaled;
#X obj 158 375 switch 5;
#X text 223 376 choose scalling of sensors;
#X obj 210 161 hradio 15 1 0 6 empty empty empty 0 -8 0 10 -262144
-1 -1 3;
#X text 266 397 choose output range - most popular 0 - 1 or 0 - 1000
;
#X obj 158 400 unpack f f f f;
#X msg 177 277 500 1024 0 1;
#X text 274 275 feedback;
#X text 292 300 sines;
#X obj 138 437 maxlib/scale 1 1024 0 1;
#X text 304 327 sampler - cokolwiek;
#X obj 121 202 t b f;
#X msg 216 331 1 1024 100 1;
#X obj 165 586 outlet;
#X text 260 225 AUTO from sensor min max;
#X obj 171 224 r min;
#X obj 164 251 pack f f 0 1;
#X obj 216 223 r maxx;
#X obj 184 37 loadbang;
#X text 255 89 scale 1-100 = 3;
#X text 256 104 scale 1-100 = 2;
#X text 144 13 arguments to the object 1=route number \, 2 = scaling
;
#X obj 65 357 bng 15 250 50 0 empty empty empty 17 7 0 10 -262144 -1
-1;
#X floatatom 86 399 5 0 0 0 - - -;
#X obj 182 125 + 1;
#X obj 26 51 route \$1;
#X obj 184 92 f \$2;
#X obj 26 125 mapping/resample \$3;
#X obj 160 66 t b b;
#X msg 116 98 100;
#X text 463 14 arg \$3 - resampling value in ms default 100;
#X obj 64 25 r LDRlistfunnel;
#X obj 291 53 r sensorSPEED;
#X msg 195 302 0 1024 1 0;
#X connect 0 0 1 1;
#X connect 1 0 18 0;
#X connect 2 0 1 1;
#X connect 2 0 3 0;
#X connect 4 0 6 5;
#X connect 6 0 10 0;
#X connect 6 0 28 0;
#X connect 10 0 14 1;
#X connect 10 1 14 2;
#X connect 10 2 14 3;
#X connect 10 3 14 4;
#X connect 11 0 6 2;
#X connect 14 0 1 0;
#X connect 16 0 11 0;
#X connect 16 0 38 0;
#X connect 16 0 17 0;
#X connect 16 1 6 0;
#X connect 17 0 6 4;
#X connect 20 0 21 0;
#X connect 21 0 6 1;
#X connect 22 0 21 1;
#X connect 23 0 33 0;
#X connect 27 0 6 0;
#X connect 29 0 16 0;
#X connect 29 0 8 0;
#X connect 30 0 32 0;
#X connect 31 0 29 0;
#X connect 32 0 14 0;
#X connect 33 0 34 0;
#X connect 33 1 31 0;
#X connect 34 0 32 1;
#X connect 36 0 30 0;
#X connect 37 0 32 1;
#X connect 38 0 6 3;
