#N canvas 595 389 408 383 10;
#X obj 43 7 inlet;
#X floatatom 43 29 15 0 0 0 - - -, f 15;
#X obj 43 48 t f f;
#X obj 43 110 pack f f f;
#X msg 43 132 \$1 \, \$2 \$3;
#X obj 43 194 vline~;
#X obj 43 216 tabread4~ sampleData;
#X obj 43 268 *~;
#X obj 43 290 outlet~;
#X text 119 109 start end time;
#X obj 192 12 r g-dur;
#X floatatom 192 34 5 0 0 0 - - -, f 5;
#X obj 192 53 * 44.1;
#X obj 76 86 +;
#X text 195 77 dur;
#X floatatom 192 93 5 0 0 0 - - -, f 5;
#X obj 264 12 r g-speed;
#X floatatom 264 34 5 0 0 0 - - -, f 5;
#X obj 264 53 t b f;
#X obj 264 75 / 1;
#X obj 237 163 bng 15 250 50 0 empty empty empty 17 7 0 10 -262144
-1 -1;
#X obj 246 183 f;
#X msg 246 205 1 20 \, 0 20 \$1;
#X obj 246 227 vline~;
#X obj 264 156 - 20;
#X floatatom 283 103 5 0 0 0 - - -, f 5;
#X text 283 120 speed;
#X obj 102 9 bng 15 250 50 0 empty empty empty 17 7 0 10 -262144 -1
-1;
#X connect 0 0 1 0;
#X connect 1 0 2 0;
#X connect 2 0 3 0;
#X connect 2 1 13 0;
#X connect 3 0 4 0;
#X connect 4 0 5 0;
#X connect 4 0 20 0;
#X connect 5 0 6 0;
#X connect 6 0 7 0;
#X connect 7 0 8 0;
#X connect 10 0 11 0;
#X connect 11 0 12 0;
#X connect 11 0 19 0;
#X connect 12 0 13 1;
#X connect 12 0 15 0;
#X connect 13 0 3 1;
#X connect 16 0 17 0;
#X connect 17 0 18 0;
#X connect 18 0 19 0;
#X connect 18 1 19 1;
#X connect 19 0 24 0;
#X connect 19 0 25 0;
#X connect 20 0 21 0;
#X connect 21 0 22 0;
#X connect 22 0 23 0;
#X connect 23 0 7 1;
#X connect 24 0 21 1;
#X connect 27 0 2 0;
