#N canvas 285 274 853 627 10;
#N canvas 1899 51 450 300 (subpatch) 0;
#X array MUJsampel2 128667 float 0;
#X coords 0 1 128666 -1 360 100 1 0 0;
#X restore 355 455 graph;
#X obj 495 219 soundfiler;
#X obj 495 247 s length;
#X obj 495 110 loadbang;
#X floatatom 611 420 5 0 0 0 - - -, f 5;
#X obj 17 401 line~;
#X obj 16 242 *;
#X obj 62 119 r length;
#X text 60 452 [pvoc~ <array> <fftsize> <overlap>];
#X obj 290 344 lop~ 10;
#X obj 504 174 openpanel;
#X obj 568 99 bng 32 250 50 0 empty empty empty 0 -6 0 8 -260818 -1
-1;
#X msg 156 329 locking \$1;
#X text 607 113 load a sample;
#X obj 290 324 sig~ 1;
#X floatatom 500 45 1 0 0 0 - - -, f 1;
#X obj 524 60 switch~;
#X obj 524 38 inlet;
#X obj 5 453 *~ 0.99;
#X text 497 -4 dsp of subpatch;
#X obj 234 121 r maxSENS;
#X obj 160 120 r minSENS;
#X obj 15 216 / 32;
#X obj 131 122 tgl 15 0 empty empty empty 17 7 0 10 -262144 -1 -1 0
1;
#X obj 188 148 + 1;
#X obj 15 479 outlet~;
#X floatatom 532 420 5 0 0 0 - - -, f 5;
#X msg 217 148 1;
#X floatatom 571 246 15 0 0 0 - - -, f 15;
#X text 147 173 NAJJASNIEJSZY CZY NAJCIEMNIEJSZY;
#X text 562 270 KONTROLUJ POZYCJA SAMPLA;
#X floatatom 466 323 10 0 0 0 - - -, f 10;
#X msg 73 315 200;
#X msg 300 301 0.5;
#X msg 171 303 0.5;
#X floatatom 612 399 5 0 0 0 - - -, f 5;
#X obj 376 39 t b b b b b;
#X msg 16 374 \$1 \$2;
#X obj 16 349 pack f f;
#X obj 25 315 t b f;
#X text 73 397 how fast it jumps to next position in sample;
#X text 159 354 phase lock;
#X text 334 296 speed;
#X obj 497 82 outlet;
#X text 573 397 speed;
#X floatatom 614 379 1 0 0 0 - - -, f 1;
#X text 587 379 dsp;
#X obj 157 274 r VOCstreczPHASElk;
#X obj 291 273 r VOCstreczSPEED;
#X obj 27 273 r VOCstreczSLTIME;
#X obj 466 346 /;
#X floatatom 531 398 5 0 0 0 - - -, f 5;
#X floatatom 532 378 4 0 0 0 - - -, f 4;
#X text 498 420 sens;
#X text 504 396 pos;
#X text 572 418 phlok;
#X text 493 378 ltime;
#X obj 499 15 r sampSTRECZ2dsp;
#X msg 7 155 setarray MUJsampel2;
#X obj 5 430 bsaylor/pvoc~ MUJsampel2 512 4;
#X obj 3 521 throw~ smpSTRECZ2;
#X msg 495 152 read -resize ../wavfiles/GLOSYedit.aiff MUJsampel2;
#X msg 504 196 read -resize \$1 MUJsampel2;
#X obj 376 14 r initSAMPSTRECZ2;
#X obj 15 188 cyclone/switch 2;
#X connect 1 0 2 0;
#X connect 1 0 28 0;
#X connect 3 0 61 0;
#X connect 3 0 27 0;
#X connect 5 0 59 0;
#X connect 6 0 31 0;
#X connect 6 0 38 0;
#X connect 7 0 6 1;
#X connect 7 0 58 0;
#X connect 9 0 59 1;
#X connect 10 0 62 0;
#X connect 11 0 10 0;
#X connect 12 0 59 0;
#X connect 14 0 9 0;
#X connect 15 0 16 0;
#X connect 15 0 43 0;
#X connect 15 0 45 0;
#X connect 17 0 16 0;
#X connect 18 0 25 0;
#X connect 18 0 60 0;
#X connect 20 0 64 2;
#X connect 21 0 64 1;
#X connect 22 0 6 0;
#X connect 23 0 24 0;
#X connect 24 0 64 0;
#X connect 27 0 64 0;
#X connect 28 0 50 1;
#X connect 31 0 50 0;
#X connect 32 0 38 1;
#X connect 33 0 14 0;
#X connect 34 0 12 0;
#X connect 36 0 27 0;
#X connect 36 1 34 0;
#X connect 36 2 33 0;
#X connect 36 3 61 0;
#X connect 36 4 32 0;
#X connect 37 0 5 0;
#X connect 38 0 37 0;
#X connect 39 0 38 0;
#X connect 39 1 38 1;
#X connect 47 0 12 0;
#X connect 47 0 4 0;
#X connect 48 0 14 0;
#X connect 48 0 35 0;
#X connect 49 0 39 0;
#X connect 49 0 52 0;
#X connect 50 0 51 0;
#X connect 57 0 15 0;
#X connect 58 0 59 0;
#X connect 59 0 18 0;
#X connect 61 0 1 0;
#X connect 62 0 1 0;
#X connect 63 0 36 0;
#X connect 64 0 26 0;
#X connect 64 0 22 0;
