#N canvas 133 238 1197 752 10;
#X obj 112 585 *~, f 18;
#X obj 335 247 pow 2;
#X floatatom 192 609 5 0 1 0 - pan#1 -;
#X obj 22 663 throw~ masterL;
#X obj 191 664 throw~ masterR;
#X obj 335 272 t b f;
#X obj 325 305 *, f 5;
#X obj 295 150 tgl 15 0 empty ch\$1_mute mute 17 7 0 10 -254991 -1
-1 0 1;
#X obj 219 353 sig~;
#X obj 218 377 lop~ 10;
#X obj 557 603 *~;
#X floatatom 575 389 5 0 0 0 - ch#1_fx1_s -;
#X obj 575 413 pow 2;
#X obj 575 536 sig~;
#X obj 575 577 lop~ 10;
#X floatatom 111 71 5 0 1 0 - - -;
#X obj 557 660 throw~ fx1send;
#X obj 318 73 tgl 15 0 empty empty empty 17 7 0 10 -262144 -1 -1 0
1;
#X floatatom 240 99 5 0 1 0 - - -;
#X text 357 180 level;
#X obj 658 603 *~;
#X floatatom 677 389 5 0 0 0 - ch#1_fx2_s -;
#X obj 677 414 pow 2;
#X obj 677 537 sig~;
#X obj 677 578 lop~ 10;
#X obj 658 659 throw~ fx2send;
#X text 75 192 audio in;
#X obj 765 603 *~;
#X floatatom 784 389 5 0 0 0 - ch#1_fx3_s -;
#X obj 784 413 pow 2;
#X obj 784 536 sig~;
#X obj 784 578 lop~ 10;
#X obj 864 603 *~;
#X floatatom 882 390 5 0 0 0 - ch#1_fx4_s -;
#X obj 882 414 pow 2;
#X obj 882 536 sig~;
#X obj 882 577 lop~ 10;
#X obj 765 657 throw~ fx3send;
#X obj 864 657 throw~ fx4send;
#X obj 954 603 *~;
#X floatatom 973 390 5 0 0 0 - ch#1_fx5_s -;
#X obj 973 413 pow 2;
#X obj 973 536 sig~;
#X obj 973 576 lop~ 10;
#X obj 954 657 throw~ fx5send;
#X text 111 49 CTRLS;
#X obj 358 364 outlet;
#X obj 111 94 s patch\$1level;
#X obj 318 93 s ch\$1_mute;
#X obj 428 90 s ch\$1_fx1_s;
#X obj 525 90 s ch\$1_fx2_s;
#X obj 620 90 s ch\$1_fx3_s;
#X obj 717 90 s ch\$1_fx4_s;
#X obj 822 90 s ch\$1_fx5_s;
#X obj 335 207 r patch\$1level;
#X msg 428 73 0;
#X obj 428 53 r all_sends_off;
#X text 320 496 ctrl signals monitoring;
#X obj 250 420 r print_chstrip_set, f 9;
#X obj 238 401 bng 15 250 50 0 empty empty empty 17 7 0 10 -262144
-1 -1;
#X obj 238 496 print strip\$1;
#X text 763 367 SEND LEVELS;
#X text 227 612 from pan;
#X floatatom 329 337 5 0 0 0 - - -;
#X obj 240 73 r pan\$1;
#X obj 295 178 == 0;
#X obj 491 328 r PRE_POST_FX_SEND;
#X floatatom 491 358 5 0 0 0 - - -;
#X obj 491 380 sel 0;
#X msg 523 418 0;
#X msg 491 418 1;
#X text 492 291 OPEN WHEN SENDING POST;
#X text 496 311 OTHERWISE CLOSE;
#X obj 491 532 tgl 25 0 empty empty empty 17 7 0 10 -258113 -1 -1 0
1;
#X obj 576 557 *~, f 7;
#X obj 677 557 *~, f 7;
#X obj 784 557 *~, f 7;
#X obj 882 557 *~, f 6;
#X obj 974 557 *~, f 7;
#X text 360 18 \$1 = CHANNEL NUMBER;
#X obj 238 472 pack s f f f f f f f f, f 117;
#X obj 21 225 catch~ PATCH\$1L;
#X obj 109 264 catch~ PATCH\$1R;
#X obj 21 634 1_PAN_STEREO_IN, f 29;
#X text 549 17 CHANNEL STRIP ABSTRACTION FOR STEREO PATRZES;
#X text 221 531 SENDS ARE MONO;
#X floatatom 412 301 5 0 1 0 - pan#1 -;
#X text 403 279 from pan;
#X text 545 47 SENDS ARE MONO;
#X obj 169 527 *~ 0.5;
#X obj 112 528 *~ 0.5;
#X obj 60 527 *~;
#X obj 20 527 *~;
#X connect 0 0 10 0;
#X connect 0 0 20 0;
#X connect 0 0 39 0;
#X connect 0 0 32 0;
#X connect 0 0 27 0;
#X connect 1 0 5 0;
#X connect 2 0 83 2;
#X connect 5 0 6 0;
#X connect 5 1 6 1;
#X connect 6 0 8 0;
#X connect 6 0 63 0;
#X connect 6 0 46 0;
#X connect 6 0 80 1;
#X connect 7 0 65 0;
#X connect 8 0 9 0;
#X connect 9 0 0 1;
#X connect 9 0 91 1;
#X connect 9 0 92 1;
#X connect 10 0 16 0;
#X connect 11 0 12 0;
#X connect 11 0 80 4;
#X connect 12 0 13 0;
#X connect 13 0 74 0;
#X connect 14 0 10 1;
#X connect 15 0 47 0;
#X connect 17 0 48 0;
#X connect 20 0 25 0;
#X connect 21 0 22 0;
#X connect 21 0 80 5;
#X connect 22 0 23 0;
#X connect 23 0 75 0;
#X connect 24 0 20 1;
#X connect 27 0 37 0;
#X connect 28 0 29 0;
#X connect 28 0 80 6;
#X connect 29 0 30 0;
#X connect 30 0 76 0;
#X connect 31 0 27 1;
#X connect 32 0 38 0;
#X connect 33 0 34 0;
#X connect 33 0 80 7;
#X connect 34 0 35 0;
#X connect 35 0 77 0;
#X connect 36 0 32 1;
#X connect 39 0 44 0;
#X connect 40 0 41 0;
#X connect 40 0 80 8;
#X connect 41 0 42 0;
#X connect 42 0 78 0;
#X connect 43 0 39 1;
#X connect 54 0 1 0;
#X connect 55 0 49 0;
#X connect 55 0 50 0;
#X connect 55 0 51 0;
#X connect 55 0 52 0;
#X connect 55 0 53 0;
#X connect 56 0 55 0;
#X connect 58 0 80 0;
#X connect 59 0 80 0;
#X connect 64 0 18 0;
#X connect 65 0 6 0;
#X connect 66 0 67 0;
#X connect 67 0 68 0;
#X connect 68 0 70 0;
#X connect 68 1 69 0;
#X connect 69 0 73 0;
#X connect 69 0 80 3;
#X connect 70 0 73 0;
#X connect 70 0 80 3;
#X connect 73 0 74 1;
#X connect 73 0 75 1;
#X connect 73 0 76 1;
#X connect 73 0 77 1;
#X connect 73 0 78 1;
#X connect 74 0 14 0;
#X connect 75 0 24 0;
#X connect 76 0 31 0;
#X connect 77 0 36 0;
#X connect 78 0 43 0;
#X connect 80 0 60 0;
#X connect 81 0 90 0;
#X connect 81 0 92 0;
#X connect 82 0 89 0;
#X connect 82 0 91 0;
#X connect 83 0 3 0;
#X connect 83 1 4 0;
#X connect 86 0 80 2;
#X connect 89 0 0 0;
#X connect 90 0 0 0;
#X connect 91 0 83 1;
#X connect 92 0 83 0;
