#N canvas 133 80 1037 746 10;
#X obj 32 585 *~, f 18;
#X obj 149 247 pow 2;
#X obj 31 634 panner, f 29;
#X floatatom 230 251 5 0 1 0 - pan#1 -, f 5;
#X obj 32 663 throw~ masterL;
#X obj 141 664 throw~ masterR;
#X obj 149 272 t b f;
#X obj 139 305 *, f 5;
#X obj 109 150 tgl 15 0 empty ch\$1_mute mute 17 7 0 10 -254991 -1
-1 0 1;
#X obj 157 338 sig~;
#X obj 156 362 lop~ 10;
#X obj 397 603 *~;
#X floatatom 415 389 5 0 0 0 - ch#1_fx1_s -, f 5;
#X obj 415 413 pow 2;
#X obj 415 536 sig~;
#X obj 415 577 lop~ 10;
#X floatatom 51 71 5 0 1 0 - - -, f 5;
#X obj 397 660 throw~ fx1send;
#X obj 258 73 tgl 15 0 empty empty empty 17 7 0 10 -262144 -1 -1 0
1;
#X floatatom 180 99 5 0 1 0 - - -, f 5;
#X text 171 180 level;
#X obj 518 603 *~;
#X floatatom 537 389 5 0 0 0 - ch#1_fx2_s -, f 5;
#X obj 537 414 pow 2;
#X obj 537 537 sig~;
#X obj 537 578 lop~ 10;
#X obj 518 659 throw~ fx2send;
#X text 33 149 audio in;
#X obj 635 603 *~;
#X floatatom 654 389 5 0 0 0 - ch#1_fx3_s -, f 5;
#X obj 654 413 pow 2;
#X obj 654 536 sig~;
#X obj 654 578 lop~ 10;
#X obj 754 603 *~;
#X floatatom 772 390 5 0 0 0 - ch#1_fx4_s -, f 5;
#X obj 772 414 pow 2;
#X obj 772 536 sig~;
#X obj 772 577 lop~ 10;
#X obj 635 657 throw~ fx3send;
#X obj 754 657 throw~ fx4send;
#X obj 871 603 *~;
#X floatatom 890 390 5 0 0 0 - ch#1_fx5_s -, f 5;
#X obj 890 413 pow 2;
#X obj 890 536 sig~;
#X obj 890 576 lop~ 10;
#X obj 871 657 throw~ fx5send;
#X text 51 49 CTRLS;
#X obj 80 358 outlet;
#X obj 51 94 s patch\$1level;
#X obj 258 93 s ch\$1_mute;
#X obj 368 90 s ch\$1_fx1_s;
#X obj 465 90 s ch\$1_fx2_s;
#X obj 560 90 s ch\$1_fx3_s;
#X obj 657 90 s ch\$1_fx4_s;
#X obj 762 90 s ch\$1_fx5_s;
#X obj 149 207 r patch\$1level;
#X obj 31 167 catch~ ch\$1, f 6;
#X msg 368 73 0;
#X obj 368 53 r all_sends_off;
#X text 150 496 ctrl signals monitoring;
#X obj 49 420 r print_chstrip_set, f 9;
#X obj 49 401 bng 15 250 50 0 empty empty empty 17 7 0 10 -262144 -1
-1;
#X obj 49 496 print strip\$1;
#X text 633 367 SEND LEVELS;
#X text 221 229 from pan;
#X floatatom 51 331 5 0 0 0 - - -, f 5;
#X obj 180 73 r pan\$1;
#X obj 109 178 == 0;
#X obj 291 328 r PRE_POST_FX_SEND;
#X floatatom 291 358 5 0 0 0 - - -, f 5;
#X obj 291 380 sel 0;
#X msg 323 418 0;
#X msg 291 418 1;
#X text 292 291 OPEN WHEN SENDING POST;
#X text 296 311 OTHERWISE CLOSE;
#X obj 291 532 tgl 25 0 empty empty empty 17 7 0 10 -258113 -1 -1 0
1;
#X obj 416 557 *~, f 7;
#X obj 537 557 *~, f 7;
#X obj 654 557 *~, f 7;
#X obj 772 557 *~, f 6;
#X obj 891 557 *~, f 7;
#X text 107 18 CHANNEL STRIP ABSTRACTION;
#X text 300 18 \$1 = CHANNEL NUMBER;
#X obj 47 472 pack s f f f f f f f f, f 117;
#X connect 0 0 11 0;
#X connect 0 0 21 0;
#X connect 0 0 40 0;
#X connect 0 0 33 0;
#X connect 0 0 28 0;
#X connect 0 0 2 0;
#X connect 1 0 6 0;
#X connect 2 0 4 0;
#X connect 2 1 5 0;
#X connect 3 0 2 1;
#X connect 3 0 83 2;
#X connect 6 0 7 0;
#X connect 6 1 7 1;
#X connect 7 0 9 0;
#X connect 7 0 65 0;
#X connect 7 0 47 0;
#X connect 7 0 83 1;
#X connect 8 0 67 0;
#X connect 9 0 10 0;
#X connect 10 0 0 1;
#X connect 11 0 17 0;
#X connect 12 0 13 0;
#X connect 12 0 83 4;
#X connect 13 0 14 0;
#X connect 14 0 76 0;
#X connect 15 0 11 1;
#X connect 16 0 48 0;
#X connect 18 0 49 0;
#X connect 21 0 26 0;
#X connect 22 0 23 0;
#X connect 22 0 83 5;
#X connect 23 0 24 0;
#X connect 24 0 77 0;
#X connect 25 0 21 1;
#X connect 28 0 38 0;
#X connect 29 0 30 0;
#X connect 29 0 83 6;
#X connect 30 0 31 0;
#X connect 31 0 78 0;
#X connect 32 0 28 1;
#X connect 33 0 39 0;
#X connect 34 0 35 0;
#X connect 34 0 83 7;
#X connect 35 0 36 0;
#X connect 36 0 79 0;
#X connect 37 0 33 1;
#X connect 40 0 45 0;
#X connect 41 0 42 0;
#X connect 41 0 83 8;
#X connect 42 0 43 0;
#X connect 43 0 80 0;
#X connect 44 0 40 1;
#X connect 55 0 1 0;
#X connect 56 0 0 0;
#X connect 57 0 50 0;
#X connect 57 0 51 0;
#X connect 57 0 52 0;
#X connect 57 0 53 0;
#X connect 57 0 54 0;
#X connect 58 0 57 0;
#X connect 60 0 83 0;
#X connect 61 0 83 0;
#X connect 66 0 19 0;
#X connect 67 0 7 0;
#X connect 68 0 69 0;
#X connect 69 0 70 0;
#X connect 70 0 72 0;
#X connect 70 1 71 0;
#X connect 71 0 75 0;
#X connect 71 0 83 3;
#X connect 72 0 75 0;
#X connect 72 0 83 3;
#X connect 75 0 76 1;
#X connect 75 0 77 1;
#X connect 75 0 78 1;
#X connect 75 0 79 1;
#X connect 75 0 80 1;
#X connect 76 0 15 0;
#X connect 77 0 25 0;
#X connect 78 0 32 0;
#X connect 79 0 37 0;
#X connect 80 0 44 0;
#X connect 83 0 62 0;
