#N canvas 783 23 495 481 12;
#X obj 38 43 inlet~;
#X obj 140 46 vsl 25 50 0 1 0 0 empty empty empty 0 -9 0 10 -258113
-1 -1 4900 1;
#X obj 38 261 *~, f 15;
#X obj 101 359 outlet~;
#X obj 140 159 t b f;
#X floatatom 203 151 5 0 0 0 - - -;
#X obj 140 183 *, f 5;
#X obj 95 44 tgl 15 0 empty empty empty 17 7 0 10 -262144 -1 -1 1 1
;
#X obj 95 66 == 0;
#X obj 140 207 sig~;
#X obj 140 231 lop~ 10;
#X text 25 7 audio in;
#X text 92 8 MUTE;
#X text 141 8 LEVEL;
#X obj 264 363 outlet~;
#X text 161 361 L audio out R;
#X text 393 23 PAN;
#X obj 362 48 hsl 100 15 0 1 0 0 empty empty empty -2 -8 0 10 -13381
-1 -1 5100 1;
#X floatatom 410 83 5 0 0 0 - - -;
#X obj 359 80 sig~;
#X obj 311 177 sig~ 1;
#X obj 341 211 -~;
#X obj 341 235 sqrt~;
#X obj 103 311 *~;
#X obj 264 314 *~;
#X obj 272 237 sqrt~;
#X obj 289 395 tgl 15 0 empty empty empty 17 7 0 10 -262144 -1 -1 1
1;
#X msg 291 415 \; pd dsp \$1;
#X obj 64 186 osc~ 440;
#X obj 159 408 dac~ 1 2;
#X obj 359 104 lop~ 2;
#X obj 64 403 throw~ ch1;
#X connect 0 0 2 0;
#X connect 1 0 4 0;
#X connect 1 0 5 0;
#X connect 2 0 23 0;
#X connect 2 0 24 0;
#X connect 4 0 6 0;
#X connect 4 1 6 1;
#X connect 6 0 9 0;
#X connect 7 0 8 0;
#X connect 8 0 6 0;
#X connect 9 0 10 0;
#X connect 10 0 2 1;
#X connect 17 0 18 0;
#X connect 17 0 19 0;
#X connect 19 0 30 0;
#X connect 20 0 21 0;
#X connect 21 0 22 0;
#X connect 22 0 24 1;
#X connect 23 0 3 0;
#X connect 23 0 31 0;
#X connect 24 0 14 0;
#X connect 25 0 23 1;
#X connect 26 0 27 0;
#X connect 28 0 2 0;
#X connect 30 0 21 1;
#X connect 30 0 25 0;
