#N canvas -3 51 578 278 10;
#X obj 90 5 inlet~;
#X obj 138 243 outlet~;
#X text 125 51 reverb;
#X obj 89 201 *~;
#X obj 180 201 *~;
#X text 30 200 dry sig;
#X text 218 201 wet sig;
#X obj 107 132 sig~ 1;
#X obj 107 151 -~;
#X obj 348 54 r pot2;
#X floatatom 356 77 5 0 0 0 - - -;
#X obj 198 133 sig~;
#X text 234 133 convert to signal;
#X text 399 53 value from arduino;
#X obj 179 50 rev3~ 100 85 2000 75;
#X connect 0 0 3 0;
#X connect 0 0 14 0;
#X connect 3 0 1 0;
#X connect 4 0 1 0;
#X connect 7 0 8 0;
#X connect 8 0 3 1;
#X connect 9 0 10 0;
#X connect 9 0 11 0;
#X connect 11 0 8 1;
#X connect 11 0 4 1;
#X connect 14 0 4 0;
