#N canvas 441 95 274 372 12;
#X obj 19 283 *~;
#X obj 73 283 *~;
#X floatatom 87 169 5 0 1 0 - fx#1_return -;
#X obj 86 193 pow 2;
#X obj 86 219 sig~;
#X obj 86 243 lop~ 10;
#X obj 19 317 throw~ masterL;
#X obj 73 343 throw~ masterR;
#N canvas 0 23 450 300 delay 0;
#X obj 55 14 inlet~ signal;
#X obj 53 236 outlet~;
#X obj 160 236 outlet~;
#X restore 19 167 pd delay;
#X floatatom 19 50 5 0 1 0 - - -;
#X obj 154 318 outlet;
#X obj 19 74 s fx\$1_return;
#X obj 19 122 catch~ fx\$1send;
#X text 17 14 jeden argument \$1 w 3 miejscach;
#X text 18 30 decyduje który send kontrolujemy;
#X text 58 49 send - s fx\$1;
#X text 54 99 catch~ fx\$1;
#X text 25 147 return (check properties);
#X connect 0 0 6 0;
#X connect 1 0 7 0;
#X connect 2 0 3 0;
#X connect 3 0 4 0;
#X connect 3 0 10 0;
#X connect 4 0 5 0;
#X connect 5 0 1 1;
#X connect 5 0 0 1;
#X connect 8 0 0 0;
#X connect 8 1 1 0;
#X connect 9 0 11 0;
#X connect 12 0 8 0;
