#N canvas 0 172 328 111 10;
#X text 33 29 WERE NOT USING MATRIX FOR NOW;
#N canvas 418 172 918 447 FX_SEND_WITH_MATRIX 0;
#X text 443 338 FM;
#X text 515 180 audio in->effects;
#X text 694 316 [inlet# outlet# gain(;
#X msg 149 183 dump;
#N canvas 565 231 831 597 BITredux 0;
#X obj 228 432 expr~ int($v1);
#X obj 229 401 /~;
#X obj 319 472 *~;
#X obj 336 364 sig~;
#X obj 336 294 vsl 15 60 0 1 0 1 empty empty bit 0 -9 0 10 -262144
-1 -1 1291 1;
#X floatatom 372 364 5 0 0 0 - - -, f 5;
#X obj 71 352 inlet~;
#X text 59 331 audio in;
#X text 381 528 audio out;
#X obj 319 527 outlet~;
#X obj 538 385 switch~;
#X floatatom 538 362 2 0 0 0 - - -, f 2;
#X text 555 361 dsp;
#X obj 538 339 r PATCH6dsp;
#X obj 559 186 r minSENS;
#X floatatom 634 142 5 0 1 0 - - -, f 5;
#X text 666 438 vol;
#X floatatom 282 80 5 0 0 0 - - -, f 5;
#X floatatom 321 80 5 0 0 0 - - -, f 5;
#X floatatom 358 80 5 0 0 0 - - -, f 5;
#X floatatom 396 80 5 0 0 0 - - -, f 5;
#X floatatom 434 80 5 0 0 0 - - -, f 5;
#X floatatom 471 80 5 0 0 0 - - -, f 5;
#X floatatom 509 80 5 0 0 0 - - -, f 5;
#X obj 266 50 unpack f f f f f f f f;
#X floatatom 243 80 5 0 0 0 - - -, f 5;
#X text 607 209 brightest;
#X obj 619 467 line~ \$1 20;
#X obj 336 251 switch;
#X obj 461 138 r PATCH3PAR1;
#X obj 336 179 tgl 15 0 empty empty empty 17 7 0 10 -262144 -1 -1 1
1;
#X obj 336 224 + 1;
#X msg 219 231 0;
#X msg 242 231 1;
#X msg 269 231 2;
#X text 61 322 ext in;
#X obj 139 166 r PATCH3PAR2;
#X obj 113 381 *~ 1;
#X obj 559 208 change;
#X obj 559 231 / 32;
#X text 429 122 bit redux by hand;
#X text 557 166 bitred from sensor;
#X obj 138 274 * 5;
#X text 137 125 input gain;
#X obj 319 501 *~;
#X obj 269 207 loadbang;
#X text 253 119 redux from pot or sens;
#X floatatom 157 300 5 0 0 0 - - -, f 5;
#X obj 336 137 loadbang;
#X msg 336 158 1;
#X obj 626 114 inlet;
#X text 668 134 volume;
#X obj 266 26 r redux_list_ctrl;
#X obj 138 188 t f f;
#X text 62 250 przy malych wartosciach zamkuaj gate;
#X obj 138 239 spigot;
#X obj 176 211 > 0.001;
#X connect 0 0 2 0;
#X connect 1 0 0 0;
#X connect 2 0 44 0;
#X connect 3 0 2 1;
#X connect 3 0 1 1;
#X connect 4 0 3 0;
#X connect 4 0 5 0;
#X connect 6 0 37 0;
#X connect 11 0 10 0;
#X connect 13 0 11 0;
#X connect 14 0 38 0;
#X connect 24 0 25 0;
#X connect 24 1 17 0;
#X connect 24 2 18 0;
#X connect 24 3 19 0;
#X connect 24 4 20 0;
#X connect 24 5 21 0;
#X connect 24 6 22 0;
#X connect 24 7 23 0;
#X connect 27 0 44 1;
#X connect 28 0 4 0;
#X connect 29 0 28 1;
#X connect 30 0 31 0;
#X connect 31 0 28 0;
#X connect 32 0 28 0;
#X connect 33 0 28 0;
#X connect 34 0 28 0;
#X connect 36 0 53 0;
#X connect 37 0 1 0;
#X connect 38 0 39 0;
#X connect 39 0 28 2;
#X connect 42 0 37 1;
#X connect 42 0 47 0;
#X connect 44 0 9 0;
#X connect 45 0 34 0;
#X connect 48 0 49 0;
#X connect 49 0 30 0;
#X connect 50 0 15 0;
#X connect 50 0 27 0;
#X connect 52 0 24 0;
#X connect 53 0 55 0;
#X connect 53 1 56 0;
#X connect 55 0 42 0;
#X connect 56 0 55 1;
#X restore 515 361 pd BITredux;
#X obj 465 181 adc~ 1;
#X msg 235 183 clear;
#X obj 150 161 metro 500;
#X obj 150 146 tgl 15 0 empty empty empty 17 7 0 10 -262144 -1 -1 0
1;
#X obj 234 164 r ALLledsOFF;
#N canvas 42 172 886 533 sendPATCHEStoMIXERctrl 0;
#X obj 421 30 inlet;
#X obj 614 39 r dest1;
#X obj 301 287 outlet;
#X obj 106 182 * 0.001;
#X obj 169 182 * 0.001;
#X obj 234 183 * 0.001;
#X obj 299 182 * 0.001;
#X obj 363 183 * 0.001;
#X obj 427 182 * 0.001;
#X obj 426 205 clip 0 1;
#X obj 363 206 clip 0 1;
#X obj 299 205 clip 0 1;
#X obj 235 207 clip 0 1;
#X obj 169 205 clip 0 1;
#X obj 105 204 clip 0 1;
#X msg 427 231 5 0 \$1;
#X msg 363 229 4 0 \$1;
#X msg 299 228 3 0 \$1;
#X msg 235 231 2 0 \$1;
#X msg 169 228 1 0 \$1;
#X msg 105 230 0 0 \$1;
#X floatatom 440 282 5 0 0 0 - - -, f 5;
#X obj 556 404 s PATCH1vol;
#X obj 649 200 s PATCH5vol;
#X obj 673 148 s PATCH6vol;
#X floatatom 644 404 5 0 0 0 - - -, f 5;
#X obj 570 355 s PATCH2vol;
#X obj 541 298 s PATCH3vol;
#X obj 619 252 s PATCH4vol;
#X floatatom 659 354 5 0 0 0 - - -, f 5;
#X floatatom 628 299 5 0 0 0 - - -, f 5;
#X floatatom 705 252 5 0 0 0 - - -, f 5;
#X floatatom 736 202 5 0 0 0 - - -, f 5;
#X floatatom 760 148 5 0 0 0 - - -, f 5;
#X text 57 387 IF SOME PATCHES ARE SIGNIFICANTLY LODER THEN OTHERS
- LIKE FFT NOISE AND TSTRECZ IS MUCH LOUDER THEN FILTER PLUCK - WE
CAN SCALE THE VALUES DIFFERENTLY -;
#X obj 496 438 pack f f f f f f;
#X obj 496 465 s soundMIXERlevels;
#X text 486 20 mixer control;
#X obj 496 378 ONEardANALOGin 20 6 0.8 -60 0 0;
#X obj 566 227 ONEardANALOGin 20 6 0.8 -60 0 0;
#X obj 590 173 ONEardANALOGin 20 6 0.8 -60 0 0;
#X obj 519 324 ONEardANALOGin 20 6 0.8 -80 0 0;
#X obj 543 272 ONEardANALOGin 20 6 0.8 -80 0 0;
#X obj 614 123 ONEardANALOGin 20 6 0.8 -60 0 0;
#X obj 449 63 ONElistSTOREandCOMPARE 0;
#X connect 0 0 44 0;
#X connect 1 0 44 1;
#X connect 3 0 14 0;
#X connect 4 0 13 0;
#X connect 5 0 12 0;
#X connect 6 0 11 0;
#X connect 7 0 10 0;
#X connect 8 0 9 0;
#X connect 9 0 15 0;
#X connect 9 0 21 0;
#X connect 10 0 16 0;
#X connect 11 0 17 0;
#X connect 12 0 18 0;
#X connect 13 0 19 0;
#X connect 14 0 20 0;
#X connect 15 0 2 0;
#X connect 16 0 2 0;
#X connect 17 0 2 0;
#X connect 18 0 2 0;
#X connect 19 0 2 0;
#X connect 20 0 2 0;
#X connect 35 0 36 0;
#X connect 38 0 22 0;
#X connect 38 0 25 0;
#X connect 38 0 35 0;
#X connect 39 0 28 0;
#X connect 39 0 31 0;
#X connect 39 0 35 3;
#X connect 40 0 23 0;
#X connect 40 0 32 0;
#X connect 40 0 35 4;
#X connect 41 0 26 0;
#X connect 41 0 29 0;
#X connect 41 0 35 1;
#X connect 42 0 27 0;
#X connect 42 0 30 0;
#X connect 42 0 35 2;
#X connect 43 0 24 0;
#X connect 43 0 33 0;
#X connect 43 0 35 5;
#X connect 44 2 3 0;
#X connect 44 2 38 0;
#X connect 44 3 4 0;
#X connect 44 3 41 0;
#X connect 44 4 5 0;
#X connect 44 4 42 0;
#X connect 44 5 6 0;
#X connect 44 5 39 0;
#X connect 44 6 7 0;
#X connect 44 6 40 0;
#X connect 44 7 8 0;
#X connect 44 7 43 0;
#X restore 224 70 pd sendPATCHEStoMIXERctrl;
#N canvas 40 412 815 445 ROUTE_8values_to_EFX_send_ctrl 0;
#X obj 204 19 inlet;
#X obj 552 292 outlet;
#X obj 204 308 outlet;
#N canvas 324 239 745 265 sendPATCHESpreTOdelay 0;
#X obj 129 -2 inlet;
#X obj 294 -1 r dest1;
#X obj 241 177 outlet;
#X text 45 -34 AMOUNT of individual audio PATCHES SEND pre to DELAY
;
#X obj 46 72 * 0.001;
#X obj 109 72 * 0.001;
#X obj 174 73 * 0.001;
#X obj 239 72 * 0.001;
#X obj 303 73 * 0.001;
#X obj 367 72 * 0.001;
#X obj 366 95 clip 0 1;
#X obj 303 96 clip 0 1;
#X obj 239 95 clip 0 1;
#X obj 175 97 clip 0 1;
#X obj 109 95 clip 0 1;
#X obj 45 94 clip 0 1;
#X msg 367 121 5 0 \$1;
#X msg 303 119 4 0 \$1;
#X msg 239 118 3 0 \$1;
#X msg 175 121 2 0 \$1;
#X msg 109 118 1 0 \$1;
#X msg 45 120 0 0 \$1;
#X floatatom 380 172 5 0 0 0 - - -, f 5;
#X obj 129 23 ONElistSTOREandCOMPARE 1;
#X connect 0 0 23 0;
#X connect 1 0 23 1;
#X connect 4 0 15 0;
#X connect 5 0 14 0;
#X connect 6 0 13 0;
#X connect 7 0 12 0;
#X connect 8 0 11 0;
#X connect 9 0 10 0;
#X connect 10 0 16 0;
#X connect 10 0 22 0;
#X connect 11 0 17 0;
#X connect 12 0 18 0;
#X connect 13 0 19 0;
#X connect 14 0 20 0;
#X connect 15 0 21 0;
#X connect 16 0 2 0;
#X connect 17 0 2 0;
#X connect 18 0 2 0;
#X connect 19 0 2 0;
#X connect 20 0 2 0;
#X connect 21 0 2 0;
#X connect 23 2 4 0;
#X connect 23 3 5 0;
#X connect 23 4 6 0;
#X connect 23 5 7 0;
#X connect 23 6 8 0;
#X connect 23 7 9 0;
#X restore 252 272 pd sendPATCHESpreTOdelay;
#N canvas 711 325 481 311 sendPATCHESpreTOVCF 0;
#X obj 68 -75 inlet;
#X obj 233 -74 r dest1;
#X obj 187 142 outlet;
#X floatatom 35 84 5 0 0 0 - - -, f 5;
#X floatatom 101 81 5 0 0 0 - - -, f 5;
#X floatatom 160 85 5 0 0 0 - - -, f 5;
#X floatatom 223 83 5 0 0 0 - - -, f 5;
#X floatatom 283 85 5 0 0 0 - - -, f 5;
#X floatatom 349 84 5 0 0 0 - - -, f 5;
#X obj 19 11 * 0.001;
#X obj 82 11 * 0.001;
#X obj 147 12 * 0.001;
#X obj 212 11 * 0.001;
#X text 139 -22 normalize 0-1;
#X obj 276 12 * 0.001;
#X obj 340 11 * 0.001;
#X msg 340 60 5 1 \$1;
#X msg 276 58 4 1 \$1;
#X msg 212 57 3 1 \$1;
#X msg 147 59 2 1 \$1;
#X msg 82 57 1 1 \$1;
#X msg 18 59 0 1 \$1;
#X obj 339 34 clip 0 1;
#X obj 276 35 clip 0 1;
#X obj 212 34 clip 0 1;
#X obj 148 36 clip 0 1;
#X obj 82 34 clip 0 1;
#X obj 18 33 clip 0 1;
#X text 20 -98 AMOUNT of individual audio PATCHES SEND pre to filter
;
#X obj 68 -50 ONElistSTOREandCOMPARE 2;
#X connect 0 0 29 0;
#X connect 1 0 29 1;
#X connect 9 0 27 0;
#X connect 10 0 26 0;
#X connect 11 0 25 0;
#X connect 12 0 24 0;
#X connect 14 0 23 0;
#X connect 15 0 22 0;
#X connect 16 0 2 0;
#X connect 17 0 2 0;
#X connect 18 0 2 0;
#X connect 19 0 2 0;
#X connect 20 0 2 0;
#X connect 21 0 2 0;
#X connect 22 0 16 0;
#X connect 22 0 8 0;
#X connect 23 0 17 0;
#X connect 23 0 7 0;
#X connect 24 0 18 0;
#X connect 24 0 6 0;
#X connect 25 0 19 0;
#X connect 25 0 5 0;
#X connect 26 0 20 0;
#X connect 26 0 4 0;
#X connect 27 0 21 0;
#X connect 27 0 3 0;
#X connect 29 2 9 0;
#X connect 29 3 10 0;
#X connect 29 4 11 0;
#X connect 29 5 12 0;
#X connect 29 6 14 0;
#X connect 29 7 15 0;
#X restore 301 249 pd sendPATCHESpreTOVCF;
#X text 40 271 send ind patches pre to delay:;
#X text 109 246 send ind patches pre to VCF:;
#N canvas 708 1169 464 277 sendPATCHESpreTOrmod 0;
#X obj 68 -75 inlet;
#X obj 233 -74 r dest1;
#X obj 187 142 outlet;
#X floatatom 35 84 5 0 0 0 - - -, f 5;
#X floatatom 101 81 5 0 0 0 - - -, f 5;
#X floatatom 160 85 5 0 0 0 - - -, f 5;
#X floatatom 223 83 5 0 0 0 - - -, f 5;
#X floatatom 283 85 5 0 0 0 - - -, f 5;
#X floatatom 349 84 5 0 0 0 - - -, f 5;
#X obj 19 11 * 0.001;
#X obj 82 11 * 0.001;
#X obj 147 12 * 0.001;
#X obj 212 11 * 0.001;
#X text 139 -22 normalize 0-1;
#X obj 276 12 * 0.001;
#X obj 340 11 * 0.001;
#X obj 339 34 clip 0 1;
#X obj 276 35 clip 0 1;
#X obj 212 34 clip 0 1;
#X obj 148 36 clip 0 1;
#X obj 82 34 clip 0 1;
#X obj 18 33 clip 0 1;
#X text 20 -98 AMOUNT of individual audio PATCHES SEND pre to RMOD
;
#X msg 18 59 0 2 \$1;
#X msg 82 57 1 2 \$1;
#X msg 147 59 2 2 \$1;
#X msg 212 57 3 2 \$1;
#X msg 276 58 4 2 \$1;
#X msg 340 60 5 2 \$1;
#X obj 68 -50 ONElistSTOREandCOMPARE 3;
#X connect 0 0 29 0;
#X connect 1 0 29 1;
#X connect 9 0 21 0;
#X connect 10 0 20 0;
#X connect 11 0 19 0;
#X connect 12 0 18 0;
#X connect 14 0 17 0;
#X connect 15 0 16 0;
#X connect 16 0 28 0;
#X connect 16 0 8 0;
#X connect 17 0 27 0;
#X connect 17 0 7 0;
#X connect 18 0 26 0;
#X connect 18 0 6 0;
#X connect 19 0 25 0;
#X connect 19 0 5 0;
#X connect 20 0 24 0;
#X connect 20 0 4 0;
#X connect 21 0 23 0;
#X connect 21 0 3 0;
#X connect 23 0 2 0;
#X connect 24 0 2 0;
#X connect 25 0 2 0;
#X connect 26 0 2 0;
#X connect 27 0 2 0;
#X connect 28 0 2 0;
#X connect 29 2 9 0;
#X connect 29 3 10 0;
#X connect 29 4 11 0;
#X connect 29 5 12 0;
#X connect 29 6 14 0;
#X connect 29 7 15 0;
#X restore 349 226 pd sendPATCHESpreTOrmod;
#N canvas 708 1169 481 311 sendPATCHESpreTOam 0;
#X obj 68 -75 inlet;
#X obj 233 -74 r dest1;
#X obj 187 142 outlet;
#X floatatom 35 84 5 0 0 0 - - -, f 5;
#X floatatom 101 81 5 0 0 0 - - -, f 5;
#X floatatom 160 85 5 0 0 0 - - -, f 5;
#X floatatom 223 83 5 0 0 0 - - -, f 5;
#X floatatom 283 85 5 0 0 0 - - -, f 5;
#X floatatom 349 84 5 0 0 0 - - -, f 5;
#X obj 19 11 * 0.001;
#X obj 82 11 * 0.001;
#X obj 147 12 * 0.001;
#X obj 212 11 * 0.001;
#X text 139 -22 normalize 0-1;
#X obj 276 12 * 0.001;
#X obj 340 11 * 0.001;
#X obj 339 34 clip 0 1;
#X obj 276 35 clip 0 1;
#X obj 212 34 clip 0 1;
#X obj 148 36 clip 0 1;
#X obj 82 34 clip 0 1;
#X obj 18 33 clip 0 1;
#X text 20 -98 AMOUNT of individual audio PATCHES SEND pre to RMOD
;
#X msg 18 59 0 3 \$1;
#X msg 84 57 1 3 \$1;
#X msg 147 59 2 3 \$1;
#X msg 212 57 3 3 \$1;
#X msg 276 58 4 3 \$1;
#X msg 340 60 5 3 \$1;
#X obj 68 -50 ONElistSTOREandCOMPARE 4;
#X connect 0 0 29 0;
#X connect 1 0 29 1;
#X connect 9 0 21 0;
#X connect 10 0 20 0;
#X connect 11 0 19 0;
#X connect 12 0 18 0;
#X connect 14 0 17 0;
#X connect 15 0 16 0;
#X connect 16 0 28 0;
#X connect 16 0 8 0;
#X connect 17 0 27 0;
#X connect 17 0 7 0;
#X connect 18 0 26 0;
#X connect 18 0 6 0;
#X connect 19 0 25 0;
#X connect 19 0 5 0;
#X connect 20 0 24 0;
#X connect 20 0 4 0;
#X connect 21 0 23 0;
#X connect 21 0 3 0;
#X connect 23 0 2 0;
#X connect 24 0 2 0;
#X connect 25 0 2 0;
#X connect 26 0 2 0;
#X connect 27 0 2 0;
#X connect 28 0 2 0;
#X connect 29 2 9 0;
#X connect 29 3 10 0;
#X connect 29 4 11 0;
#X connect 29 5 12 0;
#X connect 29 6 14 0;
#X connect 29 7 15 0;
#X restore 398 204 pd sendPATCHESpreTOam;
#X text 162 227 send ind patches pre to RM;
#X text 209 204 send ind patches pre to AM;
#X text 259 182 send ind patches pre to FM;
#N canvas 711 1171 481 311 sendPATCHESpreTOfm 0;
#X obj 68 -75 inlet;
#X obj 233 -74 r dest1;
#X obj 187 142 outlet;
#X floatatom 35 84 5 0 0 0 - - -, f 5;
#X floatatom 101 81 5 0 0 0 - - -, f 5;
#X floatatom 160 85 5 0 0 0 - - -, f 5;
#X floatatom 223 83 5 0 0 0 - - -, f 5;
#X floatatom 283 85 5 0 0 0 - - -, f 5;
#X floatatom 349 84 5 0 0 0 - - -, f 5;
#X obj 19 11 * 0.001;
#X obj 82 11 * 0.001;
#X obj 147 12 * 0.001;
#X obj 212 11 * 0.001;
#X text 139 -22 normalize 0-1;
#X obj 276 12 * 0.001;
#X obj 340 11 * 0.001;
#X obj 339 34 clip 0 1;
#X obj 276 35 clip 0 1;
#X obj 212 34 clip 0 1;
#X obj 148 36 clip 0 1;
#X obj 82 34 clip 0 1;
#X obj 18 33 clip 0 1;
#X text 20 -98 AMOUNT of individual audio PATCHES SEND pre to RMOD
;
#X msg 340 60 5 4 \$1;
#X msg 276 58 4 4 \$1;
#X msg 212 57 3 4 \$1;
#X msg 147 59 2 4 \$1;
#X msg 84 57 1 4 \$1;
#X msg 19 58 0 4 \$1;
#X floatatom 338 -32 5 0 0 0 - - -, f 5;
#X obj 68 -50 ONElistSTOREandCOMPARE 5;
#X connect 0 0 30 0;
#X connect 1 0 30 1;
#X connect 9 0 21 0;
#X connect 10 0 20 0;
#X connect 11 0 19 0;
#X connect 12 0 18 0;
#X connect 14 0 17 0;
#X connect 15 0 16 0;
#X connect 16 0 23 0;
#X connect 16 0 8 0;
#X connect 17 0 24 0;
#X connect 17 0 7 0;
#X connect 18 0 25 0;
#X connect 18 0 6 0;
#X connect 19 0 26 0;
#X connect 19 0 5 0;
#X connect 20 0 27 0;
#X connect 20 0 4 0;
#X connect 21 0 28 0;
#X connect 21 0 3 0;
#X connect 23 0 2 0;
#X connect 24 0 2 0;
#X connect 25 0 2 0;
#X connect 26 0 2 0;
#X connect 27 0 2 0;
#X connect 28 0 2 0;
#X connect 30 2 9 0;
#X connect 30 3 10 0;
#X connect 30 4 11 0;
#X connect 30 5 12 0;
#X connect 30 6 14 0;
#X connect 30 7 15 0;
#X connect 30 7 29 0;
#X restore 447 182 pd sendPATCHESpreTOfm;
#X text 306 162 send ind patches pre to FM;
#N canvas 678 303 481 311 sendEXTaudioINtoFX 0;
#X obj 68 -75 inlet;
#X obj 233 -74 r dest1;
#X obj 187 142 outlet;
#X floatatom 35 84 5 0 0 0 - - -, f 5;
#X floatatom 101 81 5 0 0 0 - - -, f 5;
#X floatatom 160 85 5 0 0 0 - - -, f 5;
#X floatatom 223 83 5 0 0 0 - - -, f 5;
#X floatatom 283 85 5 0 0 0 - - -, f 5;
#X floatatom 349 84 5 0 0 0 - - -, f 5;
#X obj 19 11 * 0.001;
#X obj 82 11 * 0.001;
#X obj 147 12 * 0.001;
#X obj 212 11 * 0.001;
#X text 139 -22 normalize 0-1;
#X obj 276 12 * 0.001;
#X obj 340 11 * 0.001;
#X obj 339 34 clip 0 1;
#X obj 276 35 clip 0 1;
#X obj 212 34 clip 0 1;
#X obj 148 36 clip 0 1;
#X obj 82 34 clip 0 1;
#X obj 18 33 clip 0 1;
#X text 20 -98 AMOUNT of individual audio PATCHES SEND pre to RMOD
;
#X floatatom 338 -32 5 0 0 0 - - -, f 5;
#X msg 340 60 5 5 \$1;
#X msg 19 58 5 0 \$1;
#X msg 84 57 5 1 \$1;
#X msg 147 59 5 2 \$1;
#X msg 212 57 5 3 \$1;
#X msg 276 58 5 4 \$1;
#X obj 68 -50 ONElistSTOREandCOMPARE 7;
#X connect 0 0 30 0;
#X connect 1 0 30 1;
#X connect 9 0 21 0;
#X connect 10 0 20 0;
#X connect 11 0 19 0;
#X connect 12 0 18 0;
#X connect 14 0 17 0;
#X connect 15 0 16 0;
#X connect 16 0 24 0;
#X connect 16 0 8 0;
#X connect 17 0 29 0;
#X connect 17 0 7 0;
#X connect 18 0 28 0;
#X connect 18 0 6 0;
#X connect 19 0 27 0;
#X connect 19 0 5 0;
#X connect 20 0 26 0;
#X connect 20 0 4 0;
#X connect 21 0 25 0;
#X connect 21 0 3 0;
#X connect 24 0 2 0;
#X connect 25 0 2 0;
#X connect 26 0 2 0;
#X connect 27 0 2 0;
#X connect 28 0 2 0;
#X connect 29 0 2 0;
#X connect 30 2 9 0;
#X connect 30 3 10 0;
#X connect 30 4 11 0;
#X connect 30 5 12 0;
#X connect 30 6 14 0;
#X connect 30 7 15 0;
#X connect 30 7 23 0;
#X restore 552 139 pd sendEXTaudioINtoFX;
#N canvas 693 1159 481 311 sendPATCHESpreTOredux 0;
#X obj 68 -75 inlet;
#X obj 233 -74 r dest1;
#X obj 187 142 outlet;
#X floatatom 35 84 5 0 0 0 - - -, f 5;
#X floatatom 101 81 5 0 0 0 - - -, f 5;
#X floatatom 160 85 5 0 0 0 - - -, f 5;
#X floatatom 223 83 5 0 0 0 - - -, f 5;
#X floatatom 283 85 5 0 0 0 - - -, f 5;
#X floatatom 349 84 5 0 0 0 - - -, f 5;
#X obj 19 11 * 0.001;
#X obj 82 11 * 0.001;
#X obj 147 12 * 0.001;
#X obj 212 11 * 0.001;
#X text 139 -22 normalize 0-1;
#X obj 276 12 * 0.001;
#X obj 340 11 * 0.001;
#X obj 339 34 clip 0 1;
#X obj 276 35 clip 0 1;
#X obj 212 34 clip 0 1;
#X obj 148 36 clip 0 1;
#X obj 82 34 clip 0 1;
#X obj 18 33 clip 0 1;
#X text 20 -98 AMOUNT of individual audio PATCHES SEND pre to RMOD
;
#X floatatom 338 -32 5 0 0 0 - - -, f 5;
#X msg 19 58 0 5 \$1;
#X msg 84 57 1 5 \$1;
#X msg 147 59 2 5 \$1;
#X msg 212 57 3 5 \$1;
#X msg 276 58 4 5 \$1;
#X msg 340 60 5 5 \$1;
#X obj 68 -50 ONElistSTOREandCOMPARE 6;
#X connect 0 0 30 0;
#X connect 1 0 30 1;
#X connect 9 0 21 0;
#X connect 10 0 20 0;
#X connect 11 0 19 0;
#X connect 12 0 18 0;
#X connect 14 0 17 0;
#X connect 15 0 16 0;
#X connect 16 0 29 0;
#X connect 16 0 8 0;
#X connect 17 0 28 0;
#X connect 17 0 7 0;
#X connect 18 0 27 0;
#X connect 18 0 6 0;
#X connect 19 0 26 0;
#X connect 19 0 5 0;
#X connect 20 0 25 0;
#X connect 20 0 4 0;
#X connect 21 0 24 0;
#X connect 21 0 3 0;
#X connect 24 0 2 0;
#X connect 25 0 2 0;
#X connect 26 0 2 0;
#X connect 27 0 2 0;
#X connect 28 0 2 0;
#X connect 29 0 2 0;
#X connect 30 2 9 0;
#X connect 30 3 10 0;
#X connect 30 4 11 0;
#X connect 30 5 12 0;
#X connect 30 6 14 0;
#X connect 30 7 15 0;
#X connect 30 7 23 0;
#X restore 495 162 pd sendPATCHESpreTOredux;
#X text 275 120 this one is different-send ONEpatch-audioin to different
efx;
#X text 257 19 multiple values to send to different destinations;
#X text 44 308 mode 0 = MIXER CONTROL;
#X obj 38 217 s PATCH6dsp;
#X obj 38 147 t f f;
#X obj 204 44 route Audio_mix_Vol fxsendVCD fxsendVCF fxsendRM fxsendAM
fxsendFM fxsendREDUX fxsendAUDIOin fxRETURNmix;
#X obj 629 80 outlet;
#X text 424 80 cont return levels of fx pre;
#X obj 38 169 oneARDinCOMPARE 100;
#X connect 0 0 21 0;
#X connect 3 0 1 0;
#X connect 4 0 1 0;
#X connect 7 0 1 0;
#X connect 8 0 1 0;
#X connect 12 0 1 0;
#X connect 14 0 1 0;
#X connect 15 0 1 0;
#X connect 20 0 24 0;
#X connect 21 0 2 0;
#X connect 21 1 3 0;
#X connect 21 2 4 0;
#X connect 21 3 7 0;
#X connect 21 4 8 0;
#X connect 21 5 12 0;
#X connect 21 6 15 0;
#X connect 21 7 14 0;
#X connect 21 8 22 0;
#X connect 24 0 19 0;
#X restore 224 47 pd ROUTE_8values_to_EFX_send_ctrl;
#N canvas 0 241 516 179 messages_and_info_matrix 0;
#X text 24 97 if gain is non-zero \, connect inlet# to outlet#. If
gain is zero \, disconnect inlet# from outlet#;
#X text 23 69 Inlets and outlets are numbered from left to right \,
starting at zero (i.e. hot inlets are 0).;
#X text 86 30 [ramp ramptime(;
#X obj 26 26 loadbang;
#X text 84 52 sets default time in ms to change "gain" when in mix
mode;
#X msg 26 49 ramp 20;
#X obj 27 134 outlet;
#X connect 3 0 5 0;
#X connect 5 0 6 0;
#X restore 149 220 pd messages_and_info_matrix;
#X text 233 145 reset all connections;
#X msg 175 141 1;
#X obj 463 66 s fxpre_return_levels;
#X obj 151 288 r fxpre_return_levels;
#X obj 161 328 unpack f f f f f f;
#X text 147 202 get all values (DSP must be on);
#X text 150 272 8 - ile mix powraca fx;
#X text 416 65 mode 0;
#X text 415 75 mode 8;
#X obj 165 359 s fxp_ret_lev_disp;
#X text 163 378 send only for diplay;
#N canvas 687 169 606 526 FM 0;
#X obj 193 341 outlet~;
#X obj -132 309 switch~;
#X floatatom -133 286 2 0 0 0 - - -, f 2;
#X text -116 285 dsp;
#X obj -134 260 r PATCH6dsp;
#X obj -102 149 tgl 15 0 empty empty empty 17 7 0 10 -262144 -1 -1
1 1;
#X obj -81 199 *~;
#X obj -17 178 tgl 15 0 empty empty empty 17 7 0 10 -262144 -1 -1 0
1;
#X text -54 200 for FM;
#X obj -81 174 *~ 0.25;
#X obj -82 125 loadbang;
#X msg -102 126 1;
#X obj -137 225 delwrite~ dfm 100;
#X msg -18 156 0;
#X obj -80 146 osc~ 440;
#X text 228 27 index;
#X floatatom -54 49 5 0 10000 0 - - -, f 5;
#X floatatom 232 47 5 0 1000 0 - - -, f 5;
#X floatatom 366 -65 5 0 10 0 - - -, f 5;
#X obj 292 48 tgl 15 0 empty empty empty 17 7 0 10 -262144 -1 -1 1
1;
#N canvas 704 173 515 372 lfo 0;
#X obj -594 59 phasor~;
#X obj -424 144 triangle~;
#X text -423 242 choose between 3 different lfo shapes;
#X obj -303 83 + 1;
#X floatatom -272 106 5 0 0 0 - - -, f 5;
#X obj -327 54 bng 15 250 50 0 empty empty empty 17 7 0 10 -262144
-1 -1;
#X obj -303 107 % 3;
#X obj -349 78 i 0;
#X obj -348 138 sel 0 1 2;
#X msg -348 164 0 1 1;
#X msg -289 164 1 0 1;
#X msg -233 163 1 1 0;
#X obj -348 194 unpack f f f;
#X text -310 49 choose different lfo shapes;
#X obj -492 168 *~ 0.5;
#X obj -493 194 +~ 0.5;
#X obj -423 168 *~ 0.5;
#X obj -424 194 +~ 0.5;
#X obj -595 340 outlet~;
#X obj -594 314 *~ 1;
#X obj -594 7 inlet;
#X obj -349 6 inlet;
#X obj -491 9 inlet;
#X obj -301 29 loadbang;
#X obj -593 199 tanh~;
#X obj -593 113 -~ 3.14159;
#X obj -593 90 *~ 6.28319;
#X obj -594 239 unauthorized/spigot~;
#X obj -494 259 unauthorized/spigot~;
#X obj -426 279 unauthorized/spigot~;
#X obj -492 102 -~ 0.25;
#X obj -492 144 cos~;
#X text -512 65 skopiowalem z sin objektu bo nie dizala na rpi;
#X connect 0 0 1 0;
#X connect 0 0 26 0;
#X connect 0 0 30 0;
#X connect 1 0 16 0;
#X connect 3 0 6 0;
#X connect 5 0 7 0;
#X connect 6 0 7 1;
#X connect 7 0 3 0;
#X connect 7 0 4 0;
#X connect 7 0 8 0;
#X connect 8 0 9 0;
#X connect 8 1 10 0;
#X connect 8 2 11 0;
#X connect 9 0 12 0;
#X connect 10 0 12 0;
#X connect 11 0 12 0;
#X connect 12 0 27 1;
#X connect 12 1 28 1;
#X connect 12 2 29 1;
#X connect 14 0 15 0;
#X connect 15 0 28 0;
#X connect 16 0 17 0;
#X connect 17 0 29 0;
#X connect 19 0 18 0;
#X connect 20 0 0 0;
#X connect 21 0 7 0;
#X connect 22 0 19 1;
#X connect 23 0 5 0;
#X connect 24 0 27 0;
#X connect 25 0 24 0;
#X connect 26 0 25 0;
#X connect 27 0 19 0;
#X connect 28 0 19 0;
#X connect 29 0 19 0;
#X connect 30 0 31 0;
#X connect 31 0 14 0;
#X restore 61 105 pd lfo;
#X floatatom 80 57 5 0 100 0 - - -, f 5;
#X text 4 27 LFO FREQ;
#X floatatom 21 60 5 0 100 0 - - -, f 5;
#X text 69 26 LFOrange;
#X text 123 28 (RAMP/SIN/TRI);
#X obj 151 51 bng 15 250 50 0 empty empty empty 17 7 0 10 -262144 -1
-1;
#X text 19 42 0-100;
#X obj 42 185 +~;
#N canvas 911 415 460 329 fmaudioIN 0;
#X obj 180 57 inlet;
#X obj 105 56 inlet~;
#X obj 269 57 inlet;
#X obj 105 263 outlet~;
#X obj 105 85 osc~;
#X obj 106 116 +~ 1;
#X obj 105 140 *~ 0.5;
#X obj 106 229 vd~ dfm;
#X obj 106 203 *~;
#X obj 180 177 +~;
#X obj 180 122 pack 0 50;
#X floatatom 270 168 5 0 0 0 - - -, f 5;
#X obj 319 57 r minSENS;
#X obj 319 78 * 5;
#X text 24 89 MODULATOR;
#X text 272 99 index;
#X obj 180 149 line~;
#X obj 269 143 cyclone/gate;
#X connect 0 0 10 0;
#X connect 1 0 4 0;
#X connect 2 0 17 0;
#X connect 4 0 5 0;
#X connect 5 0 6 0;
#X connect 6 0 8 0;
#X connect 7 0 3 0;
#X connect 8 0 7 0;
#X connect 9 0 8 1;
#X connect 10 0 16 0;
#X connect 12 0 13 0;
#X connect 13 0 17 1;
#X connect 16 0 9 0;
#X connect 17 0 11 0;
#X connect 17 0 9 1;
#X restore 192 232 pd fmaudioIN;
#X text -66 28 MODULATOR;
#X text 275 25 sensor in;
#X floatatom 32 -6 5 0 0 0 - - -, f 5;
#X floatatom 71 -6 5 0 0 0 - - -, f 5;
#X floatatom 108 -6 5 0 0 0 - - -, f 5;
#X floatatom 146 -6 5 0 0 0 - - -, f 5;
#X floatatom 184 -6 5 0 0 0 - - -, f 5;
#X floatatom 221 -6 5 0 0 0 - - -, f 5;
#X floatatom 259 -6 5 0 0 0 - - -, f 5;
#X obj 16 -36 unpack f f f f f f f f;
#X floatatom -7 -6 5 0 0 0 - - -, f 5;
#X obj -136 183 *~ 1;
#X obj 349 269 line~ \$1 25;
#X obj 193 295 *~;
#X text 361 251 volume;
#X text 343 26 vol/amt/sat;
#X text 78 39 0-100;
#X obj -135 -48 inlet~;
#X obj 71 -131 loadbang;
#X obj 70 -106 t b b b b b;
#X msg 219 -66 6;
#X msg 106 -77 3;
#X msg 260 -74 1;
#X msg -89 -81 7;
#X obj 350 -98 inlet;
#X obj 193 265 tanh~;
#X obj 16 -62 r fm_list_ctrl;
#X connect 2 0 1 0;
#X connect 4 0 2 0;
#X connect 5 0 41 1;
#X connect 6 0 12 0;
#X connect 7 0 6 1;
#X connect 9 0 6 0;
#X connect 10 0 11 0;
#X connect 10 0 13 0;
#X connect 11 0 5 0;
#X connect 13 0 7 0;
#X connect 14 0 9 0;
#X connect 16 0 28 0;
#X connect 17 0 29 1;
#X connect 19 0 29 2;
#X connect 20 0 28 1;
#X connect 21 0 20 1;
#X connect 23 0 20 0;
#X connect 26 0 20 2;
#X connect 28 0 29 0;
#X connect 29 0 55 0;
#X connect 39 0 40 0;
#X connect 39 1 32 0;
#X connect 39 2 33 0;
#X connect 39 3 34 0;
#X connect 39 4 35 0;
#X connect 39 5 36 0;
#X connect 39 6 37 0;
#X connect 39 7 38 0;
#X connect 41 0 12 0;
#X connect 42 0 43 1;
#X connect 43 0 0 0;
#X connect 47 0 41 0;
#X connect 48 0 49 0;
#X connect 49 0 53 0;
#X connect 49 1 52 0;
#X connect 49 2 51 0;
#X connect 49 3 50 0;
#X connect 50 0 17 0;
#X connect 51 0 16 0;
#X connect 52 0 19 0;
#X connect 53 0 23 0;
#X connect 53 0 21 0;
#X connect 54 0 18 0;
#X connect 54 0 42 0;
#X connect 55 0 43 0;
#X connect 56 0 39 0;
#X restore 434 361 pd FM;
#X text 528 338 redux;
#X obj 469 313 *~ 0.15;
#X obj 529 313 *~ 0.15;
#X obj 620 315 print dump;
#X text 27 104 outputs the current gains of all connections out the
rightmost outlet \, in lists like this: inlet# outlet# gain;
#X text 802 99 output 0;
#X text 802 115 output 1;
#X text 704 69 input;
#X text 706 85 0;
#X text 721 85 1;
#X text 735 85 2;
#X text 750 85 3;
#X text 765 85 4;
#X text 782 85 5;
#N canvas 899 517 450 467 matrix-logic 0;
#X obj 100 100 tgl 15 0 s00 r00 empty 17 7 0 10 -262144 -1 -1 0 1;
#X obj 115 100 tgl 15 0 s10 r10 empty 17 7 0 10 -262144 -1 -1 0 1;
#X obj 130 100 tgl 15 0 s20 r20 empty 17 7 0 10 -262144 -1 -1 0 1;
#X obj 145 100 tgl 15 0 s30 r30 empty 17 7 0 10 -262144 -1 -1 0 1;
#X obj 160 100 tgl 15 0 s40 r40 empty 17 7 0 10 -262144 -1 -1 0 1;
#X obj 175 100 tgl 15 0 s50 r50 empty 17 7 0 10 -262144 -1 -1 0 1;
#X obj 100 115 tgl 15 0 empty r10 empty 17 7 0 10 -262144 -1 -1 0 1
;
#X obj 115 115 tgl 15 0 s11 r11 empty 17 7 0 10 -262144 -1 -1 0 1;
#X obj 130 115 tgl 15 0 s21 r21 empty 17 7 0 10 -262144 -1 -1 0 1;
#X obj 145 115 tgl 15 0 s31 r31 empty 17 7 0 10 -262144 -1 -1 0 1;
#X obj 160 115 tgl 15 0 s41 r41 empty 17 7 0 10 -262144 -1 -1 0 1;
#X obj 175 115 tgl 15 0 s51 r51 empty 17 7 0 10 -262144 -1 -1 0 1;
#X obj 100 263 moses 1;
#X msg 139 299 connect;
#X msg 100 319 disconnect;
#X msg 127 208 0 0;
#X msg 136 236 0 1;
#X msg 206 208 2 0;
#X msg 215 236 2 1;
#X msg 284 208 4 0;
#X msg 293 236 4 1;
#X obj 100 360 list append;
#X obj 100 142 t f f;
#X obj 101 381 list trim;
#X obj 109 164 t f f;
#X obj 140 142 t f f;
#X obj 149 164 t f f;
#X obj 179 142 t f f;
#X obj 188 164 t f f;
#X obj 218 143 t f f;
#X obj 227 165 t f f;
#X obj 257 143 t f f;
#X obj 266 165 t f f;
#X obj 296 144 t f f;
#X obj 305 166 t f f;
#X msg 177 236 1 1;
#X msg 168 208 1 0;
#X msg 245 208 3 0;
#X msg 254 236 3 1;
#X msg 323 208 5 0;
#X msg 332 236 5 1;
#X obj 101 415 outlet;
#X obj 100 5 inlet;
#X msg 100 27 set 0;
#X obj 100 56 s r00;
#X obj 100 76 s r01;
#X obj 137 56 s r10;
#X obj 137 76 s r11;
#X obj 174 56 s r20;
#X obj 211 56 s r30;
#X obj 211 76 s r31;
#X obj 174 76 s r21;
#X obj 248 56 s r40;
#X obj 248 76 s r41;
#X obj 285 56 s r50;
#X obj 285 76 s r51;
#X connect 0 0 22 0;
#X connect 1 0 25 0;
#X connect 2 0 27 0;
#X connect 3 0 29 0;
#X connect 4 0 31 0;
#X connect 5 0 33 0;
#X connect 6 0 24 0;
#X connect 7 0 26 0;
#X connect 8 0 28 0;
#X connect 9 0 30 0;
#X connect 10 0 32 0;
#X connect 11 0 34 0;
#X connect 12 0 14 0;
#X connect 12 1 13 0;
#X connect 13 0 21 0;
#X connect 14 0 21 0;
#X connect 15 0 21 1;
#X connect 16 0 21 1;
#X connect 17 0 21 1;
#X connect 18 0 21 1;
#X connect 19 0 21 1;
#X connect 20 0 21 1;
#X connect 21 0 23 0;
#X connect 22 0 12 0;
#X connect 22 1 15 0;
#X connect 23 0 41 0;
#X connect 24 0 12 0;
#X connect 24 1 16 0;
#X connect 25 0 12 0;
#X connect 25 1 36 0;
#X connect 26 0 12 0;
#X connect 26 1 35 0;
#X connect 27 0 12 0;
#X connect 27 1 17 0;
#X connect 28 0 12 0;
#X connect 28 1 18 0;
#X connect 29 0 12 0;
#X connect 29 1 37 0;
#X connect 30 0 12 0;
#X connect 30 1 38 0;
#X connect 31 0 12 0;
#X connect 31 1 19 0;
#X connect 32 0 12 0;
#X connect 32 1 20 0;
#X connect 33 0 12 0;
#X connect 33 1 39 0;
#X connect 34 0 12 0;
#X connect 34 1 40 0;
#X connect 35 0 21 1;
#X connect 36 0 21 1;
#X connect 37 0 21 1;
#X connect 38 0 21 1;
#X connect 39 0 21 1;
#X connect 40 0 21 1;
#X connect 42 0 43 0;
#X connect 43 0 55 0;
#X connect 43 0 54 0;
#X connect 43 0 52 0;
#X connect 43 0 49 0;
#X connect 43 0 48 0;
#X connect 43 0 46 0;
#X connect 43 0 44 0;
#X connect 43 0 53 0;
#X connect 43 0 50 0;
#X connect 43 0 51 0;
#X connect 43 0 47 0;
#X connect 43 0 45 0;
#X coords 0 -1 1 1 90 30 2 100 100;
#X restore 704 104 pd matrix-logic;
#X obj 705 164 print;
#X msg 707 37 clear;
#X obj 466 280 cyclone/matrix~ 6 2 1;
#X obj 718 289 switch~;
#X floatatom 718 266 2 0 0 0 - - -, f 2;
#X text 735 265 dsp;
#X obj 716 243 loadbang;
#X connect 3 0 42 0;
#X connect 5 0 42 0;
#X connect 6 0 42 0;
#X connect 7 0 3 0;
#X connect 8 0 7 0;
#X connect 9 0 6 0;
#X connect 11 0 10 0;
#X connect 11 1 42 0;
#X connect 11 2 15 0;
#X connect 12 0 42 0;
#X connect 14 0 7 0;
#X connect 17 4 24 1;
#X connect 17 5 4 1;
#X connect 39 0 40 0;
#X connect 39 0 42 0;
#X connect 41 0 39 0;
#X connect 41 0 42 0;
#X connect 42 0 26 0;
#X connect 42 1 27 0;
#X connect 42 2 28 0;
#X connect 44 0 43 0;
#X connect 46 0 44 0;
#X restore 34 51 pd FX_SEND_WITH_MATRIX;
