#N canvas 107 424 1170 437 10;
#X obj 693 171 vsl 20 120 0 1 0 0 empty levelMaster Master 0 -9 0 10
-258113 -1 -1 0 1;
#N canvas 157 122 776 485 master 0;
#X obj 100 395 env~;
#X obj 100 419 - 95;
#X obj 100 330 *~;
#X obj 515 182 pow 2;
#X obj 515 13 r levelMaster;
#X obj 100 443 s vuMaster;
#X obj 190 442 dac~;
#X obj 100 133 catch~ masterL;
#X obj 302 339 *~;
#X obj 300 134 catch~ masterR;
#X obj 101 364 +~;
#X obj 515 222 sig~;
#X obj 515 247 lop~ 20;
#X obj 579 184 outlet;
#X obj 301 190 unauthorized/compressor~;
#X floatatom 372 86 5 0 0 0 - - -, f 5;
#X obj 289 66 - 1;
#X obj 290 40 * 5;
#X obj 292 13 r compress;
#X obj 100 190 unauthorized/compressor~;
#X obj 332 416 outlet~;
#X connect 0 0 1 0;
#X connect 1 0 5 0;
#X connect 2 0 10 0;
#X connect 2 0 6 0;
#X connect 3 0 11 0;
#X connect 4 0 3 0;
#X connect 4 0 13 0;
#X connect 7 0 19 0;
#X connect 8 0 10 1;
#X connect 8 0 6 1;
#X connect 9 0 14 0;
#X connect 10 0 0 0;
#X connect 10 0 20 0;
#X connect 11 0 12 0;
#X connect 12 0 8 1;
#X connect 12 0 2 1;
#X connect 14 0 8 0;
#X connect 16 0 15 0;
#X connect 16 0 14 1;
#X connect 16 0 19 1;
#X connect 17 0 16 0;
#X connect 18 0 17 0;
#X connect 19 0 2 0;
#X restore 769 123 pd master;
#X floatatom 779 147 5 0 0 0 - - -, f 5;
#X floatatom 289 26 5 0 0 0 - - -, f 5;
#X floatatom 405 26 5 0 0 0 - - -, f 5;
#X floatatom 173 26 5 0 0 0 - - -, f 5;
#X floatatom 520 26 5 0 0 0 - - -, f 5;
#X floatatom 636 26 5 0 0 0 - - -, f 5;
#X msg 63 347 \; pd dsp \$1;
#X obj 63 330 tgl 15 0 empty empty empty 17 7 0 10 -262144 -1 -1 0
1;
#X text 104 27 level;
#X obj 141 359 s all_sends_off;
#X obj 141 340 bng 15 250 50 0 empty empty empty 17 7 0 10 -262144
-1 -1;
#X text 760 49 level \, pan \, mute \, send fx 1-5 \, allSendsOff;
#X text 762 86 każdy czanel wysyła catch masterL i masterR;
#X obj 366 170 vsl 40 120 0 1 0 0 empty fx1_return Fx1_LEV 0 -10 0
8 -258113 -1 -1 0 1;
#X obj 417 169 vsl 40 120 0 1 0 0 empty fx2_return Fx2_LEV 0 -10 0
8 -258113 -1 -1 0 1;
#X obj 469 170 vsl 40 120 0 1 0 0 empty fx3_return Fx3_LEV 0 -10 0
8 -258113 -1 -1 0 1;
#X obj 521 170 vsl 40 120 0 1 0 0 empty fx4_return Fx4_LEV 0 -10 0
8 -258113 -1 -1 0 1;
#X obj 574 170 vsl 40 120 0 1 0 0 empty fx5_return Fx5_LEV 0 -10 0
8 -258113 -1 -1 0 1;
#N canvas 522 51 703 504 5_fxslevels_for_5audiopatches 0;
#X floatatom 140 62 5 0 1 0 - - -, f 5;
#X obj 125 82 s ch1_fx1_s;
#X floatatom 245 62 5 0 1 0 - - -, f 5;
#X obj 234 82 s ch2_fx1_s;
#X obj 124 173 s ch1_fx2_s;
#X obj 120 269 s ch1_fx3_s;
#X obj 114 364 s ch1_fx4_s;
#X obj 117 452 s ch1_fx5_s;
#X floatatom 135 155 5 0 1 0 - - -, f 5;
#X floatatom 126 247 5 0 1 0 - - -, f 5;
#X floatatom 128 341 5 0 1 0 - - -, f 5;
#X floatatom 129 431 5 0 1 0 - - -, f 5;
#X obj 234 173 s ch2_fx2_s;
#X obj 229 269 s ch2_fx3_s;
#X obj 221 364 s ch2_fx4_s;
#X obj 225 453 s ch2_fx5_s;
#X floatatom 241 156 5 0 1 0 - - -, f 5;
#X floatatom 241 247 5 0 1 0 - - -, f 5;
#X floatatom 234 342 5 0 1 0 - - -, f 5;
#X floatatom 236 431 5 0 1 0 - - -, f 5;
#X floatatom 350 62 5 0 1 0 - - -, f 5;
#X floatatom 465 63 5 0 1 0 - - -, f 5;
#X floatatom 355 156 5 0 1 0 - - -, f 5;
#X floatatom 345 247 5 0 1 0 - - -, f 5;
#X floatatom 339 343 5 0 1 0 - - -, f 5;
#X floatatom 341 433 5 0 1 0 - - -, f 5;
#X floatatom 469 156 5 0 1 0 - - -, f 5;
#X floatatom 455 247 5 0 1 0 - - -, f 5;
#X floatatom 445 340 5 0 1 0 - - -, f 5;
#X floatatom 447 432 5 0 1 0 - - -, f 5;
#X obj 333 454 s ch3_fx5_s;
#X obj 328 363 s ch3_fx4_s;
#X obj 338 269 s ch3_fx3_s;
#X obj 345 173 s ch3_fx2_s;
#X obj 343 82 s ch3_fx1_s;
#X obj 441 454 s ch4_fx5_s;
#X obj 435 362 s ch4_fx4_s;
#X obj 447 269 s ch4_fx3_s;
#X obj 455 173 s ch4_fx2_s;
#X obj 452 82 s ch4_fx1_s;
#X floatatom 590 62 5 0 1 0 - - -, f 5;
#X floatatom 586 155 5 0 1 0 - - -, f 5;
#X floatatom 566 250 5 0 1 0 - - -, f 5;
#X floatatom 552 341 5 0 1 0 - - -, f 5;
#X floatatom 558 433 5 0 1 0 - - -, f 5;
#X obj 549 455 s ch5_fx5_s;
#X obj 542 365 s ch5_fx4_s;
#X obj 556 272 s ch5_fx3_s;
#X obj 565 172 s ch5_fx2_s;
#X obj 561 82 s ch5_fx1_s;
#X floatatom 26 64 5 0 1 0 - - -, f 5;
#X floatatom 24 155 5 0 1 0 - - -, f 5;
#X floatatom 21 247 5 0 1 0 - - -, f 5;
#X floatatom 18 340 5 0 1 0 - - -, f 5;
#X floatatom 19 432 5 0 1 0 - - -, f 5;
#X obj 16 83 s audioin_sfx1;
#X obj 14 173 s audioin_sfx2;
#X obj 11 268 s audioin_sfx3;
#X obj 8 363 s audioin_sfx4;
#X obj 9 453 s audioin_sfx5;
#X obj 16 16 r send_levels_fx1;
#X obj 14 108 r send_levels_fx2;
#X obj 11 201 r send_levels_fx3;
#X obj 8 293 r send_levels_fx4;
#X obj 9 385 r send_levels_fx5;
#X obj 9 408 route 0 1 2 3 4 5, f 93;
#X obj 8 316 route 0 1 2 3 4 5, f 92;
#X obj 16 37 route 0 1 2 3 4 5, f 94;
#X obj 14 131 route 0 1 2 3 4 5, f 95;
#X obj 11 224 route 0 1 2 3 4 5, f 94;
#X connect 60 0 67 0;
#X connect 61 0 68 0;
#X connect 62 0 69 0;
#X connect 63 0 66 0;
#X connect 64 0 65 0;
#X connect 65 0 54 0;
#X connect 65 0 59 0;
#X connect 65 1 11 0;
#X connect 65 1 7 0;
#X connect 65 2 19 0;
#X connect 65 2 15 0;
#X connect 65 3 25 0;
#X connect 65 3 30 0;
#X connect 65 4 29 0;
#X connect 65 4 35 0;
#X connect 65 5 44 0;
#X connect 65 5 45 0;
#X connect 66 0 53 0;
#X connect 66 0 58 0;
#X connect 66 1 10 0;
#X connect 66 1 6 0;
#X connect 66 2 18 0;
#X connect 66 2 14 0;
#X connect 66 3 24 0;
#X connect 66 3 31 0;
#X connect 66 4 28 0;
#X connect 66 4 36 0;
#X connect 66 5 43 0;
#X connect 66 5 46 0;
#X connect 67 0 50 0;
#X connect 67 0 55 0;
#X connect 67 1 0 0;
#X connect 67 1 1 0;
#X connect 67 2 2 0;
#X connect 67 2 3 0;
#X connect 67 3 20 0;
#X connect 67 3 34 0;
#X connect 67 4 21 0;
#X connect 67 4 39 0;
#X connect 67 5 40 0;
#X connect 67 5 49 0;
#X connect 68 0 51 0;
#X connect 68 0 56 0;
#X connect 68 1 8 0;
#X connect 68 1 4 0;
#X connect 68 2 16 0;
#X connect 68 2 12 0;
#X connect 68 3 22 0;
#X connect 68 3 33 0;
#X connect 68 4 26 0;
#X connect 68 4 38 0;
#X connect 68 5 41 0;
#X connect 68 5 48 0;
#X connect 69 0 52 0;
#X connect 69 0 57 0;
#X connect 69 1 9 0;
#X connect 69 1 5 0;
#X connect 69 2 17 0;
#X connect 69 2 13 0;
#X connect 69 3 23 0;
#X connect 69 3 32 0;
#X connect 69 4 27 0;
#X connect 69 4 37 0;
#X connect 69 5 42 0;
#X connect 69 5 47 0;
#X restore 368 79 pd 5_fxslevels_for_5audiopatches;
#X obj 150 121 tgl 25 0 empty ch1_mute CH1_MU 0 -7 0 8 -254991 -1 -1
0 1;
#X obj 194 121 tgl 25 0 empty ch2_mute CH2_MU 0 -7 0 8 -254991 -1 -1
1 1;
#X obj 237 121 tgl 25 0 empty ch3_mute CH3_MU 0 -7 0 8 -254991 -1 -1
1 1;
#X obj 280 121 tgl 25 0 empty ch4_mute CH4_MU 0 -7 0 8 -254991 -1 -1
1 1;
#X obj 321 121 tgl 25 0 empty ch5_mute CH5_MU 0 -7 0 8 -254991 -1 -1
0 1;
#X obj 150 79 hsl 30 15 -1 1 0 1 empty pan1 PAN1 0 10 0 10 -34823 -1
-1 1404 1;
#X text 13 80 PANN;
#X obj 192 79 hsl 30 15 -1 1 0 0 empty pan2 PAN2 0 10 0 10 -34823 -1
-1 1380 1;
#X obj 234 79 hsl 30 15 -1 1 0 0 empty pan3 PAN3 0 10 0 10 -34823 -1
-1 1778 1;
#X obj 276 79 hsl 30 15 -1 1 0 0 empty pan4 PAN4 0 10 0 10 -34823 -1
-1 1250 1;
#X obj 318 78 hsl 30 15 -1 1 0 0 empty pan5 PAN5 0 10 0 10 -34823 -1
-1 1695 1;
#X text 14 123 MUTE;
#X obj 148 169 vsl 40 120 0 1 0 0 empty patch1level CH1_LEV 0 -10 0
8 -258113 -1 -1 0 1;
#X obj 190 169 vsl 40 120 0 1 0 0 empty patch2level CH2_LEV 0 -10 0
8 -258113 -1 -1 0 1;
#X obj 232 169 vsl 40 120 0 1 0 0 empty patch3level CH3_LEV 0 -10 0
8 -258113 -1 -1 0 1;
#X obj 274 169 vsl 40 120 0 1 0 0 empty patch4level CH4_LEV 0 -10 0
8 -258113 -1 -1 0 1;
#X obj 316 169 vsl 40 120 0 1 0 0 empty patch5level CH5_LEV 0 -10 0
8 -258113 -1 -1 0 1;
#X obj 273 359 s print_chstrip_set;
#X obj 273 342 bng 15 250 50 0 empty empty empty 17 7 0 10 -262144
-1 -1;
#X text 761 70 5 fx send (na razie tylko post fader);
#X text 758 23 each has 8 ctrl parameters via send;
#X text 291 339 print setting of strips;
#X text 651 333 add sends to efx channels?;
#X obj 57 121 tgl 25 0 audioin_mute empty CH0_MU 20 12 0 12 -254991
-1 -1 0 1;
#X obj 71 79 hsl 30 15 -1 1 0 1 audioin_pan empty PAN0 0 10 0 10 -34823
-1 -1 1450 1;
#X obj 56 169 vsl 40 120 0 1 0 0 empty audio_in_gain CH0_LEV 0 -10
0 8 -258113 -1 -1 0 1;
#X floatatom 58 26 5 0 0 0 - - -, f 5;
#X text 654 318 mono i stereo ??;
#N canvas 0 51 557 165 mix_with_matrix 0;
#X text 21 30 bedzie matrixem wszystko sterować chyba najlatwiej?
a moze wlasnie nie :);
#X obj 33 82 matrix~ 5 5 1 @ramp 20;
#X obj 446 83 switch~;
#X obj 446 38 loadbang;
#X msg 446 60 0;
#X obj 480 64 tgl 15 0 empty empty empty 17 7 0 10 -262144 -1 -1 0
1;
#X connect 3 0 4 0;
#X connect 4 0 2 0;
#X connect 5 0 2 0;
#X restore 657 352 pd mix_with_matrix;
#X text 566 294 VERB/GRAN;
#X text 155 295 FBAK;
#X text 197 295 FFT;
#X text 233 295 SMPL1;
#X text 274 295 SMPL2;
#X text 312 295 FILTRES;
#X text 48 295 AUDIOIN;
#X obj 721 173 vu 15 120 vuMaster empty -1 -8 0 10 -66577 -1 1 0;
#X obj 99 169 vu 15 120 vuAudioIn empty -1 -8 0 10 -66577 -1 1 0;
#X obj 57 46 loadbang;
#X msg 57 103 0;
#X text 755 4 CHANNEL STRIP EXPECTS CATCH ch\$1;
#X obj 173 6 channel_strip 1;
#X msg 68 62 0;
#X obj 520 6 channel_strip 4;
#X obj 289 6 channel_strip 2;
#X obj 405 6 channel_strip 3;
#X obj 636 6 channel_strip 5;
#X text 0 169 LEVELS;
#X obj 623 171 vsl 60 120 0 1 0 0 empty compress Compress 0 -9 0 10
-4034 -1 -1 0 1;
#X text 364 295 LCDEL;
#X text 422 295 LCF;
#X text 458 294 LCFM/RM;
#X text 505 294 LCAM/DIST;
#X text 921 310 MIXCTRL;
#N canvas 0 101 1337 527 AUDIO_IN/CH0 0;
#X obj 37 53 adc~, f 8;
#X obj 37 88 hip~ 10;
#X floatatom 341 71 5 0 0 0 - audio_in_level -, f 5;
#X obj 341 95 pow 2;
#X floatatom 1141 243 5 0 0 0 - - -, f 5;
#X obj 36 443 panner, f 12;
#X floatatom 475 88 5 0 1 0 - audioin_pan -, f 5;
#X obj 36 500 throw~ masterL;
#X obj 164 500 throw~ masterR;
#X obj 341 119 t b f;
#X obj 477 147 *, f 5;
#X obj 592 76 tgl 15 0 empty audioin_mute mute 17 7 0 10 -254991 -1
-1 0 1;
#X obj 592 119 == 0;
#X obj 477 170 sig~;
#X obj 477 194 lop~ 10;
#X obj 313 432 *~;
#X floatatom 331 329 5 0 0 0 - audioin_sfx1 -, f 5;
#X obj 331 353 pow 2;
#X obj 331 379 sig~;
#X obj 331 403 lop~ 10;
#X obj 313 480 throw~ fx1send;
#X text 380 70 level;
#X text 139 443 panning;
#X obj 432 432 *~;
#X floatatom 451 329 5 0 0 0 - audioin_sfx2 -, f 5;
#X obj 451 356 pow 2;
#X obj 451 382 sig~;
#X obj 451 406 lop~ 10;
#X obj 432 479 throw~ fx2send;
#X obj 553 432 *~;
#X floatatom 571 330 5 0 1 0 - audioin_sfx3 -, f 5;
#X obj 571 363 pow 2;
#X obj 571 389 sig~;
#X obj 571 413 lop~ 10;
#X obj 678 432 *~;
#X floatatom 696 330 5 0 0 0 - audioin_sfx4 -, f 5;
#X obj 696 355 pow 2;
#X obj 696 381 sig~;
#X obj 696 405 lop~ 10;
#X obj 553 477 throw~ fx3send;
#X obj 678 478 throw~ fx4send;
#X obj 805 432 *~;
#X floatatom 823 330 5 0 0 0 - audioin_sfx5 -, f 5;
#X obj 823 355 pow 2;
#X obj 823 381 sig~;
#X obj 823 405 lop~ 10;
#X obj 805 478 throw~ fx5send;
#X obj 1143 264 outlet;
#X text 1089 322 ctrl signals monitoring;
#X obj 1084 348 pack s f f f f f f f f;
#X obj 1082 172 r print_chstrip_set;
#X obj 1096 273 bng 15 250 50 0 empty empty empty 17 7 0 10 -262144
-1 -1;
#X text 233 326 SEND LEVELS;
#X text 465 68 from pan;
#X obj 1084 477 print audioIN_settings;
#X text 8 20 EXTERNAL AUDIO IN;
#X floatatom 336 26 5 0 1 0 - - -, f 5;
#X floatatom 712 93 5 0 1 0 - - -, f 5;
#X floatatom 830 94 5 0 1 0 - - -, f 5;
#X floatatom 949 92 5 0 1 0 - - -, f 5;
#X floatatom 1070 96 5 0 1 0 - - -, f 5;
#X floatatom 1190 96 5 0 1 0 - - -, f 5;
#X obj 592 28 tgl 15 0 empty empty empty 17 7 0 10 -262144 -1 -1 0
1;
#X floatatom 474 27 5 0 1 0 - - -, f 5;
#X text 286 6 CTRLS;
#X msg 830 31 0;
#X obj 831 8 r all_sends_off;
#X obj 831 114 s audioin_sfx2;
#X obj 712 113 s audioin_sfx1;
#X obj 949 114 s audioin_sfx3;
#X obj 1070 117 s audioin_sfx4;
#X obj 1190 117 s audioin_sfx5;
#X obj 592 48 s audioin_mute;
#X obj 474 48 s audioin_pan;
#X text 37 35 MONO FOR NOW;
#X obj 336 49 s audio_in_level;
#X text 339 6 level;
#X text 471 6 pan;
#X text 588 6 MUTE;
#X floatatom 115 52 5 0 3.16227 0 - audio_in_gain -, f 5;
#X obj 115 97 pow 2;
#X obj 114 124 sig~;
#X obj 114 148 lop~ 10;
#X text 7 1 AUDIOIN GAIN 1-10;
#X obj 37 201 *~;
#X obj 47 228 env~;
#X obj 47 252 - 95;
#X obj 47 276 s vuAudioIn;
#X floatatom 169 126 5 0 0 0 - - -, f 5;
#X floatatom 549 169 5 0 0 0 - - -, f 5;
#X obj 1131 220 r audio_in_gain;
#X obj 37 411 *~ 0.99;
#X obj 115 72 * 10;
#X connect 0 0 1 0;
#X connect 1 0 84 0;
#X connect 2 0 3 0;
#X connect 3 0 9 0;
#X connect 4 0 47 0;
#X connect 5 0 7 0;
#X connect 5 1 8 0;
#X connect 6 0 49 2;
#X connect 9 0 10 0;
#X connect 9 1 10 1;
#X connect 10 0 13 0;
#X connect 10 0 89 0;
#X connect 11 0 12 0;
#X connect 11 0 49 3;
#X connect 12 0 10 0;
#X connect 13 0 14 0;
#X connect 15 0 20 0;
#X connect 16 0 17 0;
#X connect 16 0 49 4;
#X connect 17 0 18 0;
#X connect 18 0 19 0;
#X connect 19 0 15 1;
#X connect 23 0 28 0;
#X connect 24 0 25 0;
#X connect 24 0 49 5;
#X connect 25 0 26 0;
#X connect 26 0 27 0;
#X connect 27 0 23 1;
#X connect 29 0 39 0;
#X connect 30 0 31 0;
#X connect 30 0 49 6;
#X connect 31 0 32 0;
#X connect 32 0 33 0;
#X connect 33 0 29 1;
#X connect 34 0 40 0;
#X connect 35 0 36 0;
#X connect 35 0 49 7;
#X connect 36 0 37 0;
#X connect 37 0 38 0;
#X connect 38 0 34 1;
#X connect 41 0 46 0;
#X connect 42 0 43 0;
#X connect 42 0 49 8;
#X connect 43 0 44 0;
#X connect 44 0 45 0;
#X connect 45 0 41 1;
#X connect 49 0 54 0;
#X connect 50 0 49 0;
#X connect 51 0 49 0;
#X connect 56 0 75 0;
#X connect 57 0 68 0;
#X connect 58 0 67 0;
#X connect 59 0 69 0;
#X connect 60 0 70 0;
#X connect 61 0 71 0;
#X connect 62 0 72 0;
#X connect 63 0 73 0;
#X connect 65 0 57 0;
#X connect 65 0 58 0;
#X connect 65 0 59 0;
#X connect 65 0 60 0;
#X connect 65 0 61 0;
#X connect 66 0 65 0;
#X connect 79 0 92 0;
#X connect 80 0 88 0;
#X connect 80 0 81 0;
#X connect 81 0 82 0;
#X connect 82 0 84 1;
#X connect 84 0 85 0;
#X connect 84 0 91 0;
#X connect 85 0 86 0;
#X connect 86 0 87 0;
#X connect 90 0 4 0;
#X connect 90 0 49 1;
#X connect 91 0 5 0;
#X connect 91 0 15 0;
#X connect 91 0 23 0;
#X connect 91 0 41 0;
#X connect 91 0 34 0;
#X connect 91 0 29 0;
#X connect 92 0 80 0;
#X restore 58 6 pd AUDIO_IN/CH0;
#N canvas 36 51 1281 815 RMOD 0;
#X obj 383 657 *~;
#X text 411 657 RINGMOD;
#X obj 401 626 osc~;
#X floatatom 824 329 5 0 15000 0 - - -, f 5;
#X floatatom 717 429 5 0 0 0 - - -, f 5;
#X floatatom 87 431 10 0 0 0 - - -, f 10;
#X text 189 335 LFO FREQ;
#X obj 384 700 cyclone/tanh~;
#X msg 717 447 \$1 20;
#X obj 717 469 line~;
#X obj 400 595 +~;
#X text 223 250 master synq;
#X floatatom 27 402 5 0 0 0 - - -, f 5;
#X text 86 311 1=pot*ldr/16;
#X text 85 365 default = 1;
#X obj 77 295 hradio 15 1 0 5 empty empty empty 0 -8 0 10 -258113 -1
-1 2;
#X text 85 351 4=MANUAL;
#X text 86 326 2=pot*LDR*100;
#X text 86 339 3=pot/LDR/16;
#X floatatom 419 381 5 0 0 0 - - -, f 5;
#X obj 459 306 hradio 15 1 0 4 empty empty empty 0 -8 0 10 -258113
-1 -1 2;
#X text 463 323 1=pot*ldr/16;
#X text 463 338 2=pot*LDR*100;
#X text 463 351 3=pot/LDR/16;
#X obj 717 409 *;
#X text 802 270 manual + amount;
#X text 462 363 default 1;
#N canvas 620 234 533 400 lfo_freq_ctrl 0;
#X obj 49 21 inlet;
#X obj 143 20 inlet;
#X obj 49 347 outlet;
#X floatatom 363 203 5 0 0 0 - - -, f 5;
#X obj 144 251 *;
#X floatatom 151 274 5 0 0 0 - - -, f 5;
#X obj 353 142 change;
#X obj 353 119 r min_sens;
#X obj 240 254 *;
#X obj 335 232 /;
#X floatatom 345 274 5 0 0 0 - - -, f 5;
#X text 354 101 SENS IN;
#X text 208 24 LFO FREQ;
#X floatatom 93 152 5 0 0 0 - - -, f 5;
#X obj 150 229 t b f;
#X obj 258 233 * 100;
#X floatatom 246 276 5 0 0 0 - - -, f 5;
#X obj 49 317 cyclone/switch 4 1, f 55;
#X obj 353 166 / 32;
#X obj 144 112 +;
#X connect 0 0 17 0;
#X connect 1 0 19 0;
#X connect 4 0 5 0;
#X connect 4 0 17 1;
#X connect 6 0 18 0;
#X connect 7 0 6 0;
#X connect 8 0 16 0;
#X connect 8 0 17 2;
#X connect 9 0 10 0;
#X connect 9 0 17 3;
#X connect 14 0 4 0;
#X connect 14 1 4 1;
#X connect 15 0 8 1;
#X connect 17 0 2 0;
#X connect 18 0 3 0;
#X connect 18 0 14 0;
#X connect 18 0 9 1;
#X connect 18 0 15 0;
#X connect 19 0 13 0;
#X connect 19 0 4 0;
#X connect 19 0 8 0;
#X connect 19 0 9 0;
#X connect 19 0 17 4;
#X restore 77 402 pd lfo_freq_ctrl;
#X floatatom 203 379 10 0 0 0 - - -, f 10;
#X text 76 267 lfo freq source;
#N canvas 907 253 442 515 LFO_range_ctrl 0;
#X obj 44 35 inlet;
#X obj 139 37 inlet;
#X floatatom 161 91 5 0 100 0 - - -, f 5;
#X text 101 329 LFOrange;
#X obj 92 218 *;
#X text 123 67 lfo range;
#X obj 139 148 + 0;
#X obj 272 229 * 100;
#X obj 140 264 /;
#X floatatom 282 200 5 0 0 0 - - -, f 5;
#X obj 272 139 change;
#X obj 272 116 r min_sens;
#X text 273 98 SENS IN;
#X obj 44 422 outlet;
#X obj 44 359 cyclone/switch 3 1, f 21;
#X obj 272 163 / 32;
#X connect 0 0 14 0;
#X connect 1 0 6 0;
#X connect 1 0 2 0;
#X connect 4 0 14 1;
#X connect 6 0 4 0;
#X connect 6 0 8 0;
#X connect 6 0 14 3;
#X connect 7 0 8 1;
#X connect 8 0 14 2;
#X connect 10 0 15 0;
#X connect 11 0 10 0;
#X connect 14 0 13 0;
#X connect 15 0 9 0;
#X connect 15 0 7 0;
#X connect 15 0 4 1;
#X restore 459 419 pd LFO_range_ctrl;
#X floatatom 733 316 5 0 0 0 - - -, f 5;
#X obj 717 268 change;
#X obj 717 245 r min_sens;
#X text 718 227 SENS IN;
#X floatatom 469 446 10 0 0 0 - - -, f 10;
#X obj 794 361 t b f;
#X text 51 513 LFO;
#X obj 1152 94 bng 15 250 50 0 empty empty empty 17 7 0 10 -262144
-1 -1;
#X text 1104 44 SHAPE lfo;
#X floatatom 60 112 10 0 0 0 - - -, f 10;
#X text 898 87 master bangs;
#X obj 963 105 r ms_bang;
#X obj 963 131 bng 15 250 50 0 empty empty empty 17 7 0 10 -262144
-1 -1;
#X obj 855 163 bng 15 250 50 0 empty empty empty 17 7 0 10 -262144
-1 -1;
#X text 858 43 LFO snq mstr clk;
#X floatatom 376 115 5 0 0 0 - - -, f 5;
#X obj 179 10 outlet;
#X obj 855 84 != 0;
#X obj 997 88 tgl 15 0 empty empty empty 17 7 0 10 -262144 -1 -1 1
1;
#X obj 855 64 oneARDdigSWITCH 1;
#X obj 1049 44 change;
#X obj 1049 63 sel 1;
#X text 683 86 default = 1;
#X obj 77 509 1_lfo, f 55;
#X floatatom 976 370 5 0 0 0 - - -, f 5;
#X msg 976 428 range \$1 \$2;
#X obj 967 632 cyclone/scope~ 130 130 256 3 128 0 10000 0 0 0 0 102
255 51 135 135 135 0;
#X obj 855 127 cyclone/gate;
#X msg 1000 522 range 0 100;
#X msg 977 462 range 0 1;
#X msg 990 490 range 0 10;
#X obj 976 403 pack f f;
#X floatatom 1037 369 5 0 0 0 - - -, f 5;
#X msg 1013 547 range 0 1000;
#X floatatom 202 123 5 0 0 0 - - -, f 5;
#X obj 48 8 r FX3_CTRL_LIST;
#X obj 48 26 unpack f f f f f f f, f 135;
#X text 247 12 3 ANALOG 4 DIGITAL;
#X floatatom 675 106 5 0 0 0 - - -, f 5;
#X obj 676 53 oneARDdigBUTTON 4 1, f 10;
#X obj 680 123 s FX3_PAR_2D;
#X obj 48 135 s FX3_PAR_1A;
#X obj 182 140 s FX3_PAR_2A;
#X obj 287 138 s FX3_PAR_3A;
#X obj 519 135 s FX3_PAR_1D;
#X obj 77 239 r FX3_PAR_2D;
#X floatatom 39 292 5 0 0 0 - - -, f 5;
#X obj 519 57 oneARDdigBUTTON 3 1, f 10;
#X floatatom 556 116 5 0 0 0 - - -, f 5;
#X obj 459 253 r FX3_PAR_1D;
#X obj 880 156 s FX3_PAR_3D;
#X obj 204 274 r FX3_PAR_3D;
#X obj 1049 91 s FX3_PAR_4D;
#X text 343 235 SHAPE lfo;
#X obj 384 744 *~;
#X obj 497 736 *~;
#X floatatom 622 632 5 0 1 0 - fx3_return -, f 5;
#X obj 622 663 pow 2;
#X obj 622 687 sig~;
#X obj 622 711 lop~ 10;
#X obj 384 768 throw~ masterL;
#X obj 497 768 throw~ masterR;
#X obj 698 734 outlet;
#X obj 178 607 catch~ fx3send;
#X obj 286 57 *;
#X obj 794 248 r FX3_PAR_3A;
#X obj 717 292 / 32;
#X obj 186 356 r FX3_PAR_2A;
#X floatatom 586 284 10 0 0 0 - - -, f 10;
#X obj 349 290 bng 15 250 50 0 empty empty empty 17 7 0 10 -262144
-1 -1;
#X obj 214 301 bng 15 250 50 0 empty empty empty 17 7 0 10 -262144
-1 -1;
#X obj 331 258 r FX3_PAR_4D;
#X text 674 142 lfo freq source;
#X text 489 152 source for lfo range;
#X text 187 158 LFO FREQ;
#X text 318 158 LFOrange;
#X obj 193 704 cyclone/scope~ 149 42 256 3 128 -1 1 0 0 0 0 102 255
51 135 135 135 0;
#X text 12 581 audio in;
#X obj 38 713 iemlib/unsig~;
#X obj 16 598 adc~, f 8;
#X obj 16 643 hip~ 10;
#X floatatom 90 589 5 0 3.16227 0 - ex_audio_for_fx_lev -, f 5;
#X obj 90 611 pow 2;
#X obj 89 634 sig~;
#X obj 90 660 lop~ 10;
#X obj 37 682 *~;
#X floatatom 124 633 5 0 0 0 - - -, f 5;
#X text 86 574 check properties;
#X floatatom 38 735 15 0 0 0 - - -, f 15;
#X msg 1023 592 range 0 10000;
#X msg 237 650 range -1 1;
#X text 425 229 source of lfo range;
#X obj 287 80 1_ARD_ANAL_REMAP 4 0.4 1 0, f 17;
#X obj 575 254 r FX3_PAR_1A;
#X text 588 214 LFOrange;
#X obj 49 50 *;
#X obj 48 73 1_ARD_ANAL_REMAP 4 0.3 5000, f 15;
#X obj 181 49 *;
#X text 229 228 LFO FREQ;
#X obj 182 77 1_ARD_ANAL_REMAP 5 0.2 100 0, f 13;
#X text 407 167 RM FREQ MANUAL;
#X text 52 154 LFOrange;
#X floatatom 439 117 5 0 0 0 - - -, f 5;
#X obj 413 138 s FX3_PAR_4A;
#X text 835 523 RM FREQ MANUAL;
#X obj 784 534 +~;
#X obj 945 244 r FX3_PAR_4A;
#X floatatom 976 273 10 0 0 0 - - -, f 10;
#X obj 945 301 sig~;
#X obj 413 80 1_ARD_ANAL_REMAP 4 0.4 2000, f 17;
#X connect 0 0 7 0;
#X connect 2 0 0 1;
#X connect 4 0 8 0;
#X connect 7 0 85 0;
#X connect 7 0 86 0;
#X connect 8 0 9 0;
#X connect 9 0 136 0;
#X connect 10 0 2 0;
#X connect 15 0 12 0;
#X connect 15 0 27 0;
#X connect 20 0 19 0;
#X connect 20 0 30 0;
#X connect 24 0 4 0;
#X connect 27 0 5 0;
#X connect 27 0 54 0;
#X connect 30 0 35 0;
#X connect 30 0 54 3;
#X connect 32 0 97 0;
#X connect 33 0 32 0;
#X connect 36 0 24 0;
#X connect 36 1 24 1;
#X connect 42 0 43 0;
#X connect 42 0 58 1;
#X connect 48 0 49 0;
#X connect 48 0 58 0;
#X connect 50 0 48 0;
#X connect 51 0 52 0;
#X connect 52 0 38 0;
#X connect 52 0 83 0;
#X connect 54 0 57 0;
#X connect 54 0 10 0;
#X connect 55 0 62 0;
#X connect 56 0 57 0;
#X connect 58 0 44 0;
#X connect 58 0 81 0;
#X connect 59 0 57 0;
#X connect 60 0 57 0;
#X connect 61 0 57 0;
#X connect 62 0 56 0;
#X connect 63 0 62 1;
#X connect 64 0 57 0;
#X connect 66 0 47 0;
#X connect 66 0 67 0;
#X connect 67 0 126 0;
#X connect 67 0 126 1;
#X connect 67 1 128 0;
#X connect 67 1 128 1;
#X connect 67 2 95 0;
#X connect 67 2 95 1;
#X connect 67 2 140 0;
#X connect 67 3 78 0;
#X connect 67 4 70 0;
#X connect 67 5 50 0;
#X connect 67 6 51 0;
#X connect 70 1 69 0;
#X connect 70 1 71 0;
#X connect 76 0 77 0;
#X connect 76 0 15 0;
#X connect 78 1 79 0;
#X connect 78 1 75 0;
#X connect 80 0 20 0;
#X connect 82 0 54 1;
#X connect 82 0 101 0;
#X connect 85 0 91 0;
#X connect 86 0 92 0;
#X connect 87 0 88 0;
#X connect 88 0 89 0;
#X connect 88 0 93 0;
#X connect 89 0 90 0;
#X connect 90 0 86 1;
#X connect 90 0 85 1;
#X connect 94 0 0 0;
#X connect 94 0 107 0;
#X connect 95 0 123 0;
#X connect 96 0 3 0;
#X connect 96 0 36 0;
#X connect 97 0 31 0;
#X connect 97 0 24 0;
#X connect 98 0 27 1;
#X connect 98 0 28 0;
#X connect 102 0 54 2;
#X connect 102 0 100 0;
#X connect 109 0 119 0;
#X connect 110 0 111 0;
#X connect 111 0 116 0;
#X connect 112 0 113 0;
#X connect 113 0 117 0;
#X connect 113 0 114 0;
#X connect 114 0 115 0;
#X connect 115 0 116 1;
#X connect 116 0 109 0;
#X connect 116 0 107 0;
#X connect 116 0 0 0;
#X connect 120 0 57 0;
#X connect 121 0 107 0;
#X connect 123 0 46 0;
#X connect 123 0 74 0;
#X connect 124 0 30 1;
#X connect 124 0 99 0;
#X connect 126 0 127 0;
#X connect 127 0 40 0;
#X connect 127 0 72 0;
#X connect 128 0 130 0;
#X connect 130 0 65 0;
#X connect 130 0 73 0;
#X connect 136 0 10 1;
#X connect 137 0 138 0;
#X connect 137 0 139 0;
#X connect 139 0 136 1;
#X connect 140 0 133 0;
#X connect 140 0 134 0;
#X restore 461 125 pd RMOD;
#N canvas 6 51 1348 684 VCF 0;
#X text 534 101 NAJJASNIEJSZY;
#X obj 552 163 change;
#X obj 361 374 vcf~ 2, f 72;
#X obj 552 119 r min_sens;
#X floatatom 579 186 5 0 0 0 - - -, f 5;
#X obj 534 218 *;
#X floatatom 540 244 5 0 0 0 - - -, f 5;
#X floatatom 295 292 5 0 0 0 - - -, f 5;
#X obj 446 215 /;
#X floatatom 454 242 5 0 0 0 - - -, f 5;
#X text 560 79 LDr=>LFO;
#X obj 359 269 cyclone/switch 3 1, f 38;
#X text 257 141 3=MANUAL;
#X obj 862 301 r LCF_Q;
#X text 329 344 LFO;
#X obj 359 344 1_lfo, f 58;
#X obj 493 307 r LCF_LFO_SYNC;
#X obj 627 303 r LCF_LFO_SHAPE;
#X obj 762 302 r LCF_LFO_R;
#X floatatom 943 335 5 0 0 0 - - -, f 5;
#X msg 943 379 range \$1 \$2;
#X obj 943 513 cyclone/scope~ 130 130 256 3 128 0 1000 0 0 0 0 102
255 51 135 135 135 0;
#X msg 969 443 range 0 100;
#X msg 950 400 range 0 1;
#X msg 959 421 range 0 10;
#X obj 943 354 pack f f;
#X floatatom 996 334 5 0 0 0 - - -, f 5;
#X msg 982 463 range 0 1000;
#X obj 807 545 line~ \$1 20;
#X obj 472 558 cyclone/tanh~;
#X obj 473 596 *~;
#X obj 588 599 *~;
#X floatatom 807 506 5 0 1 0 - fx2_return -, f 5;
#X obj 807 524 pow 2;
#X obj 473 626 throw~ masterL;
#X obj 589 625 throw~ masterR;
#X text 806 490 check properties;
#X obj 1188 169 r minSENS;
#X text 1203 190 NAJJASNIEJSZY;
#X text 910 332 Q;
#X floatatom 877 331 4 0 0 0 - - -, f 4;
#X text 1042 134 lfo rate/freq;
#X obj 1163 225 change;
#X obj 1163 274 t f b;
#X obj 1194 297 bng 15 250 50 0 empty empty empty 17 7 0 10 -262144
-1 -1;
#X obj 1163 300 int;
#X obj 1163 249 - 1;
#X floatatom 1085 151 5 0 0 0 - - -, f 5;
#X obj 1085 408 +;
#X text 1163 135 SENS IN 1/0;
#X obj 1163 198 gate;
#X obj 1163 155 tgl 15 0 empty empty empty 17 7 0 10 -262144 -1 -1
1 1;
#X obj 1103 375 t b f;
#X obj 1103 325 sel 0;
#X msg 1103 349 0;
#X obj 1088 53 loadbang;
#X obj 1087 78 t b b b b b;
#X msg 1167 108 1;
#X msg 1084 107 1;
#X text 37 348 audio in;
#X obj 63 480 iemlib/unsig~;
#X obj 41 365 adc~, f 8;
#X obj 41 410 hip~ 10;
#X floatatom 115 356 5 0 3.16227 0 - ex_audio_for_fx_lev -, f 5;
#X obj 115 378 pow 2;
#X obj 114 401 sig~;
#X obj 115 427 lop~ 10;
#X obj 62 449 *~;
#X floatatom 156 405 5 0 0 0 - - -, f 5;
#X text 111 341 check properties;
#X obj 258 85 r LCF_F_SRC;
#X text 279 290 F;
#X floatatom 63 502 15 0 0 0 - - -, f 15;
#X floatatom 216 112 5 0 0 0 - - -, f 5;
#X text 259 110 1=MAN*ldr/32;
#X text 259 125 2=pot/LDR/32;
#X obj 622 216 r LCF_F;
#X obj 446 109 r LCF_LFO_F;
#X floatatom 258 185 5 0 0 0 - - -, f 5;
#X text 322 159 default = 1;
#X obj 258 159 hradio 15 1 0 4 empty empty empty 0 -8 0 10 -258113
-1 -1 3;
#X obj 1163 328 / 32;
#X floatatom 1085 431 5 0 0 0 - - -, f 5;
#X text 652 123 SENS IN 1/0;
#X obj 633 121 tgl 15 0 empty empty empty 17 7 0 10 -262144 -1 -1 1
1;
#X obj 633 79 loadbang;
#X msg 633 100 1;
#X obj 552 140 spigot, f 12;
#X obj 552 185 int;
#X obj 25 532 scope~ 235 67 256 3 128 -1 1 0 0 0 0 102 255 51 135 135
135 0;
#X obj 23 306 catch~ fx2send;
#X floatatom 478 131 5 0 0 0 - - -, f 5;
#X obj 491 488 sig~;
#X obj 642 494 sig~;
#X msg 517 440 1 0;
#X msg 559 441 0 1;
#X obj 490 511 lop~ 80;
#X obj 517 465 unpack f f;
#X obj 643 515 lop~ 80;
#X obj 473 536 *~;
#X obj 624 536 *~;
#X obj 517 417 sel 0 1;
#X obj 529 489 tgl 15 0 empty empty empty 17 7 0 10 -262144 -1 -1 1
1;
#X obj 677 494 tgl 15 0 empty empty empty 17 7 0 10 -262144 -1 -1 0
1;
#X obj 468 321 bng 15 250 50 0 empty empty empty 17 7 0 10 -262144
-1 -1;
#X floatatom 777 325 5 0 0 0 - - -, f 5;
#X obj 517 396 tgl 15 0 empty empty empty 17 7 0 10 -262144 -1 -1 0
1;
#X obj 540 398 r LCF_BP_LP_MODE;
#X obj 61 238 noise~;
#X obj 62 259 *~ 0.2;
#N canvas 104 348 1257 313 LCF_CTRL 0;
#X floatatom 79 236 4 0 0 0 - - -, f 4;
#X floatatom 195 278 5 0 0 0 - - -, f 5;
#X text 153 233 (LFO)FREQ;
#X obj 146 169 *;
#X obj 250 168 *;
#X text 173 170 exp;
#X floatatom 319 256 5 0 0 0 - - -, f 5;
#X text 399 177 LFO range;
#X obj 32 253 line;
#X msg 32 233 \$1 20;
#X obj 33 175 *;
#X obj 965 34 outlet;
#X obj 965 7 r FX2_CTRL_LIST;
#X obj 33 145 unpack f f f f f f, f 111;
#X obj 846 208 bng 15 250 50 0 empty empty empty 17 7 0 10 -262144
-1 -1;
#X text 810 170 SHAPE lfo;
#X obj 805 187 change;
#X obj 805 206 sel 1;
#X obj 486 197 oneARDdigBUTTON 3 1, f 11;
#X obj 32 274 s LCF_Q;
#X obj 805 231 s LCF_LFO_SHAPE;
#X text 590 170 LFO snq mstr clk;
#X obj 607 254 s LCF_LFO_SYNC;
#X text 713 235 master bangs;
#X obj 693 209 r ms_bang;
#X obj 693 235 bng 15 250 50 0 empty empty empty 17 7 0 10 -262144
-1 -1;
#X obj 585 255 bng 15 250 50 0 empty empty empty 17 7 0 10 -262144
-1 -1;
#X obj 585 210 != 0;
#X obj 623 211 tgl 15 0 empty empty empty 17 7 0 10 -262144 -1 -1 1
1;
#X obj 585 190 oneARDdigSWITCH 1;
#X obj 585 231 cyclone/gate;
#X obj 257 254 s LCF_F;
#X obj 146 253 s LCF_LFO_F;
#X text 267 228 F MAN;
#X floatatom 531 259 5 0 0 0 - - -, f 5;
#X obj 488 237 s LCF_F_SRC;
#X obj 371 176 *;
#X obj 370 270 s LCF_LFO_R;
#X floatatom 380 251 5 0 0 0 - - -, f 5;
#X obj 32 198 1_ARD_ANAL_REMAP 5 0.15 15 0, f 15;
#X obj 146 197 1_ARD_ANAL_REMAP 5 0.15 40 0, f 15;
#X obj 257 197 1_ARD_ANAL_REMAP 5 0.15 5000 0, f 15;
#X obj 723 52 tgl 15 0 empty empty empty 17 7 0 10 -262144 -1 -1 0
1;
#X obj 689 27 r SHIFT_SND_CTRL;
#X text 483 179 F CTRL ource;
#X obj 796 89 gate 2;
#X obj 690 51 + 1;
#X obj 989 170 unpack f f f f f f, f 21;
#X text 1005 206 LFO snq mstr clk;
#X obj 1000 246 != 0;
#X obj 1038 247 tgl 15 0 empty empty empty 17 7 0 10 -262144 -1 -1
0 1;
#X obj 1000 226 oneARDdigSWITCH 1;
#X obj 999 268 s LCF_BP_LP_MODE;
#X obj 370 197 1_ARD_ANAL_REMAP 5 0.15 5000 30, f 15;
#X connect 3 0 40 0;
#X connect 4 0 41 0;
#X connect 8 0 19 0;
#X connect 9 0 8 0;
#X connect 10 0 39 0;
#X connect 12 0 11 0;
#X connect 12 0 45 1;
#X connect 13 0 10 0;
#X connect 13 0 10 1;
#X connect 13 1 4 0;
#X connect 13 1 4 1;
#X connect 13 1 3 0;
#X connect 13 1 3 1;
#X connect 13 2 36 0;
#X connect 13 2 36 1;
#X connect 13 3 18 0;
#X connect 13 4 29 0;
#X connect 13 5 16 0;
#X connect 16 0 17 0;
#X connect 17 0 14 0;
#X connect 17 0 20 0;
#X connect 18 1 34 0;
#X connect 18 1 35 0;
#X connect 24 0 25 0;
#X connect 24 0 30 1;
#X connect 27 0 28 0;
#X connect 27 0 30 0;
#X connect 29 0 27 0;
#X connect 30 0 26 0;
#X connect 30 0 22 0;
#X connect 36 0 53 0;
#X connect 39 0 9 0;
#X connect 39 0 0 0;
#X connect 40 0 1 0;
#X connect 40 0 32 0;
#X connect 41 0 6 0;
#X connect 41 0 31 0;
#X connect 43 0 42 0;
#X connect 43 0 46 0;
#X connect 45 0 13 0;
#X connect 45 1 47 0;
#X connect 46 0 45 0;
#X connect 47 4 51 0;
#X connect 49 0 50 0;
#X connect 49 0 52 0;
#X connect 51 0 49 0;
#X connect 53 0 38 0;
#X connect 53 0 37 0;
#X restore 391 28 pd LCF_CTRL;
#X obj 884 55 value LDRS_AMOUNT;
#X obj 884 34 loadbang;
#X floatatom 885 76 5 0 0 0 - - -, f 5;
#X obj 955 37 bng 15 250 50 0 empty empty empty 17 7 0 10 -262144 -1
-1;
#X obj 69 69 tgl 15 0 empty empty empty 17 7 0 10 -262144 -1 -1 0 1
;
#X obj 35 44 r SHIFT_SND_CTRL;
#X obj 36 68 + 1;
#X text 37 25 FOR EXTRA CONTROL;
#X msg 986 488 range 0 10000;
#X msg 611 445 1 1;
#X connect 1 0 88 0;
#X connect 2 0 99 0;
#X connect 2 1 100 0;
#X connect 3 0 87 0;
#X connect 5 0 6 0;
#X connect 5 0 11 2;
#X connect 8 0 9 0;
#X connect 8 0 11 1;
#X connect 11 0 7 0;
#X connect 11 0 15 0;
#X connect 13 0 2 2;
#X connect 13 0 40 0;
#X connect 15 0 21 0;
#X connect 15 0 2 1;
#X connect 16 0 15 1;
#X connect 16 0 104 0;
#X connect 17 0 15 2;
#X connect 18 0 15 3;
#X connect 18 0 105 0;
#X connect 19 0 25 0;
#X connect 20 0 21 0;
#X connect 22 0 21 0;
#X connect 23 0 21 0;
#X connect 24 0 21 0;
#X connect 25 0 20 0;
#X connect 26 0 25 1;
#X connect 27 0 21 0;
#X connect 28 0 31 1;
#X connect 28 0 30 1;
#X connect 29 0 30 0;
#X connect 29 0 31 0;
#X connect 30 0 34 0;
#X connect 31 0 35 0;
#X connect 32 0 33 0;
#X connect 33 0 28 0;
#X connect 37 0 50 1;
#X connect 42 0 46 0;
#X connect 43 0 45 0;
#X connect 43 1 44 0;
#X connect 45 0 81 0;
#X connect 46 0 43 0;
#X connect 47 0 48 0;
#X connect 48 0 82 0;
#X connect 50 0 42 0;
#X connect 51 0 50 0;
#X connect 51 0 53 0;
#X connect 52 0 48 0;
#X connect 52 1 48 1;
#X connect 53 0 54 0;
#X connect 54 0 52 0;
#X connect 55 0 56 0;
#X connect 56 0 58 0;
#X connect 56 1 57 0;
#X connect 57 0 51 0;
#X connect 58 0 47 0;
#X connect 60 0 72 0;
#X connect 61 0 62 0;
#X connect 62 0 67 0;
#X connect 63 0 64 0;
#X connect 64 0 68 0;
#X connect 64 0 65 0;
#X connect 65 0 66 0;
#X connect 66 0 67 1;
#X connect 67 0 60 0;
#X connect 67 0 2 0;
#X connect 67 0 89 0;
#X connect 70 0 73 0;
#X connect 70 0 80 0;
#X connect 76 0 11 3;
#X connect 77 0 5 0;
#X connect 77 0 8 0;
#X connect 77 0 91 0;
#X connect 80 0 78 0;
#X connect 80 0 11 0;
#X connect 81 0 52 0;
#X connect 84 0 87 1;
#X connect 85 0 86 0;
#X connect 86 0 84 0;
#X connect 87 0 1 0;
#X connect 88 0 8 1;
#X connect 88 0 5 1;
#X connect 88 0 4 0;
#X connect 90 0 2 0;
#X connect 90 0 89 0;
#X connect 92 0 96 0;
#X connect 93 0 98 0;
#X connect 94 0 97 0;
#X connect 95 0 97 0;
#X connect 96 0 99 1;
#X connect 97 0 92 0;
#X connect 97 0 102 0;
#X connect 97 1 93 0;
#X connect 97 1 103 0;
#X connect 98 0 100 1;
#X connect 99 0 29 0;
#X connect 100 0 29 0;
#X connect 101 0 94 0;
#X connect 101 1 95 0;
#X connect 106 0 101 0;
#X connect 107 0 101 0;
#X connect 108 0 109 0;
#X connect 109 0 67 0;
#X connect 111 0 113 0;
#X connect 112 0 111 0;
#X connect 114 0 111 0;
#X connect 116 0 115 0;
#X connect 116 0 117 0;
#X connect 119 0 21 0;
#X connect 120 0 97 0;
#X restore 413 125 pd VCF;
#N canvas 8 113 1405 755 VCD 0;
#X floatatom 645 110 5 0 250 0 - - -, f 5;
#X text 924 519 LFO;
#X obj 463 630 line~ \$1 20;
#X floatatom 682 350 5 0 0 0 - - -, f 5;
#X obj 298 543 +~, f 83;
#X text 74 621 write to delay buffer;
#X text 565 42 lforange;
#X obj 1152 84 bng 15 250 50 0 empty empty empty 17 7 0 10 -262144
-1 -1;
#X text 1074 44 SHAPE lfo;
#X text 153 88 del fbak;
#X floatatom 170 686 15 0 0 0 - - -, f 15;
#X floatatom 99 101 5 0 0 0 - - -, f 5;
#X text 868 87 master bangs;
#X obj 933 105 r ms_bang;
#X obj 933 131 bng 15 250 50 0 empty empty empty 17 7 0 10 -262144
-1 -1;
#X obj 825 163 bng 15 250 50 0 empty empty empty 17 7 0 10 -262144
-1 -1;
#X text 828 43 LFO snq mstr clk;
#X obj 672 319 f;
#X floatatom 364 100 5 0 0 0 - - -, f 5;
#X obj 149 10 outlet;
#X obj 825 84 != 0;
#X obj 967 88 tgl 15 0 empty empty empty 17 7 0 10 -262144 -1 -1 1
1;
#X obj 825 64 oneARDdigSWITCH 1;
#X obj 1019 44 change;
#X obj 1019 63 sel 1;
#X obj 298 611 cyclone/tanh~;
#X text 428 117 lfo F 0 40;
#X text 619 89 0-1000;
#X text 405 187 LDR=>DELLENT;
#X obj 407 326 *;
#X floatatom 422 351 5 0 0 0 - - -, f 5;
#X floatatom 201 417 5 0 0 0 - - -, f 5;
#X obj 587 324 /;
#X floatatom 593 351 5 0 0 0 - - -, f 5;
#X text 710 98 default = 1;
#X text 584 185 NAJJASNIEJSZY;
#X obj 587 238 change;
#X obj 587 203 r min_sens;
#X floatatom 648 240 5 0 0 0 - - -, f 5;
#X text 584 173 LDr=>LFO;
#X obj 18 100 s del_len;
#X obj 672 295 r del_len;
#X obj 407 206 r del_len;
#X text 431 498 del slew;
#X obj 299 485 line~;
#X obj 299 417 pack f f, f 58;
#X msg 299 460 \$1 \$2;
#X floatatom 355 467 5 0 0 0 - - -, f 5;
#X floatatom 433 476 5 0 0 0 - - -, f 5;
#X text 246 416 DEl l;
#X obj 355 449 unpack f 0;
#X obj 420 293 t b f;
#X obj 587 292 t b f;
#X text 344 486 del in ms;
#X text 701 322 del len fac;
#X obj 879 517 1_lfo;
#X obj 296 667 *~;
#X obj 442 664 *~;
#X floatatom 463 581 5 0 1 0 - fx1_return -, f 5;
#X obj 463 604 pow 2;
#X obj 296 701 throw~ masterL;
#X obj 443 700 throw~ masterR;
#X obj 18 8 r FX1_CTRL_LIST;
#X obj 18 26 unpack f f f f f f f f, f 135;
#X obj 1019 83 s LCD_LFO_SHAPE;
#X text 20 48 LEN_FACT;
#X obj 146 106 s del_fbk;
#X obj 287 99 s del_slew;
#X obj 757 393 r del_slew;
#X obj 556 109 s del_lfo_r;
#X obj 421 97 s del_lfo_f;
#X obj 879 396 r del_lfo_f;
#X obj 916 482 r del_lfo_r;
#X text 703 49 del source;
#X obj 702 116 s del_lfo_src;
#X obj 159 218 r del_lfo_src;
#X obj 866 158 s del_lfo_synq;
#X obj 891 425 r del_lfo_synq;
#X text 517 584 check properties;
#X obj 74 707 delwrite~ VCD 10000;
#X floatatom 1018 323 5 0 0 0 - - -, f 5;
#X obj 297 575 delread4~ VCD;
#X obj 903 453 r LCD_LFO_SHAPE;
#X msg 1018 381 range \$1 \$2;
#X obj 299 376 cyclone/switch 3 1, f 47;
#X obj 1018 585 cyclone/scope~ 130 130 256 3 128 0 1000 0 0 0 0 102
255 51 135 135 135 0;
#X obj 825 127 cyclone/gate;
#X obj 690 65 oneARDdigBUTTON 3 1, f 10;
#X obj 1219 79 bng 15 250 50 0 empty empty empty 17 7 0 10 -262144
-1 -1;
#X msg 1042 475 range 0 100;
#X msg 1019 416 range 0 1;
#X msg 1032 443 range 0 10;
#X obj 1018 356 pack f f;
#X floatatom 1079 322 5 0 0 0 - - -, f 5;
#X msg 1055 500 range 0 1000;
#N canvas 0 51 785 497 deley_inputs 0;
#X obj 201 203 inlet~;
#X obj 212 416 outlet~;
#X text 404 188 audio in;
#X obj 412 372 iemlib/unsig~;
#X obj 408 211 adc~, f 8;
#X obj 408 246 hip~ 10;
#X floatatom 487 202 5 0 3.16227 0 - ex_audio_for_fx_lev -, f 5;
#X obj 482 224 pow 2;
#X obj 481 247 sig~;
#X obj 433 301 lop~ 10;
#X obj 411 322 *~;
#X floatatom 529 257 5 0 0 0 - - -, f 5;
#X text 464 159 check properties;
#X floatatom 423 157 5 0 0 0 - - -, f 5;
#X obj 423 132 r ex_audio_for_fx_lev;
#X obj 412 415 outlet;
#X obj 33 201 catch~ fx1send;
#X obj 206 302 *~, f 13;
#X obj 287 210 line~;
#X msg 287 184 \$1 20;
#X obj 287 159 r del_fbk;
#X text 285 134 FBK_AMT;
#X obj 30 354 scope~ 130 130 256 3 128 -1 1 0 0 0 0 102 255 51 135
135 135 0;
#X connect 0 0 17 0;
#X connect 3 0 15 0;
#X connect 4 0 5 0;
#X connect 5 0 10 0;
#X connect 6 0 7 0;
#X connect 7 0 11 0;
#X connect 7 0 8 0;
#X connect 8 0 9 0;
#X connect 9 0 10 1;
#X connect 10 0 3 0;
#X connect 10 0 1 0;
#X connect 14 0 13 0;
#X connect 16 0 1 0;
#X connect 16 0 22 0;
#X connect 17 0 1 0;
#X connect 18 0 17 1;
#X connect 19 0 18 0;
#X connect 20 0 19 0;
#X restore 74 647 pd deley_inputs;
#X obj 420 264 / 32;
#X obj 587 266 / 32;
#X obj 447 233 value LDRS_AMOUNT;
#X floatatom 174 282 5 0 0 0 - - -, f 5;
#X text 169 305 1=pot*ldr/16;
#X text 169 320 2=pot/LDR/16;
#X text 168 333 3=MANUAL;
#X obj 159 251 hradio 15 1 0 4 empty empty empty 0 -8 0 10 -258113
-1 -1 1;
#X obj 697 241 value LDRS_AMOUNT;
#X obj 18 63 1_ARD_ANAL_REMAP 4 0.12 1000 0, f 15;
#X obj 152 57 1_ARD_ANAL_REMAP 5 0.2 1 0, f 13;
#X floatatom 223 107 5 0 0 0 - - -, f 5;
#X obj 287 63 1_ARD_ANAL_REMAP 4 0.12 1000 -2, f 17;
#X floatatom 511 97 5 0 0 0 - - -, f 5;
#X obj 421 59 1_ARD_ANAL_REMAP 5 0.2 20 0, f 14;
#X obj 556 55 1_ARD_ANAL_REMAP 5 0.2 500 0, f 14;
#X connect 2 0 57 1;
#X connect 2 0 56 1;
#X connect 4 0 81 0;
#X connect 13 0 14 0;
#X connect 13 0 86 1;
#X connect 17 0 3 0;
#X connect 17 0 84 3;
#X connect 20 0 21 0;
#X connect 20 0 86 0;
#X connect 22 0 20 0;
#X connect 23 0 24 0;
#X connect 24 0 7 0;
#X connect 24 0 64 0;
#X connect 25 0 56 0;
#X connect 25 0 57 0;
#X connect 25 0 95 0;
#X connect 29 0 30 0;
#X connect 29 0 84 1;
#X connect 32 0 33 0;
#X connect 32 0 84 2;
#X connect 36 0 96 0;
#X connect 36 0 97 0;
#X connect 37 0 38 0;
#X connect 37 0 36 0;
#X connect 41 0 17 0;
#X connect 42 0 29 0;
#X connect 42 0 32 0;
#X connect 44 0 4 0;
#X connect 45 0 46 0;
#X connect 45 0 50 0;
#X connect 46 0 44 0;
#X connect 50 0 47 0;
#X connect 50 1 48 0;
#X connect 51 0 29 0;
#X connect 51 1 29 1;
#X connect 52 0 32 0;
#X connect 52 1 32 1;
#X connect 55 0 4 1;
#X connect 55 0 85 0;
#X connect 56 0 60 0;
#X connect 57 0 61 0;
#X connect 58 0 59 0;
#X connect 59 0 2 0;
#X connect 62 0 63 0;
#X connect 62 0 19 0;
#X connect 63 0 105 0;
#X connect 63 1 106 0;
#X connect 63 2 108 0;
#X connect 63 3 110 0;
#X connect 63 4 111 0;
#X connect 63 5 87 0;
#X connect 63 6 22 0;
#X connect 63 7 23 0;
#X connect 68 0 45 1;
#X connect 71 0 55 0;
#X connect 72 0 55 3;
#X connect 75 0 103 0;
#X connect 77 0 55 1;
#X connect 80 0 92 0;
#X connect 81 0 25 0;
#X connect 82 0 55 2;
#X connect 83 0 85 0;
#X connect 84 0 31 0;
#X connect 84 0 45 0;
#X connect 86 0 15 0;
#X connect 86 0 76 0;
#X connect 87 1 74 0;
#X connect 88 0 64 0;
#X connect 89 0 85 0;
#X connect 90 0 85 0;
#X connect 91 0 85 0;
#X connect 92 0 83 0;
#X connect 93 0 92 1;
#X connect 94 0 85 0;
#X connect 95 0 79 0;
#X connect 95 1 10 0;
#X connect 96 0 51 0;
#X connect 97 0 52 0;
#X connect 98 0 96 1;
#X connect 103 0 99 0;
#X connect 103 0 84 0;
#X connect 104 0 97 1;
#X connect 105 0 40 0;
#X connect 105 0 11 0;
#X connect 106 0 66 0;
#X connect 106 0 107 0;
#X connect 108 0 67 0;
#X connect 108 0 18 0;
#X connect 110 0 109 0;
#X connect 110 0 70 0;
#X connect 111 0 69 0;
#X connect 111 0 0 0;
#X restore 364 125 pd VCD;
#N canvas 116 117 1189 728 AM 0;
#X obj 322 379 inlet~;
#X obj 797 357 bng 15 250 50 0 empty empty empty 17 7 0 10 -262144
-1 -1;
#X floatatom 368 58 5 0 0 0 - - -, f 5;
#X text 314 361 audio in;
#X obj 447 396 *~;
#X text 472 397 amp modulation;
#X text 325 323 (LFO)FREQ;
#X text 459 89 (LFO)range;
#X text 1031 528 adds dist;
#X text 492 101 1-500;
#X obj 405 5 r am_list_ctrl;
#X floatatom 282 321 5 0 0 0 - - -, f 5;
#X obj 497 136 *;
#X text 493 117 exp;
#X floatatom 498 245 5 0 0 0 - - -, f 5;
#X text 773 79 (LFO)shape;
#X obj 791 94 change;
#X obj 791 338 sel 1;
#X floatatom 295 429 5 0 0 0 - - -, f 5;
#X text 691 208 master bangs;
#X obj 774 227 r ms_bang;
#X obj 801 256 bng 15 250 50 0 empty empty empty 17 7 0 10 -262144
-1 -1;
#X obj 681 158 tgl 15 0 empty empty empty 17 7 0 10 -262144 -1 -1 0
1;
#X obj 551 96 oneARDdigBUTTON 2 0;
#X obj 687 324 bng 15 250 50 0 empty empty empty 17 7 0 10 -262144
-1 -1;
#X obj 1038 588 outlet;
#X obj 941 629 switch~;
#X floatatom 971 606 2 0 0 0 - - -, f 2;
#X text 988 605 dsp;
#X obj 1020 565 r PATCH6dsp;
#X obj 958 577 tgl 15 0 empty empty empty 17 7 0 10 -262144 -1 -1 0
1;
#X obj 971 545 oneARDinCOMPARE 0.1;
#X obj 476 322 bng 15 250 50 0 empty empty empty 17 7 0 10 -262144
-1 -1;
#X obj 497 176 + 1;
#X obj 697 182 s LFO_SYNC;
#X obj 497 156 * 5;
#X obj 447 586 cyclone/tanh~;
#X obj 323 402 iemlib/unsig~;
#X obj 405 28 unpack f f f f f f f f;
#X obj 805 123 bng 15 250 50 0 empty empty empty 17 7 0 10 -262144
-1 -1;
#X floatatom 290 183 5 0 0 0 - - -, f 5;
#X text 185 163 1=pot*ldr/16;
#X text 185 178 2=pot/LDR/16;
#X text 184 207 default = 1;
#X obj 282 160 hradio 15 1 0 5 empty empty empty 0 -8 0 10 -258113
-1 -1 1;
#X text 147 26 source of lfo ffreq;
#N canvas 0 51 456 362 lfo_freq_source 0;
#X obj 48 36 inlet;
#X obj 160 35 inlet;
#X obj 56 334 outlet;
#X floatatom 229 230 4 0 0 0 - - -, f 4;
#X obj 108 221 t b f;
#X text 226 168 brightest;
#X obj 229 182 r min_sens;
#X text 159 66 lfo rate/freq;
#X obj 161 86 *;
#X text 187 86 exp;
#X floatatom 176 129 5 0 0 0 - - -, f 5;
#X floatatom 265 205 5 0 0 0 - - -, f 5;
#X obj 161 221 /, f 4;
#X floatatom 169 264 5 0 0 0 - - -, f 5;
#X obj 229 204 / 16;
#X obj 161 110 * 2000;
#X obj 108 246 *;
#X floatatom 120 266 5 0 0 0 - - -, f 5;
#X obj 56 290 cyclone/switch 3 1, f 23;
#X connect 0 0 18 0;
#X connect 1 0 8 0;
#X connect 1 0 8 1;
#X connect 4 0 16 0;
#X connect 4 1 16 1;
#X connect 6 0 11 0;
#X connect 6 0 14 0;
#X connect 8 0 15 0;
#X connect 12 0 13 0;
#X connect 12 0 18 2;
#X connect 14 0 4 0;
#X connect 14 0 3 0;
#X connect 14 0 12 1;
#X connect 15 0 10 0;
#X connect 15 0 16 0;
#X connect 15 0 12 0;
#X connect 15 0 18 3;
#X connect 16 0 17 0;
#X connect 16 0 18 1;
#X connect 18 0 2 0;
#X restore 282 249 pd lfo_freq_source;
#X text 184 191 3=MANUAL;
#X obj 447 424 *~;
#X obj 446 445 expr~ if ($v1 > 1 \, 2-$v1 \, $v1);
#X obj 446 465 expr~ if ($v1 < -1 \, -2-$v1 \, $v1);
#X obj 446 485 expr~ if ($v1 > 1 \, 2-$v1 \, $v1);
#X obj 446 505 expr~ if ($v1 < -1 \, -2-$v1 \, $v1);
#X floatatom 909 45 5 0 0 0 - - -, f 5;
#X obj 909 62 * 5;
#X obj 909 82 + 1;
#X msg 909 102 \$1 20;
#X obj 909 379 line~;
#X text 511 428 wave folding;
#X obj 447 561 clip~ -1 1;
#X floatatom 1000 45 5 0 0 0 - - -, f 5;
#X obj 1000 62 * 5;
#X obj 1000 82 + 1;
#X obj 1044 386 * -1;
#X obj 447 535 *~;
#X obj 683 255 cyclone/gate;
#X obj 152 45 oneARDdigBUTTON 3 1;
#X obj 466 355 1_lfo;
#X obj 446 620 *~;
#X obj 551 619 *~;
#X floatatom 809 508 5 0 1 0 - fx4_return -, f 5;
#X obj 810 530 pow 2;
#X obj 810 553 sig~;
#X obj 810 577 lop~ 10;
#X obj 446 654 throw~ masterL;
#X obj 551 653 throw~ masterR;
#X obj 656 652 outlet;
#X connect 0 0 4 0;
#X connect 0 0 37 0;
#X connect 4 0 48 0;
#X connect 10 0 38 0;
#X connect 12 0 35 0;
#X connect 14 0 67 3;
#X connect 16 0 17 0;
#X connect 16 0 39 0;
#X connect 17 0 1 0;
#X connect 17 0 67 2;
#X connect 20 0 21 0;
#X connect 20 0 65 1;
#X connect 22 0 34 0;
#X connect 22 0 65 0;
#X connect 23 1 22 0;
#X connect 27 0 26 0;
#X connect 30 0 26 0;
#X connect 30 0 25 0;
#X connect 31 0 30 0;
#X connect 32 0 67 1;
#X connect 33 0 14 0;
#X connect 35 0 33 0;
#X connect 36 0 68 0;
#X connect 36 0 69 0;
#X connect 37 0 18 0;
#X connect 38 0 2 0;
#X connect 38 0 46 1;
#X connect 38 1 12 0;
#X connect 38 1 12 1;
#X connect 38 2 53 0;
#X connect 38 3 60 0;
#X connect 38 4 66 0;
#X connect 38 5 23 0;
#X connect 38 7 16 0;
#X connect 44 0 40 0;
#X connect 44 0 46 0;
#X connect 46 0 11 0;
#X connect 46 0 67 0;
#X connect 48 0 49 0;
#X connect 49 0 50 0;
#X connect 50 0 51 0;
#X connect 51 0 52 0;
#X connect 52 0 64 0;
#X connect 53 0 54 0;
#X connect 54 0 55 0;
#X connect 55 0 56 0;
#X connect 56 0 57 0;
#X connect 57 0 48 1;
#X connect 59 0 36 0;
#X connect 60 0 61 0;
#X connect 61 0 62 0;
#X connect 62 0 63 0;
#X connect 62 0 59 2;
#X connect 63 0 59 1;
#X connect 64 0 59 0;
#X connect 65 0 24 0;
#X connect 65 0 32 0;
#X connect 66 1 44 0;
#X connect 67 0 4 1;
#X connect 68 0 74 0;
#X connect 69 0 75 0;
#X connect 70 0 71 0;
#X connect 71 0 72 0;
#X connect 71 0 76 0;
#X connect 72 0 73 0;
#X connect 73 0 69 1;
#X connect 73 0 68 1;
#X restore 519 125 pd AM;
#X msg 824 146 range -1 1;
#X obj 770 174 cyclone/scope~ 206 119 256 3 128 -1 1 0 0 0 0 102 255
51 135 135 135 0;
#N canvas 329 153 1026 637 GR/VERB 0;
#X obj 78 76 inlet~;
#X text 76 55 audio in;
#X floatatom 471 68 5 0 0 0 - - -, f 5;
#X floatatom 509 68 5 0 0 0 - - -, f 5;
#X floatatom 546 68 5 0 0 0 - - -, f 5;
#X floatatom 584 68 5 0 0 0 - - -, f 5;
#X obj 341 38 unpack f f f f f f f f;
#X text 696 221 brightest;
#X obj 648 220 change;
#X obj 341 14 r redux_list_ctrl;
#X obj 647 197 r min_sens;
#X obj 648 243 / 16;
#X floatatom 658 264 5 0 0 0 - - -, f 5;
#X text 647 178 from sensor;
#X obj 648 293 * 100;
#X obj 219 461 *~;
#X obj 236 384 r light_gate;
#X obj 271 408 tgl 15 0 empty empty empty 17 7 0 10 -262144 -1 -1 0
1;
#X text 293 429 only output sound if;
#X obj 235 405 sig~;
#X obj 236 428 lop~ 10;
#X floatatom 273 218 0 0 120 0 - - -;
#X text 202 217 level \, dB;
#X floatatom 301 240 0 0 100 0 - - -;
#X text 187 240 liveness \, 0-100;
#X floatatom 328 265 4 0 5000 0 - - -, f 4;
#X floatatom 356 289 0 0 100 0 - - -;
#X text 216 290 HF damping \, percent;
#X text 544 414 The creation arguments (level \, liveness \, crossover
frequency \, HF damping) may also be supplied in four inlets as shown.
The "liveness" (actually the internal feedback percentage) should be
100 for infinite reverb \, 90 for longish \, and 80 for short. The
crossover frequency and HF damping work together: at frequencies above
crossover \, the feedback is diminished by the "damping" as a percentage.
So zero HF damping means equal reverb time at all frequencies \, and
100% damping means almost nothing above the crossover frequency gets
through.;
#X floatatom 324 143 5 0 0 0 - - -, f 5;
#X floatatom 385 141 5 0 0 0 - - -, f 5;
#X obj 437 118 * 100;
#X floatatom 460 145 5 0 0 0 - - -, f 5;
#X obj 361 116 * 5000;
#X obj 361 175 + 100;
#X text 193 266 crossover freq \, Hz.;
#X obj 450 272 *;
#X floatatom 455 298 5 0 0 0 - - -, f 5;
#X obj 301 116 * 50;
#X obj 301 187 + 50;
#X obj 220 490 hip~ 10;
#X obj 228 153 loadbang;
#X msg 228 175 110;
#X obj 219 331 rev3~ 110 90 3000 20;
#X obj 166 55 oneARDdigBUTTON 2 1;
#X obj 221 547 *~;
#X obj 347 548 *~;
#X floatatom 460 392 5 0 1 0 - fx5_return -, f 5;
#X obj 460 459 pow 2;
#X obj 460 483 sig~;
#X obj 460 507 lop~ 10;
#X obj 221 571 throw~ masterL;
#X obj 347 570 throw~ masterR;
#X connect 0 0 43 0;
#X connect 6 1 38 0;
#X connect 6 2 33 0;
#X connect 6 3 31 0;
#X connect 6 4 2 0;
#X connect 6 4 44 0;
#X connect 6 5 3 0;
#X connect 6 6 4 0;
#X connect 6 7 5 0;
#X connect 8 0 11 0;
#X connect 9 0 6 0;
#X connect 10 0 8 0;
#X connect 11 0 12 0;
#X connect 11 0 14 0;
#X connect 11 0 36 1;
#X connect 15 0 40 0;
#X connect 16 0 17 0;
#X connect 16 0 19 0;
#X connect 19 0 20 0;
#X connect 20 0 15 1;
#X connect 21 0 43 2;
#X connect 23 0 43 3;
#X connect 25 0 43 4;
#X connect 26 0 43 5;
#X connect 31 0 32 0;
#X connect 31 0 26 0;
#X connect 33 0 30 0;
#X connect 33 0 34 0;
#X connect 34 0 25 0;
#X connect 36 0 37 0;
#X connect 36 0 39 0;
#X connect 38 0 29 0;
#X connect 38 0 36 0;
#X connect 39 0 23 0;
#X connect 40 0 45 0;
#X connect 40 0 46 0;
#X connect 41 0 42 0;
#X connect 42 0 21 0;
#X connect 43 0 15 0;
#X connect 45 0 51 0;
#X connect 46 0 52 0;
#X connect 47 0 48 0;
#X connect 48 0 49 0;
#X connect 49 0 50 0;
#X connect 50 0 46 1;
#X connect 50 0 45 1;
#X restore 558 125 pd GR/VERB;
#X text 15 44 INIT;
#X connect 1 0 81 0;
#X connect 1 1 2 0;
#X connect 9 0 8 0;
#X connect 12 0 11 0;
#X connect 39 0 38 0;
#X connect 59 0 60 0;
#X connect 59 0 63 0;
#X connect 60 0 44 0;
#X connect 60 0 21 0;
#X connect 60 0 22 0;
#X connect 60 0 23 0;
#X connect 60 0 24 0;
#X connect 60 0 25 0;
#X connect 62 0 5 0;
#X connect 63 0 45 0;
#X connect 63 0 26 0;
#X connect 63 0 28 0;
#X connect 63 0 29 0;
#X connect 63 0 30 0;
#X connect 63 0 31 0;
#X connect 64 0 6 0;
#X connect 65 0 3 0;
#X connect 66 0 4 0;
#X connect 67 0 7 0;
#X connect 75 0 47 0;
#X connect 80 0 81 0;
