#N canvas 523 28 757 750 12;
#X obj 132 387 env~;
#X obj 132 411 - 95;
#X text 190 388 hot output;
#X text 190 408 so we subtract 95db;
#X obj 157 552 vu 15 120 vu1 empty -1 -8 0 10 -66577 -1 1 0;
#X obj 132 551 vsl 20 120 0 1 0 0 level1 empty channel1 0 -9 0 10 -258113
-1 -1 7300 1;
#X obj 216 83 r level1;
#X floatatom 267 109 5 0 0 0 - - -;
#X obj 132 238 *~;
#X obj 216 108 pow 2;
#X obj 132 435 s vu1;
#X obj 609 548 vu 15 120 vuMaster empty -1 -8 0 10 -66577 -1 1 0;
#X obj 584 547 vsl 20 120 0 1 0 0 levelMaster empty Master 0 -9 0 10
-258113 -1 -1 6400 1;
#X obj 583 373 env~;
#X obj 583 397 - 95;
#X obj 583 278 *~;
#X obj 639 196 pow 2;
#X obj 639 171 r levelMaster;
#X obj 583 421 s vuMaster;
#X obj 596 308 dac~;
#X obj 136 516 hsl 60 15 0 1 0 0 pan1 empty pan -30 10 0 15 -34823
-1 -1 2500 1;
#X obj 145 292 panner;
#X text 215 53 from slider;
#X text 213 64 (see properties);
#X floatatom 184 266 5 0 1 0 - pan1 -;
#X text 223 277 (see properties);
#X text 225 264 from pan1;
#X obj 583 101 catch~ masterL;
#X obj 621 277 *~;
#X obj 621 129 catch~ masterR;
#X obj 145 317 throw~ masterL;
#X obj 184 343 throw~ masterR;
#X obj 584 342 +~;
#X obj 216 133 t b f;
#X obj 216 156 *, f 5;
#X obj 166 84 tgl 15 0 empty empty mute 17 7 0 10 -257985 -1 -1 0 1
;
#X obj 166 133 == 0;
#X obj 216 179 sig~;
#X obj 216 203 lop~ 10;
#X obj 88 83 catch~ ch1;
#X obj 130 25 throw~ ch1;
#X floatatom 266 132 5 0 0 0 - - -;
#X text 137 368 for visual feedbek;
#X obj 136 496 hsl 60 15 0 1 0 0 fx1 empty fx1_send -30 10 0 15 -256153
-1 -1 1200 1;
#X obj 26 257 *~;
#X floatatom 43 154 5 0 0 0 - fx1 -;
#X obj 43 178 pow 2;
#X obj 43 204 sig~;
#X obj 43 228 lop~ 10;
#X obj 382 124 rev2~ 100 90 300 20;
#X obj 382 251 *~;
#X obj 426 251 *~;
#X obj 413 545 vsl 20 120 0 1 0 0 fx1_level empty Fx1_return 0 -9 0
10 -258113 -1 -1 5900 1;
#X floatatom 470 149 5 0 1 0 - fx1_level -;
#X obj 469 173 pow 2;
#X obj 469 199 sig~;
#X obj 469 223 lop~ 10;
#X obj 382 285 throw~ masterL;
#X obj 426 311 throw~ masterR;
#X obj 639 219 sig~;
#X obj 639 243 lop~ 20;
#X obj 26 294 throw~ S2verb;
#X obj 383 69 catch~ S2verb;
#X connect 0 0 1 0;
#X connect 1 0 10 0;
#X connect 6 0 7 0;
#X connect 6 0 9 0;
#X connect 8 0 0 0;
#X connect 8 0 21 0;
#X connect 8 0 44 0;
#X connect 9 0 33 0;
#X connect 9 0 41 0;
#X connect 13 0 14 0;
#X connect 14 0 18 0;
#X connect 15 0 19 0;
#X connect 15 0 32 0;
#X connect 16 0 59 0;
#X connect 17 0 16 0;
#X connect 21 0 30 0;
#X connect 21 1 31 0;
#X connect 24 0 21 1;
#X connect 27 0 15 0;
#X connect 28 0 19 1;
#X connect 28 0 32 1;
#X connect 29 0 28 0;
#X connect 32 0 13 0;
#X connect 33 0 34 0;
#X connect 33 1 34 1;
#X connect 34 0 37 0;
#X connect 35 0 36 0;
#X connect 36 0 34 0;
#X connect 37 0 38 0;
#X connect 38 0 8 1;
#X connect 39 0 8 0;
#X connect 44 0 61 0;
#X connect 45 0 46 0;
#X connect 46 0 47 0;
#X connect 47 0 48 0;
#X connect 48 0 44 1;
#X connect 49 0 50 0;
#X connect 49 1 51 0;
#X connect 50 0 57 0;
#X connect 51 0 58 0;
#X connect 53 0 54 0;
#X connect 54 0 55 0;
#X connect 55 0 56 0;
#X connect 56 0 51 1;
#X connect 56 0 50 1;
#X connect 59 0 60 0;
#X connect 60 0 28 1;
#X connect 60 0 15 1;
#X connect 62 0 49 0;
