#N canvas 77 23 1202 755 12;
#X obj 360 271 vu 15 120 vuMaster empty -1 -8 0 10 -66577 -1 1 0;
#X obj 335 270 vsl 20 120 0 1 0 0 levelMaster empty Master 0 -9 0 10
-258113 -1 -1 9500 1;
#X obj 52 38 throw~ ch1;
#X text 376 3 pruba mixera laczaca cechach andiego i andiego;
#X text 378 17 mamy 5 paczy dźwiękowych i 5 efektów;
#X text 378 29 mono i stereo;
#X text 377 43 oczekujemy throw ch1 \, ch2 \, ch3 \, ch4 \, ch5;
#X text 377 57 kazdy czanel ma 5 fx send (na razie tylko post fader)
;
#X text 378 70 bedzie matrixem wszystko sterować chyba najlatwiej?
;
#X obj 132 38 throw~ ch2;
#X obj 209 38 throw~ ch3;
#X obj 289 38 throw~ ch4;
#N canvas 0 23 998 685 channel1 0;
#X floatatom 524 134 5 0 0 0 - - -;
#X obj 365 258 *~;
#X obj 473 133 pow 2;
#X obj 21 484 panner;
#X floatatom 60 408 5 0 1 0 - pan1 -;
#X text 101 408 from pan1;
#X obj 21 509 throw~ masterL;
#X obj 129 511 throw~ masterR;
#X obj 473 158 t b f;
#X obj 473 181 *, f 5;
#X obj 423 109 tgl 15 0 empty ch1_mute mute 17 7 0 10 -254991 -1 -1
0 1;
#X obj 423 158 == 0;
#X obj 473 204 sig~;
#X obj 473 228 lop~ 10;
#X obj 208 117 catch~ ch1;
#X floatatom 523 157 5 0 0 0 - - -;
#X obj 262 484 *~;
#X floatatom 279 381 5 0 0 0 - ch1_fx1_s -;
#X obj 279 405 pow 2;
#X obj 279 431 sig~;
#X obj 279 455 lop~ 10;
#X obj 473 108 r patch1level;
#X obj 60 43 s patch1level;
#X floatatom 61 21 5 0 1 0 - - -;
#X obj 262 511 throw~ fx1send;
#X floatatom 292 21 5 0 1 0 - - -;
#X obj 292 43 s ch1_fx1_s;
#X floatatom 379 21 5 0 1 0 - - -;
#X obj 379 43 s ch1_fx2_s;
#X floatatom 464 21 5 0 1 0 - - -;
#X floatatom 551 22 5 0 1 0 - - -;
#X obj 464 43 s ch1_fx3_s;
#X obj 551 43 s ch1_fx4_s;
#X floatatom 636 22 5 0 1 0 - - -;
#X obj 636 43 s ch1_fx5_s;
#X obj 212 23 tgl 15 0 empty empty empty 17 7 0 10 -262144 -1 -1 0
1;
#X obj 213 43 s ch1_mute;
#X floatatom 160 22 5 0 1 0 - - -;
#X obj 160 43 s pan1;
#X text 580 109 level;
#X text 73 482 panning;
#X obj 371 485 *~;
#X floatatom 389 384 5 0 0 0 - ch1_fx2_s -;
#X obj 389 408 pow 2;
#X obj 389 434 sig~;
#X obj 389 458 lop~ 10;
#X obj 371 511 throw~ fx2send;
#X text 227 140 audio in;
#X obj 480 489 *~;
#X floatatom 497 386 5 0 0 0 - ch1_fx3_s -;
#X obj 497 415 pow 2;
#X obj 497 441 sig~;
#X obj 497 465 lop~ 10;
#X obj 587 486 *~;
#X floatatom 604 383 5 0 0 0 - ch1_fx4_s -;
#X obj 604 407 pow 2;
#X obj 604 433 sig~;
#X obj 604 457 lop~ 10;
#X obj 480 511 throw~ fx3send;
#X obj 587 510 throw~ fx4send;
#X obj 694 486 *~;
#X floatatom 711 383 5 0 0 0 - ch1_fx5_s -;
#X obj 711 407 pow 2;
#X obj 711 433 sig~;
#X obj 711 457 lop~ 10;
#X obj 694 510 throw~ fx5send;
#X text 10 44 CTRLS;
#X obj 781 84 outlet;
#X text 733 107 ctrl signals out for monitoring;
#X obj 781 41 pack f f f f f f f f;
#X connect 1 0 3 0;
#X connect 1 0 16 0;
#X connect 1 0 41 0;
#X connect 1 0 60 0;
#X connect 1 0 53 0;
#X connect 1 0 48 0;
#X connect 2 0 8 0;
#X connect 2 0 15 0;
#X connect 3 0 6 0;
#X connect 3 1 7 0;
#X connect 4 0 3 1;
#X connect 8 0 9 0;
#X connect 8 1 9 1;
#X connect 9 0 12 0;
#X connect 10 0 11 0;
#X connect 11 0 9 0;
#X connect 12 0 13 0;
#X connect 13 0 1 1;
#X connect 14 0 1 0;
#X connect 16 0 24 0;
#X connect 17 0 18 0;
#X connect 18 0 19 0;
#X connect 19 0 20 0;
#X connect 20 0 16 1;
#X connect 21 0 0 0;
#X connect 21 0 2 0;
#X connect 23 0 22 0;
#X connect 23 0 69 0;
#X connect 25 0 26 0;
#X connect 25 0 69 3;
#X connect 27 0 28 0;
#X connect 27 0 69 4;
#X connect 29 0 31 0;
#X connect 29 0 69 5;
#X connect 30 0 32 0;
#X connect 30 0 69 6;
#X connect 33 0 34 0;
#X connect 33 0 69 7;
#X connect 35 0 36 0;
#X connect 35 0 69 2;
#X connect 37 0 38 0;
#X connect 37 0 69 1;
#X connect 41 0 46 0;
#X connect 42 0 43 0;
#X connect 43 0 44 0;
#X connect 44 0 45 0;
#X connect 45 0 41 1;
#X connect 48 0 58 0;
#X connect 49 0 50 0;
#X connect 50 0 51 0;
#X connect 51 0 52 0;
#X connect 52 0 48 1;
#X connect 53 0 59 0;
#X connect 54 0 55 0;
#X connect 55 0 56 0;
#X connect 56 0 57 0;
#X connect 57 0 53 1;
#X connect 60 0 65 0;
#X connect 61 0 62 0;
#X connect 62 0 63 0;
#X connect 63 0 64 0;
#X connect 64 0 60 1;
#X connect 69 0 67 0;
#X restore 40 131 pd channel1;
#X text 379 88 add sends to efx channels? - could be interesting;
#N canvas 0 23 423 455 fx1 0;
#X obj 39 264 *~;
#X obj 93 264 *~;
#X floatatom 107 150 5 0 1 0 - fx1_return -;
#X obj 106 174 pow 2;
#X obj 106 200 sig~;
#X obj 106 224 lop~ 10;
#X obj 39 298 throw~ masterL;
#X obj 93 324 throw~ masterR;
#N canvas 0 23 450 300 delay 0;
#X obj 55 14 inlet~ signal;
#X obj 53 236 outlet~;
#X obj 160 236 outlet~;
#X restore 39 148 pd delay;
#X floatatom 39 41 5 0 1 0 - - -;
#X obj 39 113 catch~ fx1send;
#X obj 39 65 s fx1_return;
#X obj 214 290 outlet;
#X connect 0 0 6 0;
#X connect 1 0 7 0;
#X connect 2 0 3 0;
#X connect 3 0 4 0;
#X connect 3 0 12 0;
#X connect 4 0 5 0;
#X connect 5 0 1 1;
#X connect 5 0 0 1;
#X connect 8 0 0 0;
#X connect 8 1 1 0;
#X connect 9 0 11 0;
#X connect 10 0 8 0;
#X restore 40 242 pd fx1;
#N canvas 164 187 998 685 channel2 0;
#X floatatom 524 134 5 0 0 0 - - -;
#X obj 365 258 *~;
#X obj 473 133 pow 2;
#X obj 21 484 panner;
#X floatatom 60 408 5 0 1 0 - pan2 -;
#X text 101 408 from pan1;
#X obj 21 509 throw~ masterL;
#X obj 129 511 throw~ masterR;
#X obj 473 158 t b f;
#X obj 473 181 *, f 5;
#X obj 423 109 tgl 15 0 empty ch2_mute mute 17 7 0 10 -254991 -1 -1
0 1;
#X obj 423 158 == 0;
#X obj 473 204 sig~;
#X obj 473 228 lop~ 10;
#X floatatom 523 157 5 0 0 0 - - -;
#X obj 262 484 *~;
#X floatatom 279 381 5 0 0 0 - ch2_fx1_s -;
#X obj 279 405 pow 2;
#X obj 279 431 sig~;
#X obj 279 455 lop~ 10;
#X floatatom 61 21 5 0 1 0 - - -;
#X obj 262 511 throw~ fx1send;
#X floatatom 292 21 5 0 1 0 - - -;
#X floatatom 379 21 5 0 1 0 - - -;
#X floatatom 464 21 5 0 1 0 - - -;
#X floatatom 551 22 5 0 1 0 - - -;
#X floatatom 636 22 5 0 1 0 - - -;
#X obj 212 23 tgl 15 0 empty empty empty 17 7 0 10 -262144 -1 -1 0
1;
#X floatatom 160 22 5 0 1 0 - - -;
#X text 580 109 level;
#X text 73 482 panning;
#X obj 371 485 *~;
#X floatatom 389 384 5 0 0 0 - ch2_fx2_s -;
#X obj 389 408 pow 2;
#X obj 389 434 sig~;
#X obj 389 458 lop~ 10;
#X obj 371 511 throw~ fx2send;
#X text 227 140 audio in;
#X obj 480 489 *~;
#X floatatom 497 386 5 0 0 0 - ch2_fx3_s -;
#X obj 497 415 pow 2;
#X obj 497 441 sig~;
#X obj 497 465 lop~ 10;
#X obj 587 486 *~;
#X floatatom 604 383 5 0 0 0 - ch2_fx4_s -;
#X obj 604 407 pow 2;
#X obj 604 433 sig~;
#X obj 604 457 lop~ 10;
#X obj 480 511 throw~ fx3send;
#X obj 587 510 throw~ fx4send;
#X obj 694 486 *~;
#X floatatom 711 383 5 0 0 0 - ch2_fx5_s -;
#X obj 711 407 pow 2;
#X obj 711 433 sig~;
#X obj 711 457 lop~ 10;
#X obj 694 510 throw~ fx5send;
#X text 10 44 CTRLS;
#X obj 781 84 outlet;
#X text 733 107 ctrl signals out for monitoring;
#X obj 781 41 pack f f f f f f f f;
#X obj 60 43 s patch2level;
#X obj 160 43 s pan2;
#X obj 213 43 s ch2_mute;
#X obj 292 43 s ch2_fx1_s;
#X obj 379 43 s ch2_fx2_s;
#X obj 464 43 s ch2_fx3_s;
#X obj 551 43 s ch2_fx4_s;
#X obj 636 43 s ch2_fx5_s;
#X obj 473 108 r patch2level;
#X obj 208 117 catch~ ch2;
#X connect 1 0 3 0;
#X connect 1 0 15 0;
#X connect 1 0 31 0;
#X connect 1 0 50 0;
#X connect 1 0 43 0;
#X connect 1 0 38 0;
#X connect 2 0 8 0;
#X connect 2 0 14 0;
#X connect 3 0 6 0;
#X connect 3 1 7 0;
#X connect 4 0 3 1;
#X connect 8 0 9 0;
#X connect 8 1 9 1;
#X connect 9 0 12 0;
#X connect 10 0 11 0;
#X connect 11 0 9 0;
#X connect 12 0 13 0;
#X connect 13 0 1 1;
#X connect 15 0 21 0;
#X connect 16 0 17 0;
#X connect 17 0 18 0;
#X connect 18 0 19 0;
#X connect 19 0 15 1;
#X connect 20 0 59 0;
#X connect 20 0 60 0;
#X connect 22 0 59 3;
#X connect 22 0 63 0;
#X connect 23 0 59 4;
#X connect 23 0 64 0;
#X connect 24 0 59 5;
#X connect 24 0 65 0;
#X connect 25 0 59 6;
#X connect 25 0 66 0;
#X connect 26 0 59 7;
#X connect 26 0 67 0;
#X connect 27 0 59 2;
#X connect 27 0 62 0;
#X connect 28 0 59 1;
#X connect 28 0 61 0;
#X connect 31 0 36 0;
#X connect 32 0 33 0;
#X connect 33 0 34 0;
#X connect 34 0 35 0;
#X connect 35 0 31 1;
#X connect 38 0 48 0;
#X connect 39 0 40 0;
#X connect 40 0 41 0;
#X connect 41 0 42 0;
#X connect 42 0 38 1;
#X connect 43 0 49 0;
#X connect 44 0 45 0;
#X connect 45 0 46 0;
#X connect 46 0 47 0;
#X connect 47 0 43 1;
#X connect 50 0 55 0;
#X connect 51 0 52 0;
#X connect 52 0 53 0;
#X connect 53 0 54 0;
#X connect 54 0 50 1;
#X connect 59 0 57 0;
#X connect 68 0 0 0;
#X connect 68 0 2 0;
#X connect 69 0 1 0;
#X restore 131 131 pd channel2;
#N canvas 0 23 423 455 fx2 0;
#X obj 39 264 *~;
#X obj 93 264 *~;
#X floatatom 107 150 5 0 1 0 - fx2_return -;
#X obj 106 174 pow 2;
#X obj 106 200 sig~;
#X obj 106 224 lop~ 10;
#X obj 39 298 throw~ masterL;
#X obj 93 324 throw~ masterR;
#X floatatom 39 41 5 0 1 0 - - -;
#X obj 214 290 outlet;
#X obj 39 65 s fx2_return;
#X obj 39 113 catch~ fx2send;
#N canvas 0 23 450 300 fx 0;
#X obj 55 14 inlet~ signal;
#X obj 53 236 outlet~;
#X obj 160 236 outlet~;
#X restore 39 148 pd fx;
#X connect 0 0 6 0;
#X connect 1 0 7 0;
#X connect 2 0 3 0;
#X connect 3 0 4 0;
#X connect 3 0 9 0;
#X connect 4 0 5 0;
#X connect 5 0 1 1;
#X connect 5 0 0 1;
#X connect 8 0 10 0;
#X connect 11 0 12 0;
#X connect 12 0 0 0;
#X connect 12 1 1 0;
#X restore 90 242 pd fx2;
#X floatatom 41 266 5 0 0 0 - - -;
#X floatatom 92 265 5 0 0 0 - - -;
#X floatatom 140 266 5 0 0 0 - - -;
#X floatatom 191 265 5 0 0 0 - - -;
#N canvas 0 23 423 455 fx3 0;
#X obj 39 264 *~;
#X obj 93 264 *~;
#X floatatom 107 150 5 0 1 0 - fx3_return -;
#X obj 106 174 pow 2;
#X obj 106 200 sig~;
#X obj 106 224 lop~ 10;
#X obj 39 298 throw~ masterL;
#X obj 93 324 throw~ masterR;
#N canvas 0 23 450 300 delay 0;
#X obj 55 14 inlet~ signal;
#X obj 53 236 outlet~;
#X obj 160 236 outlet~;
#X restore 39 148 pd delay;
#X floatatom 39 41 5 0 1 0 - - -;
#X obj 214 290 outlet;
#X obj 39 65 s fx3_return;
#X obj 39 113 catch~ fx3send;
#X connect 0 0 6 0;
#X connect 1 0 7 0;
#X connect 2 0 3 0;
#X connect 3 0 4 0;
#X connect 3 0 10 0;
#X connect 4 0 5 0;
#X connect 5 0 1 1;
#X connect 5 0 0 1;
#X connect 8 0 0 0;
#X connect 8 1 1 0;
#X connect 9 0 11 0;
#X connect 12 0 8 0;
#X restore 139 242 pd fx3;
#N canvas 439 23 423 455 fx4 0;
#X obj 39 264 *~;
#X obj 93 264 *~;
#X floatatom 107 150 5 0 1 0 - fx4_return -;
#X obj 106 174 pow 2;
#X obj 106 200 sig~;
#X obj 106 224 lop~ 10;
#X obj 39 298 throw~ masterL;
#X obj 93 324 throw~ masterR;
#X floatatom 39 41 5 0 1 0 - - -;
#X obj 214 290 outlet;
#N canvas 0 23 450 300 fx 0;
#X obj 55 14 inlet~ signal;
#X obj 53 236 outlet~;
#X obj 160 236 outlet~;
#X restore 39 148 pd fx;
#X obj 39 65 s fx4_return;
#X obj 39 113 catch~ fx4send;
#X connect 0 0 6 0;
#X connect 1 0 7 0;
#X connect 2 0 3 0;
#X connect 3 0 4 0;
#X connect 3 0 9 0;
#X connect 4 0 5 0;
#X connect 5 0 1 1;
#X connect 5 0 0 1;
#X connect 8 0 11 0;
#X connect 10 0 0 0;
#X connect 10 1 1 0;
#X connect 12 0 10 0;
#X restore 189 242 pd fx4;
#X floatatom 240 265 5 0 0 0 - - -;
#N canvas 0 23 998 685 channel3 0;
#X floatatom 524 134 5 0 0 0 - - -;
#X obj 365 258 *~;
#X obj 473 133 pow 2;
#X obj 21 484 panner;
#X floatatom 60 408 5 0 1 0 - pan3 -;
#X text 101 408 from pan1;
#X obj 21 509 throw~ masterL;
#X obj 129 511 throw~ masterR;
#X obj 473 158 t b f;
#X obj 473 181 *, f 5;
#X obj 423 109 tgl 15 0 empty ch3_mute mute 17 7 0 10 -254991 -1 -1
0 1;
#X obj 423 158 == 0;
#X obj 473 204 sig~;
#X obj 473 228 lop~ 10;
#X floatatom 523 157 5 0 0 0 - - -;
#X obj 262 484 *~;
#X floatatom 279 381 5 0 0 0 - ch3_fx1_s -;
#X obj 279 405 pow 2;
#X obj 279 431 sig~;
#X obj 279 455 lop~ 10;
#X floatatom 61 21 5 0 1 0 - - -;
#X obj 262 511 throw~ fx1send;
#X floatatom 292 21 5 0 1 0 - - -;
#X floatatom 379 21 5 0 1 0 - - -;
#X floatatom 464 21 5 0 1 0 - - -;
#X floatatom 551 22 5 0 1 0 - - -;
#X floatatom 636 22 5 0 1 0 - - -;
#X obj 212 23 tgl 15 0 empty empty empty 17 7 0 10 -262144 -1 -1 0
1;
#X floatatom 160 22 5 0 1 0 - - -;
#X text 580 109 level;
#X text 73 482 panning;
#X obj 371 485 *~;
#X floatatom 389 384 5 0 0 0 - ch3_fx2_s -;
#X obj 389 408 pow 2;
#X obj 389 434 sig~;
#X obj 389 458 lop~ 10;
#X obj 371 511 throw~ fx2send;
#X text 227 140 audio in;
#X obj 480 489 *~;
#X floatatom 497 386 5 0 0 0 - ch3_fx3_s -;
#X obj 497 415 pow 2;
#X obj 497 441 sig~;
#X obj 497 465 lop~ 10;
#X obj 587 486 *~;
#X floatatom 604 383 5 0 0 0 - ch3_fx4_s -;
#X obj 604 407 pow 2;
#X obj 604 433 sig~;
#X obj 604 457 lop~ 10;
#X obj 480 511 throw~ fx3send;
#X obj 587 510 throw~ fx4send;
#X obj 694 486 *~;
#X floatatom 711 383 5 0 0 0 - ch3_fx5_s -;
#X obj 711 407 pow 2;
#X obj 711 433 sig~;
#X obj 711 457 lop~ 10;
#X obj 694 510 throw~ fx5send;
#X text 10 44 CTRLS;
#X obj 781 84 outlet;
#X text 733 107 ctrl signals out for monitoring;
#X obj 781 41 pack f f f f f f f f;
#X obj 60 43 s patch3level;
#X obj 160 43 s pan3;
#X obj 213 43 s ch3_mute;
#X obj 292 43 s ch3_fx1_s;
#X obj 379 43 s ch3_fx2_s;
#X obj 464 43 s ch3_fx3_s;
#X obj 551 43 s ch3_fx4_s;
#X obj 636 43 s ch3_fx5_s;
#X obj 473 108 r patch3level;
#X obj 208 117 catch~ ch3;
#X connect 1 0 3 0;
#X connect 1 0 15 0;
#X connect 1 0 31 0;
#X connect 1 0 50 0;
#X connect 1 0 43 0;
#X connect 1 0 38 0;
#X connect 2 0 8 0;
#X connect 2 0 14 0;
#X connect 3 0 6 0;
#X connect 3 1 7 0;
#X connect 4 0 3 1;
#X connect 8 0 9 0;
#X connect 8 1 9 1;
#X connect 9 0 12 0;
#X connect 10 0 11 0;
#X connect 11 0 9 0;
#X connect 12 0 13 0;
#X connect 13 0 1 1;
#X connect 15 0 21 0;
#X connect 16 0 17 0;
#X connect 17 0 18 0;
#X connect 18 0 19 0;
#X connect 19 0 15 1;
#X connect 20 0 59 0;
#X connect 20 0 60 0;
#X connect 22 0 59 3;
#X connect 22 0 63 0;
#X connect 23 0 59 4;
#X connect 23 0 64 0;
#X connect 24 0 59 5;
#X connect 24 0 65 0;
#X connect 25 0 59 6;
#X connect 25 0 66 0;
#X connect 26 0 59 7;
#X connect 26 0 67 0;
#X connect 27 0 59 2;
#X connect 27 0 62 0;
#X connect 28 0 59 1;
#X connect 28 0 61 0;
#X connect 31 0 36 0;
#X connect 32 0 33 0;
#X connect 33 0 34 0;
#X connect 34 0 35 0;
#X connect 35 0 31 1;
#X connect 38 0 48 0;
#X connect 39 0 40 0;
#X connect 40 0 41 0;
#X connect 41 0 42 0;
#X connect 42 0 38 1;
#X connect 43 0 49 0;
#X connect 44 0 45 0;
#X connect 45 0 46 0;
#X connect 46 0 47 0;
#X connect 47 0 43 1;
#X connect 50 0 55 0;
#X connect 51 0 52 0;
#X connect 52 0 53 0;
#X connect 53 0 54 0;
#X connect 54 0 50 1;
#X connect 59 0 57 0;
#X connect 68 0 0 0;
#X connect 68 0 2 0;
#X connect 69 0 1 0;
#X restore 220 131 pd channel3;
#N canvas 164 93 998 685 channel4 0;
#X floatatom 524 134 5 0 0 0 - - -;
#X obj 365 258 *~;
#X obj 473 133 pow 2;
#X obj 21 484 panner;
#X floatatom 60 408 5 0 1 0 - pan4 -;
#X text 101 408 from pan1;
#X obj 21 509 throw~ masterL;
#X obj 129 511 throw~ masterR;
#X obj 473 158 t b f;
#X obj 473 181 *, f 5;
#X obj 423 109 tgl 15 0 empty ch4_mute mute 17 7 0 10 -254991 -1 -1
0 1;
#X obj 423 158 == 0;
#X obj 473 204 sig~;
#X obj 473 228 lop~ 10;
#X floatatom 523 157 5 0 0 0 - - -;
#X obj 262 484 *~;
#X floatatom 279 381 5 0 0 0 - ch4_fx1_s -;
#X obj 279 405 pow 2;
#X obj 279 431 sig~;
#X obj 279 455 lop~ 10;
#X floatatom 61 21 5 0 1 0 - - -;
#X obj 262 511 throw~ fx1send;
#X floatatom 292 21 5 0 1 0 - - -;
#X floatatom 379 21 5 0 1 0 - - -;
#X floatatom 464 21 5 0 1 0 - - -;
#X floatatom 551 22 5 0 1 0 - - -;
#X floatatom 636 22 5 0 1 0 - - -;
#X obj 212 23 tgl 15 0 empty empty empty 17 7 0 10 -262144 -1 -1 0
1;
#X floatatom 160 22 5 0 1 0 - - -;
#X text 580 109 level;
#X text 73 482 panning;
#X obj 371 485 *~;
#X floatatom 389 384 5 0 0 0 - ch4_fx2_s -;
#X obj 389 408 pow 2;
#X obj 389 434 sig~;
#X obj 389 458 lop~ 10;
#X obj 371 511 throw~ fx2send;
#X text 227 140 audio in;
#X obj 480 489 *~;
#X floatatom 497 386 5 0 0 0 - ch4_fx3_s -;
#X obj 497 415 pow 2;
#X obj 497 441 sig~;
#X obj 497 465 lop~ 10;
#X obj 587 486 *~;
#X floatatom 604 383 5 0 0 0 - ch4_fx4_s -;
#X obj 604 407 pow 2;
#X obj 604 433 sig~;
#X obj 604 457 lop~ 10;
#X obj 480 511 throw~ fx3send;
#X obj 587 510 throw~ fx4send;
#X obj 694 486 *~;
#X floatatom 711 383 5 0 0 0 - ch4_fx5_s -;
#X obj 711 407 pow 2;
#X obj 711 433 sig~;
#X obj 711 457 lop~ 10;
#X obj 694 510 throw~ fx5send;
#X text 10 44 CTRLS;
#X obj 781 84 outlet;
#X text 733 107 ctrl signals out for monitoring;
#X obj 781 41 pack f f f f f f f f;
#X obj 60 43 s patch4level;
#X obj 160 43 s pan4;
#X obj 213 43 s ch4_mute;
#X obj 292 43 s ch4_fx1_s;
#X obj 379 43 s ch4_fx2_s;
#X obj 464 43 s ch4_fx3_s;
#X obj 551 43 s ch4_fx4_s;
#X obj 636 43 s ch4_fx5_s;
#X obj 473 108 r patch4level;
#X obj 208 117 catch~ ch4;
#X connect 1 0 3 0;
#X connect 1 0 15 0;
#X connect 1 0 31 0;
#X connect 1 0 50 0;
#X connect 1 0 43 0;
#X connect 1 0 38 0;
#X connect 2 0 8 0;
#X connect 2 0 14 0;
#X connect 3 0 6 0;
#X connect 3 1 7 0;
#X connect 4 0 3 1;
#X connect 8 0 9 0;
#X connect 8 1 9 1;
#X connect 9 0 12 0;
#X connect 10 0 11 0;
#X connect 11 0 9 0;
#X connect 12 0 13 0;
#X connect 13 0 1 1;
#X connect 15 0 21 0;
#X connect 16 0 17 0;
#X connect 17 0 18 0;
#X connect 18 0 19 0;
#X connect 19 0 15 1;
#X connect 20 0 59 0;
#X connect 20 0 60 0;
#X connect 22 0 59 3;
#X connect 22 0 63 0;
#X connect 23 0 59 4;
#X connect 23 0 64 0;
#X connect 24 0 59 5;
#X connect 24 0 65 0;
#X connect 25 0 59 6;
#X connect 25 0 66 0;
#X connect 26 0 59 7;
#X connect 26 0 67 0;
#X connect 27 0 59 2;
#X connect 27 0 62 0;
#X connect 28 0 59 1;
#X connect 28 0 61 0;
#X connect 31 0 36 0;
#X connect 32 0 33 0;
#X connect 33 0 34 0;
#X connect 34 0 35 0;
#X connect 35 0 31 1;
#X connect 38 0 48 0;
#X connect 39 0 40 0;
#X connect 40 0 41 0;
#X connect 41 0 42 0;
#X connect 42 0 38 1;
#X connect 43 0 49 0;
#X connect 44 0 45 0;
#X connect 45 0 46 0;
#X connect 46 0 47 0;
#X connect 47 0 43 1;
#X connect 50 0 55 0;
#X connect 51 0 52 0;
#X connect 52 0 53 0;
#X connect 53 0 54 0;
#X connect 54 0 50 1;
#X connect 59 0 57 0;
#X connect 68 0 0 0;
#X connect 68 0 2 0;
#X connect 69 0 1 0;
#X restore 312 131 pd channel4;
#N canvas 164 93 998 685 channel5 0;
#X floatatom 524 134 5 0 0 0 - - -;
#X obj 365 258 *~;
#X obj 473 133 pow 2;
#X obj 21 484 panner;
#X floatatom 60 408 5 0 1 0 - pan5 -;
#X text 101 408 from pan1;
#X obj 21 509 throw~ masterL;
#X obj 129 511 throw~ masterR;
#X obj 473 158 t b f;
#X obj 473 181 *, f 5;
#X obj 423 109 tgl 15 0 empty ch5_mute mute 17 7 0 10 -254991 -1 -1
0 1;
#X obj 423 158 == 0;
#X obj 473 204 sig~;
#X obj 473 228 lop~ 10;
#X floatatom 523 157 5 0 0 0 - - -;
#X obj 262 484 *~;
#X floatatom 279 381 5 0 0 0 - ch5_fx1_s -;
#X obj 279 405 pow 2;
#X obj 279 431 sig~;
#X obj 279 455 lop~ 10;
#X floatatom 61 21 5 0 1 0 - - -;
#X obj 262 511 throw~ fx1send;
#X floatatom 292 21 5 0 1 0 - - -;
#X floatatom 379 21 5 0 1 0 - - -;
#X floatatom 464 21 5 0 1 0 - - -;
#X floatatom 551 22 5 0 1 0 - - -;
#X floatatom 636 22 5 0 1 0 - - -;
#X obj 212 23 tgl 15 0 empty empty empty 17 7 0 10 -262144 -1 -1 0
1;
#X floatatom 160 22 5 0 1 0 - - -;
#X text 580 109 level;
#X text 73 482 panning;
#X obj 371 485 *~;
#X floatatom 389 384 5 0 0 0 - ch5_fx2_s -;
#X obj 389 408 pow 2;
#X obj 389 434 sig~;
#X obj 389 458 lop~ 10;
#X obj 371 511 throw~ fx2send;
#X text 227 140 audio in;
#X obj 480 489 *~;
#X floatatom 497 386 5 0 0 0 - ch5_fx3_s -;
#X obj 497 415 pow 2;
#X obj 497 441 sig~;
#X obj 497 465 lop~ 10;
#X obj 587 486 *~;
#X floatatom 604 383 5 0 0 0 - ch5_fx4_s -;
#X obj 604 407 pow 2;
#X obj 604 433 sig~;
#X obj 604 457 lop~ 10;
#X obj 480 511 throw~ fx3send;
#X obj 587 510 throw~ fx4send;
#X obj 694 486 *~;
#X floatatom 711 383 5 0 0 0 - ch5_fx5_s -;
#X obj 711 407 pow 2;
#X obj 711 433 sig~;
#X obj 711 457 lop~ 10;
#X obj 694 510 throw~ fx5send;
#X text 10 44 CTRLS;
#X obj 781 84 outlet;
#X text 733 107 ctrl signals out for monitoring;
#X obj 781 41 pack f f f f f f f f;
#X obj 60 43 s patch5level;
#X obj 160 43 s pan5;
#X obj 213 43 s ch5_mute;
#X obj 292 43 s ch5_fx1_s;
#X obj 379 43 s ch5_fx2_s;
#X obj 464 43 s ch5_fx3_s;
#X obj 551 43 s ch5_fx4_s;
#X obj 636 43 s ch5_fx5_s;
#X obj 473 108 r patch5level;
#X obj 208 117 catch~ ch5;
#X connect 1 0 3 0;
#X connect 1 0 15 0;
#X connect 1 0 31 0;
#X connect 1 0 50 0;
#X connect 1 0 43 0;
#X connect 1 0 38 0;
#X connect 2 0 8 0;
#X connect 2 0 14 0;
#X connect 3 0 6 0;
#X connect 3 1 7 0;
#X connect 4 0 3 1;
#X connect 8 0 9 0;
#X connect 8 1 9 1;
#X connect 9 0 12 0;
#X connect 10 0 11 0;
#X connect 11 0 9 0;
#X connect 12 0 13 0;
#X connect 13 0 1 1;
#X connect 15 0 21 0;
#X connect 16 0 17 0;
#X connect 17 0 18 0;
#X connect 18 0 19 0;
#X connect 19 0 15 1;
#X connect 20 0 59 0;
#X connect 20 0 60 0;
#X connect 22 0 59 3;
#X connect 22 0 63 0;
#X connect 23 0 59 4;
#X connect 23 0 64 0;
#X connect 24 0 59 5;
#X connect 24 0 65 0;
#X connect 25 0 59 6;
#X connect 25 0 66 0;
#X connect 26 0 59 7;
#X connect 26 0 67 0;
#X connect 27 0 59 2;
#X connect 27 0 62 0;
#X connect 28 0 59 1;
#X connect 28 0 61 0;
#X connect 31 0 36 0;
#X connect 32 0 33 0;
#X connect 33 0 34 0;
#X connect 34 0 35 0;
#X connect 35 0 31 1;
#X connect 38 0 48 0;
#X connect 39 0 40 0;
#X connect 40 0 41 0;
#X connect 41 0 42 0;
#X connect 42 0 38 1;
#X connect 43 0 49 0;
#X connect 44 0 45 0;
#X connect 45 0 46 0;
#X connect 46 0 47 0;
#X connect 47 0 43 1;
#X connect 50 0 55 0;
#X connect 51 0 52 0;
#X connect 52 0 53 0;
#X connect 53 0 54 0;
#X connect 54 0 50 1;
#X connect 59 0 57 0;
#X connect 68 0 0 0;
#X connect 68 0 2 0;
#X connect 69 0 1 0;
#X restore 399 131 pd channel5;
#N canvas 439 23 423 455 fx5 0;
#X obj 39 264 *~;
#X obj 93 264 *~;
#X floatatom 107 150 5 0 1 0 - fx5_return -;
#X obj 106 174 pow 2;
#X obj 106 200 sig~;
#X obj 106 224 lop~ 10;
#X obj 39 298 throw~ masterL;
#X obj 93 324 throw~ masterR;
#X floatatom 39 41 5 0 1 0 - - -;
#X obj 214 290 outlet;
#N canvas 0 23 450 300 fx 0;
#X obj 55 14 inlet~ signal;
#X obj 53 236 outlet~;
#X obj 160 236 outlet~;
#X restore 39 148 pd fx;
#X obj 39 65 s fx5_return;
#X obj 39 113 catch~ fx5send;
#X connect 0 0 6 0;
#X connect 1 0 7 0;
#X connect 2 0 3 0;
#X connect 3 0 4 0;
#X connect 3 0 9 0;
#X connect 4 0 5 0;
#X connect 5 0 1 1;
#X connect 5 0 0 1;
#X connect 8 0 11 0;
#X connect 10 0 0 0;
#X connect 10 1 1 0;
#X connect 12 0 10 0;
#X restore 238 242 pd fx5;
#N canvas 0 23 335 464 master 0;
#X obj 40 335 env~;
#X obj 40 359 - 95;
#X obj 40 240 *~;
#X obj 96 158 pow 2;
#X obj 96 133 r levelMaster;
#X obj 40 383 s vuMaster;
#X obj 53 270 dac~;
#X obj 40 63 catch~ masterL;
#X obj 78 239 *~;
#X obj 78 91 catch~ masterR;
#X obj 41 304 +~;
#X obj 96 181 sig~;
#X obj 96 205 lop~ 20;
#X obj 91 34 s levelMaster;
#X floatatom 91 8 5 0 1 0 - - -;
#X obj 160 214 outlet;
#X connect 0 0 1 0;
#X connect 1 0 5 0;
#X connect 2 0 6 0;
#X connect 2 0 10 0;
#X connect 3 0 11 0;
#X connect 3 0 15 0;
#X connect 4 0 3 0;
#X connect 7 0 2 0;
#X connect 8 0 6 1;
#X connect 8 0 10 1;
#X connect 9 0 8 0;
#X connect 10 0 0 0;
#X connect 11 0 12 0;
#X connect 12 0 8 1;
#X connect 12 0 2 1;
#X connect 14 0 13 0;
#X restore 202 345 pd master;
#X floatatom 203 370 5 0 0 0 - - -;
#X obj 40 163 print ch1;
#X obj 131 162 print ch2;
#X obj 220 160 print ch3;
#X obj 312 161 print ch4;
#X obj 399 161 print ch5;
#X connect 12 0 30 0;
#X connect 14 0 17 0;
#X connect 15 0 31 0;
#X connect 16 0 18 0;
#X connect 21 0 19 0;
#X connect 22 0 20 0;
#X connect 24 0 32 0;
#X connect 25 0 33 0;
#X connect 26 0 34 0;
#X connect 27 0 23 0;
#X connect 28 0 29 0;
