#N canvas 778 366 342 302 12;
#X obj 33 35 inlet~ signal;
#X obj 186 34 inlet control;
#X floatatom 246 82 5 0 0 0 - - -, f 5;
#X obj 186 126 + 0.75;
#X msg 186 150 \$1 10;
#X obj 186 174 line~;
#X obj 186 198 cos~;
#X obj 166 226 *~;
#X obj 34 222 *~;
#X msg 55 147 \$1 10;
#X obj 55 171 line~;
#X obj 55 195 cos~;
#X obj 34 246 outlet~ left;
#X obj 166 251 outlet~ right;
#X obj 186 58 * 0.25;
#X connect 0 0 7 0;
#X connect 0 0 8 0;
#X connect 1 0 14 0;
#X connect 3 0 4 0;
#X connect 4 0 5 0;
#X connect 5 0 6 0;
#X connect 6 0 7 1;
#X connect 7 0 13 0;
#X connect 8 0 12 0;
#X connect 9 0 10 0;
#X connect 10 0 11 0;
#X connect 11 0 8 1;
#X connect 14 0 2 0;
#X connect 14 0 3 0;
#X connect 14 0 9 0;
