#N canvas 21 284 1357 552 10;
#X obj 252 412 *~;
#X floatatom 270 217 5 0 0 0 - ch#1_fx1_pre -;
#X obj 270 241 pow 2;
#X obj 270 267 sig~;
#X obj 270 364 lop~ 10;
#X obj 401 412 *~;
#X floatatom 420 217 5 0 0 0 - ch#1_fx2_pre -;
#X obj 420 244 pow 2;
#X obj 420 270 sig~;
#X obj 420 365 lop~ 10;
#X obj 550 412 *~;
#X floatatom 568 219 5 0 0 0 - ch#1_fx3_pre -;
#X obj 568 252 pow 2;
#X obj 568 278 sig~;
#X obj 568 372 lop~ 10;
#X obj 687 412 *~;
#X floatatom 705 218 5 0 0 0 - ch#1_fx4_pre -;
#X obj 705 243 pow 2;
#X obj 705 269 sig~;
#X obj 705 373 lop~ 10;
#X obj 824 412 *~;
#X floatatom 844 220 5 0 0 0 - ch#1_fx5_pre -;
#X obj 844 255 pow 2;
#X obj 844 281 sig~;
#X obj 844 375 lop~ 10;
#X obj 252 438 throw~ fx1presend;
#X obj 401 437 throw~ fx2presend;
#X obj 550 436 throw~ fx3presend;
#X obj 687 436 throw~ fx4presend;
#X obj 824 436 throw~ fx5presend;
#X obj 1011 188 r PRE_POST_FX_SEND;
#X floatatom 1011 218 5 0 0 0 - - -;
#X obj 1011 240 sel 0;
#X msg 1008 285 0;
#X obj 976 281 bng 15 250 50 0 empty empty empty 17 7 0 10 -262144
-1 -1;
#X msg 1040 286 1;
#X obj 1093 277 bng 15 250 50 0 empty empty empty 17 7 0 10 -262144
-1 -1;
#X text 1068 227 OPEN WHEN SENDING POST;
#X text 1072 247 OTHERWISE CLOSE;
#X obj 972 314 tgl 25 0 empty empty empty 17 7 0 10 -258113 -1 -1 1
1;
#X obj 843 339 *~, f 7;
#X obj 705 339 *~, f 7;
#X obj 567 339 *~, f 7;
#X obj 421 339 *~, f 7;
#X obj 270 339 *~, f 7;
#X text 95 118 audio in;
#X obj 70 135 catch~ ch\$1pre;
#X obj 71 396 *~ 1;
#X connect 0 0 25 0;
#X connect 1 0 2 0;
#X connect 2 0 3 0;
#X connect 3 0 44 0;
#X connect 4 0 0 1;
#X connect 5 0 26 0;
#X connect 6 0 7 0;
#X connect 7 0 8 0;
#X connect 8 0 43 0;
#X connect 9 0 5 1;
#X connect 10 0 27 0;
#X connect 11 0 12 0;
#X connect 12 0 13 0;
#X connect 13 0 42 0;
#X connect 14 0 10 1;
#X connect 15 0 28 0;
#X connect 16 0 17 0;
#X connect 17 0 18 0;
#X connect 18 0 41 0;
#X connect 19 0 15 1;
#X connect 20 0 29 0;
#X connect 21 0 22 0;
#X connect 22 0 23 0;
#X connect 23 0 40 0;
#X connect 24 0 20 1;
#X connect 30 0 31 0;
#X connect 31 0 32 0;
#X connect 32 0 34 0;
#X connect 32 0 33 0;
#X connect 32 1 36 0;
#X connect 32 1 35 0;
#X connect 33 0 39 0;
#X connect 35 0 39 0;
#X connect 39 0 40 1;
#X connect 39 0 41 1;
#X connect 39 0 42 1;
#X connect 39 0 43 1;
#X connect 39 0 44 1;
#X connect 40 0 24 0;
#X connect 41 0 19 0;
#X connect 42 0 14 0;
#X connect 43 0 9 0;
#X connect 44 0 4 0;
#X connect 46 0 47 0;
#X connect 47 0 0 0;
#X connect 47 0 5 0;
#X connect 47 0 20 0;
#X connect 47 0 15 0;
#X connect 47 0 10 0;
