#N canvas 108 176 866 435 10;
#X obj 168 345 *~;
#X floatatom 186 150 5 0 0 0 - ch#1_fx1_pre -;
#X obj 186 174 pow 2;
#X obj 186 200 sig~;
#X obj 186 297 lop~ 10;
#X floatatom 31 51 5 0 1 0 - - -;
#X floatatom 348 51 5 0 1 0 - - -;
#X floatatom 465 51 5 0 1 0 - - -;
#X floatatom 580 51 5 0 1 0 - - -;
#X obj 238 53 tgl 15 0 empty empty empty 17 7 0 10 -262144 -1 -1 0
1;
#X floatatom 154 75 5 0 1 0 - - -;
#X obj 317 345 *~;
#X floatatom 336 150 5 0 0 0 - ch#1_fx2_pre -;
#X obj 336 177 pow 2;
#X obj 336 203 sig~;
#X obj 336 298 lop~ 10;
#X text 48 301 audio in;
#X obj 466 345 *~;
#X floatatom 484 152 5 0 0 0 - ch#1_fx3_pre -;
#X obj 484 185 pow 2;
#X obj 484 211 sig~;
#X obj 484 305 lop~ 10;
#X text 31 29 CTRLS;
#X obj 31 74 s patch\$1level;
#X obj 238 73 s ch\$1_mute;
#X msg 348 33 0;
#X obj 349 10 r all_sends_off;
#X obj 154 49 r pan\$1;
#X obj 168 371 throw~ fx1presend;
#X obj 317 370 throw~ fx2presend;
#X obj 466 369 throw~ fx3presend;
#X obj 349 74 s ch\$1_fx1_pre;
#X obj 465 73 s ch\$1_fx2_pre;
#X obj 580 73 s ch\$1_fx3_pre;
#X obj 30 327 catch~ ch\$1pre;
#X obj 617 121 r PRE_POST_FX_SEND;
#X floatatom 617 151 5 0 0 0 - - -;
#X obj 617 173 sel 0;
#X msg 614 218 0;
#X obj 582 214 bng 15 250 50 0 empty empty empty 17 7 0 10 -262144
-1 -1;
#X msg 646 219 1;
#X obj 699 210 bng 15 250 50 0 empty empty empty 17 7 0 10 -262144
-1 -1;
#X text 674 160 OPEN WHEN SENDING POST;
#X text 678 180 OTHERWISE CLOSE;
#X obj 578 247 tgl 25 0 empty empty empty 17 7 0 10 -258113 -1 -1 1
1;
#X obj 483 272 *~, f 7;
#X obj 337 272 *~, f 7;
#X obj 186 272 *~, f 7;
#X connect 0 0 28 0;
#X connect 1 0 2 0;
#X connect 2 0 3 0;
#X connect 3 0 47 0;
#X connect 4 0 0 1;
#X connect 5 0 23 0;
#X connect 6 0 31 0;
#X connect 7 0 32 0;
#X connect 8 0 33 0;
#X connect 9 0 24 0;
#X connect 11 0 29 0;
#X connect 12 0 13 0;
#X connect 13 0 14 0;
#X connect 14 0 46 0;
#X connect 15 0 11 1;
#X connect 17 0 30 0;
#X connect 18 0 19 0;
#X connect 19 0 20 0;
#X connect 20 0 45 0;
#X connect 21 0 17 1;
#X connect 25 0 6 0;
#X connect 25 0 7 0;
#X connect 25 0 8 0;
#X connect 26 0 25 0;
#X connect 27 0 10 0;
#X connect 34 0 0 0;
#X connect 34 0 11 0;
#X connect 34 0 17 0;
#X connect 35 0 36 0;
#X connect 36 0 37 0;
#X connect 37 0 39 0;
#X connect 37 0 38 0;
#X connect 37 1 41 0;
#X connect 37 1 40 0;
#X connect 38 0 44 0;
#X connect 40 0 44 0;
#X connect 44 0 45 1;
#X connect 44 0 46 1;
#X connect 44 0 47 1;
#X connect 45 0 21 0;
#X connect 46 0 15 0;
#X connect 47 0 4 0;
