#N canvas 263 51 515 239 10;
#X obj 63 68 adc~;
#X obj 62 153 dac~;
#X text 105 32 A wacky example for feedback...;
#X text 154 139 The timbre of distortion;
#X text 154 147 can be improved through filtering;
#X obj 63 131 lop~ 1500;
#X text 161 124 <--- Lowpass filter;
#X obj 114 64 hsl 128 15 0 127 0 0 empty empty empty -2 -8 0 10 -262144
-1 -1 0 1;
#X text 107 45 Adjust crunchiness;
#X obj 334 61 hsl 128 15 0 127 0 0 empty empty empty -2 -8 0 10 -262144
-1 -1 0 1;
#X text 335 40 Adjust volume;
#N canvas 230 51 1045 766 distortionp 0;
#X obj 18 19 inlet~;
#X obj 18 707 outlet~;
#X obj 310 30 inlet;
#X obj 310 87 / 127;
#X floatatom 310 146 5 0 0 0 - - -, f 5;
#X obj 75 220 * -1;
#X obj 19 329 clip~;
#X obj 18 101 *~ 10;
#X obj 637 345 inlet;
#X obj 19 647 *~;
#X obj 637 511 line~;
#X msg 637 456 \$1 20;
#X obj 637 400 / 30;
#X connect 0 0 7 0;
#X connect 2 0 3 0;
#X connect 3 0 4 0;
#X connect 4 0 5 0;
#X connect 4 0 6 2;
#X connect 5 0 6 1;
#X connect 6 0 9 0;
#X connect 7 0 6 0;
#X connect 8 0 12 0;
#X connect 9 0 1 0;
#X connect 10 0 9 1;
#X connect 11 0 10 0;
#X connect 12 0 11 0;
#X restore 64 101 pd distortionp;
#X text 117 164 (C) 2016 Louisiana State University;
#X text 123 181 Edgar Berdahl;
#X connect 0 0 11 0;
#X connect 0 1 11 0;
#X connect 5 0 1 0;
#X connect 5 0 1 1;
#X connect 7 0 11 1;
#X connect 9 0 11 2;
#X connect 11 0 5 0;
