#N canvas 89 206 1270 796 10;
#X obj 99 105 s PTCH3_PAR_A1;
#X obj 224 107 s PTCH3_PAR_A2;
#X obj 369 108 s PTCH3_PAR_D1;
#X obj 475 109 s PTCH3_PAR_D2;
#X obj 600 107 s PTCH3_PAR_D3;
#X obj 496 91 bng 15 250 50 0 empty empty empty 17 7 0 10 -262144 -1
-1;
#X obj 349 108 bng 15 250 50 0 empty empty empty 17 7 0 10 -262144
-1 -1;
#X obj 608 89 tgl 15 0 empty empty empty 17 7 0 10 -262144 -1 -1 0
1;
#X obj 99 8 r PTCH3_CTRL_LIST;
#X obj 99 34 unpack f f f f f, f 72;
#X obj 25 64 print;
#X obj 25 35 spigot;
#X obj 64 14 tgl 15 0 empty empty empty 17 7 0 10 -262144 -1 -1 0 1
;
#X obj 247 707 throw~ ch3;
#X obj 352 706 throw~ ch3pre;
#X obj 508 473 bng 20 250 50 0 empty empty SMP2 0 13 0 10 -159808 -1
-1;
#X floatatom 542 472 6 0 0 0 - - -, f 6;
#X floatatom 596 473 5 0 0 0 - - -, f 5;
#X floatatom 641 473 6 0 0 0 - - -, f 6;
#X text 592 456 PICZ;
#X text 637 456 DUR(ms);
#X text 503 457 TRG;
#X text 527 459 GRSampSi;
#X obj 510 402 unpack s f f f;
#X floatatom 249 183 5 0 0 0 - - -, f 5;
#X text 367 88 load new sample;
#X text 234 11 Pitchshifts or timestretches sample with the granular
method;
#X text 6 87 CTRL INPUTS;
#X text 459 381 AUDIO PATCH GUTS;
#X obj 225 199 s durFACTOR;
#X text 229 144 changes the range of duration;
#X floatatom 151 180 5 0 0 0 - - -, f 5;
#X text 76 145 grain length factor;
#X obj 94 198 s grainLENfactor;
#N canvas 299 237 856 631 trigSAMPLE2 0;
#X obj 368 308 *;
#X floatatom 110 417 15 0 0 0 - - -, f 15;
#X obj 329 375 *;
#X obj 72 576 speedlim 100;
#X floatatom 410 357 5 0 0 0 - - -, f 5;
#X obj 518 582 bng 15 250 50 0 empty empty empty 17 7 0 10 -262144
-1 -1;
#X msg 329 429 grain \$1;
#X obj 319 165 bng 15 250 50 0 empty empty empty 17 7 0 10 -262144
-1 -1;
#X obj 539 199 random;
#X floatatom 188 534 10 0 0 0 - - -, f 10;
#X obj 539 514 *;
#X text 207 449 grain length (# of samples);
#X text 557 426 Inlet 3 \, float:Dur in ms;
#X text 105 375 grain2 length;
#X text 118 525 Dur in ms;
#X obj 72 179 bng 15 250 50 0 empty empty empty 17 7 0 10 -262144 -1
-1;
#X text 69 161 trig2;
#X obj 72 598 outlet;
#X floatatom 149 220 5 0 0 0 - - -, f 5;
#X text 114 218 picz;
#X obj 72 555 pack symbol f f f;
#X obj 557 488 r durFACTOR;
#X obj 379 330 r grainLENfactor;
#X obj 320 584 outlet~;
#X obj 384 583 outlet~;
#X floatatom 586 533 5 0 0 0 - - -, f 5;
#X text 557 470 * dur factor from pot;
#X floatatom 687 130 5 0 0 0 - - -, f 5;
#X text 337 230 In 2 \, float:Pitch(1=original);
#X text 206 430 In 1 \, grain float:;
#X text 115 162 In 1 \, bang: Play sample once;
#X text 344 244 based only on brigh sensor;
#X obj 696 67 r durFACTOR;
#X obj 322 121 t b b b b, f 37;
#X text 626 540 random based on;
#X text 557 455 scaled smp len * pot;
#X text 204 465 randomized based on smp len;
#X obj 329 332 random;
#X text 229 494 * grain Factor from pot;
#X obj 379 355 * 2;
#X text 225 478 * brightsest LDR / 16 -1;
#X floatatom 725 178 5 0 0 0 - - -, f 5;
#X text 703 111 len in samples;
#X text 726 127 from sample;
#X text 765 179 ms;
#X obj 615 154 *;
#X floatatom 630 177 9 0 0 0 - - -, f 9;
#X obj 329 187 bng 15 250 50 0 empty empty empty 17 7 0 10 -262144
-1 -1;
#X obj 696 91 * 0.5;
#X obj 368 283 - 1;
#X text 298 256 pitch is always 0-2 in this patch;
#X obj 657 153 cyclone/sampstoms~;
#X obj 419 161 r min_sens;
#X floatatom 381 196 5 0 0 0 - - -, f 5;
#X obj 419 200 / 32;
#X obj 598 116 r smp4Len;
#X obj 322 32 inlet;
#X obj 319 558 tof/sample_granule~ smpgranu4;
#X obj 337 97 bng 15 250 50 0 empty empty empty 17 7 0 10 -262144 -1
-1;
#X obj 353 72 bng 15 250 50 0 empty empty empty 17 7 0 10 -262144 -1
-1;
#X connect 0 0 37 1;
#X connect 1 0 20 1;
#X connect 2 0 6 0;
#X connect 2 0 1 0;
#X connect 3 0 17 0;
#X connect 6 0 57 0;
#X connect 7 0 15 0;
#X connect 7 0 57 0;
#X connect 8 0 10 0;
#X connect 9 0 20 3;
#X connect 10 0 9 0;
#X connect 10 0 57 2;
#X connect 15 0 20 0;
#X connect 18 0 20 2;
#X connect 20 0 3 0;
#X connect 21 0 10 1;
#X connect 21 0 25 0;
#X connect 22 0 4 0;
#X connect 22 0 39 0;
#X connect 32 0 48 0;
#X connect 33 0 7 0;
#X connect 33 1 47 0;
#X connect 33 2 8 0;
#X connect 33 3 45 0;
#X connect 37 0 2 0;
#X connect 39 0 2 1;
#X connect 45 0 8 1;
#X connect 45 0 46 0;
#X connect 47 0 37 0;
#X connect 48 0 45 1;
#X connect 49 0 0 0;
#X connect 51 1 41 0;
#X connect 52 0 53 0;
#X connect 52 0 54 0;
#X connect 54 0 18 0;
#X connect 54 0 49 0;
#X connect 54 0 57 1;
#X connect 55 0 27 0;
#X connect 55 0 45 0;
#X connect 55 0 0 1;
#X connect 55 0 51 0;
#X connect 56 0 33 0;
#X connect 56 0 59 0;
#X connect 57 0 23 0;
#X connect 57 1 24 0;
#X connect 57 3 5 0;
#X connect 58 0 33 0;
#X restore 970 385 pd trigSAMPLE2;
#X obj 90 571 line~;
#X text 478 538 light noise gate - like in fft;
#X text 707 446 Wazne - ten sampler pliki stereo traktuje inaczej \,
obydwa maja inne parametry/brzmienia \, dlatego so dwa utlety. Pliki
modo daja dwa razy to samo;
#X text 680 9 for stereo files L ch != R ch;
#X obj 25 705 throw~ PATCH3L;
#X obj 90 525 tgl 15 0 empty empty empty 17 7 0 10 -262144 -1 -1 1
1;
#X text 477 551 for 2 separate samples we need 2 gates!;
#X text 477 565 one works with 16 LDRs \, one with other 16;
#X obj 24 622 *~;
#X obj 70 623 *~;
#X msg 90 547 \$1 10;
#X obj 132 704 throw~ PATCH3R;
#X text 458 704 out;
#X floatatom 299 183 5 0 0 0 - - -, f 5;
#X floatatom 101 180 5 0 0 0 - - -, f 5;
#X obj 94 159 r PTCH3_PAR_A1;
#X obj 225 163 r PTCH3_PAR_A2;
#X obj 502 273 r smp1Len;
#X floatatom 504 291 5 0 0 0 - - -, f 5;
#X floatatom 666 290 5 0 0 0 - - -, f 5;
#X obj 664 272 r smp2Len;
#X floatatom 815 286 9 0 0 0 - - -, f 9;
#X obj 813 268 r smp3Len;
#X floatatom 963 284 10 0 0 0 - - -, f 10;
#X obj 961 266 r smp4Len;
#N canvas 164 529 1053 412 8_LDR_TRIG_TRESHOLD_DETECT 0;
#X obj 167 232 bng 15 250 50 0 empty empty empty 17 7 0 10 -262144
-1 -1;
#X obj 257 236 bng 15 250 50 0 empty empty empty 17 7 0 10 -262144
-1 -1;
#X obj 378 233 bng 15 250 50 0 empty empty empty 17 7 0 10 -262144
-1 -1;
#X obj 472 235 bng 15 250 50 0 empty empty empty 17 7 0 10 -262144
-1 -1;
#X obj 583 234 bng 15 250 50 0 empty empty empty 17 7 0 10 -262144
-1 -1;
#X obj 715 228 bng 15 250 50 0 empty empty empty 17 7 0 10 -262144
-1 -1;
#X obj 833 226 bng 15 250 50 0 empty empty empty 17 7 0 10 -262144
-1 -1;
#X obj 50 305 outlet;
#X floatatom 8 181 5 0 0 0 - - -, f 5;
#X obj 20 236 bng 15 250 50 0 empty empty empty 17 7 0 10 -262144 -1
-1;
#X obj 51 150 unpack 0 0 0 0 0 0 0 0, f 121;
#X obj 191 43 list split 8;
#X floatatom 232 97 5 0 0 0 - - -, f 5;
#X floatatom 13 111 5 0 0 0 - - -, f 5;
#X obj 314 75 outlet;
#X text 390 300 TRESHOLDS DETECT FOR 1 row;
#X text 320 54 rest of ldrs to next raw;
#X obj 54 12 inlet;
#X obj 207 303 smlib/vmin;
#X floatatom 274 335 5 0 0 0 - - -, f 5;
#X obj 258 365 s min_sens_1, f 14;
#X obj 13 91 zexy/length;
#X obj 232 77 zexy/length;
#X obj 191 6 r LDRS_INV_10_SMT_list;
#X obj 50 208 oneSENSORtresh;
#X obj 154 207 oneSENSORtresh;
#X obj 259 208 oneSENSORtresh;
#X obj 365 207 oneSENSORtresh;
#X obj 473 205 oneSENSORtresh;
#X obj 585 205 oneSENSORtresh;
#X obj 720 202 oneSENSORtresh;
#X obj 833 201 oneSENSORtresh;
#X connect 10 0 8 0;
#X connect 10 0 24 0;
#X connect 10 1 25 0;
#X connect 10 2 26 0;
#X connect 10 3 27 0;
#X connect 10 4 28 0;
#X connect 10 5 29 0;
#X connect 10 6 30 0;
#X connect 10 7 31 0;
#X connect 11 0 10 0;
#X connect 11 0 18 0;
#X connect 11 0 21 0;
#X connect 11 1 14 0;
#X connect 11 1 22 0;
#X connect 17 0 11 0;
#X connect 18 1 19 0;
#X connect 18 1 20 0;
#X connect 21 0 13 0;
#X connect 22 0 12 0;
#X connect 23 0 11 0;
#X connect 24 0 7 0;
#X connect 24 0 9 0;
#X connect 25 0 0 0;
#X connect 25 0 7 0;
#X connect 26 0 1 0;
#X connect 26 0 7 0;
#X connect 27 0 2 0;
#X connect 27 0 7 0;
#X connect 28 0 3 0;
#X connect 28 0 7 0;
#X connect 29 0 4 0;
#X connect 29 0 7 0;
#X connect 30 0 5 0;
#X connect 30 0 7 0;
#X connect 31 0 6 0;
#X connect 31 0 7 0;
#X restore 24 272 pd 8_LDR_TRIG_TRESHOLD_DETECT;
#N canvas 78 327 1053 412 8_LDR_TRIG_TRESHOLD_DETECT 0;
#X obj 167 232 bng 15 250 50 0 empty empty empty 17 7 0 10 -262144
-1 -1;
#X obj 257 236 bng 15 250 50 0 empty empty empty 17 7 0 10 -262144
-1 -1;
#X obj 378 233 bng 15 250 50 0 empty empty empty 17 7 0 10 -262144
-1 -1;
#X obj 472 235 bng 15 250 50 0 empty empty empty 17 7 0 10 -262144
-1 -1;
#X obj 583 234 bng 15 250 50 0 empty empty empty 17 7 0 10 -262144
-1 -1;
#X obj 715 228 bng 15 250 50 0 empty empty empty 17 7 0 10 -262144
-1 -1;
#X obj 833 226 bng 15 250 50 0 empty empty empty 17 7 0 10 -262144
-1 -1;
#X obj 50 305 outlet;
#X floatatom 8 181 5 0 0 0 - - -, f 5;
#X obj 28 249 bng 15 250 50 0 empty empty empty 17 7 0 10 -262144 -1
-1;
#X obj 51 150 unpack 0 0 0 0 0 0 0 0, f 121;
#X obj 191 43 list split 8;
#X floatatom 232 97 5 0 0 0 - - -, f 5;
#X floatatom 13 111 5 0 0 0 - - -, f 5;
#X obj 314 75 outlet;
#X text 390 300 TRESHOLDS DETECT FOR 1 row;
#X text 320 54 rest of ldrs to next raw;
#X obj 54 12 inlet, f 14;
#X obj 207 303 smlib/vmin;
#X floatatom 274 335 5 0 0 0 - - -, f 5;
#X obj 260 370 s min_sens_2, f 13;
#X obj 13 91 zexy/length;
#X obj 232 77 zexy/length;
#X obj 50 208 oneSENSORtresh;
#X obj 154 207 oneSENSORtresh;
#X obj 259 208 oneSENSORtresh;
#X obj 365 207 oneSENSORtresh;
#X obj 473 205 oneSENSORtresh;
#X obj 585 205 oneSENSORtresh;
#X obj 720 202 oneSENSORtresh;
#X obj 833 201 oneSENSORtresh;
#X connect 10 0 8 0;
#X connect 10 0 23 0;
#X connect 10 1 24 0;
#X connect 10 2 25 0;
#X connect 10 3 26 0;
#X connect 10 4 27 0;
#X connect 10 5 28 0;
#X connect 10 6 29 0;
#X connect 10 7 30 0;
#X connect 11 0 10 0;
#X connect 11 0 18 0;
#X connect 11 0 21 0;
#X connect 11 1 14 0;
#X connect 11 1 22 0;
#X connect 17 0 11 0;
#X connect 18 1 19 0;
#X connect 18 1 20 0;
#X connect 21 0 13 0;
#X connect 22 0 12 0;
#X connect 23 0 7 0;
#X connect 23 0 9 0;
#X connect 24 0 0 0;
#X connect 24 0 7 0;
#X connect 25 0 1 0;
#X connect 25 0 7 0;
#X connect 26 0 2 0;
#X connect 26 0 7 0;
#X connect 27 0 3 0;
#X connect 27 0 7 0;
#X connect 28 0 4 0;
#X connect 28 0 7 0;
#X connect 29 0 5 0;
#X connect 29 0 7 0;
#X connect 30 0 6 0;
#X connect 30 0 7 0;
#X restore 137 294 pd 8_LDR_TRIG_TRESHOLD_DETECT;
#N canvas 72 323 1053 412 8_LDR_TRIG_TRESHOLD_DETECT 0;
#X obj 167 232 bng 15 250 50 0 empty empty empty 17 7 0 10 -262144
-1 -1;
#X obj 257 236 bng 15 250 50 0 empty empty empty 17 7 0 10 -262144
-1 -1;
#X obj 378 233 bng 15 250 50 0 empty empty empty 17 7 0 10 -262144
-1 -1;
#X obj 472 235 bng 15 250 50 0 empty empty empty 17 7 0 10 -262144
-1 -1;
#X obj 583 234 bng 15 250 50 0 empty empty empty 17 7 0 10 -262144
-1 -1;
#X obj 715 228 bng 15 250 50 0 empty empty empty 17 7 0 10 -262144
-1 -1;
#X obj 833 226 bng 15 250 50 0 empty empty empty 17 7 0 10 -262144
-1 -1;
#X obj 50 305 outlet;
#X floatatom 8 181 5 0 0 0 - - -, f 5;
#X obj 68 233 bng 15 250 50 0 empty empty empty 17 7 0 10 -262144 -1
-1;
#X obj 51 150 unpack 0 0 0 0 0 0 0 0, f 121;
#X obj 191 43 list split 8;
#X floatatom 232 97 5 0 0 0 - - -, f 5;
#X floatatom 13 111 5 0 0 0 - - -, f 5;
#X obj 314 75 outlet;
#X text 390 300 TRESHOLDS DETECT FOR 1 row;
#X text 320 54 rest of ldrs to next raw;
#X obj 54 12 inlet, f 13;
#X obj 207 303 smlib/vmin;
#X floatatom 274 335 5 0 0 0 - - -, f 5;
#X obj 260 370 s min_sens_3, f 13;
#X obj 232 77 zexy/length;
#X obj 13 91 zexy/length;
#X obj 50 208 oneSENSORtresh;
#X obj 154 207 oneSENSORtresh;
#X obj 259 208 oneSENSORtresh;
#X obj 365 207 oneSENSORtresh;
#X obj 473 205 oneSENSORtresh;
#X obj 585 205 oneSENSORtresh;
#X obj 720 202 oneSENSORtresh;
#X obj 833 201 oneSENSORtresh;
#X connect 10 0 8 0;
#X connect 10 0 23 0;
#X connect 10 1 24 0;
#X connect 10 2 25 0;
#X connect 10 3 26 0;
#X connect 10 4 27 0;
#X connect 10 5 28 0;
#X connect 10 6 29 0;
#X connect 10 7 30 0;
#X connect 11 0 10 0;
#X connect 11 0 18 0;
#X connect 11 0 22 0;
#X connect 11 1 14 0;
#X connect 11 1 21 0;
#X connect 17 0 11 0;
#X connect 18 1 19 0;
#X connect 18 1 20 0;
#X connect 21 0 12 0;
#X connect 22 0 13 0;
#X connect 23 0 7 0;
#X connect 23 0 9 0;
#X connect 24 0 0 0;
#X connect 24 0 7 0;
#X connect 25 0 1 0;
#X connect 25 0 7 0;
#X connect 26 0 2 0;
#X connect 26 0 7 0;
#X connect 27 0 3 0;
#X connect 27 0 7 0;
#X connect 28 0 4 0;
#X connect 28 0 7 0;
#X connect 29 0 5 0;
#X connect 29 0 7 0;
#X connect 30 0 6 0;
#X connect 30 0 7 0;
#X restore 247 315 pd 8_LDR_TRIG_TRESHOLD_DETECT;
#N canvas 96 339 1053 412 8_LDR_TRIG_TRESHOLD_DETECT 0;
#X obj 167 232 bng 15 250 50 0 empty empty empty 17 7 0 10 -262144
-1 -1;
#X obj 257 236 bng 15 250 50 0 empty empty empty 17 7 0 10 -262144
-1 -1;
#X obj 378 233 bng 15 250 50 0 empty empty empty 17 7 0 10 -262144
-1 -1;
#X obj 472 235 bng 15 250 50 0 empty empty empty 17 7 0 10 -262144
-1 -1;
#X obj 583 234 bng 15 250 50 0 empty empty empty 17 7 0 10 -262144
-1 -1;
#X obj 715 228 bng 15 250 50 0 empty empty empty 17 7 0 10 -262144
-1 -1;
#X obj 833 226 bng 15 250 50 0 empty empty empty 17 7 0 10 -262144
-1 -1;
#X obj 50 305 outlet;
#X floatatom 8 181 5 0 0 0 - - -, f 5;
#X obj 67 203 bng 15 250 50 0 empty empty empty 17 7 0 10 -262144 -1
-1;
#X obj 51 150 unpack 0 0 0 0 0 0 0 0, f 121;
#X obj 191 43 list split 8;
#X floatatom 232 97 5 0 0 0 - - -, f 5;
#X floatatom 13 111 5 0 0 0 - - -, f 5;
#X obj 314 75 outlet;
#X text 390 300 TRESHOLDS DETECT FOR 1 row;
#X text 320 54 rest of ldrs to next raw;
#X obj 54 12 inlet, f 13;
#X obj 207 303 smlib/vmin;
#X floatatom 274 335 5 0 0 0 - - -, f 5;
#X obj 260 370 s min_sens_4, f 13;
#X obj 13 91 zexy/length;
#X obj 232 77 zexy/length;
#X obj 50 208 oneSENSORtresh;
#X obj 154 207 oneSENSORtresh;
#X obj 259 208 oneSENSORtresh;
#X obj 365 207 oneSENSORtresh;
#X obj 473 205 oneSENSORtresh;
#X obj 585 205 oneSENSORtresh;
#X obj 720 202 oneSENSORtresh;
#X obj 833 201 oneSENSORtresh;
#X connect 10 0 8 0;
#X connect 10 0 23 0;
#X connect 10 1 24 0;
#X connect 10 2 25 0;
#X connect 10 3 26 0;
#X connect 10 4 27 0;
#X connect 10 5 28 0;
#X connect 10 6 29 0;
#X connect 10 7 30 0;
#X connect 11 0 10 0;
#X connect 11 0 18 0;
#X connect 11 0 21 0;
#X connect 11 1 14 0;
#X connect 11 1 22 0;
#X connect 17 0 11 0;
#X connect 18 1 19 0;
#X connect 18 1 20 0;
#X connect 21 0 13 0;
#X connect 22 0 12 0;
#X connect 23 0 7 0;
#X connect 23 0 9 0;
#X connect 24 0 0 0;
#X connect 24 0 7 0;
#X connect 25 0 1 0;
#X connect 25 0 7 0;
#X connect 26 0 2 0;
#X connect 26 0 7 0;
#X connect 27 0 3 0;
#X connect 27 0 7 0;
#X connect 28 0 4 0;
#X connect 28 0 7 0;
#X connect 29 0 5 0;
#X connect 29 0 7 0;
#X connect 30 0 6 0;
#X connect 30 0 7 0;
#X restore 350 336 pd 8_LDR_TRIG_TRESHOLD_DETECT;
#X text 62 251 in - ldrs as list;
#X obj 35 338 bng 15 250 50 0 empty empty empty 17 7 0 10 -262144 -1
-1;
#X obj 147 329 bng 15 250 50 0 empty empty empty 17 7 0 10 -262144
-1 -1;
#X obj 257 334 bng 15 250 50 0 empty empty empty 17 7 0 10 -262144
-1 -1;
#X obj 368 359 bng 15 250 50 0 empty empty empty 17 7 0 10 -262144
-1 -1;
#N canvas 57 232 774 705 GRAN1_TRIG 0;
#X obj 231 209 *;
#X obj 128 291 *;
#X text 448 218 from sample;
#X floatatom 158 289 5 0 0 0 - - -, f 5;
#X obj 126 520 tgl 15 0 empty empty empty 17 7 0 10 -262144 -1 -1 0
1;
#X text 145 518 Inlet 1 \, float: Start/stop playing looped sample
;
#X obj 308 564 bng 15 250 50 0 empty empty empty 17 7 0 10 -262144
-1 -1;
#X text 324 562 Outlet 4 \, bang: done;
#X msg 149 315 grain \$1;
#X obj 208 49 bng 15 250 50 0 empty empty empty 17 7 0 10 -262144 -1
-1;
#X obj 115 95 bng 15 250 50 0 empty empty empty 17 7 0 10 -262144 -1
-1;
#X text 133 93 Inlet 1 \, bang: Play sample once;
#X text 131 463 Inlet 3 \, float: Duration in milliseconds;
#X floatatom 410 219 5 0 0 0 - - -, f 5;
#X floatatom 211 375 5 0 0 0 - - -, f 5;
#X obj 308 241 random;
#X obj 208 75 t b b b;
#X text 17 377 Inlet 1 \, grain float:;
#X floatatom 504 451 10 0 0 0 - - -, f 10;
#X obj 308 431 *;
#X text 454 308 grain length;
#X text 21 393 grain length (# of samples);
#X text 249 374 In 2-Pitch 1=original;
#X obj 388 109 bng 15 250 50 0 empty empty empty 17 7 0 10 -262144
-1 -1;
#X text 388 91 trig1;
#X obj 388 630 outlet;
#X floatatom 465 394 5 0 0 0 - - -, f 5;
#X text 461 375 picz;
#X text 509 468 Dur in ms;
#X obj 388 583 pack symbol f f f;
#X obj 426 311 int;
#X obj 326 408 r durFACTOR;
#X obj 146 262 r grainLENfactor;
#X obj 114 588 outlet~;
#X obj 178 588 outlet~;
#X text 185 494 * dur factor from pot;
#X text 130 478 random based on;
#X text 131 493 smp len;
#X text 251 167 based only on brigh sensor;
#X text 245 177 pitch is always 0-1 in this patch;
#X obj 128 229 random;
#X text 23 409 randomized based on smp len;
#X text 25 437 * grain Factor from pot;
#X floatatom 42 306 9 0 0 0 - - -, f 9;
#X text 20 422 * brightsest LDR / 32;
#X obj 388 608 cyclone/speedlim 100;
#X floatatom 167 197 5 0 0 0 - - -, f 5;
#X obj 204 24 inlet;
#X obj 410 189 r smp1Len;
#X obj 115 542 tof/sample_granule~ smpgranu1;
#X obj 178 52 bng 15 250 50 0 empty empty empty 17 7 0 10 -262144 -1
-1;
#X text 127 23 trig;
#X obj 211 239 + 0.1;
#X obj 211 174 / 8;
#X obj 212 122 r min_sens_1;
#X connect 0 0 40 1;
#X connect 1 0 8 0;
#X connect 1 0 30 0;
#X connect 1 0 43 0;
#X connect 4 0 49 0;
#X connect 8 0 49 0;
#X connect 9 0 16 0;
#X connect 10 0 23 0;
#X connect 10 0 49 0;
#X connect 14 0 26 0;
#X connect 14 0 49 1;
#X connect 15 0 19 0;
#X connect 16 0 10 0;
#X connect 16 1 40 0;
#X connect 16 2 15 0;
#X connect 18 0 29 3;
#X connect 19 0 18 0;
#X connect 19 0 49 2;
#X connect 23 0 29 0;
#X connect 26 0 29 2;
#X connect 29 0 45 0;
#X connect 30 0 29 1;
#X connect 31 0 19 1;
#X connect 32 0 1 1;
#X connect 32 0 3 0;
#X connect 40 0 1 0;
#X connect 45 0 25 0;
#X connect 47 0 16 0;
#X connect 47 0 50 0;
#X connect 48 0 0 1;
#X connect 48 0 13 0;
#X connect 48 0 15 1;
#X connect 49 0 33 0;
#X connect 49 1 34 0;
#X connect 49 3 6 0;
#X connect 52 0 14 0;
#X connect 53 0 0 0;
#X connect 53 0 52 0;
#X connect 54 0 53 0;
#X connect 54 0 46 0;
#X restore 24 385 pd GRAN1_TRIG;
#X obj 134 623 *~;
#N canvas 63 236 774 705 GRAN2_TRIG 0;
#X obj 231 209 *;
#X obj 128 291 *;
#X text 448 218 from sample;
#X floatatom 158 289 5 0 0 0 - - -, f 5;
#X obj 126 520 tgl 15 0 empty empty empty 17 7 0 10 -262144 -1 -1 0
1;
#X text 145 518 Inlet 1 \, float: Start/stop playing looped sample
;
#X obj 308 564 bng 15 250 50 0 empty empty empty 17 7 0 10 -262144
-1 -1;
#X text 324 562 Outlet 4 \, bang: done;
#X msg 149 315 grain \$1;
#X obj 208 49 bng 15 250 50 0 empty empty empty 17 7 0 10 -262144 -1
-1;
#X obj 115 95 bng 15 250 50 0 empty empty empty 17 7 0 10 -262144 -1
-1;
#X text 133 93 Inlet 1 \, bang: Play sample once;
#X text 131 463 Inlet 3 \, float: Duration in milliseconds;
#X floatatom 410 219 5 0 0 0 - - -, f 5;
#X floatatom 211 375 5 0 0 0 - - -, f 5;
#X obj 308 241 random;
#X obj 208 75 t b b b;
#X text 107 614 Inlet 1 \, grain float:;
#X floatatom 504 451 10 0 0 0 - - -, f 10;
#X obj 308 431 *;
#X text 454 308 grain length;
#X text 111 630 grain length (# of samples);
#X text 249 374 In 2-Pitch 1=original;
#X obj 388 109 bng 15 250 50 0 empty empty empty 17 7 0 10 -262144
-1 -1;
#X text 388 91 trig1;
#X obj 388 630 outlet;
#X floatatom 465 394 5 0 0 0 - - -, f 5;
#X text 461 375 picz;
#X text 509 468 Dur in ms;
#X obj 388 583 pack symbol f f f;
#X obj 426 311 int;
#X obj 326 408 r durFACTOR;
#X obj 146 262 r grainLENfactor;
#X obj 114 588 outlet~;
#X obj 178 588 outlet~;
#X text 185 494 * dur factor from pot;
#X text 130 478 random based on;
#X text 131 493 smp len;
#X text 251 167 based only on brigh sensor;
#X text 245 177 pitch is always 0-1 in this patch;
#X obj 128 229 random;
#X text 113 646 randomized based on smp len;
#X text 115 674 * grain Factor from pot;
#X floatatom 36 340 9 0 0 0 - - -, f 9;
#X text 110 659 * brightsest LDR / 32;
#X obj 388 608 cyclone/speedlim 100;
#X floatatom 139 153 5 0 0 0 - - -, f 5;
#X obj 132 121 r min_sens;
#X obj 204 24 inlet;
#X obj 178 52 bng 15 250 50 0 empty empty empty 17 7 0 10 -262144 -1
-1;
#X text 127 23 trig;
#X obj 410 189 r smp2Len;
#X obj 211 174 / 8;
#X floatatom 167 182 5 0 0 0 - - -, f 5;
#X obj 212 121 r min_sens_2;
#X obj 115 541 tof/sample_granule~ smpgranu2;
#X connect 0 0 40 1;
#X connect 1 0 8 0;
#X connect 1 0 30 0;
#X connect 1 0 43 0;
#X connect 4 0 55 0;
#X connect 8 0 55 0;
#X connect 9 0 16 0;
#X connect 10 0 23 0;
#X connect 10 0 55 0;
#X connect 14 0 26 0;
#X connect 14 0 55 1;
#X connect 15 0 19 0;
#X connect 16 0 10 0;
#X connect 16 1 40 0;
#X connect 16 2 15 0;
#X connect 18 0 29 3;
#X connect 19 0 18 0;
#X connect 19 0 55 2;
#X connect 23 0 29 0;
#X connect 26 0 29 2;
#X connect 29 0 45 0;
#X connect 30 0 29 1;
#X connect 31 0 19 1;
#X connect 32 0 1 1;
#X connect 32 0 3 0;
#X connect 40 0 1 0;
#X connect 45 0 25 0;
#X connect 47 0 46 0;
#X connect 48 0 16 0;
#X connect 48 0 49 0;
#X connect 51 0 0 1;
#X connect 51 0 13 0;
#X connect 51 0 15 1;
#X connect 52 0 14 0;
#X connect 52 0 0 0;
#X connect 52 0 53 0;
#X connect 54 0 52 0;
#X connect 55 0 33 0;
#X connect 55 1 34 0;
#X connect 55 3 6 0;
#X restore 135 385 pd GRAN2_TRIG;
#N canvas 488 172 774 705 GRAN3_TRIG 0;
#X obj 231 209 *;
#X obj 128 291 *;
#X text 448 218 from sample;
#X floatatom 158 289 5 0 0 0 - - -, f 5;
#X obj 126 520 tgl 15 0 empty empty empty 17 7 0 10 -262144 -1 -1 0
1;
#X text 145 518 Inlet 1 \, float: Start/stop playing looped sample
;
#X obj 308 564 bng 15 250 50 0 empty empty empty 17 7 0 10 -262144
-1 -1;
#X text 324 562 Outlet 4 \, bang: done;
#X msg 149 315 grain \$1;
#X obj 130 32 bng 15 250 50 0 empty empty empty 17 7 0 10 -262144 -1
-1;
#X obj 115 95 bng 15 250 50 0 empty empty empty 17 7 0 10 -262144 -1
-1;
#X text 133 93 Inlet 1 \, bang: Play sample once;
#X text 131 463 Inlet 3 \, float: Duration in milliseconds;
#X floatatom 410 219 5 0 0 0 - - -, f 5;
#X floatatom 211 375 5 0 0 0 - - -, f 5;
#X obj 308 241 random;
#X obj 116 57 t b b b, f 28;
#X text 107 614 Inlet 1 \, grain float:;
#X floatatom 504 451 10 0 0 0 - - -, f 10;
#X obj 308 431 *;
#X text 454 308 grain length;
#X text 111 630 grain length (# of samples);
#X text 249 374 In 2-Pitch 1=original;
#X obj 388 109 bng 15 250 50 0 empty empty empty 17 7 0 10 -262144
-1 -1;
#X text 388 91 trig1;
#X obj 388 630 outlet;
#X floatatom 465 394 5 0 0 0 - - -, f 5;
#X text 461 375 picz;
#X text 509 468 Dur in ms;
#X obj 388 583 pack symbol f f f;
#X obj 426 311 int;
#X obj 326 408 r durFACTOR;
#X obj 146 262 r grainLENfactor;
#X obj 114 588 outlet~;
#X obj 178 588 outlet~;
#X text 185 494 * dur factor from pot;
#X text 130 478 random based on;
#X text 131 493 smp len;
#X text 251 167 based only on brigh sensor;
#X text 245 177 pitch is always 0-1 in this patch;
#X obj 128 229 random;
#X text 113 646 randomized based on smp len;
#X text 115 674 * grain Factor from pot;
#X floatatom 36 340 9 0 0 0 - - -, f 9;
#X text 110 659 * brightsest LDR / 32;
#X obj 388 608 cyclone/speedlim 100;
#X floatatom 177 187 5 0 0 0 - - -, f 5;
#X obj 112 6 inlet;
#X obj 86 34 bng 15 250 50 0 empty empty empty 17 7 0 10 -262144 -1
-1;
#X text 164 9 trig;
#X obj 410 189 r smp3Len;
#X obj 211 174 / 8;
#X obj 211 148 r min_sens_3;
#X obj 212 235 + 0.05;
#X obj 115 541 tof/sample_granule~ smpgranu3;
#X connect 0 0 40 1;
#X connect 1 0 8 0;
#X connect 1 0 30 0;
#X connect 1 0 43 0;
#X connect 4 0 54 0;
#X connect 8 0 54 0;
#X connect 9 0 16 0;
#X connect 10 0 23 0;
#X connect 10 0 54 0;
#X connect 14 0 26 0;
#X connect 14 0 54 1;
#X connect 15 0 19 0;
#X connect 16 0 10 0;
#X connect 16 1 40 0;
#X connect 16 2 15 0;
#X connect 18 0 29 3;
#X connect 19 0 18 0;
#X connect 19 0 54 2;
#X connect 23 0 29 0;
#X connect 26 0 29 2;
#X connect 29 0 45 0;
#X connect 30 0 29 1;
#X connect 31 0 19 1;
#X connect 32 0 1 1;
#X connect 32 0 3 0;
#X connect 40 0 1 0;
#X connect 45 0 25 0;
#X connect 47 0 16 0;
#X connect 47 0 48 0;
#X connect 50 0 0 1;
#X connect 50 0 13 0;
#X connect 50 0 15 1;
#X connect 51 0 0 0;
#X connect 51 0 53 0;
#X connect 52 0 46 0;
#X connect 52 0 51 0;
#X connect 53 0 14 0;
#X connect 54 0 33 0;
#X connect 54 1 34 0;
#X connect 54 3 6 0;
#X restore 247 384 pd GRAN3_TRIG;
#X obj 23 427 *~ 0.25;
#X obj 134 425 *~ 0.25;
#X obj 873 666 outlet;
#X obj 805 669 switch~;
#X floatatom 798 644 2 0 0 0 - - -, f 2;
#X text 815 643 dsp;
#X obj 822 617 tgl 15 0 empty empty empty 17 7 0 10 -262144 -1 -1 0
1;
#X obj 821 591 oneARDinCOMPARE 0.1;
#X floatatom 821 564 5 0 0 0 - patch3level -, f 5;
#N canvas 95 172 774 705 GRAN4_TRIG 0;
#X obj 231 209 *;
#X obj 128 291 *;
#X text 448 218 from sample;
#X floatatom 158 289 5 0 0 0 - - -, f 5;
#X obj 126 520 tgl 15 0 empty empty empty 17 7 0 10 -262144 -1 -1 0
1;
#X text 145 518 Inlet 1 \, float: Start/stop playing looped sample
;
#X obj 308 564 bng 15 250 50 0 empty empty empty 17 7 0 10 -262144
-1 -1;
#X text 324 562 Outlet 4 \, bang: done;
#X msg 149 315 grain \$1;
#X obj 130 32 bng 15 250 50 0 empty empty empty 17 7 0 10 -262144 -1
-1;
#X obj 115 95 bng 15 250 50 0 empty empty empty 17 7 0 10 -262144 -1
-1;
#X text 133 93 Inlet 1 \, bang: Play sample once;
#X text 131 463 Inlet 3 \, float: Duration in milliseconds;
#X floatatom 410 219 5 0 0 0 - - -, f 5;
#X floatatom 211 375 5 0 0 0 - - -, f 5;
#X obj 308 241 random;
#X obj 116 57 t b b b, f 28;
#X text 107 614 Inlet 1 \, grain float:;
#X floatatom 504 451 10 0 0 0 - - -, f 10;
#X obj 308 431 *;
#X text 454 308 grain length;
#X text 111 630 grain length (# of samples);
#X text 249 374 In 2-Pitch 1=original;
#X obj 388 109 bng 15 250 50 0 empty empty empty 17 7 0 10 -262144
-1 -1;
#X text 388 91 trig1;
#X obj 388 630 outlet;
#X floatatom 465 394 5 0 0 0 - - -, f 5;
#X text 461 375 picz;
#X text 509 468 Dur in ms;
#X obj 388 583 pack symbol f f f;
#X obj 426 311 int;
#X obj 326 408 r durFACTOR;
#X obj 146 262 r grainLENfactor;
#X obj 114 588 outlet~;
#X obj 178 588 outlet~;
#X text 185 494 * dur factor from pot;
#X text 130 478 random based on;
#X text 131 493 smp len;
#X text 251 167 based only on brigh sensor;
#X text 245 177 pitch is always 0-1 in this patch;
#X obj 128 229 random;
#X text 113 646 randomized based on smp len;
#X text 115 674 * grain Factor from pot;
#X floatatom 36 340 9 0 0 0 - - -, f 9;
#X text 110 659 * brightsest LDR / 32;
#X obj 388 608 cyclone/speedlim 100;
#X floatatom 177 187 5 0 0 0 - - -, f 5;
#X obj 181 141 r min_sens;
#X obj 112 6 inlet;
#X obj 86 34 bng 15 250 50 0 empty empty empty 17 7 0 10 -262144 -1
-1;
#X text 164 9 trig;
#X obj 410 189 r smp4Len;
#X obj 115 541 tof/sample_granule~ smpgranu4;
#X obj 219 121 r min_sens_4;
#X obj 211 173 / 8;
#X connect 0 0 40 1;
#X connect 1 0 8 0;
#X connect 1 0 30 0;
#X connect 1 0 43 0;
#X connect 4 0 52 0;
#X connect 8 0 52 0;
#X connect 9 0 16 0;
#X connect 10 0 23 0;
#X connect 10 0 52 0;
#X connect 14 0 26 0;
#X connect 14 0 52 1;
#X connect 15 0 19 0;
#X connect 16 0 10 0;
#X connect 16 1 40 0;
#X connect 16 2 15 0;
#X connect 18 0 29 3;
#X connect 19 0 18 0;
#X connect 19 0 52 2;
#X connect 23 0 29 0;
#X connect 26 0 29 2;
#X connect 29 0 45 0;
#X connect 30 0 29 1;
#X connect 31 0 19 1;
#X connect 32 0 1 1;
#X connect 32 0 3 0;
#X connect 40 0 1 0;
#X connect 45 0 25 0;
#X connect 48 0 16 0;
#X connect 48 0 49 0;
#X connect 51 0 0 1;
#X connect 51 0 13 0;
#X connect 51 0 15 1;
#X connect 52 0 33 0;
#X connect 52 1 34 0;
#X connect 52 3 6 0;
#X connect 53 0 54 0;
#X connect 53 0 46 0;
#X connect 54 0 14 0;
#X connect 54 0 0 0;
#X restore 350 385 pd GRAN4_TRIG;
#X obj 69 456 *~ 0.25;
#X obj 180 446 *~ 0.25;
#X obj 249 427 *~ 0.25;
#X obj 350 425 *~ 0.25;
#X obj 292 456 *~ 0.25;
#X obj 395 455 *~ 0.25;
#X obj 179 624 *~;
#X obj 248 627 *~;
#X obj 293 628 *~;
#X obj 351 628 *~;
#X obj 396 629 *~;
#X obj 423 569 line~;
#X obj 423 523 tgl 15 0 empty empty empty 17 7 0 10 -262144 -1 -1 0
1;
#X msg 423 545 \$1 10;
#X text 440 599 avoid clicks;
#X obj 201 574 line~;
#X obj 201 528 tgl 15 0 empty empty empty 17 7 0 10 -262144 -1 -1 0
1;
#X msg 201 550 \$1 10;
#X obj 312 577 line~;
#X obj 312 531 tgl 15 0 empty empty empty 17 7 0 10 -262144 -1 -1 0
1;
#X msg 312 553 \$1 10;
#X obj 920 97 loadbang \; load_smpl_at_start bang;
#X msg 920 154 \; load_smpl_at_start bang;
#X obj 920 133 del 5000;
#N canvas 423 359 799 218 manage_samples 0;
#X obj 54 122 bng 15 250 50 0 empty load_smpl_at_start load_smpl_at_start
17 7 0 10 -262144 -1 -1;
#X obj 216 126 bng 15 250 50 0 empty load_smpl_at_start load_smpl_at_start
17 7 0 10 -262144 -1 -1;
#X text 53 105 LOAD/MANAGE samples;
#X text 235 116 load sample 2;
#N canvas 219 345 992 500 manage_kik_SMPLES1 0;
#X obj 83 30 loadbang;
#X obj 83 52 del 5000;
#X text 441 248 Inlet 1;
#X text 503 245 read symbol: Read sound file into the sample's tables
;
#X text 430 301 Loads a sound file (wav) as a sample;
#X text 12 307 symbol: Sample name;
#X text 430 327 Argument 1;
#X text 430 339 Argument 2 (optional):;
#X text 429 352 symbol: Sound file to read into the sample's tables
when created;
#X text 430 314 and puts into smpgranu table;
#X obj 100 249 bng 15 250 50 0 empty empty empty 17 7 0 10 -262144
-1 -1;
#X msg 86 383 /home/ccrma/pd/sample/KIKS/KC_SMPL0100.wav;
#X obj 287 317 prepend set;
#X msg 287 339 19287;
#X text 86 344 name of sample;
#X text 175 362 name of table in which s is stored;
#X text 331 291 duration;
#X text 12 320 outputs info about sample;
#X text 13 294 arg-table sample name;
#X obj 399 203 t b a;
#X text 441 202 1 load sample;
#X text 192 242 2 get sample info;
#X obj 372 22 bng 15 250 50 0 empty empty empty 17 7 0 10 -262144 -1
-1;
#X obj 398 18 inlet;
#X obj 47 415 outlet;
#X obj 87 360 prepend set;
#X obj 194 318 prepend set;
#X floatatom 497 61 5 0 0 0 - - -, f 5;
#X obj 479 17 r SMPL_KIKS_AMT;
#X obj 440 60 + 1;
#X text 190 24 bang to load new sample;
#X text 514 325 symbol: Sample name;
#X obj 398 111 + 100;
#X msg 398 133 /home/ccrma/pd/sample/KIKS/KC_SMPL0\$1.wav;
#X obj 399 159 cyclone/prepend read;
#X text 549 51 get sampl amount from MANAGE SAMPLES subpachg;
#X msg 81 73 sample smpgranu1;
#X msg 194 342 smpgranu1;
#X obj 337 340 s smp1Len;
#X obj 82 272 tof/sample_unpack, f 31;
#X obj 431 265 tof/sample smpgranu1;
#X msg 141 157 /home/ccrma/pd/sample/Rim2.wav;
#X floatatom 359 103 5 0 0 0 - - -, f 5;
#X obj 401 85 % 28, f 6;
#X obj 398 59 i;
#X connect 0 0 1 0;
#X connect 1 0 36 0;
#X connect 1 0 41 0;
#X connect 10 0 39 0;
#X connect 12 0 13 0;
#X connect 19 0 10 0;
#X connect 19 1 40 0;
#X connect 22 0 44 0;
#X connect 23 0 44 0;
#X connect 25 0 11 0;
#X connect 25 0 24 0;
#X connect 26 0 37 0;
#X connect 28 0 27 0;
#X connect 28 0 43 1;
#X connect 29 0 44 1;
#X connect 32 0 33 0;
#X connect 33 0 34 0;
#X connect 34 0 19 0;
#X connect 36 0 39 0;
#X connect 39 1 25 0;
#X connect 39 2 26 0;
#X connect 39 6 12 0;
#X connect 39 6 38 0;
#X connect 41 0 19 0;
#X connect 43 0 32 0;
#X connect 44 0 29 0;
#X connect 44 0 42 0;
#X connect 44 0 43 0;
#X restore 54 148 pd manage_kik_SMPLES1;
#N canvas 428 213 685 475 manage_FX_SMPLS_2 0;
#X obj 58 139 loadbang;
#X obj 58 161 del 5000;
#X text 53 120 symbol: Sample name;
#X obj 200 273 bng 15 250 50 0 empty empty empty 17 7 0 10 -262144
-1 -1;
#X msg 222 393 smpgranu2;
#X msg 126 424 /home/ccrma/pd/sample/FX/FX_SMPL0100.wav;
#X msg 363 392 36581;
#X text 84 392 name of sample;
#X text 408 392 duration;
#X text 54 96 outputs info about sample;
#X text 54 107 arg-table sample name;
#X text 227 276 2 get sample info;
#X msg 58 233 sample smpgranu2;
#X obj 523 371 s smp2Len;
#X obj 72 424 outlet;
#X obj 72 369 cyclone/prepend set;
#X obj 222 369 cyclone/prepend set;
#X obj 364 368 cyclone/prepend set;
#X obj 329 238 t b a;
#X text 371 237 1 load sample;
#X obj 302 57 bng 15 250 50 0 empty empty empty 17 7 0 10 -262144 -1
-1;
#X obj 328 53 inlet;
#X obj 370 95 + 1;
#X obj 328 104 i;
#X obj 370 117 %, f 6;
#X text 120 59 bang to load new sample;
#X obj 328 146 + 100;
#X obj 329 194 cyclone/prepend read;
#X text 192 28 get sampl amount from MANAGE SAMPLES subpachg;
#X floatatom 421 81 5 0 0 0 - - -, f 5;
#X obj 409 59 r SMPL_FX_AMT;
#X msg 328 168 /home/ccrma/pd/sample/FX/FX_SMPL0\$1.wav;
#X obj 200 333 tof/sample_unpack;
#X obj 398 268 tof/sample smpgranu2;
#X msg 99 204 /home/ccrma/pd/sample/Rim2.wav;
#X connect 0 0 1 0;
#X connect 1 0 12 0;
#X connect 1 0 34 0;
#X connect 3 0 32 0;
#X connect 12 0 32 0;
#X connect 15 0 5 0;
#X connect 15 0 14 0;
#X connect 16 0 4 0;
#X connect 17 0 6 0;
#X connect 18 0 3 0;
#X connect 18 1 33 0;
#X connect 20 0 23 0;
#X connect 21 0 23 0;
#X connect 22 0 24 0;
#X connect 23 0 22 0;
#X connect 23 0 26 0;
#X connect 24 0 23 1;
#X connect 26 0 31 0;
#X connect 27 0 18 0;
#X connect 30 0 29 0;
#X connect 30 0 24 1;
#X connect 31 0 27 0;
#X connect 32 1 15 0;
#X connect 32 2 16 0;
#X connect 32 6 13 0;
#X connect 32 6 17 0;
#X connect 34 0 18 0;
#X restore 216 149 pd manage_FX_SMPLS_2;
#X obj 365 126 bng 15 250 50 0 empty load_smpl_at_start load_smpl_at_start
17 7 0 10 -262144 -1 -1;
#X text 383 109 load sample 3;
#N canvas 327 192 893 587 manage_SNR_SMPLS_3 0;
#X obj 58 159 loadbang;
#X obj 58 181 del 5000;
#X text 53 140 symbol: Sample name;
#X obj 200 273 bng 15 250 50 0 empty empty empty 17 7 0 10 -262144
-1 -1;
#X msg 126 424 /home/ccrma/pd/sample/SNRS/SNR_SMPL0100.wav;
#X msg 363 392 589990;
#X text 84 392 name of sample;
#X text 408 392 duration;
#X text 54 116 outputs info about sample;
#X text 54 127 arg-table sample name;
#X text 227 276 2 get sample info;
#X obj 72 424 outlet;
#X obj 72 369 cyclone/prepend set;
#X obj 222 369 cyclone/prepend set;
#X obj 364 368 cyclone/prepend set;
#X obj 329 238 t b a;
#X text 371 237 1 load sample;
#X obj 302 57 bng 15 250 50 0 empty empty empty 17 7 0 10 -262144 -1
-1;
#X obj 328 53 inlet;
#X obj 370 95 + 1;
#X obj 328 104 i;
#X obj 370 117 %, f 6;
#X text 120 59 bang to load new sample;
#X obj 328 146 + 100;
#X obj 329 194 cyclone/prepend read;
#X text 474 34 get sampl amount from MANAGE SAMPLES subpachg;
#X floatatom 419 81 5 0 0 0 - - -, f 5;
#X obj 409 29 r SMPL_SNRS_AMT, f 7;
#X msg 328 168 /home/ccrma/pd/sample/SNRS/SNR_SMPL0\$1.wav;
#X msg 58 253 sample smpgranu3;
#X obj 523 371 s smp3Len;
#X msg 222 393 smpgranu3;
#X obj 200 333 tof/sample_unpack;
#X obj 398 268 tof/sample smpgranu3;
#X msg 73 211 /home/ccrma/pd/sample/Rim2.wav;
#X connect 0 0 1 0;
#X connect 1 0 29 0;
#X connect 1 0 34 0;
#X connect 3 0 32 0;
#X connect 12 0 4 0;
#X connect 12 0 11 0;
#X connect 13 0 31 0;
#X connect 14 0 5 0;
#X connect 15 0 3 0;
#X connect 15 1 33 0;
#X connect 17 0 20 0;
#X connect 18 0 20 0;
#X connect 19 0 21 0;
#X connect 20 0 19 0;
#X connect 20 0 23 0;
#X connect 21 0 20 1;
#X connect 23 0 28 0;
#X connect 24 0 15 0;
#X connect 27 0 26 0;
#X connect 27 0 21 1;
#X connect 28 0 24 0;
#X connect 29 0 32 0;
#X connect 32 1 12 0;
#X connect 32 2 13 0;
#X connect 32 6 14 0;
#X connect 32 6 30 0;
#X connect 34 0 15 0;
#X restore 365 149 pd manage_SNR_SMPLS_3;
#X obj 333 100 bng 15 250 50 0 empty empty empty 17 7 0 10 -262144
-1 -1;
#N canvas 162 127 672 474 manage_VOICE_SMPLS_4 0;
#X obj 58 119 loadbang;
#X obj 58 141 del 5000;
#X text 53 100 symbol: Sample name;
#X obj 200 273 bng 15 250 50 0 empty empty empty 17 7 0 10 -262144
-1 -1;
#X msg 126 424 /home/ccrma/pd/sample/VOICE/VC_SMPL0100.wav;
#X msg 363 392 120832;
#X text 84 392 name of sample;
#X text 408 392 duration;
#X text 54 76 outputs info about sample;
#X text 54 87 arg-table sample name;
#X text 227 276 2 get sample info;
#X obj 72 424 outlet;
#X obj 72 369 cyclone/prepend set;
#X obj 222 369 cyclone/prepend set;
#X obj 364 368 cyclone/prepend set;
#X obj 329 238 t b a;
#X text 371 237 1 load sample;
#X obj 302 57 bng 15 250 50 0 empty empty empty 17 7 0 10 -262144 -1
-1;
#X obj 328 53 inlet;
#X obj 370 95 + 1;
#X obj 328 104 i;
#X obj 370 117 %, f 6;
#X text 120 59 bang to load new sample;
#X obj 328 146 + 100;
#X obj 329 194 cyclone/prepend read;
#X text 82 24 get sampl amount from MANAGE SAMPLES subpachg;
#X msg 222 393 smpgranu4;
#X floatatom 424 86 5 0 0 0 - - -, f 5;
#X obj 409 28 r SMPL_VOICE_AMT, f 7;
#X msg 328 168 /home/ccrma/pd/sample/VOICE/VC_SMPL0\$1.wav;
#X obj 523 371 s smp4Len;
#X msg 58 223 sample smpgranu4;
#X obj 200 333 tof/sample_unpack;
#X obj 398 268 tof/sample smpgranu4;
#X msg 73 168 /home/ccrma/pd/sample/Rim2.wav;
#X connect 0 0 1 0;
#X connect 1 0 31 0;
#X connect 1 0 34 0;
#X connect 3 0 32 0;
#X connect 12 0 4 0;
#X connect 12 0 11 0;
#X connect 13 0 26 0;
#X connect 14 0 5 0;
#X connect 15 0 3 0;
#X connect 15 1 33 0;
#X connect 17 0 20 0;
#X connect 18 0 20 0;
#X connect 19 0 21 0;
#X connect 20 0 19 0;
#X connect 20 0 23 0;
#X connect 21 0 20 1;
#X connect 23 0 29 0;
#X connect 24 0 15 0;
#X connect 28 0 27 0;
#X connect 28 0 21 1;
#X connect 29 0 24 0;
#X connect 31 0 32 0;
#X connect 32 1 12 0;
#X connect 32 2 13 0;
#X connect 32 6 14 0;
#X connect 32 6 30 0;
#X connect 34 0 15 0;
#X restore 517 149 pd manage_VOICE_SMPLS_4;
#X obj 214 36 r SMPL_SELECT;
#X obj 320 37 r PTCH3_PAR_D1;
#X obj 232 102 bng 15 250 50 0 empty empty empty 17 7 0 10 -262144
-1 -1;
#X text 512 106 load sample 4;
#X obj 258 101 bng 15 250 50 0 empty empty empty 17 7 0 10 -262144
-1 -1;
#X obj 302 100 bng 15 250 50 0 empty empty empty 17 7 0 10 -262144
-1 -1;
#X obj 214 59 + 1;
#X floatatom 214 84 5 0 0 0 - - -, f 5;
#X obj 517 123 bng 15 250 50 0 empty load_smpl_at_start load_smpl_at_start
17 7 0 10 -262144 -1 -1;
#X text 327 57 load new sample;
#X obj 267 78 cyclone/gate 4 1;
#X connect 0 0 4 0;
#X connect 1 0 5 0;
#X connect 6 0 8 0;
#X connect 11 0 17 0;
#X connect 12 0 21 1;
#X connect 17 0 18 0;
#X connect 17 0 21 0;
#X connect 19 0 10 0;
#X connect 21 0 13 0;
#X connect 21 0 4 0;
#X connect 21 1 5 0;
#X connect 21 1 15 0;
#X connect 21 2 8 0;
#X connect 21 2 16 0;
#X connect 21 3 10 0;
#X connect 21 3 9 0;
#X restore 921 70 pd manage_samples;
#X text 235 124 changes the range of duration;
#X text 82 125 grain length factor;
#N canvas 428 172 988 586 LCGATE*4 0;
#X obj 92 532 outlet;
#X text 513 486 compare value of brightest sensor;
#X text 513 499 with our treszhold \, only output sound if its larger
;
#X text 405 104 if no light is on \, there is no sound!!!;
#X text 406 92 kind of like noise gate?;
#X text 578 414 treszhold;
#X text 580 426 najlepiej od 250-450;
#X obj 92 492 change;
#X text 517 528 filter out repetitions;
#X text 457 249 because they control different samples;
#X text 89 554 light gate 1;
#X floatatom 528 449 5 0 0 0 - - -, f 5;
#X text 201 79 All sensors as list;
#X text 564 368 my own scaling;
#X text 582 393 inverse - 1-x;
#X text 629 563 0-1;
#X text 456 235 separately for first and last 16 LDRS;
#X text 582 442 ale inne pacze potrzebuja innego;
#X floatatom 142 349 5 0 0 0 - - -, f 5;
#X obj 92 107 list split 8, f 30;
#X floatatom 132 175 5 0 0 0 - - -, f 5;
#X floatatom 41 168 5 0 0 0 - - -, f 5;
#X text 421 142 TRESHOLDS DETECT FOR 1 row;
#X text 197 91 rest of ldrs to next raw;
#X obj 195 533 outlet;
#X obj 195 493 change;
#X text 192 555 light gate 1;
#X floatatom 245 350 5 0 0 0 - - -, f 5;
#X obj 307 533 outlet;
#X obj 307 493 change;
#X text 304 555 light gate 1;
#X floatatom 357 350 5 0 0 0 - - -, f 5;
#X obj 403 532 outlet;
#X obj 403 492 change;
#X text 400 554 light gate 1;
#X floatatom 453 349 5 0 0 0 - - -, f 5;
#X obj 195 138 list split 8, f 28;
#X floatatom 235 192 5 0 0 0 - - -, f 5;
#X obj 307 170 list split 8, f 28;
#X floatatom 347 224 48 0 0 0 - - -, f 48;
#X obj 508 299 r GLOBAL_SENS_TRESH;
#X obj 508 380 f;
#X obj 41 148 list length;
#X obj 132 155 list length;
#X obj 235 172 list length;
#X obj 347 204 list length;
#X obj 92 43 r LDRS_INV_10_SMT_list;
#X obj 45 487 print;
#X obj 92 289 smlib/vmax;
#X obj 195 290 smlib/vmax;
#X obj 307 290 smlib/vmax;
#X obj 403 289 smlib/vmax;
#X obj 92 452 >;
#X obj 195 453 >;
#X obj 307 453 >;
#X obj 403 452 >;
#X connect 7 0 0 0;
#X connect 19 0 42 0;
#X connect 19 0 48 0;
#X connect 19 1 36 0;
#X connect 19 1 43 0;
#X connect 25 0 24 0;
#X connect 29 0 28 0;
#X connect 33 0 32 0;
#X connect 36 0 49 0;
#X connect 36 1 38 0;
#X connect 36 1 44 0;
#X connect 38 0 50 0;
#X connect 38 1 45 0;
#X connect 38 1 51 0;
#X connect 40 0 41 0;
#X connect 41 0 11 0;
#X connect 41 0 52 1;
#X connect 41 0 53 1;
#X connect 41 0 54 1;
#X connect 41 0 55 1;
#X connect 42 0 21 0;
#X connect 43 0 20 0;
#X connect 44 0 37 0;
#X connect 45 0 39 0;
#X connect 46 0 19 0;
#X connect 48 0 18 0;
#X connect 48 0 52 0;
#X connect 49 0 27 0;
#X connect 49 0 53 0;
#X connect 50 0 31 0;
#X connect 50 0 54 0;
#X connect 51 0 35 0;
#X connect 51 0 55 0;
#X connect 52 0 7 0;
#X connect 53 0 25 0;
#X connect 54 0 29 0;
#X connect 55 0 33 0;
#X restore 90 498 pd LCGATE*4;
#X obj 349 56 1_ARD_DIG_BTN;
#X obj 475 59 1_ARD_DIG_BTN;
#X obj 600 59 1_ARD_DIG_SW;
#X connect 8 0 9 0;
#X connect 8 0 11 0;
#X connect 9 0 0 0;
#X connect 9 1 1 0;
#X connect 9 2 111 0;
#X connect 9 3 112 0;
#X connect 9 4 113 0;
#X connect 11 0 10 0;
#X connect 12 0 11 1;
#X connect 23 0 15 0;
#X connect 23 1 16 0;
#X connect 23 2 17 0;
#X connect 23 3 18 0;
#X connect 31 0 33 0;
#X connect 35 0 43 1;
#X connect 35 0 44 1;
#X connect 40 0 45 0;
#X connect 43 0 39 0;
#X connect 43 0 13 0;
#X connect 43 0 14 0;
#X connect 44 0 46 0;
#X connect 44 0 13 0;
#X connect 45 0 35 0;
#X connect 48 0 29 0;
#X connect 50 0 33 0;
#X connect 50 0 49 0;
#X connect 51 0 24 0;
#X connect 51 0 29 0;
#X connect 52 0 53 0;
#X connect 55 0 54 0;
#X connect 57 0 56 0;
#X connect 59 0 58 0;
#X connect 60 0 65 0;
#X connect 60 0 69 0;
#X connect 60 1 61 0;
#X connect 61 0 66 0;
#X connect 61 0 71 0;
#X connect 61 1 62 0;
#X connect 62 0 67 0;
#X connect 62 0 72 0;
#X connect 62 1 63 0;
#X connect 63 0 68 0;
#X connect 63 0 82 0;
#X connect 69 0 73 0;
#X connect 69 1 83 0;
#X connect 69 2 23 0;
#X connect 70 0 39 0;
#X connect 70 0 13 0;
#X connect 70 0 14 0;
#X connect 71 0 74 0;
#X connect 71 1 84 0;
#X connect 72 0 85 0;
#X connect 72 1 87 0;
#X connect 73 0 43 0;
#X connect 74 0 70 0;
#X connect 77 0 76 0;
#X connect 79 0 76 0;
#X connect 79 0 75 0;
#X connect 80 0 79 0;
#X connect 81 0 80 0;
#X connect 82 0 86 0;
#X connect 82 1 88 0;
#X connect 83 0 44 0;
#X connect 84 0 89 0;
#X connect 85 0 90 0;
#X connect 86 0 92 0;
#X connect 87 0 91 0;
#X connect 88 0 93 0;
#X connect 89 0 46 0;
#X connect 89 0 13 0;
#X connect 90 0 39 0;
#X connect 90 0 13 0;
#X connect 90 0 14 0;
#X connect 91 0 46 0;
#X connect 91 0 13 0;
#X connect 92 0 39 0;
#X connect 92 0 13 0;
#X connect 92 0 14 0;
#X connect 93 0 46 0;
#X connect 93 0 13 0;
#X connect 94 0 93 1;
#X connect 94 0 92 1;
#X connect 95 0 96 0;
#X connect 96 0 94 0;
#X connect 98 0 89 1;
#X connect 98 0 70 1;
#X connect 99 0 100 0;
#X connect 100 0 98 0;
#X connect 101 0 91 1;
#X connect 101 0 90 1;
#X connect 102 0 103 0;
#X connect 103 0 101 0;
#X connect 104 0 106 0;
#X connect 106 0 105 0;
#X connect 110 0 40 0;
#X connect 110 1 99 0;
#X connect 110 2 102 0;
#X connect 110 3 95 0;
#X connect 111 0 6 0;
#X connect 111 1 2 0;
#X connect 112 0 5 0;
#X connect 112 0 3 0;
#X connect 113 0 7 0;
#X connect 113 0 4 0;
