#N canvas 0 51 1067 762 10;
#X obj 139 105 s PTCH3_PAR_A1;
#X obj 264 107 s PTCH3_PAR_A2;
#X obj 408 108 s PTCH3_PAR_D1;
#X obj 514 109 s PTCH3_PAR_D2;
#X obj 640 107 s PTCH3_PAR_D3;
#X obj 616 111 bng 15 250 50 0 empty empty empty 17 7 0 10 -262144
-1 -1;
#X obj 389 108 bng 15 250 50 0 empty empty empty 17 7 0 10 -262144
-1 -1;
#X obj 738 109 tgl 15 0 empty empty empty 17 7 0 10 -262144 -1 -1 1
1;
#X obj 139 38 r PTCH3_CTRL_LIST;
#X obj 139 64 unpack f f f f f, f 72;
#X obj 367 647 throw~ ch3;
#X obj 472 646 throw~ ch3pre;
#X floatatom 309 183 5 0 0 0 - - -, f 5;
#X text 404 125 load new sample;
#X text 274 41 Pitchshifts or timestretches sample with the granular
method;
#X obj 285 199 s durFACTOR;
#X text 289 144 changes the range of duration;
#X floatatom 211 180 5 0 0 0 - - -, f 5;
#X text 136 145 grain length factor;
#X obj 154 198 s grainLENfactor;
#N canvas 293 233 856 631 trigSAMPLE2 0;
#X obj 368 308 *;
#X floatatom 110 417 15 0 0 0 - - -, f 15;
#X obj 329 375 *;
#X obj 72 576 speedlim 100;
#X floatatom 410 357 5 0 0 0 - - -, f 5;
#X obj 518 582 bng 15 250 50 0 empty empty empty 17 7 0 10 -262144
-1 -1;
#X msg 329 429 grain \$1;
#X obj 319 165 bng 15 250 50 0 empty empty empty 17 7 0 10 -262144
-1 -1;
#X obj 539 199 random;
#X floatatom 188 534 10 0 0 0 - - -, f 10;
#X obj 539 514 *;
#X text 207 449 grain length (# of samples);
#X text 557 426 Inlet 3 \, float:Dur in ms;
#X text 105 375 grain2 length;
#X text 118 525 Dur in ms;
#X obj 72 179 bng 15 250 50 0 empty empty empty 17 7 0 10 -262144 -1
-1;
#X text 69 161 trig2;
#X obj 72 598 outlet;
#X floatatom 149 220 5 0 0 0 - - -, f 5;
#X text 114 218 picz;
#X obj 72 555 pack symbol f f f;
#X obj 557 488 r durFACTOR;
#X obj 379 330 r grainLENfactor;
#X obj 320 584 outlet~;
#X obj 384 583 outlet~;
#X floatatom 586 533 5 0 0 0 - - -, f 5;
#X text 557 470 * dur factor from pot;
#X floatatom 687 130 5 0 0 0 - - -, f 5;
#X text 337 230 In 2 \, float:Pitch(1=original);
#X text 206 430 In 1 \, grain float:;
#X text 115 162 In 1 \, bang: Play sample once;
#X text 344 244 based only on brigh sensor;
#X obj 696 67 r durFACTOR;
#X obj 322 121 t b b b b, f 37;
#X text 626 540 random based on;
#X text 557 455 scaled smp len * pot;
#X text 204 465 randomized based on smp len;
#X obj 329 332 random;
#X text 229 494 * grain Factor from pot;
#X obj 379 355 * 2;
#X text 225 478 * brightsest LDR / 16 -1;
#X floatatom 725 178 5 0 0 0 - - -, f 5;
#X text 703 111 len in samples;
#X text 726 127 from sample;
#X text 765 179 ms;
#X obj 615 154 *;
#X floatatom 630 177 9 0 0 0 - - -, f 9;
#X obj 329 187 bng 15 250 50 0 empty empty empty 17 7 0 10 -262144
-1 -1;
#X obj 696 91 * 0.5;
#X obj 368 283 - 1;
#X text 298 256 pitch is always 0-2 in this patch;
#X obj 657 153 cyclone/sampstoms~;
#X obj 419 161 r min_sens;
#X floatatom 381 196 5 0 0 0 - - -, f 5;
#X obj 419 200 / 32;
#X obj 598 116 r smp4Len;
#X obj 322 32 inlet;
#X obj 319 558 tof/sample_granule~ smpgranu4;
#X obj 337 97 bng 15 250 50 0 empty empty empty 17 7 0 10 -262144 -1
-1;
#X obj 353 72 bng 15 250 50 0 empty empty empty 17 7 0 10 -262144 -1
-1;
#X connect 0 0 37 1;
#X connect 1 0 20 1;
#X connect 2 0 6 0;
#X connect 2 0 1 0;
#X connect 3 0 17 0;
#X connect 6 0 57 0;
#X connect 7 0 15 0;
#X connect 7 0 57 0;
#X connect 8 0 10 0;
#X connect 9 0 20 3;
#X connect 10 0 9 0;
#X connect 10 0 57 2;
#X connect 15 0 20 0;
#X connect 18 0 20 2;
#X connect 20 0 3 0;
#X connect 21 0 10 1;
#X connect 21 0 25 0;
#X connect 22 0 4 0;
#X connect 22 0 39 0;
#X connect 32 0 48 0;
#X connect 33 0 7 0;
#X connect 33 1 47 0;
#X connect 33 2 8 0;
#X connect 33 3 45 0;
#X connect 37 0 2 0;
#X connect 39 0 2 1;
#X connect 45 0 8 1;
#X connect 45 0 46 0;
#X connect 47 0 37 0;
#X connect 48 0 45 1;
#X connect 49 0 0 0;
#X connect 51 1 41 0;
#X connect 52 0 53 0;
#X connect 52 0 54 0;
#X connect 54 0 18 0;
#X connect 54 0 49 0;
#X connect 54 0 57 1;
#X connect 55 0 27 0;
#X connect 55 0 45 0;
#X connect 55 0 0 1;
#X connect 55 0 51 0;
#X connect 56 0 33 0;
#X connect 56 0 59 0;
#X connect 57 0 23 0;
#X connect 57 1 24 0;
#X connect 57 3 5 0;
#X connect 58 0 33 0;
#X restore 883 282 pd trigSAMPLE2;
#X obj 210 511 line~;
#X text 567 322 Wazne - ten sampler pliki stereo traktuje inaczej \,
obydwa maja inne parametry/brzmienia \, dlatego so dwa utlety. Pliki
modo daja dwa razy to samo;
#X text 700 39 for stereo files L ch != R ch;
#X obj 145 645 throw~ PATCH3L;
#X obj 144 562 *~;
#X obj 190 563 *~;
#X msg 210 487 \$1 10;
#X obj 252 644 throw~ PATCH3R;
#X text 578 644 out;
#X floatatom 359 183 5 0 0 0 - - -, f 5;
#X floatatom 161 180 5 0 0 0 - - -, f 5;
#X obj 154 159 r PTCH3_PAR_A1;
#X obj 285 163 r PTCH3_PAR_A2;
#X obj 607 182 r smp1Len;
#X floatatom 609 200 5 0 0 0 - - -, f 5;
#X floatatom 696 200 5 0 0 0 - - -, f 5;
#X obj 694 182 r smp2Len;
#X floatatom 783 200 9 0 0 0 - - -, f 9;
#X obj 781 182 r smp3Len;
#X floatatom 870 200 10 0 0 0 - - -, f 10;
#X obj 868 182 r smp4Len;
#N canvas 599 142 774 705 GRAN1_TRIG 0;
#X obj 257 197 *;
#X obj 218 291 *;
#X text 485 161 from sample;
#X obj 126 550 tgl 15 0 empty empty empty 17 7 0 10 -262144 -1 -1 0
1;
#X text 145 548 Inlet 1 \, float: Start/stop playing looped sample
;
#X obj 315 614 bng 15 250 50 0 empty empty empty 17 7 0 10 -262144
-1 -1;
#X text 331 612 Outlet 4 \, bang: done;
#X msg 138 325 grain \$1;
#X obj 222 39 bng 15 250 50 0 empty empty empty 17 7 0 10 -262144 -1
-1;
#X obj 115 95 bng 15 250 50 0 empty empty empty 17 7 0 10 -262144 -1
-1;
#X text 133 93 Inlet 1 \, bang: Play sample once;
#X text 491 483 Inlet 3 \, float: Duration in milliseconds;
#X floatatom 447 162 5 0 0 0 - - -, f 5;
#X floatatom 301 325 5 0 0 0 - - -, f 5;
#X obj 396 211 random;
#X obj 115 65 t b b b, f 30;
#X text 17 467 Inlet 1 \, grain float:;
#X floatatom 410 488 10 0 0 0 - - -, f 10;
#X obj 396 431 *;
#X text 140 377 grain length;
#X text 21 483 grain length (# of samples);
#X text 339 324 In 2-Pitch 1=original;
#X floatatom 318 361 5 0 0 0 - - -, f 5;
#X text 314 342 picz;
#X text 407 505 Dur in ms;
#X obj 414 408 r durFACTOR;
#X obj 236 262 r grainLENfactor;
#X obj 114 618 outlet~;
#X obj 180 618 outlet~;
#X text 545 514 * dur factor from pot;
#X text 490 498 random based on;
#X text 491 513 smp len;
#X text 359 62 based only on brigh sensor;
#X text 353 72 pitch is always 0-1 in this patch;
#X obj 218 229 random;
#X text 13 499 randomized based on smp len;
#X text 15 527 * grain Factor from pot;
#X floatatom 148 362 9 0 0 0 - - -, f 9;
#X text 10 512 * brightsest LDR / 32;
#X obj 115 14 inlet;
#X obj 435 132 r smp1Len;
#X obj 115 572 tof/sample_granule~ smpgranu1;
#X obj 182 42 bng 15 250 50 0 empty empty empty 17 7 0 10 -262144 -1
-1;
#X text 158 13 trig;
#X obj 301 199 + 0.1;
#X obj 257 133 inlet 01-sens;
#X connect 0 0 34 1;
#X connect 1 0 7 0;
#X connect 1 0 37 0;
#X connect 3 0 41 0;
#X connect 7 0 41 0;
#X connect 8 0 15 0;
#X connect 9 0 41 0;
#X connect 13 0 22 0;
#X connect 13 0 41 1;
#X connect 14 0 18 0;
#X connect 15 0 9 0;
#X connect 15 1 34 0;
#X connect 15 2 14 0;
#X connect 18 0 17 0;
#X connect 18 0 41 2;
#X connect 25 0 18 1;
#X connect 26 0 1 1;
#X connect 34 0 1 0;
#X connect 39 0 15 0;
#X connect 39 0 42 0;
#X connect 40 0 0 1;
#X connect 40 0 12 0;
#X connect 40 0 14 1;
#X connect 41 0 27 0;
#X connect 41 1 28 0;
#X connect 41 3 5 0;
#X connect 44 0 13 0;
#X connect 45 0 0 0;
#X connect 45 0 44 0;
#X restore 144 365 pd GRAN1_TRIG;
#X obj 254 563 *~;
#N canvas 411 109 774 705 GRAN2_TRIG 0;
#X obj 369 203 *;
#X obj 239 305 *;
#X text 580 147 from sample;
#X floatatom 269 303 5 0 0 0 - - -, f 5;
#X obj 126 520 tgl 15 0 empty empty empty 17 7 0 10 -262144 -1 -1 0
1;
#X text 145 518 Inlet 1 \, float: Start/stop playing looped sample
;
#X obj 308 564 bng 15 250 50 0 empty empty empty 17 7 0 10 -262144
-1 -1;
#X text 324 562 Outlet 4 \, bang: done;
#X msg 133 350 grain \$1;
#X obj 208 49 bng 15 250 50 0 empty empty empty 17 7 0 10 -262144 -1
-1;
#X obj 115 95 bng 15 250 50 0 empty empty empty 17 7 0 10 -262144 -1
-1;
#X text 133 93 Inlet 1 \, bang: Play sample once;
#X text 131 463 Inlet 3 \, float: Duration in milliseconds;
#X floatatom 542 148 5 0 0 0 - - -, f 5;
#X floatatom 420 346 5 0 0 0 - - -, f 5;
#X obj 493 200 random;
#X obj 115 70 t b b b, f 36;
#X text 107 614 Inlet 1 \, grain float:;
#X floatatom 513 471 10 0 0 0 - - -, f 10;
#X obj 493 453 *;
#X text 142 370 grain length;
#X text 111 630 grain length (# of samples);
#X text 458 345 In 2-Pitch 1=original;
#X obj 56 155 bng 15 250 50 0 empty empty empty 17 7 0 10 -262144 -1
-1;
#X text 56 137 trig1;
#X floatatom 435 379 5 0 0 0 - - -, f 5;
#X text 431 360 picz;
#X text 333 466 Dur in ms;
#X obj 511 430 r durFACTOR;
#X obj 257 276 r grainLENfactor;
#X obj 114 588 outlet~;
#X obj 178 588 outlet~;
#X text 185 494 * dur factor from pot;
#X text 130 478 random based on;
#X text 131 493 smp len;
#X text 528 58 based only on brigh sensor;
#X text 522 68 pitch is always 0-1 in this patch;
#X obj 239 233 random, f 19;
#X text 113 646 randomized based on smp len;
#X text 115 674 * grain Factor from pot;
#X floatatom 209 351 9 0 0 0 - - -, f 9;
#X text 110 659 * brightsest LDR / 32;
#X floatatom 139 153 5 0 0 0 - - -, f 5;
#X obj 132 121 r min_sens;
#X obj 109 7 inlet;
#X obj 93 49 bng 15 250 50 0 empty empty empty 17 7 0 10 -262144 -1
-1;
#X text 127 23 trig;
#X obj 532 118 r smp2Len;
#X floatatom 436 92 5 0 0 0 - - -, f 5;
#X obj 115 541 tof/sample_granule~ smpgranu2;
#X obj 419 63 inlet sens-01;
#X connect 0 0 37 1;
#X connect 1 0 8 0;
#X connect 1 0 40 0;
#X connect 4 0 49 0;
#X connect 8 0 49 0;
#X connect 9 0 16 0;
#X connect 10 0 23 0;
#X connect 10 0 49 0;
#X connect 14 0 25 0;
#X connect 14 0 49 1;
#X connect 15 0 19 0;
#X connect 16 0 10 0;
#X connect 16 1 37 0;
#X connect 16 2 15 0;
#X connect 19 0 18 0;
#X connect 19 0 49 2;
#X connect 28 0 19 1;
#X connect 29 0 1 1;
#X connect 29 0 3 0;
#X connect 37 0 1 0;
#X connect 43 0 42 0;
#X connect 44 0 16 0;
#X connect 44 0 45 0;
#X connect 47 0 0 1;
#X connect 47 0 13 0;
#X connect 47 0 15 1;
#X connect 49 0 30 0;
#X connect 49 1 31 0;
#X connect 49 3 6 0;
#X connect 50 0 0 0;
#X connect 50 0 48 0;
#X connect 50 0 14 0;
#X restore 255 365 pd GRAN2_TRIG;
#N canvas 384 104 907 716 GRAN3_TRIG 0;
#X obj 251 182 *;
#X obj 212 294 *;
#X text 559 102 from sample;
#X obj 96 520 tgl 15 0 empty empty empty 17 7 0 10 -262144 -1 -1 0
1;
#X text -62 470 Inlet 1 \, float: Start/stop playing looped sample
;
#X obj 308 564 bng 15 250 50 0 empty empty empty 17 7 0 10 -262144
-1 -1;
#X text 324 562 Outlet 4 \, bang: done;
#X msg 140 381 grain \$1;
#X obj 130 32 bng 15 250 50 0 empty empty empty 17 7 0 10 -262144 -1
-1;
#X obj 115 95 bng 15 250 50 0 empty empty empty 17 7 0 10 -262144 -1
-1;
#X text 133 93 Inlet 1 \, bang: Play sample once;
#X text 334 593 Inlet 3 \, float: Duration in milliseconds;
#X floatatom 521 103 5 0 0 0 - - -, f 5;
#X floatatom 260 385 5 0 0 0 - - -, f 5;
#X obj 415 294 random;
#X obj 116 57 t b b b, f 28;
#X text -85 386 Inlet 1 \, grain float:;
#X floatatom 447 372 10 0 0 0 - - -, f 10;
#X obj 415 341 *;
#X text 143 419 grain length;
#X text -81 402 grain length (# of samples);
#X text 205 528 In 2-Pitch 1=original;
#X text 66 97 trig1;
#X text 270 405 picz;
#X text 436 393 Dur in ms;
#X obj 433 318 r durFACTOR;
#X obj 230 252 r grainLENfactor;
#X obj 114 588 outlet~;
#X obj 178 588 outlet~;
#X text 392 624 * dur factor from pot;
#X text 333 608 random based on;
#X text 334 623 smp len;
#X text 348 30 based only on brigh sensor;
#X text 536 118 pitch is always 0-1 in this patch;
#X obj 212 219 random;
#X text -79 418 randomized based on smp len;
#X text -77 446 * grain Factor from pot;
#X floatatom 147 405 9 0 0 0 - - -, f 9;
#X text -82 431 * brightsest LDR / 32;
#X floatatom 395 98 5 0 0 0 - - -, f 5;
#X obj 112 6 inlet;
#X obj 86 34 bng 15 250 50 0 empty empty empty 17 7 0 10 -262144 -1
-1;
#X text 164 9 trig;
#X obj 511 73 r smp3Len;
#X obj 260 350 + 0.05;
#X obj 115 541 tof/sample_granule~ smpgranu3;
#X obj 375 66 inlet 01-sens;
#X connect 0 0 34 1;
#X connect 1 0 7 0;
#X connect 1 0 37 0;
#X connect 3 0 45 0;
#X connect 7 0 45 0;
#X connect 8 0 15 0;
#X connect 9 0 45 0;
#X connect 13 0 45 1;
#X connect 14 0 18 0;
#X connect 15 0 9 0;
#X connect 15 1 34 0;
#X connect 15 2 14 0;
#X connect 18 0 17 0;
#X connect 18 0 45 2;
#X connect 25 0 18 1;
#X connect 26 0 1 1;
#X connect 34 0 1 0;
#X connect 40 0 15 0;
#X connect 40 0 41 0;
#X connect 43 0 0 1;
#X connect 43 0 12 0;
#X connect 43 0 14 1;
#X connect 44 0 13 0;
#X connect 45 0 27 0;
#X connect 45 1 28 0;
#X connect 45 3 5 0;
#X connect 46 0 0 0;
#X connect 46 0 44 0;
#X connect 46 0 39 0;
#X restore 367 364 pd GRAN3_TRIG;
#X obj 681 640 switch~;
#X floatatom 674 615 2 0 0 0 - - -, f 2;
#X text 691 614 dsp;
#X obj 698 588 tgl 15 0 empty empty empty 17 7 0 10 -262144 -1 -1 0
1;
#X obj 697 562 oneARDinCOMPARE 0.1;
#X floatatom 697 535 5 0 0 0 - patch3level -, f 5;
#N canvas 93 54 812 632 GRAN4_TRIG 0;
#X obj 424 245 *, f 20;
#X obj 168 401 *;
#X text 666 241 from sample;
#X floatatom 198 399 5 0 0 0 - - -, f 5;
#X obj 126 520 tgl 15 0 empty empty empty 17 7 0 10 -262144 -1 -1 0
1;
#X text 145 518 Inlet 1 \, float: Start/stop playing looped sample
;
#X obj 526 573 bng 15 250 50 0 empty empty empty 17 7 0 10 -262144
-1 -1;
#X text 542 571 Outlet 4 \, bang: done;
#X msg 189 425 grain \$1;
#X obj 130 32 bng 15 250 50 0 empty empty empty 17 7 0 10 -262144 -1
-1;
#X obj 115 95 bng 15 250 50 0 empty empty empty 17 7 0 10 -262144 -1
-1;
#X text 133 93 Inlet 1 \, bang: Play sample once;
#X text 456 500 Inlet 3 \, float: Duration in milliseconds;
#X floatatom 628 242 5 0 0 0 - - -, f 5;
#X floatatom 446 335 5 0 0 0 - - -, f 5;
#X obj 526 304 random;
#X obj 116 57 t b b b, f 59;
#X text 23 188 Inlet 1 \, grain float:;
#X floatatom 532 461 10 0 0 0 - - -, f 10;
#X obj 526 431 *;
#X text 166 449 grain length;
#X text 27 204 grain length (# of samples);
#X text 376 354 In 2-Pitch 1=original;
#X obj 388 109 bng 15 250 50 0 empty empty empty 17 7 0 10 -262144
-1 -1;
#X text 388 91 trig1;
#X text 379 375 picz;
#X text 540 478 Dur in ms;
#X obj 544 408 r durFACTOR;
#X obj 186 372 r grainLENfactor;
#X obj 114 588 outlet~;
#X obj 302 573 outlet~;
#X text 600 531 * dur factor from pot;
#X text 545 515 random based on;
#X text 546 530 smp len;
#X text 544 164 based only on brigh sensor;
#X text 538 174 pitch is always 0-1 in this patch;
#X obj 168 329 random, f 37;
#X text 29 220 randomized based on smp len;
#X text 31 248 * grain Factor from pot;
#X floatatom 34 479 9 0 0 0 - - -, f 9;
#X text 26 233 * brightsest LDR / 32;
#X obj 112 6 inlet;
#X obj 86 34 bng 15 250 50 0 empty empty empty 17 7 0 10 -262144 -1
-1;
#X text 164 9 trig;
#X obj 628 212 r smp4Len;
#X obj 115 541 tof/sample_granule~ smpgranu4, f 59;
#X obj 446 175 inlet 01-sens;
#X connect 0 0 36 1;
#X connect 1 0 8 0;
#X connect 1 0 39 0;
#X connect 4 0 45 0;
#X connect 8 0 45 0;
#X connect 9 0 16 0;
#X connect 10 0 23 0;
#X connect 10 0 45 0;
#X connect 14 0 45 1;
#X connect 15 0 19 0;
#X connect 16 0 10 0;
#X connect 16 1 36 0;
#X connect 16 2 15 0;
#X connect 19 0 18 0;
#X connect 19 0 45 2;
#X connect 27 0 19 1;
#X connect 28 0 1 1;
#X connect 28 0 3 0;
#X connect 36 0 1 0;
#X connect 41 0 16 0;
#X connect 41 0 42 0;
#X connect 44 0 0 1;
#X connect 44 0 13 0;
#X connect 44 0 15 1;
#X connect 45 0 29 0;
#X connect 45 1 30 0;
#X connect 45 3 6 0;
#X connect 46 0 0 0;
#X connect 46 0 14 0;
#X restore 470 365 pd GRAN4_TRIG;
#X obj 299 564 *~;
#X obj 368 567 *~;
#X obj 413 568 *~;
#X obj 471 568 *~;
#X obj 516 569 *~;
#X obj 543 509 line~;
#X msg 543 485 \$1 10;
#X text 560 539 avoid clicks;
#X obj 321 514 line~;
#X msg 321 490 \$1 10;
#X obj 432 517 line~;
#X msg 432 493 \$1 10;
#X obj 790 67 loadbang \; load_smpl_at_start bang;
#X msg 790 124 \; load_smpl_at_start bang;
#X obj 790 103 del 5000;
#N canvas 423 359 799 218 manage_samples 0;
#X obj 54 122 bng 15 250 50 0 empty load_smpl_at_start load_smpl_at_start
17 7 0 10 -262144 -1 -1;
#X obj 216 126 bng 15 250 50 0 empty load_smpl_at_start load_smpl_at_start
17 7 0 10 -262144 -1 -1;
#X text 53 105 LOAD/MANAGE samples;
#X text 235 116 load sample 2;
#N canvas 219 345 992 500 manage_kik_SMPLES1 0;
#X obj 83 30 loadbang;
#X obj 83 52 del 5000;
#X text 441 248 Inlet 1;
#X text 503 245 read symbol: Read sound file into the sample's tables
;
#X text 430 301 Loads a sound file (wav) as a sample;
#X text 12 307 symbol: Sample name;
#X text 430 327 Argument 1;
#X text 430 339 Argument 2 (optional):;
#X text 429 352 symbol: Sound file to read into the sample's tables
when created;
#X text 430 314 and puts into smpgranu table;
#X obj 100 249 bng 15 250 50 0 empty empty empty 17 7 0 10 -262144
-1 -1;
#X msg 86 383 /home/ccrma/pd/sample/KIKS/KC_SMPL0100.wav;
#X obj 287 317 prepend set;
#X msg 287 339 19287;
#X text 86 344 name of sample;
#X text 175 362 name of table in which s is stored;
#X text 331 291 duration;
#X text 12 320 outputs info about sample;
#X text 13 294 arg-table sample name;
#X obj 399 203 t b a;
#X text 441 202 1 load sample;
#X text 192 242 2 get sample info;
#X obj 372 22 bng 15 250 50 0 empty empty empty 17 7 0 10 -262144 -1
-1;
#X obj 398 18 inlet;
#X obj 47 415 outlet;
#X obj 87 360 prepend set;
#X obj 194 318 prepend set;
#X floatatom 497 61 5 0 0 0 - - -, f 5;
#X obj 479 17 r SMPL_KIKS_AMT;
#X obj 440 60 + 1;
#X text 190 24 bang to load new sample;
#X text 514 325 symbol: Sample name;
#X obj 398 111 + 100;
#X msg 398 133 /home/ccrma/pd/sample/KIKS/KC_SMPL0\$1.wav;
#X obj 399 159 cyclone/prepend read;
#X text 549 51 get sampl amount from MANAGE SAMPLES subpachg;
#X msg 81 73 sample smpgranu1;
#X msg 194 342 smpgranu1;
#X obj 337 340 s smp1Len;
#X obj 82 272 tof/sample_unpack, f 31;
#X obj 431 265 tof/sample smpgranu1;
#X msg 141 157 /home/ccrma/pd/sample/Rim2.wav;
#X floatatom 359 103 5 0 0 0 - - -, f 5;
#X obj 401 85 % 28, f 6;
#X obj 398 59 i;
#X connect 0 0 1 0;
#X connect 1 0 36 0;
#X connect 1 0 41 0;
#X connect 10 0 39 0;
#X connect 12 0 13 0;
#X connect 19 0 10 0;
#X connect 19 1 40 0;
#X connect 22 0 44 0;
#X connect 23 0 44 0;
#X connect 25 0 11 0;
#X connect 25 0 24 0;
#X connect 26 0 37 0;
#X connect 28 0 27 0;
#X connect 28 0 43 1;
#X connect 29 0 44 1;
#X connect 32 0 33 0;
#X connect 33 0 34 0;
#X connect 34 0 19 0;
#X connect 36 0 39 0;
#X connect 39 1 25 0;
#X connect 39 2 26 0;
#X connect 39 6 12 0;
#X connect 39 6 38 0;
#X connect 41 0 19 0;
#X connect 43 0 32 0;
#X connect 44 0 29 0;
#X connect 44 0 42 0;
#X connect 44 0 43 0;
#X restore 54 148 pd manage_kik_SMPLES1;
#N canvas 428 213 685 475 manage_FX_SMPLS_2 0;
#X obj 58 139 loadbang;
#X obj 58 161 del 5000;
#X text 53 120 symbol: Sample name;
#X obj 200 273 bng 15 250 50 0 empty empty empty 17 7 0 10 -262144
-1 -1;
#X msg 222 393 smpgranu2;
#X msg 126 424 /home/ccrma/pd/sample/FX/FX_SMPL0100.wav;
#X msg 363 392 36581;
#X text 84 392 name of sample;
#X text 408 392 duration;
#X text 54 96 outputs info about sample;
#X text 54 107 arg-table sample name;
#X text 227 276 2 get sample info;
#X msg 58 233 sample smpgranu2;
#X obj 523 371 s smp2Len;
#X obj 72 424 outlet;
#X obj 72 369 cyclone/prepend set;
#X obj 222 369 cyclone/prepend set;
#X obj 364 368 cyclone/prepend set;
#X obj 329 238 t b a;
#X text 371 237 1 load sample;
#X obj 302 57 bng 15 250 50 0 empty empty empty 17 7 0 10 -262144 -1
-1;
#X obj 328 53 inlet;
#X obj 370 95 + 1;
#X obj 328 104 i;
#X obj 370 117 %, f 6;
#X text 120 59 bang to load new sample;
#X obj 328 146 + 100;
#X obj 329 194 cyclone/prepend read;
#X text 192 28 get sampl amount from MANAGE SAMPLES subpachg;
#X floatatom 421 81 5 0 0 0 - - -, f 5;
#X obj 409 59 r SMPL_FX_AMT;
#X msg 328 168 /home/ccrma/pd/sample/FX/FX_SMPL0\$1.wav;
#X obj 200 333 tof/sample_unpack;
#X obj 398 268 tof/sample smpgranu2;
#X msg 99 204 /home/ccrma/pd/sample/Rim2.wav;
#X connect 0 0 1 0;
#X connect 1 0 12 0;
#X connect 1 0 34 0;
#X connect 3 0 32 0;
#X connect 12 0 32 0;
#X connect 15 0 5 0;
#X connect 15 0 14 0;
#X connect 16 0 4 0;
#X connect 17 0 6 0;
#X connect 18 0 3 0;
#X connect 18 1 33 0;
#X connect 20 0 23 0;
#X connect 21 0 23 0;
#X connect 22 0 24 0;
#X connect 23 0 22 0;
#X connect 23 0 26 0;
#X connect 24 0 23 1;
#X connect 26 0 31 0;
#X connect 27 0 18 0;
#X connect 30 0 29 0;
#X connect 30 0 24 1;
#X connect 31 0 27 0;
#X connect 32 1 15 0;
#X connect 32 2 16 0;
#X connect 32 6 13 0;
#X connect 32 6 17 0;
#X connect 34 0 18 0;
#X restore 216 149 pd manage_FX_SMPLS_2;
#X obj 365 126 bng 15 250 50 0 empty load_smpl_at_start load_smpl_at_start
17 7 0 10 -262144 -1 -1;
#X text 383 109 load sample 3;
#N canvas 327 192 893 587 manage_SNR_SMPLS_3 0;
#X obj 58 159 loadbang;
#X obj 58 181 del 5000;
#X text 53 140 symbol: Sample name;
#X obj 200 273 bng 15 250 50 0 empty empty empty 17 7 0 10 -262144
-1 -1;
#X msg 126 424 /home/ccrma/pd/sample/SNRS/SNR_SMPL0100.wav;
#X msg 363 392 589990;
#X text 84 392 name of sample;
#X text 408 392 duration;
#X text 54 116 outputs info about sample;
#X text 54 127 arg-table sample name;
#X text 227 276 2 get sample info;
#X obj 72 424 outlet;
#X obj 72 369 cyclone/prepend set;
#X obj 222 369 cyclone/prepend set;
#X obj 364 368 cyclone/prepend set;
#X obj 329 238 t b a;
#X text 371 237 1 load sample;
#X obj 302 57 bng 15 250 50 0 empty empty empty 17 7 0 10 -262144 -1
-1;
#X obj 328 53 inlet;
#X obj 370 95 + 1;
#X obj 328 104 i;
#X obj 370 117 %, f 6;
#X text 120 59 bang to load new sample;
#X obj 328 146 + 100;
#X obj 329 194 cyclone/prepend read;
#X text 474 34 get sampl amount from MANAGE SAMPLES subpachg;
#X floatatom 419 81 5 0 0 0 - - -, f 5;
#X obj 409 29 r SMPL_SNRS_AMT, f 7;
#X msg 328 168 /home/ccrma/pd/sample/SNRS/SNR_SMPL0\$1.wav;
#X msg 58 253 sample smpgranu3;
#X obj 523 371 s smp3Len;
#X msg 222 393 smpgranu3;
#X obj 200 333 tof/sample_unpack;
#X obj 398 268 tof/sample smpgranu3;
#X msg 73 211 /home/ccrma/pd/sample/Rim2.wav;
#X connect 0 0 1 0;
#X connect 1 0 29 0;
#X connect 1 0 34 0;
#X connect 3 0 32 0;
#X connect 12 0 4 0;
#X connect 12 0 11 0;
#X connect 13 0 31 0;
#X connect 14 0 5 0;
#X connect 15 0 3 0;
#X connect 15 1 33 0;
#X connect 17 0 20 0;
#X connect 18 0 20 0;
#X connect 19 0 21 0;
#X connect 20 0 19 0;
#X connect 20 0 23 0;
#X connect 21 0 20 1;
#X connect 23 0 28 0;
#X connect 24 0 15 0;
#X connect 27 0 26 0;
#X connect 27 0 21 1;
#X connect 28 0 24 0;
#X connect 29 0 32 0;
#X connect 32 1 12 0;
#X connect 32 2 13 0;
#X connect 32 6 14 0;
#X connect 32 6 30 0;
#X connect 34 0 15 0;
#X restore 365 149 pd manage_SNR_SMPLS_3;
#X obj 333 100 bng 15 250 50 0 empty empty empty 17 7 0 10 -262144
-1 -1;
#N canvas 162 127 672 474 manage_VOICE_SMPLS_4 0;
#X obj 58 119 loadbang;
#X obj 58 141 del 5000;
#X text 53 100 symbol: Sample name;
#X obj 200 273 bng 15 250 50 0 empty empty empty 17 7 0 10 -262144
-1 -1;
#X msg 126 424 /home/ccrma/pd/sample/VOICE/VC_SMPL0100.wav;
#X msg 363 392 120832;
#X text 84 392 name of sample;
#X text 408 392 duration;
#X text 54 76 outputs info about sample;
#X text 54 87 arg-table sample name;
#X text 227 276 2 get sample info;
#X obj 72 424 outlet;
#X obj 72 369 cyclone/prepend set;
#X obj 222 369 cyclone/prepend set;
#X obj 364 368 cyclone/prepend set;
#X obj 329 238 t b a;
#X text 371 237 1 load sample;
#X obj 302 57 bng 15 250 50 0 empty empty empty 17 7 0 10 -262144 -1
-1;
#X obj 328 53 inlet;
#X obj 370 95 + 1;
#X obj 328 104 i;
#X obj 370 117 %, f 6;
#X text 120 59 bang to load new sample;
#X obj 328 146 + 100;
#X obj 329 194 cyclone/prepend read;
#X text 82 24 get sampl amount from MANAGE SAMPLES subpachg;
#X msg 222 393 smpgranu4;
#X floatatom 424 86 5 0 0 0 - - -, f 5;
#X obj 409 28 r SMPL_VOICE_AMT, f 7;
#X msg 328 168 /home/ccrma/pd/sample/VOICE/VC_SMPL0\$1.wav;
#X obj 523 371 s smp4Len;
#X msg 58 223 sample smpgranu4;
#X obj 200 333 tof/sample_unpack;
#X obj 398 268 tof/sample smpgranu4;
#X msg 73 168 /home/ccrma/pd/sample/Rim2.wav;
#X connect 0 0 1 0;
#X connect 1 0 31 0;
#X connect 1 0 34 0;
#X connect 3 0 32 0;
#X connect 12 0 4 0;
#X connect 12 0 11 0;
#X connect 13 0 26 0;
#X connect 14 0 5 0;
#X connect 15 0 3 0;
#X connect 15 1 33 0;
#X connect 17 0 20 0;
#X connect 18 0 20 0;
#X connect 19 0 21 0;
#X connect 20 0 19 0;
#X connect 20 0 23 0;
#X connect 21 0 20 1;
#X connect 23 0 29 0;
#X connect 24 0 15 0;
#X connect 28 0 27 0;
#X connect 28 0 21 1;
#X connect 29 0 24 0;
#X connect 31 0 32 0;
#X connect 32 1 12 0;
#X connect 32 2 13 0;
#X connect 32 6 14 0;
#X connect 32 6 30 0;
#X connect 34 0 15 0;
#X restore 517 149 pd manage_VOICE_SMPLS_4;
#X obj 214 36 r SMPL_SELECT;
#X obj 320 37 r PTCH3_PAR_D1;
#X obj 232 102 bng 15 250 50 0 empty empty empty 17 7 0 10 -262144
-1 -1;
#X text 512 106 load sample 4;
#X obj 258 101 bng 15 250 50 0 empty empty empty 17 7 0 10 -262144
-1 -1;
#X obj 302 100 bng 15 250 50 0 empty empty empty 17 7 0 10 -262144
-1 -1;
#X obj 214 59 + 1;
#X floatatom 214 84 5 0 0 0 - - -, f 5;
#X obj 517 123 bng 15 250 50 0 empty load_smpl_at_start load_smpl_at_start
17 7 0 10 -262144 -1 -1;
#X text 327 57 load new sample;
#X obj 267 78 cyclone/gate 4 1;
#X connect 0 0 4 0;
#X connect 1 0 5 0;
#X connect 6 0 8 0;
#X connect 11 0 17 0;
#X connect 12 0 21 1;
#X connect 17 0 18 0;
#X connect 17 0 21 0;
#X connect 19 0 10 0;
#X connect 21 0 13 0;
#X connect 21 0 4 0;
#X connect 21 1 5 0;
#X connect 21 1 15 0;
#X connect 21 2 8 0;
#X connect 21 2 16 0;
#X connect 21 3 10 0;
#X connect 21 3 9 0;
#X restore 913 39 pd manage_samples;
#X obj 389 86 1_ARD_DIG_BTN;
#X obj 514 89 1_ARD_DIG_BTN;
#X obj 640 89 1_ARD_DIG_SW;
#X obj 162 263 hsl 50 15 0 1 0 0 empty 01_L_1 BTM_R 2 8 0 10 -261234
-258113 -262144 0 1;
#X obj 144 263 tgl 15 0 empty LG_L_1 empty 17 7 0 10 -262144 -1 -1
0 1;
#X obj 272 263 hsl 50 15 0 1 0 0 empty 01_L_2 3RD_R 2 8 0 10 -261234
-258113 -262144 0 1;
#X obj 255 263 tgl 15 0 empty LG_L_2 empty 17 7 0 10 -262144 -1 -1
0 1;
#X obj 384 263 hsl 50 15 0 1 0 0 empty 01_L_3 2ND_R 2 8 0 10 -261234
-258113 -262144 0 1;
#X obj 366 263 tgl 15 0 empty LG_L_3 empty 17 7 0 10 -262144 -1 -1
0 1;
#X obj 487 263 hsl 50 15 0 1 0 0 empty 01_L_4 TOP_R 2 8 0 10 -261234
-258113 -262144 0 1;
#X obj 470 263 tgl 15 0 empty LG_L_4 empty 17 7 0 10 -262144 -1 -1
0 1;
#X obj 53 342 print;
#X obj 53 323 spigot;
#X obj 92 302 tgl 15 0 empty empty empty 17 7 0 10 -262144 -1 -1 0
1;
#X text 37 365 AUDIO PACZ;
#X text 83 102 0-1;
#X text 61 642 OUTPUT:;
#X text 34 49 CTRL INPUTS;
#X text 17 157 REMAP \, RENAME;
#X text 18 199 SEND TO PATCH;
#X text 3 264 INPUT FROM LDRS;
#X obj 470 283 sel 1;
#X obj 482 305 bng 15 250 50 0 empty empty empty 17 7 0 10 -262144
-1 -1;
#X obj 144 280 sel 1;
#X obj 367 280 sel 1;
#X obj 255 281 sel 1;
#X obj 267 303 bng 15 250 50 0 empty empty empty 17 7 0 10 -262144
-1 -1;
#X obj 161 308 bng 15 250 50 0 empty empty empty 17 7 0 10 -262144
-1 -1;
#X obj 382 306 bng 15 250 50 0 empty empty empty 17 7 0 10 -262144
-1 -1;
#X obj 143 407 *~ 0.5;
#X obj 189 436 *~ 0.5;
#X obj 210 463 tgl 15 0 empty LG_L_1 empty 17 7 0 10 -262144 -1 -1
0 1;
#X obj 321 466 tgl 15 0 empty LG_L_2 empty 17 7 0 10 -262144 -1 -1
0 1;
#X obj 432 467 tgl 15 0 empty LG_L_3 empty 17 7 0 10 -262144 -1 -1
0 1;
#X obj 543 463 tgl 15 0 empty LG_L_4 empty 17 7 0 10 -262144 -1 -1
0 1;
#X text 558 464 light gate - per row;
#X obj 254 405 *~ 0.5;
#X obj 300 426 *~ 0.5;
#X obj 369 407 *~ 0.5;
#X obj 412 436 *~ 0.5;
#X obj 470 405 *~ 0.5;
#X obj 515 435 *~ 0.5;
#X connect 8 0 9 0;
#X connect 9 0 0 0;
#X connect 9 1 1 0;
#X connect 9 2 69 0;
#X connect 9 3 70 0;
#X connect 9 4 71 0;
#X connect 17 0 19 0;
#X connect 21 0 25 1;
#X connect 21 0 26 1;
#X connect 25 0 24 0;
#X connect 25 0 10 0;
#X connect 25 0 11 0;
#X connect 26 0 28 0;
#X connect 26 0 10 0;
#X connect 27 0 21 0;
#X connect 30 0 15 0;
#X connect 32 0 19 0;
#X connect 32 0 31 0;
#X connect 33 0 12 0;
#X connect 33 0 15 0;
#X connect 34 0 35 0;
#X connect 37 0 36 0;
#X connect 39 0 38 0;
#X connect 41 0 40 0;
#X connect 42 0 98 0;
#X connect 42 1 99 0;
#X connect 43 0 24 0;
#X connect 43 0 10 0;
#X connect 43 0 11 0;
#X connect 44 0 105 0;
#X connect 44 1 106 0;
#X connect 45 0 107 0;
#X connect 45 1 108 0;
#X connect 47 0 46 0;
#X connect 49 0 46 0;
#X connect 50 0 49 0;
#X connect 51 0 50 0;
#X connect 52 0 109 0;
#X connect 52 1 110 0;
#X connect 53 0 28 0;
#X connect 53 0 10 0;
#X connect 54 0 24 0;
#X connect 54 0 10 0;
#X connect 54 0 11 0;
#X connect 55 0 28 0;
#X connect 55 0 10 0;
#X connect 56 0 24 0;
#X connect 56 0 10 0;
#X connect 56 0 11 0;
#X connect 57 0 28 0;
#X connect 57 0 10 0;
#X connect 58 0 57 1;
#X connect 58 0 56 1;
#X connect 59 0 58 0;
#X connect 61 0 53 1;
#X connect 61 0 43 1;
#X connect 62 0 61 0;
#X connect 63 0 55 1;
#X connect 63 0 54 1;
#X connect 64 0 63 0;
#X connect 65 0 67 0;
#X connect 67 0 66 0;
#X connect 69 0 6 0;
#X connect 69 1 2 0;
#X connect 70 0 5 0;
#X connect 70 0 3 0;
#X connect 71 0 7 0;
#X connect 71 0 4 0;
#X connect 72 0 42 1;
#X connect 73 0 92 0;
#X connect 74 0 44 1;
#X connect 75 0 94 0;
#X connect 76 0 45 1;
#X connect 77 0 93 0;
#X connect 78 0 52 1;
#X connect 79 0 90 0;
#X connect 81 0 80 0;
#X connect 82 0 81 1;
#X connect 90 0 91 0;
#X connect 90 0 52 0;
#X connect 92 0 42 0;
#X connect 92 0 96 0;
#X connect 93 0 97 0;
#X connect 93 0 45 0;
#X connect 94 0 95 0;
#X connect 94 0 44 0;
#X connect 98 0 25 0;
#X connect 99 0 26 0;
#X connect 100 0 27 0;
#X connect 101 0 62 0;
#X connect 102 0 64 0;
#X connect 103 0 59 0;
#X connect 105 0 43 0;
#X connect 106 0 53 0;
#X connect 107 0 54 0;
#X connect 108 0 55 0;
#X connect 109 0 56 0;
#X connect 110 0 57 0;
