#N canvas 229 94 1102 737 12;
#X floatatom 362 383 7 0 5000 0 - - -;
#X floatatom 390 439 0 0 100 0 - - -;
#X obj 362 353 + 100;
#X obj 292 558 hip~ 10;
#X obj 79 628 *~;
#X obj 205 629 *~;
#X floatatom 423 513 5 0 1 0 - fx3_return -;
#X obj 423 541 pow 2;
#X obj 423 565 sig~;
#X obj 80 685 throw~ masterL;
#X obj 205 686 throw~ masterR;
#X obj 768 649 outlet;
#X obj 768 627 switch~;
#X floatatom 845 609 2 0 0 0 - - -;
#X text 837 632 dsp;
#X obj 640 360 tgl 15 0 empty empty empty 17 7 0 10 -262144 -1 -1 1
1;
#N canvas 0 207 648 314 amp_envelope_window 0;
#N canvas 0 50 450 278 (subpatch) 0;
#X array kac_win 259 float 2;
#X coords 0 1 259 -1 100 70 1 0 0;
#X restore 471 76 graph;
#X text 103 37 Set the shape of the windowing function;
#X obj 35 38 loadbang;
#X text 288 126 Raised cosine window;
#X text 247 65 More like a triangular window;
#X msg 35 117 \; kac_win cosinesum 512 0.5 -0.5;
#X msg 35 167 \; kac_win cosinesum 256 0.5 -0.5;
#X msg 35 205 \; kac_win cosinesum 512 0.456258 -0.5 0.050505 -0.02
0.010204 -0.0061725 0.004132;
#X msg 35 65 \; kac_win cosinesum 256 0.456258 -0.5 0.050505 -0.02
0.010204 -0.0061725 0.004132;
#X connect 2 0 8 0;
#X restore 886 303 pd amp_envelope_window;
#X obj 539 525 delwrite~ kac_del 3200;
#X text 19 169 GRANULAR PLAYBACK OF DELAY BUFFER CONTROLLED BY ldrs
;
#X text 43 96 rand grain length max;
#X obj 94 43 s rand_grain_max_len_ms, f 11;
#X text 20 226 when treshold passed send trigger and sensor number
;
#X obj 55 405 1_kac_grain_fx, f 24;
#X obj 80 655 cyclone/tanh~;
#X obj 204 654 cyclone/tanh~;
#X obj 122 327 r min_sens;
#X text 15 182 JAK ZA SZYBKO TRIGGEROWANE SA KO¬O SIEBIE TO SA CLICKI
\, JAK NACHODZA NA SIEBIE GRANULKI?;
#X obj 912 214 print;
#X obj 912 192 spigot;
#X obj 951 175 tgl 15 0 empty empty empty 17 7 0 10 -262144 -1 -1 0
1;
#X floatatom 663 312 5 0 1 0 - fx3_return -;
#X obj 539 467 *~, f 14;
#X obj 634 447 tgl 15 0 empty empty empty 17 7 0 10 -262144 -1 -1 1
1;
#X obj 699 422 del 3200;
#X msg 634 426 0;
#X msg 768 424 1;
#X msg 700 583 0;
#X text 597 560 this it to clear the delay buffer;
#X text 539 549 make sure next time we open delay we dont get a blast
of noise!!!;
#X obj 793 457 tgl 15 0 empty empty empty 17 7 0 10 -262144 -1 -1 1
1;
#X obj 699 455 t b b;
#X obj 775 474 i;
#X obj 699 522 spigot;
#X obj 775 496 == 0;
#X obj 663 361 t f f, f 19;
#X obj 663 390 sel 0 1, f 16;
#X obj 663 334 1_ARD_COMPARE 0.01;
#X obj 945 458 tgl 25 0 empty light_gate LG 0 8 0 14 -4034 -258113
-33289 1 1;
#X obj 851 576 loadbang;
#X obj 853 517 s fx3_1/0;
#N canvas 144 200 624 347 FX3_AUDIO_IN 0;
#X text 195 49 ext audio;
#X floatatom 496 178 8 0 0 0 - - -;
#X obj 444 210 lop~ 10;
#X obj 445 181 sig~;
#X obj 194 237 *~, f 42;
#X obj 445 155 r ex_audio_for_fx_lev;
#X obj 194 116 hip~ 10;
#X floatatom 305 146 8 0 0 0 - - -;
#X floatatom 361 133 5 0 0 0 - - -;
#X obj 270 147 sig~;
#X text 461 115 fbk / gain amt;
#X text 274 48 send pot pre / post;
#X obj 35 289 outlet~, f 13;
#X obj 193 83 adc~ 1 2, f 10;
#X obj 195 199 *~, f 13;
#X obj 269 173 lop~ 10;
#X text 40 51 post fader;
#X text 110 51 pre fader;
#X text 231 23 sound sources to FX;
#X text 47 32 sends from patches;
#X text 458 131 one pot for all FX;
#X text 145 2 sound sources;
#X obj 36 82 catch~ fx3send, f 8;
#X obj 113 81 catch~ fx3presend, f 10;
#X obj 270 110 r ch0_fx3_pre;
#X obj 361 110 r ch0_fx3_s;
#X connect 2 0 4 1;
#X connect 3 0 2 0;
#X connect 4 0 12 0;
#X connect 5 0 3 0;
#X connect 5 0 1 0;
#X connect 6 0 14 0;
#X connect 9 0 15 0;
#X connect 13 0 6 0;
#X connect 13 1 6 0;
#X connect 14 0 4 0;
#X connect 15 0 14 1;
#X connect 22 0 12 0;
#X connect 23 0 12 0;
#X connect 24 0 7 0;
#X connect 24 0 9 0;
#X connect 25 0 8 0;
#X restore 538 328 pd FX3_AUDIO_IN;
#X text 589 8 arguments:;
#X text 668 23 \$2-\$5 = scale factor A1-A4;
#X text 665 42 \$6-\$7 = counter D2 \, D3;
#X text 12 5 LIST CTRL 4A 3D;
#X text 12 23 RENAME;
#X text 12 43 REMAP;
#X obj 423 589 lop~ 20;
#X obj 372 39 s damping;
#X obj 390 416 r damping;
#X obj 276 37 s cross_freq;
#X obj 362 321 r cross_freq;
#X obj 78 291 r sens_bright_detected;
#X obj 54 405 1_kac_grain_fx, f 24;
#X obj 253 465 rev3~ 100 95 3000 20;
#X text 111 273 treshold to bright;
#X text 133 354 to dark;
#X floatatom 31 322 5 0 0 0 - - -;
#X obj 945 574 int;
#X obj 945 541 clip 0 100;
#X obj 945 518 + 10;
#X msg 945 607 \; panel_leds 35 \$1;
#X obj 945 495 * 20;
#X floatatom -3 384 5 0 0 0 - - -;
#X obj 406 637 clone 1_kacgrain_fx_CLONE 32;
#X floatatom 205 326 5 0 0 0 - - -;
#X text 114 149 0-1;
#X obj 609 146 bng 15 250 50 0 empty FX_P3_PAR_D1B D1B 17 7 0 10 -4034
-1 -1;
#X obj 548 145 tgl 15 0 empty FX_P3_PAR_D1 D1 17 7 0 10 -4034 -1 -1
1 1;
#X obj 177 153 hsl 50 10 0 1 0 0 empty FX_P3_PAR_A1 A1 -20 6 0 10 -128992
-4034 -1 934 1;
#X obj 272 151 hsl 50 10 0 1 0 0 empty FX_P\$1_PAR_A2 A2 -20 6 0 10
-128992 -4034 -1 0 1;
#X obj 367 151 hsl 50 10 0 1 0 0 empty FX_P\$1_PAR_A3 A3 -20 6 0 10
-128992 -4034 -1 0 1;
#X obj 462 151 hsl 50 10 0 1 0 0 empty FX_P\$1_PAR_A4 A4 -20 6 0 10
-128992 -4034 -1 0 1;
#X obj 689 146 bng 15 250 50 0 empty FX_P\$1_PAR_D2B D2B 17 7 0 10
-4034 -1 -1;
#X obj 658 145 tgl 15 0 empty FX_P\$1_PAR_D2 D2 17 7 0 10 -4034 -1
-1 0 1;
#X obj 779 146 bng 15 250 50 0 empty FX_P\$1_PAR_D3B D3B 17 7 0 10
-4034 -1 -1;
#X obj 748 145 tgl 15 0 empty FX_P\$1_PAR_D3 D3 17 7 0 10 -4034 -1
-1 0 1;
#X text 669 7 \$1 = fx patch number to rename;
#X obj 200 42 s gain;
#X obj 79 562 hip~ 20;
#X obj 204 562 hip~ 20;
#X obj 78 532 *~ 1;
#X obj 204 532 *~ 1;
#X obj 124 7 1_FX_PTCH_CTRL_RENAME_REMAP 3 100 110 5000 100 3 7, f
66;
#X obj 296 406 r gain;
#X obj 489 43 tgl 15 0 empty empty empty 17 7 0 10 -262144 -1 -1 1
1;
#X obj 29 485 tgl 15 0 empty empty empty 17 7 0 10 -262144 -1 -1 0
1;
#X obj 622 768 hip~ 10;
#X obj 409 838 *~;
#X obj 535 839 *~;
#X obj 410 895 throw~ masterL;
#X obj 535 896 throw~ masterR;
#X obj 410 865 cyclone/tanh~;
#X obj 534 864 cyclone/tanh~;
#X obj 409 772 hip~ 20;
#X obj 534 772 hip~ 20;
#X obj 408 742 *~ 1;
#X obj 534 742 *~ 1;
#X obj 512 599 r sens_bright_detected;
#X obj 583 675 rev3~ 100 95 3000 20;
#X msg 490 581 vis 8 1;
#X obj 628 628 r TRSHLD_SENS_NUM;
#X obj 753 775 print;
#X obj 753 756 spigot;
#X obj 792 735 tgl 15 0 empty empty empty 17 7 0 10 -262144 -1 -1 0
1;
#X obj 269 331 print;
#X obj 269 312 spigot;
#X obj 308 291 tgl 15 0 empty empty empty 17 7 0 10 -262144 -1 -1 0
1;
#X connect 0 0 64 4;
#X connect 1 0 64 5;
#X connect 2 0 0 0;
#X connect 3 0 4 0;
#X connect 3 0 5 0;
#X connect 6 0 7 0;
#X connect 7 0 8 0;
#X connect 8 0 57 0;
#X connect 13 0 12 0;
#X connect 22 0 64 0;
#X connect 22 0 91 0;
#X connect 22 0 92 0;
#X connect 22 1 64 1;
#X connect 22 1 91 0;
#X connect 22 1 92 0;
#X connect 23 0 9 0;
#X connect 24 0 10 0;
#X connect 25 0 75 0;
#X connect 25 0 63 0;
#X connect 28 0 27 0;
#X connect 29 0 28 1;
#X connect 30 0 46 0;
#X connect 31 0 17 0;
#X connect 32 0 31 1;
#X connect 33 0 40 0;
#X connect 34 0 32 0;
#X connect 35 0 11 0;
#X connect 35 0 12 0;
#X connect 35 0 32 0;
#X connect 35 0 49 0;
#X connect 36 0 12 0;
#X connect 36 0 11 0;
#X connect 36 0 49 0;
#X connect 39 0 41 1;
#X connect 40 0 42 0;
#X connect 40 1 41 0;
#X connect 41 0 43 0;
#X connect 42 0 36 0;
#X connect 43 0 42 1;
#X connect 44 0 45 0;
#X connect 44 1 39 0;
#X connect 45 0 33 0;
#X connect 45 0 34 0;
#X connect 45 1 35 0;
#X connect 46 0 15 0;
#X connect 46 0 44 0;
#X connect 47 0 72 0;
#X connect 48 0 13 0;
#X connect 50 0 31 0;
#X connect 57 0 5 1;
#X connect 57 0 4 1;
#X connect 57 0 98 1;
#X connect 57 0 99 1;
#X connect 59 0 1 0;
#X connect 61 0 2 0;
#X connect 62 0 67 0;
#X connect 62 0 22 0;
#X connect 62 0 116 0;
#X connect 63 0 64 0;
#X connect 63 0 91 0;
#X connect 63 0 92 0;
#X connect 63 1 64 1;
#X connect 63 1 91 0;
#X connect 63 1 92 0;
#X connect 64 0 3 0;
#X connect 64 1 3 0;
#X connect 64 2 3 0;
#X connect 64 3 3 0;
#X connect 68 0 71 0;
#X connect 69 0 68 0;
#X connect 70 0 69 0;
#X connect 72 0 70 0;
#X connect 73 0 63 0;
#X connect 74 0 106 0;
#X connect 74 0 107 0;
#X connect 74 0 109 0;
#X connect 74 1 106 0;
#X connect 74 1 107 0;
#X connect 74 1 109 1;
#X connect 89 0 4 0;
#X connect 90 0 5 0;
#X connect 91 0 89 0;
#X connect 92 0 90 0;
#X connect 93 0 20 0;
#X connect 93 1 88 0;
#X connect 93 2 60 0;
#X connect 93 3 58 0;
#X connect 93 4 95 0;
#X connect 94 0 64 2;
#X connect 96 0 91 1;
#X connect 96 0 92 1;
#X connect 97 0 98 0;
#X connect 97 0 99 0;
#X connect 98 0 102 0;
#X connect 99 0 103 0;
#X connect 102 0 100 0;
#X connect 103 0 101 0;
#X connect 104 0 98 0;
#X connect 105 0 99 0;
#X connect 106 0 104 0;
#X connect 107 0 105 0;
#X connect 109 0 97 0;
#X connect 109 1 97 0;
#X connect 109 2 97 0;
#X connect 109 3 97 0;
#X connect 110 0 74 0;
#X connect 111 0 113 0;
#X connect 111 0 74 0;
#X connect 113 0 112 0;
#X connect 114 0 113 1;
#X connect 116 0 115 0;
#X connect 117 0 116 1;
