#N canvas 18 54 1375 805 12;
#X obj 215 422 *~, f 19;
#X text 94 438 amp modulation;
#X text 354 334 (LFO)FREQ;
#X text 515 578 adds dist;
#X obj 216 642 cyclone/tanh~;
#X text 49 225 1=pot*ldr/16;
#X text 49 236 2=pot/LDR/16;
#X text 192 264 default = 1;
#X obj 139 225 hradio 15 1 0 4 empty AM_FREQ_SRC empty 0 -8 0 10 -4034
-1 -1 2;
#N canvas 463 395 381 254 lfo_freq_source 0;
#X obj 30 33 inlet;
#X obj 82 27 inlet;
#X obj 30 201 outlet;
#X obj 92 88 t b f;
#X text 245 103 lfo rate/freq;
#X obj 133 115 /, f 4;
#X obj 82 113 *;
#X obj 30 157 cyclone/switch 3 1, f 23;
#X obj 223 73 hsl 100 15 0 1 0 0 empty 01_TRESH 01_F_TRSHLD 2 8 0 10
-33289 -258113 -262144 7734 1;
#X obj 82 53 t f f f, f 15;
#X obj 141 88 t b f;
#X connect 0 0 7 0;
#X connect 1 0 9 0;
#X connect 3 0 6 0;
#X connect 3 1 6 1;
#X connect 5 0 7 2;
#X connect 6 0 7 1;
#X connect 7 0 2 0;
#X connect 8 0 3 0;
#X connect 8 0 10 0;
#X connect 9 0 6 0;
#X connect 9 1 5 0;
#X connect 9 2 7 3;
#X connect 10 0 5 0;
#X connect 10 1 5 1;
#X restore 139 244 pd lfo_freq_source;
#X text 49 248 3=MANUAL;
#X obj 216 462 *~, f 78;
#X obj 215 486 expr~ if ($v1 > 1 \, 2-$v1 \, $v1);
#X obj 215 506 expr~ if ($v1 < -1 \, -2-$v1 \, $v1);
#X obj 215 526 expr~ if ($v1 > 1 \, 2-$v1 \, $v1);
#X obj 215 546 expr~ if ($v1 < -1 \, -2-$v1 \, $v1);
#X obj 758 301 + 1;
#X text 289 464 wave folding;
#X obj 216 579 clip~ -1 1, f 96;
#X obj 841 529 * -1;
#X obj 215 721 *~;
#X obj 401 720 *~;
#X floatatom 418 636 5 0 1 0 - fx3_return -;
#X obj 418 683 lop~ 10;
#X obj 215 745 throw~ masterL;
#X obj 401 744 throw~ masterR;
#X text 947 138 SHAPE lfo;
#X obj 637 106 cyclone/gate;
#X text 757 245 AM FOLD;
#X obj 841 504 t f f f, f 13;
#X text 851 244 DIST;
#X obj 34 407 print;
#X obj 34 385 spigot;
#X obj 73 364 tgl 15 0 empty empty empty 17 7 0 10 -262144 -1 -1 0
1;
#X obj 345 356 01_AUDIO/1_lfo, f 40;
#X obj 216 684 *~ 0.75;
#X floatatom 94 300 5 0 0 0 - - -;
#X obj 165 79 + 2;
#X floatatom 649 354 5 0 0 0 - - -;
#X floatatom 881 295 5 0 0 0 - - -;
#X floatatom 788 301 5 0 0 0 - - -;
#X obj 758 334 sig~;
#X obj 758 364 lop~ 10;
#X floatatom 272 241 5 0 0 0 - - -;
#X obj 418 663 sig~;
#X text 451 636 level;
#X obj 216 611 lop~ 4000;
#X obj 976 533 int;
#X obj 1110 524 print;
#X obj 1110 495 spigot;
#X obj 1146 467 tgl 15 0 empty empty empty 17 7 0 10 -262144 -1 -1
0 1;
#X obj 976 428 snapshot~;
#X obj 976 388 bng 25 50 10 0 empty update_lfo_leds UPDEJT 17 7 0 10
-4034 -1 -1;
#X obj 976 500 clip 0 100;
#X text 874 53 SHAPE lfo;
#X text 804 94 default = 1;
#X text 283 7 arguments:;
#X text 397 32 \$2-\$5 = scale factor A1-A4;
#X text 590 35 \$6-\$7 = counter D2 \, D3;
#X obj 806 78 hradio 15 1 0 4 empty empty empty 0 -8 0 10 -258113 -1
-1 2;
#X floatatom 1047 125 5 0 0 0 - - -;
#X obj 301 78 tgl 10 0 empty SHIFT_SND_CTRL Shift 20 11 0 20 -4034
-1 -262144 0 1;
#X obj 341 99 gate 2, f 12;
#X obj 301 92 + 1;
#X floatatom 539 324 5 0 0 0 - - -;
#X obj 461 324 bng 15 250 50 0 empty empty empty 17 7 0 10 -262144
-1 -1;
#X obj 529 738 switch~;
#X floatatom 552 713 2 0 0 0 - - -;
#X text 569 712 dsp;
#X obj 529 706 tgl 15 0 empty empty empty 17 7 0 10 -262144 -1 -1 1
1;
#X obj 529 682 1_ARD_COMPARE 0.1;
#N canvas 488 329 711 349 AUDIO_IN 0;
#X text 195 49 ext audio;
#X floatatom 536 118 8 0 0 0 - - -;
#X obj 484 150 lop~ 10;
#X obj 485 121 sig~;
#X obj 194 237 *~, f 42;
#X obj 485 95 r ex_audio_for_fx_lev;
#X obj 194 116 hip~ 10;
#X floatatom 305 146 8 0 0 0 - - -;
#X floatatom 371 133 5 0 0 0 - - -;
#X obj 270 147 sig~;
#X text 501 55 fbk / gain amt;
#X text 274 48 send pot pre / post;
#X obj 35 289 outlet~, f 13;
#X obj 193 83 adc~ 1 2, f 10;
#X obj 195 199 *~, f 13;
#X obj 269 173 lop~ 10;
#X text 40 51 post fader;
#X text 110 51 pre fader;
#X text 231 23 sound sources to FX;
#X text 47 32 sends from patches;
#X text 498 71 one pot for all FX;
#X obj 36 82 catch~ fx3send, f 8;
#X obj 113 81 catch~ fx3presend, f 10;
#X obj 270 110 r ch0_fx3_pre;
#X obj 371 110 r ch0_fx3_s;
#X connect 2 0 4 1;
#X connect 3 0 2 0;
#X connect 4 0 12 0;
#X connect 5 0 3 0;
#X connect 5 0 1 0;
#X connect 6 0 14 0;
#X connect 9 0 15 0;
#X connect 13 0 6 0;
#X connect 13 1 6 0;
#X connect 14 0 4 0;
#X connect 15 0 14 1;
#X connect 21 0 12 0;
#X connect 22 0 12 0;
#X connect 23 0 7 0;
#X connect 23 0 9 0;
#X connect 24 0 8 0;
#X restore 98 387 pd AUDIO_IN;
#X text 1049 47 AM/DIST FX;
#X obj 166 8 1_FX_PTCH_CTRL 3;
#X text 355 7 \$1 = fx patch number to rename and send parameters;
#X text 710 6 FX_P#1_PAR_A1;
#X text 167 32 remap parameters;
#X text 281 31 arg:;
#X text 311 31 \$1=fx patch;
#X text 23 7 LIST CTRL 4A 3D;
#X text 31 23 RENAME;
#X text 31 53 REMAP;
#X obj 262 219 r AM_FREQ;
#X obj 224 100 s AM_DIST;
#X obj 841 263 r AM_DIST;
#X obj 716 87 bng 15 50 50 0 empty ms_bang ms_bang 17 7 0 10 -4034
-4160 -1;
#X obj 637 131 s AM_LFO_SYNC;
#X obj 437 269 r AM_LFO_SYNC, f 6;
#X floatatom 806 118 5 0 0 1 AM_FREQ_SRC - AM_FREQ_SRC;
#X text 1052 64 TO BE LOADED DYNAMICALLY AS FX Patch 3;
#X obj 948 120 s AM_LFO_SHAPE;
#X obj 529 271 r AM_LFO_SHAPE, f 6;
#X obj 841 298 + 1;
#X msg 139 321 \$1 \$2;
#X obj 139 344 line~;
#X obj 298 397 +~, f 7;
#X obj 374 398 number~;
#A saved 0 0 100 -inf inf #2a3434 #ffffff #b6fefd;
#X obj 635 80 tgl 15 0 AM_LFO_01 empty AM_LFO_01 17 7 0 10 -258113
-1 -1 1 1;
#X obj 681 206 clip 1 10000;
#X obj 758 262 r AM_DIST;
#X obj 24 99 tgl 10 0 empty SHIFT_SND_CTRL Shift 20 11 0 20 -4034 -1
-262144 0 1;
#X obj 64 120 gate 2, f 12;
#X obj 24 113 + 1;
#X obj 64 168 s AM_FREQ;
#X obj 145 145 * 100;
#X obj 341 147 s AM_LFO_F;
#X obj 345 272 r AM_LFO_F;
#X floatatom 355 297 5 0 0 0 - - -;
#X obj 599 151 r AM_RANGE;
#X text 538 74 range;
#X obj 510 93 s AM_RANGE;
#X obj 422 124 * 100;
#X floatatom 630 285 5 0 0 0 - - -;
#X text 680 152 lower then 1 = OFF;
#X obj 630 324 switch 2;
#X obj 631 230 change;
#X obj 631 258 + 1;
#X obj 631 205 > 1;
#X obj 599 176 t f f f;
#X obj 599 201 * 0;
#X obj 167 52 1_FX_CTRL_REMAP 3 20 5 25 50 3 7, f 110;
#X obj 139 298 pack f 20;
#X obj 976 454 * 50;
#X obj 976 477 + 10;
#X msg 976 566 \; panel_leds 35 \$1;
#X connect 0 0 11 0;
#X connect 4 0 35 0;
#X connect 8 0 9 0;
#X connect 9 0 36 0;
#X connect 9 0 121 0;
#X connect 11 0 12 0;
#X connect 12 0 13 0;
#X connect 13 0 14 0;
#X connect 14 0 15 0;
#X connect 15 0 18 0;
#X connect 16 0 41 0;
#X connect 18 0 46 0;
#X connect 19 0 18 1;
#X connect 20 0 24 0;
#X connect 21 0 25 0;
#X connect 22 0 44 0;
#X connect 22 0 70 0;
#X connect 23 0 21 1;
#X connect 23 0 20 1;
#X connect 27 0 86 0;
#X connect 29 0 19 0;
#X connect 29 1 18 2;
#X connect 32 0 31 0;
#X connect 33 0 32 1;
#X connect 34 0 95 1;
#X connect 34 0 96 0;
#X connect 34 1 51 0;
#X connect 35 0 20 0;
#X connect 35 0 21 0;
#X connect 37 0 101 1;
#X connect 41 0 42 0;
#X connect 42 0 11 1;
#X connect 44 0 23 0;
#X connect 46 0 4 0;
#X connect 47 0 49 0;
#X connect 47 0 124 0;
#X connect 49 0 48 0;
#X connect 50 0 49 1;
#X connect 51 0 122 0;
#X connect 52 0 51 0;
#X connect 53 0 47 0;
#X connect 59 0 88 0;
#X connect 61 0 63 0;
#X connect 62 0 105 0;
#X connect 62 1 111 0;
#X connect 63 0 62 0;
#X connect 67 0 66 0;
#X connect 69 0 66 0;
#X connect 70 0 69 0;
#X connect 71 0 0 0;
#X connect 82 0 9 1;
#X connect 82 0 43 0;
#X connect 84 0 39 0;
#X connect 84 0 92 0;
#X connect 85 0 27 1;
#X connect 87 0 34 1;
#X connect 87 0 65 0;
#X connect 91 0 34 2;
#X connect 91 0 64 0;
#X connect 92 0 29 0;
#X connect 93 0 94 0;
#X connect 94 0 95 0;
#X connect 95 0 0 1;
#X connect 98 0 114 2;
#X connect 99 0 40 0;
#X connect 99 0 16 0;
#X connect 100 0 102 0;
#X connect 101 0 103 0;
#X connect 101 1 104 0;
#X connect 102 0 101 0;
#X connect 104 0 103 0;
#X connect 106 0 34 0;
#X connect 106 0 107 0;
#X connect 108 0 118 0;
#X connect 111 0 105 0;
#X connect 112 0 114 0;
#X connect 114 0 34 3;
#X connect 114 0 38 0;
#X connect 115 0 116 0;
#X connect 116 0 112 0;
#X connect 117 0 115 0;
#X connect 118 0 119 0;
#X connect 118 1 98 0;
#X connect 118 2 117 0;
#X connect 119 0 114 1;
#X connect 120 0 37 0;
#X connect 120 1 83 0;
#X connect 120 2 62 1;
#X connect 120 3 110 0;
#X connect 120 4 27 0;
#X connect 120 4 97 0;
#X connect 120 5 59 0;
#X connect 120 6 60 0;
#X connect 120 6 90 0;
#X connect 121 0 93 0;
#X connect 122 0 123 0;
#X connect 123 0 53 0;
