#N canvas 695 450 667 402 12;
#X text 232 11 LOAD and MANAGE samples;
#X obj 224 34 bng 24 250 50 0 empty SPL_TYP_SEL SPL_TYPE 17 7 0 10
-4034 -1 -1;
#X obj 417 33 bng 25 250 50 0 empty LOAD_SMPL LOAD_SMPL 17 7 0 10 -4034
-1 -1;
#X text 252 44 SMPL CATEGORY;
#X text 290 30 FROM GLOBAL;
#N canvas 238 193 621 408 extra_patcz4_manage_Drums 0;
#N canvas 0 774 349 240 loadSample2 0;
#X obj 40 181 s initialSlice;
#X obj 40 63 cyclone/gate 2 1, f 20;
#X obj 281 42 bng 15 250 50 0 empty empty empty 17 7 0 10 -262144 -1
-1;
#X text 173 62 bang to load new sample;
#X obj 269 123 bng 15 250 50 0 empty empty empty 17 7 0 10 -262144
-1 -1;
#N canvas 0 774 572 391 LOAD_KIKS 0;
#X floatatom 178 274 7 0 0 0 - - -;
#X text 244 333 sampel size in samples;
#X text 123 333 in MS;
#X obj 178 246 soundfiler;
#X floatatom 178 331 5 0 0 0 - - -;
#X obj 177 72 inlet;
#X obj 220 74 bng 15 250 50 0 empty empty empty 17 7 0 10 -262144 -1
-1;
#X obj 178 127 i;
#X obj 178 94 t b;
#X obj 217 127 + 1;
#X obj 178 177 + 100;
#X msg 218 100 0;
#X floatatom 104 192 5 0 0 0 - - -;
#X obj 178 302 / 44.1;
#X floatatom 276 139 5 0 0 0 - - -;
#X obj 266 117 r SMPL_KIKS_AMT;
#X obj 178 151 % 9, f 13;
#X obj 319 275 print;
#X obj 66 82 loadbang;
#X obj 67 105 del 5000;
#X obj 178 350 outlet;
#X msg 178 204 read -resize /home/patch/Pd/SAMPLE/KIKS/KC_SMPL0\$1.wav
MajStrecz;
#X connect 0 0 13 0;
#X connect 3 0 0 0;
#X connect 4 0 20 0;
#X connect 5 0 8 0;
#X connect 6 0 7 0;
#X connect 7 0 9 0;
#X connect 7 0 16 0;
#X connect 8 0 7 0;
#X connect 9 0 7 1;
#X connect 10 0 21 0;
#X connect 11 0 7 1;
#X connect 13 0 4 0;
#X connect 15 0 14 0;
#X connect 15 0 16 1;
#X connect 16 0 12 0;
#X connect 16 0 10 0;
#X connect 18 0 19 0;
#X connect 19 0 8 0;
#X connect 21 0 3 0;
#X connect 21 0 17 0;
#X restore 40 123 pd LOAD_KIKS;
#X floatatom 60 145 5 0 0 0 - - -;
#X text 141 182 sampel size in ms;
#N canvas 0 774 592 423 LOAD_DRUMLUPS 0;
#X obj 96 109 bng 15 250 50 0 empty empty empty 17 7 0 10 -262144 -1
-1;
#X obj 122 105 inlet;
#X obj 164 147 + 1;
#X obj 122 156 i;
#X obj 164 169 %, f 6;
#X text 33 74 bang to load new sample;
#X obj 122 198 + 100;
#X text 94 54 get sampl amount from MANAGE SAMPLES subpachg;
#X text 342 206 from parent folder;
#X floatatom 214 158 5 0 0 0 - - -;
#X obj 204 106 r SMPL_DRUM_LOOPS_AMT, f 10;
#X floatatom 123 298 7 0 0 0 - - -;
#X text 68 357 in MS;
#X obj 123 270 soundfiler;
#X floatatom 183 355 5 0 0 0 - - -;
#X obj 123 326 / 44.1;
#X obj 224 299 print;
#X obj 123 358 outlet;
#X msg 123 228 read -resize /home/patch/Pd/SAMPLE/DRUM_LOOPS/DRL_SMPL0\$1.wav
MajStrecz;
#X connect 0 0 3 0;
#X connect 1 0 3 0;
#X connect 2 0 4 0;
#X connect 3 0 2 0;
#X connect 3 0 6 0;
#X connect 4 0 3 1;
#X connect 6 0 18 0;
#X connect 10 0 9 0;
#X connect 10 0 4 1;
#X connect 11 0 15 0;
#X connect 13 0 11 0;
#X connect 15 0 14 0;
#X connect 15 0 17 0;
#X connect 18 0 13 0;
#X connect 18 0 16 0;
#X restore 157 122 pd LOAD_DRUMLUPS;
#X floatatom 194 146 5 0 0 0 - - -;
#X obj 40 22 inlet smpl_cat_sel;
#X obj 157 20 inlet load_smpl;
#X connect 1 0 5 0;
#X connect 1 1 4 0;
#X connect 1 1 8 0;
#X connect 5 0 6 0;
#X connect 5 0 0 0;
#X connect 8 0 0 0;
#X connect 8 0 9 0;
#X connect 10 0 1 0;
#X connect 11 0 1 1;
#X connect 11 0 2 0;
#X restore 206 146 pd loadSample2;
#N canvas 0 50 450 300 (subpatch) 0;
#X array MajStrecz 15059 float 0;
#X coords 0 1 15058 -1 100 40 1 0 0;
#X restore 83 178 graph;
#N canvas 155 150 935 617 TimeStrecz_LSE2 0;
#X floatatom 233 157 5 0 0 0 - - -;
#X obj 226 132 change;
#X floatatom 83 385 5 0 0 0 - - -;
#X obj 226 296 *, f 13;
#X text 10 230 this is the number we multiply by;
#X floatatom 522 292 5 0 0 0 - - -;
#X text 576 299 speed;
#X text 121 115 CTRL INPUTS;
#N canvas 0 207 535 354 speedCTRLLLL 0;
#X obj 197 31 inlet;
#X obj 122 269 outlet;
#X floatatom 209 190 5 0 0 0 - - -;
#X floatatom 328 205 5 0 0 0 - - -;
#X floatatom 405 234 5 0 0 0 - - -;
#X obj 197 159 + 0.01;
#X obj 392 201 moses 0.001;
#X obj 294 156 moses -0.0125;
#X obj 294 134 - 0.5;
#X text 253 241 speed ctrl source;
#X obj 122 111 vradio 15 1 1 3 empty empty empty 0 -8 0 10 -262144
-1 -1 1;
#X text 239 88 speed ctrl source;
#X text 148 58 sensor brightest;
#X obj 122 223 switch 2, f 22;
#X floatatom 151 111 5 0 0 0 - - -;
#X obj 135 168 outlet;
#X obj 322 43 inlet;
#X obj 122 27 inlet;
#X msg 42 75 1;
#X obj 42 53 loadbang;
#X obj 197 122 *;
#X obj 197 90 / 32;
#X connect 0 0 21 0;
#X connect 5 0 2 0;
#X connect 5 0 13 1;
#X connect 6 1 4 0;
#X connect 7 0 3 0;
#X connect 7 0 13 2;
#X connect 7 1 6 0;
#X connect 8 0 7 0;
#X connect 10 0 13 0;
#X connect 10 0 15 0;
#X connect 13 0 1 0;
#X connect 16 0 20 1;
#X connect 17 0 10 0;
#X connect 17 0 14 0;
#X connect 18 0 10 0;
#X connect 19 0 18 0;
#X connect 20 0 5 0;
#X connect 21 0 8 0;
#X connect 21 0 20 0;
#X restore 510 258 pd speedCTRLLLL;
#X floatatom 620 285 5 0 0 0 - - -;
#X obj 226 350 pack f f, f 41;
#X floatatom 338 155 5 0 0 0 - - -;
#X floatatom 672 231 5 0 0 0 - - -;
#N canvas 393 207 343 203 slice_length 0;
#X obj 58 17 inlet;
#X obj 184 138 outlet;
#X floatatom 215 103 8 0 0 0 - - -;
#X obj 58 64 cyclone/sampstoms~;
#X text 112 27 the length of slice in ms;
#X connect 0 0 3 0;
#X connect 3 1 2 0;
#X connect 3 1 1 0;
#X restore 84 362 pd slice_length;
#X text 121 378 length MS;
#X obj 301 132 1_exp_scale_ctrl 2000 1;
#X text 11 244 im mniej tym krotszy slice;
#X text 12 206 brightsens;
#X floatatom 331 304 5 0 0 0 - - -;
#X obj 226 110 r min_sens;
#X floatatom 561 229 5 0 0 0 - - -;
#X obj 561 204 change;
#X obj 661 206 1_exp_scale_ctrl 40 2;
#X text 282 248 fromm loadSample subpatch;
#X obj 561 182 r min_sens;
#X obj 227 421 outlet~;
#X obj 331 267 r initialSlice;
#X obj 301 108 inlet length;
#X obj 510 103 inlet speed_src;
#X obj 661 111 inlet speed;
#X obj 510 134 + 1;
#X obj 226 387 1_KAC_stretch MajStrecz, f 29;
#X obj 532 158 hsl 100 15 0 1 0 0 empty 01_TRESH 01_F_TRSHLD 2 8 0
10 -33289 -258113 -262144 5260 1;
#X connect 1 0 0 0;
#X connect 1 0 3 0;
#X connect 3 0 10 0;
#X connect 3 0 13 0;
#X connect 8 0 5 0;
#X connect 8 0 10 1;
#X connect 8 1 9 0;
#X connect 10 0 31 0;
#X connect 13 0 2 0;
#X connect 15 0 11 0;
#X connect 15 0 3 1;
#X connect 19 0 1 0;
#X connect 20 0 8 1;
#X connect 21 0 20 0;
#X connect 22 0 12 0;
#X connect 22 0 8 2;
#X connect 24 0 21 0;
#X connect 26 0 3 1;
#X connect 26 0 18 0;
#X connect 27 0 15 0;
#X connect 28 0 30 0;
#X connect 29 0 22 0;
#X connect 30 0 8 0;
#X connect 31 0 25 0;
#X restore 454 295 pd TimeStrecz_LSE2;
#X f 10;
#N canvas 1734 142 968 631 tajmstrecz2_LSE1 0;
#X floatatom 16 182 5 0 0 0 - - -;
#X obj 16 136 change;
#X floatatom 234 306 8 0 0 0 - - -;
#X text 33 111 im mniejsza ta cyfra tym krotszy slice;
#X obj 296 277 *;
#X text 79 305 the length of slice;
#X text 32 97 this is the number we multiply by;
#X floatatom 580 291 5 0 0 0 - - -;
#X text 474 233 speed ctrl source;
#X text 623 292 speed;
#N canvas 343 207 945 816 timestreczMUJ_z_start_czange 0;
#X obj 297 373 phasor~;
#X floatatom 71 454 12 0 0 0 - - -;
#X obj 406 279 phasor~;
#X floatatom 79 368 12 0 0 0 - - -;
#X obj 298 446 *~;
#X obj 297 476 +~;
#X obj 406 443 *~;
#X obj 71 290 t b f;
#X obj 71 344 /;
#X obj 71 426 *;
#X msg 574 259 0;
#X obj 297 757 *~;
#X text 66 11 timestretch -- \$1: array name;
#X obj 297 781 outlet~;
#X obj 574 234 loadbang;
#X obj 406 351 *~;
#X obj 406 255 *;
#X obj 417 194 t b f;
#X obj 406 230 f 1;
#X obj 405 77 inlet;
#X text 405 55 speed (1=normal \, 0.5=half);
#X floatatom 405 104 5 0 0 0 - - -;
#X floatatom 71 100 8 0 0 0 - - -;
#X obj 71 141 t b f;
#X obj 103 237 /;
#X text 67 51 slice length;
#X obj 71 211 t f f;
#X obj 71 317 samplerate~;
#X obj 71 74 inlet;
#X obj 103 265 s \$0slices;
#X obj 103 395 r \$0slices;
#X obj 461 331 r \$0slices;
#X obj 426 376 wrap~;
#X obj 407 400 -~;
#X obj 433 493 -~ 0.5;
#X obj 433 518 wrap~;
#X obj 433 547 -~ 0.5;
#X text 487 490 subtracting 0.5 and wrapping produces a sawtooth wave
180 degrees out of phase from the original.;
#X text 482 541 as before we subtract 1/2 again to center the sawtooth
from -1/2 to 1/2.;
#X obj 434 599 clip~ -0.5 0.5;
#X obj 434 577 *~ 1;
#X obj 575 609 moses 1;
#X msg 575 633 1;
#X obj 434 624 cos~;
#X obj 434 672 *~ -0.5;
#X obj 434 647 -~ 1;
#X obj 575 562 loadbang;
#X obj 506 81 inlet;
#X floatatom 556 320 5 0 0 0 - - -;
#X obj 297 728 tabread4~ MajStrecz;
#X text 605 258 sync phasors(orginal);
#X text 212 165 orginal(\$1)-abstraction;
#X text 289 704 orginal(\$1)-abstraction;
#X obj 506 244 / 31;
#X floatatom 103 426 5 0 0 0 - - -;
#X text 573 280 no sync \, but start in the middle of sample;
#X msg 575 584 100;
#X obj 71 166 array size MajStrecz;
#X connect 0 0 4 0;
#X connect 0 0 34 0;
#X connect 1 0 0 0;
#X connect 2 0 15 0;
#X connect 3 0 17 0;
#X connect 4 0 5 0;
#X connect 5 0 49 0;
#X connect 6 0 5 1;
#X connect 7 0 27 0;
#X connect 7 1 8 1;
#X connect 8 0 3 0;
#X connect 8 0 9 0;
#X connect 9 0 1 0;
#X connect 10 0 2 1;
#X connect 10 0 0 1;
#X connect 11 0 13 0;
#X connect 14 0 10 0;
#X connect 15 0 32 0;
#X connect 15 0 33 0;
#X connect 16 0 2 0;
#X connect 17 0 18 0;
#X connect 17 1 16 1;
#X connect 18 0 16 0;
#X connect 19 0 21 0;
#X connect 21 0 18 0;
#X connect 22 0 23 0;
#X connect 22 0 4 1;
#X connect 22 0 6 1;
#X connect 23 0 53 0;
#X connect 23 0 57 0;
#X connect 23 1 24 1;
#X connect 24 0 29 0;
#X connect 26 0 7 0;
#X connect 26 1 24 0;
#X connect 27 0 8 0;
#X connect 28 0 22 0;
#X connect 30 0 9 1;
#X connect 30 0 54 0;
#X connect 31 0 15 1;
#X connect 32 0 33 1;
#X connect 33 0 6 0;
#X connect 34 0 35 0;
#X connect 35 0 36 0;
#X connect 36 0 40 0;
#X connect 39 0 43 0;
#X connect 40 0 39 0;
#X connect 41 0 42 0;
#X connect 41 1 40 1;
#X connect 42 0 40 1;
#X connect 43 0 45 0;
#X connect 44 0 11 1;
#X connect 45 0 44 0;
#X connect 46 0 56 0;
#X connect 47 0 53 0;
#X connect 49 0 11 0;
#X connect 53 0 48 0;
#X connect 53 0 0 1;
#X connect 53 0 2 1;
#X connect 56 0 41 0;
#X connect 57 0 26 0;
#X restore 496 497 pd timestreczMUJ_z_start_czange;
#X text 508 517 changed from abstraction-now brightest sensor chooses
where we start playing in the sample!!!;
#X text 723 498 AUDIO PATCH GUTS;
#X text 65 460 do zmiany miedzy smpl od poczatku zawsze i zaczynania
w zaleznosci od jasnego LDR;
#N canvas 0 207 433 309 speedCTRLLLL 0;
#X obj 144 24 inlet;
#X obj 98 258 outlet;
#X floatatom 177 181 5 0 0 0 - - -;
#X floatatom 242 178 5 0 0 0 - - -;
#X floatatom 319 207 5 0 0 0 - - -;
#X obj 161 152 + 0.01;
#X obj 306 174 moses 0.001;
#X obj 218 149 moses -0.0125;
#X obj 218 127 - 0.5;
#X text 167 214 speed ctrl source;
#X obj 46 104 vradio 15 1 1 3 empty empty empty 0 -8 0 10 -262144 -1
-1 2;
#X text 186 81 speed ctrl source;
#X text 33 50 sensor brightest;
#X obj 78 214 switch 2;
#X floatatom 107 151 5 0 0 0 - - -;
#X floatatom 75 104 5 0 0 0 - - -;
#X obj 46 259 outlet;
#X obj 46 155 t f f;
#X obj 269 36 inlet;
#X obj 49 20 inlet;
#X obj 144 83 / 32, f 22;
#X connect 0 0 20 0;
#X connect 5 0 2 0;
#X connect 5 0 13 1;
#X connect 6 1 4 0;
#X connect 7 0 3 0;
#X connect 7 0 13 2;
#X connect 7 1 6 0;
#X connect 8 0 7 0;
#X connect 10 0 17 0;
#X connect 13 0 1 0;
#X connect 17 0 16 0;
#X connect 17 1 13 0;
#X connect 18 0 20 1;
#X connect 19 0 10 0;
#X connect 20 0 5 0;
#X connect 20 0 8 0;
#X connect 20 0 14 0;
#X restore 450 258 pd speedCTRLLLL;
#X obj 333 179 r initialSlice;
#X text 69 487 change playback modes;
#X floatatom 368 221 5 0 0 0 - - -;
#X obj 296 354 t l l, f 29;
#X obj 296 330 pack f f, f 37;
#X obj 496 432 unpack f f, f 16;
#X obj 296 390 unpack f f;
#X floatatom 450 280 5 0 0 0 - - -;
#X obj 552 127 1_exp_scale_ctrl 40 2;
#X obj 314 92 inlet length;
#X obj 450 57 inlet speed_src;
#X obj 552 97 inlet speed;
#X obj 298 573 outlet~;
#X obj 495 572 outlet~;
#X floatatom 465 90 5 0 0 0 - - -;
#X obj 450 129 + 1;
#X text 87 72 sensor;
#X obj 16 71 r min_sens;
#X text 794 407 sensor;
#X obj 713 406 r min_sens;
#X obj 710 433 change;
#X text 572 181 sensor;
#X obj 501 180 r min_sens;
#X obj 296 417 1_KAC_stretch MajStrecz;
#X obj 314 207 *;
#X floatatom 327 242 5 0 0 0 - - -;
#X connect 1 0 0 0;
#X connect 1 0 4 0;
#X connect 4 0 2 0;
#X connect 4 0 19 0;
#X connect 10 0 28 0;
#X connect 14 0 22 0;
#X connect 14 1 7 0;
#X connect 14 1 19 1;
#X connect 15 0 17 0;
#X connect 15 0 39 1;
#X connect 18 0 21 0;
#X connect 18 1 20 0;
#X connect 19 0 18 0;
#X connect 20 0 10 0;
#X connect 20 1 10 1;
#X connect 21 0 38 0;
#X connect 23 0 14 2;
#X connect 24 0 39 0;
#X connect 25 0 29 0;
#X connect 25 0 30 0;
#X connect 26 0 23 0;
#X connect 30 0 14 0;
#X connect 32 0 1 0;
#X connect 34 0 35 0;
#X connect 35 0 10 2;
#X connect 37 0 14 1;
#X connect 38 0 27 0;
#X connect 39 0 4 1;
#X connect 39 0 40 0;
#X coords 0 631 1 630 140 70 0;
#X restore 523 295 pd tajmstrecz2_LSE1;
#X f 10;
#X floatatom 47 146 5 0 0 0 - - -;
#X obj 83 120 t f f, f 21;
#N canvas 0 774 327 312 smpl_cat_sel 0;
#X obj 103 97 + 1;
#X obj 49 112 i;
#X obj 103 119 %, f 4;
#X obj 49 154 + 1;
#X obj 49 72 inlet;
#X obj 151 44 loadbang;
#X obj 151 66 del 500;
#X floatatom 139 172 5 0 0 0 - - -;
#X obj 49 200 outlet;
#X obj 223 69 bng 15 250 50 0 empty empty empty 17 7 0 10 -262144 -1
-1;
#X floatatom 171 108 5 0 0 0 - - -;
#X text 142 191 smpl cat;
#X obj 151 86 v SMPL_CATGORY_P4;
#X obj 138 227 print smpl_cat_p4;
#X connect 0 0 2 0;
#X connect 1 0 0 0;
#X connect 1 0 3 0;
#X connect 2 0 1 1;
#X connect 3 0 7 0;
#X connect 3 0 8 0;
#X connect 3 0 13 0;
#X connect 4 0 1 0;
#X connect 5 0 6 0;
#X connect 6 0 12 0;
#X connect 9 0 12 0;
#X connect 12 0 2 1;
#X connect 12 0 10 0;
#X restore 83 100 pd smpl_cat_sel;
#X floatatom 205 189 10 0 0 0 - - -;
#X obj 205 169 r initialSlice;
#X text 265 190 sampel size in ms;
#X obj 391 105 bng 15 250 50 0 empty empty empty 0 -6 0 8 -228992 -1
-1;
#X obj 391 147 s smp_len;
#X floatatom 466 148 15 0 0 0 - - -;
#N canvas 0 774 1187 459 buffers 0;
#X obj 188 10 loadbang;
#X obj 375 185 soundfiler;
#X obj 181 186 soundfiler;
#X obj 169 334 array size kacbuf;
#X obj 364 73 t b b;
#X obj 346 74 bng 15 250 50 0 empty empty empty 17 7 0 10 -262144 -1
-1;
#X obj 169 73 t b b;
#X obj 150 74 bng 15 250 50 0 empty empty empty 17 7 0 10 -262144 -1
-1;
#X msg 344 292 set kacbuf1;
#X msg 211 291 set kacbuf;
#X text 229 209 change buffers dynamically - no gliczes !;
#X text 523 209 samples must be preloaded;
#X obj 344 314 s to-g;
#X obj 304 334 array size kacbuf1;
#X obj 179 249 bng 15 250 50 0 empty empty empty 17 7 0 10 -262144
-1 -1;
#X obj 179 269 t b b;
#X obj 312 250 bng 15 250 50 0 empty empty empty 17 7 0 10 -262144
-1 -1;
#X obj 312 270 t b b;
#X text 252 11 load samples to buffers;
#X obj 448 397 outlet buffer size;
#X obj 210 312 s to-g;
#X obj 570 175 soundfiler;
#X obj 559 73 t b b;
#X obj 541 74 bng 15 250 50 0 empty empty empty 17 7 0 10 -262144 -1
-1;
#X obj 599 313 s to-g;
#X obj 567 250 bng 15 250 50 0 empty empty empty 17 7 0 10 -262144
-1 -1;
#X obj 567 270 t b b;
#X obj 559 334 array size kacbuf2;
#X msg 599 291 set kacbuf2;
#X obj 766 176 soundfiler;
#X obj 754 74 t b b;
#X obj 736 75 bng 15 250 50 0 empty empty empty 17 7 0 10 -262144 -1
-1;
#X obj 794 313 s to-g;
#X obj 762 251 bng 15 250 50 0 empty empty empty 17 7 0 10 -262144
-1 -1;
#X obj 762 271 t b b;
#X msg 794 291 set kacbuf3;
#X obj 754 334 array size kacbuf3;
#X floatatom 169 356 10 0 0 0 - - -;
#X floatatom 304 356 10 0 0 0 - - -;
#X floatatom 569 356 10 0 0 0 - - -;
#X floatatom 754 356 10 0 0 0 - - -;
#X obj 169 11 bng 15 250 50 0 empty empty empty 17 7 0 10 -262144 -1
-1;
#X obj 38 140 inlet swap buffers;
#X obj 38 172 i;
#X obj 72 171 + 1;
#X floatatom 82 197 5 0 0 0 - - -;
#X obj 945 186 soundfiler;
#X obj 933 74 t b b;
#X obj 915 75 bng 15 250 50 0 empty empty empty 17 7 0 10 -262144 -1
-1;
#X obj 973 313 s to-g;
#X obj 941 251 bng 15 250 50 0 empty empty empty 17 7 0 10 -262144
-1 -1;
#X obj 941 271 t b b;
#X floatatom 933 356 10 0 0 0 - - -;
#X obj 169 34 t b b b b b, f 112;
#X msg 973 291 set kacbuf4;
#X obj 933 334 array size kacbuf4;
#X obj 38 196 % 5;
#X obj 38 228 sel 0 1 2 3 4, f 156;
#X msg 375 96 read -resize /usr/local/puredata-patches/lse314/SAMPLE/KIKS/KC_SMPL0107.wav
kacbuf1, f 20;
#X msg 570 96 read -resize /usr/local/puredata-patches/lse314/SAMPLE/KIKS/KC_SMPL0117.wav
kacbuf2, f 25;
#X msg 766 97 read -resize /usr/local/puredata-patches/lse314/SAMPLE/KIKS/KC_SMPL0111.wav
kacbuf3, f 20;
#X msg 945 97 read -resize /usr/local/puredata-patches/lse314/SAMPLE/KIKS/KC_SMPL0113.wav
kacbuf4, f 20;
#X msg 181 98 read -resize /usr/local/puredata-patches/lse314/SAMPLE/KIKS/KC_SMPL0100.wav
kacbuf, f 23;
#X connect 0 0 53 0;
#X connect 3 0 19 0;
#X connect 3 0 37 0;
#X connect 4 0 13 0;
#X connect 4 1 58 0;
#X connect 5 0 4 0;
#X connect 6 0 3 0;
#X connect 6 1 62 0;
#X connect 7 0 6 0;
#X connect 8 0 12 0;
#X connect 9 0 20 0;
#X connect 13 0 19 0;
#X connect 13 0 38 0;
#X connect 14 0 15 0;
#X connect 15 0 3 0;
#X connect 15 1 9 0;
#X connect 16 0 17 0;
#X connect 17 0 13 0;
#X connect 17 1 8 0;
#X connect 22 0 27 0;
#X connect 22 1 59 0;
#X connect 23 0 22 0;
#X connect 25 0 26 0;
#X connect 26 0 27 0;
#X connect 26 1 28 0;
#X connect 27 0 19 0;
#X connect 27 0 39 0;
#X connect 28 0 24 0;
#X connect 30 0 36 0;
#X connect 30 1 60 0;
#X connect 31 0 30 0;
#X connect 33 0 34 0;
#X connect 34 0 36 0;
#X connect 34 1 35 0;
#X connect 35 0 32 0;
#X connect 36 0 19 0;
#X connect 36 0 40 0;
#X connect 41 0 53 0;
#X connect 42 0 43 0;
#X connect 43 0 44 0;
#X connect 44 0 43 1;
#X connect 44 0 56 0;
#X connect 47 0 55 0;
#X connect 47 1 61 0;
#X connect 48 0 47 0;
#X connect 50 0 51 0;
#X connect 51 0 55 0;
#X connect 51 1 54 0;
#X connect 53 0 6 0;
#X connect 53 1 4 0;
#X connect 53 2 22 0;
#X connect 53 3 30 0;
#X connect 53 4 47 0;
#X connect 54 0 49 0;
#X connect 55 0 52 0;
#X connect 56 0 45 0;
#X connect 56 0 57 0;
#X connect 57 0 15 0;
#X connect 57 1 17 0;
#X connect 57 2 26 0;
#X connect 57 3 34 0;
#X connect 57 4 51 0;
#X connect 58 0 1 0;
#X connect 59 0 21 0;
#X connect 60 0 29 0;
#X connect 61 0 46 0;
#X connect 62 0 2 0;
#X restore 391 125 pd buffers;
#X text 405 102 swap buffer-no cpu peak;
#N canvas 0 51 450 300 (subpatch) 0;
#X array kacbuf 19287 float 0;
#X coords 0 1 19286 -1 100 25 1 0 0;
#X restore 79 232 graph;
#N canvas 0 51 450 300 (subpatch) 0;
#X array kacbuf1 14773 float 0;
#X coords 0 1 14772 -1 100 25 1 0 0;
#X restore 179 232 graph;
#N canvas 0 51 450 300 (subpatch) 0;
#X array kacbuf2 22018 float 0;
#X coords 0 1 22017 -1 100 25 1 0 0;
#X restore 279 232 graph;
#N canvas 0 51 450 300 (subpatch) 0;
#X array kacbuf3 18274 float 0;
#X coords 0 1 18273 -1 100 25 1 0 0;
#X restore 379 232 graph;
#N canvas 0 51 450 300 (subpatch) 0;
#X array kacbuf4 20831 float 0;
#X coords 0 1 20830 -1 100 25 1 0 0;
#X restore 479 232 graph;
#X text 77 313 MA TO DUZY WPLYW BO JAK JEST TA SAMA LIGHT GETE TO CALY
CZAS TAKIE SAME USTAWIENIA - TO NUDAA \, A JAK SIE ZMIENIA Z KAZDYM
SWIATELKEIM TO JEST DUZO CIEKAWIEJ!;
#X text 77 261 IN THIS PATCH IT'S IMPORTATN TO HAVE TWO SEPARATE LIGHT
GATES - ONE FOR TRIGGERING SAMPLES SETTINGS AND ONE FOR AUDIO ON OFF
- wyjebalem to bo bruzdzilo \, lepiej bez gate na volume;
#X obj 86 72 inlet;
#X obj 366 40 inlet;
#X obj 82 150 s SMPL_SEL_LED_CTRL2;
#X connect 5 0 24 0;
#X connect 5 1 0 0;
#X connect 6 0 5 0;
#X connect 8 0 7 0;
#X connect 10 0 13 0;
#X connect 13 0 12 0;
#X connect 13 0 11 0;
#X connect 22 0 6 0;
#X connect 23 0 13 0;
#X connect 23 0 0 1;
#X restore 224 64 pd extra_patcz4_manage_Drums;
#X floatatom 295 143 5 0 0 0 - - -;
#X obj 234 152 hsl 50 8 0 40 0 0 speed_var empty SPEED -2 -8 0 10 -258113
-1 -1 492 1;
#X obj 115 143 hsl 50 8 0 1 0 0 len_var empty length -2 -8 0 10 -258113
-1 -1 3995 1;
#X obj 151 337 throw~ ch3pre;
#X obj 259 338 throw~ PATCH3L;
#X obj 377 337 throw~ PATCH3R;
#X floatatom 483 218 5 0 0 0 - patch3level -;
#X text 96 341 OUTPUT:;
#X text 118 355 fx send pre/post;
#X text 138 368 CHANNEL STRIP;
#X obj 513 322 switch~;
#X floatatom 536 297 2 0 0 0 - - -;
#X text 553 296 dsp;
#X obj 513 290 tgl 15 0 empty empty empty 17 7 0 10 -262144 -1 -1 1
1;
#X obj 513 266 1_ARD_COMPARE 0.1;
#X obj 151 298 *~, f 26;
#X obj 483 242 t f f;
#X obj 383 227 sig~;
#X obj 333 252 lop~ 10;
#N canvas 41 54 1039 448 SND_PTCH_3B_HC_GABBER 0;
#X text 566 21 change playback modes;
#X obj 526 45 t b;
#X obj 526 67 i;
#X obj 527 92 + 1;
#X text 80 402 OUTPUT;
#X obj 132 379 hip~ 20;
#X obj 526 25 bng 15 250 50 0 empty PTCH3_PAR_D1B D1B 17 7 0 10 -4034
-258113 -1;
#X obj 131 205 *, f 17;
#X text 581 250 speed;
#X obj 131 255 pack f f, f 57;
#X obj 131 308 1_KAC_stretch MajStrecz, f 29;
#X text 142 235 the length of slice;
#X text 927 161 speed;
#X text 11 309 AUDIO PATCH GUTS;
#X obj 365 83 r initialSlice;
#X floatatom 375 117 5 0 0 0 - - -;
#X obj 913 117 r min_sens;
#X obj 249 179 *, f 17;
#X floatatom 282 203 8 0 0 0 - - -;
#X obj 527 153 vradio 15 1 0 3 empty empty PLAYBACK 0 -8 0 10 -258113
-1 -4160 1;
#X obj 812 100 hsl 50 8 2 40 0 0 empty speed_var SPEED -2 -8 0 10 -4034
-1 -1 260 1;
#X text 418 125 fromm Sample;
#X obj 252 91 hsl 50 15 0 1 0 0 empty len_var length -2 -8 0 10 -4034
-1 -1 3995 1;
#X obj 132 402 outlet~;
#X obj 366 310 sig~;
#X obj 132 355 *~, f 34;
#X obj 895 139 /;
#X floatatom 905 193 5 0 0 0 - - -;
#X obj 652 108 hsl 100 15 0 1 0 0 empty 01_TRESH 01_F_TRSHLD 2 8 0
10 -33289 -258113 -262144 5260 1;
#X obj 366 282 tgl 25 0 empty light_gate LG 0 8 0 14 -4034 -258113
-33289 0 1;
#X floatatom 810 126 5 0 0 0 - - -;
#X floatatom 929 145 5 0 0 0 - - -;
#X floatatom 90 233 5 0 0 0 - - -;
#X floatatom 661 194 5 0 0 0 - - -;
#X floatatom 783 191 5 0 0 0 - - -;
#X obj 649 163 + 0.01;
#X obj 772 164 moses -0.0125;
#X obj 772 142 - 0.5;
#X text 656 84 sensor brightest;
#X obj 649 136 *, f 6;
#X obj 249 127 1_exp_scale_ctrl 20 1, f 13;
#X obj 527 226 switch 3 1, f 53;
#X floatatom 537 251 5 0 0 0 - - -;
#X obj 527 201 + 1;
#X obj 527 113 % 3;
#X floatatom 199 167 5 0 0 0 - - -;
#X obj 130 51 r sens_bright_detected;
#X obj 130 76 + 1;
#X obj 130 101 / 32;
#X obj 366 333 lop~ 10;
#X floatatom 150 126 5 0 0 0 - - -;
#X connect 1 0 2 0;
#X connect 2 0 3 0;
#X connect 3 0 2 1;
#X connect 3 0 44 0;
#X connect 5 0 23 0;
#X connect 6 0 1 0;
#X connect 7 0 32 0;
#X connect 7 0 9 0;
#X connect 9 0 10 0;
#X connect 10 0 25 0;
#X connect 14 0 15 0;
#X connect 14 0 17 1;
#X connect 16 0 31 0;
#X connect 16 0 26 1;
#X connect 17 0 18 0;
#X connect 17 0 7 1;
#X connect 19 0 43 0;
#X connect 20 0 39 1;
#X connect 20 0 26 0;
#X connect 20 0 30 0;
#X connect 22 0 40 0;
#X connect 24 0 49 0;
#X connect 25 0 5 0;
#X connect 26 0 27 0;
#X connect 26 0 41 3;
#X connect 28 0 37 0;
#X connect 28 0 39 0;
#X connect 29 0 24 0;
#X connect 35 0 33 0;
#X connect 35 0 41 1;
#X connect 36 0 34 0;
#X connect 36 0 41 2;
#X connect 37 0 36 0;
#X connect 39 0 35 0;
#X connect 40 0 17 0;
#X connect 40 0 45 0;
#X connect 41 0 42 0;
#X connect 41 0 9 1;
#X connect 43 0 41 0;
#X connect 44 0 19 0;
#X connect 46 0 47 0;
#X connect 47 0 48 0;
#X connect 48 0 50 0;
#X connect 48 0 7 0;
#X connect 49 0 25 1;
#X restore 150 211 pd SND_PTCH_3B_HC_GABBER;
#X text 10 102 RENAME \, REMAP;
#X obj 234 102 hsl 50 10 0 1 0 0 empty PTCH3_PAR_A2 A2 -2 -8 0 10 -128992
-4034 -4160 1231 1;
#X obj 115 112 hsl 50 10 0 1 0 0 empty PTCH3_PAR_A1 A1 -2 -8 0 10 -162280
-4034 -4160 3995 1;
#X obj 231 115 1_exp_scale_ctrl 32 2;
#X obj 430 112 bng 15 250 50 0 empty PTCH3_PAR_D1B D1B 17 7 0 10 -4034
-33289 -1;
#X obj 399 112 tgl 15 0 empty PTCH3_PAR_D1 D1 17 7 0 10 -4034 -1 -1
0 1;
#X obj 496 111 tgl 15 0 empty PTCH3_PAR_D2 D2 17 7 0 10 -4034 -1 -1
0 1;
#X obj 531 112 bng 15 250 50 0 empty PTCH3_PAR_D2B D2B 17 7 0 10 -4034
-33289 -1;
#X connect 1 0 5 0;
#X connect 2 0 5 1;
#X connect 12 0 22 0;
#X connect 17 0 16 0;
#X connect 19 0 16 0;
#X connect 20 0 19 0;
#X connect 21 0 10 0;
#X connect 21 0 11 0;
#X connect 21 0 9 0;
#X connect 22 0 23 0;
#X connect 22 1 20 0;
#X connect 23 0 24 0;
#X connect 24 0 21 1;
#X connect 25 0 21 0;
#X connect 27 0 29 0;
#X connect 28 0 8 0;
#X connect 29 0 6 0;
#X connect 29 0 7 0;
