#N canvas 49 51 1709 956 10;
#X declare -lib zexy;
#X declare -lib zexy;
#X declare -lib zexy;
#X declare -lib zexy;
#X declare -lib zexy;
#X declare -lib zexy;
#X declare -lib zexy;
#X obj 26 -67 inlet;
#X text 119 -66 incoming sensor value;
#X text 443 -77 check various options and order of objects:;
#X text 448 -45 arguments to abstraction will be:;
#X text 456 35 smooth value (float);
#X text 454 61 output range min \, max;
#X obj 23 -896 change;
#X obj 65 -858 bng 15 250 50 0 empty empty empty 17 7 0 10 -262144
-1 -1;
#X floatatom 84 -858 5 0 0 0 - - -;
#X floatatom 84 -786 5 0 0 0 - - -;
#X obj 27 -815 smooth 0.8;
#X floatatom 38 -942 5 0 0 0 - - -;
#X floatatom 77 -896 5 0 0 0 - - -;
#X obj 24 -923 median_n 6;
#X floatatom 233 -1034 5 0 0 0 - - -;
#X obj 24 -962 speedlim 50;
#X floatatom 620 -896 5 0 0 0 - - -;
#X floatatom 632 -814 5 0 0 0 - - -;
#X obj 577 -840 smooth 0.8;
#X floatatom 598 -941 5 0 0 0 - - -;
#X obj 577 -922 median_n 6;
#X obj 578 -963 speedlim 50;
#X obj 579 -814 change;
#X floatatom 631 -787 5 0 0 0 - - -;
#X obj 602 -786 bng 15 250 50 0 empty empty empty 17 7 0 10 -262144
-1 -1;
#X floatatom 724 -857 5 0 0 0 - - -;
#X floatatom 742 -809 5 0 0 0 - - -;
#X obj 688 -833 smooth 0.8;
#X floatatom 736 -898 5 0 0 0 - - -;
#X obj 692 -921 speedlim 50;
#X obj 690 -807 change;
#X floatatom 742 -781 5 0 0 0 - - -;
#X obj 713 -779 bng 15 250 50 0 empty empty empty 17 7 0 10 -262144
-1 -1;
#X obj 38 -785 bng 15 250 50 0 empty empty empty 17 7 0 10 -262144
-1 -1;
#X obj 692 -962 median_n 6;
#X floatatom 183 -895 5 0 0 0 - - -;
#X floatatom 192 -802 5 0 0 0 - - -;
#X floatatom 156 -941 5 0 0 0 - - -;
#X obj 139 -922 median_n 6;
#X obj 138 -963 speedlim 50;
#X obj 140 -805 change;
#X floatatom 195 -776 5 0 0 0 - - -;
#X obj 163 -777 bng 15 250 50 0 empty empty empty 17 7 0 10 -262144
-1 -1;
#X obj 138 -831 smooth 0.14;
#X text 45 -1002 1;
#X text 599 -989 2;
#X text 151 -975 3;
#X text 697 -982 4;
#X text 465 107 dodac int jeszcze?;
#X obj 239 -895 smooth 0.8;
#X floatatom 273 -778 5 0 0 0 - - -;
#X floatatom 529 -772 5 0 0 0 - - -;
#X obj 485 -920 median_n 6;
#X obj 493 -794 change;
#X obj 512 -760 bng 15 250 50 0 empty empty empty 17 7 0 10 -262144
-1 -1;
#X obj 254 -793 bng 15 250 50 0 empty empty empty 17 7 0 10 -262144
-1 -1;
#X obj 232 -1067 r scalingTEST;
#X obj 239 -962 speedlim 50;
#X obj 485 -959 speedlim 50;
#X obj 26 -40 speedlim \$1;
#X text 446 -34 speedlim ms \, - od 20 do 50 jest ok;
#X text 447 -7 median int (usredniaj ostatnie x values) \,;
#X text 32 -108 - input - odejmi od wartosci poczatkowej???;
#X obj 26 -14 median \$2;
#X text 116 -41 1 speedlim ms \, - od 20 do 50 jest ok;
#X text 113 -15 2 median int (usredniaj ostatnie x values) \,;
#X obj 26 113 outlet;
#X text 84 113 scaled out value;
#X obj 39 -717 vsl 100 500 0 1 0 0 empty empty empty 0 -9 0 10 -262144
-1 -1 49522 1;
#X obj 23 -864 / 1024;
#X obj 577 -895 / 1024;
#X obj 585 -717 vsl 100 500 0 1 0 0 empty empty empty 0 -9 0 10 -262144
-1 -1 49559 1;
#X obj 140 -896 / 1024;
#X obj 141 -717 vsl 100 500 0 1 0 0 empty empty empty 0 -9 0 10 -262144
-1 -1 49559 1;
#X obj 693 -897 / 1024;
#X obj 690 -718 vsl 100 500 0 1 0 0 empty empty empty 0 -9 0 10 -262144
-1 -1 49559 1;
#X obj 245 -718 vsl 100 500 0 1 0 0 empty empty empty 0 -9 0 10 -262144
-1 -1 49560 1;
#X obj 241 -860 / 1024;
#X obj 484 -717 vsl 100 500 0 1 0 0 empty empty empty 0 -9 0 10 -262144
-1 -1 49559 1;
#X obj 487 -892 / 1024;
#X obj 343 -816 change;
#X floatatom 362 -774 5 0 0 0 - - -;
#X obj 410 -783 bng 15 250 50 0 empty empty empty 17 7 0 10 -262144
-1 -1;
#X floatatom 839 -785 5 0 0 0 - - -;
#X obj 804 -846 change;
#X obj 865 -840 bng 15 250 50 0 empty empty empty 17 7 0 10 -262144
-1 -1;
#X obj 801 -924 median_n 6;
#X obj 801 -961 speedlim 50;
#X obj 345 -717 vsl 100 500 0 1 0 0 empty empty empty 0 -9 0 10 -262144
-1 -1 49559 1;
#X obj 792 -719 vsl 100 500 0 1 0 0 empty empty empty 0 -9 0 10 -262144
-1 -1 49607 1;
#X obj 344 -961 speedlim 50;
#X obj 345 -840 smooth 0.8;
#X text 240 -981 5;
#X text 486 -974 6;
#X text 347 -975 7;
#X text 802 -982 8;
#X obj 343 -894 scale 0 1024 0 1;
#X obj 802 -895 smooth 0.8;
#X floatatom 700 -941 5 0 0 0 - - -;
#X floatatom 248 -943 5 0 0 0 - - -;
#X obj 39 -172 counter;
#X obj 39 -194 switch;
#X obj 992 -319 tgl 15 0 empty empty empty 17 7 0 10 -262144 -1 -1
1 1;
#X obj 992 -296 + 1;
#X floatatom 39 -149 5 0 0 0 - - -;
#X obj 582 -172 counter;
#X obj 582 -194 switch;
#X floatatom 582 -149 5 0 0 0 - - -;
#X obj 141 -175 counter;
#X obj 141 -197 switch;
#X floatatom 141 -152 5 0 0 0 - - -;
#X obj 693 -174 counter;
#X obj 693 -196 switch;
#X floatatom 693 -151 5 0 0 0 - - -;
#X obj 246 -174 counter;
#X obj 246 -196 switch;
#X floatatom 246 -151 5 0 0 0 - - -;
#X obj 488 -175 counter;
#X obj 488 -197 switch;
#X floatatom 488 -152 5 0 0 0 - - -;
#X obj 343 -175 counter;
#X obj 343 -197 switch;
#X floatatom 343 -152 5 0 0 0 - - -;
#X obj 799 -172 counter;
#X obj 799 -194 switch;
#X floatatom 799 -149 5 0 0 0 - - -;
#X text 282 -1031 najlepiej na razie wychodzi 2 \, 6 \, 8 /;
#X text 510 -1032 1 \, 3 \, 5 i 7 slabo (drgaja);
#X text 318 -1179 2 i 6 to tosamo \; -) sprawdze jak rozne smooth dziala
na ich;
#X text 319 -1216 2 i 3 to tosamo z innym smooth: lepiej wychodzi smooth
0.8 niz 0.14;
#X text 326 -1150 smooth 1 lepsze niz 0.8? szybsze;
#X obj 488 -818 smooth 0.25;
#X text 330 -1105 im blizsza wartosc smooth do zera tym wolniej sie
rusza \, trza znalesc optimum;
#X text 325 -1061 5 i 7 najwecej bangow \, potem 3 \, 6 \, 2 i 1 \,
najmniej 4 i 8;
#X msg 946 -219 1e+09;
#X obj 804 -817 scale 0 1023 0 1;
#X floatatom 889 -842 5 0 0 0 - - -;
#X obj 26 19 smooth \$3;
#X text 115 10 3;
#X text 130 11 smooth value (float 0-1);
#X text 113 25 im blizsza zera tym wolniej sie rusza;
#X obj 26 51 change;
#X text 124 49 out only if input changed;
#X obj 26 82 scale 0 1023 \$4 \$5;
#X text 154 83 scale out range 4=min 5=max;
#X connect 0 0 59 0;
#X connect 6 0 7 0;
#X connect 6 0 8 0;
#X connect 6 0 69 0;
#X connect 10 0 9 0;
#X connect 10 0 33 0;
#X connect 10 0 68 0;
#X connect 13 0 12 0;
#X connect 13 0 6 0;
#X connect 14 0 15 0;
#X connect 14 0 21 0;
#X connect 14 0 39 0;
#X connect 14 0 34 0;
#X connect 14 0 90 0;
#X connect 14 0 87 0;
#X connect 14 0 57 0;
#X connect 14 0 58 0;
#X connect 15 0 13 0;
#X connect 15 0 11 0;
#X connect 18 0 17 0;
#X connect 18 0 22 0;
#X connect 20 0 16 0;
#X connect 20 0 70 0;
#X connect 21 0 20 0;
#X connect 21 0 19 0;
#X connect 22 0 23 0;
#X connect 22 0 24 0;
#X connect 22 0 71 0;
#X connect 27 0 26 0;
#X connect 27 0 30 0;
#X connect 29 0 28 0;
#X connect 29 0 74 0;
#X connect 30 0 31 0;
#X connect 30 0 32 0;
#X connect 30 0 75 0;
#X connect 34 0 29 0;
#X connect 34 0 98 0;
#X connect 38 0 35 0;
#X connect 38 0 72 0;
#X connect 39 0 38 0;
#X connect 39 0 37 0;
#X connect 40 0 41 0;
#X connect 40 0 42 0;
#X connect 40 0 73 0;
#X connect 43 0 36 0;
#X connect 43 0 40 0;
#X connect 49 0 77 0;
#X connect 52 0 79 0;
#X connect 53 0 51 0;
#X connect 53 0 54 0;
#X connect 53 0 78 0;
#X connect 56 0 14 0;
#X connect 57 0 49 0;
#X connect 57 0 99 0;
#X connect 58 0 52 0;
#X connect 59 0 63 0;
#X connect 63 0 137 0;
#X connect 68 0 101 2;
#X connect 69 0 10 0;
#X connect 70 0 18 0;
#X connect 71 0 106 2;
#X connect 72 0 43 0;
#X connect 73 0 109 2;
#X connect 74 0 25 0;
#X connect 74 0 27 0;
#X connect 75 0 112 2;
#X connect 76 0 115 2;
#X connect 77 0 76 0;
#X connect 77 0 50 0;
#X connect 78 0 118 2;
#X connect 79 0 131 0;
#X connect 80 0 81 0;
#X connect 80 0 88 0;
#X connect 81 0 82 0;
#X connect 84 0 85 0;
#X connect 84 0 135 0;
#X connect 84 0 136 0;
#X connect 86 0 97 0;
#X connect 87 0 86 0;
#X connect 88 0 121 2;
#X connect 89 0 124 2;
#X connect 90 0 96 0;
#X connect 91 0 80 0;
#X connect 96 0 91 0;
#X connect 97 0 84 0;
#X connect 100 0 104 0;
#X connect 101 0 100 0;
#X connect 102 0 103 0;
#X connect 103 0 101 0;
#X connect 103 0 106 0;
#X connect 103 0 109 0;
#X connect 103 0 112 0;
#X connect 103 0 115 0;
#X connect 103 0 118 0;
#X connect 103 0 121 0;
#X connect 103 0 124 0;
#X connect 105 0 107 0;
#X connect 106 0 105 0;
#X connect 108 0 110 0;
#X connect 109 0 108 0;
#X connect 111 0 113 0;
#X connect 112 0 111 0;
#X connect 114 0 116 0;
#X connect 115 0 114 0;
#X connect 117 0 119 0;
#X connect 118 0 117 0;
#X connect 120 0 122 0;
#X connect 121 0 120 0;
#X connect 123 0 125 0;
#X connect 124 0 123 0;
#X connect 131 0 53 0;
#X connect 134 0 123 4;
#X connect 134 0 111 4;
#X connect 134 0 105 4;
#X connect 134 0 117 4;
#X connect 134 0 120 4;
#X connect 134 0 114 4;
#X connect 134 0 108 4;
#X connect 134 0 100 4;
#X connect 135 0 83 0;
#X connect 135 0 89 0;
#X connect 137 0 141 0;
#X connect 141 0 143 0;
#X connect 143 0 66 0;
