#N canvas 0 51 450 300 10;
#X obj 64 89 cyclone/Uzi \$1;
#X obj 45 36 inlet;
#X obj 158 45 inlet;
#X obj 37 132 outlet;
#X obj 93 135 outlet;
#X obj 154 135 outlet;
#X connect 0 0 3 0;
#X connect 0 1 4 0;
#X connect 0 2 5 0;
#X connect 1 0 0 0;
#X connect 2 0 0 1;
