#N canvas 735 380 600 381 10;
#X obj 21 -713 cnv 15 300 280 empty empty INPUTS 220 12 0 20 -158827
-4160 0;
#N canvas 309 151 1008 703 serialRead 1;
#X obj 13 353 sel 255;
#X obj -83 424 < 128;
#X obj -83 448 + 1;
#X obj -83 477 gate 2;
#X obj -84 506 - 128;
#X obj 20 568 route 1 2;
#X text 399 347 Open serial port by number;
#X text 390 282 print available devices (wait for it...);
#X msg 291 150 ports;
#X msg 350 282 info;
#X obj 16 543 zl group 100;
#X msg 354 241 devicename /dev/ttyUSB0;
#X obj 2 605 outlet;
#X obj -70 604 outlet;
#X obj 61 283 metro 10;
#X msg 350 310 baud 115200;
#X obj 314 121 loadbang;
#X obj 233 398 print SERIAL ports available;
#X msg 346 352 open 2;
#X msg 355 215 devices;
#X obj 442 -1 loadbang;
#X msg 457 68 bits 8;
#X msg 456 93 parity 0;
#X msg 456 118 stopbit 0;
#X obj 442 19 bng 15 250 50 0 empty empty empty 17 7 0 10 -262144 -1
-1;
#X msg 457 43 baud 115200;
#X msg 450 149 open 2;
#X msg 351 259 devicename /dev/ttyUSB2;
#X obj 139 172 tgl 15 0 empty empty empty 17 7 0 10 -262144 -1 -1 1
1;
#X msg 221 147 99;
#X obj 274 5 loadbang;
#X obj 105 45 t b b b;
#X msg 140 146 1;
#X obj 67 124 del 1000;
#X obj 274 27 bng 15 250 50 0 empty empty empty 17 7 0 10 -262144 -1
-1;
#X obj 140 123 del 2000;
#X obj 219 125 del 3000;
#X text -38 122 read ser metro;
#X obj -58 22 inlet;
#X msg -69 122 2;
#X obj 110 9 inlet;
#X obj 274 43 del 500;
#X msg -16 237 open 2;
#X text 0 366 unpacking stuff;
#X obj 183 601 outlet;
#X obj 7 14 inlet;
#X msg 207 557 set;
#X obj 215 497 del 500;
#X obj -31 393 t f f;
#X text 44 430 everything above 127 is control index;
#X floatatom 109 253 5 0 0 0 - - -;
#X msg 4 191 open 1;
#X obj 61 326 comport 1 115200;
#X msg -47 285 open 3;
#X msg 64 199 open 0;
#X connect 0 0 10 0;
#X connect 0 1 48 0;
#X connect 1 0 2 0;
#X connect 2 0 3 0;
#X connect 3 0 4 0;
#X connect 3 1 10 0;
#X connect 4 0 10 0;
#X connect 5 0 12 0;
#X connect 5 1 13 0;
#X connect 8 0 52 0;
#X connect 9 0 52 0;
#X connect 10 0 5 0;
#X connect 11 0 52 0;
#X connect 14 0 52 0;
#X connect 15 0 52 0;
#X connect 16 0 8 0;
#X connect 18 0 52 0;
#X connect 19 0 52 0;
#X connect 20 0 24 0;
#X connect 24 0 25 0;
#X connect 24 0 21 0;
#X connect 24 0 22 0;
#X connect 24 0 23 0;
#X connect 24 0 26 0;
#X connect 27 0 52 0;
#X connect 28 0 14 0;
#X connect 29 0 52 0;
#X connect 30 0 34 0;
#X connect 31 0 33 0;
#X connect 31 1 35 0;
#X connect 31 2 36 0;
#X connect 32 0 28 0;
#X connect 33 0 42 0;
#X connect 33 0 51 0;
#X connect 33 0 53 0;
#X connect 34 0 41 0;
#X connect 35 0 32 0;
#X connect 36 0 29 0;
#X connect 38 0 39 0;
#X connect 38 0 51 0;
#X connect 39 0 42 0;
#X connect 40 0 31 0;
#X connect 41 0 31 0;
#X connect 45 0 52 0;
#X connect 46 0 44 0;
#X connect 48 0 3 1;
#X connect 48 1 1 0;
#X connect 50 0 14 1;
#X connect 51 0 52 0;
#X connect 52 0 0 0;
#X connect 52 1 17 0;
#X connect 52 1 44 0;
#X connect 53 0 52 0;
#X connect 54 0 52 0;
#X restore 23 -681 pd serialRead;
#N canvas 261 253 856 484 digitalIns 0;
#X obj 67 52 unpack 0 0;
#X obj 116 78 << 7;
#X obj 69 110 +;
#X text 132 53 digital;
#X obj 22 172 & 1;
#X obj 20 206 == 0;
#X obj 58 206 == 0;
#X obj 60 172 & 2;
#X obj 98 206 == 0;
#X obj 136 206 == 0;
#X obj 100 172 & 4;
#X obj 138 172 & 8;
#X obj 170 205 == 0;
#X obj 208 205 == 0;
#X obj 248 205 == 0;
#X obj 286 205 == 0;
#X obj 172 171 & 16;
#X obj 210 171 & 32;
#X obj 250 171 & 64;
#X obj 288 171 & 128;
#X obj 327 204 == 0;
#X obj 367 204 == 0;
#X obj 405 204 == 0;
#X obj 329 170 & 256;
#X obj 369 170 & 512;
#X obj 407 170 & 1024;
#X obj 137 245 pack 0 0 0 0 0 0 0 0 0 0 0;
#X text 320 242 digital outs;
#X obj 127 297 unpack 0 0 0 0 0 0 0 0 0 0 0 0;
#X floatatom 362 327 5 0 0 0 - - -;
#X text 33 295 digital outs;
#X obj 64 10 inlet;
#X obj 183 325 tgl 15 0 empty empty empty 17 7 0 10 -262144 -1 -1 1
1;
#X obj 239 324 tgl 15 0 empty empty empty 17 7 0 10 -262144 -1 -1 1
1;
#X obj 268 326 tgl 15 0 empty empty empty 17 7 0 10 -262144 -1 -1 0
1;
#X obj 301 324 tgl 15 0 empty empty empty 17 7 0 10 -262144 -1 -1 0
1;
#X obj 318 324 tgl 15 0 empty empty empty 17 7 0 10 -262144 -1 -1 0
1;
#X obj 70 272 outlet;
#X obj 145 322 tgl 15 0 empty empty empty 17 7 0 10 -262144 -1 -1 0
1;
#X obj 107 350 s TS1;
#X obj 150 353 s TS2;
#X obj 214 355 s TS3;
#X obj 265 377 s B1;
#X obj 308 357 s B2;
#X obj 372 359 s B3;
#X obj 419 345 tgl 15 0 empty empty empty 17 7 0 10 -262144 -1 -1 0
1;
#X obj 167 324 tgl 15 0 empty empty empty 17 7 0 10 -262144 -1 -1 1
1;
#X obj 417 307 r TS4;
#X text 467 307 read from analog 4;
#X obj 199 325 tgl 15 0 empty empty empty 17 7 0 10 -262144 -1 -1 1
1;
#X obj 263 350 sel 1;
#X obj 544 92 change;
#X text 584 38 button in;
#X obj 544 39 r B1;
#X floatatom 617 123 5 0 0 0 - - -;
#X obj 544 68 speedlim 100;
#X obj 543 119 sel 1;
#X obj 578 145 + 1;
#X obj 544 147 i;
#X floatatom 543 197 5 0 0 0 - - -;
#X obj 576 168 % 3;
#X obj 544 171 + 1;
#X text 684 46 debouncing kind of?;
#X connect 0 0 2 0;
#X connect 0 1 1 0;
#X connect 1 0 2 1;
#X connect 2 0 4 0;
#X connect 2 0 7 0;
#X connect 2 0 10 0;
#X connect 2 0 11 0;
#X connect 2 0 16 0;
#X connect 2 0 17 0;
#X connect 2 0 18 0;
#X connect 2 0 19 0;
#X connect 2 0 23 0;
#X connect 2 0 24 0;
#X connect 2 0 25 0;
#X connect 4 0 5 0;
#X connect 5 0 26 0;
#X connect 6 0 26 1;
#X connect 7 0 6 0;
#X connect 8 0 26 2;
#X connect 9 0 26 3;
#X connect 10 0 8 0;
#X connect 11 0 9 0;
#X connect 12 0 26 4;
#X connect 13 0 26 5;
#X connect 14 0 26 6;
#X connect 15 0 26 7;
#X connect 16 0 12 0;
#X connect 17 0 13 0;
#X connect 18 0 14 0;
#X connect 19 0 15 0;
#X connect 20 0 26 8;
#X connect 21 0 26 9;
#X connect 22 0 26 10;
#X connect 23 0 20 0;
#X connect 24 0 21 0;
#X connect 25 0 22 0;
#X connect 26 0 28 0;
#X connect 26 0 37 0;
#X connect 28 1 38 0;
#X connect 28 2 46 0;
#X connect 28 3 32 0;
#X connect 28 4 49 0;
#X connect 28 6 33 0;
#X connect 28 8 34 0;
#X connect 28 8 42 0;
#X connect 28 9 35 0;
#X connect 28 10 36 0;
#X connect 28 11 29 0;
#X connect 31 0 0 0;
#X connect 32 0 40 0;
#X connect 33 0 41 0;
#X connect 34 0 50 0;
#X connect 35 0 43 0;
#X connect 36 0 44 0;
#X connect 38 0 39 0;
#X connect 47 0 45 0;
#X connect 51 0 54 0;
#X connect 51 0 56 0;
#X connect 53 0 55 0;
#X connect 55 0 51 0;
#X connect 56 0 58 0;
#X connect 57 0 60 0;
#X connect 58 0 57 0;
#X connect 58 0 61 0;
#X connect 60 0 58 1;
#X connect 61 0 59 0;
#X restore 23 -655 pd digitalIns;
#N canvas 108 117 637 307 (subpatch) 0;
#X array main 32 float 3;
#A 0 533 377 407 45 583 410 873 811 896 844 878 851 1023 139 0 940
879 831 0 1023 0 10 20 0 820 857 855 771 533 377 407 47;
#X coords 0 1024 32 0 200 50 1 0 0;
#X restore 25 -553 graph;
#X text 64 -636 0-1024;
#X obj 231 -684 vradio 20 1 0 6 empty ScaleSel scale 0 -8 0 10 -4032
-1 -1 0;
#X text 254 -668 auto;
#X text 253 -650 fb - 0 1;
#X text 253 -589 by hand;
#X text 253 -610 anything;
#X text 254 -632 sin 1-0;
#X text 254 -686 scaling:;
#X msg 115 -711 close;
#X obj 239 -563 hsl 80 15 0 1 0 0 empty smooth smoothFactor 2 8 0 10
-262130 -1 -258113 0 1;
#X text 128 -636 sensors input;
#X obj 167 -712 bng 25 250 50 0 empty empty restartSERIAL 10 7 0 10
-258113 -1 -4160;
#X msg 22 -709 ports;
#X msg 121 -679 add2 \$1;
#X msg 201 -656 -1 -1 -1 0 1 3 0 1 3 0 1 3 0 1 3 -1 -1;
#X text 119 -655 available ports;
#X msg 182 -679 set;
#X floatatom 232 -521 5 0 0 0 - - -;
#X floatatom 280 -522 5 0 0 0 - - -;
#X text 251 -503 min;
#X text 283 -504 max;
#N canvas 1525 792 633 309 analogVal 1;
#X obj 42 8 << 7;
#X obj 1 94 listfunnel;
#X obj 0 -20 zl slice 1;
#X obj 0 -43 list-iter 2;
#X obj 0 21 +;
#X obj -1 -67 inlet;
#X floatatom -207 -44 5 0 0 0 - - -;
#X floatatom -162 -43 5 0 0 0 - - -;
#X obj -191 -16 t b f;
#X obj 1 125 unpack 0 0;
#X obj 2 153 swap;
#X obj 84 100 s LDRlistfunnel;
#X text -207 -64 output range;
#X obj -231 -17 t b f;
#X floatatom -245 -45 5 0 0 0 - - -;
#X obj -272 -18 t b f;
#X floatatom -284 -45 5 0 0 0 - - -;
#X obj -283 11 pack 200 300 10 20;
#X text -348 -49 scaling:;
#X msg -95 -28 0.14;
#X obj -116 -54 loadbang;
#X obj 86 125 spray 24;
#X text 131 -61 POTS;
#X obj -89 92 print;
#X obj 2 48 zl group 34;
#X obj 1 73 zl slice 32;
#X obj 2 180 tabwrite main;
#X connect 0 0 4 1;
#X connect 1 0 9 0;
#X connect 1 0 11 0;
#X connect 1 0 21 0;
#X connect 2 0 4 0;
#X connect 2 1 0 0;
#X connect 3 0 2 0;
#X connect 4 0 24 0;
#X connect 5 0 3 0;
#X connect 6 0 13 0;
#X connect 7 0 8 0;
#X connect 8 0 17 0;
#X connect 8 1 17 3;
#X connect 9 0 10 0;
#X connect 9 1 10 1;
#X connect 10 0 26 0;
#X connect 10 1 26 1;
#X connect 13 0 17 0;
#X connect 13 1 17 2;
#X connect 14 0 15 0;
#X connect 15 0 17 0;
#X connect 15 1 17 1;
#X connect 16 0 17 0;
#X connect 20 0 19 0;
#X connect 24 0 25 0;
#X connect 24 0 23 0;
#X connect 25 0 1 0;
#X restore 59 -613 pd analogVal;
#X obj 20 -497 r TS1;
#X obj 61 -496 r TS2;
#X obj 101 -496 r TS3;
#X obj 175 -496 r B1;
#X obj 232 -497 r B3;
#X obj 203 -496 r B2;
#X text 24 -476 analog and ditital in from sensor box;
#X obj 20 -458 r a1;
#X obj 56 -456 r a2;
#X obj 92 -456 r a3;
#X obj 127 -457 r a4;
#X obj 162 -456 r a5;
#X obj 196 -456 r a6;
#X obj 230 -457 r a7;
#X obj 265 -457 r a8;
#X obj 136 -495 r TS4;
#X msg 66 -708 open 0;
#X connect 1 0 2 0;
#X connect 1 1 25 0;
#X connect 1 2 17 0;
#X connect 12 0 1 1;
#X connect 15 0 1 2;
#X connect 16 0 1 1;
#X connect 17 0 18 0;
#X connect 20 0 18 0;
#X connect 42 0 1 1;
