#N canvas 22 58 1123 717 10;
#X obj 185 332 cnv 15 450 150 empty empty Serial_Out_LED_Ctrl 0 -10
0 20 -260929 -4160 0;
#N canvas 0 51 611 365 (subpatch) 0;
#X array 20_LEDS 60 float 2;
#X coords 0 255 60 0 300 40 1 0 0;
#X restore 194 435 graph;
#X floatatom 535 416 5 0 250 0 - - -;
#X obj 627 204 bng 15 250 50 0 empty empty empty 17 7 0 10 -262144
-1 -1;
#X msg 128 214 close;
#X msg 173 214 open 2;
#X floatatom 655 363 5 0 253 0 - - -;
#X msg 695 335 \; panel_leds const \$1 \; update_paneleds bang, f
21;
#N canvas 0 50 450 250 (subpatch) 0;
#X array panel_leds 36 float 2;
#X coords 0 30 36 0 100 30 1 0 0;
#X restore 481 191 graph;
#X obj 392 248 bng 15 250 50 0 update_paneleds empty update_panel_leds
17 7 0 10 -262144 -1 -1;
#X obj 785 332 tgl 15 0 empty LED_ARDUINO_ON LED_ARD_ON 17 7 0 10 -4034
-258113 -258113 1 1;
#X obj 498 395 bng 15 250 50 0 empty SEQ_ALL_LED_OFF LED_OFF 15 8 0
15 -258113 -1 -4160;
#X msg 498 414 0;
#N canvas 401 133 663 537 szut_down 0;
#X obj 179 184 &&;
#X obj 187 218 tgl 15 0 empty empty empty 17 7 0 10 -262144 -1 -1 0
1;
#X obj 239 224 &&;
#X obj 241 261 tgl 15 0 empty empty empty 17 7 0 10 -262144 -1 -1 0
1;
#X obj 189 380 ggee/shell;
#X obj 189 415 print stdout;
#X msg 189 348 sudo shutdown -h now;
#X obj 153 67 tgl 30 0 empty SHIFT_SND_CTRL SND__SHFT -20 15 0 15 -258113
-1 -1 0 1;
#X obj 238 68 tgl 30 0 empty SEQ_SHIFT SEQ__SHFT -20 15 0 15 -258113
-1 -1 0 1;
#X floatatom 116 148 5 0 0 0 - - -;
#X obj 72 75 bng 25 250 50 0 empty all_sends_off FX_S_OFF -12 12 0
10 -257985 -1 -1;
#X obj 72 148 tgl 15 0 empty empty empty 17 7 0 10 -262144 -1 -1 0
1;
#X obj 317 76 r szat_down_4;
#X obj 299 260 &&;
#X obj 279 288 tgl 15 0 empty empty empty 17 7 0 10 -262144 -1 -1 0
1;
#X obj 261 125 t b f;
#X obj 332 121 t b f;
#X obj 164 118 t b f;
#X obj 299 282 sel 1;
#X obj 299 304 t b b b;
#X obj 383 353 bng 30 250 50 0 SEQ_ALL_LED_OFF empty LED_OFF -15 15
0 15 -258113 -1 -4160;
#X msg 451 344 \; panel_leds const 0 \; update_paneleds bang;
#X connect 0 0 1 0;
#X connect 0 0 2 0;
#X connect 2 0 3 0;
#X connect 2 0 13 0;
#X connect 4 0 5 0;
#X connect 6 0 4 0;
#X connect 7 0 17 0;
#X connect 8 0 15 0;
#X connect 10 0 9 0;
#X connect 10 0 11 0;
#X connect 11 0 0 0;
#X connect 12 0 16 0;
#X connect 13 0 14 0;
#X connect 13 0 18 0;
#X connect 15 0 2 0;
#X connect 15 1 2 1;
#X connect 16 0 13 0;
#X connect 16 1 13 1;
#X connect 17 0 0 0;
#X connect 17 1 0 1;
#X connect 18 0 19 0;
#X connect 19 0 6 0;
#X connect 19 1 20 0;
#X connect 19 2 21 0;
#X restore 193 501 pd szut_down;
#N canvas 348 264 931 456 panel_leds 0;
#X obj 450 145 s update_paneleds;
#X obj 485 126 array set panel_leds;
#X obj 474 85 int;
#X obj 450 124 bng 15 250 50 0 empty empty empty 17 7 0 10 -262144
-1 -1;
#X floatatom 594 103 5 0 0 0 - - -;
#X floatatom 450 41 5 0 254 0 - - -;
#X floatatom 553 44 5 0 44 0 - - -;
#X obj 553 25 hradio 15 1 0 12 empty empty empty 0 -8 0 10 -262144
-1 -1 5;
#X text 525 24 led;
#X obj 553 86 + 0;
#X obj 593 65 hradio 15 1 1 3 empty empty empty 0 -8 0 10 -262144 -1
-1 2;
#X obj 450 65 t b f b;
#X text 602 50 GRB;
#X obj 476 106 clip 0 50;
#X text 251 52 bang for output;
#X obj 101 72 t l b, f 20;
#X text 244 135 Send message start pattern;
#X obj 238 157 s to_comport;
#X obj 101 116 int;
#X obj 101 5 r update_paneleds;
#X obj 101 49 array get panel_leds;
#X obj 101 161 s to_comport;
#X floatatom 640 131 5 0 0 0 - - -;
#X text 108 279 POST FADER FX LEDS;
#X obj 640 107 list length;
#X obj 315 5 list-abs/list-drip;
#X obj 553 63 * 3;
#X obj 25 133 print;
#X obj 25 104 spigot;
#X obj 64 83 tgl 15 0 empty empty empty 17 7 0 10 -262144 -1 -1 0 1
;
#X text 71 197 ctrl SPECIAL / FUNCTIONAL PANEL NEOPIX;
#X text 469 281 pre? FADER FX LEDS;
#N canvas 324 87 958 744 panel_signal_led_ctrl 0;
#X text 317 156 RED;
#X text 470 155 GREEN;
#X text 646 156 BLEU;
#X text 826 157 YELLOW;
#X text 1024 158 VIOLET;
#X obj 196 132 sel 1 2 3 4 5 0, f 41;
#X text 488 131 first element of list is the index!!!;
#X msg 196 149 \; panel_leds 0 0 10;
#X msg 349 149 \; panel_leds 0 10 0;
#X msg 508 149 \; panel_leds 0 0 0 10;
#X msg 680 149 \; panel_leds 0 10 10 0;
#X msg 875 149 \; panel_leds 0 0 10 10;
#X msg 1073 149 \; panel_leds 0 0 0 0;
#X obj 45 91 r FX_SEL_LED_CTRL;
#X obj 999 109 array set panel_leds 21;
#X obj 1015 52 sel 0 1 2 3 4 5, f 19;
#X msg 1172 85 0 0 0;
#X msg 886 82 10 0 0;
#X msg 942 82 0 10 0;
#X msg 999 82 0 0 10;
#X msg 1056 82 10 10 0;
#X msg 1113 82 10 0 10;
#X text 193 90 ctrl NEOPIX with fx_sel bytton;
#X obj 231 258 array set panel_leds 21;
#X msg 507 241 0 0 0;
#X msg 231 241 10 0 0;
#X msg 287 241 0 10 0;
#X msg 344 241 0 0 10;
#X msg 391 241 10 10 0;
#X msg 448 241 10 0 10;
#X obj 851 5 r SEQ_MODE;
#X obj 231 224 sel 1 2 3 4 5 6 7, f 19;
#X obj 792 559 print;
#X obj 792 540 spigot;
#X obj 830 519 tgl 15 0 empty empty empty 17 7 0 10 -262144 -1 -1 0
1;
#X obj 45 113 t b f, f 22;
#X msg 45 134 \; update_paneleds bang;
#X text 282 3 ctrl NEOPIX with SEQ MODE MULTI SWITCH;
#X text 226 342 RED;
#X text 407 344 GREEN;
#X text 520 343 BLEU;
#X text 684 344 YELLOW;
#X text 850 347 VIOLET;
#X text 484 329 first element of list is the index!!!;
#X obj 191 327 sel 0 1 2 3 4 5, f 41;
#X msg 354 344 \; panel_leds 24 10 0 0;
#X msg 191 344 \; panel_leds 24 0 10 0;
#X msg 512 344 \; panel_leds 24 0 0 10;
#X msg 677 344 \; panel_leds 24 10 10 0;
#X msg 840 344 \; panel_leds 24 0 10 10;
#X msg 998 344 \; panel_leds 24 0 0 0;
#X obj 33 300 r SMPL_SEL_LED_CTRL;
#X msg 33 343 \; update_paneleds bang;
#X obj 33 320 t b f, f 21;
#X text 173 298 ctrl NEOPIX with sampel sel - snd ctrl panel;
#X text 351 414 RED;
#X text 391 413 first element of list is the index!!!;
#X obj 264 414 sel 0 1, f 10;
#X msg 186 431 \; panel_leds 27 0 0 0;
#X msg 340 431 \; panel_leds 27 0 10 0;
#X obj 34 386 r SHIFT_SND_CTRL;
#X obj 34 408 t b f, f 22;
#X msg 34 429 \; update_paneleds bang;
#X obj 56 545 tgl 30 0 empty SEQ_SHIFT SEQ__SHFT -20 15 0 15 -258113
-1 -1 0 1;
#X msg 207 602 \; panel_leds 34 \$1;
#X obj 56 580 t b f, f 22;
#X msg 56 601 \; update_paneleds bang;
#X obj 359 561 int;
#X floatatom 429 523 5 0 100 1 Clock_LED CLOCK_LED -;
#X obj 359 531 tgl 15 0 empty empty empty 17 7 0 10 -262144 -1 -1 0
1;
#X msg 517 604 \; panel_leds 35 \$1;
#N canvas 169 250 712 226 oldshool_pwm_leds_out 0;
#X obj 28 88 int;
#X floatatom 28 70 5 0 100 1 PWM_LED_1 PWM_LED_1 -;
#X obj 28 119 clip 0 100;
#X obj 194 88 int;
#X floatatom 194 70 5 0 100 1 PWM_LED_2 PWM_LED_2 -;
#X obj 194 119 clip 0 100;
#X obj 357 85 int;
#X floatatom 357 67 5 0 100 1 PWM_LED_3 PWM_LED_3 -;
#X obj 357 116 clip 0 100;
#X obj 515 86 int;
#X floatatom 515 68 5 0 100 1 PWM_LED_4 PWM_LED_4 -;
#X obj 515 117 clip 0 100;
#X text 26 34 THESE ARE CONTROLLED FROM LFOS IN EFFECTS;
#X msg 28 149 \; panel_leds 30 \$1;
#X msg 194 148 \; panel_leds 31 \$1;
#X msg 357 149 \; panel_leds 32 \$1;
#X msg 515 149 \; panel_leds 33 \$1;
#X connect 0 0 2 0;
#X connect 1 0 0 0;
#X connect 2 0 13 0;
#X connect 3 0 5 0;
#X connect 4 0 3 0;
#X connect 5 0 14 0;
#X connect 6 0 8 0;
#X connect 7 0 6 0;
#X connect 8 0 15 0;
#X connect 9 0 11 0;
#X connect 10 0 9 0;
#X connect 11 0 16 0;
#X restore 670 616 pd oldshool_pwm_leds_out;
#X obj 359 584 t b f, f 22;
#X msg 359 605 \; update_paneleds bang;
#X msg 727 82 \; update_paneleds bang;
#X obj 727 48 t b f, f 21;
#X obj 1015 26 r LED_SUB_SEQ;
#X text 800 27 seq na razie nie wysylam;
#X msg 71 231 \; update_paneleds bang;
#X obj 71 178 r LED_SUB_SEQ;
#X obj 71 200 t b f, f 21;
#X obj 517 582 clip 0 10;
#X connect 5 0 7 0;
#X connect 5 1 8 0;
#X connect 5 2 9 0;
#X connect 5 3 10 0;
#X connect 5 4 11 0;
#X connect 5 5 12 0;
#X connect 13 0 35 0;
#X connect 13 0 33 0;
#X connect 15 0 17 0;
#X connect 15 1 18 0;
#X connect 15 2 19 0;
#X connect 15 3 20 0;
#X connect 15 4 21 0;
#X connect 15 5 16 0;
#X connect 16 0 14 0;
#X connect 17 0 14 0;
#X connect 18 0 14 0;
#X connect 19 0 14 0;
#X connect 20 0 14 0;
#X connect 21 0 14 0;
#X connect 24 0 23 0;
#X connect 25 0 23 0;
#X connect 26 0 23 0;
#X connect 27 0 23 0;
#X connect 28 0 23 0;
#X connect 29 0 23 0;
#X connect 31 0 25 0;
#X connect 31 1 26 0;
#X connect 31 2 27 0;
#X connect 31 3 28 0;
#X connect 31 4 29 0;
#X connect 31 5 24 0;
#X connect 33 0 32 0;
#X connect 34 0 33 1;
#X connect 35 0 36 0;
#X connect 35 1 5 0;
#X connect 44 0 46 0;
#X connect 44 1 45 0;
#X connect 44 2 47 0;
#X connect 44 3 48 0;
#X connect 44 4 49 0;
#X connect 44 5 50 0;
#X connect 51 0 53 0;
#X connect 53 0 52 0;
#X connect 53 1 44 0;
#X connect 57 0 58 0;
#X connect 57 1 59 0;
#X connect 60 0 61 0;
#X connect 61 0 62 0;
#X connect 61 1 57 0;
#X connect 63 0 65 0;
#X connect 65 0 66 0;
#X connect 65 1 64 0;
#X connect 67 0 72 0;
#X connect 67 0 81 0;
#X connect 68 0 67 0;
#X connect 69 0 67 0;
#X connect 72 0 73 0;
#X connect 75 0 74 0;
#X connect 75 1 15 0;
#X connect 79 0 80 0;
#X connect 79 0 33 0;
#X connect 80 0 78 0;
#X connect 80 1 31 0;
#X connect 81 0 70 0;
#X restore 66 219 pd panel_signal_led_ctrl;
#X text 243 94 drip - saves cpu?;
#X obj 101 139 clip 0 253;
#X msg 238 115 254 254 254 254;
#X obj 24 5 tgl 15 0 empty empty empty 17 7 0 10 -262144 -1 -1 0 1
;
#X obj 450 211 s update_pwm_leds;
#X obj 450 191 metro 200;
#X obj 450 174 tgl 15 0 empty empty empty 17 7 0 10 -262144 -1 -1 0
1;
#X obj 55 295 1_LED_FXS_CTRL_SEPARATE_LED_NUM 0 6;
#X obj 69 318 1_LED_FXS_CTRL_SEPARATE_LED_NUM 1 5;
#X obj 83 342 1_LED_FXS_CTRL_SEPARATE_LED_NUM 2 4;
#X obj 93 368 1_LED_FXS_CTRL_SEPARATE_LED_NUM 3 3;
#X obj 107 392 1_LED_FXS_CTRL_SEPARATE_LED_NUM 4 2;
#X obj 114 415 1_LED_FXS_CTRL_SEPARATE_LED_NUM 5 1;
#X obj 468 299 1_LED_FXS_CTRL_SEP_LED_NUM_PRE 0 6;
#X obj 478 319 1_LED_FXS_CTRL_SEP_LED_NUM_PRE 1 5;
#X obj 489 340 1_LED_FXS_CTRL_SEP_LED_NUM_PRE 2 4;
#X obj 499 360 1_LED_FXS_CTRL_SEP_LED_NUM_PRE 3 3;
#X obj 510 384 1_LED_FXS_CTRL_SEP_LED_NUM_PRE 4 2;
#X obj 520 404 1_LED_FXS_CTRL_SEP_LED_NUM_PRE 5 1;
#X obj 101 94 drip;
#X obj 25 32 metro 1000;
#X obj 101 26 cyclone/speedlim 50;
#X connect 2 0 13 0;
#X connect 3 0 0 0;
#X connect 5 0 11 0;
#X connect 6 0 26 0;
#X connect 7 0 6 0;
#X connect 9 0 4 0;
#X connect 9 0 1 1;
#X connect 10 0 9 1;
#X connect 11 0 3 0;
#X connect 11 1 2 0;
#X connect 11 2 9 0;
#X connect 13 0 1 0;
#X connect 15 0 52 0;
#X connect 15 1 35 0;
#X connect 18 0 34 0;
#X connect 19 0 54 0;
#X connect 20 0 15 0;
#X connect 24 0 22 0;
#X connect 26 0 9 0;
#X connect 28 0 27 0;
#X connect 29 0 28 1;
#X connect 34 0 21 0;
#X connect 35 0 17 0;
#X connect 36 0 53 0;
#X connect 38 0 37 0;
#X connect 39 0 38 0;
#X connect 52 0 18 0;
#X connect 53 0 20 0;
#X connect 53 0 28 0;
#X connect 54 0 20 0;
#X restore 392 265 pd panel_leds;
#N canvas 194 209 326 262 atSTART 0;
#X obj 159 156 + 1;
#X obj 200 156 i;
#X obj 124 82 r WELCOMEend;
#X text 57 38 open corresponding output;
#X text 59 55 stored in i to send clock ticks;
#X obj 124 106 t b b;
#X obj 124 180 gate;
#X msg 124 130 1;
#X obj 124 156 tgl 15 0 empty empty empty 17 7 0 10 -262144 -1 -1 0
1;
#X obj 200 180 + 1;
#X obj 178 183 tgl 15 0 empty empty empty 17 7 0 10 -262144 -1 -1 0
2;
#X obj 55 82 loadbang;
#X msg 87 131 0;
#X obj 125 209 outlet;
#X obj 223 83 inlet;
#X obj 186 116 t f f;
#X text 60 23 after start messege is finished;
#X obj 55 107 t b b;
#X msg 54 131 0;
#X text 35 244 until welcome message is finished;
#X text 37 231 at start dont send any clock ticks;
#X connect 0 0 6 1;
#X connect 1 0 9 0;
#X connect 1 0 10 0;
#X connect 2 0 5 0;
#X connect 5 0 7 0;
#X connect 5 1 1 0;
#X connect 6 0 13 0;
#X connect 7 0 8 0;
#X connect 8 0 6 0;
#X connect 9 0 13 0;
#X connect 11 0 17 0;
#X connect 12 0 8 0;
#X connect 14 0 15 0;
#X connect 15 0 0 0;
#X connect 15 1 1 1;
#X connect 17 0 18 0;
#X connect 17 1 12 0;
#X connect 18 0 13 0;
#X restore 288 501 pd atSTART;
#N canvas 183 322 861 387 update 0;
#X obj 239 210 route 1 2 3 4 5 6 7 8;
#X obj 239 191 list append;
#X floatatom 239 174 5 0 0 0 - - -;
#X text 276 173 led no;
#X obj 281 157 t b l;
#X floatatom 281 96 3 0 255 0 - - -;
#X floatatom 308 96 3 0 255 0 - - -;
#X floatatom 351 96 3 0 255 0 - - -;
#X obj 281 138 pack f f f;
#X obj 351 112 t b f;
#X obj 308 113 t b f;
#X text 279 81 R;
#X text 307 80 G;
#X text 353 79 B;
#X obj 72 272 list append;
#X obj 114 228 t b l;
#X msg 72 244 0;
#X obj 154 272 list append;
#X obj 196 228 t b l;
#X msg 154 244 3;
#X obj 241 272 list append;
#X obj 283 228 t b l;
#X obj 328 272 list append;
#X obj 370 228 t b l;
#X msg 241 244 6;
#X msg 328 244 9;
#X obj 418 272 list append;
#X obj 460 228 t b l;
#X obj 505 272 list append;
#X obj 547 228 t b l;
#X obj 592 272 list append;
#X obj 634 228 t b l;
#X obj 679 272 list append;
#X obj 721 230 t b l;
#X msg 418 244 12;
#X msg 505 244 15;
#X msg 592 244 18;
#X msg 679 244 21;
#X msg 234 116 0 0 0;
#X msg 153 289 \; 8_LEDS \$1 \$2 \$3 \$4 \; update_8_LEDS bang;
#X connect 0 0 15 0;
#X connect 0 1 18 0;
#X connect 0 2 21 0;
#X connect 0 3 23 0;
#X connect 0 4 27 0;
#X connect 0 5 29 0;
#X connect 0 6 31 0;
#X connect 0 8 33 0;
#X connect 1 0 0 0;
#X connect 2 0 1 0;
#X connect 4 0 2 0;
#X connect 4 1 1 1;
#X connect 5 0 8 0;
#X connect 6 0 10 0;
#X connect 7 0 9 0;
#X connect 8 0 4 0;
#X connect 9 0 8 0;
#X connect 9 1 8 2;
#X connect 10 0 8 0;
#X connect 10 1 8 1;
#X connect 14 0 39 0;
#X connect 15 0 16 0;
#X connect 15 1 14 1;
#X connect 16 0 14 0;
#X connect 17 0 39 0;
#X connect 18 0 19 0;
#X connect 18 1 17 1;
#X connect 19 0 17 0;
#X connect 20 0 39 0;
#X connect 21 0 24 0;
#X connect 21 1 20 1;
#X connect 22 0 39 0;
#X connect 23 0 25 0;
#X connect 23 1 22 1;
#X connect 24 0 20 0;
#X connect 25 0 22 0;
#X connect 26 0 39 0;
#X connect 27 0 34 0;
#X connect 27 1 26 1;
#X connect 28 0 39 0;
#X connect 29 0 35 0;
#X connect 29 1 28 1;
#X connect 30 0 39 0;
#X connect 31 0 36 0;
#X connect 31 1 30 1;
#X connect 32 0 39 0;
#X connect 33 0 37 0;
#X connect 33 1 32 1;
#X connect 34 0 26 0;
#X connect 35 0 28 0;
#X connect 36 0 30 0;
#X connect 37 0 32 0;
#X connect 38 0 8 0;
#X restore 486 286 pd update leds;
#X obj 510 491 bng 15 250 50 0 empty empty empty 17 7 0 10 -262144
-1 -1;
#X obj 507 507 1_led_314 3 1 200;
#X msg 498 433 \; 20_LEDS const \$1 \; update_20_LEDS bang;
#X obj 627 224 s update_20_LEDS;
#N canvas 212 241 1386 730 20_NPIX_OUT_MEGA 1;
#X msg 166 111 close;
#N canvas 141 437 295 232 MESStoCOMPORT 0;
#X obj 20 22 loadbang;
#X msg 46 83 bits 8;
#X msg 44 116 parity 0;
#X msg 45 146 stopbit 0;
#X obj 22 44 bng 15 250 50 0 empty empty empty 17 7 0 10 -262144 -1
-1;
#X obj 24 198 outlet;
#X msg 143 150 info;
#X connect 0 0 4 0;
#X connect 1 0 5 0;
#X connect 2 0 5 0;
#X connect 3 0 5 0;
#X connect 4 0 1 0;
#X connect 4 0 2 0;
#X connect 4 0 3 0;
#X connect 6 0 5 0;
#X restore 347 111 pd MESStoCOMPORT;
#X text 125 149 Dziala bez openX mess \, wiec wywalam je;
#X obj 254 16 tgl 15 0 empty empty empty 17 7 0 10 -262144 -1 -1 1
1;
#X obj 254 69 print com send bytes;
#X obj 19 592 tgl 15 0 empty empty empty 17 7 0 10 -262144 -1 -1 0
1;
#X floatatom 760 596 5 0 250 0 - - -;
#X obj 254 44 cyclone/switch;
#X msg 218 111 open 2;
#X obj 582 97 t l b;
#X text 614 109 Send message start pattern;
#X obj 614 199 s to_comport2;
#X obj 301 15 r to_comport2;
#X obj 116 128 comport 2 115200;
#X msg 274 111 devices;
#X text 1041 352 green;
#X text 1073 388 red;
#X text 1159 427 blue;
#X text 603 30 bang for list output;
#X obj 554 465 t b l;
#X obj 455 511 s update_8_LEDS;
#X text 995 313 yellow;
#N canvas 395 144 793 611 old_way_of_updating_LEDS_serial 0;
#X obj 54 199 until;
#X obj 54 223 f;
#X obj 88 223 + 1;
#X msg 81 131 0;
#X obj 54 66 bng 15 250 50 0 empty empty empty 17 7 0 10 -262144 -1
-1;
#X obj 54 110 t b b;
#X obj 54 403 int;
#X obj 54 88 t b b;
#X text 114 86 Send message start pattern;
#X text 94 194 Send values themselves;
#X obj 54 179 / 3;
#X text 94 205 For each triplet of values in led_levels;
#X obj 475 301 * 3;
#X obj 475 325 + 0;
#X obj 336 301 * 3;
#X obj 336 325 + 1;
#X obj 197 301 * 3;
#X obj 197 325 + 2;
#X text 58 370 Force to integer and restrict to valid range [0..255]
;
#X obj 54 426 clip 0 255;
#X msg 114 104 255 255 255 255;
#X text 121 259 For each of R \, G \, B and alpha;
#X obj 54 301 * 3;
#X obj 54 325 + 2;
#X obj 54 453 + 1;
#X obj 54 259 t f f f f;
#X obj 197 403 int;
#X obj 197 426 clip 0 255;
#X obj 336 403 int;
#X obj 336 426 clip 0 255;
#X obj 475 403 int;
#X obj 475 426 clip 0 255;
#X text 131 441 For alpha use blue+1 \, just so we;
#X text 107 458 never get 255 \, 255 \, 255 \, 255 (the start pattern)
;
#X obj 54 26 tgl 15 0 empty empty empty 17 7 0 10 -262144 -1 -1 0 1
;
#X text 347 189 2 \, 3 \, 4 \, 5 \, 6 \, 7 \, 8 \, 9;
#X text 385 206 pins on ARDUINo;
#X obj 54 45 metro 20;
#X obj 142 43 r update_8_LEDS;
#X obj 114 124 s to_comport2;
#X obj 54 348 tabread 8_LEDS;
#X obj 197 348 tabread 8_LEDS;
#X obj 336 348 tabread 8_LEDS;
#X obj 475 348 tabread 8_LEDS;
#X obj 198 487 s to_comport2;
#X obj 54 153 arraysize 8_LEDS;
#X connect 0 0 1 0;
#X connect 1 0 2 0;
#X connect 1 0 25 0;
#X connect 2 0 1 1;
#X connect 3 0 1 1;
#X connect 4 0 7 0;
#X connect 5 0 45 0;
#X connect 5 1 3 0;
#X connect 6 0 19 0;
#X connect 7 0 5 0;
#X connect 7 1 20 0;
#X connect 10 0 0 0;
#X connect 12 0 13 0;
#X connect 13 0 43 0;
#X connect 14 0 15 0;
#X connect 15 0 42 0;
#X connect 16 0 17 0;
#X connect 17 0 41 0;
#X connect 19 0 24 0;
#X connect 20 0 39 0;
#X connect 22 0 23 0;
#X connect 23 0 40 0;
#X connect 24 0 44 0;
#X connect 25 0 22 0;
#X connect 25 1 16 0;
#X connect 25 2 14 0;
#X connect 25 3 12 0;
#X connect 26 0 27 0;
#X connect 27 0 44 0;
#X connect 28 0 29 0;
#X connect 29 0 44 0;
#X connect 30 0 31 0;
#X connect 31 0 44 0;
#X connect 34 0 37 0;
#X connect 37 0 4 0;
#X connect 40 0 6 0;
#X connect 41 0 26 0;
#X connect 42 0 28 0;
#X connect 43 0 30 0;
#X connect 45 0 10 0;
#X restore 39 497 pd old_way_of_updating_LEDS_serial;
#N canvas 616 403 681 300 for_debugging_serial_mess 0;
#X msg 13 106 add2 \$1;
#X msg 73 106 set;
#X text 125 97 <- Click to clear message box;
#X text 124 110 Add received bytes to message box;
#X msg 13 124;
#X text 158 173 Interpret bytes as ASCII and print text in Pd window
;
#X obj 13 171 print com recv text;
#X obj 195 148 import moocow;
#X obj 11 89 cyclone/switch;
#X obj 11 16 inlet;
#X obj 13 146 bytes2any;
#X connect 0 0 4 0;
#X connect 1 0 4 0;
#X connect 4 0 10 0;
#X connect 8 0 0 0;
#X connect 9 0 8 0;
#X connect 10 0 6 0;
#X restore 20 612 pd for_debugging_serial_mess;
#X obj 116 15 inlet;
#X obj 411 599 bng 15 250 50 0 empty empty empty 17 7 0 10 -262144
-1 -1;
#X floatatom 649 637 5 0 0 0 - - -;
#X floatatom 494 556 5 0 254 0 - - -;
#X floatatom 608 568 5 0 44 0 - - -;
#X obj 608 549 hradio 15 1 0 8 empty empty empty 0 -8 0 10 -262144
-1 -1 6;
#X text 580 548 led;
#X obj 608 610 + 0;
#X obj 648 589 hradio 15 1 1 3 empty empty empty 0 -8 0 10 -262144
-1 -1 2;
#X obj 494 580 t b f b;
#X text 657 574 GRB;
#X obj 49 16 loadbang;
#X msg 49 68 info;
#X obj 49 44 del 500;
#X floatatom 198 219 3 0 0 0 port - -;
#X obj 322 215 tgl 15 0 empty empty open -6 20 1 11 -24198 -258699
-1 1 1;
#X obj 225 183 route port open;
#X obj 276 216 == 1;
#X obj 225 266 &&;
#X obj 232 241 t b f;
#X obj 231 292 tgl 15 0 empty empty empty 17 7 0 10 -262144 -1 -1 1
1;
#X obj 225 218 == 2;
#X text 222 331 if port2 open send 1;
#X text 96 73 check if port open;
#X obj 225 312 s LED_ARDUINO_ON;
#X msg 555 310 250 250 0 250 250 0 255 250 0 250 250 0 250 250 0 250
250 0 255 250 0 250 250 0;
#X msg 607 347 250 0 0 250 0 0 255 0 0 250 0 0 250 0 0 250 0 0 255
0 0 250 0 0;
#X floatatom 424 474 5 0 0 0 - - -;
#X msg 652 385 0 250 0 0 250 0 0 255 0 0 250 0 0 250 0 0 250 0 0 255
0 0 250 0;
#X msg 741 422 0 0 250 0 0 250 0 0 255 0 0 250 0 0 250 0 0 250 0 0
255 0 0 250;
#X obj 608 587 * 3;
#X obj 424 452 list length;
#X obj 582 173 int;
#X obj 132 584 print;
#X floatatom 87 581 5 0 0 0 - - -;
#X obj 87 557 list length;
#X obj 582 48 cyclone/speedlim 20;
#X text 481 147 drip=less CPU;
#X obj 582 150 drip;
#X msg 892 125 250 0 0 250 0 0 255 0 0 250 0 0 250 0 0 250 0 0 255
0 0 250 0 0 250 0 0 250 0 0 255 0 0 250 0 0 250 0 0 250 0 0 255 0 0
250 0 0 250 0 0 250 0 0 255 0 0 250 0 0;
#X text 907 81 20 leds;
#X obj 582 14 r update_20_LEDS;
#X obj 582 73 array get 20_LEDS;
#X obj 558 504 s update_20_LEDS;
#X obj 888 202 array set 20_LEDS;
#X msg 760 612 \; 20_LEDS const \$1 \; update_20_LEDS bang;
#X obj 526 639 array set 20_LEDS;
#X obj 411 640 s update_20_LEDS;
#X msg 614 127 254 254 254 254;
#X connect 0 0 13 0;
#X connect 3 0 7 0;
#X connect 5 0 23 0;
#X connect 6 0 69 0;
#X connect 7 0 4 0;
#X connect 8 0 13 0;
#X connect 9 0 62 0;
#X connect 9 1 72 0;
#X connect 12 0 7 1;
#X connect 12 0 13 0;
#X connect 13 1 40 0;
#X connect 14 0 13 0;
#X connect 19 0 67 0;
#X connect 19 1 68 0;
#X connect 24 0 13 0;
#X connect 25 0 71 0;
#X connect 27 0 33 0;
#X connect 28 0 54 0;
#X connect 29 0 28 0;
#X connect 31 0 26 0;
#X connect 31 0 70 1;
#X connect 32 0 31 1;
#X connect 33 0 25 0;
#X connect 33 1 70 0;
#X connect 33 2 31 0;
#X connect 35 0 37 0;
#X connect 36 0 13 0;
#X connect 37 0 36 0;
#X connect 40 0 38 0;
#X connect 40 0 45 0;
#X connect 40 1 39 0;
#X connect 40 1 41 0;
#X connect 41 0 43 0;
#X connect 42 0 44 0;
#X connect 42 0 48 0;
#X connect 43 0 42 0;
#X connect 43 1 42 1;
#X connect 45 0 42 0;
#X connect 49 0 19 0;
#X connect 49 0 55 0;
#X connect 50 0 19 0;
#X connect 50 0 55 0;
#X connect 50 0 68 0;
#X connect 52 0 19 0;
#X connect 52 0 55 0;
#X connect 52 0 68 0;
#X connect 53 0 19 0;
#X connect 53 0 55 0;
#X connect 53 0 68 0;
#X connect 54 0 31 0;
#X connect 55 0 51 0;
#X connect 56 0 11 0;
#X connect 59 0 58 0;
#X connect 60 0 66 0;
#X connect 62 0 56 0;
#X connect 63 0 55 0;
#X connect 63 0 19 0;
#X connect 63 0 68 0;
#X connect 65 0 60 0;
#X connect 66 0 9 0;
#X connect 72 0 11 0;
#X restore 128 234 pd 20_NPIX_OUT_MEGA;
#X connect 2 0 19 0;
#X connect 3 0 20 0;
#X connect 4 0 21 0;
#X connect 5 0 21 0;
#X connect 6 0 7 0;
#X connect 11 0 12 0;
#X connect 12 0 19 0;
#X connect 17 0 18 0;
