#N canvas 299 1106 1109 571 10;
#X obj 411 181 cnv 15 630 200 empty empty Audio_Routing_and_Mix 0 -10
0 20 -137856 -4160 0;
#X floatatom 475 290 2 -1 1 1 init_pan init_pan -, f 2;
#X floatatom 472 320 2 0 1 1 init_mute init_mute -, f 2;
#N canvas 30 152 776 485 master 0;
#X obj 100 405 env~;
#X obj 100 429 - 95;
#X obj 100 340 *~;
#X obj 515 192 pow 2;
#X obj 515 23 r levelMaster;
#X obj 100 453 s vuMaster;
#X obj 190 452 dac~;
#X obj 100 143 catch~ masterL;
#X obj 302 349 *~;
#X obj 300 144 catch~ masterR;
#X obj 101 374 +~;
#X obj 515 232 sig~;
#X obj 515 257 lop~ 20;
#X obj 579 194 outlet;
#X obj 301 200 unauthorized/compressor~;
#X floatatom 233 141 5 0 0 0 - - -, f 5;
#X obj 289 76 - 1;
#X obj 290 50 * 5;
#X obj 290 23 r compress;
#X obj 100 200 unauthorized/compressor~;
#X obj 332 426 outlet~;
#X obj 290 102 clip 0 5;
#X text 680 46 adds dist;
#X obj 620 91 tgl 15 0 empty empty empty 17 7 0 10 -262144 -1 -1 0
1;
#X obj 622 67 oneARDinCOMPARE 0.1;
#X obj 642 89 s DSP_ON/OFF;
#X floatatom 550 79 5 0 0 0 - - -, f 5;
#X connect 0 0 1 0;
#X connect 1 0 5 0;
#X connect 2 0 10 0;
#X connect 2 0 6 0;
#X connect 3 0 11 0;
#X connect 4 0 3 0;
#X connect 4 0 13 0;
#X connect 4 0 24 0;
#X connect 4 0 26 0;
#X connect 7 0 19 0;
#X connect 8 0 10 1;
#X connect 8 0 6 1;
#X connect 9 0 14 0;
#X connect 10 0 0 0;
#X connect 10 0 20 0;
#X connect 11 0 12 0;
#X connect 12 0 8 1;
#X connect 12 0 2 1;
#X connect 14 0 8 0;
#X connect 16 0 21 0;
#X connect 17 0 16 0;
#X connect 18 0 17 0;
#X connect 19 0 2 0;
#X connect 21 0 15 0;
#X connect 21 0 19 1;
#X connect 21 0 14 1;
#X connect 24 0 23 0;
#X connect 24 0 25 0;
#X restore 964 307 pd master;
#X obj 697 197 vsl 40 120 0 1 0 0 empty fx1_return Fx1_LEV 0 -10 0
8 -260097 -1 -1 0 1;
#X obj 739 197 vsl 40 120 0 1 0 0 empty fx2_return Fx2_LEV 0 -10 0
8 -260097 -1 -1 0 1;
#X obj 781 197 vsl 40 120 0 1 0 0 empty fx3_return Fx3_LEV 0 -10 0
8 -260097 -1 -1 0 1;
#X obj 823 197 vsl 40 120 0 1 0 0 empty fx4_return Fx4_LEV 0 -10 0
8 -260097 -1 -1 0 1;
#X obj 865 197 vsl 40 120 0 1 0 0 empty fx5_return Fx5_LEV 0 -10 0
8 -260097 -1 -1 0 1;
#X obj 485 197 vsl 40 120 0 1 0 0 empty patch1level CH1_LEV 0 -10 0
8 -258113 -257985 -1 0 1;
#X obj 527 197 vsl 40 120 0 1 0 0 empty patch2level CH2_LEV 0 -10 0
8 -258113 -257985 -1 0 1;
#X obj 569 197 vsl 40 120 0 1 0 0 empty patch3level CH3_LEV 0 -10 0
8 -258113 -257985 -1 0 1;
#X obj 611 197 vsl 40 120 0 1 0 0 empty patch4level CH4_LEV 0 -10 0
8 -258113 -257985 -1 0 1;
#X obj 654 197 vsl 40 120 0 1 0 0 empty patch5level CH5_LEV 0 -10 0
8 -258113 -257985 -1 0 1;
#X obj 442 197 vsl 40 120 0 1 0 0 empty audio_in_gain CH0_LEV 0 -10
0 8 -261234 -262144 -1 0 1;
#X text 491 283 FBAK;
#X text 571 283 SMPL1;
#X text 612 283 SMPL2;
#X obj 984 197 vu 20 120 vuMaster empty -1 -8 0 10 -66577 -1 1 0;
#X obj 417 197 vu 15 120 vuAudioIn empty -1 -8 0 10 -66577 -1 0 0;
#X obj 915 196 vsl 25 120 0 1 0 0 empty compress COMP 1 -9 0 10 -224705
-1 -1 0 1;
#X text 749 302 LCF;
#X obj 906 325 cyclone/scope~ 123 50 256 3 128 -1 1 0 0 0 0 102 255
51 135 135 135 0;
#X text 785 301 LCRM;
#X obj 492 334 tgl 25 0 empty ch1_mute CH1_MU 0 -7 0 8 -254991 -1 -1
1 1;
#X obj 534 334 tgl 25 0 empty ch2_mute CH2_MU 0 -7 0 8 -254991 -1 -1
1 1;
#X obj 576 334 tgl 25 0 empty ch3_mute CH3_MU 0 -7 0 8 -254991 -1 -1
1 1;
#X obj 618 334 tgl 25 0 empty ch4_mute CH4_MU 0 -7 0 8 -254991 -1 -1
1 1;
#X obj 660 334 tgl 25 0 empty ch5_mute CH5_MU 0 -7 0 8 -254991 -1 -1
1 1;
#X obj 492 303 hsl 30 15 -1 1 0 1 empty pan1 PAN1 0 10 0 10 -34823
-1 -1 84 1;
#X obj 534 303 hsl 30 15 -1 1 0 0 empty pan2 PAN2 0 10 0 10 -34823
-1 -1 0 1;
#X obj 576 303 hsl 30 15 -1 1 0 0 empty pan3 PAN3 0 10 0 10 -34823
-1 -1 0 1;
#X obj 618 303 hsl 30 15 -1 1 0 0 empty pan4 PAN4 0 10 0 10 -34823
-1 -1 0 1;
#X obj 660 303 hsl 30 15 -1 1 0 0 empty pan5 PAN5 0 10 0 10 -34823
-1 -1 0 1;
#X obj 448 334 tgl 25 0 audioin_mute ch0_1/0 CH0_MU 0 -7 0 8 -261234
-1 -1 0 1;
#X obj 448 303 hsl 30 15 -1 1 0 1 audioin_pan empty PAN0 0 10 0 10
-34823 -1 -1 1450 1;
#N canvas 546 303 971 280 CHANNEL_STRIPS_AUDIO_ROUTING 0;
#X text 585 149 level \, pan \, mute \, send fx 1-5 \, allSendsOff
;
#X text 587 193 każdy czanel wysyła catch masterL i masterR;
#X text 586 172 5 fx send (na razie tylko post fader);
#X text 584 126 each has 8 ctrl parameters via send;
#X text 584 106 CHANNEL STRIP EXPECTS CATCH ch\$1;
#X obj 329 106 MIXER:CHANNELSTRIPS/channel_strip 0;
#X text 391 78 POST F FX SENDS;
#X obj 26 128 MIXER:CHANNELSTRIPS/pre_ch_strip 1;
#X text 103 77 POST F FX SENDS;
#X text 275 20 routing;
#X obj 27 209 MIXER:CHANNELSTRIPS/pre_ch_strip 5;
#X obj 27 148 MIXER:CHANNELSTRIPS/pre_ch_strip 2;
#X obj 26 168 MIXER:CHANNELSTRIPS/pre_ch_strip 3;
#X obj 27 190 MIXER:CHANNELSTRIPS/pre_ch_strip 4;
#N canvas 0 177 1399 593 FX_SEND_PRE_POST_NO_MATRIX 0;
#N canvas 0 565 1425 287 STORE_COMPARE_LIST_FOR_MULTI_DESTINATIONS
0;
#X obj 17 235 s send_levels_fx1;
#X obj 249 234 s send_levels_fx2;
#X obj 475 230 s send_levels_fx3;
#X obj 709 238 s send_levels_fx4;
#X obj 941 234 s send_levels_fx5;
#X floatatom 757 149 5 0 0 0 - - -, f 5;
#X floatatom 719 149 5 0 0 0 - - -, f 5;
#X floatatom 834 149 5 0 0 0 - - -, f 5;
#X floatatom 796 149 5 0 0 0 - - -, f 5;
#X floatatom 912 149 5 0 0 0 - - -, f 5;
#X floatatom 873 149 5 0 0 0 - - -, f 5;
#X obj 709 169 pack f f f f f f, f 28;
#X obj 833 53 r fx_send_6val_dest, f 10;
#X obj 709 51 r fx_send_levels;
#X floatatom 793 98 5 0 0 0 - - -, f 5;
#X floatatom 993 143 5 0 0 0 - - -, f 5;
#X floatatom 955 143 5 0 0 0 - - -, f 5;
#X floatatom 1070 143 5 0 0 0 - - -, f 5;
#X floatatom 1032 143 5 0 0 0 - - -, f 5;
#X floatatom 1148 143 5 0 0 0 - - -, f 5;
#X floatatom 1109 143 5 0 0 0 - - -, f 5;
#X obj 941 169 pack f f f f f f, f 28;
#X obj 1097 47 r fx_send_6val_dest, f 9;
#X obj 941 51 r fx_send_levels;
#X floatatom 1100 96 5 0 0 0 - - -, f 5;
#X obj 941 117 ONElistSTOREandCOMPARE 5, f 31;
#X floatatom 523 145 5 0 0 0 - - -, f 5;
#X floatatom 485 145 5 0 0 0 - - -, f 5;
#X floatatom 600 145 5 0 0 0 - - -, f 5;
#X floatatom 562 145 5 0 0 0 - - -, f 5;
#X floatatom 678 145 5 0 0 0 - - -, f 5;
#X floatatom 639 145 5 0 0 0 - - -, f 5;
#X obj 475 165 pack f f f f f f, f 28;
#X obj 599 49 r fx_send_6val_dest, f 10;
#X obj 475 47 r fx_send_levels;
#X floatatom 559 94 5 0 0 0 - - -, f 5;
#X floatatom 297 143 5 0 0 0 - - -, f 5;
#X floatatom 259 143 5 0 0 0 - - -, f 5;
#X floatatom 374 143 5 0 0 0 - - -, f 5;
#X floatatom 336 143 5 0 0 0 - - -, f 5;
#X floatatom 442 143 5 0 0 0 - - -, f 5;
#X floatatom 413 143 5 0 0 0 - - -, f 5;
#X obj 249 163 pack f f f f f f, f 28;
#X obj 373 47 r fx_send_6val_dest, f 10;
#X obj 249 45 r fx_send_levels;
#X floatatom 333 92 5 0 0 0 - - -, f 5;
#X floatatom 65 141 5 0 0 0 - - -, f 5;
#X floatatom 27 141 5 0 0 0 - - -, f 5;
#X floatatom 142 141 5 0 0 0 - - -, f 5;
#X floatatom 104 141 5 0 0 0 - - -, f 5;
#X floatatom 220 141 5 0 0 0 - - -, f 5;
#X floatatom 181 141 5 0 0 0 - - -, f 5;
#X obj 17 161 pack f f f f f f, f 28;
#X obj 141 45 r fx_send_6val_dest, f 10;
#X obj 17 43 r fx_send_levels;
#X floatatom 101 90 5 0 0 0 - - -, f 5;
#X floatatom 1226 148 5 0 0 0 - - -, f 5;
#X floatatom 1188 148 5 0 0 0 - - -, f 5;
#X floatatom 1303 148 5 0 0 0 - - -, f 5;
#X floatatom 1265 148 5 0 0 0 - - -, f 5;
#X floatatom 1381 148 5 0 0 0 - - -, f 5;
#X floatatom 1342 148 5 0 0 0 - - -, f 5;
#X obj 1174 174 pack f f f f f f, f 28;
#X obj 1330 52 r fx_send_6val_dest, f 9;
#X obj 1174 56 r fx_send_levels;
#X floatatom 1333 101 5 0 0 0 - - -, f 5;
#X obj 1174 239 s send_levels_fx0;
#X text 430 11 THIS PATCH RECEIVES LIST OF FX LEVELS AND DESTINATION
WHERE TO SEND IT DEPENDING ON FX SEL BUTTON;
#X obj 709 117 ONElistSTOREandCOMPARE 4, f 31;
#X obj 475 113 ONElistSTOREandCOMPARE 3, f 31;
#X obj 249 111 ONElistSTOREandCOMPARE 2, f 31;
#X obj 17 109 ONElistSTOREandCOMPARE 1, f 31;
#X obj 1174 122 ONElistSTOREandCOMPARE 0, f 31;
#X obj 709 214 clone 1_ar_an_norm01_inv_lp 6;
#X obj 941 214 clone 1_ar_an_norm01_inv_lp 6;
#X obj 475 210 clone 1_ar_an_norm01_inv_lp 6;
#X obj 249 208 clone 1_ar_an_norm01_inv_lp 6;
#X obj 17 206 clone 1_ar_an_norm01_inv_lp 6;
#X obj 17 182 maxlib/listfunnel;
#X obj 249 184 maxlib/listfunnel;
#X obj 475 186 maxlib/listfunnel;
#X obj 709 190 maxlib/listfunnel;
#X obj 941 191 maxlib/listfunnel;
#X obj 1174 219 clone 1_ar_an_norm01_inv_lp 6;
#X obj 1174 196 maxlib/listfunnel;
#X connect 11 0 81 0;
#X connect 12 0 14 0;
#X connect 12 0 68 1;
#X connect 13 0 68 0;
#X connect 21 0 82 0;
#X connect 22 0 24 0;
#X connect 22 0 25 1;
#X connect 23 0 25 0;
#X connect 25 0 16 0;
#X connect 25 0 21 0;
#X connect 25 1 15 0;
#X connect 25 1 21 1;
#X connect 25 2 18 0;
#X connect 25 2 21 2;
#X connect 25 3 17 0;
#X connect 25 3 21 3;
#X connect 25 4 20 0;
#X connect 25 4 21 4;
#X connect 25 5 19 0;
#X connect 25 5 21 5;
#X connect 32 0 80 0;
#X connect 33 0 35 0;
#X connect 33 0 69 1;
#X connect 34 0 69 0;
#X connect 42 0 79 0;
#X connect 43 0 45 0;
#X connect 43 0 70 1;
#X connect 44 0 70 0;
#X connect 52 0 78 0;
#X connect 53 0 55 0;
#X connect 53 0 71 1;
#X connect 54 0 71 0;
#X connect 62 0 84 0;
#X connect 63 0 65 0;
#X connect 63 0 72 1;
#X connect 64 0 72 0;
#X connect 68 0 6 0;
#X connect 68 0 11 0;
#X connect 68 1 5 0;
#X connect 68 1 11 1;
#X connect 68 2 8 0;
#X connect 68 2 11 2;
#X connect 68 3 7 0;
#X connect 68 3 11 3;
#X connect 68 4 10 0;
#X connect 68 4 11 4;
#X connect 68 5 9 0;
#X connect 68 5 11 5;
#X connect 69 0 27 0;
#X connect 69 0 32 0;
#X connect 69 1 26 0;
#X connect 69 1 32 1;
#X connect 69 2 29 0;
#X connect 69 2 32 2;
#X connect 69 3 28 0;
#X connect 69 3 32 3;
#X connect 69 4 31 0;
#X connect 69 4 32 4;
#X connect 69 5 30 0;
#X connect 69 5 32 5;
#X connect 70 0 37 0;
#X connect 70 0 42 0;
#X connect 70 1 36 0;
#X connect 70 1 42 1;
#X connect 70 2 39 0;
#X connect 70 2 42 2;
#X connect 70 3 38 0;
#X connect 70 3 42 3;
#X connect 70 4 41 0;
#X connect 70 4 42 4;
#X connect 70 5 40 0;
#X connect 70 5 42 5;
#X connect 71 0 47 0;
#X connect 71 0 52 0;
#X connect 71 1 46 0;
#X connect 71 1 52 1;
#X connect 71 2 49 0;
#X connect 71 2 52 2;
#X connect 71 3 48 0;
#X connect 71 3 52 3;
#X connect 71 4 51 0;
#X connect 71 4 52 4;
#X connect 71 5 50 0;
#X connect 71 5 52 5;
#X connect 72 0 57 0;
#X connect 72 0 62 0;
#X connect 72 1 56 0;
#X connect 72 1 62 1;
#X connect 72 2 59 0;
#X connect 72 2 62 2;
#X connect 72 3 58 0;
#X connect 72 3 62 3;
#X connect 72 4 61 0;
#X connect 72 4 62 4;
#X connect 72 5 60 0;
#X connect 72 5 62 5;
#X connect 73 0 3 0;
#X connect 74 0 4 0;
#X connect 75 0 2 0;
#X connect 76 0 1 0;
#X connect 77 0 0 0;
#X connect 78 0 77 0;
#X connect 79 0 76 0;
#X connect 80 0 75 0;
#X connect 81 0 73 0;
#X connect 82 0 74 0;
#X connect 83 0 66 0;
#X connect 84 0 83 0;
#X restore 30 56 pd STORE_COMPARE_LIST_FOR_MULTI_DESTINATIONS;
#X floatatom 152 132 5 0 1 0 - - -, f 5;
#X obj 137 152 s ch1_fx1_s;
#X floatatom 257 132 5 0 1 0 - - -, f 5;
#X obj 246 152 s ch2_fx1_s;
#X obj 136 243 s ch1_fx2_s;
#X obj 132 339 s ch1_fx3_s;
#X obj 126 434 s ch1_fx4_s;
#X obj 129 522 s ch1_fx5_s;
#X floatatom 147 225 5 0 1 0 - - -, f 5;
#X floatatom 138 317 5 0 1 0 - - -, f 5;
#X floatatom 140 411 5 0 1 0 - - -, f 5;
#X floatatom 141 501 5 0 1 0 - - -, f 5;
#X obj 246 243 s ch2_fx2_s;
#X obj 241 339 s ch2_fx3_s;
#X obj 233 434 s ch2_fx4_s;
#X obj 237 523 s ch2_fx5_s;
#X floatatom 253 226 5 0 1 0 - - -, f 5;
#X floatatom 253 317 5 0 1 0 - - -, f 5;
#X floatatom 246 412 5 0 1 0 - - -, f 5;
#X floatatom 248 501 5 0 1 0 - - -, f 5;
#X floatatom 362 132 5 0 1 0 - - -, f 5;
#X floatatom 477 133 5 0 1 0 - - -, f 5;
#X floatatom 367 226 5 0 1 0 - - -, f 5;
#X floatatom 357 317 5 0 1 0 - - -, f 5;
#X floatatom 351 413 5 0 1 0 - - -, f 5;
#X floatatom 353 503 5 0 1 0 - - -, f 5;
#X floatatom 481 226 5 0 1 0 - - -, f 5;
#X floatatom 467 317 5 0 1 0 - - -, f 5;
#X floatatom 457 410 5 0 1 0 - - -, f 5;
#X floatatom 459 502 5 0 1 0 - - -, f 5;
#X obj 345 524 s ch3_fx5_s;
#X obj 340 433 s ch3_fx4_s;
#X obj 350 339 s ch3_fx3_s;
#X obj 357 243 s ch3_fx2_s;
#X obj 355 152 s ch3_fx1_s;
#X obj 453 524 s ch4_fx5_s;
#X obj 447 432 s ch4_fx4_s;
#X obj 459 339 s ch4_fx3_s;
#X obj 467 243 s ch4_fx2_s;
#X obj 464 152 s ch4_fx1_s;
#X floatatom 602 132 5 0 1 0 - - -, f 5;
#X floatatom 598 225 5 0 1 0 - - -, f 5;
#X floatatom 578 320 5 0 1 0 - - -, f 5;
#X floatatom 564 411 5 0 1 0 - - -, f 5;
#X floatatom 570 503 5 0 1 0 - - -, f 5;
#X obj 561 525 s ch5_fx5_s;
#X obj 554 435 s ch5_fx4_s;
#X obj 568 342 s ch5_fx3_s;
#X obj 577 242 s ch5_fx2_s;
#X obj 573 152 s ch5_fx1_s;
#X floatatom 38 134 5 0 1 0 - - -, f 5;
#X floatatom 36 225 5 0 1 0 - - -, f 5;
#X floatatom 33 317 5 0 1 0 - - -, f 5;
#X floatatom 30 410 5 0 1 0 - - -, f 5;
#X floatatom 31 502 5 0 1 0 - - -, f 5;
#X obj 28 86 r send_levels_fx1;
#X obj 26 178 r send_levels_fx2;
#X obj 23 271 r send_levels_fx3;
#X obj 20 363 r send_levels_fx4;
#X obj 21 455 r send_levels_fx5;
#X obj 21 478 route 0 1 2 3 4 5, f 93;
#X obj 20 386 route 0 1 2 3 4 5, f 92;
#X obj 28 107 route 0 1 2 3 4 5, f 94;
#X obj 26 201 route 0 1 2 3 4 5, f 95;
#X obj 23 294 route 0 1 2 3 4 5, f 94;
#X obj 20 433 s ch0_fx4_s;
#X obj 21 523 s ch0_fx5_s;
#X obj 28 153 s ch0_fx1_s;
#X obj 26 243 s ch0_fx2_s;
#X obj 23 338 s ch0_fx3_s;
#N canvas 11 499 1425 383 STORE_COMPARE_LIST_FOR_MULTI_DESTINATIONS
0;
#X floatatom 757 129 5 0 0 0 - - -, f 5;
#X floatatom 719 129 5 0 0 0 - - -, f 5;
#X floatatom 834 129 5 0 0 0 - - -, f 5;
#X floatatom 796 129 5 0 0 0 - - -, f 5;
#X floatatom 912 129 5 0 0 0 - - -, f 5;
#X floatatom 873 129 5 0 0 0 - - -, f 5;
#X obj 709 149 pack f f f f f f, f 28;
#X obj 833 33 r fx_send_6val_dest, f 10;
#X floatatom 793 78 5 0 0 0 - - -, f 5;
#X floatatom 993 123 5 0 0 0 - - -, f 5;
#X floatatom 955 123 5 0 0 0 - - -, f 5;
#X floatatom 1070 123 5 0 0 0 - - -, f 5;
#X floatatom 1032 123 5 0 0 0 - - -, f 5;
#X floatatom 1148 123 5 0 0 0 - - -, f 5;
#X floatatom 1109 123 5 0 0 0 - - -, f 5;
#X obj 941 149 pack f f f f f f, f 28;
#X obj 1097 27 r fx_send_6val_dest, f 9;
#X floatatom 1100 76 5 0 0 0 - - -, f 5;
#X floatatom 745 286 5 0 0 0 - - -, f 5;
#X floatatom 707 286 5 0 0 0 - - -, f 5;
#X floatatom 822 286 5 0 0 0 - - -, f 5;
#X floatatom 784 286 5 0 0 0 - - -, f 5;
#X floatatom 900 286 5 0 0 0 - - -, f 5;
#X floatatom 861 286 5 0 0 0 - - -, f 5;
#X obj 709 260 route 0 1 2 3 4 5, f 28;
#X floatatom 977 286 5 0 0 0 - - -, f 5;
#X floatatom 939 286 5 0 0 0 - - -, f 5;
#X floatatom 1054 286 5 0 0 0 - - -, f 5;
#X floatatom 1016 286 5 0 0 0 - - -, f 5;
#X floatatom 1132 286 5 0 0 0 - - -, f 5;
#X floatatom 1093 286 5 0 0 0 - - -, f 5;
#X obj 941 260 route 0 1 2 3 4 5, f 28;
#X floatatom 523 125 5 0 0 0 - - -, f 5;
#X floatatom 485 125 5 0 0 0 - - -, f 5;
#X floatatom 600 125 5 0 0 0 - - -, f 5;
#X floatatom 562 125 5 0 0 0 - - -, f 5;
#X floatatom 678 125 5 0 0 0 - - -, f 5;
#X floatatom 639 125 5 0 0 0 - - -, f 5;
#X obj 475 145 pack f f f f f f, f 28;
#X obj 599 29 r fx_send_6val_dest, f 10;
#X floatatom 559 74 5 0 0 0 - - -, f 5;
#X floatatom 511 282 5 0 0 0 - - -, f 5;
#X floatatom 473 282 5 0 0 0 - - -, f 5;
#X floatatom 588 282 5 0 0 0 - - -, f 5;
#X floatatom 550 282 5 0 0 0 - - -, f 5;
#X floatatom 666 282 5 0 0 0 - - -, f 5;
#X floatatom 627 282 5 0 0 0 - - -, f 5;
#X obj 476 256 route 0 1 2 3 4 5, f 28;
#X floatatom 297 123 5 0 0 0 - - -, f 5;
#X floatatom 259 123 5 0 0 0 - - -, f 5;
#X floatatom 374 123 5 0 0 0 - - -, f 5;
#X floatatom 336 123 5 0 0 0 - - -, f 5;
#X floatatom 442 123 5 0 0 0 - - -, f 5;
#X floatatom 413 123 5 0 0 0 - - -, f 5;
#X obj 249 143 pack f f f f f f, f 28;
#X obj 373 27 r fx_send_6val_dest, f 10;
#X floatatom 333 72 5 0 0 0 - - -, f 5;
#X floatatom 285 280 5 0 0 0 - - -, f 5;
#X floatatom 247 280 5 0 0 0 - - -, f 5;
#X floatatom 362 280 5 0 0 0 - - -, f 5;
#X floatatom 324 280 5 0 0 0 - - -, f 5;
#X floatatom 440 280 5 0 0 0 - - -, f 5;
#X floatatom 401 280 5 0 0 0 - - -, f 5;
#X obj 249 254 route 0 1 2 3 4 5, f 28;
#X floatatom 65 121 5 0 0 0 - - -, f 5;
#X floatatom 27 121 5 0 0 0 - - -, f 5;
#X floatatom 142 121 5 0 0 0 - - -, f 5;
#X floatatom 104 121 5 0 0 0 - - -, f 5;
#X floatatom 220 121 5 0 0 0 - - -, f 5;
#X floatatom 181 121 5 0 0 0 - - -, f 5;
#X obj 17 141 pack f f f f f f, f 28;
#X obj 141 25 r fx_send_6val_dest, f 10;
#X floatatom 101 70 5 0 0 0 - - -, f 5;
#X floatatom 53 278 5 0 0 0 - - -, f 5;
#X floatatom 15 278 5 0 0 0 - - -, f 5;
#X floatatom 130 278 5 0 0 0 - - -, f 5;
#X floatatom 92 278 5 0 0 0 - - -, f 5;
#X floatatom 208 278 5 0 0 0 - - -, f 5;
#X floatatom 169 278 5 0 0 0 - - -, f 5;
#X obj 17 252 route 0 1 2 3 4 5, f 28;
#X obj 709 198 clone 1_ar_an_norm01_inv_lp 6;
#X obj 941 198 clone 1_ar_an_norm01_inv_lp 6;
#X obj 475 194 clone 1_ar_an_norm01_inv_lp 6;
#X obj 249 192 clone 1_ar_an_norm01_inv_lp 6;
#X obj 17 190 clone 1_ar_an_norm01_inv_lp 6;
#X obj 17 166 maxlib/listfunnel;
#X obj 249 168 maxlib/listfunnel;
#X obj 475 170 maxlib/listfunnel;
#X obj 709 174 maxlib/listfunnel;
#X obj 941 175 maxlib/listfunnel;
#X floatatom 1226 128 5 0 0 0 - - -, f 5;
#X floatatom 1188 128 5 0 0 0 - - -, f 5;
#X floatatom 1303 128 5 0 0 0 - - -, f 5;
#X floatatom 1265 128 5 0 0 0 - - -, f 5;
#X floatatom 1381 128 5 0 0 0 - - -, f 5;
#X floatatom 1342 128 5 0 0 0 - - -, f 5;
#X obj 1174 154 pack f f f f f f, f 28;
#X obj 1330 32 r fx_send_6val_dest, f 9;
#X floatatom 1333 81 5 0 0 0 - - -, f 5;
#X floatatom 1210 291 5 0 0 0 - - -, f 5;
#X floatatom 1172 291 5 0 0 0 - - -, f 5;
#X floatatom 1287 291 5 0 0 0 - - -, f 5;
#X floatatom 1249 291 5 0 0 0 - - -, f 5;
#X floatatom 1365 291 5 0 0 0 - - -, f 5;
#X floatatom 1326 291 5 0 0 0 - - -, f 5;
#X obj 1174 265 route 0 1 2 3 4 5, f 28;
#X obj 1174 203 clone 1_ar_an_norm01_inv_lp 6;
#X obj 1174 180 maxlib/listfunnel;
#X obj 36 225 s send_levels_fx1_pre;
#X obj 17 3 r fx_send_levels_pre;
#X obj 252 5 r fx_send_levels_pre;
#X obj 475 7 r fx_send_levels_pre;
#X obj 709 11 r fx_send_levels_pre;
#X obj 941 10 r fx_send_levels_pre;
#X obj 1174 7 r fx_send_levels_pre;
#X obj 274 224 s send_levels_fx2_pre;
#X obj 485 220 s send_levels_fx3_pre;
#X obj 726 228 s send_levels_fx4_pre;
#X obj 952 224 s send_levels_fx5_pre;
#X obj 1185 229 s send_levels_fx0_pre;
#X obj 941 97 ONElistSTOREandCOMPARE 5, f 31;
#X obj 709 97 ONElistSTOREandCOMPARE 4, f 31;
#X obj 475 93 ONElistSTOREandCOMPARE 3, f 31;
#X obj 249 91 ONElistSTOREandCOMPARE 2, f 31;
#X obj 17 89 ONElistSTOREandCOMPARE 1, f 31;
#X obj 1174 102 ONElistSTOREandCOMPARE 0, f 31;
#X connect 6 0 88 0;
#X connect 7 0 8 0;
#X connect 7 0 121 1;
#X connect 15 0 89 0;
#X connect 16 0 17 0;
#X connect 16 0 120 1;
#X connect 24 0 19 0;
#X connect 24 1 18 0;
#X connect 24 2 21 0;
#X connect 24 3 20 0;
#X connect 24 4 23 0;
#X connect 24 5 22 0;
#X connect 31 0 26 0;
#X connect 31 1 25 0;
#X connect 31 2 28 0;
#X connect 31 3 27 0;
#X connect 31 4 30 0;
#X connect 31 5 29 0;
#X connect 38 0 87 0;
#X connect 39 0 40 0;
#X connect 39 0 122 1;
#X connect 47 0 42 0;
#X connect 47 1 41 0;
#X connect 47 2 44 0;
#X connect 47 3 43 0;
#X connect 47 4 46 0;
#X connect 47 5 45 0;
#X connect 54 0 86 0;
#X connect 55 0 56 0;
#X connect 55 0 123 1;
#X connect 63 0 58 0;
#X connect 63 1 57 0;
#X connect 63 2 60 0;
#X connect 63 3 59 0;
#X connect 63 4 62 0;
#X connect 63 5 61 0;
#X connect 70 0 85 0;
#X connect 71 0 72 0;
#X connect 71 0 124 1;
#X connect 79 0 74 0;
#X connect 79 1 73 0;
#X connect 79 2 76 0;
#X connect 79 3 75 0;
#X connect 79 4 78 0;
#X connect 79 5 77 0;
#X connect 80 0 24 0;
#X connect 80 0 117 0;
#X connect 81 0 31 0;
#X connect 81 0 118 0;
#X connect 82 0 47 0;
#X connect 82 0 116 0;
#X connect 83 0 63 0;
#X connect 83 0 115 0;
#X connect 84 0 79 0;
#X connect 84 0 108 0;
#X connect 85 0 84 0;
#X connect 86 0 83 0;
#X connect 87 0 82 0;
#X connect 88 0 80 0;
#X connect 89 0 81 0;
#X connect 96 0 107 0;
#X connect 97 0 98 0;
#X connect 97 0 125 1;
#X connect 105 0 100 0;
#X connect 105 1 99 0;
#X connect 105 2 102 0;
#X connect 105 3 101 0;
#X connect 105 4 104 0;
#X connect 105 5 103 0;
#X connect 106 0 105 0;
#X connect 106 0 119 0;
#X connect 107 0 106 0;
#X connect 109 0 124 0;
#X connect 110 0 123 0;
#X connect 111 0 122 0;
#X connect 112 0 121 0;
#X connect 113 0 120 0;
#X connect 114 0 125 0;
#X connect 120 0 10 0;
#X connect 120 0 15 0;
#X connect 120 1 9 0;
#X connect 120 1 15 1;
#X connect 120 2 12 0;
#X connect 120 2 15 2;
#X connect 120 3 11 0;
#X connect 120 3 15 3;
#X connect 120 4 14 0;
#X connect 120 4 15 4;
#X connect 120 5 13 0;
#X connect 120 5 15 5;
#X connect 121 0 1 0;
#X connect 121 0 6 0;
#X connect 121 1 0 0;
#X connect 121 1 6 1;
#X connect 121 2 3 0;
#X connect 121 2 6 2;
#X connect 121 3 2 0;
#X connect 121 3 6 3;
#X connect 121 4 5 0;
#X connect 121 4 6 4;
#X connect 121 5 4 0;
#X connect 121 5 6 5;
#X connect 122 0 33 0;
#X connect 122 0 38 0;
#X connect 122 1 32 0;
#X connect 122 1 38 1;
#X connect 122 2 35 0;
#X connect 122 2 38 2;
#X connect 122 3 34 0;
#X connect 122 3 38 3;
#X connect 122 4 37 0;
#X connect 122 4 38 4;
#X connect 122 5 36 0;
#X connect 122 5 38 5;
#X connect 123 0 49 0;
#X connect 123 0 54 0;
#X connect 123 1 48 0;
#X connect 123 1 54 1;
#X connect 123 2 51 0;
#X connect 123 2 54 2;
#X connect 123 3 50 0;
#X connect 123 3 54 3;
#X connect 123 4 53 0;
#X connect 123 4 54 4;
#X connect 123 5 52 0;
#X connect 123 5 54 5;
#X connect 124 0 65 0;
#X connect 124 0 70 0;
#X connect 124 1 64 0;
#X connect 124 1 70 1;
#X connect 124 2 67 0;
#X connect 124 2 70 2;
#X connect 124 3 66 0;
#X connect 124 3 70 3;
#X connect 124 4 69 0;
#X connect 124 4 70 4;
#X connect 124 5 68 0;
#X connect 124 5 70 5;
#X connect 125 0 91 0;
#X connect 125 0 96 0;
#X connect 125 1 90 0;
#X connect 125 1 96 1;
#X connect 125 2 93 0;
#X connect 125 2 96 2;
#X connect 125 3 92 0;
#X connect 125 3 96 3;
#X connect 125 4 95 0;
#X connect 125 4 96 4;
#X connect 125 5 94 0;
#X connect 125 5 96 5;
#X restore 714 62 pd STORE_COMPARE_LIST_FOR_MULTI_DESTINATIONS;
#X floatatom 837 133 5 0 1 0 - - -, f 5;
#X floatatom 942 133 5 0 1 0 - - -, f 5;
#X floatatom 832 226 5 0 1 0 - - -, f 5;
#X floatatom 823 318 5 0 1 0 - - -, f 5;
#X floatatom 825 412 5 0 1 0 - - -, f 5;
#X floatatom 826 502 5 0 1 0 - - -, f 5;
#X floatatom 938 227 5 0 1 0 - - -, f 5;
#X floatatom 938 318 5 0 1 0 - - -, f 5;
#X floatatom 931 413 5 0 1 0 - - -, f 5;
#X floatatom 933 502 5 0 1 0 - - -, f 5;
#X floatatom 1047 133 5 0 1 0 - - -, f 5;
#X floatatom 1162 134 5 0 1 0 - - -, f 5;
#X floatatom 1052 227 5 0 1 0 - - -, f 5;
#X floatatom 1042 318 5 0 1 0 - - -, f 5;
#X floatatom 1036 414 5 0 1 0 - - -, f 5;
#X floatatom 1038 504 5 0 1 0 - - -, f 5;
#X floatatom 1166 227 5 0 1 0 - - -, f 5;
#X floatatom 1152 318 5 0 1 0 - - -, f 5;
#X floatatom 1142 411 5 0 1 0 - - -, f 5;
#X floatatom 1144 503 5 0 1 0 - - -, f 5;
#X floatatom 1287 133 5 0 1 0 - - -, f 5;
#X floatatom 1283 226 5 0 1 0 - - -, f 5;
#X floatatom 1263 321 5 0 1 0 - - -, f 5;
#X floatatom 1249 412 5 0 1 0 - - -, f 5;
#X floatatom 1255 504 5 0 1 0 - - -, f 5;
#X floatatom 723 135 5 0 1 0 - - -, f 5;
#X floatatom 721 226 5 0 1 0 - - -, f 5;
#X floatatom 718 318 5 0 1 0 - - -, f 5;
#X floatatom 715 411 5 0 1 0 - - -, f 5;
#X floatatom 716 503 5 0 1 0 - - -, f 5;
#X obj 706 479 route 0 1 2 3 4 5, f 93;
#X obj 705 387 route 0 1 2 3 4 5, f 92;
#X obj 713 108 route 0 1 2 3 4 5, f 94;
#X obj 711 202 route 0 1 2 3 4 5, f 95;
#X obj 708 295 route 0 1 2 3 4 5, f 94;
#X obj 713 87 r send_levels_fx1_pre;
#X obj 711 179 r send_levels_fx2_pre;
#X obj 708 272 r send_levels_fx3_pre;
#X obj 705 364 r send_levels_fx4_pre;
#X obj 706 456 r send_levels_fx5_pre;
#X obj 713 154 s ch0_fx1_pre;
#X obj 822 153 s ch1_fx1_pre;
#X obj 931 153 s ch2_fx1_pre;
#X obj 1040 153 s ch3_fx1_pre;
#X obj 1149 153 s ch4_fx1_pre;
#X obj 1258 153 s ch5_fx1_pre;
#X obj 711 244 s ch0_fx2_pre;
#X obj 821 244 s ch1_fx2_pre;
#X obj 931 244 s ch2_fx2_pre;
#X obj 1042 244 s ch3_fx2_pre;
#X obj 1152 244 s ch4_fx2_pre;
#X obj 1262 243 s ch5_fx2_pre;
#X obj 708 339 s ch0_fx3_pre;
#X obj 817 340 s ch1_fx3_pre;
#X obj 926 340 s ch2_fx3_pre;
#X obj 1035 340 s ch3_fx3_pre;
#X obj 1144 340 s ch4_fx3_pre;
#X obj 1253 343 s ch5_fx3_pre;
#X obj 705 434 s ch0_fx4_pre;
#X obj 811 435 s ch1_fx4_pre;
#X obj 918 435 s ch2_fx4_pre;
#X obj 1025 434 s ch3_fx4_pre;
#X obj 1132 433 s ch4_fx4_pre;
#X obj 1239 436 s ch5_fx4_pre;
#X obj 706 524 s ch0_fx5_pre;
#X obj 814 523 s ch1_fx5_pre;
#X obj 924 524 s ch2_fx5_pre;
#X obj 1030 525 s ch3_fx5_pre;
#X obj 1138 525 s ch4_fx5_pre;
#X obj 1246 526 s ch5_fx5_pre;
#X text 34 6 THIS PATCH RECEIVES LIST OF FX LEVELS AND DESTINATION
WHERE TO SEND IT DEPENDING ON FX SEL BUTTON;
#X obj 520 81 print;
#X obj 520 52 spigot;
#X obj 559 31 tgl 15 0 empty empty empty 17 7 0 10 -262144 -1 -1 0
1;
#X connect 56 0 63 0;
#X connect 57 0 64 0;
#X connect 58 0 65 0;
#X connect 59 0 62 0;
#X connect 60 0 61 0;
#X connect 61 0 55 0;
#X connect 61 0 67 0;
#X connect 61 1 12 0;
#X connect 61 1 8 0;
#X connect 61 2 20 0;
#X connect 61 2 16 0;
#X connect 61 3 26 0;
#X connect 61 3 31 0;
#X connect 61 4 30 0;
#X connect 61 4 36 0;
#X connect 61 5 45 0;
#X connect 61 5 46 0;
#X connect 62 0 54 0;
#X connect 62 0 66 0;
#X connect 62 1 11 0;
#X connect 62 1 7 0;
#X connect 62 2 19 0;
#X connect 62 2 15 0;
#X connect 62 3 25 0;
#X connect 62 3 32 0;
#X connect 62 4 29 0;
#X connect 62 4 37 0;
#X connect 62 5 44 0;
#X connect 62 5 47 0;
#X connect 63 0 51 0;
#X connect 63 0 68 0;
#X connect 63 1 1 0;
#X connect 63 1 2 0;
#X connect 63 2 3 0;
#X connect 63 2 4 0;
#X connect 63 3 21 0;
#X connect 63 3 35 0;
#X connect 63 4 22 0;
#X connect 63 4 40 0;
#X connect 63 5 41 0;
#X connect 63 5 50 0;
#X connect 64 0 52 0;
#X connect 64 0 69 0;
#X connect 64 1 9 0;
#X connect 64 1 5 0;
#X connect 64 2 17 0;
#X connect 64 2 13 0;
#X connect 64 3 23 0;
#X connect 64 3 34 0;
#X connect 64 4 27 0;
#X connect 64 4 39 0;
#X connect 64 5 42 0;
#X connect 64 5 49 0;
#X connect 65 0 53 0;
#X connect 65 0 70 0;
#X connect 65 1 10 0;
#X connect 65 1 6 0;
#X connect 65 2 18 0;
#X connect 65 2 14 0;
#X connect 65 3 24 0;
#X connect 65 3 33 0;
#X connect 65 4 28 0;
#X connect 65 4 38 0;
#X connect 65 5 43 0;
#X connect 65 5 48 0;
#X connect 102 0 101 0;
#X connect 102 0 136 0;
#X connect 102 1 77 0;
#X connect 102 1 137 0;
#X connect 102 2 81 0;
#X connect 102 2 138 0;
#X connect 102 3 87 0;
#X connect 102 3 139 0;
#X connect 102 4 91 0;
#X connect 102 4 140 0;
#X connect 102 5 96 0;
#X connect 102 5 141 0;
#X connect 103 0 100 0;
#X connect 103 0 130 0;
#X connect 103 1 76 0;
#X connect 103 1 131 0;
#X connect 103 2 80 0;
#X connect 103 2 132 0;
#X connect 103 3 86 0;
#X connect 103 3 133 0;
#X connect 103 4 90 0;
#X connect 103 4 134 0;
#X connect 103 5 95 0;
#X connect 103 5 135 0;
#X connect 104 0 97 0;
#X connect 104 0 112 0;
#X connect 104 1 72 0;
#X connect 104 1 113 0;
#X connect 104 2 73 0;
#X connect 104 2 114 0;
#X connect 104 3 82 0;
#X connect 104 3 115 0;
#X connect 104 4 83 0;
#X connect 104 4 116 0;
#X connect 104 5 92 0;
#X connect 104 5 117 0;
#X connect 105 0 98 0;
#X connect 105 0 118 0;
#X connect 105 1 74 0;
#X connect 105 1 119 0;
#X connect 105 2 78 0;
#X connect 105 2 120 0;
#X connect 105 2 144 0;
#X connect 105 3 84 0;
#X connect 105 3 121 0;
#X connect 105 4 88 0;
#X connect 105 4 122 0;
#X connect 105 5 93 0;
#X connect 105 5 123 0;
#X connect 106 0 99 0;
#X connect 106 0 124 0;
#X connect 106 1 75 0;
#X connect 106 1 125 0;
#X connect 106 2 79 0;
#X connect 106 2 126 0;
#X connect 106 3 85 0;
#X connect 106 3 127 0;
#X connect 106 4 89 0;
#X connect 106 4 128 0;
#X connect 106 5 94 0;
#X connect 106 5 129 0;
#X connect 107 0 104 0;
#X connect 108 0 105 0;
#X connect 109 0 106 0;
#X connect 110 0 103 0;
#X connect 111 0 102 0;
#X connect 144 0 143 0;
#X connect 145 0 144 1;
#X restore 197 38 pd FX_SEND_PRE_POST_NO_MATRIX;
#X obj 26 109 MIXER:CHANNELSTRIPS/pre_ch_strip 0;
#X obj 422 39 s print_chstrip_set;
#X text 442 5 print setting of strips;
#X obj 422 22 metro 400;
#X obj 422 5 tgl 15 0 empty empty empty 17 7 0 10 -262144 -1 -1 0 1
;
#X obj 488 24 bng 15 250 50 0 empty empty empty 17 7 0 10 -262144 -1
-1;
#X obj 329 147 MIXER:CHANNELSTRIPS/channel_strip 2;
#X obj 329 125 MIXER:CHANNELSTRIPS/channel_strip 1;
#X obj 330 167 MIXER:CHANNELSTRIPS/channel_strip 3;
#X obj 329 190 MIXER:CHANNELSTRIPS/channel_strip 4;
#X obj 329 210 MIXER:CHANNELSTRIPS/channel_strip 5;
#X connect 18 0 16 0;
#X connect 19 0 18 0;
#X connect 20 0 16 0;
#X restore 554 361 pd CHANNEL_STRIPS_AUDIO_ROUTING;
#X text 655 283 FLTRS;
#X text 826 287 LCAM;
#X text 826 301 DIST;
#X text 868 289 VERB;
#X text 868 301 GRAN;
#X text 536 283 ADD;
#X obj 704 334 tgl 25 0 fx1_mute fx1_1/0 FX1 5 -2 0 8 -260097 -1 -1
0 1;
#X text 699 302 LCDL;
#X obj 747 334 tgl 25 0 fx2_mute fx2_1/0 FX2 5 -2 0 8 -260097 -1 -1
0 1;
#X obj 789 334 tgl 25 0 fx3_mute fx3_1/0 FX3 5 -2 0 8 -260097 -1 -1
0 1;
#X obj 831 334 tgl 25 0 fx4_mute fx4_1/0 FX4 5 -2 0 8 -260097 -1 -1
0 1;
#X obj 873 334 tgl 25 0 fx5_mute fx5_1/0 FX5 5 -2 0 8 -260097 -1 -1
0 1;
#X text 443 283 AUDIN;
#X obj 948 195 vsl 25 120 0 1 0 0 empty levelMaster Mstr 1 -9 0 10
-262144 -258113 -1 0 1;
#N canvas 51 92 1220 664 mix_ctrl 0;
#X obj 113 308 bng 15 250 50 0 empty empty empty 17 7 0 10 -262144
-1 -1;
#X obj 136 24 r update_controls;
#X obj 638 29 r fx_sel;
#X floatatom 684 93 5 0 0 0 - - -, f 5;
#X obj 765 179 s fx_send_6val_dest;
#X obj 638 156 t f f, f 18;
#X obj 638 134 i;
#X obj 575 85 sel 0;
#X obj 574 108 bng 15 250 50 0 empty empty empty 17 7 0 10 -262144
-1 -1;
#X obj 597 110 bng 15 250 50 0 empty empty empty 17 7 0 10 -262144
-1 -1;
#X floatatom 596 181 5 0 0 0 - - -, f 5;
#X obj 638 93 t b f;
#X obj 638 178 s FX_SEL_LED_CTRL;
#N canvas 47 481 1143 207 send_levels 0;
#X obj 16 92 s patch1level;
#X obj 16 59 unpack f f f f f f f f, f 142;
#X obj 157 93 s patch2level;
#X obj 299 95 s patch3level;
#X obj 440 94 s patch5level;
#X obj 582 93 s patch4level;
#X obj 1007 91 s levelMaster;
#X obj 865 92 s compress;
#X obj 16 31 inlet;
#X connect 1 0 0 0;
#X connect 1 1 2 0;
#X connect 1 2 3 0;
#X connect 1 3 4 0;
#X connect 1 4 5 0;
#X connect 1 6 7 0;
#X connect 1 7 6 0;
#X connect 8 0 1 0;
#X restore 320 503 pd send_levels;
#N canvas 555 324 752 171 send_pan 0;
#X obj 14 113 s pan1;
#X obj 15 69 - 0.5;
#X obj 14 92 * 2;
#X obj 89 119 s pan2;
#X obj 162 118 s pan3;
#X obj 238 121 s pan4;
#X obj 683 120 s pan5;
#X obj 89 72 - 0.5;
#X obj 89 95 * 2;
#X obj 163 75 - 0.5;
#X obj 162 98 * 2;
#X obj 238 73 - 0.5;
#X obj 238 96 * 2;
#X obj 684 74 - 0.5;
#X obj 683 97 * 2;
#X obj 15 45 unpack f f f f f f f f f f, f 96;
#X obj 15 22 inlet;
#X connect 1 0 2 0;
#X connect 2 0 0 0;
#X connect 7 0 8 0;
#X connect 8 0 3 0;
#X connect 9 0 10 0;
#X connect 10 0 4 0;
#X connect 11 0 12 0;
#X connect 12 0 5 0;
#X connect 13 0 14 0;
#X connect 14 0 6 0;
#X connect 15 0 1 0;
#X connect 15 1 7 0;
#X connect 15 2 9 0;
#X connect 15 3 11 0;
#X connect 15 9 13 0;
#X connect 16 0 15 0;
#X restore 176 510 pd send_pan;
#N canvas 378 51 907 210 send_fx_returns 0;
#X obj 15 107 unpack f f f f f f, f 109;
#X obj 15 134 s audio_in_gain;
#X floatatom 126 137 5 0 0 0 - - -, f 5;
#X obj 167 135 s fx1_return;
#X obj 319 137 s fx2_return;
#X obj 471 136 s fx3_return;
#X obj 775 141 s fx4_return;
#X obj 623 141 s fx5_return;
#X obj 15 57 cyclone/zl join;
#X obj 15 28 inlet;
#X obj 117 24 inlet;
#X obj 546 69 print;
#X obj 546 47 spigot;
#X obj 585 26 tgl 15 0 empty empty empty 17 7 0 10 -262144 -1 -1 0
1;
#X connect 0 0 1 0;
#X connect 0 1 3 0;
#X connect 0 2 4 0;
#X connect 0 3 5 0;
#X connect 0 4 7 0;
#X connect 0 5 6 0;
#X connect 8 0 0 0;
#X connect 8 0 12 0;
#X connect 9 0 8 0;
#X connect 10 0 8 1;
#X connect 12 0 11 0;
#X connect 13 0 12 1;
#X restore 136 548 pd send_fx_returns;
#X text 733 23 GET NUMBER 0-5 FROM FX SEL;
#X text 734 53 FX SEND PRE POST NO MATRIX;
#X text 734 68 STORE COMPARE LIST FOR MULTI DEST;
#X text 733 37 SEND IT TO 3 PLACES: 1&2: CHANNEL STRIPS AUDIO ROUTING
;
#X text 733 82 THIS WILL DECIDE WHICH FX SEND WE CONTROL;
#X text 737 98 3: IT GOES TO CONTROL FX SIGNAL LED;
#X text 738 113 IN PANEL AMND PWM LEDS SUBPATCH BOTTOM;
#N canvas 521 289 808 479 digital_send_chmute_fxctrl 0;
#X obj 370 9 r dig_val1;
#X obj 370 27 unpack 0 0 0 0 0 0 0 0 0 0 0 0 0 0, f 37;
#X text 446 11 LFOsrcRM;
#X floatatom 348 316 5 0 0 0 - - -, f 5;
#X obj 66 29 unpack 0 0 0 0 0 0 0 0 0 0 0 0, f 39;
#X obj 66 5 r dig_val3;
#X text 699 407 ch1_mute;
#X obj 89 381 tgl 10 0 ch4_mute empty empty 17 7 0 10 -262144 -1 -1
1 1;
#X obj 172 320 tgl 10 0 ch3_mute empty empty 17 7 0 10 -262144 -1 -1
1 1;
#X obj 309 381 tgl 10 0 ch2_mute empty empty 17 7 0 10 -262144 -1 -1
1 1;
#X obj 16 245 tgl 10 0 ch5_mute empty empty 17 7 0 10 -262144 -1 -1
1 1;
#X obj 389 321 tgl 10 0 ch1_mute empty empty 17 7 0 10 -262144 -1 -1
1 1;
#X obj 4 125 s all_sends_off;
#X obj 122 127 bng 15 250 50 0 empty empty empty 17 7 0 10 -262144
-1 -1;
#X obj 486 351 s PRE_POST_FX_SEND;
#X obj 623 352 tgl 15 0 empty empty empty 17 7 0 10 -262144 -1 -1 1
1;
#X obj 577 199 print;
#X obj 577 170 spigot;
#X obj 616 149 tgl 15 0 empty empty empty 17 7 0 10 -262144 -1 -1 0
1;
#X obj 510 224 1_ARD_DIG_BTN 6 0;
#X obj 626 250 bng 15 250 50 0 empty empty empty 17 7 0 10 -262144
-1 -1;
#X obj 553 250 s fx_sel;
#X floatatom 510 250 5 0 0 0 - - -, f 5;
#X obj 16 218 1_ARD_DIG_SW 0;
#X obj 89 353 1_ARD_DIG_SW 0;
#X obj 172 290 1_ARD_DIG_SW 0;
#X obj 309 353 1_ARD_DIG_SW 0;
#X obj 348 285 1_ARD_DIG_SW 0;
#X obj 486 319 1_ARD_DIG_SW 0;
#X obj 4 70 1_ARD_DIG_BTN;
#X connect 0 0 1 0;
#X connect 1 1 28 0;
#X connect 1 4 19 0;
#X connect 4 6 29 0;
#X connect 4 7 23 0;
#X connect 4 8 24 0;
#X connect 4 9 25 0;
#X connect 4 10 26 0;
#X connect 4 11 27 0;
#X connect 5 0 4 0;
#X connect 17 0 16 0;
#X connect 18 0 17 1;
#X connect 19 0 22 0;
#X connect 19 0 21 0;
#X connect 19 1 20 0;
#X connect 23 0 10 0;
#X connect 24 0 7 0;
#X connect 25 0 8 0;
#X connect 26 0 9 0;
#X connect 27 0 3 0;
#X connect 27 0 11 0;
#X connect 28 0 14 0;
#X connect 28 0 15 0;
#X connect 29 0 13 0;
#X connect 29 0 12 0;
#X restore 286 26 pd digital_send_chmute_fxctrl;
#X obj 136 328 array get 48_analog_norm 32 16, f 12;
#X obj 136 381 list split 4;
#X obj 228 416 list split 4;
#X obj 320 451 list split 8;
#X obj 616 460 s fx_send_levels;
#X obj 53 541 print;
#X obj 53 522 spigot;
#X obj 92 506 tgl 15 0 empty empty empty 17 7 0 10 -262144 -1 -1 0
1;
#X text 643 245 OPEN WHEN SENDING POST;
#X text 647 265 OTHERWISE CLOSE;
#X obj 549 272 tgl 40 0 empty PRE_POST_FX_SEND PRE_POST_SWITCH -20
20 0 10 -258113 -1 -1 1 1;
#X obj 549 318 + 1;
#X floatatom 509 347 5 0 0 0 - - -, f 5;
#X obj 771 463 s fx_send_levels_pre;
#X obj 549 345 cyclone/gate 2, f 23;
#X text 119 415 0-3;
#X text 178 415 4-23;
#X obj 176 459 list split 10;
#X text 179 473 4-14;
#X text 131 577 6 elements 0-3 \, 22-23;
#X text 170 495 10 elements 4-13;
#X text 312 485 8 elements 8-15;
#X text 223 435 4-7;
#X text 267 448 8-23;
#X text 321 467 8-15;
#X obj 707 283 array get 32_a_ins_norm_smt 0 8;
#X obj 707 305 list split 6;
#X obj 136 56 t b b, f 43;
#X obj 549 416 unpack 0 0;
#X obj 707 416 unpack 0 0;
#X obj 549 395 clone 1_mul_01_1000 6;
#X obj 707 392 clone 1_mul_01_1000 6;
#X obj 549 371 maxlib/listfunnel;
#X obj 707 370 maxlib/listfunnel;
#X obj 575 35 tgl 40 0 empty PRE_POST_FX_SEND PRE_POST_SWITCH -20 20
0 10 -258113 -1 -1 1 1;
#X obj 771 438 cyclone/zl group 6;
#X obj 616 438 cyclone/zl group 6;
#X connect 0 0 24 0;
#X connect 1 0 51 0;
#X connect 2 0 3 0;
#X connect 2 0 11 0;
#X connect 5 0 12 0;
#X connect 5 0 10 0;
#X connect 5 1 4 0;
#X connect 6 0 5 0;
#X connect 7 0 8 0;
#X connect 7 0 6 0;
#X connect 7 1 9 0;
#X connect 7 1 6 0;
#X connect 11 0 6 0;
#X connect 11 1 6 1;
#X connect 24 0 25 0;
#X connect 25 0 15 0;
#X connect 25 1 26 0;
#X connect 25 1 41 0;
#X connect 26 1 27 0;
#X connect 27 0 13 0;
#X connect 30 0 29 0;
#X connect 31 0 30 1;
#X connect 34 0 35 0;
#X connect 35 0 36 0;
#X connect 35 0 38 0;
#X connect 38 0 56 0;
#X connect 38 1 57 0;
#X connect 41 0 14 0;
#X connect 49 0 50 0;
#X connect 50 0 38 1;
#X connect 50 1 15 1;
#X connect 51 0 24 0;
#X connect 51 1 49 0;
#X connect 52 1 60 0;
#X connect 53 1 59 0;
#X connect 54 0 52 0;
#X connect 55 0 53 0;
#X connect 56 0 54 0;
#X connect 57 0 55 0;
#X connect 58 0 7 0;
#X connect 59 0 37 0;
#X connect 60 0 28 0;
#X restore 677 162 pd mix_ctrl;
#X connect 1 0 33 0;
#X connect 1 0 32 0;
#X connect 1 0 31 0;
#X connect 1 0 30 0;
#X connect 1 0 29 0;
#X connect 1 0 35 0;
#X connect 2 0 34 0;
#X connect 2 0 24 0;
#X connect 2 0 25 0;
#X connect 2 0 26 0;
#X connect 2 0 27 0;
#X connect 2 0 28 0;
#X connect 3 0 22 0;
