#N canvas 547 306 1111 597 12;
#X obj 213 188 cnv 15 600 200 empty empty Mix_&_Routing 0 -10 0 16
-137856 -4160 0;
#X floatatom 223 293 2 -1 1 1 init_pan init_pan -;
#X floatatom 691 324 2 0 1 1 init_mute init_mute -;
#N canvas 680 215 619 539 master 0;
#X obj 120 455 env~;
#X obj 120 479 - 95;
#X obj 120 313 *~;
#X obj 395 242 pow 2;
#X obj 395 203 r levelMaster;
#X obj 120 503 s vuMaster;
#X obj 230 452 dac~;
#X obj 120 53 catch~ masterL;
#X obj 252 315 *~;
#X obj 250 54 catch~ masterR;
#X obj 121 424 +~;
#X obj 395 272 sig~;
#X obj 395 297 lop~ 20;
#X obj 489 304 outlet;
#X floatatom 23 118 5 0 0 0 - - -;
#X obj 23 75 - 1;
#X obj 23 31 r compress;
#X obj 48 504 outlet~;
#X obj 485 281 tgl 15 0 empty empty empty 17 7 0 10 -262144 -1 -1 0
1;
#X obj 507 279 s DSP_ON/OFF;
#X floatatom 486 228 5 0 0 0 - - -;
#X obj 121 154 else/compress~;
#X obj 251 154 else/compress~;
#X msg 23 136 gain \$1;
#X obj 23 54 * 12;
#X obj 23 97 clip 0 12;
#X text 58 120 in DBs;
#X obj 393 398 tgl 15 0 empty empty empty 17 7 0 10 -262144 -1 -1 1
1;
#X obj 393 352 loadbang;
#X msg 393 375 1;
#X floatatom 465 388 5 0 0 0 - - -;
#X obj 121 215 cyclone/tanh~;
#X obj 393 448 tabwrite~ scopel;
#X obj 393 448 tabwrite~ scoper;
#X obj 251 216 cyclone/tanh~;
#X obj 393 417 metro 50;
#X obj 485 254 1_ARD_COMPARE 0.05;
#X connect 0 0 1 0;
#X connect 1 0 5 0;
#X connect 2 0 10 0;
#X connect 2 0 6 0;
#X connect 2 0 32 0;
#X connect 3 0 11 0;
#X connect 4 0 3 0;
#X connect 4 0 13 0;
#X connect 4 0 20 0;
#X connect 4 0 36 0;
#X connect 7 0 21 0;
#X connect 8 0 10 1;
#X connect 8 0 6 1;
#X connect 8 0 33 0;
#X connect 9 0 22 0;
#X connect 10 0 0 0;
#X connect 10 0 17 0;
#X connect 11 0 12 0;
#X connect 12 0 8 1;
#X connect 12 0 2 1;
#X connect 14 0 23 0;
#X connect 15 0 25 0;
#X connect 16 0 24 0;
#X connect 21 0 31 0;
#X connect 22 0 34 0;
#X connect 23 0 21 0;
#X connect 23 0 22 0;
#X connect 24 0 15 0;
#X connect 25 0 14 0;
#X connect 27 0 35 0;
#X connect 28 0 29 0;
#X connect 29 0 27 0;
#X connect 30 0 35 1;
#X connect 31 0 2 0;
#X connect 34 0 8 0;
#X connect 35 0 32 0;
#X connect 35 0 33 0;
#X connect 36 0 19 0;
#X connect 36 0 18 0;
#X restore 691 345 pd master;
#X obj 472 204 vsl 40 120 0 1 0 0 empty fx1_return Fx1_LEV 0 -10 0
8 -260097 -1 -1 0 1;
#X obj 514 204 vsl 40 120 0 1 0 0 empty fx2_return Fx2_LEV 0 -10 0
8 -260097 -1 -1 0 1;
#X obj 556 204 vsl 40 120 0 1 0 0 empty fx3_return Fx3_LEV 0 -10 0
8 -260097 -1 -1 0 1;
#X obj 598 204 vsl 40 120 0 1 0 0 empty fx4_return Fx4_LEV 0 -10 0
8 -260097 -1 -1 0 1;
#X obj 640 204 vsl 40 120 0 1 0 0 empty fx5_return Fx5_LEV 0 -10 0
8 -260097 -1 -1 0 1;
#X obj 260 204 vsl 40 120 0 1 0 0 empty patch1level CH1_LEV 0 -10 0
8 -258113 -257985 -1 0 1;
#X obj 302 204 vsl 40 120 0 1 0 0 empty patch2level CH2_LEV 0 -10 0
8 -258113 -257985 -1 0 1;
#X obj 344 204 vsl 40 120 0 1 0 0 empty patch3level CH3_LEV 0 -10 0
8 -258113 -257985 -1 0 1;
#X obj 387 204 vsl 40 120 0 1 0 0 empty patch4level CH4_LEV 0 -10 0
8 -258113 -257985 -1 0 1;
#X obj 217 204 vsl 40 120 0 1 0 0 empty audio_in_gain CH0_LEV 0 -10
0 8 -261234 -262144 -1 0 1;
#X text 266 290 FBAK;
#X text 346 290 SMPL1;
#X obj 759 204 vu 20 120 vuMaster empty -1 -8 0 10 -66577 -1 1 0;
#X obj 230 204 vu 15 120 vuAudioIn empty -1 -8 0 10 -66577 -1 0 0;
#X obj 690 203 vsl 25 120 0 1 0 0 empty compress COMP 1 -9 0 10 -224705
-1 -1 0 1;
#X text 524 309 LCF;
#X text 560 308 LCRM;
#X obj 267 341 tgl 25 0 empty ch1_mute CH1_MU 0 -7 0 8 -254991 -1 -1
1 1;
#X obj 309 341 tgl 25 0 empty ch2_mute CH2_MU 0 -7 0 8 -254991 -1 -1
1 1;
#X obj 351 341 tgl 25 0 empty ch3_mute CH3_MU 0 -7 0 8 -254991 -1 -1
1 1;
#X obj 393 341 tgl 25 0 empty ch4_mute CH4_MU 0 -7 0 8 -254991 -1 -1
1 1;
#X obj 267 310 hsl 30 15 -1 1 0 1 empty pan1 PAN1 0 10 0 10 -34823
-1 -1 2175 1;
#X obj 309 310 hsl 30 15 -1 1 0 0 empty pan2 PAN2 0 10 0 10 -34823
-1 -1 2175 1;
#X obj 351 310 hsl 30 15 -1 1 0 0 empty pan3 PAN3 0 10 0 10 -34823
-1 -1 2175 1;
#X obj 393 310 hsl 30 15 -1 1 0 0 empty pan4 PAN4 0 10 0 10 -34823
-1 -1 2175 1;
#X obj 223 341 tgl 25 0 audioin_mute ch0_1/0 CH0_MU 0 -7 0 8 -261234
-1 -1 0 1;
#X obj 223 310 hsl 30 15 -1 1 0 1 audioin_pan empty PAN0 0 10 0 10
-34823 -1 -1 1450 1;
#N canvas 0 54 982 317 CHANNEL_STRIPS_AUDIO_ROUTING 0;
#X text 645 149 level \, pan \, mute \, send fx 1-5 \, allSendsOff
;
#X text 647 193 każdy czanel wysyła catch masterL i masterR;
#X text 646 172 5 fx send (na razie tylko post fader);
#X text 644 126 each has 8 ctrl parameters via send;
#X text 644 106 CHANNEL STRIP EXPECTS CATCH ch\$1;
#X obj 329 107 MIXER:CHANNELSTRIPS/channel_strip 0;
#X text 391 68 POST F FX SENDS;
#X text 105 20 routing;
#N canvas 138 254 1399 593 FX_SEND_PRE_POST_NO_MATRIX 0;
#N canvas 3 207 1425 287 STORE_COMPARE_LIST_FOR_MULTI_DESTINATIONS
0;
#X obj 17 235 s send_levels_fx1;
#X obj 249 234 s send_levels_fx2;
#X obj 475 230 s send_levels_fx3;
#X obj 709 238 s send_levels_fx4;
#X obj 941 234 s send_levels_fx5;
#X floatatom 757 149 5 0 0 0 - - -;
#X floatatom 719 149 5 0 0 0 - - -;
#X floatatom 834 149 5 0 0 0 - - -;
#X floatatom 796 149 5 0 0 0 - - -;
#X floatatom 912 149 5 0 0 0 - - -;
#X floatatom 873 149 5 0 0 0 - - -;
#X obj 709 169 pack f f f f f f, f 28;
#X obj 833 53 r fx_send_6val_dest, f 10;
#X obj 709 51 r fx_send_levels;
#X floatatom 793 98 5 0 0 0 - - -;
#X floatatom 993 143 5 0 0 0 - - -;
#X floatatom 955 143 5 0 0 0 - - -;
#X floatatom 1070 143 5 0 0 0 - - -;
#X floatatom 1032 143 5 0 0 0 - - -;
#X floatatom 1148 143 5 0 0 0 - - -;
#X floatatom 1109 143 5 0 0 0 - - -;
#X obj 941 169 pack f f f f f f, f 28;
#X obj 1097 47 r fx_send_6val_dest, f 9;
#X obj 941 51 r fx_send_levels;
#X floatatom 1100 96 5 0 0 0 - - -;
#X obj 941 117 ONElistSTOREandCOMPARE 5, f 31;
#X floatatom 523 145 5 0 0 0 - - -;
#X floatatom 485 145 5 0 0 0 - - -;
#X floatatom 600 145 5 0 0 0 - - -;
#X floatatom 562 145 5 0 0 0 - - -;
#X floatatom 678 145 5 0 0 0 - - -;
#X floatatom 639 145 5 0 0 0 - - -;
#X obj 475 165 pack f f f f f f, f 28;
#X obj 599 49 r fx_send_6val_dest, f 10;
#X obj 475 47 r fx_send_levels;
#X floatatom 559 94 5 0 0 0 - - -;
#X floatatom 297 143 5 0 0 0 - - -;
#X floatatom 259 143 5 0 0 0 - - -;
#X floatatom 374 143 5 0 0 0 - - -;
#X floatatom 336 143 5 0 0 0 - - -;
#X floatatom 442 143 5 0 0 0 - - -;
#X floatatom 413 143 5 0 0 0 - - -;
#X obj 249 163 pack f f f f f f, f 28;
#X obj 373 47 r fx_send_6val_dest, f 10;
#X obj 249 45 r fx_send_levels;
#X floatatom 333 92 5 0 0 0 - - -;
#X floatatom 65 141 5 0 0 0 - - -;
#X floatatom 27 141 5 0 0 0 - - -;
#X floatatom 142 141 5 0 0 0 - - -;
#X floatatom 104 141 5 0 0 0 - - -;
#X floatatom 220 141 5 0 0 0 - - -;
#X floatatom 181 141 5 0 0 0 - - -;
#X obj 17 161 pack f f f f f f, f 28;
#X obj 141 45 r fx_send_6val_dest, f 10;
#X obj 17 43 r fx_send_levels;
#X floatatom 101 90 5 0 0 0 - - -;
#X floatatom 1226 148 5 0 0 0 - - -;
#X floatatom 1188 148 5 0 0 0 - - -;
#X floatatom 1303 148 5 0 0 0 - - -;
#X floatatom 1265 148 5 0 0 0 - - -;
#X floatatom 1381 148 5 0 0 0 - - -;
#X floatatom 1342 148 5 0 0 0 - - -;
#X obj 1174 174 pack f f f f f f, f 28;
#X obj 1330 52 r fx_send_6val_dest, f 9;
#X obj 1174 56 r fx_send_levels;
#X floatatom 1333 101 5 0 0 0 - - -;
#X obj 1174 239 s send_levels_fx0;
#X text 430 11 THIS PATCH RECEIVES LIST OF FX LEVELS AND DESTINATION
WHERE TO SEND IT DEPENDING ON FX SEL BUTTON;
#X obj 709 117 ONElistSTOREandCOMPARE 4, f 31;
#X obj 475 113 ONElistSTOREandCOMPARE 3, f 31;
#X obj 249 111 ONElistSTOREandCOMPARE 2, f 31;
#X obj 17 109 ONElistSTOREandCOMPARE 1, f 31;
#X obj 1174 122 ONElistSTOREandCOMPARE 0, f 31;
#X obj 17 182 maxlib/listfunnel;
#X obj 249 184 maxlib/listfunnel;
#X obj 475 186 maxlib/listfunnel;
#X obj 709 190 maxlib/listfunnel;
#X obj 941 191 maxlib/listfunnel;
#X obj 1174 196 maxlib/listfunnel;
#X obj 72 17 r fx_send_levels_init;
#X obj 173 267 print;
#X obj 173 238 spigot;
#X obj 212 217 tgl 15 0 empty empty empty 17 7 0 10 -262144 -1 -1 0
1;
#X obj 284 24 1_ar_an_nrm_inv;
#X floatatom 281 76 5 0 0 0 - - -;
#X obj 249 208 clone 1_ar_an_nrm_inv 6;
#X obj 17 206 clone 1_ar_an_nrm_inv 6;
#X obj 475 210 clone 1_ar_an_nrm_inv 6;
#X obj 709 214 clone 1_ar_an_nrm_inv 6;
#X obj 941 214 clone 1_ar_an_nrm_inv 6;
#X obj 1174 219 clone 1_ar_an_nrm_inv 6;
#X connect 11 0 76 0;
#X connect 12 0 14 0;
#X connect 12 0 68 1;
#X connect 13 0 68 0;
#X connect 21 0 77 0;
#X connect 22 0 24 0;
#X connect 22 0 25 1;
#X connect 23 0 25 0;
#X connect 25 0 16 0;
#X connect 25 0 21 0;
#X connect 25 1 15 0;
#X connect 25 1 21 1;
#X connect 25 2 18 0;
#X connect 25 2 21 2;
#X connect 25 3 17 0;
#X connect 25 3 21 3;
#X connect 25 4 20 0;
#X connect 25 4 21 4;
#X connect 25 5 19 0;
#X connect 25 5 21 5;
#X connect 32 0 75 0;
#X connect 33 0 35 0;
#X connect 33 0 69 1;
#X connect 34 0 69 0;
#X connect 42 0 74 0;
#X connect 43 0 45 0;
#X connect 43 0 70 1;
#X connect 44 0 70 0;
#X connect 52 0 73 0;
#X connect 53 0 55 0;
#X connect 53 0 71 1;
#X connect 54 0 71 0;
#X connect 62 0 78 0;
#X connect 63 0 65 0;
#X connect 63 0 72 1;
#X connect 64 0 72 0;
#X connect 68 0 6 0;
#X connect 68 0 11 0;
#X connect 68 1 5 0;
#X connect 68 1 11 1;
#X connect 68 2 8 0;
#X connect 68 2 11 2;
#X connect 68 3 7 0;
#X connect 68 3 11 3;
#X connect 68 4 10 0;
#X connect 68 4 11 4;
#X connect 68 5 9 0;
#X connect 68 5 11 5;
#X connect 69 0 27 0;
#X connect 69 0 32 0;
#X connect 69 1 26 0;
#X connect 69 1 32 1;
#X connect 69 2 29 0;
#X connect 69 2 32 2;
#X connect 69 3 28 0;
#X connect 69 3 32 3;
#X connect 69 4 31 0;
#X connect 69 4 32 4;
#X connect 69 5 30 0;
#X connect 69 5 32 5;
#X connect 70 0 37 0;
#X connect 70 0 42 0;
#X connect 70 1 36 0;
#X connect 70 1 42 1;
#X connect 70 2 39 0;
#X connect 70 2 42 2;
#X connect 70 3 38 0;
#X connect 70 3 42 3;
#X connect 70 4 41 0;
#X connect 70 4 42 4;
#X connect 70 5 40 0;
#X connect 70 5 42 5;
#X connect 70 5 83 0;
#X connect 71 0 47 0;
#X connect 71 0 52 0;
#X connect 71 1 46 0;
#X connect 71 1 52 1;
#X connect 71 2 49 0;
#X connect 71 2 52 2;
#X connect 71 3 48 0;
#X connect 71 3 52 3;
#X connect 71 4 51 0;
#X connect 71 4 52 4;
#X connect 71 5 50 0;
#X connect 71 5 52 5;
#X connect 72 0 57 0;
#X connect 72 0 62 0;
#X connect 72 1 56 0;
#X connect 72 1 62 1;
#X connect 72 2 59 0;
#X connect 72 2 62 2;
#X connect 72 3 58 0;
#X connect 72 3 62 3;
#X connect 72 4 61 0;
#X connect 72 4 62 4;
#X connect 72 5 60 0;
#X connect 72 5 62 5;
#X connect 73 0 86 0;
#X connect 74 0 85 0;
#X connect 75 0 87 0;
#X connect 76 0 88 0;
#X connect 77 0 89 0;
#X connect 78 0 90 0;
#X connect 81 0 80 0;
#X connect 82 0 81 1;
#X connect 83 0 84 0;
#X connect 83 0 81 0;
#X connect 85 0 1 0;
#X connect 86 0 0 0;
#X connect 87 0 2 0;
#X connect 88 0 3 0;
#X connect 89 0 4 0;
#X connect 90 0 66 0;
#X restore 720 66 pd STORE_COMPARE_LIST_FOR_MULTI_DESTINATIONS;
#X floatatom 842 142 5 0 1 0 - - -;
#X obj 827 162 s ch1_fx1_s;
#X floatatom 947 142 5 0 1 0 - - -;
#X obj 936 162 s ch2_fx1_s;
#X obj 826 253 s ch1_fx2_s;
#X obj 822 349 s ch1_fx3_s;
#X floatatom 837 235 5 0 1 0 - - -;
#X floatatom 828 327 5 0 1 0 - - -;
#X obj 936 253 s ch2_fx2_s;
#X obj 931 349 s ch2_fx3_s;
#X floatatom 943 236 5 0 1 0 - - -;
#X floatatom 943 327 5 0 1 0 - - -;
#X floatatom 1052 142 5 0 1 0 - - -;
#X floatatom 1167 143 5 0 1 0 - - -;
#X floatatom 1057 236 5 0 1 0 - - -;
#X floatatom 1047 327 5 0 1 0 - - -;
#X floatatom 1171 236 5 0 1 0 - - -;
#X floatatom 1157 327 5 0 1 0 - - -;
#X obj 1040 349 s ch3_fx3_s;
#X obj 1047 253 s ch3_fx2_s;
#X obj 1045 162 s ch3_fx1_s;
#X obj 1149 349 s ch4_fx3_s;
#X obj 1157 253 s ch4_fx2_s;
#X obj 1154 162 s ch4_fx1_s;
#X floatatom 728 144 5 0 1 0 - - -;
#X floatatom 726 235 5 0 1 0 - - -;
#X floatatom 723 327 5 0 1 0 - - -;
#X obj 718 96 r send_levels_fx1;
#X obj 716 188 r send_levels_fx2;
#X obj 713 281 r send_levels_fx3;
#X obj 718 117 route 0 1 2 3 4 5, f 94;
#X obj 716 211 route 0 1 2 3 4 5, f 95;
#X obj 713 304 route 0 1 2 3 4 5, f 94;
#X obj 718 163 s ch0_fx1_s;
#X obj 716 253 s ch0_fx2_s;
#X obj 713 348 s ch0_fx3_s;
#N canvas 1 207 1422 330 STORE_COMPARE_LIST_FOR_MULTI_DESTINATIONS
0;
#X floatatom 757 129 5 0 0 0 - - -;
#X floatatom 719 129 5 0 0 0 - - -;
#X floatatom 834 129 5 0 0 0 - - -;
#X floatatom 796 129 5 0 0 0 - - -;
#X floatatom 912 129 5 0 0 0 - - -;
#X floatatom 873 129 5 0 0 0 - - -;
#X obj 709 149 pack f f f f f f, f 28;
#X floatatom 743 68 5 0 0 0 - - -;
#X floatatom 993 123 5 0 0 0 - - -;
#X floatatom 955 123 5 0 0 0 - - -;
#X floatatom 1070 123 5 0 0 0 - - -;
#X floatatom 1032 123 5 0 0 0 - - -;
#X floatatom 1148 123 5 0 0 0 - - -;
#X floatatom 1109 123 5 0 0 0 - - -;
#X obj 941 149 pack f f f f f f, f 28;
#X floatatom 968 66 5 0 0 0 - - -;
#X floatatom 745 286 5 0 0 0 - - -;
#X floatatom 707 286 5 0 0 0 - - -;
#X floatatom 822 286 5 0 0 0 - - -;
#X floatatom 784 286 5 0 0 0 - - -;
#X floatatom 900 286 5 0 0 0 - - -;
#X floatatom 861 286 5 0 0 0 - - -;
#X obj 709 260 route 0 1 2 3 4 5, f 28;
#X floatatom 977 286 5 0 0 0 - - -;
#X floatatom 939 286 5 0 0 0 - - -;
#X floatatom 1054 286 5 0 0 0 - - -;
#X floatatom 1016 286 5 0 0 0 - - -;
#X floatatom 1132 286 5 0 0 0 - - -;
#X floatatom 1093 286 5 0 0 0 - - -;
#X obj 941 260 route 0 1 2 3 4 5, f 28;
#X floatatom 523 125 5 0 0 0 - - -;
#X floatatom 485 125 5 0 0 0 - - -;
#X floatatom 600 125 5 0 0 0 - - -;
#X floatatom 562 125 5 0 0 0 - - -;
#X floatatom 678 125 5 0 0 0 - - -;
#X floatatom 639 125 5 0 0 0 - - -;
#X obj 475 145 pack f f f f f f, f 28;
#X floatatom 509 64 5 0 0 0 - - -;
#X floatatom 511 282 5 0 0 0 - - -;
#X floatatom 473 282 5 0 0 0 - - -;
#X floatatom 588 282 5 0 0 0 - - -;
#X floatatom 550 282 5 0 0 0 - - -;
#X floatatom 666 282 5 0 0 0 - - -;
#X floatatom 627 282 5 0 0 0 - - -;
#X obj 476 256 route 0 1 2 3 4 5, f 28;
#X floatatom 297 123 5 0 0 0 - - -;
#X floatatom 259 123 5 0 0 0 - - -;
#X floatatom 374 123 5 0 0 0 - - -;
#X floatatom 336 123 5 0 0 0 - - -;
#X floatatom 442 123 5 0 0 0 - - -;
#X floatatom 413 123 5 0 0 0 - - -;
#X obj 249 143 pack f f f f f f, f 28;
#X floatatom 283 62 5 0 0 0 - - -;
#X floatatom 285 280 5 0 0 0 - - -;
#X floatatom 247 280 5 0 0 0 - - -;
#X floatatom 362 280 5 0 0 0 - - -;
#X floatatom 324 280 5 0 0 0 - - -;
#X floatatom 440 280 5 0 0 0 - - -;
#X floatatom 401 280 5 0 0 0 - - -;
#X obj 249 254 route 0 1 2 3 4 5, f 28;
#X floatatom 65 121 5 0 0 0 - - -;
#X floatatom 27 121 5 0 0 0 - - -;
#X floatatom 142 121 5 0 0 0 - - -;
#X floatatom 104 121 5 0 0 0 - - -;
#X floatatom 220 121 5 0 0 0 - - -;
#X floatatom 181 121 5 0 0 0 - - -;
#X obj 17 141 pack f f f f f f, f 28;
#X floatatom 51 60 5 0 0 0 - - -;
#X floatatom 53 278 5 0 0 0 - - -;
#X floatatom 15 278 5 0 0 0 - - -;
#X floatatom 130 278 5 0 0 0 - - -;
#X floatatom 92 278 5 0 0 0 - - -;
#X floatatom 208 278 5 0 0 0 - - -;
#X floatatom 169 278 5 0 0 0 - - -;
#X obj 17 252 route 0 1 2 3 4 5, f 28;
#X obj 17 166 maxlib/listfunnel;
#X obj 249 168 maxlib/listfunnel;
#X obj 475 170 maxlib/listfunnel;
#X obj 709 174 maxlib/listfunnel;
#X obj 941 175 maxlib/listfunnel;
#X floatatom 1226 128 5 0 0 0 - - -;
#X floatatom 1188 128 5 0 0 0 - - -;
#X floatatom 1303 128 5 0 0 0 - - -;
#X floatatom 1265 128 5 0 0 0 - - -;
#X floatatom 1381 128 5 0 0 0 - - -;
#X floatatom 1342 128 5 0 0 0 - - -;
#X obj 1174 154 pack f f f f f f, f 28;
#X floatatom 1201 71 5 0 0 0 - - -;
#X floatatom 1210 291 5 0 0 0 - - -;
#X floatatom 1172 291 5 0 0 0 - - -;
#X floatatom 1287 291 5 0 0 0 - - -;
#X floatatom 1249 291 5 0 0 0 - - -;
#X floatatom 1365 291 5 0 0 0 - - -;
#X floatatom 1326 291 5 0 0 0 - - -;
#X obj 1174 265 route 0 1 2 3 4 5, f 28;
#X obj 1174 180 maxlib/listfunnel;
#X obj 36 225 s send_levels_fx1_pre;
#X obj 17 3 r fx_send_levels_pre;
#X obj 249 5 r fx_send_levels_pre;
#X obj 475 7 r fx_send_levels_pre;
#X obj 709 11 r fx_send_levels_pre;
#X obj 941 10 r fx_send_levels_pre;
#X obj 1174 7 r fx_send_levels_pre;
#X obj 274 224 s send_levels_fx2_pre;
#X obj 485 220 s send_levels_fx3_pre;
#X obj 726 228 s send_levels_fx4_pre;
#X obj 952 224 s send_levels_fx5_pre;
#X obj 1185 229 s send_levels_fx0_pre;
#X obj 941 97 ONElistSTOREandCOMPARE 5, f 31;
#X obj 709 97 ONElistSTOREandCOMPARE 4, f 31;
#X obj 475 93 ONElistSTOREandCOMPARE 3, f 31;
#X obj 249 91 ONElistSTOREandCOMPARE 2, f 31;
#X obj 17 89 ONElistSTOREandCOMPARE 1, f 31;
#X obj 1174 102 ONElistSTOREandCOMPARE 0, f 31;
#X obj 17 190 clone 1_ar_an_nrm_inv 6;
#X obj 249 192 clone 1_ar_an_nrm_inv 6;
#X obj 475 194 clone 1_ar_an_nrm_inv 6;
#X obj 709 198 clone 1_ar_an_nrm_inv 6;
#X obj 941 198 clone 1_ar_an_nrm_inv 6;
#X obj 1174 203 clone 1_ar_an_nrm_inv 6;
#X obj 56 36 r fx_send_6val_dest_pre, f 25;
#X obj 283 37 r fx_send_6val_dest_pre;
#X obj 508 37 r fx_send_6val_dest_pre;
#X obj 743 43 r fx_send_6val_dest_pre;
#X obj 967 37 r fx_send_6val_dest_pre;
#X obj 1200 42 r fx_send_6val_dest_pre;
#X connect 6 0 78 0;
#X connect 14 0 79 0;
#X connect 22 0 17 0;
#X connect 22 1 16 0;
#X connect 22 2 19 0;
#X connect 22 3 18 0;
#X connect 22 4 21 0;
#X connect 22 5 20 0;
#X connect 29 0 24 0;
#X connect 29 1 23 0;
#X connect 29 2 26 0;
#X connect 29 3 25 0;
#X connect 29 4 28 0;
#X connect 29 5 27 0;
#X connect 36 0 77 0;
#X connect 44 0 39 0;
#X connect 44 1 38 0;
#X connect 44 2 41 0;
#X connect 44 3 40 0;
#X connect 44 4 43 0;
#X connect 44 5 42 0;
#X connect 51 0 76 0;
#X connect 59 0 54 0;
#X connect 59 1 53 0;
#X connect 59 2 56 0;
#X connect 59 3 55 0;
#X connect 59 4 58 0;
#X connect 59 5 57 0;
#X connect 66 0 75 0;
#X connect 74 0 69 0;
#X connect 74 1 68 0;
#X connect 74 2 71 0;
#X connect 74 3 70 0;
#X connect 74 4 73 0;
#X connect 74 5 72 0;
#X connect 75 0 114 0;
#X connect 76 0 115 0;
#X connect 77 0 116 0;
#X connect 78 0 117 0;
#X connect 79 0 118 0;
#X connect 86 0 95 0;
#X connect 94 0 89 0;
#X connect 94 1 88 0;
#X connect 94 2 91 0;
#X connect 94 3 90 0;
#X connect 94 4 93 0;
#X connect 94 5 92 0;
#X connect 95 0 119 0;
#X connect 97 0 112 0;
#X connect 98 0 111 0;
#X connect 99 0 110 0;
#X connect 100 0 109 0;
#X connect 101 0 108 0;
#X connect 102 0 113 0;
#X connect 108 0 9 0;
#X connect 108 0 14 0;
#X connect 108 1 8 0;
#X connect 108 1 14 1;
#X connect 108 2 11 0;
#X connect 108 2 14 2;
#X connect 108 3 10 0;
#X connect 108 3 14 3;
#X connect 108 4 13 0;
#X connect 108 4 14 4;
#X connect 108 5 12 0;
#X connect 108 5 14 5;
#X connect 109 0 1 0;
#X connect 109 0 6 0;
#X connect 109 1 0 0;
#X connect 109 1 6 1;
#X connect 109 2 3 0;
#X connect 109 2 6 2;
#X connect 109 3 2 0;
#X connect 109 3 6 3;
#X connect 109 4 5 0;
#X connect 109 4 6 4;
#X connect 109 5 4 0;
#X connect 109 5 6 5;
#X connect 110 0 31 0;
#X connect 110 0 36 0;
#X connect 110 1 30 0;
#X connect 110 1 36 1;
#X connect 110 2 33 0;
#X connect 110 2 36 2;
#X connect 110 3 32 0;
#X connect 110 3 36 3;
#X connect 110 4 35 0;
#X connect 110 4 36 4;
#X connect 110 5 34 0;
#X connect 110 5 36 5;
#X connect 111 0 46 0;
#X connect 111 0 51 0;
#X connect 111 1 45 0;
#X connect 111 1 51 1;
#X connect 111 2 48 0;
#X connect 111 2 51 2;
#X connect 111 3 47 0;
#X connect 111 3 51 3;
#X connect 111 4 50 0;
#X connect 111 4 51 4;
#X connect 111 5 49 0;
#X connect 111 5 51 5;
#X connect 112 0 61 0;
#X connect 112 0 66 0;
#X connect 112 1 60 0;
#X connect 112 1 66 1;
#X connect 112 2 63 0;
#X connect 112 2 66 2;
#X connect 112 3 62 0;
#X connect 112 3 66 3;
#X connect 112 4 65 0;
#X connect 112 4 66 4;
#X connect 112 5 64 0;
#X connect 112 5 66 5;
#X connect 113 0 81 0;
#X connect 113 0 86 0;
#X connect 113 1 80 0;
#X connect 113 1 86 1;
#X connect 113 2 83 0;
#X connect 113 2 86 2;
#X connect 113 3 82 0;
#X connect 113 3 86 3;
#X connect 113 4 85 0;
#X connect 113 4 86 4;
#X connect 113 5 84 0;
#X connect 113 5 86 5;
#X connect 114 0 74 0;
#X connect 114 0 96 0;
#X connect 115 0 59 0;
#X connect 115 0 103 0;
#X connect 116 0 44 0;
#X connect 116 0 104 0;
#X connect 117 0 22 0;
#X connect 117 0 105 0;
#X connect 118 0 29 0;
#X connect 118 0 106 0;
#X connect 119 0 94 0;
#X connect 119 0 107 0;
#X connect 120 0 67 0;
#X connect 120 0 112 1;
#X connect 121 0 52 0;
#X connect 121 0 111 1;
#X connect 122 0 37 0;
#X connect 122 0 110 1;
#X connect 123 0 7 0;
#X connect 123 0 109 1;
#X connect 124 0 15 0;
#X connect 124 0 108 1;
#X connect 125 0 87 0;
#X connect 125 0 113 1;
#X restore 34 72 pd STORE_COMPARE_LIST_FOR_MULTI_DESTINATIONS;
#X floatatom 157 143 5 0 1 0 - - -;
#X floatatom 262 143 5 0 1 0 - - -;
#X floatatom 152 236 5 0 1 0 - - -;
#X floatatom 143 328 5 0 1 0 - - -;
#X floatatom 258 237 5 0 1 0 - - -;
#X floatatom 258 328 5 0 1 0 - - -;
#X floatatom 367 143 5 0 1 0 - - -;
#X floatatom 482 144 5 0 1 0 - - -;
#X floatatom 372 237 5 0 1 0 - - -;
#X floatatom 362 328 5 0 1 0 - - -;
#X floatatom 486 237 5 0 1 0 - - -;
#X floatatom 472 328 5 0 1 0 - - -;
#X floatatom 43 145 5 0 1 0 - - -;
#X floatatom 41 236 5 0 1 0 - - -;
#X floatatom 38 328 5 0 1 0 - - -;
#X obj 33 118 route 0 1 2 3 4 5, f 94;
#X obj 31 212 route 0 1 2 3 4 5, f 95;
#X obj 28 305 route 0 1 2 3 4 5, f 94;
#X obj 33 97 r send_levels_fx1_pre;
#X obj 31 189 r send_levels_fx2_pre;
#X obj 28 282 r send_levels_fx3_pre;
#X obj 33 164 s ch0_fx1_pre;
#X obj 142 163 s ch1_fx1_pre;
#X obj 251 163 s ch2_fx1_pre;
#X obj 360 163 s ch3_fx1_pre;
#X obj 469 163 s ch4_fx1_pre;
#X obj 31 254 s ch0_fx2_pre;
#X obj 141 254 s ch1_fx2_pre;
#X obj 251 254 s ch2_fx2_pre;
#X obj 362 254 s ch3_fx2_pre;
#X obj 472 254 s ch4_fx2_pre;
#X obj 28 349 s ch0_fx3_pre;
#X obj 137 350 s ch1_fx3_pre;
#X obj 246 350 s ch2_fx3_pre;
#X obj 355 350 s ch3_fx3_pre;
#X obj 464 350 s ch4_fx3_pre;
#X text 34 6 THIS PATCH RECEIVES LIST OF FX LEVELS AND DESTINATION
WHERE TO SEND IT DEPENDING ON FX SEL BUTTON;
#X obj 520 41 print;
#X obj 520 22 spigot;
#X obj 559 1 tgl 15 0 empty empty empty 17 7 0 10 -262144 -1 -1 0 1
;
#X connect 28 0 31 0;
#X connect 29 0 32 0;
#X connect 30 0 33 0;
#X connect 31 0 25 0;
#X connect 31 0 34 0;
#X connect 31 1 1 0;
#X connect 31 1 2 0;
#X connect 31 2 3 0;
#X connect 31 2 4 0;
#X connect 31 3 13 0;
#X connect 31 3 21 0;
#X connect 31 4 14 0;
#X connect 31 4 24 0;
#X connect 32 0 26 0;
#X connect 32 0 35 0;
#X connect 32 1 7 0;
#X connect 32 1 5 0;
#X connect 32 2 11 0;
#X connect 32 2 9 0;
#X connect 32 3 15 0;
#X connect 32 3 20 0;
#X connect 32 4 17 0;
#X connect 32 4 23 0;
#X connect 33 0 27 0;
#X connect 33 0 36 0;
#X connect 33 1 8 0;
#X connect 33 1 6 0;
#X connect 33 2 12 0;
#X connect 33 2 10 0;
#X connect 33 3 16 0;
#X connect 33 3 19 0;
#X connect 33 4 18 0;
#X connect 33 4 22 0;
#X connect 53 0 50 0;
#X connect 53 0 59 0;
#X connect 53 1 38 0;
#X connect 53 1 60 0;
#X connect 53 2 39 0;
#X connect 53 2 61 0;
#X connect 53 3 44 0;
#X connect 53 3 62 0;
#X connect 53 4 45 0;
#X connect 53 4 63 0;
#X connect 54 0 51 0;
#X connect 54 0 64 0;
#X connect 54 1 40 0;
#X connect 54 1 65 0;
#X connect 54 2 42 0;
#X connect 54 2 66 0;
#X connect 54 3 46 0;
#X connect 54 3 67 0;
#X connect 54 4 48 0;
#X connect 54 4 68 0;
#X connect 55 0 52 0;
#X connect 55 0 69 0;
#X connect 55 1 41 0;
#X connect 55 1 70 0;
#X connect 55 2 43 0;
#X connect 55 2 71 0;
#X connect 55 3 47 0;
#X connect 55 3 72 0;
#X connect 55 4 49 0;
#X connect 55 4 73 0;
#X connect 56 0 53 0;
#X connect 57 0 54 0;
#X connect 58 0 55 0;
#X connect 76 0 75 0;
#X connect 77 0 76 1;
#X restore 27 38 pd FX_SEND_PRE_POST_NO_MATRIX;
#X obj 593 62 s print_chstrip_set;
#X text 613 27 print setting of strips;
#X obj 593 17 tgl 15 0 empty print_channel_strips_settings print_channel_strips_settings
17 7 0 10 -257985 -1 -1 0 1;
#X obj 659 45 bng 15 250 50 0 empty empty empty 17 7 0 10 -262144 -1
-1;
#X obj 329 143 MIXER:CHANNELSTRIPS/channel_strip 2;
#X obj 329 125 MIXER:CHANNELSTRIPS/channel_strip 1;
#X obj 329 179 MIXER:CHANNELSTRIPS/channel_strip 4;
#X text 403 19 for FX ctrl;
#N canvas 2000 299 866 541 Receive_Store_Compare_Listo_FOR_INIT 0;
#X text 389 255 ONE PART IS TO SEND THE VALUE TO THE CORRECT DESTINATION
\, we do that with prepending destination in fron of list;
#X text 286 199 1 receive list of values;
#X text 339 330 2a add dest SYMBOL (from button) in front of list;
#X text 350 297 2 ADD PREFIXes TO THE end LIST numeric;
#X text 387 236 dest input from;
#X text 83 75 this is to avoid need to go through all destinations
;
#X floatatom 403 119 5 0 0 0 - - -;
#N canvas 806 207 591 674 Get_and_send_default_values_to_destinations
0;
#X obj 124 603 outlet;
#X obj 317 568 outlet;
#X text 181 607 list of values from pots;
#X text 367 570 all destinations;
#X obj 124 464 prepend set;
#X obj 124 441 gate;
#X obj 124 366 tgl 15 1 empty empty empty 17 7 0 10 -262144 -1 -1 0
1;
#X msg 59 325 0;
#X msg 94 325 1;
#X msg 124 567 141 997 996 997 997 7;
#X text 57 12 store and send list of values from pots to all destinations
;
#X obj 285 469 t b f;
#X obj 285 441 gate;
#X msg 249 330 0;
#X text 222 454 close gate so we dont send it later;
#X msg 285 333 1;
#X obj 252 302 t b b;
#X obj 285 358 tgl 15 1 empty empty empty 17 7 0 10 -262144 -1 -1 0
1;
#X obj 147 32 loadbang;
#X obj 140 208 i;
#X msg 158 165 0;
#X obj 194 198 + 1;
#X text 312 123 wait for setup to finish;
#X text 313 135 maybe could be shorter;
#X obj 147 78 t b b b;
#X text 296 302 open gates;
#X obj 59 303 t b b;
#X text 107 302 close gates;
#X obj 244 86 bng 15 250 50 0 empty empty empty 17 7 0 10 -262144 -1
-1;
#X text 183 169 nr of destinations + 1 to go back to first;
#X floatatom 401 421 5 0 0 0 - - -;
#X obj 374 367 r fx_send_6val_dest, f 10;
#X obj 464 391 print;
#X obj 464 362 spigot;
#X obj 503 341 tgl 15 0 empty empty empty 17 7 0 10 -262144 -1 -1 0
1;
#X obj 29 389 r fx_send_levels_pre;
#X obj 49 605 outlet;
#X obj 29 466 prepend set;
#X msg 29 529 141 997 996 997 997 7;
#X obj 111 159 bng 15 250 50 0 empty empty empty 17 7 0 10 -262144
-1 -1;
#X msg 286 89 break;
#X obj 29 443 spigot;
#X obj 218 638 s fx_send_levels_init;
#X obj 29 643 s fx_send_levels_pre_init;
#X obj 183 385 r fx_send_levels;
#X obj 389 635 s fx_send_6val_dest_init, f 25;
#X obj 340 524 s fx_send_6val_dest_init, f 26;
#X obj 147 54 del 5000;
#X obj 371 331 r dest_init, f 12;
#X obj 186 271 s dest_init, f 12;
#X obj 140 250 + 1;
#X obj 194 222 % 6;
#X obj 294 189 loadbang;
#X obj 294 211 del 500;
#X obj 366 214 bng 15 250 50 0 empty empty empty 17 7 0 10 -262144
-1 -1;
#X obj 294 231 v SND_FX_AMT;
#X obj 101 194 bng 15 250 50 0 empty empty empty 17 7 0 10 -262144
-1 -1;
#X floatatom 140 272 5 0 0 0 - - -;
#X obj 252 132 del 300;
#X obj 140 110 del 400;
#X obj 59 119 del 500;
#X obj 140 142 cyclone/uzi 6;
#X connect 4 0 9 0;
#X connect 5 0 4 0;
#X connect 6 0 5 0;
#X connect 6 0 41 1;
#X connect 7 0 6 0;
#X connect 8 0 6 0;
#X connect 9 0 0 0;
#X connect 9 0 42 0;
#X connect 11 0 9 0;
#X connect 11 0 38 0;
#X connect 11 1 1 0;
#X connect 11 1 46 0;
#X connect 12 0 11 0;
#X connect 13 0 17 0;
#X connect 15 0 17 0;
#X connect 16 0 8 0;
#X connect 16 1 15 0;
#X connect 17 0 12 0;
#X connect 18 0 47 0;
#X connect 19 0 21 0;
#X connect 19 0 50 0;
#X connect 20 0 19 1;
#X connect 21 0 51 0;
#X connect 24 0 60 0;
#X connect 24 1 59 0;
#X connect 24 2 58 0;
#X connect 26 0 7 0;
#X connect 26 1 13 0;
#X connect 28 0 24 0;
#X connect 31 0 30 0;
#X connect 31 0 33 0;
#X connect 33 0 32 0;
#X connect 34 0 33 1;
#X connect 35 0 41 0;
#X connect 37 0 38 0;
#X connect 38 0 36 0;
#X connect 38 0 43 0;
#X connect 39 0 61 0;
#X connect 40 0 61 0;
#X connect 41 0 37 0;
#X connect 44 0 5 1;
#X connect 47 0 24 0;
#X connect 48 0 12 1;
#X connect 50 0 49 0;
#X connect 50 0 57 0;
#X connect 51 0 19 1;
#X connect 52 0 53 0;
#X connect 53 0 55 0;
#X connect 54 0 55 0;
#X connect 55 0 51 1;
#X connect 56 0 19 0;
#X connect 58 0 16 0;
#X connect 59 0 61 0;
#X connect 60 0 26 0;
#X connect 61 0 19 0;
#X restore 84 93 pd Get_and_send_default_values_to_destinations;
#X text 90 116 list of values from pots;
#X text 270 116 all destinations;
#X text 81 63 store and send list of values from pots to all destinations
;
#X text 354 357 and suffix - number of destination;
#X obj 243 202 t b a;
#X text 83 37 receive 4 analog and 4 digital values from lower row
of snd ctrl panel;
#X obj 307 238 r fx_send_6val_dest, f 10;
#X obj 68 279 spigot;
#X obj 107 258 tgl 15 0 empty empty empty 17 7 0 10 -262144 -1 -1 0
1;
#X obj 243 420 print;
#X obj 243 391 spigot;
#X obj 282 370 tgl 15 0 empty empty empty 17 7 0 10 -262144 -1 -1 0
1;
#X msg 284 164 141 997 996 997 997 7;
#X obj 284 136 prepend set;
#X obj 243 328 list prepend;
#X obj 392 478 s fx_send_levels_init;
#X msg 38 182 141 997 996 997 997 7;
#X obj 38 154 prepend set;
#X obj 38 233 r fx_send_levels_pre_init;
#X obj 38 305 r fx_send_levels_pre_init;
#X obj 49 329 r fx_send_6val_dest_init, f 25;
#X obj 177 485 r fx_send_levels;
#X obj 219 455 r fx_send_levels_pre;
#X obj 81 415 r fx_send_levels_init;
#X obj 212 166 bng 15 250 50 0 empty empty empty 17 7 0 10 -262144
-1 -1;
#X connect 7 0 25 0;
#X connect 7 1 12 0;
#X connect 7 1 21 0;
#X connect 7 2 6 0;
#X connect 7 2 22 1;
#X connect 12 0 22 0;
#X connect 12 1 22 0;
#X connect 16 0 15 1;
#X connect 18 0 17 0;
#X connect 19 0 18 1;
#X connect 21 0 20 0;
#X connect 22 0 18 0;
#X connect 25 0 24 0;
#X connect 26 0 15 0;
#X connect 32 0 12 0;
#X restore 328 40 pd Receive_Store_Compare_Listo_FOR_INIT;
#X obj 26 123 MIXER:CHANNELSTRIPS/pre_ch_strip 1;
#X obj 26 141 MIXER:CHANNELSTRIPS/pre_ch_strip 2;
#X obj 26 159 MIXER:CHANNELSTRIPS/pre_ch_strip 3;
#X obj 26 177 MIXER:CHANNELSTRIPS/pre_ch_strip 4;
#X obj 26 105 MIXER:CHANNELSTRIPS/pre_ch_strip_EX_A 0;
#X obj 593 44 metro 1000;
#X text 103 67 PRE F FX SENDS;
#X text 721 62 only post strips hace print out...;
#X obj 25 246 MIXER:CHANNELSTRIPS/pre_ch_strip 8;
#X obj 329 161 MIXER:CHANNELSTRIPS/1_CHANNEL_STRIP_STEREO 3;
#X connect 11 0 23 0;
#X connect 12 0 9 0;
#X connect 23 0 9 0;
#X restore 416 368 pd CHANNEL_STRIPS_AUDIO_ROUTING;
#X text 601 294 LCAM;
#X text 601 308 DIST;
#X text 643 296 VERB;
#X text 643 308 GRAN;
#X text 311 290 ADD;
#X obj 479 341 tgl 25 0 fx1_mute fx1_1/0 FX1 5 -2 0 8 -260097 -1 -1
0 1;
#X text 474 309 LCDL;
#X obj 522 341 tgl 25 0 fx2_mute fx2_1/0 FX2 5 -2 0 8 -260097 -1 -1
0 1;
#X obj 564 341 tgl 25 0 fx3_mute fx3_1/0 FX3 5 -2 0 8 -260097 -1 -1
0 1;
#X obj 606 341 tgl 25 0 fx4_mute fx4_1/0 FX4 5 -2 0 8 -260097 -1 -1
0 1;
#X obj 648 341 tgl 25 0 fx5_mute fx5_1/0 FX5 5 -2 0 8 -260097 -1 -1
0 1;
#X text 218 290 AUDIN;
#N canvas 33 254 1301 673 mix_ctrl 0;
#X obj 63 78 bng 15 250 50 0 empty empty empty 17 7 0 10 -262144 -1
-1;
#X obj 86 24 r update_controls;
#X obj 670 529 r fx_sel;
#X floatatom 743 564 5 0 0 0 - - -;
#X obj 712 610 s fx_send_6val_dest;
#X obj 1181 225 s FX_SEL_LED_CTRL;
#N canvas 32 471 1143 207 send_levels 0;
#X obj 16 92 s patch1level;
#X obj 16 59 unpack f f f f f f f f, f 142;
#X obj 157 93 s patch2level;
#X obj 299 95 s patch3level;
#X obj 440 94 s patch5level;
#X obj 582 93 s patch4level;
#X obj 1007 91 s levelMaster;
#X obj 865 92 s compress;
#X obj 16 31 inlet;
#X connect 1 0 0 0;
#X connect 1 1 2 0;
#X connect 1 2 3 0;
#X connect 1 3 4 0;
#X connect 1 4 5 0;
#X connect 1 6 7 0;
#X connect 1 7 6 0;
#X connect 8 0 1 0;
#X restore 270 273 pd send_levels;
#N canvas 593 532 752 171 send_pan 0;
#X obj 14 142 s pan1;
#X obj 15 98 - 0.5;
#X obj 14 121 * 2;
#X obj 89 148 s pan2;
#X obj 162 147 s pan3;
#X obj 238 150 s pan4;
#X obj 683 149 s pan5;
#X obj 89 101 - 0.5;
#X obj 89 124 * 2;
#X obj 163 104 - 0.5;
#X obj 162 127 * 2;
#X obj 238 102 - 0.5;
#X obj 238 125 * 2;
#X obj 684 103 - 0.5;
#X obj 683 126 * 2;
#X obj 15 74 unpack f f f f f f f f f f, f 96;
#X obj 15 22 inlet;
#X obj 368 111 loadbang;
#X obj 434 139 s pan0;
#X obj 498 143 s audioin_pan;
#X msg 368 133 0.5;
#X connect 1 0 2 0;
#X connect 2 0 0 0;
#X connect 7 0 8 0;
#X connect 8 0 3 0;
#X connect 9 0 10 0;
#X connect 10 0 4 0;
#X connect 11 0 12 0;
#X connect 12 0 5 0;
#X connect 13 0 14 0;
#X connect 14 0 6 0;
#X connect 15 0 1 0;
#X connect 15 1 7 0;
#X connect 15 2 9 0;
#X connect 15 3 11 0;
#X connect 15 9 13 0;
#X connect 17 0 20 0;
#X connect 20 0 6 0;
#X connect 20 0 5 0;
#X connect 20 0 4 0;
#X connect 20 0 3 0;
#X connect 20 0 0 0;
#X connect 20 0 18 0;
#X connect 20 0 19 0;
#X restore 126 280 pd send_pan;
#N canvas 363 54 907 210 send_fx_returns 0;
#X obj 15 107 unpack f f f f f f, f 109;
#X obj 15 134 s audio_in_gain;
#X floatatom 126 137 5 0 0 0 - - -;
#X obj 167 135 s fx1_return;
#X obj 319 137 s fx2_return;
#X obj 471 136 s fx3_return;
#X obj 775 141 s fx4_return;
#X obj 623 141 s fx5_return;
#X obj 15 57 cyclone/zl join;
#X obj 15 28 inlet;
#X obj 117 24 inlet;
#X obj 546 69 print;
#X obj 546 47 spigot;
#X obj 585 26 tgl 15 0 empty empty empty 17 7 0 10 -262144 -1 -1 0
1;
#X floatatom 167 157 5 0 0 0 - - -;
#X connect 0 0 1 0;
#X connect 0 1 3 0;
#X connect 0 1 14 0;
#X connect 0 2 4 0;
#X connect 0 3 5 0;
#X connect 0 4 7 0;
#X connect 0 5 6 0;
#X connect 8 0 0 0;
#X connect 8 0 12 0;
#X connect 9 0 8 0;
#X connect 10 0 8 1;
#X connect 12 0 11 0;
#X connect 13 0 12 1;
#X restore 86 478 pd send_fx_returns;
#X text 677 26 GET NUMBER 0-5 FROM FX SEL;
#X text 677 55 FX SEND PRE POST NO MATRIX;
#X text 676 69 STORE COMPARE LIST FOR MULTI DEST;
#X text 677 40 SEND IT TO 3 PLACES: 1&2: CHANNEL STRIPS AUDIO ROUTING
;
#X text 675 83 THIS WILL DECIDE WHICH FX SEND WE CONTROL;
#X text 677 97 3: IT GOES TO CONTROL FX SIGNAL LED;
#X text 676 112 IN PANEL AMND PWM LEDS SUBPATCH BOTTOM;
#N canvas 473 257 808 479 digital_send_chmute_fxctrl 0;
#X obj 370 9 r dig_val1;
#X obj 370 32 unpack 0 0 0 0 0 0 0 0 0 0 0 0 0 0, f 37;
#X text 446 11 LFOsrcRM;
#X floatatom 348 316 5 0 0 0 - - -;
#X obj 66 29 unpack 0 0 0 0 0 0 0 0 0 0 0 0, f 39;
#X obj 66 5 r dig_val3;
#X text 672 370 ch1_mute;
#X obj 89 381 tgl 10 0 ch4_mute empty empty 17 7 0 10 -262144 -1 -1
1 1;
#X obj 172 320 tgl 10 0 ch3_mute empty empty 17 7 0 10 -262144 -1 -1
1 1;
#X obj 309 381 tgl 10 0 ch2_mute empty empty 17 7 0 10 -262144 -1 -1
1 1;
#X obj 16 245 tgl 10 0 ch5_mute empty empty 17 7 0 10 -262144 -1 -1
1 1;
#X obj 389 321 tgl 10 0 ch1_mute empty empty 17 7 0 10 -262144 -1 -1
1 1;
#X obj 4 125 s all_sends_off;
#X obj 122 127 bng 15 250 50 0 empty empty empty 17 7 0 10 -262144
-1 -1;
#X obj 486 351 s PRE_POST_FX_SEND;
#X obj 623 352 tgl 15 0 empty empty empty 17 7 0 10 -262144 -1 -1 1
1;
#X obj 675 306 print;
#X obj 675 277 spigot;
#X obj 714 256 tgl 15 0 empty empty empty 17 7 0 10 -262144 -1 -1 0
1;
#X obj 626 250 bng 15 250 50 0 empty empty empty 17 7 0 10 -262144
-1 -1;
#X obj 510 250 s fx_sel;
#X floatatom 578 251 5 0 0 0 - - -;
#X obj 16 218 1_ARD_DIG_SW 0;
#X obj 89 353 1_ARD_DIG_SW 0;
#X obj 172 290 1_ARD_DIG_SW 0;
#X obj 309 353 1_ARD_DIG_SW 0;
#X obj 348 285 1_ARD_DIG_SW 0;
#X obj 486 319 1_ARD_DIG_SW 0;
#X obj 626 202 v SND_FX_AMT;
#X obj 626 179 bng 15 250 50 0 empty empty empty 17 7 0 10 -262144
-1 -1;
#X obj 644 178 loadbang;
#X text 670 229 FX number;
#X floatatom 650 243 5 0 0 0 - - -;
#X obj 510 224 1_ARD_DIG_BTN 5 1;
#X obj 590 139 bng 15 250 50 0 empty UPDATE_ALL_V UPDATE_ALL_V 17 7
0 10 -4034 -1 -1;
#X obj 4 70 1_ARD_DIG_BTN;
#X obj 414 63 tgl 15 0 empty empty empty 17 7 0 10 -262144 -1 -1 0
1;
#X connect 0 0 1 0;
#X connect 1 1 27 0;
#X connect 1 1 36 0;
#X connect 1 4 33 0;
#X connect 4 6 35 0;
#X connect 4 7 22 0;
#X connect 4 8 23 0;
#X connect 4 9 24 0;
#X connect 4 10 25 0;
#X connect 4 11 26 0;
#X connect 5 0 4 0;
#X connect 17 0 16 0;
#X connect 18 0 17 1;
#X connect 22 0 10 0;
#X connect 23 0 7 0;
#X connect 24 0 8 0;
#X connect 25 0 9 0;
#X connect 26 0 3 0;
#X connect 26 0 11 0;
#X connect 27 0 14 0;
#X connect 27 0 15 0;
#X connect 28 0 32 0;
#X connect 28 0 33 1;
#X connect 29 0 28 0;
#X connect 30 0 28 0;
#X connect 33 0 21 0;
#X connect 33 0 20 0;
#X connect 33 1 19 0;
#X connect 34 0 28 0;
#X connect 35 0 13 0;
#X connect 35 0 12 0;
#X restore 286 26 pd digital_send_chmute_fxctrl;
#X obj 86 98 array get 48_analog_norm 32 16, f 12;
#X obj 86 151 list split 4;
#X obj 178 186 list split 4;
#X obj 270 221 list split 8;
#X obj 319 579 s fx_send_levels;
#X text 541 315 OPEN WHEN SENDING POST;
#X text 541 335 OTHERWISE CLOSE;
#X obj 319 422 tgl 40 0 empty PRE_POST_FX_SEND PRE_POST_SWITCH -20
20 0 10 -258113 -1 -1 1 1;
#X obj 319 468 + 1;
#X floatatom 329 507 5 0 0 0 - - -;
#X obj 454 579 s fx_send_levels_pre;
#X obj 319 535 cyclone/gate 2, f 23;
#X text 69 185 0-3;
#X text 128 185 4-23;
#X obj 126 229 list split 10;
#X text 129 243 4-14;
#X text 83 502 6 elements 0-3 \, 22-23;
#X text 120 265 10 elements 4-13;
#X text 262 255 8 elements 8-15;
#X text 173 205 4-7;
#X text 217 218 8-23;
#X text 271 237 8-15;
#X obj 475 83 array get 32_a_ins_norm_smt 0 8;
#X obj 475 135 list split 6;
#X obj 86 56 t b b, f 56;
#X obj 475 267 unpack 0 0;
#X obj 475 243 clone 1_mul_01_1000 6;
#X obj 475 221 maxlib/listfunnel;
#X obj 575 434 tgl 40 0 empty PRE_POST_FX_SEND PRE_POST_SWITCH -20
20 0 10 -258113 -1 -1 1 1;
#X obj 534 293 cyclone/zl group 6;
#X obj 937 154 r fx_send_levels_pre_init;
#X obj 830 206 print FX_INIT;
#N canvas 0 207 470 583 init_fx_s_&_leds 0;
#X obj 111 174 i;
#X obj 111 203 % 6, f 14;
#X text 206 54 trzeba dwa razy zeby dzia¬aly sendy;
#X obj 318 105 bng 15 250 50 0 empty UPDATE_ALL_V UPDATE_ALL_V 17 7
0 10 -4034 -1 -1;
#X obj 251 103 loadbang;
#X obj 251 128 v SND_FX_AMT;
#X obj 111 358 list, f 8;
#X obj 111 308 t b f;
#X floatatom 251 200 5 0 0 0 - - -;
#X obj 26 291 bng 15 250 50 0 empty empty empty 17 7 0 10 -262144 -1
-1;
#X msg 63 91 break;
#X msg 69 133 0;
#X obj 154 175 + 1;
#X obj 111 232 + 1;
#X floatatom 152 232 5 0 0 0 - - -;
#X obj 111 68 t b l b, f 33;
#X obj 225 419 outlet led/fx number;
#X obj 56 412 outlet list values;
#X obj 111 21 inlet;
#X obj 111 138 cyclone/uzi 6;
#X connect 0 0 1 0;
#X connect 0 0 12 0;
#X connect 1 0 13 0;
#X connect 3 0 5 0;
#X connect 4 0 5 0;
#X connect 5 0 1 1;
#X connect 5 0 8 0;
#X connect 6 0 17 0;
#X connect 7 0 6 0;
#X connect 7 1 16 0;
#X connect 9 0 19 0;
#X connect 10 0 19 0;
#X connect 11 0 0 1;
#X connect 12 0 0 1;
#X connect 13 0 7 0;
#X connect 14 0 7 0;
#X connect 15 0 19 0;
#X connect 15 1 6 1;
#X connect 15 2 5 0;
#X connect 18 0 15 0;
#X connect 19 0 0 0;
#X restore 937 177 pd init_fx_s_&_leds;
#X obj 841 609 s fx_send_6val_dest_pre;
#X obj 670 633 s FX_SEL_LED_CTRL;
#X obj 575 482 + 1;
#X obj 613 481 bng 15 250 50 0 empty empty empty 17 7 0 10 -262144
-1 -1;
#X obj 854 251 s fx_send_levels;
#X obj 870 280 s fx_send_levels_pre;
#X obj 1050 251 s fx_send_6val_dest;
#X obj 1063 277 s fx_send_6val_dest_pre;
#X text 939 136 set led amd values at init!!!;
#X obj 575 510 t f b f;
#X obj 800 637 s FX_SEL_LED_CTRL_pre;
#X obj 670 557 t f f;
#X text 926 519 because there is change in store compare it wont work
\, we would need different number for pre post;
#X text 1018 554 for now it will do;
#X obj 1181 249 s FX_SEL_LED_CTRL_pre;
#X text 927 467 NA RAZIE NIE ROBIMY ROZGRANICZENIA NA PRE I POST TYLKO
WYSYŁAMY RAZEM WSZYSTKO DO KONTROLI LEDOW \, ALE AUDIO JEST WYŁĄCZANE
W CHANNEL STRIP;
#X connect 0 0 17 0;
#X connect 1 0 41 0;
#X connect 2 0 3 0;
#X connect 2 0 61 0;
#X connect 17 0 18 0;
#X connect 18 0 8 0;
#X connect 18 1 19 0;
#X connect 18 1 31 0;
#X connect 19 1 20 0;
#X connect 20 0 6 0;
#X connect 24 0 25 0;
#X connect 25 0 26 0;
#X connect 25 0 28 0;
#X connect 28 0 21 0;
#X connect 28 1 27 0;
#X connect 31 0 7 0;
#X connect 39 0 40 0;
#X connect 40 0 44 0;
#X connect 40 1 8 1;
#X connect 41 0 17 0;
#X connect 41 1 39 0;
#X connect 42 1 46 0;
#X connect 43 0 42 0;
#X connect 44 0 43 0;
#X connect 45 0 52 0;
#X connect 46 0 28 1;
#X connect 47 0 49 0;
#X connect 49 0 54 0;
#X connect 49 0 55 0;
#X connect 49 0 48 0;
#X connect 49 1 5 0;
#X connect 49 1 56 0;
#X connect 49 1 57 0;
#X connect 49 1 64 0;
#X connect 52 0 59 0;
#X connect 53 0 59 0;
#X connect 61 0 4 0;
#X connect 61 0 51 0;
#X connect 61 1 50 0;
#X connect 61 1 60 0;
#X restore 344 166 pd mix_ctrl;
#X obj 427 166 nbx 1 20 0 5 0 0 empty fx_sel FX 30 11 0 20 -262130
-33289 -33289 1 256;
#X obj 566 166 bng 20 250 50 0 empty all_sends_off SFXOF 20 12 0 20
-257985 -1 -1;
#X obj 485 166 tgl 20 0 empty PRE_POST_FX_SEND PR/PT 20 11 0 20 -4034
-1 -1 1 1;
#X obj 723 202 vsl 25 120 0 1 0 0 empty levelMaster Mstr 1 -9 0 10
-262144 -258113 -1 0 1;
#X obj 223 370 tgl 15 0 print_channel_strips_settings empty print_channel_strips_settings
17 7 0 10 -257985 -1 -1 0 1;
#N canvas 173 207 968 573 MATRIX_FOR_AUDIO_ROUTING? 0;
#X obj 422 486 matrix~ 6 6 1;
#X text 234 312 [inlet# outlet# gain(;
#X text 391 91 if gain is non-zero \, connect inlet# to outlet#. If
gain is zero \, disconnect inlet# from outlet#;
#X msg 509 267 dump;
#X obj 497 511 print;
#X text 391 61 Inlets and outlets are numbered from left to right \,
starting at zero (i.e. hot inlets are 0).;
#X msg 421 315 clear;
#X text 576 213 [ramp ramptime(;
#X text 576 229 sets the default time in milliseconds used to change
"gain" when in mix mode;
#X obj 496 215 loadbang;
#X text 468 316 remove all connections.;
#X msg 132 360 0 0 \$1;
#X msg 183 360 1 0 \$1;
#X msg 234 363 2 0 \$1;
#X msg 277 360 3 0 \$1;
#X msg 327 365 4 0 \$1;
#X msg 376 363 5 0 \$1;
#X text 240 326 send individual patches pre to delay:;
#X msg 496 238 ramp 50;
#X text 553 267 get all values;
#X floatatom 192 414 5 0 0 0 - - -;
#X floatatom 234 387 5 0 0 0 - - -;
#X floatatom 272 386 5 0 0 0 - - -;
#X floatatom 45 78 1 0 0 0 - - -;
#X obj 117 157 bng 15 250 50 0 empty empty empty 17 7 0 10 -262144
-1 -1;
#X obj 58 138 bng 15 250 50 0 empty empty empty 17 7 0 10 -262144 -1
-1;
#X obj 395 128 r panel1sound8val;
#X obj 395 154 unpack f f f f f f f f;
#X obj 60 73 change;
#X obj 58 105 sel 0;
#X obj 63 47 oneARDinCOMPARE 10;
#X obj 119 75 oneARDinCOMPARE 10;
#X obj 171 105 oneARDinCOMPARE 10;
#X obj 271 156 oneARDinCOMPARE 10;
#X obj 221 132 oneARDinCOMPARE 10;
#X obj 119 102 change;
#X obj 118 130 sel 0;
#X obj 171 185 bng 15 250 50 0 empty empty empty 17 7 0 10 -262144
-1 -1;
#X obj 171 131 change;
#X obj 170 159 sel 0;
#X obj 222 202 bng 15 250 50 0 empty empty empty 17 7 0 10 -262144
-1 -1;
#X obj 220 155 change;
#X obj 223 177 sel 0;
#X obj 272 229 bng 15 250 50 0 empty empty empty 17 7 0 10 -262144
-1 -1;
#X obj 272 178 change;
#X obj 273 198 sel 0;
#X text 569 430 audio in!;
#X obj 574 452 adc~ 1;
#X obj 423 361 r patch1pre;
#X obj 440 383 r patch2pre;
#X obj 458 405 r patch3pre;
#X obj 475 429 r patch4pre;
#X obj 493 452 r patch5pre;
#X connect 0 6 4 0;
#X connect 3 0 0 0;
#X connect 6 0 0 0;
#X connect 9 0 18 0;
#X connect 11 0 0 0;
#X connect 12 0 0 0;
#X connect 13 0 0 0;
#X connect 13 0 21 0;
#X connect 14 0 0 0;
#X connect 14 0 22 0;
#X connect 15 0 0 0;
#X connect 16 0 0 0;
#X connect 18 0 0 0;
#X connect 26 0 27 0;
#X connect 27 2 30 0;
#X connect 27 3 31 0;
#X connect 27 4 32 0;
#X connect 27 5 34 0;
#X connect 27 6 33 0;
#X connect 28 0 29 0;
#X connect 29 0 25 0;
#X connect 29 0 6 0;
#X connect 30 0 23 0;
#X connect 30 0 28 0;
#X connect 31 0 35 0;
#X connect 32 0 38 0;
#X connect 33 0 44 0;
#X connect 34 0 41 0;
#X connect 35 0 36 0;
#X connect 36 0 24 0;
#X connect 36 0 6 0;
#X connect 38 0 39 0;
#X connect 39 0 37 0;
#X connect 39 0 6 0;
#X connect 41 0 42 0;
#X connect 42 0 40 0;
#X connect 42 0 6 0;
#X connect 44 0 45 0;
#X connect 45 0 43 0;
#X connect 45 0 6 0;
#X connect 47 0 0 5;
#X connect 48 0 0 0;
#X connect 49 0 0 1;
#X connect 50 0 0 2;
#X connect 51 0 0 3;
#X connect 52 0 0 4;
#X restore 646 368 pd MATRIX_FOR_AUDIO_ROUTING?;
#X text 387 290 FLTR;
#X connect 1 0 28 0;
#X connect 1 0 27 0;
#X connect 1 0 26 0;
#X connect 1 0 25 0;
#X connect 1 0 30 0;
#X connect 2 0 29 0;
#X connect 2 0 21 0;
#X connect 2 0 22 0;
#X connect 2 0 23 0;
#X connect 2 0 24 0;
