#N canvas 0 54 1232 276 10;
#X obj 139 65 cnv 15 180 90 empty empty Serial_R_W_mega 0 -10 0 20
-158827 -4160 0;
#X msg 142 97 99;
#X msg 169 98 close;
#X msg 215 98 open 1;
#X obj 241 74 tgl 15 0 empty ARD_MEGA_ON A_MEGA_ON 17 7 0 10 -4034
-258113 -258113 0 1;
#X obj 159 69 tgl 20 0 CTRL_UPDATE empty CTRL 20 12 0 20 -4032 -1 -1
0 1;
#N canvas 351 150 874 121 dig_ins_display 0;
#X obj 137 64 tgl 10 0 empty empty empty 17 7 0 10 -262144 -1 -1 0
1;
#X obj 174 64 tgl 10 0 empty empty empty 17 7 0 10 -262144 -1 -1 0
1;
#X obj 193 64 tgl 10 0 empty empty empty 17 7 0 10 -262144 -1 -1 0
1;
#X obj 212 64 tgl 10 0 empty empty empty 17 7 0 10 -262144 -1 -1 0
1;
#X obj 156 64 tgl 10 0 empty empty empty 17 7 0 10 -262144 -1 -1 0
1;
#X obj 230 64 tgl 10 0 empty empty empty 17 7 0 10 -262144 -1 -1 0
1;
#X obj 26 21 r dig_val1;
#X text 103 22 LFOsrcRM;
#X text 733 23 ch1_mute;
#X obj 268 64 tgl 10 0 empty empty empty 17 7 0 10 -262144 -1 -1 0
1;
#X obj 249 64 tgl 10 0 empty empty empty 17 7 0 10 -262144 -1 -1 0
1;
#X obj 119 64 tgl 10 0 empty empty empty 17 7 0 10 -262144 -1 -1 0
1;
#X obj 100 64 tgl 10 0 empty empty empty 17 7 0 10 -262144 -1 -1 0
1;
#X obj 81 64 tgl 10 0 empty empty empty 17 7 0 10 -262144 -1 -1 0 1
;
#X obj 63 64 tgl 10 0 empty empty empty 17 7 0 10 -262144 -1 -1 0 1
;
#X obj 44 64 tgl 10 0 empty empty empty 17 7 0 10 -262144 -1 -1 0 1
;
#X obj 26 65 tgl 10 0 empty empty empty 17 7 0 10 -262144 -1 -1 0 1
;
#X obj 431 63 tgl 10 0 empty empty empty 17 7 0 10 -262144 -1 -1 0
1;
#X obj 460 63 tgl 10 0 empty empty empty 17 7 0 10 -262144 -1 -1 0
1;
#X obj 480 63 tgl 10 0 empty empty empty 17 7 0 10 -262144 -1 -1 0
1;
#X obj 499 63 tgl 10 0 empty empty empty 17 7 0 10 -262144 -1 -1 0
1;
#X obj 451 63 tgl 10 0 empty empty empty 17 7 0 10 -262144 -1 -1 0
1;
#X obj 519 63 tgl 10 0 empty empty empty 17 7 0 10 -262144 -1 -1 0
1;
#X obj 412 63 tgl 10 0 empty empty empty 17 7 0 10 -262144 -1 -1 0
1;
#X obj 392 63 tgl 10 0 empty empty empty 17 7 0 10 -262144 -1 -1 0
1;
#X obj 373 63 tgl 10 0 empty empty empty 17 7 0 10 -262144 -1 -1 0
1;
#X obj 353 63 tgl 10 0 empty empty empty 17 7 0 10 -262144 -1 -1 0
1;
#X obj 334 63 tgl 10 0 empty empty empty 17 7 0 10 -262144 -1 -1 0
1;
#X obj 315 64 tgl 10 0 empty empty empty 17 7 0 10 -262144 -1 -1 0
1;
#X obj 315 20 r dig_val2;
#X obj 692 63 tgl 10 0 empty empty empty 17 7 0 10 -262144 -1 -1 0
1;
#X obj 731 63 tgl 10 0 empty empty empty 17 7 0 10 -262144 -1 -1 0
1;
#X obj 751 63 tgl 10 0 empty empty empty 17 7 0 10 -262144 -1 -1 0
1;
#X obj 770 63 tgl 10 0 empty empty empty 17 7 0 10 -262144 -1 -1 0
1;
#X obj 712 63 tgl 10 0 empty empty empty 17 7 0 10 -262144 -1 -1 0
1;
#X obj 790 63 tgl 10 0 empty empty empty 17 7 0 10 -262144 -1 -1 0
1;
#X obj 673 63 tgl 10 0 empty empty empty 17 7 0 10 -262144 -1 -1 0
1;
#X obj 653 63 tgl 10 0 empty empty empty 17 7 0 10 -262144 -1 -1 0
1;
#X obj 634 63 tgl 10 0 empty empty empty 17 7 0 10 -262144 -1 -1 0
1;
#X obj 614 63 tgl 10 0 empty empty empty 17 7 0 10 -262144 -1 -1 0
1;
#X obj 595 63 tgl 10 0 empty empty empty 17 7 0 10 -262144 -1 -1 0
1;
#X obj 576 64 tgl 10 0 empty empty empty 17 7 0 10 -262144 -1 -1 0
1;
#X obj 576 20 r dig_val3;
#X obj 119 79 s szat_down_4;
#X obj 26 37 unpack 0 0 0 0 0 0 0 0 0 0 0 0 0 0 0;
#X obj 278 64 tgl 10 0 empty empty empty 17 7 0 10 -262144 -1 -1 0
1;
#X obj 315 37 unpack 0 0 0 0 0 0 0 0 0 0 0 0 0 0 0;
#X obj 528 64 tgl 10 0 empty empty empty 17 7 0 10 -262144 -1 -1 0
1;
#X obj 546 64 tgl 10 0 empty empty empty 17 7 0 10 -262144 -1 -1 0
1;
#X obj 564 64 tgl 10 0 empty empty empty 17 7 0 10 -262144 -1 -1 0
1;
#X obj 576 37 unpack 0 0 0 0 0 0 0 0 0 0 0 0 0 0 0;
#X obj 801 63 tgl 10 0 empty empty empty 17 7 0 10 -262144 -1 -1 0
1;
#X obj 810 63 tgl 10 0 empty empty empty 17 7 0 10 -262144 -1 -1 0
1;
#X obj 820 63 tgl 10 0 empty empty empty 17 7 0 10 -262144 -1 -1 0
1;
#X connect 6 0 44 0;
#X connect 11 0 43 0;
#X connect 29 0 46 0;
#X connect 42 0 50 0;
#X connect 44 0 16 0;
#X connect 44 1 15 0;
#X connect 44 2 14 0;
#X connect 44 3 13 0;
#X connect 44 4 12 0;
#X connect 44 5 11 0;
#X connect 44 6 0 0;
#X connect 44 7 4 0;
#X connect 44 8 1 0;
#X connect 44 9 2 0;
#X connect 44 10 3 0;
#X connect 44 11 5 0;
#X connect 44 12 10 0;
#X connect 44 13 9 0;
#X connect 44 14 45 0;
#X connect 46 0 28 0;
#X connect 46 1 27 0;
#X connect 46 2 26 0;
#X connect 46 3 25 0;
#X connect 46 4 24 0;
#X connect 46 5 23 0;
#X connect 46 6 17 0;
#X connect 46 7 21 0;
#X connect 46 8 18 0;
#X connect 46 9 19 0;
#X connect 46 10 20 0;
#X connect 46 11 22 0;
#X connect 46 12 47 0;
#X connect 46 13 48 0;
#X connect 46 14 49 0;
#X connect 50 0 41 0;
#X connect 50 1 40 0;
#X connect 50 2 39 0;
#X connect 50 3 38 0;
#X connect 50 4 37 0;
#X connect 50 5 36 0;
#X connect 50 6 30 0;
#X connect 50 7 34 0;
#X connect 50 8 31 0;
#X connect 50 9 32 0;
#X connect 50 10 33 0;
#X connect 50 11 35 0;
#X connect 50 12 51 0;
#X connect 50 13 52 0;
#X connect 50 14 53 0;
#X restore 142 136 pd dig_ins_display;
#N canvas 811 170 957 602 SER_R_W_MEGA 1;
#X obj 203 180 sel 255;
#X obj 226 251 < 128;
#X obj 226 275 + 1;
#X obj 226 322 - 128;
#X msg 580 139 devices;
#X msg 251 94 99;
#X text 261 179 unpacking stuff;
#X obj 249 204 t f f;
#X msg 530 139 close;
#X obj 226 299 cyclone/gate 2;
#X obj 203 414 route 1 2 3 4 5, f 93;
#X obj 30 102 r to_comport;
#N canvas 143 194 572 327 MESStoCOMPORT 0;
#X obj 72 50 loadbang;
#X msg 72 111 bits 8;
#X msg 72 144 parity 0;
#X msg 72 174 stopbit 0;
#X obj 72 72 bng 15 250 50 0 empty empty empty 17 7 0 10 -262144 -1
-1;
#X obj 72 226 outlet;
#X msg 203 54 devices;
#X msg 225 111 print HELLO;
#X obj 225 90 bng 15 250 50 0 empty empty empty 17 7 0 10 -262144 -1
-1;
#X msg 212 140 10;
#X msg 267 55 info;
#X msg 183 185 devicename /dev/ttyUSB0 \, baud 115200 \, 99;
#X connect 0 0 4 0;
#X connect 1 0 5 0;
#X connect 2 0 5 0;
#X connect 3 0 5 0;
#X connect 4 0 1 0;
#X connect 4 0 2 0;
#X connect 4 0 3 0;
#X connect 6 0 5 0;
#X connect 8 0 7 0;
#X connect 8 0 9 0;
#X connect 9 0 5 0;
#X connect 10 0 5 0;
#X connect 11 0 5 0;
#X restore 650 139 pd MESStoCOMPORT;
#N canvas 451 162 815 371 digitalIns 0;
#X obj 340 42 unpack 0 0;
#X obj 407 64 << 7;
#X text 425 16 digital;
#X obj 22 172 & 1;
#X obj 22 206 == 0;
#X obj 68 206 == 0;
#X obj 68 172 & 2;
#X obj 115 206 == 0;
#X obj 161 206 == 0;
#X obj 115 172 & 4;
#X obj 161 172 & 8;
#X obj 208 205 == 0;
#X obj 254 205 == 0;
#X obj 301 205 == 0;
#X obj 347 205 == 0;
#X obj 208 171 & 16;
#X obj 254 171 & 32;
#X obj 301 171 & 64;
#X obj 347 171 & 128;
#X obj 393 204 == 0;
#X obj 439 204 == 0;
#X obj 486 204 == 0;
#X obj 393 170 & 256;
#X obj 439 170 & 512;
#X obj 486 170 & 1024;
#X text 276 317 digital outs;
#X obj 340 15 inlet;
#X obj 534 206 == 0;
#X obj 583 205 == 0;
#X obj 633 206 == 0;
#X obj 682 206 == 0;
#X obj 534 172 & 2048;
#X obj 583 171 & 4096;
#X obj 633 172 & 8192;
#X obj 682 172 & 16384;
#X obj 22 329 outlet;
#X obj 707 131 print;
#X obj 707 102 spigot;
#X obj 746 81 tgl 15 0 empty empty empty 17 7 0 10 -262144 -1 -1 0
1;
#X obj 22 238 change;
#X obj 68 238 change;
#X obj 115 238 change;
#X obj 161 238 change;
#X obj 208 238 change;
#X obj 254 238 change;
#X obj 301 238 change;
#X obj 347 238 change;
#X obj 393 238 change;
#X obj 439 238 change;
#X obj 486 238 change;
#X obj 534 238 change;
#X obj 583 238 change;
#X obj 633 238 change;
#X obj 682 238 change;
#X obj 22 285 else/pack2 0 0 0 0 0 0 0 0 0 0 0 0 0 0 0, f 94;
#X obj 340 112 +;
#X obj 310 83 +;
#X connect 0 0 56 0;
#X connect 0 0 55 0;
#X connect 0 1 1 0;
#X connect 1 0 56 1;
#X connect 1 0 55 1;
#X connect 3 0 4 0;
#X connect 4 0 39 0;
#X connect 5 0 40 0;
#X connect 6 0 5 0;
#X connect 7 0 41 0;
#X connect 8 0 42 0;
#X connect 9 0 7 0;
#X connect 10 0 8 0;
#X connect 11 0 43 0;
#X connect 12 0 44 0;
#X connect 13 0 45 0;
#X connect 14 0 46 0;
#X connect 15 0 11 0;
#X connect 16 0 12 0;
#X connect 17 0 13 0;
#X connect 18 0 14 0;
#X connect 19 0 47 0;
#X connect 20 0 48 0;
#X connect 21 0 49 0;
#X connect 22 0 19 0;
#X connect 23 0 20 0;
#X connect 24 0 21 0;
#X connect 26 0 0 0;
#X connect 27 0 50 0;
#X connect 28 0 51 0;
#X connect 29 0 52 0;
#X connect 30 0 53 0;
#X connect 31 0 27 0;
#X connect 32 0 28 0;
#X connect 33 0 29 0;
#X connect 34 0 30 0;
#X connect 37 0 36 0;
#X connect 38 0 37 1;
#X connect 39 0 54 0;
#X connect 40 0 54 1;
#X connect 41 0 54 2;
#X connect 42 0 54 3;
#X connect 43 0 54 4;
#X connect 44 0 54 5;
#X connect 45 0 54 6;
#X connect 46 0 54 7;
#X connect 47 0 54 8;
#X connect 48 0 54 9;
#X connect 49 0 54 10;
#X connect 50 0 54 11;
#X connect 51 0 54 12;
#X connect 52 0 54 13;
#X connect 53 0 54 14;
#X connect 54 0 35 0;
#X connect 54 0 37 0;
#X connect 55 0 3 0;
#X connect 55 0 6 0;
#X connect 55 0 9 0;
#X connect 55 0 10 0;
#X connect 55 0 15 0;
#X connect 55 0 16 0;
#X connect 55 0 17 0;
#X connect 55 0 18 0;
#X connect 55 0 22 0;
#X connect 55 0 23 0;
#X connect 55 0 24 0;
#X connect 55 0 31 0;
#X connect 55 0 32 0;
#X connect 55 0 33 0;
#X connect 55 0 34 0;
#X restore 462 480 pd digitalIns;
#N canvas 114 238 783 357 digitalIns 0;
#X obj 339 62 unpack 0 0;
#X obj 406 84 << 7;
#X text 379 128 digital;
#X obj 339 35 inlet;
#X obj 21 161 & 1;
#X obj 21 195 == 0;
#X obj 67 195 == 0;
#X obj 67 161 & 2;
#X obj 114 195 == 0;
#X obj 160 195 == 0;
#X obj 114 161 & 4;
#X obj 160 161 & 8;
#X obj 207 194 == 0;
#X obj 253 194 == 0;
#X obj 300 194 == 0;
#X obj 346 194 == 0;
#X obj 207 160 & 16;
#X obj 253 160 & 32;
#X obj 300 160 & 64;
#X obj 346 160 & 128;
#X obj 392 193 == 0;
#X obj 438 193 == 0;
#X obj 485 193 == 0;
#X obj 392 159 & 256;
#X obj 438 159 & 512;
#X obj 485 159 & 1024;
#X text 275 306 digital outs;
#X obj 533 195 == 0;
#X obj 582 194 == 0;
#X obj 632 195 == 0;
#X obj 681 195 == 0;
#X obj 533 161 & 2048;
#X obj 582 160 & 4096;
#X obj 632 161 & 8192;
#X obj 681 161 & 16384;
#X obj 21 318 outlet;
#X obj 21 227 change;
#X obj 67 227 change;
#X obj 114 227 change;
#X obj 160 227 change;
#X obj 207 227 change;
#X obj 253 227 change;
#X obj 300 227 change;
#X obj 346 227 change;
#X obj 392 227 change;
#X obj 438 227 change;
#X obj 485 227 change;
#X obj 533 227 change;
#X obj 582 227 change;
#X obj 632 227 change;
#X obj 681 227 change;
#X obj 559 55 print;
#X obj 559 26 spigot;
#X obj 598 5 tgl 15 0 empty empty empty 17 7 0 10 -262144 -1 -1 0 1
;
#X obj 21 274 else/pack2 0 0 0 0 0 0 0 0 0 0 0 0 0 0 0, f 94;
#X obj 309 107 +;
#X obj 339 131 +;
#X connect 0 0 55 0;
#X connect 0 0 56 0;
#X connect 0 1 1 0;
#X connect 1 0 55 1;
#X connect 1 0 56 1;
#X connect 3 0 0 0;
#X connect 3 0 52 0;
#X connect 4 0 5 0;
#X connect 5 0 36 0;
#X connect 6 0 37 0;
#X connect 7 0 6 0;
#X connect 8 0 38 0;
#X connect 9 0 39 0;
#X connect 10 0 8 0;
#X connect 11 0 9 0;
#X connect 12 0 40 0;
#X connect 13 0 41 0;
#X connect 14 0 42 0;
#X connect 15 0 43 0;
#X connect 16 0 12 0;
#X connect 17 0 13 0;
#X connect 18 0 14 0;
#X connect 19 0 15 0;
#X connect 20 0 44 0;
#X connect 21 0 45 0;
#X connect 22 0 46 0;
#X connect 23 0 20 0;
#X connect 24 0 21 0;
#X connect 25 0 22 0;
#X connect 27 0 47 0;
#X connect 28 0 48 0;
#X connect 29 0 49 0;
#X connect 30 0 50 0;
#X connect 31 0 27 0;
#X connect 32 0 28 0;
#X connect 33 0 29 0;
#X connect 34 0 30 0;
#X connect 36 0 54 0;
#X connect 37 0 54 1;
#X connect 38 0 54 2;
#X connect 39 0 54 3;
#X connect 40 0 54 4;
#X connect 41 0 54 5;
#X connect 42 0 54 6;
#X connect 43 0 54 7;
#X connect 44 0 54 8;
#X connect 45 0 54 9;
#X connect 46 0 54 10;
#X connect 47 0 54 11;
#X connect 48 0 54 12;
#X connect 49 0 54 13;
#X connect 50 0 54 14;
#X connect 52 0 51 0;
#X connect 53 0 52 1;
#X connect 54 0 35 0;
#X connect 56 0 4 0;
#X connect 56 0 7 0;
#X connect 56 0 10 0;
#X connect 56 0 11 0;
#X connect 56 0 16 0;
#X connect 56 0 17 0;
#X connect 56 0 18 0;
#X connect 56 0 19 0;
#X connect 56 0 23 0;
#X connect 56 0 24 0;
#X connect 56 0 25 0;
#X connect 56 0 31 0;
#X connect 56 0 32 0;
#X connect 56 0 33 0;
#X connect 56 0 34 0;
#X restore 591 481 pd digitalIns;
#N canvas 653 290 774 389 digitalIns 0;
#X obj 336 15 inlet;
#X obj 336 41 unpack 0 0;
#X obj 403 63 << 7;
#X text 376 117 digital;
#X obj 18 170 & 1;
#X obj 18 204 == 0;
#X obj 64 204 == 0;
#X obj 64 170 & 2;
#X obj 111 204 == 0;
#X obj 157 204 == 0;
#X obj 111 170 & 4;
#X obj 157 170 & 8;
#X obj 204 203 == 0;
#X obj 250 203 == 0;
#X obj 297 203 == 0;
#X obj 343 203 == 0;
#X obj 204 169 & 16;
#X obj 250 169 & 32;
#X obj 297 169 & 64;
#X obj 343 169 & 128;
#X obj 389 202 == 0;
#X obj 435 202 == 0;
#X obj 482 202 == 0;
#X obj 389 168 & 256;
#X obj 435 168 & 512;
#X obj 482 168 & 1024;
#X text 272 315 digital outs;
#X obj 530 204 == 0;
#X obj 579 203 == 0;
#X obj 629 204 == 0;
#X obj 678 204 == 0;
#X obj 530 170 & 2048;
#X obj 579 169 & 4096;
#X obj 629 170 & 8192;
#X obj 678 170 & 16384;
#X obj 18 327 outlet;
#X obj 18 236 change;
#X obj 64 236 change;
#X obj 111 236 change;
#X obj 157 236 change;
#X obj 204 236 change;
#X obj 250 236 change;
#X obj 297 236 change;
#X obj 343 236 change;
#X obj 389 236 change;
#X obj 435 236 change;
#X obj 482 236 change;
#X obj 530 236 change;
#X obj 579 236 change;
#X obj 629 236 change;
#X obj 678 236 change;
#X obj 18 283 else/pack2 0 0 0 0 0 0 0 0 0 0 0 0 0 0 0, f 94;
#X obj 302 88 +;
#X obj 336 120 +;
#X connect 0 0 1 0;
#X connect 1 0 52 0;
#X connect 1 0 53 0;
#X connect 1 1 2 0;
#X connect 2 0 52 1;
#X connect 2 0 53 1;
#X connect 4 0 5 0;
#X connect 5 0 36 0;
#X connect 6 0 37 0;
#X connect 7 0 6 0;
#X connect 8 0 38 0;
#X connect 9 0 39 0;
#X connect 10 0 8 0;
#X connect 11 0 9 0;
#X connect 12 0 40 0;
#X connect 13 0 41 0;
#X connect 14 0 42 0;
#X connect 15 0 43 0;
#X connect 16 0 12 0;
#X connect 17 0 13 0;
#X connect 18 0 14 0;
#X connect 19 0 15 0;
#X connect 20 0 44 0;
#X connect 21 0 45 0;
#X connect 22 0 46 0;
#X connect 23 0 20 0;
#X connect 24 0 21 0;
#X connect 25 0 22 0;
#X connect 27 0 47 0;
#X connect 28 0 48 0;
#X connect 29 0 49 0;
#X connect 30 0 50 0;
#X connect 31 0 27 0;
#X connect 32 0 28 0;
#X connect 33 0 29 0;
#X connect 34 0 30 0;
#X connect 36 0 51 0;
#X connect 37 0 51 1;
#X connect 38 0 51 2;
#X connect 39 0 51 3;
#X connect 40 0 51 4;
#X connect 41 0 51 5;
#X connect 42 0 51 6;
#X connect 43 0 51 7;
#X connect 44 0 51 8;
#X connect 45 0 51 9;
#X connect 46 0 51 10;
#X connect 47 0 51 11;
#X connect 48 0 51 12;
#X connect 49 0 51 13;
#X connect 50 0 51 14;
#X connect 51 0 35 0;
#X connect 53 0 4 0;
#X connect 53 0 7 0;
#X connect 53 0 10 0;
#X connect 53 0 11 0;
#X connect 53 0 16 0;
#X connect 53 0 17 0;
#X connect 53 0 18 0;
#X connect 53 0 19 0;
#X connect 53 0 23 0;
#X connect 53 0 24 0;
#X connect 53 0 25 0;
#X connect 53 0 31 0;
#X connect 53 0 32 0;
#X connect 53 0 33 0;
#X connect 53 0 34 0;
#X restore 721 479 pd digitalIns;
#X obj 591 504 s dig_val2;
#X obj 462 503 s dig_val1;
#X obj 721 503 s dig_val3;
#X obj 203 381 cyclone/zl group 240;
#X obj 203 31 inlet;
#X text 156 481 analog;
#X text 317 477 analog;
#X text 474 461 digital;
#X text 601 460 digital;
#X text 734 459 digital;
#X msg 332 98 info;
#X obj 332 76 del 1000;
#X obj 251 52 t b b, f 12;
#X text 371 100 check if serial open;
#X text 405 75 DEFAULT POLLING INTERVAL IS 10MS;
#X obj 62 447 print;
#X obj 62 418 spigot;
#X obj 101 397 tgl 15 0 empty empty empty 17 7 0 10 -262144 -1 -1 0
1;
#X obj 10 300 print;
#X obj 11 164 switch;
#X obj 11 140 tgl 15 0 empty empty empty 17 7 0 10 -262144 -1 -1 0
1;
#X text 36 139 for debugging;
#X obj 10 277 timer;
#X obj 10 232 cyclone/cycle 2;
#X msg 10 208 symbol bang;
#X obj 10 186 t b b;
#X obj 10 253 bng 15 250 50 0 empty empty empty 17 7 0 10 -262144 -1
-1;
#X obj 112 254 bng 15 250 50 0 empty empty empty 17 7 0 10 -262144
-1 -1;
#X text 270 250 above 127 is control index;
#N canvas 0 103 283 249 serial_open? 0;
#X obj 95 46 inlet;
#X floatatom 67 102 3 0 0 0 port - -;
#X obj 95 75 route port open;
#X obj 146 98 == 1;
#X obj 95 148 &&;
#X obj 102 123 t b f;
#X obj 95 100 == 1;
#X obj 155 187 s ARD_MEGA_ON;
#X text 152 206 if port1 open send 1;
#X obj 95 184 outlet;
#X connect 0 0 2 0;
#X connect 2 0 1 0;
#X connect 2 0 6 0;
#X connect 2 1 3 0;
#X connect 3 0 5 0;
#X connect 4 0 7 0;
#X connect 4 0 9 0;
#X connect 5 0 4 0;
#X connect 5 1 4 1;
#X connect 6 0 4 0;
#X restore 474 173 pd serial_open?;
#X obj 474 192 tgl 15 0 empty empty empty 17 7 0 10 -262144 -1 -1 0
1;
#X text 493 192 if port1 open send 1;
#X obj 251 30 r serial_mega_start;
#X text 12 64 LED CTRL from serial out;
#X text 2 77 bootm-panel and pwm leds;
#N canvas 667 158 375 411 48_a_in_norm_10_smth 0;
#X obj 30 22 inlet;
#X obj 153 107 << 7;
#X obj 30 137 +;
#X obj 30 54 cyclone/zl iter 2;
#X obj 30 81 cyclone/zl slice 1;
#X obj 30 211 cyclone/zl group 49;
#X obj 30 233 cyclone/zl slice 48;
#X obj 211 273 print;
#X obj 212 137 switch;
#X obj 212 113 tgl 15 0 empty empty empty 17 7 0 10 -262144 -1 -1 0
1;
#X text 231 112 for debugging;
#X obj 211 250 timer;
#X obj 211 205 cyclone/cycle 2;
#X msg 211 181 symbol bang;
#X obj 211 159 t b b;
#X obj 211 226 bng 15 250 50 0 empty empty empty 17 7 0 10 -262144
-1 -1;
#X obj 313 227 bng 15 250 50 0 empty empty empty 17 7 0 10 -262144
-1 -1;
#X obj 214 85 print;
#X obj 214 56 spigot;
#X obj 253 35 tgl 15 0 empty empty empty 17 7 0 10 -262144 -1 -1 0
1;
#X obj 97 371 array set 48_analog_norm;
#X obj 30 256 maxlib/listfunnel;
#X obj 30 325 unpack 0 0;
#X obj 211 298 expr $f1 * -0.000976562 + 1, f 19;
#X obj 97 347 cyclone/zl group 48;
#X obj 30 276 clone -x 1_ARD_A_POT_SMTH 48 0.9, f 16;
#X obj 30 164 expr $f1 * -0.000976562 + 1, f 19;
#X connect 0 0 3 0;
#X connect 1 0 2 1;
#X connect 2 0 8 1;
#X connect 2 0 26 0;
#X connect 3 0 4 0;
#X connect 4 0 2 0;
#X connect 4 1 1 0;
#X connect 5 0 6 0;
#X connect 6 0 21 0;
#X connect 8 0 14 0;
#X connect 9 0 8 0;
#X connect 11 0 7 0;
#X connect 12 0 15 0;
#X connect 12 1 16 0;
#X connect 13 0 12 0;
#X connect 14 0 13 0;
#X connect 15 0 11 0;
#X connect 16 0 11 1;
#X connect 18 0 17 0;
#X connect 19 0 18 1;
#X connect 21 0 25 0;
#X connect 22 1 24 0;
#X connect 24 0 20 0;
#X connect 25 0 22 0;
#X connect 26 0 5 0;
#X restore 102 501 pd 48_a_in_norm_10_smth;
#N canvas 727 264 345 503 32_a_in_norm_10_smt 0;
#X obj 45 22 inlet;
#X obj 111 107 << 7;
#X obj 45 137 +;
#X obj 45 48 cyclone/zl iter 2;
#X obj 45 81 cyclone/zl slice 1;
#X obj 45 255 cyclone/zl slice 32;
#X obj 45 188 + 1;
#X obj 45 232 cyclone/zl group 33;
#X obj 45 278 maxlib/listfunnel;
#X obj 45 348 unpack 0 0;
#X obj 47 401 array set 32_a_ins_norm_smt;
#X obj 184 164 * -0.000976562;
#X obj 45 164 * -0.00097;
#X obj 112 370 cyclone/zl group 32;
#X obj 45 299 clone -x 1_ARD_A_POT_SMTH 32 0.9, f 16;
#X connect 0 0 3 0;
#X connect 1 0 2 1;
#X connect 2 0 12 0;
#X connect 3 0 4 0;
#X connect 4 0 2 0;
#X connect 4 1 1 0;
#X connect 5 0 8 0;
#X connect 6 0 7 0;
#X connect 7 0 5 0;
#X connect 8 0 14 0;
#X connect 9 1 13 0;
#X connect 12 0 6 0;
#X connect 13 0 10 0;
#X connect 14 0 9 0;
#X restore 278 501 pd 32_a_in_norm_10_smt;
#X obj 251 75 del 12000;
#X text 509 541 FIRST NORMALIZE ALL INPUTS TO 1-0 THEN SCALE TO APPROPRIATE
VALUES IN PATCHES;
#X obj 16 550 array define 32_a_ins_norm_smt 32;
#X obj 257 549 array define 48_analog_norm 48;
#X obj 203 156 comport 3 115200;
#X msg 475 139 open 3;
#X connect 0 0 19 0;
#X connect 0 1 7 0;
#X connect 1 0 2 0;
#X connect 2 0 9 0;
#X connect 3 0 19 0;
#X connect 4 0 57 0;
#X connect 5 0 57 0;
#X connect 7 0 9 1;
#X connect 7 1 1 0;
#X connect 8 0 57 0;
#X connect 9 0 3 0;
#X connect 9 1 19 0;
#X connect 10 0 51 0;
#X connect 10 0 32 0;
#X connect 10 1 52 0;
#X connect 10 2 13 0;
#X connect 10 3 14 0;
#X connect 10 4 15 0;
#X connect 11 0 57 0;
#X connect 13 0 17 0;
#X connect 14 0 16 0;
#X connect 15 0 18 0;
#X connect 19 0 10 0;
#X connect 20 0 57 0;
#X connect 26 0 57 0;
#X connect 27 0 26 0;
#X connect 28 0 53 0;
#X connect 28 1 27 0;
#X connect 32 0 31 0;
#X connect 33 0 32 1;
#X connect 35 0 41 0;
#X connect 36 0 35 0;
#X connect 38 0 34 0;
#X connect 39 0 42 0;
#X connect 39 1 43 0;
#X connect 40 0 39 0;
#X connect 41 0 40 0;
#X connect 42 0 38 0;
#X connect 43 0 38 1;
#X connect 45 0 46 0;
#X connect 48 0 28 0;
#X connect 53 0 5 0;
#X connect 57 0 0 0;
#X connect 57 1 45 0;
#X connect 58 0 57 0;
#X restore 142 118 pd SER_R_W_MEGA;
#X obj 340 65 cnv 15 700 90 empty empty Serial_R_LDRs 0 -10 0 20 -178368
-4160 0;
#X obj 345 68 tgl 15 0 empty empty empty 17 7 0 10 -262144 -1 -1 0
1;
#X obj 356 135 tgl 15 0 light_gate LG_GLOBAL LG 0 8 0 14 -4034 -258113
-4160 0 1;
#X obj 500 48 tgl 15 0 empty LDR_ARD_ON A_LDR_ON 17 7 0 10 -4034 -258113
-258113 0 1;
#N canvas 0 50 450 250 (subpatch) 0;
#X array LDRS_INV_10_SMT 32 float 2;
#X coords 0 1 32 0 150 50 1 0 0;
#X restore 636 82 graph;
#X floatatom 722 137 5 0 1 1 TRESHOLD - GLOBAL_SENS_TRESH;
#X floatatom 271 97 5 0 1 3 SMT_POT - smooth_factor_pots;
#X obj 624 82 vsl 10 48 0 1 0 0 empty GLOBAL_SENS_TRESH empty 0 -9
0 10 -204800 -1 -1 2209 1;
#X floatatom 624 137 5 0 0 1 TRESHOLD - -;
#N canvas 717 280 928 720 Read_32LDRs 1;
#X obj 149 215 sel 255, f 15;
#X obj 156 270 < 128;
#X obj 156 290 + 1;
#X obj 156 333 - 128;
#X msg 149 149 99;
#X obj 251 235 t f f;
#X msg 216 122 open 3;
#X msg 293 120 close;
#X obj 487 410 print;
#X obj 488 274 switch;
#X obj 488 256 tgl 15 0 empty empty empty 17 7 0 10 -262144 -1 -1 0
1;
#X msg 401 140 info;
#X obj 465 96 bng 15 250 50 0 empty empty empty 17 7 0 10 -262144 -1
-1;
#X obj 369 73 t b b;
#X text 198 281 everything above 127;
#X text 193 293 is control index;
#X obj 171 30 inlet;
#X obj 149 31 tgl 15 0 empty empty empty 17 7 0 10 -262144 -1 -1 0
1;
#X text 215 27 open/close port;
#X obj 149 64 sel 1, f 21;
#X floatatom 392 368 5 0 0 0 - - -;
#X obj 156 312 cyclone/gate 2;
#X obj 149 356 cyclone/zl group 100;
#X obj 149 90 t b b, f 10;
#X text 500 52 open at startup;
#X text 438 141 check if open;
#X obj 487 387 timer;
#X obj 487 342 cyclone/cycle 2;
#X msg 487 318 symbol bang;
#X obj 487 296 t b b;
#X obj 487 363 bng 15 250 50 0 empty empty empty 17 7 0 10 -262144
-1 -1;
#X obj 519 363 bng 15 250 50 0 empty empty empty 17 7 0 10 -262144
-1 -1;
#X msg 378 174 devicename /dev/ttyUSB2 \, baud 115200 \, 99;
#X obj 369 52 r serial_ldr_start;
#X obj 401 96 del 1000;
#X text 180 144 start pulling;
#X text 180 156 re-initialize port;
#N canvas 0 74 541 350 serial_open? 0;
#X obj 94 26 inlet;
#X floatatom 63 87 3 0 0 0 port - -;
#X obj 94 52 route port open;
#X obj 94 87 == 3;
#X obj 145 85 == 1;
#X obj 94 135 &&;
#X obj 101 110 t b f;
#X text 238 217 if port3 open send 1;
#X obj 147 218 s LDR_ARD_ON;
#X obj 94 216 outlet;
#X connect 0 0 2 0;
#X connect 2 0 1 0;
#X connect 2 0 3 0;
#X connect 2 1 4 0;
#X connect 3 0 5 0;
#X connect 4 0 6 0;
#X connect 5 0 8 0;
#X connect 5 0 9 0;
#X connect 6 0 5 0;
#X connect 6 1 5 1;
#X restore 416 208 pd serial_open?;
#X text 434 226 if port3 open send 1;
#X obj 416 229 tgl 15 0 empty empty empty 17 7 0 10 -262144 -1 -1 0
1;
#X obj 149 122 del 2500;
#X text 507 255 test speed;
#X obj 392 349 list length;
#N canvas 277 307 364 512 32_analog_ins 0;
#X obj 39 79 inlet;
#X obj 78 171 << 7;
#X obj 39 196 +, f 6;
#X obj 39 107 cyclone/zl iter 2;
#X obj 39 128 cyclone/zl slice 1, f 10;
#X obj 106 434 outlet;
#N canvas 292 82 329 529 scale_ldrs_0-100 0;
#X obj 115 155 r scaledLIST100;
#N canvas 0 50 450 300 (subpatch) 0;
#X array ldrs_no_filt_scaled 16 float 2;
#X coords 0 100 16 0 200 200 1 0 0;
#X restore 33 301 graph;
#X obj 34 222 unpack 0 0;
#X obj 34 244 swap;
#X obj 34 154 tgl 15 0 empty empty empty 17 7 0 10 -262144 -1 -1 0
1;
#X obj 34 177 cyclone/gate;
#X obj 34 200 maxlib/listfunnel;
#X obj 34 265 tabwrite ldrs_no_filt_scaled;
#X obj 33 133 s scaledLIST100;
#X obj 33 87 expr (((($s2[$f1])/1024)*-1)+1)*100;
#X obj 34 25 t b b;
#X obj 34 65 - 1;
#X msg 153 42 symbol ldrs_no_filt;
#X obj 34 45 cyclone/Uzi 16;
#X obj 33 112 cyclone/zl group 16;
#X connect 0 0 5 1;
#X connect 2 0 3 0;
#X connect 2 1 3 1;
#X connect 3 0 7 0;
#X connect 3 1 7 1;
#X connect 4 0 5 0;
#X connect 5 0 6 0;
#X connect 6 0 2 0;
#X connect 9 0 14 0;
#X connect 10 0 13 0;
#X connect 10 1 12 0;
#X connect 11 0 9 0;
#X connect 12 0 9 1;
#X connect 13 2 11 0;
#X connect 14 0 8 0;
#X restore 196 176 pd scale_ldrs_0-100;
#N canvas 0 172 532 330 other_tests 0;
#X obj 53 70 mapping/autoscale;
#X text 186 70 dobry pomysł ale nie działa;
#X obj 47 113 list-abs/list-map;
#X obj 185 113 mapping/smooth 0.25;
#X text 199 144 tez nie działa;
#X floatatom 247 165 5 0 1 0 - - -;
#X obj 56 197 list-abs/list-apply * -0.000976562;
#X text 54 -3 If you use [autoscale] with no arguments \, then the
output range defaults to 0-1.;
#X text 54 22 [autoscale] scales a stream of numbers based on an output
range set as arguments \, and an input range which is set dynamically.
;
#X connect 2 1 3 0;
#X connect 3 0 2 1;
#X connect 5 0 6 2;
#X restore 195 118 pd other_tests;
#X obj 39 283 cyclone/zl slice 32;
#X obj 39 260 cyclone/zl group 33;
#X obj 39 306 maxlib/listfunnel;
#X obj 39 385 unpack 0 0;
#X obj 39 223 expr $f1 * -0.000976562 + 1, f 19;
#X obj 39 336 clone -x 1_LDR_smooth 32 0.25, f 16;
#X obj 106 407 cyclone/zl group 32;
#X connect 0 0 3 0;
#X connect 1 0 2 1;
#X connect 2 0 12 0;
#X connect 3 0 4 0;
#X connect 4 0 2 0;
#X connect 4 1 1 0;
#X connect 8 0 10 0;
#X connect 9 0 8 0;
#X connect 10 0 13 0;
#X connect 11 1 14 0;
#X connect 12 0 9 0;
#X connect 13 0 11 0;
#X connect 14 0 5 0;
#X restore 149 392 pd 32_analog_ins;
#N canvas 903 188 453 581 LDR_treshold 0;
#X obj 32 57 maxlib/listfunnel;
#X obj 297 375 value LDRS_AMOUNT;
#X obj 297 349 bng 15 250 50 0 empty empty empty 17 7 0 10 -262144
-1 -1;
#X floatatom 297 407 5 0 0 0 - - -;
#X obj 32 416 / 32, f 5;
#X obj 330 346 loadbang;
#X text 212 37 USEFUL FOR MANY PATCHES;
#X obj 32 502 line;
#X msg 32 480 \$1 \$2;
#X obj 32 458 pack f 20;
#X obj 92 436 r sens_01_slew;
#X obj 64 155 change;
#X obj 32 361 t f f, f 29;
#X text 32 11 GET BRIGHT SENS and VALUE 0-1 FROM BRIGHTEST SENSRO;
#X obj 32 532 outlet 0-1;
#X obj 232 492 outlet BRIGHTEST;
#X obj 32 28 inlet ldr_list;
#X obj 129 158 unpack f f;
#X obj 129 335 s TRSHLD_SENS_NUM;
#X obj 129 248 pack f f;
#X obj 320 265 spigot;
#X obj 358 245 tgl 15 0 empty empty empty 17 7 0 10 -262144 -1 -1 0
1;
#X obj 320 287 print on;
#X obj 218 110 t l l;
#X obj 64 276 l, f 27;
#X obj 64 197 t b f;
#X obj 32 114 t f f;
#X obj 32 82 clone 1_sens_treshold 32;
#X obj 284 172 s TRSHLD_SENS_NUM;
#X text 132 316 to filt res ping;
#X connect 0 0 27 0;
#X connect 1 0 3 0;
#X connect 1 0 4 1;
#X connect 2 0 1 0;
#X connect 4 0 9 0;
#X connect 5 0 1 0;
#X connect 7 0 14 0;
#X connect 8 0 7 0;
#X connect 9 0 8 0;
#X connect 10 0 9 1;
#X connect 11 0 25 0;
#X connect 12 0 4 0;
#X connect 12 1 15 0;
#X connect 16 0 0 0;
#X connect 17 0 19 0;
#X connect 19 0 18 0;
#X connect 20 0 22 0;
#X connect 21 0 20 1;
#X connect 23 0 17 0;
#X connect 23 1 24 1;
#X connect 25 0 24 0;
#X connect 25 1 19 1;
#X connect 26 0 12 0;
#X connect 26 1 11 0;
#X connect 27 0 26 0;
#X connect 27 1 23 0;
#X restore 149 518 pd LDR_treshold;
#X obj 251 634 outlet sens_last_treshjold, f 27;
#X obj 720 464 s LDRS_INV_10_SMT_list, f 23;
#X obj 529 463 smlib/vmax, f 25;
#X obj 701 560 change;
#X obj 529 562 > 0.6;
#X obj 149 434 t l l l l, f 82;
#X obj 561 530 r GLOBAL_SENS_TRESH;
#X obj 47 605 spigot;
#X obj 86 586 tgl 15 0 empty empty empty 17 7 0 10 -262144 -1 -1 0
1;
#X obj 47 627 print;
#N canvas 0 51 867 403 4_LGs 0;
#X obj 180 22 inlet;
#X obj 247 217 / 8;
#X obj 389 216 / 8;
#X obj 541 221 / 8;
#X obj 693 223 / 8;
#X obj 247 196 change;
#X obj 389 193 change;
#X obj 541 199 change;
#X obj 693 199 change;
#X obj 180 295 change;
#X obj 180 66 list split 8, f 41;
#X obj 322 296 change;
#X obj 474 296 change;
#X obj 605 295 change;
#X obj 322 101 list split 8, f 44;
#X obj 474 133 list split 8, f 38;
#X obj 180 173 smlib/vmax;
#X obj 322 172 smlib/vmax;
#X obj 474 173 smlib/vmax;
#X obj 605 172 smlib/vmax, f 13;
#X obj 180 243 >;
#X obj 322 243 >;
#X obj 474 243 >;
#X obj 605 243 >;
#X obj 25 226 r GLOBAL_SENS_TRESH;
#X text 475 66 first row;
#X text 636 103 second row;
#X obj 180 338 s LG_L_1;
#X obj 247 338 s 01_L_1;
#X obj 322 338 s LG_L_2;
#X obj 389 338 s 01_L_2;
#X obj 474 339 s LG_L_3;
#X obj 541 341 s 01_L_3;
#X obj 605 341 s LG_L_4;
#X obj 693 343 s 01_L_4, f 9;
#X floatatom 280 218 5 0 0 0 - - -;
#X connect 0 0 10 0;
#X connect 1 0 28 0;
#X connect 2 0 30 0;
#X connect 3 0 32 0;
#X connect 4 0 34 0;
#X connect 5 0 1 0;
#X connect 5 0 35 0;
#X connect 6 0 2 0;
#X connect 7 0 3 0;
#X connect 8 0 4 0;
#X connect 9 0 27 0;
#X connect 10 0 16 0;
#X connect 10 1 14 0;
#X connect 11 0 29 0;
#X connect 12 0 31 0;
#X connect 13 0 33 0;
#X connect 14 0 17 0;
#X connect 14 1 15 0;
#X connect 15 0 18 0;
#X connect 15 1 19 0;
#X connect 16 0 20 0;
#X connect 16 1 5 0;
#X connect 17 0 21 0;
#X connect 17 1 6 0;
#X connect 18 0 22 0;
#X connect 18 1 7 0;
#X connect 19 0 23 0;
#X connect 19 1 8 0;
#X connect 20 0 9 0;
#X connect 21 0 11 0;
#X connect 22 0 12 0;
#X connect 23 0 13 0;
#X connect 24 0 23 1;
#X connect 24 0 22 1;
#X connect 24 0 21 1;
#X connect 24 0 20 1;
#X restore 339 523 pd 4_LGs;
#X text 340 553 each row has a LG;
#X text 343 579 and 1-8/8 val;
#N canvas 14 78 1262 354 scale_sensors 0;
#X obj 748 61 list-abs/list-compare;
#X obj 748 34 mapping/smooth_double;
#X obj 63 99 edge;
#X obj 63 140 bng 20 250 50 0 empty empty empty 0 -6 0 8 -262144 -1
-1;
#X obj 90 121 bng 20 250 50 0 empty empty empty 0 -6 0 8 -262144 -1
-1;
#X text 119 121 falling edge detected;
#X text 91 141 rising edge detected;
#X text 95 76 edge :: detect rising or falling edge in floats;
#X floatatom 89 66 5 0 0 0 - - -;
#X obj 63 64 tgl 20 0 empty empty empty 0 -6 0 8 -262144 -1 -1 0 1
;
#X text 158 95 written by <olaf.matthes@gmx.de>;
#X text 762 227 Arguments:;
#X text 851 228 1 trigger threshold;
#X floatatom 561 153 5 0 0 0 - - -;
#X obj 583 281 print trigger;
#X obj 724 281 print rest;
#X text 851 259 3 rest threshold;
#X msg 633 186 1;
#X msg 669 186 0;
#X text 702 167 "set" to change the parameters;
#X text 706 181 zero or nonszero in inlet to set the state to "high"
or "low". There is no debounce period after this.;
#X text 748 84 threshold monitors its input float stream and outputs
bangs when the signal exceeds a specified "trigger" value \, and also
when the input value recedes below a "rest" value. You can specify
debounce in number of floats received \, for the threshold~ to wait
after the two event types before triggering again.;
#X text 851 244 2 trigger debounce number;
#X text 850 276 4 rest debounce number;
#X obj 564 99 hsl 128 15 0 127 0 0 empty empty empty -2 -6 0 8 -262144
-1 -1 0 1;
#X msg 620 126 set 50 0 10 0;
#X msg 621 149 set 50 15 10 15;
#X obj 705 281 bng 15 250 50 0 empty empty empty 0 -6 0 8 -262144 -1
-1;
#X obj 561 281 bng 15 250 50 0 empty empty empty 0 -6 0 8 -262144 -1
-1;
#X obj 1021 268 smlib/threshold;
#X msg 74 193 bla foo dog;
#X msg 94 218 bla foo 23;
#X msg 55 170 bla foo dog 17;
#X obj 78 292 print list;
#X text 231 205 written by Olaf Matthes <olaf.matthes@gmx.de>;
#X text 153 238 The creation argument specifies whether nchange works
for floats \, symbols or lists.;
#X obj 159 292 cyclone/past;
#X text 261 293 like treshold;
#X obj 561 250 smlib/threshold 70 10 30 10;
#X obj 78 264 maxlib/nchange l, f 41;
#X connect 2 0 3 0;
#X connect 2 1 4 0;
#X connect 8 0 2 0;
#X connect 9 0 2 0;
#X connect 13 0 38 0;
#X connect 24 0 13 0;
#X connect 25 0 38 0;
#X connect 26 0 38 0;
#X connect 30 0 39 0;
#X connect 31 0 39 0;
#X connect 32 0 39 0;
#X connect 38 0 14 0;
#X connect 38 0 28 0;
#X connect 38 1 15 0;
#X connect 38 1 27 0;
#X connect 39 0 33 0;
#X restore 619 307 pd scale_sensors;
#X floatatom 172 565 5 0 0 0 - - -;
#X obj 529 594 change;
#X obj 529 634 s LG_GLOBAL;
#X text 38 122 SER INIT;
#X text 18 271 UNPACK SER MESS;
#X text 16 392 SCALE NORML SMOOTH;
#X text 149 662 SENS MAX FROM TRESHOLD KEEPS LAST VALUE - more stable
;
#X text 530 663 SENS MAX FROM SMLIB/VMAX JUMPS MORE WHEN NO LED ON
;
#X floatatom 539 485 5 0 0 1 MAX_SENS_VAL - MAX_LDR_V;
#X text 627 588 THIS USED TO BE OUR SENS MIN/MAX;
#X text 628 603 BUT WITH TRESHOLD IS MUCH MORE ACCURATE;
#N canvas 0 51 956 361 4_LGs 0;
#X obj 55 22 inlet;
#X obj 55 66 list split 8, f 57;
#X obj 253 101 list split 8, f 44;
#X obj 425 133 list split 8, f 51;
#X text 470 66 first row;
#X text 567 103 second row;
#X obj 156 319 s LG_L_1;
#X obj 55 319 s 01_L_1;
#X obj 55 177 maxlib/listfunnel;
#X obj 55 292 line;
#X msg 55 270 \$1 \$2;
#X obj 55 248 pack f 20;
#X obj 774 231 r sens_01_slew;
#X obj 55 226 / 8, f 5;
#X floatatom 15 232 5 0 0 0 - - -;
#X obj 711 88 print;
#X obj 711 66 spigot;
#X obj 750 45 tgl 15 0 empty empty empty 17 7 0 10 -262144 -1 -1 0
1;
#X obj 55 202 clone 1_sens_treshold 8;
#X obj 146 225 unpack f f;
#X obj 253 177 maxlib/listfunnel;
#X obj 253 292 line;
#X msg 253 270 \$1 \$2;
#X obj 253 248 pack f 20;
#X obj 253 226 / 8, f 5;
#X obj 253 202 clone 1_sens_treshold 8;
#X obj 344 225 unpack f f;
#X obj 253 319 s 01_L_2;
#X obj 344 319 s LG_L_2;
#X obj 425 177 maxlib/listfunnel;
#X obj 425 292 line;
#X msg 425 270 \$1 \$2;
#X obj 425 248 pack f 20;
#X obj 425 226 / 8, f 5;
#X obj 425 202 clone 1_sens_treshold 8;
#X obj 516 225 unpack f f;
#X obj 602 177 maxlib/listfunnel;
#X obj 602 292 line;
#X msg 602 270 \$1 \$2;
#X obj 602 248 pack f 20;
#X obj 602 226 / 8, f 5;
#X obj 602 202 clone 1_sens_treshold 8;
#X obj 693 225 unpack f f;
#X obj 425 319 s 01_L_3;
#X obj 516 319 s LG_L_3;
#X obj 602 319 s 01_L_4;
#X obj 693 319 s LG_L_4, f 19;
#X connect 0 0 1 0;
#X connect 1 0 8 0;
#X connect 1 1 2 0;
#X connect 2 0 20 0;
#X connect 2 1 3 0;
#X connect 3 0 29 0;
#X connect 3 1 36 0;
#X connect 8 0 18 0;
#X connect 9 0 7 0;
#X connect 10 0 9 0;
#X connect 11 0 10 0;
#X connect 12 0 11 1;
#X connect 12 0 23 1;
#X connect 12 0 32 1;
#X connect 12 0 39 1;
#X connect 13 0 11 0;
#X connect 16 0 15 0;
#X connect 17 0 16 1;
#X connect 18 0 14 0;
#X connect 18 0 13 0;
#X connect 18 2 19 0;
#X connect 19 1 6 0;
#X connect 20 0 25 0;
#X connect 21 0 27 0;
#X connect 22 0 21 0;
#X connect 23 0 22 0;
#X connect 24 0 23 0;
#X connect 25 0 24 0;
#X connect 25 2 26 0;
#X connect 26 1 28 0;
#X connect 29 0 34 0;
#X connect 30 0 43 0;
#X connect 31 0 30 0;
#X connect 32 0 31 0;
#X connect 33 0 32 0;
#X connect 34 0 33 0;
#X connect 34 2 35 0;
#X connect 35 1 44 0;
#X connect 36 0 41 0;
#X connect 37 0 45 0;
#X connect 38 0 37 0;
#X connect 39 0 38 0;
#X connect 40 0 39 0;
#X connect 41 0 40 0;
#X connect 41 2 42 0;
#X connect 42 1 46 0;
#X restore 416 524 pd 4_LGs;
#X obj 149 634 s 01_TRESH;
#X obj 701 632 outlet max sensor old way;
#X obj 149 191 comport 1 115200, f 27;
#X connect 0 0 22 0;
#X connect 0 1 5 0;
#X connect 1 0 2 0;
#X connect 2 0 21 0;
#X connect 3 0 22 0;
#X connect 4 0 73 0;
#X connect 5 0 21 1;
#X connect 5 1 1 0;
#X connect 6 0 73 0;
#X connect 7 0 73 0;
#X connect 9 0 29 0;
#X connect 10 0 9 0;
#X connect 11 0 73 0;
#X connect 12 0 11 0;
#X connect 13 0 40 0;
#X connect 13 1 34 0;
#X connect 16 0 19 0;
#X connect 17 0 19 0;
#X connect 19 0 23 0;
#X connect 19 1 7 0;
#X connect 21 0 3 0;
#X connect 21 1 22 0;
#X connect 22 0 9 1;
#X connect 22 0 43 0;
#X connect 23 0 40 0;
#X connect 23 1 6 0;
#X connect 26 0 8 0;
#X connect 27 0 30 0;
#X connect 27 1 31 0;
#X connect 28 0 27 0;
#X connect 29 0 28 0;
#X connect 30 0 26 0;
#X connect 31 0 26 1;
#X connect 32 0 73 0;
#X connect 33 0 13 0;
#X connect 34 0 11 0;
#X connect 37 0 39 0;
#X connect 40 0 4 0;
#X connect 42 0 20 0;
#X connect 43 0 50 0;
#X connect 44 0 59 0;
#X connect 44 0 71 0;
#X connect 44 1 45 0;
#X connect 47 0 49 0;
#X connect 47 0 67 0;
#X connect 47 1 48 0;
#X connect 48 0 72 0;
#X connect 49 0 60 0;
#X connect 50 0 44 0;
#X connect 50 1 70 0;
#X connect 50 2 47 0;
#X connect 50 3 46 0;
#X connect 51 0 49 1;
#X connect 52 0 54 0;
#X connect 53 0 52 1;
#X connect 60 0 61 0;
#X connect 73 0 0 0;
#X connect 73 1 37 0;
#X restore 345 83 pd Read_32LDRs;
#X floatatom 345 115 2 0 0 1 MIN_SENS - min_sens;
#X floatatom 345 101 2 0 0 1 MAX_SENS - max_sens;
#X obj 551 135 hsl 50 15 0 1 0 0 empty 01_L_1 BTM_R 2 8 0 10 -261234
-258113 -262144 4287 1;
#X obj 534 135 tgl 15 0 empty LG_L_1 empty 17 7 0 10 -262144 -1 -1
0 1;
#X obj 551 120 hsl 50 15 0 1 0 0 empty 01_L_2 3RD_R 2 8 0 10 -261234
-258113 -262144 1837 1;
#X obj 534 120 tgl 15 0 empty LG_L_2 empty 17 7 0 10 -262144 -1 -1
0 1;
#X obj 551 105 hsl 50 15 0 1 0 0 empty 01_L_3 2ND_R 2 8 0 10 -261234
-258113 -262144 0 1;
#X obj 534 105 tgl 15 0 empty LG_L_3 empty 17 7 0 10 -262144 -1 -1
0 1;
#X obj 551 90 hsl 50 15 0 1 0 0 empty 01_L_4 TOP_R 2 8 0 10 -261234
-258113 -262144 1837 1;
#X obj 534 90 tgl 15 0 empty LG_L_4 empty 17 7 0 10 -262144 -1 -1 0
1;
#X floatatom 534 76 3 0 1000 1 01_SLEW 01_SLEW sens_01_slew;
#X obj 375 135 hsl 100 15 0 1 0 0 empty 01_TRESH 01_F_TRSHLD 2 8 0
10 -33289 -258113 -262144 0 1;
#X floatatom 786 82 5 0 1 3 SMTH_LDRS smooth smooth_factor_ldrs;
#X obj 613 82 vsl 10 48 0 1 0 0 empty MAX_LDR_V MAX_LDR_V -50 -9 0
10 -204800 -1 -1 559 1;
#X text 569 47 SENSORS COUNT 1-32 (FROM LIST) \, but arrays are index
from 0;
#X floatatom 440 116 2 0 0 1 MIN_OLD - min_sens_vmax;
#X floatatom 440 102 2 0 0 1 MAX_OLD - max_sens_vmax;
#X obj 625 11 r LDRS_INV_10_SMT_list, f 23;
#X obj 625 34 array set LDRS_INV_10_SMT;
#X connect 1 0 7 0;
#X connect 2 0 7 0;
#X connect 3 0 7 0;
#X connect 9 0 17 0;
#X connect 15 0 16 0;
#X connect 17 0 19 0;
#X connect 17 0 18 0;
#X connect 17 1 34 0;
#X connect 17 1 33 0;
#X connect 35 0 36 0;
