#N canvas 0 172 1361 373 10;
#X obj 24 213 cnv 25 800 40 empty empty empty 30 10 1 14 -260097 -258113
0;
#X obj 641 165 cnv 23 240 115 empty empty empty 30 12 0 14 -260097
-66577 0;
#N canvas 41 172 863 533 smpSTR 0;
#X obj 654 203 switch~;
#X text 680 231 dsp;
#X obj 623 201 tgl 25 0 empty empty empty 17 7 0 10 -258113 -1 -1 0
1;
#X floatatom 694 82 5 0 0 0 - - -, f 5;
#X text 165 34 load new sample;
#X obj 165 56 bng 15 250 50 0 empty empty empty 17 7 0 10 -262144 -1
-1;
#X obj 300 56 bng 15 250 50 0 empty empty empty 17 7 0 10 -262144 -1
-1;
#X text 166 9 Pitchshifts or timestretches sample with the granular
method;
#X obj 165 101 outlet;
#X obj 300 101 outlet;
#X obj 623 231 outlet;
#X obj 185 53 r PATCH3PAR3;
#X obj 322 54 r PATCH3PAR4;
#X obj 624 116 r PATCH3dsp;
#X obj 607 54 r PATCH3PAR2;
#X text 66 51 CTRL INPUTS;
#X text 474 191 OUT for monitoring;
#X text 88 192 AUDIO PATCH GUTS;
#N canvas 88 258 623 290 sample2manage 0;
#X obj 38 99 loadbang;
#X obj 38 121 del 5000;
#X text 33 80 symbol: Sample name;
#X obj 169 103 bng 15 250 50 0 empty empty empty 17 7 0 10 -262144
-1 -1;
#N canvas 378 146 842 550 SAMPLEStoSMPGRANU 0;
#X obj -422 -964 inlet;
#X floatatom -466 -883 5 0 0 0 - - -, f 5;
#X obj -380 -932 + 1;
#X obj -422 -923 i;
#X obj -422 -825 bng 15 250 50 0 empty empty empty 17 7 0 10 -262144
-1 -1;
#X obj -406 -825 bng 15 250 50 0 empty empty empty 17 7 0 10 -262144
-1 -1;
#X obj -390 -825 bng 15 250 50 0 empty empty empty 17 7 0 10 -262144
-1 -1;
#X obj -260 -825 bng 15 250 50 0 empty empty empty 17 7 0 10 -262144
-1 -1;
#X obj -243 -825 bng 15 250 50 0 empty empty empty 17 7 0 10 -262144
-1 -1;
#X obj -374 -825 bng 15 250 50 0 empty empty empty 17 7 0 10 -262144
-1 -1;
#X obj -357 -825 bng 15 250 50 0 empty empty empty 17 7 0 10 -262144
-1 -1;
#X obj -341 -825 bng 15 250 50 0 empty empty empty 17 7 0 10 -262144
-1 -1;
#X obj -325 -825 bng 15 250 50 0 empty empty empty 17 7 0 10 -262144
-1 -1;
#X obj -309 -825 bng 15 250 50 0 empty empty empty 17 7 0 10 -262144
-1 -1;
#X obj -293 -825 bng 15 250 50 0 empty empty empty 17 7 0 10 -262144
-1 -1;
#X obj -276 -825 bng 15 250 50 0 empty empty empty 17 7 0 10 -262144
-1 -1;
#X obj -380 -910 % 22;
#X obj -35 -859 bng 15 250 50 0 empty empty empty 17 7 0 10 -262144
-1 -1;
#X obj -53 -826 bng 15 250 50 0 empty empty empty 17 7 0 10 -262144
-1 -1;
#X obj -47 -482 outlet;
#X msg -436 -577 /home/ccrma/pd/wavfiles/TUBE_09.WAV;
#X msg -449 -599 /home/ccrma/pd/wavfiles/TUBE_08.WAV;
#X msg -474 -643 /home/ccrma/pd/wavfiles/TUBE_06.WAV;
#X msg -461 -621 /home/ccrma/pd/wavfiles/TUBE_07.WAV;
#X msg -489 -665 /home/ccrma/pd/wavfiles/TUBE_05.WAV;
#X msg -503 -687 /home/ccrma/pd/wavfiles/TUBE_04.WAV;
#X msg -515 -709 /home/ccrma/pd/wavfiles/TUBE_03.WAV;
#X msg -528 -731 /home/ccrma/pd/wavfiles/TUBE_02.WAV;
#X msg -542 -753 /home/ccrma/pd/wavfiles/TUBE_01.WAV;
#X msg -220 -731 /home/ccrma/pd/wavfiles/pacmanfx.wav;
#X msg -201 -710 /home/ccrma/pd/wavfiles/KB_dim2_2-90_mf_D#4.wav;
#X msg -183 -688 /home/ccrma/pd/wavfiles/KB_dim2_1-105_mf-pp_E1.wav
;
#X msg -164 -666 /home/ccrma/pd/wavfiles/KB_dim2_1-105_ff-mf_E4.wav
;
#X msg -146 -644 /home/ccrma/pd/wavfiles/KB_cre2_2-90_p_F3.wav;
#X msg -126 -622 /home/ccrma/pd/wavfiles/KB_cre2_1-105_pp-mf_C3.wav
;
#X msg -91 -578 /home/ccrma/pd/wavfiles/DS_BassA-F#1.wav;
#X msg -108 -600 /home/ccrma/pd/wavfiles/DS_Bass03_F#1.wav;
#X msg -57 -534 /home/ccrma/pd/wavfiles/DnT-C_bass_shot-39.wav;
#X msg -423 -556 /home/ccrma/pd/wavfiles/404FX#019.wav;
#X msg -238 -752 /home/ccrma/pd/wavfiles/FatUprightBass(JW3).wav;
#X obj -423 -883 sel 0 1 2 3 4 5 6 7 8 9 10 11 12 13 14 15 16 17 18
19 20;
#X text -344 -477 symbol: Sample name;
#X text -423 -476 Argument 1;
#X text -425 -463 Argument 2 (optional):;
#X text -271 -463 symbol: Sound file to read into the sample's tables
when created;
#X msg -72 -556 /home/ccrma/pd/wavfiles/VIRUS9BASS18C1-L.wav;
#X obj -47 -508 cyclone/prepend read;
#X connect 0 0 3 0;
#X connect 2 0 16 0;
#X connect 3 0 2 0;
#X connect 3 0 1 0;
#X connect 3 0 40 0;
#X connect 16 0 3 1;
#X connect 20 0 46 0;
#X connect 21 0 46 0;
#X connect 22 0 46 0;
#X connect 23 0 46 0;
#X connect 24 0 46 0;
#X connect 25 0 46 0;
#X connect 26 0 46 0;
#X connect 27 0 46 0;
#X connect 28 0 46 0;
#X connect 29 0 46 0;
#X connect 30 0 46 0;
#X connect 31 0 46 0;
#X connect 32 0 46 0;
#X connect 33 0 46 0;
#X connect 34 0 46 0;
#X connect 35 0 46 0;
#X connect 36 0 46 0;
#X connect 37 0 46 0;
#X connect 38 0 46 0;
#X connect 39 0 46 0;
#X connect 40 0 4 0;
#X connect 40 0 28 0;
#X connect 40 1 5 0;
#X connect 40 1 27 0;
#X connect 40 2 6 0;
#X connect 40 2 26 0;
#X connect 40 3 9 0;
#X connect 40 3 25 0;
#X connect 40 4 10 0;
#X connect 40 4 24 0;
#X connect 40 5 11 0;
#X connect 40 5 22 0;
#X connect 40 6 12 0;
#X connect 40 6 23 0;
#X connect 40 7 13 0;
#X connect 40 7 21 0;
#X connect 40 8 14 0;
#X connect 40 8 20 0;
#X connect 40 9 15 0;
#X connect 40 9 38 0;
#X connect 40 10 7 0;
#X connect 40 10 39 0;
#X connect 40 11 8 0;
#X connect 40 11 29 0;
#X connect 40 12 30 0;
#X connect 40 13 31 0;
#X connect 40 14 32 0;
#X connect 40 15 33 0;
#X connect 40 16 34 0;
#X connect 40 17 36 0;
#X connect 40 18 35 0;
#X connect 40 19 45 0;
#X connect 40 20 37 0;
#X connect 40 20 18 0;
#X connect 40 21 17 0;
#X connect 45 0 46 0;
#X connect 46 0 19 0;
#X restore 297 59 pd SAMPLEStoSMPGRANU;
#X msg 162 213 smpgranu2;
#X msg 96 244 /home/ccrma/pd/sample/kiks/HardCoreKick8.wav;
#X msg 263 212 17638;
#X text 54 212 name of sample;
#X text 308 212 duration;
#X text 34 56 outputs info about sample;
#X text 34 67 arg-table sample name;
#X obj 297 83 t b a;
#X text 339 82 1 load sample;
#X text 170 82 2 get sample info;
#X msg 38 143 sample smpgranu2;
#X obj 373 211 s smp2Len;
#X obj 297 20 inlet;
#X obj 352 35 bng 15 250 50 0 empty empty empty 17 7 0 10 -262144 -1
-1;
#X obj 42 244 outlet;
#X obj 192 128 tof/sample smpgranu2 /home/ccrma/pd/wavfiles/TUBE_01.WAV
;
#X obj 170 153 tof/sample_unpack;
#X obj 42 189 cyclone/prepend set;
#X obj 162 189 cyclone/prepend set;
#X obj 264 188 cyclone/prepend set;
#X msg 51 28 read /home/ccrma/pd/sample/kiks/HardCoreKick8.wav;
#X connect 0 0 1 0;
#X connect 1 0 15 0;
#X connect 3 0 21 0;
#X connect 4 0 12 0;
#X connect 12 0 3 0;
#X connect 12 1 20 0;
#X connect 15 0 21 0;
#X connect 17 0 4 0;
#X connect 18 0 4 0;
#X connect 21 1 22 0;
#X connect 21 2 23 0;
#X connect 21 6 16 0;
#X connect 21 6 24 0;
#X connect 22 0 6 0;
#X connect 22 0 19 0;
#X connect 23 0 5 0;
#X connect 24 0 7 0;
#X connect 25 0 12 0;
#X restore 300 79 pd sample2manage;
#N canvas 26 172 846 312 manageSEMPLE1 0;
#X obj 337 200 s smpLen;
#X obj 70 88 loadbang;
#X msg 67 131 sample smpgranu;
#X obj 70 110 del 5000;
#X text 367 126 Inlet 1;
#X text 416 124 read symbol: Read sound file into the sample's tables
;
#X text 430 181 Loads a sound file (wav) as a sample;
#X text 12 167 symbol: Sample name;
#X text 430 207 Argument 1;
#X text 430 219 Argument 2 (optional):;
#X text 430 231 symbol: Sound file to read into the sample's tables
when created;
#X text 430 194 and puts into smpgranu table;
#X msg 451 140 read /home/ccrma/pd/wavfiles/TUBE_10.WAV;
#X obj 193 123 bng 15 250 50 0 empty empty empty 17 7 0 10 -262144
-1 -1;
#N canvas 26 172 842 550 SAMPLEStoSMPGRANU 0;
#X obj -422 -964 inlet;
#X floatatom -466 -883 5 0 0 0 - - -, f 5;
#X obj -380 -932 + 1;
#X obj -422 -923 i;
#X obj -422 -825 bng 15 250 50 0 empty empty empty 17 7 0 10 -262144
-1 -1;
#X obj -406 -825 bng 15 250 50 0 empty empty empty 17 7 0 10 -262144
-1 -1;
#X obj -390 -825 bng 15 250 50 0 empty empty empty 17 7 0 10 -262144
-1 -1;
#X obj -260 -825 bng 15 250 50 0 empty empty empty 17 7 0 10 -262144
-1 -1;
#X obj -243 -825 bng 15 250 50 0 empty empty empty 17 7 0 10 -262144
-1 -1;
#X obj -374 -825 bng 15 250 50 0 empty empty empty 17 7 0 10 -262144
-1 -1;
#X obj -357 -825 bng 15 250 50 0 empty empty empty 17 7 0 10 -262144
-1 -1;
#X obj -341 -825 bng 15 250 50 0 empty empty empty 17 7 0 10 -262144
-1 -1;
#X obj -325 -825 bng 15 250 50 0 empty empty empty 17 7 0 10 -262144
-1 -1;
#X obj -309 -825 bng 15 250 50 0 empty empty empty 17 7 0 10 -262144
-1 -1;
#X obj -293 -825 bng 15 250 50 0 empty empty empty 17 7 0 10 -262144
-1 -1;
#X obj -276 -825 bng 15 250 50 0 empty empty empty 17 7 0 10 -262144
-1 -1;
#X obj -380 -910 % 22;
#X obj -35 -859 bng 15 250 50 0 empty empty empty 17 7 0 10 -262144
-1 -1;
#X obj -53 -826 bng 15 250 50 0 empty empty empty 17 7 0 10 -262144
-1 -1;
#X obj -47 -482 outlet;
#X msg -436 -577 /home/ccrma/pd/wavfiles/TUBE_09.WAV;
#X msg -449 -599 /home/ccrma/pd/wavfiles/TUBE_08.WAV;
#X msg -474 -643 /home/ccrma/pd/wavfiles/TUBE_06.WAV;
#X msg -461 -621 /home/ccrma/pd/wavfiles/TUBE_07.WAV;
#X msg -489 -665 /home/ccrma/pd/wavfiles/TUBE_05.WAV;
#X msg -503 -687 /home/ccrma/pd/wavfiles/TUBE_04.WAV;
#X msg -515 -709 /home/ccrma/pd/wavfiles/TUBE_03.WAV;
#X msg -528 -731 /home/ccrma/pd/wavfiles/TUBE_02.WAV;
#X msg -542 -753 /home/ccrma/pd/wavfiles/TUBE_01.WAV;
#X msg -220 -731 /home/ccrma/pd/wavfiles/pacmanfx.wav;
#X msg -201 -710 /home/ccrma/pd/wavfiles/KB_dim2_2-90_mf_D#4.wav;
#X msg -183 -688 /home/ccrma/pd/wavfiles/KB_dim2_1-105_mf-pp_E1.wav
;
#X msg -164 -666 /home/ccrma/pd/wavfiles/KB_dim2_1-105_ff-mf_E4.wav
;
#X msg -146 -644 /home/ccrma/pd/wavfiles/KB_cre2_2-90_p_F3.wav;
#X msg -126 -622 /home/ccrma/pd/wavfiles/KB_cre2_1-105_pp-mf_C3.wav
;
#X msg -91 -578 /home/ccrma/pd/wavfiles/DS_BassA-F#1.wav;
#X msg -108 -600 /home/ccrma/pd/wavfiles/DS_Bass03_F#1.wav;
#X msg -57 -534 /home/ccrma/pd/wavfiles/DnT-C_bass_shot-39.wav;
#X msg -423 -556 /home/ccrma/pd/wavfiles/404FX#019.wav;
#X msg -238 -752 /home/ccrma/pd/wavfiles/FatUprightBass(JW3).wav;
#X obj -423 -883 sel 0 1 2 3 4 5 6 7 8 9 10 11 12 13 14 15 16 17 18
19 20;
#X text -344 -477 symbol: Sample name;
#X text -423 -476 Argument 1;
#X text -425 -463 Argument 2 (optional):;
#X text -271 -463 symbol: Sound file to read into the sample's tables
when created;
#X msg -72 -556 /home/ccrma/pd/wavfiles/VIRUS9BASS18C1-L.wav;
#X obj -47 -508 cyclone/prepend read;
#X connect 0 0 3 0;
#X connect 2 0 16 0;
#X connect 3 0 2 0;
#X connect 3 0 1 0;
#X connect 3 0 40 0;
#X connect 16 0 3 1;
#X connect 20 0 46 0;
#X connect 21 0 46 0;
#X connect 22 0 46 0;
#X connect 23 0 46 0;
#X connect 24 0 46 0;
#X connect 25 0 46 0;
#X connect 26 0 46 0;
#X connect 27 0 46 0;
#X connect 28 0 46 0;
#X connect 29 0 46 0;
#X connect 30 0 46 0;
#X connect 31 0 46 0;
#X connect 32 0 46 0;
#X connect 33 0 46 0;
#X connect 34 0 46 0;
#X connect 35 0 46 0;
#X connect 36 0 46 0;
#X connect 37 0 46 0;
#X connect 38 0 46 0;
#X connect 39 0 46 0;
#X connect 40 0 4 0;
#X connect 40 0 28 0;
#X connect 40 1 5 0;
#X connect 40 1 27 0;
#X connect 40 2 6 0;
#X connect 40 2 26 0;
#X connect 40 3 9 0;
#X connect 40 3 25 0;
#X connect 40 4 10 0;
#X connect 40 4 24 0;
#X connect 40 5 11 0;
#X connect 40 5 22 0;
#X connect 40 6 12 0;
#X connect 40 6 23 0;
#X connect 40 7 13 0;
#X connect 40 7 21 0;
#X connect 40 8 14 0;
#X connect 40 8 20 0;
#X connect 40 9 15 0;
#X connect 40 9 38 0;
#X connect 40 10 7 0;
#X connect 40 10 39 0;
#X connect 40 11 8 0;
#X connect 40 11 29 0;
#X connect 40 12 30 0;
#X connect 40 13 31 0;
#X connect 40 14 32 0;
#X connect 40 15 33 0;
#X connect 40 16 34 0;
#X connect 40 17 36 0;
#X connect 40 18 35 0;
#X connect 40 19 45 0;
#X connect 40 20 37 0;
#X connect 40 20 18 0;
#X connect 40 21 17 0;
#X connect 45 0 46 0;
#X connect 46 0 19 0;
#X restore 399 79 pd SAMPLEStoSMPGRANU;
#X msg 194 202 smpgranu;
#X msg 86 243 /home/ccrma/pd/sample/basselection/warpbass.wav;
#X obj 287 177 prepend set;
#X msg 287 199 71318;
#X text 86 204 name of sample;
#X text 175 222 name of table in which s is stored;
#X text 338 156 duration;
#X text 12 180 outputs info about sample;
#X text 13 154 arg-table sample name;
#X obj 399 103 t b a;
#X text 441 102 1 load sample;
#X text 192 102 2 get sample info;
#X obj 392 22 bng 15 250 50 0 empty empty empty 17 7 0 10 -262144 -1
-1;
#X obj 418 18 inlet;
#X obj 47 275 outlet;
#X obj 193 150 tof/sample_unpack;
#X obj 431 165 tof/sample smpgranu /home/ccrma/pd/wavfiles/Rim2.wav
;
#X obj 131 277 prepend;
#X obj 87 220 prepend set;
#X obj 194 178 prepend set;
#X msg 94 44 read /home/ccrma/pd/sample/basselection/warpbass.wav;
#X connect 1 0 3 0;
#X connect 2 0 30 0;
#X connect 3 0 2 0;
#X connect 12 0 31 0;
#X connect 13 0 30 0;
#X connect 14 0 24 0;
#X connect 17 0 18 0;
#X connect 24 0 13 0;
#X connect 24 1 31 0;
#X connect 27 0 14 0;
#X connect 28 0 14 0;
#X connect 30 1 33 0;
#X connect 30 2 34 0;
#X connect 30 6 0 0;
#X connect 30 6 17 0;
#X connect 33 0 16 0;
#X connect 33 0 29 0;
#X connect 34 0 15 0;
#X connect 35 0 24 0;
#X restore 165 77 pd manageSEMPLE1;
#X obj 607 81 s durFACTOR;
#X text 600 30 changes the range of duration;
#X floatatom 555 78 5 0 0 0 - - -, f 5;
#X obj 427 53 r PATCH3PAR1;
#X text 427 29 grain length factor;
#X obj 427 78 s grainLENfactor;
#X obj 496 236 outlet;
#N canvas 592 51 665 687 trigSAMPLE1 0;
#X obj 231 209 *;
#X obj 128 291 *;
#X text 448 218 from sample;
#X floatatom 158 289 5 0 0 0 - - -, f 5;
#X obj 126 520 tgl 15 0 empty empty empty 17 7 0 10 -262144 -1 -1 0
1;
#X text 145 518 Inlet 1 \, float: Start/stop playing looped sample
;
#X obj 308 564 bng 15 250 50 0 empty empty empty 17 7 0 10 -262144
-1 -1;
#X text 324 562 Outlet 4 \, bang: done;
#X msg 149 315 grain \$1;
#X obj 163 49 bng 15 250 50 0 empty empty empty 17 7 0 10 -262144 -1
-1;
#X obj 181 49 bng 15 250 50 0 empty empty empty 17 7 0 10 -262144 -1
-1;
#X obj 198 49 bng 15 250 50 0 empty empty empty 17 7 0 10 -262144 -1
-1;
#X obj 216 49 bng 15 250 50 0 empty empty empty 17 7 0 10 -262144 -1
-1;
#X obj 235 49 bng 15 250 50 0 empty empty empty 17 7 0 10 -262144 -1
-1;
#X obj 253 49 bng 15 250 50 0 empty empty empty 17 7 0 10 -262144 -1
-1;
#X obj 271 49 bng 15 250 50 0 empty empty empty 17 7 0 10 -262144 -1
-1;
#X obj 288 49 bng 15 250 50 0 empty empty empty 17 7 0 10 -262144 -1
-1;
#X obj 115 95 bng 15 250 50 0 empty empty empty 17 7 0 10 -262144 -1
-1;
#X text 133 93 Inlet 1 \, bang: Play sample once;
#X text 131 463 Inlet 3 \, float: Duration in milliseconds;
#X floatatom 410 219 5 0 0 0 - - -, f 5;
#X floatatom 211 375 5 0 0 0 - - -, f 5;
#X obj 308 241 random;
#X obj 212 65 t b b b;
#X text -20 316 Inlet 1 \, grain float:;
#X floatatom 504 451 10 0 0 0 - - -, f 10;
#X obj 308 431 *;
#X text 454 308 grain length;
#X obj 410 189 r smpLen;
#X text -16 332 grain length (# of samples);
#X text 249 374 In 2-Pitch 1=original;
#X obj 388 109 bng 15 250 50 0 empty empty empty 17 7 0 10 -262144
-1 -1;
#X text 388 91 trig1;
#X obj 388 630 outlet;
#X floatatom 465 394 5 0 0 0 - - -, f 5;
#X text 461 375 picz;
#X text 509 468 Dur in ms;
#X obj 388 583 pack symbol f f f;
#X obj 426 311 int;
#X obj 326 408 r durFACTOR;
#X obj 146 262 r grainLENfactor;
#X text 18 46 SEnsor in;
#X obj 114 588 outlet~;
#X obj 178 588 outlet~;
#N canvas 483 82 637 593 SENStoTRIGtreszholdINDIVIDUALoutputsFIRSThalf
0;
#X text 77 321 sensor number in the list;
#X text 76 334 (goes to route);
#X text 77 308 arg \$1:;
#X text 77 350 threshold is in abstraction;
#X text 82 371 out 1/0 / bang;
#X obj 174 214 bng 15 250 50 0 empty empty empty 17 7 0 10 -262144
-1 -1;
#X obj 191 237 bng 15 250 50 0 empty empty empty 17 7 0 10 -262144
-1 -1;
#X obj 222 260 bng 15 250 50 0 empty empty empty 17 7 0 10 -262144
-1 -1;
#X obj 259 286 bng 15 250 50 0 empty empty empty 17 7 0 10 -262144
-1 -1;
#X obj 284 307 bng 15 250 50 0 empty empty empty 17 7 0 10 -262144
-1 -1;
#X obj 309 336 bng 15 250 50 0 empty empty empty 17 7 0 10 -262144
-1 -1;
#X obj 336 359 bng 15 250 50 0 empty empty empty 17 7 0 10 -262144
-1 -1;
#X obj 84 192 outlet;
#X obj 123 219 outlet;
#X obj 140 243 outlet;
#X obj 168 261 outlet;
#X obj 201 283 outlet;
#X obj 230 308 outlet;
#X obj 247 333 outlet;
#X obj 280 358 outlet;
#X floatatom 69 154 5 0 0 0 - - -, f 5;
#X obj 135 190 bng 15 250 50 0 empty empty empty 17 7 0 10 -262144
-1 -1;
#X text 403 140 TRESHOLDS DETECT FOR 1 HALF;
#X obj 118 165 oneSENSORtresh;
#X obj 161 189 oneSENSORtresh;
#X obj 193 209 oneSENSORtresh;
#X obj 209 234 oneSENSORtresh;
#X obj 260 256 oneSENSORtresh;
#X obj 287 284 oneSENSORtresh;
#X obj 314 310 oneSENSORtresh;
#X obj 336 334 oneSENSORtresh;
#X obj 191 60 r ldrs_no_filter_smooth;
#X obj 191 85 unpack 0 0 0 0 0 0 0 0;
#X connect 23 0 12 0;
#X connect 23 0 21 0;
#X connect 24 0 13 0;
#X connect 24 0 5 0;
#X connect 25 0 6 0;
#X connect 25 0 14 0;
#X connect 26 0 7 0;
#X connect 26 0 15 0;
#X connect 27 0 8 0;
#X connect 27 0 16 0;
#X connect 28 0 9 0;
#X connect 28 0 17 0;
#X connect 29 0 10 0;
#X connect 29 0 18 0;
#X connect 30 0 11 0;
#X connect 30 0 19 0;
#X connect 31 0 32 0;
#X connect 32 0 20 0;
#X connect 32 0 23 0;
#X connect 32 1 24 0;
#X connect 32 2 25 0;
#X connect 32 3 26 0;
#X connect 32 4 27 0;
#X connect 32 5 28 0;
#X connect 32 6 29 0;
#X connect 32 7 30 0;
#X restore 143 26 pd SENStoTRIGtreszholdINDIVIDUALoutputsFIRSThalf
;
#X text 185 494 * dur factor from pot;
#X text 130 478 random based on;
#X text 131 493 smp len;
#X text 251 167 based only on brigh sensor;
#X text 245 177 pitch is always 0-1 in this patch;
#X obj 128 229 random;
#X text -14 348 randomized based on smp len;
#X text -12 376 * grain Factor from pot;
#X floatatom 42 306 5 0 0 0 - - -, f 5;
#X text -17 361 * brightsest LDR / 32;
#X obj 388 608 cyclone/speedlim 100;
#X obj 115 542 tof/sample_granule~ smpgranu;
#X floatatom 177 187 5 0 0 0 - - -, f 5;
#X obj 211 148 r min_sens;
#X obj 211 174 / 16;
#X connect 0 0 50 1;
#X connect 1 0 8 0;
#X connect 1 0 38 0;
#X connect 1 0 53 0;
#X connect 4 0 56 0;
#X connect 8 0 56 0;
#X connect 9 0 23 0;
#X connect 10 0 23 0;
#X connect 11 0 23 0;
#X connect 13 0 23 0;
#X connect 14 0 23 0;
#X connect 15 0 23 0;
#X connect 16 0 23 0;
#X connect 17 0 31 0;
#X connect 17 0 56 0;
#X connect 21 0 34 0;
#X connect 21 0 56 1;
#X connect 22 0 26 0;
#X connect 23 0 17 0;
#X connect 23 1 50 0;
#X connect 23 2 22 0;
#X connect 25 0 37 3;
#X connect 26 0 25 0;
#X connect 26 0 56 2;
#X connect 28 0 0 1;
#X connect 28 0 20 0;
#X connect 28 0 22 1;
#X connect 31 0 37 0;
#X connect 34 0 37 2;
#X connect 37 0 55 0;
#X connect 38 0 37 1;
#X connect 39 0 26 1;
#X connect 40 0 1 1;
#X connect 40 0 3 0;
#X connect 44 0 9 0;
#X connect 44 1 10 0;
#X connect 44 2 11 0;
#X connect 44 3 12 0;
#X connect 44 4 13 0;
#X connect 44 5 14 0;
#X connect 44 6 15 0;
#X connect 44 7 16 0;
#X connect 50 0 1 0;
#X connect 55 0 33 0;
#X connect 56 0 42 0;
#X connect 56 1 43 0;
#X connect 56 3 6 0;
#X connect 58 0 57 0;
#X connect 58 0 59 0;
#X connect 59 0 21 0;
#X connect 59 0 0 0;
#X restore 217 192 pd trigSAMPLE1;
#X obj 556 225 outlet;
#N canvas 330 87 856 631 trigSAMPLE2 0;
#X obj 368 308 *;
#X floatatom 110 417 15 0 0 0 - - -, f 15;
#X obj 329 375 *;
#X obj 72 576 speedlim 100;
#X floatatom 410 357 5 0 0 0 - - -, f 5;
#X obj 518 582 bng 15 250 50 0 empty empty empty 17 7 0 10 -262144
-1 -1;
#X msg 329 429 grain \$1;
#X obj 319 165 bng 15 250 50 0 empty empty empty 17 7 0 10 -262144
-1 -1;
#X obj 539 199 random;
#X obj 363 88 bng 15 250 50 0 empty empty empty 17 7 0 10 -262144 -1
-1;
#X obj 381 88 bng 15 250 50 0 empty empty empty 17 7 0 10 -262144 -1
-1;
#X obj 400 88 bng 15 250 50 0 empty empty empty 17 7 0 10 -262144 -1
-1;
#X obj 418 88 bng 15 250 50 0 empty empty empty 17 7 0 10 -262144 -1
-1;
#X obj 456 88 bng 15 250 50 0 empty empty empty 17 7 0 10 -262144 -1
-1;
#X obj 475 88 bng 15 250 50 0 empty empty empty 17 7 0 10 -262144 -1
-1;
#X obj 493 88 bng 15 250 50 0 empty empty empty 17 7 0 10 -262144 -1
-1;
#X obj 419 200 / 16;
#X floatatom 188 534 10 0 0 0 - - -, f 10;
#X obj 539 514 *;
#X text 207 449 grain length (# of samples);
#X text 557 426 Inlet 3 \, float:Dur in ms;
#X text 105 375 grain2 length;
#X text 118 525 Dur in ms;
#X obj 578 107 r smp2Len;
#X obj 72 179 bng 15 250 50 0 empty empty empty 17 7 0 10 -262144 -1
-1;
#X text 69 161 trig2;
#X obj 72 598 outlet;
#X floatatom 149 220 5 0 0 0 - - -, f 5;
#X text 114 218 picz;
#X obj 72 555 pack symbol f f f;
#X obj 557 488 r durFACTOR;
#X obj 379 330 r grainLENfactor;
#X obj 320 584 outlet~;
#X obj 384 583 outlet~;
#N canvas 258 241 1143 640 SENStoTRIGtreszholdINDIVIDUALoutputs2HALF
0;
#X obj 285 149 bng 15 250 50 0 empty empty empty 17 7 0 10 -262144
-1 -1;
#X obj 313 170 bng 15 250 50 0 empty empty empty 17 7 0 10 -262144
-1 -1;
#X obj 342 194 bng 15 250 50 0 empty empty empty 17 7 0 10 -262144
-1 -1;
#X obj 365 212 bng 15 250 50 0 empty empty empty 17 7 0 10 -262144
-1 -1;
#X obj 385 243 bng 15 250 50 0 empty empty empty 17 7 0 10 -262144
-1 -1;
#X obj 404 266 bng 15 250 50 0 empty empty empty 17 7 0 10 -262144
-1 -1;
#X obj 424 294 bng 15 250 50 0 empty empty empty 17 7 0 10 -262144
-1 -1;
#X obj 433 324 bng 15 250 50 0 empty empty empty 17 7 0 10 -262144
-1 -1;
#X obj 261 171 outlet;
#X obj 292 193 outlet;
#X obj 318 221 outlet;
#X obj 335 245 outlet;
#X obj 353 269 outlet;
#X obj 369 295 outlet;
#X obj 384 323 outlet;
#X text 392 122 TRESHOLDS DETECT FOR 1 HALF;
#X obj 286 124 oneSENSORtresh;
#X obj 314 147 oneSENSORtresh;
#X obj 345 168 oneSENSORtresh;
#X obj 364 193 oneSENSORtresh;
#X obj 386 218 oneSENSORtresh;
#X obj 405 243 oneSENSORtresh;
#X obj 427 268 oneSENSORtresh;
#X obj 449 292 oneSENSORtresh;
#X obj 182 45 r ldrs_no_filter_smooth;
#X obj 180 67 unpack 0 0 0 0 0 0 0 0 0 0 0 0 0 0 0 0;
#X obj 215 160 outlet;
#X connect 0 0 26 0;
#X connect 16 0 0 0;
#X connect 17 0 1 0;
#X connect 17 0 8 0;
#X connect 18 0 2 0;
#X connect 18 0 9 0;
#X connect 19 0 3 0;
#X connect 19 0 10 0;
#X connect 20 0 4 0;
#X connect 20 0 11 0;
#X connect 21 0 5 0;
#X connect 21 0 12 0;
#X connect 22 0 6 0;
#X connect 22 0 13 0;
#X connect 23 0 7 0;
#X connect 23 0 14 0;
#X connect 24 0 25 0;
#X connect 25 8 16 0;
#X connect 25 9 17 0;
#X connect 25 10 18 0;
#X connect 25 11 19 0;
#X connect 25 12 20 0;
#X connect 25 13 21 0;
#X connect 25 14 22 0;
#X connect 25 15 23 0;
#X restore 247 6 pd SENStoTRIGtreszholdINDIVIDUALoutputs2HALF;
#X floatatom 586 533 5 0 0 0 - - -, f 5;
#X text 557 470 * dur factor from pot;
#X floatatom 650 151 5 0 0 0 - - -, f 5;
#X text 337 230 In 2 \, float:Pitch(1=original);
#X text 206 430 In 1 \, grain float:;
#X text 115 162 In 1 \, bang: Play sample once;
#X text 344 244 based only on brigh sensor;
#X obj 659 88 r durFACTOR;
#X obj 403 124 t b b b b;
#X text 626 540 random based on;
#X text 557 455 scaled smp len * pot;
#X text 204 465 randomized based on smp len;
#X obj 329 332 random;
#X text 229 494 * grain Factor from pot;
#X obj 379 355 * 2;
#X text 225 478 * brightsest LDR / 16 -1;
#X floatatom 688 199 5 0 0 0 - - -, f 5;
#X text 666 132 len in samples;
#X text 689 148 from sample;
#X text 728 200 ms;
#X obj 578 175 *;
#X floatatom 593 198 9 0 0 0 - - -, f 9;
#X obj 329 187 bng 15 250 50 0 empty empty empty 17 7 0 10 -262144
-1 -1;
#X obj 659 112 * 0.5;
#X obj 368 283 - 1;
#X text 298 256 pitch is always 0-2 in this patch;
#X obj 620 174 cyclone/sampstoms~;
#X obj 319 558 tof/sample_granule~ smpgranu2;
#X obj 514 88 bng 15 250 50 0 empty empty empty 17 7 0 10 -262144 -1
-1;
#X obj 419 161 r min_sens;
#X floatatom 381 196 5 0 0 0 - - -, f 5;
#X obj 130 108 s min_sens;
#X obj 276 109 s max_sens;
#X obj 60 109 r min_val;
#X obj 207 109 r max_val;
#X connect 0 0 47 1;
#X connect 1 0 29 1;
#X connect 2 0 6 0;
#X connect 2 0 1 0;
#X connect 3 0 26 0;
#X connect 6 0 62 0;
#X connect 7 0 24 0;
#X connect 7 0 62 0;
#X connect 8 0 18 0;
#X connect 9 0 43 0;
#X connect 10 0 43 0;
#X connect 11 0 43 0;
#X connect 12 0 43 0;
#X connect 13 0 43 0;
#X connect 14 0 43 0;
#X connect 15 0 43 0;
#X connect 16 0 27 0;
#X connect 16 0 59 0;
#X connect 16 0 62 1;
#X connect 17 0 29 3;
#X connect 18 0 17 0;
#X connect 18 0 62 2;
#X connect 23 0 37 0;
#X connect 23 0 55 0;
#X connect 23 0 0 1;
#X connect 23 0 61 0;
#X connect 24 0 29 0;
#X connect 27 0 29 2;
#X connect 29 0 3 0;
#X connect 30 0 18 1;
#X connect 30 0 35 0;
#X connect 31 0 4 0;
#X connect 31 0 49 0;
#X connect 34 0 9 0;
#X connect 34 1 10 0;
#X connect 34 2 11 0;
#X connect 34 3 12 0;
#X connect 34 4 13 0;
#X connect 34 5 14 0;
#X connect 34 6 15 0;
#X connect 34 7 63 0;
#X connect 42 0 58 0;
#X connect 43 0 7 0;
#X connect 43 1 57 0;
#X connect 43 2 8 0;
#X connect 43 3 55 0;
#X connect 47 0 2 0;
#X connect 49 0 2 1;
#X connect 55 0 8 1;
#X connect 55 0 56 0;
#X connect 57 0 47 0;
#X connect 58 0 55 1;
#X connect 59 0 0 0;
#X connect 61 1 51 0;
#X connect 62 0 32 0;
#X connect 62 1 33 0;
#X connect 62 3 5 0;
#X connect 63 0 43 0;
#X connect 64 0 65 0;
#X connect 64 0 16 0;
#X restore 338 192 pd trigSAMPLE2;
#X obj 215 455 s~ patch3pre;
#X obj 234 368 line~;
#X text 281 368 avoid clicks;
#X text 222 265 light noise gate - like in fft;
#X text 24 78 LOAD/MANAGE samples;
#X text 295 35 load sample 2;
#X text 162 123 Wazne - ten sampler pliki stereo traktuje inaczej \,
obydwa maja inne parametry/brzmienia \, dlatego so dwa utlety. Pliki
modo daja dwa razy to samo;
#X text 4 232 for stereo files L ch != R ch;
#X obj 316 453 throw~ PATCH3L;
#X obj 384 402 *~;
#X obj 192 345 tgl 15 0 empty empty empty 17 7 0 10 -262144 -1 -1 0
1;
#X text 221 278 for 2 separate samples we need 2 gates!;
#X text 221 292 one works with 16 LDRs \, one with other 16;
#X obj 215 398 *~;
#N canvas 444 244 584 441 AUDIOoffFROMsensorTRESZHOLD2separateGATES
0;
#X obj 26 353 outlet;
#X text 152 273 compare value of brightest sensor;
#X text 152 286 with our treszhold \, only output sound if its larger
;
#X text 24 26 if no light is on \, there is no sound!!!;
#X text 25 14 kind of like noise gate?;
#X text 257 201 treszhold;
#X text 259 213 najlepiej od 250-450;
#X obj 26 273 < 400;
#X obj 185 131 r GLOBALsensorTRESZ;
#X obj 26 313 change;
#X obj 26 46 r ldrASlist;
#X obj 26 72 list split 16;
#X obj 107 274 < 400;
#X obj 117 243 t f f;
#X obj 107 355 outlet;
#X obj 107 315 change;
#X text 156 315 filter out repetitions;
#X text 125 86 because they control different samples;
#X text 23 375 light gate 1;
#X text 115 377 light gate 2;
#X obj 185 207 -;
#X floatatom 215 209 5 0 0 0 - - -, f 5;
#X text 112 46 All sensors as list;
#X text 243 155 my own scaling;
#X text 261 180 inverse - 1-x;
#X text 328 130 0-1;
#X text 124 72 separately for first and last 16 LDRS;
#X text 261 229 ale inne pacze potrzebuja innego;
#X obj 107 111 smlib/vmin;
#X obj 26 110 smlib/vmin;
#X floatatom 76 170 5 0 0 0 - - -, f 5;
#X obj 338 11 r LDRs_scaled_01;
#X obj 185 180 swap 1;
#X connect 7 0 9 0;
#X connect 8 0 32 0;
#X connect 9 0 0 0;
#X connect 11 0 29 0;
#X connect 11 1 28 0;
#X connect 12 0 15 0;
#X connect 13 0 7 1;
#X connect 13 1 12 1;
#X connect 15 0 14 0;
#X connect 20 0 21 0;
#X connect 20 0 13 0;
#X connect 28 0 12 0;
#X connect 29 0 7 0;
#X connect 29 0 30 0;
#X connect 31 0 11 0;
#X connect 32 0 20 0;
#X connect 32 1 20 1;
#X restore 204 320 pd AUDIOoffFROMsensorTRESZHOLD2separateGATES;
#X obj 263 399 *~;
#X msg 234 344 \$1 10;
#X obj 432 455 throw~ PATCH3R;
#X obj 432 401 *~;
#X obj 451 370 line~;
#X text 498 370 avoid clicks;
#X obj 506 348 tgl 15 0 empty empty empty 17 7 0 10 -262144 -1 -1 0
1;
#X msg 451 346 \$1 10;
#X obj 216 234 *~ 0.5;
#X obj 263 234 *~ 0.5;
#X obj 385 231 *~ 0.5;
#X obj 432 231 *~ 0.5;
#X obj 215 429 *~ 0.5;
#X text 169 453 out;
#X obj 669 142 r dsp;
#X obj 717 139 r PATCH3_dsp;
#X obj 751 198 tgl 15 0 empty empty empty 17 7 0 10 -262144 -1 -1 0
1;
#X floatatom 715 58 5 0 0 0 - - -, f 5;
#X floatatom 532 49 5 0 0 0 - - -, f 5;
#X connect 2 0 10 0;
#X connect 5 0 19 0;
#X connect 6 0 18 0;
#X connect 14 0 3 0;
#X connect 14 0 20 0;
#X connect 18 0 9 0;
#X connect 19 0 8 0;
#X connect 27 0 53 0;
#X connect 27 1 54 0;
#X connect 27 2 26 0;
#X connect 29 0 28 0;
#X connect 29 1 55 0;
#X connect 29 2 56 0;
#X connect 31 0 43 1;
#X connect 31 0 45 1;
#X connect 39 0 38 0;
#X connect 39 0 57 0;
#X connect 43 0 38 0;
#X connect 43 0 57 0;
#X connect 44 0 46 0;
#X connect 44 0 40 0;
#X connect 44 1 51 0;
#X connect 44 1 52 0;
#X connect 45 0 47 0;
#X connect 45 0 57 0;
#X connect 46 0 31 0;
#X connect 48 0 47 0;
#X connect 48 0 57 0;
#X connect 49 0 48 1;
#X connect 49 0 39 1;
#X connect 52 0 49 0;
#X connect 53 0 43 0;
#X connect 54 0 45 0;
#X connect 55 0 39 0;
#X connect 56 0 48 0;
#X connect 57 0 30 0;
#X connect 59 0 0 0;
#X connect 59 0 2 0;
#X connect 60 0 61 0;
#X connect 60 0 0 0;
#X connect 60 0 2 0;
#X connect 62 0 20 0;
#X connect 63 0 25 0;
#X coords 0 533 1 532 130 70 0;
#X restore 651 163 pd smpSTR;
#N canvas 240 172 1005 681 ffbak 0;
#X obj 152 440 +~;
#N canvas 0 78 1280 298 32FEDBAKfilters 0;
#X obj 20 -560 inlet~;
#X obj 659 -446 outlet~;
#X text 1037 -563 control amp from LDR;
#X obj 20 -537 *~ 0.99;
#X obj 785 -502 *~ 0.99;
#X text 415 -566 zmieniamy Q indywidualnych paczow w relacji do freq
- im wyzsza tym wyzsze Q;
#X floatatom 255 -449 5 0 0 0 - - -, f 5;
#X floatatom 295 -449 5 0 0 0 - - -, f 5;
#X text 272 -429 lowest;
#X text 1469 -413 highest;
#X text 66 -562 sound in;
#X text 649 -465 sound out;
#X obj 823 -568 gate;
#X obj 823 -588 tgl 15 0 empty empty empty 17 7 0 10 -262144 -1 -1
0 1;
#X obj 823 -545 print;
#X text 91 -476 second outlet- Ffreq&Q;
#X text 206 -448 freq&Q;
#X floatatom 1452 -435 5 0 0 0 - - -, f 5;
#X floatatom 1492 -435 5 0 0 0 - - -, f 5;
#X obj 898 -535 unpack 0 0 0 0 0 0 0 0 0 0 0 0 0 0 0 0;
#X obj 898 -558 r LDRs_scaled_01;
#X floatatom 883 -433 5 0 0 0 - - -, f 5;
#X obj 404 -519 oneResF+fb 51;
#X obj 1460 -518 oneResF+fb 84;
#X obj 885 -518 oneResF+fb 66;
#X obj 20 -520 oneResF+fb 39;
#X obj 788 -519 oneResF+fb 63;
#X obj 116 -519 oneResF+fb 42;
#X obj 212 -519 oneResF+fb 45;
#X obj 308 -518 oneResF+fb 48;
#X obj 500 -519 oneResF+fb 54;
#X obj 596 -519 oneResF+fb 57;
#X obj 692 -519 oneResF+fb 60;
#X obj 981 -518 oneResF+fb 69;
#X obj 1077 -518 oneResF+fb 72;
#X obj 1173 -518 oneResF+fb 75;
#X obj 1269 -518 oneResF+fb 78;
#X obj 1364 -518 oneResF+fb 81;
#X text 366 -447 rez filter nie dizalal \, ale juz dizala :);
#X connect 0 0 3 0;
#X connect 3 0 22 0;
#X connect 3 0 23 0;
#X connect 3 0 24 0;
#X connect 3 0 25 0;
#X connect 3 0 26 0;
#X connect 3 0 27 0;
#X connect 3 0 28 0;
#X connect 3 0 29 0;
#X connect 3 0 30 0;
#X connect 3 0 31 0;
#X connect 3 0 32 0;
#X connect 3 0 33 0;
#X connect 3 0 34 0;
#X connect 3 0 35 0;
#X connect 3 0 36 0;
#X connect 3 0 37 0;
#X connect 4 0 1 0;
#X connect 12 0 14 0;
#X connect 13 0 12 0;
#X connect 19 0 21 0;
#X connect 19 0 25 1;
#X connect 19 1 27 1;
#X connect 19 2 28 1;
#X connect 19 3 29 1;
#X connect 19 4 22 1;
#X connect 19 5 30 1;
#X connect 19 6 31 1;
#X connect 19 7 32 1;
#X connect 19 8 26 1;
#X connect 19 9 24 1;
#X connect 19 10 33 1;
#X connect 19 11 34 1;
#X connect 19 12 35 1;
#X connect 19 13 36 1;
#X connect 19 14 37 1;
#X connect 19 15 23 1;
#X connect 20 0 19 0;
#X connect 20 0 12 1;
#X connect 22 0 4 0;
#X connect 23 0 4 0;
#X connect 23 1 17 0;
#X connect 23 2 18 0;
#X connect 24 0 4 0;
#X connect 25 0 4 0;
#X connect 25 1 6 0;
#X connect 25 2 7 0;
#X connect 26 0 4 0;
#X connect 27 0 4 0;
#X connect 28 0 4 0;
#X connect 29 0 4 0;
#X connect 30 0 4 0;
#X connect 31 0 4 0;
#X connect 32 0 4 0;
#X connect 33 0 4 0;
#X connect 34 0 4 0;
#X connect 35 0 4 0;
#X connect 36 0 4 0;
#X connect 37 0 4 0;
#X restore 152 465 pd 32FEDBAKfilters;
#X obj 578 334 switch~;
#X obj 220 630 throw~ PATCH1;
#X obj 549 329 tgl 25 0 empty empty empty 17 7 0 10 -258113 -1 -1 0
1;
#X text 42 253 noise;
#X text 42 234 sound sources;
#X obj 321 629 s~ patch1pre;
#X text 212 193 make louder;
#X obj 513 75 * 100;
#X text 181 40 level of signal in;
#X obj 219 549 atan~;
#X text 163 569 lowcut;
#X text 310 394 read the delay = feedback;
#X text 289 464 all the hard work;
#X text 486 610 write to delay;
#X obj 639 306 r PATCH1dsp;
#X obj 549 357 outlet;
#X text 127 250 ext audio;
#X obj 151 292 *~ 1;
#X text 423 507 liveness \, 0-100;
#X text 512 38 HF damping \, percent;
#X floatatom 577 95 5 0 0 0 - - -, f 5;
#X text 183 57 from patch 7 ctrl;
#X text 44 40 CTRL INPUTS;
#X text 155 629 OUTPUTS:;
#X text 331 38 crossover freq \, Hz;
#X text 598 358 OUT for monitoring;
#X text 254 428 AUDIO PATCH GUTS;
#X obj 722 306 r dsp;
#X obj 181 165 gate;
#X text 256 164 przy malych wartosciach zamkuaj gate;
#X floatatom 257 271 5 0 0 0 - - -, f 5;
#X obj 549 306 r PATCH1_dsp;
#X obj 330 52 r PATCH1_AN_PAR1;
#X floatatom 341 106 5 0 0 0 - - -, f 5;
#X obj 513 55 r PATCH2_AN_PAR1;
#X obj 183 80 r PATCH7_AN_PAR1;
#X obj 183 101 t f f f;
#X obj 229 133 > 0.0001;
#X text 542 383 The "liveness" (actually the internal feedback percentage)
should be 100 for infinite reverb \, 90 for longish \, and 80 for short.
The crossover frequency and HF damping work together: at frequencies
above crossover \, the feedback is diminished by the "damping" as a
percentage. So zero HF damping means equal reverb time at all frequencies
\, and 100% damping means almost nothing above the crossover frequency
gets through.;
#X obj 220 571 hip~ 20;
#X obj 171 394 delread~ fidbek 2000;
#X obj 153 507 *~ 0.1;
#X obj 458 629 delwrite~ fidbek 2000;
#X obj 283 504 rev2~ 95 90 2000 10;
#X obj 170 417 *~ 0.001;
#X obj 151 269 adc~;
#X obj 181 192 * 10;
#X obj 44 293 *~ 0.1;
#X obj 44 65 r PATCH3_AN_PAR1;
#X floatatom 84 95 5 0 0 0 - - -, f 5;
#X obj 68 133 *;
#X obj 330 75 1_exp_scale_ctrl 5000;
#X text 50 507 clean sig lev;
#X text 207 504 reverb;
#X obj 43 271 cyclone/pink~;
#X connect 0 0 1 0;
#X connect 1 0 43 0;
#X connect 1 0 45 0;
#X connect 4 0 17 0;
#X connect 9 0 22 0;
#X connect 9 0 45 4;
#X connect 11 0 41 0;
#X connect 19 0 0 0;
#X connect 30 0 48 0;
#X connect 33 0 2 0;
#X connect 33 0 4 0;
#X connect 34 0 53 0;
#X connect 36 0 9 0;
#X connect 37 0 38 0;
#X connect 38 1 30 1;
#X connect 38 2 39 0;
#X connect 39 0 30 0;
#X connect 41 0 44 0;
#X connect 41 0 3 0;
#X connect 42 0 46 0;
#X connect 43 0 11 0;
#X connect 45 0 11 0;
#X connect 45 1 11 0;
#X connect 45 2 11 0;
#X connect 45 3 11 0;
#X connect 46 0 0 1;
#X connect 47 0 19 0;
#X connect 48 0 19 1;
#X connect 48 0 32 0;
#X connect 49 0 0 0;
#X connect 50 0 51 0;
#X connect 50 0 52 0;
#X connect 50 0 52 1;
#X connect 52 0 49 1;
#X connect 53 0 35 0;
#X connect 53 0 45 3;
#X connect 56 0 49 0;
#X coords 0 681 1 680 200 140 0;
#X restore 26 234 pd ffbak;
#N canvas 291 133 938 547 fft1 0;
#X obj 800 376 switch~;
#N canvas 441 169 696 618 fft-analysis 0;
#X obj 8 228 inlet~;
#X obj 9 252 rfft~;
#X obj 8 393 *~;
#X obj 42 392 *~;
#X text 85 384 Multiply the (complex-valued) spectrum amplitudes by
the (real-valued) gain-and-normalization-factor;
#X text 63 418 Real-valued inverse Fourier transform. This uses only
the first N/@ points of its inputs \, supplying the rest by symmerty
(so it's OK that rfft~ obly puts out those N/2 points.) There's only
one outlet because the output is real-valued.;
#X obj 9 561 outlet~;
#X text 68 521 This repackages the output into 64-sample chunks for
the parent window. Since we're operating with an overlap \, the outlet~
object performs an overlapped sum of the blocks computed in this window.
;
#X msg 1 134 set 128 1 2;
#X msg 361 134 set 256 1 2;
#X obj 371 195 block~ 256 1 2;
#X obj 267 12 loadbang;
#X msg 271 135 set 256 1 8;
#X msg 455 133 set 256 1 4;
#X msg 89 134 set 128 1 4;
#X msg 181 134 set 128 1 8;
#X msg 547 134 set 512 1 8;
#X msg 276 37 clear;
#X obj 59 287 tabreceive~ FFTgains;
#X floatatom 328 39 5 0 0 0 - - -, f 5;
#X text 120 198 fft settings;
#X text 114 214 block~ object specifies vector size of 256 and overlap
2 This window now computes blocks of 256 samples at intervals of 128
samples computed on the parent patch.;
#X obj 59 313 *~;
#X obj 59 340 *~;
#X obj 59 361 /~ 768;
#X text 88 309 divide by 3N/2 (factor of N because rfft and rifft aren't
normalized \, and 3/2 is the gain of overlap-4 reconstruction when
Hann window function is applied twice.);
#X obj 9 447 rifft~;
#X obj 9 533 *~;
#X obj 271 195 s fftsettings;
#X text 333 14 change fft settings;
#X obj 222 11 inlet;
#X obj 26 495 tabreceive~ hannn;
#X obj 222 62 sel 0 1 2 3 4 5 6;
#X obj 222 38 urn 7;
#X connect 0 0 1 0;
#X connect 1 0 2 0;
#X connect 1 1 3 0;
#X connect 2 0 26 0;
#X connect 3 0 26 1;
#X connect 8 0 10 0;
#X connect 8 0 28 0;
#X connect 9 0 10 0;
#X connect 9 0 28 0;
#X connect 11 0 33 0;
#X connect 12 0 10 0;
#X connect 12 0 28 0;
#X connect 13 0 10 0;
#X connect 13 0 28 0;
#X connect 14 0 10 0;
#X connect 14 0 28 0;
#X connect 15 0 10 0;
#X connect 15 0 28 0;
#X connect 16 0 10 0;
#X connect 16 0 28 0;
#X connect 17 0 33 0;
#X connect 18 0 22 0;
#X connect 18 0 22 1;
#X connect 22 0 23 0;
#X connect 22 0 23 1;
#X connect 23 0 24 0;
#X connect 24 0 3 1;
#X connect 24 0 2 1;
#X connect 26 0 27 0;
#X connect 27 0 6 0;
#X connect 30 0 33 0;
#X connect 31 0 27 1;
#X connect 32 0 8 0;
#X connect 32 1 14 0;
#X connect 32 2 15 0;
#X connect 32 3 12 0;
#X connect 32 4 9 0;
#X connect 32 5 13 0;
#X connect 32 6 16 0;
#X connect 33 0 19 0;
#X connect 33 0 32 0;
#X connect 33 1 17 0;
#X restore 287 314 pd fft-analysis;
#X obj 287 392 *~;
#X obj 446 437 *~;
#X obj 287 339 clip~ -0.99 0.99;
#N canvas 593 377 649 527 (subpatch) 0;
#N canvas 0 51 450 300 (subpatch) 0;
#X array FFTgains 129 float 2;
#X coords 0 100 128 0 600 460 1 0 0;
#X restore -104 -414 graph;
#X coords 0 527 1 526 200 140 0;
#X restore 849 257 graph;
#N canvas 0 173 492 322 Hann-window 0;
#N canvas 552 51 506 345 (subpatch) 0;
#X array hannn 512 float 0;
#X coords 0 1 511 0 200 120 1 0 0;
#X restore 253 169 graph;
#X msg 137 140 0;
#X obj 31 189 osc~;
#X obj 31 141 samplerate~;
#X obj 31 212 *~ -0.5;
#X obj 31 235 +~ 0.5;
#X text 245 158 1;
#X text 238 276 0;
#X text 254 289 0;
#X obj 31 165 / 512;
#X obj 23 118 bng 15 250 50 0 empty empty empty 0 -6 0 8 -262144 -1
-1;
#X text 302 138 Hann window;
#X text 79 187 period 512;
#X text 112 86 recalculate Hann;
#X text 147 101 window table;
#X obj 23 53 loadbang;
#X text 27 13 The Hann window is now recomputed on 'loadbang' to make
the file smaller (it doesn't have to be saved with the array.);
#X text 440 292 511;
#X obj 23 79 del 15000;
#X obj 23 270 tabwrite~ hannn;
#X connect 1 0 2 1;
#X connect 2 0 4 0;
#X connect 3 0 9 0;
#X connect 4 0 5 0;
#X connect 5 0 19 0;
#X connect 9 0 2 0;
#X connect 10 0 3 0;
#X connect 10 0 1 0;
#X connect 10 0 19 0;
#X connect 15 0 18 0;
#X connect 18 0 10 0;
#X restore 787 281 pd Hann-window;
#X obj 267 43 adc~ 1;
#X text 27 52 noise;
#X text 316 42 ext in;
#X text 647 281 HANN WINDOW DISPLAY;
#X text 726 260 FFT GAINS DISPLAY;
#X obj 863 372 tgl 25 0 empty empty empty 17 7 0 10 -258113 -1 -1 0
1;
#X obj 266 273 *~ 1;
#X obj 76 288 *~ 0.1;
#X text 484 41 change fft set;
#X obj 306 365 >~ 0.66;
#X text 67 37 sound sources;
#X text 379 495 OUTPUTS:;
#X text 164 341 AUDIO PATCH GUTS;
#X obj 446 461 hip~ 20;
#X text 706 239 OTHER-UTILITIES \, GRAPHS...;
#X text 779 36 change FFT bins;
#X obj 446 489 s~ patch2pre;
#X obj 537 489 throw~ PATCH2;
#X floatatom 330 252 5 0 0 0 - - -, f 5;
#X text 297 181 level of signal in;
#X text 55 93 CTRL INPUTS;
#X obj 330 80 r PATCH7_AN_PAR1;
#X floatatom 154 166 15 0 0 0 - - -, f 15;
#X obj 145 109 *;
#X obj 145 80 r PATCH2_AN_PAR1;
#X obj 800 352 r PATCH2_dsp;
#X text 78 180 level of s source;
#X floatatom 339 163 5 0 0 0 - - -, f 5;
#X obj 330 142 *;
#X text 62 432 could add here a file player;
#X text 61 448 which would be then FFTed;
#X text 61 462 or other sound source;
#X obj 479 60 r PATCH2_DIG_PAR1;
#X obj 530 87 tgl 15 0 empty empty empty 17 7 0 10 -262144 -1 -1 0
1;
#X obj 826 70 tgl 15 0 empty empty empty 17 7 0 10 -262144 -1 -1 0
1;
#X obj 771 51 r PATCH6_DIG_PAR1;
#X text 846 69 pozyczam;
#X obj 506 388 r light_gate;
#X obj 509 412 tgl 15 0 empty empty empty 17 7 0 10 -262144 -1 -1 0
1;
#X text 532 409 only output sound if;
#X obj 839 402 outlet;
#X text 316 101 from pach 7 ctrl;
#X obj 526 179 unpack f s;
#X obj 619 44 r color_sens;
#X text 512 120 R color changes fft settings;
#N canvas 1 51 1276 727 insert_to_list_at_rnd_index 0;
#X obj 48 272 print;
#X obj 8 34 bng 15 250 50 0 empty empty empty 17 7 0 10 -262144 -1
-1;
#X obj 8 124 zl group 16;
#X obj -276 271 tabwrite FFTgains;
#X text 115 77 generate 16 new indexes;
#X text 111 147 group and sort them;
#X text 104 160 these will be conotrlled by the LDRs;
#X text -83 -23 where we insert new value;
#X text -85 -36 randomize position in the list;
#X obj -439 28 r LDRs_scaled_01;
#X obj 48 252 spigot;
#X obj 87 231 tgl 15 0 empty empty empty 17 7 0 10 -262144 -1 -1 0
1;
#X obj 357 31 bng 15 250 50 0 empty empty empty 17 7 0 10 -262144 -1
-1;
#X msg 357 66 \; FFTgains const 0;
#X text 375 30 fftgains zeros;
#X obj 415 46 loadbang;
#X text -94 -34 2;
#X obj 140 242 list length;
#X floatatom 140 268 5 0 0 0 - - -, f 5;
#X obj -276 126 unpack f f f f f f f f f f f f f f f f;
#X obj 8 176 unpack f f f f f f f f f f f f f f f f;
#X obj -276 193 pack f f f f f f f f f f f f f f f f f f f f f f f
f f f f f f f f f;
#X obj -276 231 zl iter 2;
#X msg -439 258 \; FFTgains normalize \$1;
#X obj -439 49 t b l;
#X msg -421 205 100;
#X obj 8 59 t b b;
#X text -486 -33 get list from ldrs unpach the two listst and then
pack together so we get pairs of value and index to the table;
#X obj 30 33 inlet;
#X obj -400 189 loadbang;
#X obj 8 102 random 128;
#X obj 8 79 cyclone/Uzi 16;
#X obj -275 5 inlet;
#X obj -275 26 unpack f s;
#X obj -196 26 sel R G B;
#X msg -161 46 64;
#X msg -127 46 128;
#X msg -196 46 16;
#X text -231 4 czange rndm upper limit depending on color detected
;
#X obj -273 46 / 16;
#X floatatom -272 87 5 0 0 0 - - -, f 5;
#X obj -439 228 f;
#X floatatom -394 231 5 0 0 0 - - -, f 5;
#X obj -273 67 * 100;
#X text -475 -46 3;
#X floatatom -196 76 5 0 0 0 - - -, f 5;
#X obj -127 63 change;
#X obj -127 82 t b f;
#X obj 8 146 list-abs/list-sort asc;
#X connect 1 0 26 0;
#X connect 2 0 48 0;
#X connect 9 0 24 0;
#X connect 10 0 0 0;
#X connect 11 0 10 1;
#X connect 12 0 13 0;
#X connect 15 0 13 0;
#X connect 17 0 18 0;
#X connect 19 0 21 0;
#X connect 19 1 21 2;
#X connect 19 2 21 4;
#X connect 19 3 21 6;
#X connect 19 4 21 8;
#X connect 19 5 21 10;
#X connect 19 6 21 12;
#X connect 19 7 21 14;
#X connect 19 8 21 16;
#X connect 19 9 21 18;
#X connect 19 10 21 20;
#X connect 19 11 21 22;
#X connect 19 12 21 24;
#X connect 19 13 21 26;
#X connect 19 14 21 28;
#X connect 19 15 21 30;
#X connect 20 0 21 1;
#X connect 20 1 21 3;
#X connect 20 2 21 5;
#X connect 20 3 21 7;
#X connect 20 4 21 9;
#X connect 20 5 21 11;
#X connect 20 6 21 13;
#X connect 20 7 21 15;
#X connect 20 8 21 17;
#X connect 20 9 21 19;
#X connect 20 10 21 21;
#X connect 20 11 21 23;
#X connect 20 12 21 25;
#X connect 20 13 21 27;
#X connect 20 14 21 29;
#X connect 20 15 21 31;
#X connect 21 0 22 0;
#X connect 22 0 3 0;
#X connect 24 0 41 0;
#X connect 24 1 19 0;
#X connect 25 0 41 1;
#X connect 26 0 31 0;
#X connect 26 1 13 0;
#X connect 28 0 26 0;
#X connect 29 0 25 0;
#X connect 30 0 2 0;
#X connect 31 0 30 0;
#X connect 32 0 33 0;
#X connect 33 0 39 0;
#X connect 33 1 34 0;
#X connect 34 0 37 0;
#X connect 34 1 35 0;
#X connect 34 2 36 0;
#X connect 35 0 45 0;
#X connect 35 0 46 0;
#X connect 36 0 45 0;
#X connect 36 0 46 0;
#X connect 37 0 45 0;
#X connect 37 0 46 0;
#X connect 39 0 43 0;
#X connect 41 0 42 0;
#X connect 41 0 23 0;
#X connect 43 0 40 0;
#X connect 43 0 41 1;
#X connect 46 0 47 0;
#X connect 47 0 26 0;
#X connect 47 1 30 1;
#X connect 48 0 20 0;
#X restore 651 151 pd insert_to_list_at_rnd_index;
#X obj 769 72 sel 1;
#X obj 479 86 sel 1;
#X floatatom 526 200 5 0 0 0 - - -, f 5;
#X obj 619 73 t l l;
#X symbolatom 593 199 10 0 0 0 - - -, f 10;
#X obj 330 228 * 1;
#X obj 75 54 cyclone/pink~;
#X connect 1 0 4 0;
#X connect 2 0 3 0;
#X connect 3 0 20 0;
#X connect 4 0 2 0;
#X connect 4 0 16 0;
#X connect 7 0 13 0;
#X connect 12 0 47 0;
#X connect 13 0 1 0;
#X connect 14 0 1 0;
#X connect 16 0 2 1;
#X connect 20 0 23 0;
#X connect 20 0 24 0;
#X connect 28 0 35 0;
#X connect 28 0 35 1;
#X connect 30 0 29 0;
#X connect 30 0 14 1;
#X connect 31 0 30 0;
#X connect 31 0 30 1;
#X connect 32 0 0 0;
#X connect 32 0 12 0;
#X connect 35 0 34 0;
#X connect 35 0 58 0;
#X connect 39 0 40 0;
#X connect 39 0 54 0;
#X connect 42 0 41 0;
#X connect 42 0 53 0;
#X connect 44 0 45 0;
#X connect 44 0 3 1;
#X connect 49 0 55 0;
#X connect 49 1 57 0;
#X connect 50 0 56 0;
#X connect 53 0 52 1;
#X connect 54 0 1 1;
#X connect 56 0 49 0;
#X connect 56 1 52 0;
#X connect 58 0 13 1;
#X connect 58 0 25 0;
#X connect 59 0 14 0;
#X coords 0 547 1 546 40 70 0;
#X restore 155 213 pd fft1;
#X obj 212 216 r fftsettings;
#X msg 291 235 256 1 8;
#X obj 90 235 tgl 15 0 empty empty DSP 0 10 0 15 -258113 -4160 -258113
0 1;
#X obj 643 208 bng 20 250 50 0 empty empty SMP1 0 13 0 10 -4032 -1
-1;
#X floatatom 682 209 6 0 0 0 - - -, f 6;
#X floatatom 733 207 5 0 0 0 - - -, f 5;
#X floatatom 778 208 6 0 0 0 - - -, f 6;
#X obj 646 236 bng 20 250 50 0 empty empty SMP2 0 13 0 10 -159808 -1
-1;
#X floatatom 680 235 6 0 0 0 - - -, f 6;
#X floatatom 734 236 5 0 0 0 - - -, f 5;
#X floatatom 779 236 6 0 0 0 - - -, f 6;
#X text 730 219 PICZ;
#X text 775 219 DUR(ms);
#X obj 676 174 unpack s f f f;
#X obj 829 212 tgl 50 0 empty empty DSP 0 30 0 15 -258113 -4160 -258113
0 1;
#X text 719 167 TOF/SMPLgfranu/Tstrecz;
#X text 641 220 TRG;
#X text 665 222 GRSampSi;
#X msg 616 285 /home/ccrma/pd/sample/basselection/warpbass.wav;
#X obj 156 231 tgl 15 0 empty empty DSP 0 15 0 15 -258113 -4160 -258113
0 1;
#X obj 661 187 unpack s f f f;
#X msg 618 272 /home/ccrma/pd/sample/kiks/HardCoreKick8.wav;
#X obj 532 236 tgl 15 0 empty empty DSP 15 11 0 15 -258113 -4160 -258113
0 1;
#X text 21 211 1&2:NOIZYY PATCHES;
#X text 352 211 3&4:SAMPLER based PATCHES;
#X text 547 239 drum lup;
#N canvas 60 51 1357 774 tstrecz2 0;
#N canvas 0 191 1219 470 loadSample2 0;
#X obj 92 247 openpanel;
#X obj 91 229 bng 15 250 50 0 empty empty empty 0 -6 0 8 -262144 -1
-1;
#N canvas 0 50 450 300 (subpatch) 0;
#X array MajStrecz 15352 float 0;
#X coords 0 1 15351 -1 250 100 1 0 0;
#X restore 720 263 graph;
#X msg 92 269 read -resize \$1 MajStrecz;
#X floatatom 613 267 7 0 0 0 - - -, f 7;
#X text 452 265 sampel size in samples;
#X text 558 286 in MS;
#X obj 609 379 s initialSlice;
#X obj 538 39 loadbang;
#X obj 539 84 random 11;
#X floatatom 539 106 5 0 0 0 - - -, f 5;
#X obj 501 39 bng 15 250 50 0 empty empty empty 17 7 0 10 -262144 -1
-1;
#X obj 539 62 del 5000;
#X obj 613 239 soundfiler;
#X floatatom 624 324 5 0 0 0 - - -, f 5;
#X obj 699 210 print;
#X obj 612 39 inlet;
#X text 675 40 load new sample;
#X obj 655 41 bng 15 250 50 0 empty empty empty 17 7 0 10 -262144 -1
-1;
#X obj 613 94 i;
#X obj 613 61 t b;
#X obj 652 94 + 1;
#X obj 613 116 + 100;
#X msg 693 67 0;
#X msg 613 161 read -resize /home/ccrma/pd/SAMPLE/FX/FX_SMPL0\$1.wav
MajStrecz;
#X obj 122 37 inlet;
#X text 69 205 load new sample;
#X obj 165 39 bng 15 250 50 0 empty empty empty 17 7 0 10 -262144 -1
-1;
#X obj 123 92 i;
#X obj 123 59 t b;
#X obj 162 92 + 1;
#X obj 123 114 + 100;
#X msg 163 65 0;
#X msg 123 159 read -resize /home/ccrma/pd/SAMPLE/KIKS/KC_SMPL0\$1.wav
MajStrecz;
#X floatatom 197 118 5 0 0 0 - - -, f 5;
#X obj 619 295 / 44.1;
#X connect 0 0 3 0;
#X connect 1 0 0 0;
#X connect 3 0 13 0;
#X connect 4 0 35 0;
#X connect 8 0 12 0;
#X connect 9 0 10 0;
#X connect 9 0 22 0;
#X connect 11 0 9 0;
#X connect 12 0 9 0;
#X connect 13 0 4 0;
#X connect 14 0 7 0;
#X connect 16 0 20 0;
#X connect 18 0 19 0;
#X connect 19 0 21 0;
#X connect 19 0 22 0;
#X connect 20 0 19 0;
#X connect 21 0 19 1;
#X connect 22 0 24 0;
#X connect 23 0 19 1;
#X connect 24 0 15 0;
#X connect 24 0 13 0;
#X connect 25 0 29 0;
#X connect 27 0 28 0;
#X connect 28 0 30 0;
#X connect 28 0 31 0;
#X connect 29 0 28 0;
#X connect 30 0 28 1;
#X connect 31 0 33 0;
#X connect 31 0 34 0;
#X connect 32 0 28 1;
#X connect 33 0 13 0;
#X connect 35 0 14 0;
#X restore 1058 153 pd loadSample2;
#X obj 1068 134 bng 15 250 50 0 empty empty empty 17 7 0 10 -262144
-1 -1;
#X text 1038 72 LOAD and MANAGE samples;
#X obj 1058 90 r PATCH4_DIG_PAR1;
#X obj 1069 115 bng 15 250 50 0 empty empty empty 17 7 0 10 -262144
-1 -1;
#X obj 1100 214 switch~;
#X floatatom 142 105 5 0 0 0 - - -, f 5;
#X obj 142 80 change;
#X floatatom 82 322 5 0 0 0 - - -, f 5;
#X obj 204 260 *;
#X obj 232 227 r initialSlice;
#X text 86 126 this is the number we multiply by;
#X obj 404 640 hip~ 20;
#X floatatom 570 307 5 0 0 0 - - -, f 5;
#X obj 1059 213 tgl 25 0 empty empty empty 17 7 0 10 -258113 -1 -1
0 1;
#X text 1059 212 dsp;
#X text 609 307 speed;
#X obj 403 679 throw~ PATCH4;
#X obj 507 678 s~ patch4pre;
#X obj 1055 248 outlet;
#N canvas 1284 51 850 750 timestreczMUJ_z_start_czange 0;
#X obj 247 393 phasor~;
#X floatatom 21 414 12 0 0 0 - - -, f 12;
#X obj 356 239 phasor~;
#X floatatom 29 328 12 0 0 0 - - -, f 12;
#X obj 248 466 *~;
#X obj 247 496 +~;
#X obj 356 453 *~;
#X obj 21 250 t b f;
#X obj 21 386 *;
#X msg 524 219 0;
#X obj 247 697 *~;
#X text 132 13 timestretch -- \$1: array name;
#X obj 247 721 outlet~;
#X obj 524 194 loadbang;
#X obj 356 215 *;
#X obj 367 154 t b f;
#X obj 356 190 f 1;
#X obj 355 37 inlet;
#X text 355 15 speed (1=normal \, 0.5=half);
#X floatatom 355 64 5 0 0 0 - - -, f 5;
#X floatatom 21 60 8 0 0 0 - - -, f 8;
#X obj 21 101 t b f;
#X obj 53 197 /;
#X text 17 11 slice length;
#X obj 21 171 t f f;
#X obj 21 277 samplerate~;
#X obj 21 34 inlet;
#X obj 53 225 s \$0slices;
#X obj 53 355 r \$0slices;
#X obj 411 341 r \$0slices;
#X obj 376 386 wrap~;
#X obj 357 410 -~;
#X obj 353 486 -~ 0.5;
#X obj 353 507 wrap~;
#X obj 353 526 -~ 0.5;
#X text 407 483 subtracting 0.5 and wrapping produces a sawtooth wave
180 degrees out of phase from the original.;
#X text 402 520 as before we subtract 1/2 again to center the sawtooth
from -1/2 to 1/2.;
#X obj 354 564 clip~ -0.5 0.5;
#X obj 354 545 *~ 1;
#X obj 354 584 cos~;
#X obj 354 622 *~ -0.5;
#X obj 354 603 -~ 1;
#X obj 284 508 loadbang;
#X obj 456 41 inlet;
#X floatatom 456 230 5 0 0 0 - - -, f 5;
#X obj 247 668 tabread4~ MajStrecz;
#X obj 21 126 arraysize MajStrecz;
#X text 555 218 sync phasors(orginal);
#X text 162 125 orginal(\$1)-abstraction;
#X text 239 644 orginal(\$1)-abstraction;
#X floatatom 53 386 5 0 0 0 - - -, f 5;
#X text 523 240 no sync \, but start in the middle of sample;
#X msg 285 528 10;
#X obj 456 204 / 15;
#X obj 356 361 *~;
#X obj 21 304 /;
#X connect 0 0 4 0;
#X connect 0 0 32 0;
#X connect 1 0 0 0;
#X connect 2 0 54 0;
#X connect 3 0 15 0;
#X connect 4 0 5 0;
#X connect 5 0 45 0;
#X connect 6 0 5 1;
#X connect 7 0 25 0;
#X connect 7 1 55 1;
#X connect 8 0 1 0;
#X connect 9 0 2 1;
#X connect 9 0 0 1;
#X connect 10 0 12 0;
#X connect 13 0 9 0;
#X connect 14 0 2 0;
#X connect 15 0 16 0;
#X connect 15 1 14 1;
#X connect 16 0 14 0;
#X connect 17 0 19 0;
#X connect 19 0 16 0;
#X connect 20 0 21 0;
#X connect 20 0 4 1;
#X connect 20 0 6 1;
#X connect 21 0 46 0;
#X connect 21 0 53 0;
#X connect 21 1 22 1;
#X connect 22 0 27 0;
#X connect 24 0 7 0;
#X connect 24 1 22 0;
#X connect 25 0 55 0;
#X connect 26 0 20 0;
#X connect 28 0 8 1;
#X connect 28 0 50 0;
#X connect 29 0 54 1;
#X connect 30 0 31 1;
#X connect 31 0 6 0;
#X connect 32 0 33 0;
#X connect 33 0 34 0;
#X connect 34 0 38 0;
#X connect 37 0 39 0;
#X connect 38 0 37 0;
#X connect 39 0 41 0;
#X connect 40 0 10 1;
#X connect 41 0 40 0;
#X connect 42 0 52 0;
#X connect 43 0 53 0;
#X connect 45 0 10 0;
#X connect 46 0 24 0;
#X connect 52 0 38 1;
#X connect 53 0 44 0;
#X connect 53 0 0 1;
#X connect 53 0 2 1;
#X connect 54 0 30 0;
#X connect 54 0 31 0;
#X connect 55 0 3 0;
#X connect 55 0 8 0;
#X restore 506 507 pd timestreczMUJ_z_start_czange;
#X text 58 43 CTRL INPUTS;
#X text 333 677 OUTPUTS:;
#X text 519 482 AUDIO PATCH GUTS;
#X text 774 199 speed variablle;
#N canvas 464 347 433 309 speedCTRLLLL 0;
#X obj 40 -9 inlet;
#X obj -6 225 outlet;
#X floatatom 83 168 5 0 0 0 - - -, f 5;
#X floatatom 148 165 5 0 0 0 - - -, f 5;
#X floatatom 225 194 5 0 0 0 - - -, f 5;
#X obj 57 119 + 0.01;
#X obj 212 161 moses 0.001;
#X obj 114 116 moses -0.0125;
#X obj 114 94 - 0.5;
#X text 73 201 speed ctrl source;
#X obj -58 71 vradio 15 1 1 3 empty empty empty 0 -8 0 10 -262144 -1
-1 1;
#X text 82 48 speed ctrl source;
#X text -9 18 sensor brightest;
#X obj -6 181 switch 2;
#X floatatom 3 118 5 0 0 0 - - -, f 5;
#X floatatom -29 71 5 0 0 0 - - -, f 5;
#X obj -58 226 outlet;
#X obj -58 122 t f f;
#X obj 165 3 inlet;
#X obj -58 -13 inlet;
#X obj 40 50 / 8;
#X connect 0 0 20 0;
#X connect 5 0 2 0;
#X connect 5 0 13 1;
#X connect 6 1 4 0;
#X connect 7 0 3 0;
#X connect 7 0 13 2;
#X connect 7 1 6 0;
#X connect 8 0 7 0;
#X connect 10 0 17 0;
#X connect 13 0 1 0;
#X connect 17 0 16 0;
#X connect 17 1 13 0;
#X connect 18 0 20 1;
#X connect 19 0 10 0;
#X connect 19 0 15 0;
#X connect 20 0 5 0;
#X connect 20 0 8 0;
#X connect 20 0 14 0;
#X restore 468 286 pd speedCTRLLLL;
#X text 223 43 length variable;
#X obj 449 461 timestretch-majn MajStrecz;
#X obj 1059 185 r PATCH4_dsp;
#X obj 223 58 r PATCH4_AN_PAR1;
#X obj 223 58 r PATCH4_AN_PAR1;
#X floatatom 468 305 5 0 0 0 - - -, f 5;
#X obj 731 555 r light_gate;
#X obj 803 576 tgl 15 0 empty empty empty 17 7 0 10 -262144 -1 -1 0
1;
#X text 491 629 now from global;
#X text 498 642 saves cpu?;
#X obj 467 401 pack f f;
#X obj 467 422 unpack f f;
#X obj 731 598 line~;
#X floatatom 259 103 5 0 0 0 - - -, f 5;
#X floatatom 695 199 5 0 0 0 - - -, f 5;
#N canvas 402 213 343 203 slice_length 0;
#X obj -52 17 inlet;
#X obj 74 138 outlet;
#X floatatom 105 103 8 0 0 0 - - -, f 8;
#X obj -52 64 cyclone/sampstoms~;
#X text 2 27 the length of slice in ms;
#X connect 0 0 3 0;
#X connect 3 1 2 0;
#X connect 3 1 1 0;
#X restore 83 299 pd slice_length;
#X text 115 323 length MS;
#X obj 222 80 1_exp_scale_ctrl 2000 1;
#X msg 495 261 2;
#X msg 468 254 1;
#X msg 439 232 1;
#X floatatom 522 154 5 0 0 0 - - -, f 5;
#X obj 496 234 loadbang;
#X floatatom 734 494 5 0 0 0 - - -, f 5;
#X obj 720 471 change;
#X obj 720 449 r min_sens;
#X text 716 409 brightest sensor;
#X text 87 140 im mniej tym krotszy slice;
#X text 453 40 colsens=>speed cntrl;
#X text 522 257 source of speed ctrl 1=!2;
#X text 696 427 but we could us color also;
#X text 69 104 brightsens;
#X floatatom 251 263 5 0 0 0 - - -, f 5;
#X obj 404 615 *~;
#X obj 731 576 pack f 10;
#N canvas 39 275 279 248 demultiplex 0;
#X obj 143 133 inlet~;
#X obj 193 134 inlet~;
#X obj 15 8 inlet;
#X obj -4 172 *~;
#X obj 81 174 *~;
#X obj 15 110 lop~ 80;
#X obj 82 111 lop~ 80;
#X obj 82 93 sig~;
#X obj -4 199 outlet~;
#X obj 15 91 sig~;
#X obj 15 71 unpack f f;
#X msg 15 47 0 1;
#X msg 48 48 1 0;
#X obj 15 28 sel 0 1;
#X connect 0 0 3 0;
#X connect 1 0 4 1;
#X connect 2 0 13 0;
#X connect 3 0 8 0;
#X connect 4 0 8 0;
#X connect 5 0 3 1;
#X connect 6 0 4 0;
#X connect 7 0 6 0;
#X connect 9 0 5 0;
#X connect 10 0 9 0;
#X connect 10 1 7 0;
#X connect 11 0 10 0;
#X connect 12 0 10 0;
#X connect 13 0 11 0;
#X connect 13 1 12 0;
#X restore 403 592 pd demultiplex;
#X text 514 593 od andiego;
#X obj 513 59 r color_sens;
#X obj 405 153 sel R G B W;
#X obj 475 180 bng 15 250 50 0 empty empty empty 17 7 0 10 -262144
-1 -1;
#X obj 399 200 bng 15 250 50 0 empty empty empty 17 7 0 10 -262144
-1 -1;
#X obj 440 215 bng 15 250 50 0 empty empty empty 17 7 0 10 -262144
-1 -1;
#X obj 514 80 unpack f s;
#X msg 399 230 0;
#X obj 414 254 tgl 15 0 empty empty empty 17 7 0 10 -262144 -1 -1 1
1;
#X obj 684 152 r PATCH4_AN_PAR2;
#X obj 636 65 loadbang;
#X text 662 88 source of speed ctrl 1=!2;
#X msg 608 85 1 R;
#X obj 368 149 bng 15 250 50 0 empty empty empty 17 7 0 10 -262144
-1 -1;
#X obj 353 107 r PATCH8_DIG_PAR1;
#X obj 353 133 tgl 15 0 empty empty empty 17 7 0 10 -262144 -1 -1 0
1;
#X obj 313 503 spigot;
#X obj 142 58 r min_sens;
#X floatatom 605 168 5 0 0 0 - - -, f 5;
#X obj 605 143 change;
#X obj 605 121 r min_sens;
#X obj 684 174 1_exp_scale_ctrl 40 2;
#X connect 1 0 0 0;
#X connect 3 0 4 0;
#X connect 3 0 0 0;
#X connect 7 0 6 0;
#X connect 7 0 9 0;
#X connect 9 0 36 0;
#X connect 9 0 41 0;
#X connect 10 0 9 1;
#X connect 10 0 58 0;
#X connect 12 0 17 0;
#X connect 12 0 18 0;
#X connect 13 0 36 1;
#X connect 14 0 19 0;
#X connect 20 0 61 2;
#X connect 25 0 31 0;
#X connect 25 1 13 0;
#X connect 27 0 61 1;
#X connect 28 0 5 0;
#X connect 28 0 14 0;
#X connect 29 0 43 0;
#X connect 32 0 33 0;
#X connect 32 0 60 0;
#X connect 36 0 37 0;
#X connect 37 0 20 0;
#X connect 37 0 27 0;
#X connect 37 1 20 1;
#X connect 37 1 27 1;
#X connect 38 0 59 1;
#X connect 41 0 8 0;
#X connect 43 0 39 0;
#X connect 43 0 9 1;
#X connect 44 0 25 0;
#X connect 45 0 25 0;
#X connect 46 0 70 0;
#X connect 48 0 45 0;
#X connect 50 0 49 0;
#X connect 50 0 20 2;
#X connect 51 0 50 0;
#X connect 59 0 12 0;
#X connect 60 0 38 0;
#X connect 61 0 59 0;
#X connect 63 0 68 0;
#X connect 64 0 65 0;
#X connect 64 1 66 0;
#X connect 64 2 67 0;
#X connect 65 0 45 0;
#X connect 65 0 46 0;
#X connect 66 0 69 0;
#X connect 67 0 46 0;
#X connect 68 0 47 0;
#X connect 68 1 64 0;
#X connect 69 0 70 0;
#X connect 70 0 78 0;
#X connect 71 0 83 0;
#X connect 72 0 74 0;
#X connect 74 0 68 0;
#X connect 76 0 75 0;
#X connect 76 0 77 0;
#X connect 77 0 61 0;
#X connect 79 0 7 0;
#X connect 80 0 25 1;
#X connect 81 0 80 0;
#X connect 82 0 81 0;
#X connect 83 0 40 0;
#X connect 83 0 25 2;
#X coords 0 774 1 773 140 70 0;
#X restore 532 216 pd tstrecz2;
#X text 352 221 sensmin(bright)+LIGHTGATE;
#X text 24 222 scaled0-1;
#X text 177 232 sca01+LIGHTGATE;
#X text 89 221 3rdOF;
#X text 362 232 3 nie dziala na razie;
#N canvas 27 172 1265 727 granular 0;
#X obj 88 80 inlet~;
#X text 86 59 audio in;
#X obj 209 664 outlet~;
#X floatatom 494 498 5 0 1 0 - - -, f 5;
#X text 466 583 vol;
#X floatatom 357 68 5 0 0 0 - - -, f 5;
#X floatatom 396 68 5 0 0 0 - - -, f 5;
#X floatatom 433 68 5 0 0 0 - - -, f 5;
#X floatatom 471 68 5 0 0 0 - - -, f 5;
#X floatatom 509 68 5 0 0 0 - - -, f 5;
#X floatatom 546 68 5 0 0 0 - - -, f 5;
#X floatatom 584 68 5 0 0 0 - - -, f 5;
#X obj 341 38 unpack f f f f f f f f;
#X floatatom 318 68 5 0 0 0 - - -, f 5;
#X text 723 56 brightest;
#X obj 478 471 line~ \$1 20;
#X text 88 50 ext in;
#X obj 675 55 change;
#X obj 477 447 inlet;
#X text 526 529 volume;
#X obj 341 14 r redux_list_ctrl;
#X obj 674 32 r min_sens;
#X obj 675 78 / 16;
#X obj 166 62 oneARDdigBUTTON 2 1;
#X obj 578 614 switch~;
#X floatatom 482 600 2 0 0 0 - - -, f 2;
#X text 595 597 dsp;
#X obj 540 663 outlet;
#X obj 486 558 oneARDinCOMPARE 0.1;
#X floatatom 685 99 5 0 0 0 - - -, f 5;
#X obj 482 663 s go;
#X obj 482 627 tgl 30 0 empty empty empty 17 7 0 10 -4034 -1 -1 0 1
;
#X text 517 631 Enable granular synthesizer;
#X text 212 684 audio out - mono for now;
#X text 674 13 from sensor;
#X obj 675 128 * 100;
#X obj 208 638 *~;
#X obj 225 561 r light_gate;
#X obj 260 585 tgl 15 0 empty empty empty 17 7 0 10 -262144 -1 -1 0
1;
#X text 282 606 only output sound if;
#X obj 224 582 sig~;
#X obj 225 605 lop~ 10;
#X obj 934 98 bng 15 250 50 0 empty empty empty 17 7 0 10 -262144 -1
-1;
#X text 927 44 LOAD and MANAGE samples;
#X obj 885 75 sel 1;
#X obj 897 98 bng 15 250 50 0 empty empty empty 17 7 0 10 -262144 -1
-1;
#N canvas 76 293 644 440 loadSample 0;
#X floatatom 198 253 7 0 0 0 - - -, f 7;
#X text 37 251 sampel size in samples;
#X obj 123 25 loadbang;
#X obj 124 70 random 11;
#X floatatom 124 92 5 0 0 0 - - -, f 5;
#X obj 86 25 bng 15 250 50 0 empty empty empty 17 7 0 10 -262144 -1
-1;
#X obj 124 48 del 5000;
#X obj 198 225 soundfiler;
#X obj 284 196 print;
#X obj 197 25 inlet;
#X text 260 26 load new sample;
#X obj 240 27 bng 15 250 50 0 empty empty empty 17 7 0 10 -262144 -1
-1;
#X obj 198 80 i;
#X obj 198 47 t b;
#X obj 237 80 + 1;
#X obj 198 102 + 100;
#X msg 278 53 0;
#X msg 198 147 read -resize /home/ccrma/pd/SAMPLE/FX/FX_SMPL0\$1.wav
sampleData;
#X obj 198 289 s total_dur;
#X obj 375 70 openpanel;
#X obj 374 52 bng 15 250 50 0 empty empty empty 0 -6 0 8 -262144 -1
-1;
#X msg 375 92 read -resize \$1 sampleData;
#X connect 0 0 18 0;
#X connect 2 0 6 0;
#X connect 3 0 4 0;
#X connect 3 0 15 0;
#X connect 5 0 3 0;
#X connect 6 0 3 0;
#X connect 7 0 0 0;
#X connect 9 0 13 0;
#X connect 11 0 12 0;
#X connect 12 0 14 0;
#X connect 12 0 15 0;
#X connect 13 0 12 0;
#X connect 14 0 12 1;
#X connect 15 0 17 0;
#X connect 16 0 12 1;
#X connect 17 0 8 0;
#X connect 17 0 7 0;
#X connect 19 0 21 0;
#X connect 20 0 19 0;
#X connect 21 0 7 0;
#X restore 887 119 pd loadSample;
#X obj 225 118 r total_dur;
#X obj 207 165 expr 44100 / $f1;
#X obj 207 216 phasor~;
#X obj 207 248 *~;
#X obj 207 290 snapshot~;
#X obj 207 322 +;
#X obj 207 445 clone grain 16;
#X obj 207 517 *~;
#X msg 207 400 next \$1;
#X obj 274 222 tgl 15 0 empty empty empty 17 7 0 10 -262144 -1 -1 0
1;
#X obj 274 264 t b b;
#X floatatom 291 359 15 0 0 0 - - -, f 15;
#X floatatom 373 272 5 0 0 0 - - -, f 5;
#X obj 499 259 s g-dur;
#X obj 572 257 s g-speed;
#X floatatom 551 220 5 0 0 0 - - -, f 5;
#X floatatom 498 225 5 0 0 0 - - -, f 5;
#N canvas 0 50 450 250 (subpatch) 0;
#X array sampleData 9816 float 2;
#X coords 0 1 9816 -1 200 140 1;
#X restore 880 161 graph;
#X obj 147 464 print;
#X obj 36 527 scope~ 130 130 256 3 128 -1 1 0 0 0 0 102 255 51 135
135 135 0;
#X floatatom 135 208 5 0 0 0 - - -, f 5;
#X obj 306 290 random 200;
#X obj 274 242 metro 100;
#X floatatom 228 366 5 0 0 0 - - -, f 5;
#X connect 12 0 13 0;
#X connect 12 1 5 0;
#X connect 12 2 6 0;
#X connect 12 3 7 0;
#X connect 12 4 8 0;
#X connect 12 4 23 0;
#X connect 12 4 44 0;
#X connect 12 5 9 0;
#X connect 12 6 10 0;
#X connect 12 7 11 0;
#X connect 15 0 54 1;
#X connect 17 0 22 0;
#X connect 18 0 3 0;
#X connect 18 0 15 0;
#X connect 18 0 28 0;
#X connect 20 0 12 0;
#X connect 21 0 17 0;
#X connect 22 0 29 0;
#X connect 22 0 35 0;
#X connect 25 0 24 0;
#X connect 25 0 31 0;
#X connect 28 0 25 0;
#X connect 28 0 27 0;
#X connect 31 0 30 0;
#X connect 36 0 2 0;
#X connect 37 0 38 0;
#X connect 37 0 40 0;
#X connect 40 0 41 0;
#X connect 41 0 36 1;
#X connect 42 0 46 0;
#X connect 44 0 45 0;
#X connect 44 0 46 0;
#X connect 47 0 50 1;
#X connect 47 0 48 0;
#X connect 48 0 49 0;
#X connect 48 0 67 0;
#X connect 49 0 50 0;
#X connect 50 0 51 0;
#X connect 51 0 52 0;
#X connect 52 0 55 0;
#X connect 52 0 58 0;
#X connect 53 0 54 0;
#X connect 53 0 66 0;
#X connect 54 0 36 0;
#X connect 55 0 53 0;
#X connect 56 0 69 0;
#X connect 57 0 51 0;
#X connect 57 1 68 0;
#X connect 59 0 68 1;
#X connect 62 0 61 0;
#X connect 63 0 60 0;
#X connect 68 0 52 1;
#X connect 69 0 57 0;
#X connect 70 0 55 0;
#X restore 906 234 pd granular;
#X connect 2 0 23 0;
#X connect 2 1 26 0;
#X connect 2 2 18 0;
#X connect 2 3 25 0;
#X connect 2 4 19 0;
#X connect 3 0 7 0;
#X connect 4 0 24 0;
#X connect 5 0 6 0;
#X connect 18 0 8 0;
#X connect 18 1 9 0;
#X connect 18 2 10 0;
#X connect 18 3 11 0;
#X connect 25 0 12 0;
#X connect 25 1 13 0;
#X connect 25 2 14 0;
#X connect 25 3 15 0;
#X connect 31 0 27 0;
