#N canvas 543 404 870 474 12;
#X obj 36 25 noise~;
#X obj 36 50 abs~;
#X obj 37 102 mtof~;
#X obj 37 127 samphold~;
#X obj 37 152 osc~;
#X obj 37 217 *~, f 7;
#X obj 196 25 noise~;
#X obj 196 50 abs~;
#X obj 197 177 samphold~;
#X obj 336 25 noise~;
#X obj 336 50 abs~;
#X obj 337 187 samphold~;
#X obj 37 77 scale~ -1 1 48 80, f 19;
#X obj 197 77 scale~ -1 1 0 1, f 17;
#X obj 337 77 scale~ -1 1 0 1, f 17;
#N canvas 686 296 603 383 hanning 0;
#X text 270 161 0.5*(1+cos(pi*x));
#X obj 242 73 t f f;
#X obj 242 159 *;
#X obj 196 28 bng 15 250 50 0 empty empty empty 17 7 0 10 -262144 -1
-1;
#X obj 242 183 cos;
#X obj 242 204 + 1;
#X obj 242 226 * 0.5;
#X obj 242 250 tabwrite hanning01;
#X obj 347 99 - 1;
#X obj 242 119 - 1;
#X text 267 119 from -1 to 1;
#X obj 221 27 loadbang;
#X floatatom 37 74 5 0 0 0 - - -;
#X obj 37 53 expr size("$s1");
#X msg 37 31 symbol hanning01;
#X obj 341 283 table hanning2;
#X text 433 158 0.5*(1+cos(pi*x));
#X obj 405 70 t f f;
#X obj 405 156 *;
#X obj 366 30 bng 15 250 50 0 empty empty empty 17 7 0 10 -262144 -1
-1;
#X obj 405 180 cos;
#X obj 405 201 + 1;
#X obj 405 223 * 0.5;
#X obj 366 49 uzi 128;
#X obj 504 96 - 1;
#X obj 405 116 - 1;
#X obj 405 93 / 64;
#X text 430 116 from -1 to 1;
#X obj 391 29 loadbang;
#X obj 405 247 tabwrite hanning2;
#X obj 275 142 hcs/pi;
#X obj 438 139 hcs/pi;
#X obj 196 47 uzi 256;
#X obj 242 96 / 128;
#X connect 1 0 33 0;
#X connect 1 1 8 0;
#X connect 2 0 4 0;
#X connect 3 0 32 0;
#X connect 4 0 5 0;
#X connect 5 0 6 0;
#X connect 6 0 7 0;
#X connect 8 0 7 1;
#X connect 9 0 2 0;
#X connect 11 0 32 0;
#X connect 13 0 12 0;
#X connect 14 0 13 0;
#X connect 17 0 26 0;
#X connect 17 1 24 0;
#X connect 18 0 20 0;
#X connect 19 0 23 0;
#X connect 20 0 21 0;
#X connect 21 0 22 0;
#X connect 22 0 29 0;
#X connect 23 2 17 0;
#X connect 24 0 29 1;
#X connect 25 0 18 0;
#X connect 26 0 25 0;
#X connect 28 0 23 0;
#X connect 30 0 2 1;
#X connect 31 0 18 1;
#X connect 32 2 1 0;
#X connect 33 0 9 0;
#X restore 771 10 pd hanning;
#N canvas 0 50 450 278 (subpatch) 0;
#X array hanning01 256 float 4;
#X coords 0 1 256 0 100 30 1 0 0;
#X restore 760 71 graph;
#X obj 485 24 noise~;
#X obj 485 49 abs~;
#X obj 486 126 samphold~;
#X obj 486 76 scale~ -1 1 0 1, f 26;
#X floatatom 593 2 5 0 0 0 - - -;
#X floatatom 593 26 5 0 0 0 - - -;
#X floatatom 629 26 5 0 0 0 - - -;
#X obj 593 50 sig~;
#X obj 629 50 sig~;
#X floatatom 691 25 5 0 0 0 - - -;
#X obj 691 49 phasor~ 3;
#X obj 487 195 phasor~;
#X obj 37 272 *~, f 23;
#X obj 195 213 *~ 256;
#X obj 195 238 tabread4~ hanning01;
#X obj 337 282 *~ 1;
#X obj 382 256 sig~ 1;
#X obj 382 281 -~;
#X obj 198 385 *~;
#X obj 250 386 *~;
#X obj 217 430 dac~;
#X obj 486 151 lop~ 30;
#X connect 0 0 1 0;
#X connect 1 0 12 0;
#X connect 2 0 3 0;
#X connect 3 0 4 0;
#X connect 4 0 5 0;
#X connect 5 0 29 0;
#X connect 6 0 7 0;
#X connect 7 0 13 0;
#X connect 8 0 5 1;
#X connect 9 0 10 0;
#X connect 10 0 14 0;
#X connect 11 0 30 0;
#X connect 11 0 32 0;
#X connect 11 0 34 1;
#X connect 12 0 2 0;
#X connect 13 0 8 0;
#X connect 14 0 11 0;
#X connect 17 0 18 0;
#X connect 18 0 20 0;
#X connect 19 0 38 0;
#X connect 20 0 19 0;
#X connect 21 0 22 0;
#X connect 21 0 23 0;
#X connect 22 0 24 0;
#X connect 23 0 25 0;
#X connect 24 0 20 3;
#X connect 25 0 20 4;
#X connect 26 0 27 0;
#X connect 27 0 19 1;
#X connect 28 0 3 1;
#X connect 28 0 8 1;
#X connect 28 0 11 1;
#X connect 29 0 35 0;
#X connect 29 0 36 0;
#X connect 30 0 31 0;
#X connect 31 0 29 1;
#X connect 32 0 35 1;
#X connect 33 0 34 0;
#X connect 34 0 36 1;
#X connect 35 0 37 0;
#X connect 36 0 37 1;
#X connect 38 0 28 0;
