#N canvas 0 23 1280 744 12;
#X obj 1079 451 metro 0.5 120 permin;
#X obj 1079 475 bng 15 250 50 0 empty empty empty 17 7 0 10 -262144
-1 -1;
#X obj 1079 413 tgl 15 0 empty empty empty 17 7 0 10 -262144 -1 -1
0 1;
#X msg 1103 414 tempo \$1 permin;
#X floatatom 1025 328 5 0 0 0 - - -;
#X msg 1026 250 200 20000;
#X obj 1103 365 line;
#X obj 997 582 *~;
#X obj 1078 520 vline~;
#X obj 88 7 tgl 15 0 empty empty empty 17 7 0 10 -262144 -1 -1 0 1
;
#X msg 88 27 \; pd dsp \$1;
#X obj 1015 560 *~;
#X obj 995 694 dac~;
#X obj 996 659 *~;
#X floatatom 1015 633 5 0 0 0 - - -;
#X msg 1079 495 1.1 2 \, 0 200 5;
#X obj 996 606 clip~ -1 1;
#X floatatom 1026 276 5 0 0 0 - - -;
#X floatatom 1112 389 5 0 0 0 - - -;
#X msg 1026 300 \$1 5000;
#X floatatom 1103 281 5 0 0 0 - - -;
#X msg 1103 328 \$1 \$2;
#X floatatom 1177 281 5 0 0 0 - - -;
#X obj 1104 214 tgl 15 0 empty empty empty 17 7 0 10 -262144 -1 -1
0 1;
#X obj 1104 234 metro 2000;
#X obj 1104 258 random 300;
#X obj 349 448 metro 0.5 120 permin;
#X obj 349 472 bng 15 250 50 0 empty empty empty 17 7 0 10 -262144
-1 -1;
#X obj 349 410 tgl 15 0 empty empty empty 17 7 0 10 -262144 -1 -1 0
1;
#X msg 373 411 tempo \$1 permin;
#X floatatom 300 328 5 0 0 0 - - -;
#X msg 297 235 200 20000;
#X obj 373 364 line;
#X obj 257 576 *~;
#X obj 348 517 vline~;
#X obj 275 552 *~;
#X obj 255 691 dac~;
#X obj 256 656 *~;
#X floatatom 275 630 5 0 0 0 - - -;
#X msg 349 492 1.1 2 \, 0 200 5;
#X obj 256 603 clip~ -1 1;
#X floatatom 297 260 5 0 0 0 - - -;
#X floatatom 380 385 5 0 0 0 - - -;
#X msg 297 284 \$1 5000;
#X floatatom 373 280 5 0 0 0 - - -;
#X msg 373 327 \$1 \$2;
#X floatatom 426 281 5 0 0 0 - - -;
#X obj 374 213 tgl 15 0 empty empty empty 17 7 0 10 -262144 -1 -1 0
1;
#X obj 374 233 metro 2000;
#X obj 374 257 random 300;
#X obj 998 411 osc~ 200;
#X obj 258 408 osc~ 300.5;
#X obj 589 451 metro 0.5 120 permin;
#X obj 589 475 bng 15 250 50 0 empty empty empty 17 7 0 10 -262144
-1 -1;
#X obj 589 413 tgl 15 0 empty empty empty 17 7 0 10 -262144 -1 -1 0
1;
#X msg 613 414 tempo \$1 permin;
#X floatatom 535 329 5 0 0 0 - - -;
#X msg 537 238 200 20000;
#X obj 613 367 line;
#X obj 497 579 *~;
#X obj 588 520 vline~;
#X obj 515 555 *~;
#X obj 495 694 dac~;
#X obj 496 659 *~;
#X floatatom 515 633 5 0 0 0 - - -;
#X msg 589 495 1.1 2 \, 0 200 5;
#X obj 496 606 clip~ -1 1;
#X floatatom 537 263 5 0 0 0 - - -;
#X floatatom 620 388 5 0 0 0 - - -;
#X msg 537 287 \$1 5000;
#X floatatom 613 283 5 0 0 0 - - -;
#X msg 613 330 \$1 \$2;
#X floatatom 666 284 5 0 0 0 - - -;
#X obj 614 216 tgl 15 0 empty empty empty 17 7 0 10 -262144 -1 -1 0
1;
#X obj 614 236 metro 2000;
#X obj 614 260 random 300;
#X obj 498 411 osc~ 400.5;
#X obj 1103 303 pack f 2000;
#X obj 373 304 pack f 5000;
#X obj 613 307 pack f 1000;
#X floatatom 500 28 5 0 0 0 - - -;
#X obj 260 83 * 2;
#X obj 260 107 / 3;
#X obj 498 83 * 3;
#X obj 498 107 / 4;
#X obj 740 83 * 4;
#X obj 740 107 / 5;
#X text 20 49 oct;
#X text 256 58 5th;
#X text 494 56 4th;
#X text 735 54 3rd;
#X floatatom 21 133 5 0 0 0 - - -;
#X floatatom 260 140 5 0 0 0 - - -;
#X floatatom 498 139 5 0 0 0 - - -;
#X floatatom 740 139 5 0 0 0 - - -;
#X floatatom 31 180 5 0 0 0 - - -;
#X floatatom 270 187 5 0 0 0 - - -;
#X floatatom 508 186 5 0 0 0 - - -;
#X floatatom 750 186 5 0 0 0 - - -;
#X obj 31 156 ftom;
#X obj 270 163 ftom;
#X obj 508 162 ftom;
#X obj 750 162 ftom;
#X floatatom 999 140 5 0 0 0 - - -;
#X floatatom 1005 187 5 0 0 0 - - -;
#X obj 999 163 ftom;
#X obj 827 452 metro 0.5 120 permin;
#X obj 827 476 bng 15 250 50 0 empty empty empty 17 7 0 10 -262144
-1 -1;
#X obj 827 414 tgl 15 0 empty empty empty 17 7 0 10 -262144 -1 -1 0
1;
#X msg 851 415 tempo \$1 permin;
#X floatatom 773 330 5 0 0 0 - - -;
#X msg 775 239 200 20000;
#X obj 851 368 line;
#X obj 735 580 *~;
#X obj 826 521 vline~;
#X obj 753 556 *~;
#X obj 733 695 dac~;
#X obj 734 660 *~;
#X floatatom 753 634 5 0 0 0 - - -;
#X msg 827 496 1.1 2 \, 0 200 5;
#X obj 734 607 clip~ -1 1;
#X floatatom 775 264 5 0 0 0 - - -;
#X floatatom 858 389 5 0 0 0 - - -;
#X msg 775 288 \$1 5000;
#X floatatom 851 284 5 0 0 0 - - -;
#X msg 851 331 \$1 \$2;
#X floatatom 904 285 5 0 0 0 - - -;
#X obj 852 217 tgl 15 0 empty empty empty 17 7 0 10 -262144 -1 -1 0
1;
#X obj 852 237 metro 2000;
#X obj 852 261 random 300;
#X obj 736 412 osc~ 400.5;
#X obj 851 308 pack f 1000;
#X obj 110 446 metro 0.5 120 permin;
#X obj 110 470 bng 15 250 50 0 empty empty empty 17 7 0 10 -262144
-1 -1;
#X obj 110 408 tgl 15 0 empty empty empty 17 7 0 10 -262144 -1 -1 0
1;
#X msg 134 409 tempo \$1 permin;
#X floatatom 56 324 5 0 0 0 - - -;
#X msg 58 233 200 20000;
#X obj 134 362 line;
#X obj 18 574 *~;
#X obj 109 515 vline~;
#X obj 36 550 *~;
#X obj 16 689 dac~;
#X obj 17 654 *~;
#X floatatom 36 628 5 0 0 0 - - -;
#X msg 110 490 1.1 2 \, 0 200 5;
#X obj 17 601 clip~ -1 1;
#X floatatom 58 258 5 0 0 0 - - -;
#X floatatom 141 383 5 0 0 0 - - -;
#X msg 58 282 \$1 5000;
#X floatatom 134 278 5 0 0 0 - - -;
#X msg 134 325 \$1 \$2;
#X floatatom 187 279 5 0 0 0 - - -;
#X obj 135 211 tgl 15 0 empty empty empty 17 7 0 10 -262144 -1 -1 0
1;
#X obj 135 231 metro 2000;
#X obj 135 255 random 300;
#X obj 19 406 osc~ 400.5;
#X obj 134 302 pack f 1000;
#X obj 21 74 / 2;
#X connect 0 0 1 0;
#X connect 1 0 15 0;
#X connect 2 0 0 0;
#X connect 3 0 0 0;
#X connect 4 0 3 0;
#X connect 5 0 6 0;
#X connect 6 0 3 0;
#X connect 6 0 18 0;
#X connect 7 0 16 0;
#X connect 8 0 11 0;
#X connect 8 0 11 1;
#X connect 9 0 10 0;
#X connect 11 0 7 1;
#X connect 13 0 12 0;
#X connect 13 0 12 1;
#X connect 14 0 13 1;
#X connect 15 0 8 0;
#X connect 16 0 13 0;
#X connect 17 0 19 0;
#X connect 19 0 6 0;
#X connect 20 0 77 0;
#X connect 21 0 6 0;
#X connect 22 0 77 1;
#X connect 23 0 24 0;
#X connect 24 0 25 0;
#X connect 25 0 20 0;
#X connect 26 0 27 0;
#X connect 27 0 39 0;
#X connect 28 0 26 0;
#X connect 29 0 26 0;
#X connect 30 0 29 0;
#X connect 31 0 32 0;
#X connect 32 0 29 0;
#X connect 32 0 42 0;
#X connect 33 0 40 0;
#X connect 34 0 35 0;
#X connect 34 0 35 1;
#X connect 35 0 33 1;
#X connect 37 0 36 0;
#X connect 37 0 36 1;
#X connect 38 0 37 1;
#X connect 39 0 34 0;
#X connect 40 0 37 0;
#X connect 41 0 43 0;
#X connect 43 0 32 0;
#X connect 44 0 78 0;
#X connect 45 0 32 0;
#X connect 46 0 78 1;
#X connect 47 0 48 0;
#X connect 48 0 49 0;
#X connect 49 0 44 0;
#X connect 50 0 7 0;
#X connect 51 0 33 0;
#X connect 52 0 53 0;
#X connect 53 0 65 0;
#X connect 54 0 52 0;
#X connect 55 0 52 0;
#X connect 56 0 55 0;
#X connect 57 0 58 0;
#X connect 58 0 55 0;
#X connect 58 0 68 0;
#X connect 59 0 66 0;
#X connect 60 0 61 0;
#X connect 60 0 61 1;
#X connect 61 0 59 1;
#X connect 63 0 62 0;
#X connect 63 0 62 1;
#X connect 64 0 63 1;
#X connect 65 0 60 0;
#X connect 66 0 63 0;
#X connect 67 0 69 0;
#X connect 69 0 58 0;
#X connect 70 0 79 0;
#X connect 71 0 58 0;
#X connect 72 0 79 1;
#X connect 73 0 74 0;
#X connect 74 0 75 0;
#X connect 75 0 70 0;
#X connect 76 0 59 0;
#X connect 77 0 21 0;
#X connect 78 0 45 0;
#X connect 79 0 71 0;
#X connect 80 0 81 0;
#X connect 80 0 83 0;
#X connect 80 0 85 0;
#X connect 80 0 103 0;
#X connect 80 0 158 0;
#X connect 81 0 82 0;
#X connect 82 0 92 0;
#X connect 83 0 84 0;
#X connect 84 0 93 0;
#X connect 85 0 86 0;
#X connect 86 0 94 0;
#X connect 91 0 99 0;
#X connect 91 0 156 0;
#X connect 92 0 100 0;
#X connect 92 0 51 0;
#X connect 93 0 101 0;
#X connect 93 0 76 0;
#X connect 94 0 102 0;
#X connect 94 0 130 0;
#X connect 99 0 95 0;
#X connect 100 0 96 0;
#X connect 101 0 97 0;
#X connect 102 0 98 0;
#X connect 103 0 105 0;
#X connect 103 0 50 0;
#X connect 105 0 104 0;
#X connect 106 0 107 0;
#X connect 107 0 119 0;
#X connect 108 0 106 0;
#X connect 109 0 106 0;
#X connect 110 0 109 0;
#X connect 111 0 112 0;
#X connect 112 0 109 0;
#X connect 112 0 122 0;
#X connect 113 0 120 0;
#X connect 114 0 115 0;
#X connect 114 0 115 1;
#X connect 115 0 113 1;
#X connect 117 0 116 0;
#X connect 117 0 116 1;
#X connect 118 0 117 1;
#X connect 119 0 114 0;
#X connect 120 0 117 0;
#X connect 121 0 123 0;
#X connect 123 0 112 0;
#X connect 124 0 131 0;
#X connect 125 0 112 0;
#X connect 126 0 131 1;
#X connect 127 0 128 0;
#X connect 128 0 129 0;
#X connect 129 0 124 0;
#X connect 130 0 113 0;
#X connect 131 0 125 0;
#X connect 132 0 133 0;
#X connect 133 0 145 0;
#X connect 134 0 132 0;
#X connect 135 0 132 0;
#X connect 136 0 135 0;
#X connect 137 0 138 0;
#X connect 138 0 135 0;
#X connect 138 0 148 0;
#X connect 139 0 146 0;
#X connect 140 0 141 0;
#X connect 140 0 141 1;
#X connect 141 0 139 1;
#X connect 143 0 142 0;
#X connect 143 0 142 1;
#X connect 144 0 143 1;
#X connect 145 0 140 0;
#X connect 146 0 143 0;
#X connect 147 0 149 0;
#X connect 149 0 138 0;
#X connect 150 0 157 0;
#X connect 151 0 138 0;
#X connect 152 0 157 1;
#X connect 153 0 154 0;
#X connect 154 0 155 0;
#X connect 155 0 150 0;
#X connect 156 0 139 0;
#X connect 157 0 151 0;
#X connect 158 0 91 0;
