#N canvas 2 66 1205 778 10;
#X obj 464 13 bng 15 250 50 0 empty empty empty 17 7 0 10 -262144 -1
-1;
#X obj 464 31 openpanel;
#X obj 464 73 soundfiler;
#X text 486 13 read sample;
#X floatatom 465 98 15 0 0 0 - - -, f 15;
#X obj 100 390 bng 15 250 50 0 empty empty empty 17 7 0 10 -262144
-1 -1;
#N canvas 141 83 481 574 one_grain_basic_cosine 0;
#X obj 154 432 outlet~;
#X obj 37 221 line~;
#X obj 37 401 *~ 0.5;
#X obj 37 310 *~;
#X obj 37 378 *~;
#X text 102 159 start point in smpl(0-1) \, destination (0-1) \, time
;
#X text 85 377 multiply audio file * envelope;
#X msg 56 188 0 \, 1 100;
#X text 258 339 or use a table;
#X obj 52 274 r length;
#X msg 37 159 \$1 \, \$2 \$3;
#X msg 138 248 0 \, 127 \$3;
#X obj 37 133 t l l, f 17;
#X obj 138 274 line~;
#X obj 138 339 tabread~ hanning01;
#X obj 37 433 throw~ grain;
#X text 183 278 comment;
#X obj 37 334 tabread4~ kac;
#X obj 42 103 inlet;
#X connect 1 0 3 0;
#X connect 2 0 0 0;
#X connect 2 0 15 0;
#X connect 3 0 17 0;
#X connect 4 0 2 0;
#X connect 7 0 1 0;
#X connect 9 0 3 1;
#X connect 10 0 1 0;
#X connect 11 0 13 0;
#X connect 12 0 10 0;
#X connect 12 1 11 0;
#X connect 13 0 14 0;
#X connect 14 0 4 1;
#X connect 17 0 4 0;
#X connect 18 0 12 0;
#X restore 163 631 pd one_grain_basic_cosine;
#X obj 509 699 dac~;
#X obj 464 116 s length;
#X obj 110 576 gate;
#X obj 131 556 tgl 15 0 empty empty empty 17 7 0 10 -262144 -1 -1 1
1;
#X obj 150 603 route 0 1 2 3;
#X obj 508 643 catch~ grain;
#N canvas 675 50 631 412 one_grain_basic_cosine 0;
#X obj 175 338 outlet~;
#X obj 94 126 line~;
#X obj 94 306 *~ 0.5;
#X obj 94 215 *~;
#X obj 94 283 *~;
#X text 198 71 THIS is the basic : ONE GRAIN;
#X text 159 94 start point in smpl(0-1) \, destination (0-1) \, time
;
#X obj 94 40 inlet;
#X text 142 282 multiply audio file * envelope;
#X msg 24 99 0 \, 1 100;
#X text 240 183 we get cosine by taking cos of line \, taking half
of it (how?) then dividing by 2 and adding 1 so it sits at zero;
#X text 245 212 or use a table;
#X obj 109 169 r length;
#X msg 94 94 \$1 \, \$2 \$3;
#X msg 195 153 0 \, 127 \$3;
#X obj 94 68 t l l;
#X obj 195 179 line~;
#X obj 195 244 tabread~ hanning01;
#X obj 94 338 throw~ grain;
#X obj 94 239 tabread4~ kac;
#X connect 1 0 3 0;
#X connect 2 0 0 0;
#X connect 2 0 18 0;
#X connect 3 0 19 0;
#X connect 4 0 2 0;
#X connect 7 0 15 0;
#X connect 9 0 1 0;
#X connect 12 0 3 1;
#X connect 13 0 1 0;
#X connect 14 0 16 0;
#X connect 15 0 13 0;
#X connect 15 1 14 0;
#X connect 16 0 17 0;
#X connect 17 0 4 1;
#X connect 19 0 4 0;
#X restore 181 649 pd one_grain_basic_cosine;
#N canvas 185 50 690 433 one_grain_basic_cosine 0;
#X obj 166 334 outlet~;
#X obj 85 122 line~;
#X obj 85 302 *~ 0.5;
#X obj 85 211 *~;
#X obj 85 279 *~;
#X text 189 67 THIS is the basic : ONE GRAIN;
#X text 150 90 start point in smpl(0-1) \, destination (0-1) \, time
;
#X obj 85 36 inlet;
#X text 133 278 multiply audio file * envelope;
#X msg 15 95 0 \, 1 100;
#X text 231 179 we get cosine by taking cos of line \, taking half
of it (how?) then dividing by 2 and adding 1 so it sits at zero;
#X text 236 208 or use a table;
#X obj 100 185 r length;
#X msg 85 90 \$1 \, \$2 \$3;
#X msg 186 149 0 \, 127 \$3;
#X obj 85 64 t l l;
#X obj 186 175 line~;
#X obj 186 240 tabread~ hanning01;
#X obj 85 334 throw~ grain;
#X obj 85 235 tabread4~ kac;
#X connect 1 0 3 0;
#X connect 2 0 0 0;
#X connect 2 0 18 0;
#X connect 3 0 19 0;
#X connect 4 0 2 0;
#X connect 7 0 15 0;
#X connect 9 0 1 0;
#X connect 12 0 3 1;
#X connect 13 0 1 0;
#X connect 14 0 16 0;
#X connect 15 0 13 0;
#X connect 15 1 14 0;
#X connect 16 0 17 0;
#X connect 17 0 4 1;
#X connect 19 0 4 0;
#X restore 200 663 pd one_grain_basic_cosine;
#N canvas 704 167 657 401 one_grain_basic_cosine 0;
#X obj 196 334 outlet~;
#X obj 115 122 line~;
#X obj 115 302 *~ 0.5;
#X obj 115 211 *~;
#X obj 115 279 *~;
#X text 219 67 THIS is the basic : ONE GRAIN;
#X text 180 90 start point in smpl(0-1) \, destination (0-1) \, time
;
#X obj 115 36 inlet;
#X text 163 278 multiply audio file * envelope;
#X msg 45 95 0 \, 1 100;
#X text 261 179 we get cosine by taking cos of line \, taking half
of it (how?) then dividing by 2 and adding 1 so it sits at zero;
#X text 266 208 or use a table;
#X obj 130 185 r length;
#X msg 115 90 \$1 \, \$2 \$3;
#X msg 216 149 0 \, 127 \$3;
#X obj 115 64 t l l;
#X obj 216 175 line~;
#X obj 216 240 tabread~ hanning01;
#X obj 115 334 throw~ grain;
#X obj 115 235 tabread4~ kac;
#X connect 1 0 3 0;
#X connect 2 0 0 0;
#X connect 2 0 18 0;
#X connect 3 0 19 0;
#X connect 4 0 2 0;
#X connect 7 0 15 0;
#X connect 9 0 1 0;
#X connect 12 0 3 1;
#X connect 13 0 1 0;
#X connect 14 0 16 0;
#X connect 15 0 13 0;
#X connect 15 1 14 0;
#X connect 16 0 17 0;
#X connect 17 0 4 1;
#X connect 19 0 4 0;
#X restore 219 680 pd one_grain_basic_cosine;
#X text 351 565 global controls: start dur pitch;
#X text 308 583 each grain has control over: start dest time;
#X obj 47 93 r length;
#X obj 196 53 tgl 15 0 empty empty empty 17 7 0 10 -262144 -1 -1 0
1;
#X floatatom 352 423 5 0 0 0 - - -, f 5;
#X obj 587 474 + 5;
#X floatatom 598 508 5 0 0 0 - - -, f 5;
#X obj 391 383 random 1000;
#X obj 261 462 t f f;
#X obj 62 249 s g_start;
#N canvas 0 50 450 278 (subpatch) 0;
#X array kac 71997 float 2;
#X coords 0 1 71997 -1 200 140 1;
#X restore 628 106 graph;
#X msg 464 52 read -resize \$1 kac;
#X obj 468 258 *~ 0.5;
#X obj 468 286 dac~;
#X obj 471 146 hsl 128 15 0 604801 0 0 empty empty empty -2 -8 0 10
-262144 -1 -1 0 1;
#X obj 468 188 line~;
#X msg 469 167 \$1 10;
#X obj 468 210 lop~ 0.3;
#X text 510 169 skraczer;
#X obj 468 235 tabread4~ kac;
#X obj 584 388 random 1000;
#X obj 37 349 bng 16 250 50 0 empty empty empty 0 -8 0 10 -262144 -1
-1;
#X text 181 439 start point in smpl(0-1);
#X text 463 494 destination (0-1);
#X text 614 476 time (0-50ms);
#X floatatom 154 250 5 0 0 0 - - -, f 5;
#X obj 123 116 change;
#X obj 123 94 r min_sens;
#X obj 122 154 / 32, f 10;
#X obj 62 215 *, f 15;
#X floatatom 196 116 5 0 0 0 - - -, f 5;
#X floatatom 196 181 5 0 0 0 - - -, f 5;
#X obj 122 186 t b f;
#X obj 296 68 r length;
#X floatatom 400 218 5 0 0 0 - - -, f 5;
#X obj 367 106 / 32;
#X obj 307 177 *, f 15;
#X floatatom 421 143 5 0 0 0 - - -, f 5;
#X obj 367 148 t b f;
#X obj 208 3 v sensor_amt;
#X msg 368 85 1;
#X obj 368 67 loadbang;
#X obj 291 228 s slice_length;
#X obj 664 330 r slice_length;
#X floatatom 296 506 5 0 0 0 - - -, f 5;
#X floatatom 417 520 5 0 0 0 - - -, f 5;
#X obj 312 294 r length;
#X obj 391 496 -;
#X obj 391 422 /;
#X obj 133 303 r g_start;
#X obj 196 92 random 32;
#X floatatom 404 448 5 0 0 0 - - -, f 5;
#X obj 261 410 /;
#X obj 700 418 tgl 16 0 empty empty empty 0 -8 0 10 -262144 -1 -1 1
1;
#X msg 700 439 \; pd dsp \$1;
#X floatatom 677 359 5 0 0 0 - - -, f 5;
#X obj 312 315 t f f f, f 30;
#X obj 587 432 * 0.1;
#X obj 534 669 rev2~ 80 80;
#X msg 133 389 1;
#X obj 133 358 t b f b b, f 65;
#X obj 33 506 print;
#X obj 121 536 pack 0 0 0 0, f 65;
#X obj 131 433 +;
#X obj 606 354 bng 15 250 50 0 empty empty empty 17 7 0 10 -262144
-1 -1;
#X obj 427 336 bng 15 250 50 0 empty empty empty 17 7 0 10 -262144
-1 -1;
#X obj 245 325 bng 15 250 50 0 empty empty empty 17 7 0 10 -262144
-1 -1;
#X obj 104 327 bng 15 250 50 0 empty empty empty 17 7 0 10 -262144
-1 -1;
#X obj 163 433 f;
#X msg 179 574 \$1 \$2 \$3 \$4;
#X obj 131 477 % 4;
#X obj 196 71 metro 109;
#N canvas 201 294 643 394 hanning 0;
#N canvas 0 50 450 278 (subpatch) 0;
#X array hanning01 512 float 0;
#X coords 0 1 511 -1 200 140 1 0 0;
#X restore 14 126 graph;
#X text 250 159 0.5*(1+cos(pi*x));
#X obj 222 71 t f f;
#X obj 222 157 *;
#X obj 153 12 bng 15 250 50 0 empty empty empty 17 7 0 10 -262144 -1
-1;
#X obj 222 181 cos;
#X obj 222 202 + 1;
#X obj 222 224 * 0.5;
#X obj 222 248 tabwrite hanning01;
#X obj 327 97 - 1;
#X obj 222 117 - 1;
#X text 247 117 from -1 to 1;
#X obj 178 11 loadbang;
#X floatatom 17 77 5 0 0 0 - - -, f 5;
#X obj 17 56 expr size("$s1");
#X msg 17 34 symbol hanning01;
#X obj 23 289 table hanning2;
#X text 413 161 0.5*(1+cos(pi*x));
#X obj 385 73 t f f;
#X obj 385 159 *;
#X obj 346 23 bng 15 250 50 0 empty empty empty 17 7 0 10 -262144 -1
-1;
#X obj 385 183 cos;
#X obj 385 204 + 1;
#X obj 385 226 * 0.5;
#X obj 484 99 - 1;
#X obj 385 119 - 1;
#X obj 385 96 / 64;
#X text 410 119 from -1 to 1;
#X obj 371 22 loadbang;
#X obj 385 250 tabwrite hanning2;
#X obj 222 94 / 256;
#X obj 153 31 cyclone/uzi 512;
#X obj 346 42 cyclone/uzi 128;
#X obj 255 140 else/pi;
#X obj 417 139 else/pi;
#X connect 2 0 30 0;
#X connect 2 1 9 0;
#X connect 3 0 5 0;
#X connect 4 0 31 0;
#X connect 4 0 15 0;
#X connect 5 0 6 0;
#X connect 6 0 7 0;
#X connect 7 0 8 0;
#X connect 9 0 8 1;
#X connect 10 0 3 0;
#X connect 12 0 31 0;
#X connect 14 0 13 0;
#X connect 15 0 14 0;
#X connect 18 0 26 0;
#X connect 18 1 24 0;
#X connect 19 0 21 0;
#X connect 20 0 32 0;
#X connect 21 0 22 0;
#X connect 22 0 23 0;
#X connect 23 0 29 0;
#X connect 24 0 29 1;
#X connect 25 0 19 0;
#X connect 26 0 25 0;
#X connect 28 0 32 0;
#X connect 30 0 10 0;
#X connect 31 2 2 0;
#X connect 32 2 18 0;
#X connect 33 0 3 1;
#X connect 34 0 19 1;
#X restore 635 21 pd hanning;
#X obj 662 634 clone grain_list_clone 32;
#X obj 154 63 bng 15 250 50 0 empty empty empty 17 7 0 10 -262144 -1
-1;
#X connect 0 0 1 0;
#X connect 1 0 27 0;
#X connect 2 0 4 0;
#X connect 4 0 8 0;
#X connect 5 0 79 0;
#X connect 9 0 11 0;
#X connect 10 0 9 1;
#X connect 11 0 6 0;
#X connect 11 1 13 0;
#X connect 11 2 14 0;
#X connect 11 3 15 0;
#X connect 12 0 7 0;
#X connect 12 0 7 1;
#X connect 12 0 74 0;
#X connect 18 0 45 0;
#X connect 19 0 87 0;
#X connect 21 0 22 0;
#X connect 21 0 78 3;
#X connect 23 0 20 0;
#X connect 23 0 64 0;
#X connect 24 0 78 1;
#X connect 24 1 63 1;
#X connect 27 0 2 0;
#X connect 28 0 29 0;
#X connect 28 0 29 1;
#X connect 30 0 32 0;
#X connect 31 0 33 0;
#X connect 32 0 31 0;
#X connect 33 0 35 0;
#X connect 35 0 28 0;
#X connect 36 0 73 0;
#X connect 37 0 76 0;
#X connect 42 0 44 0;
#X connect 43 0 42 0;
#X connect 44 0 47 0;
#X connect 44 0 48 0;
#X connect 45 0 41 0;
#X connect 45 0 25 0;
#X connect 46 0 44 0;
#X connect 48 0 45 0;
#X connect 48 1 45 1;
#X connect 49 0 52 0;
#X connect 51 0 53 0;
#X connect 51 0 54 0;
#X connect 52 0 50 0;
#X connect 52 0 58 0;
#X connect 54 0 52 0;
#X connect 54 1 52 1;
#X connect 56 0 51 0;
#X connect 57 0 56 0;
#X connect 59 0 36 1;
#X connect 59 0 71 0;
#X connect 62 0 72 0;
#X connect 63 0 61 0;
#X connect 63 0 78 2;
#X connect 64 0 63 0;
#X connect 64 0 67 0;
#X connect 65 0 76 0;
#X connect 66 0 46 0;
#X connect 66 0 89 0;
#X connect 68 0 24 0;
#X connect 69 0 70 0;
#X connect 72 0 68 1;
#X connect 72 1 64 1;
#X connect 72 2 23 1;
#X connect 73 0 21 0;
#X connect 74 0 7 0;
#X connect 74 1 7 1;
#X connect 75 0 79 0;
#X connect 76 0 75 0;
#X connect 76 1 68 0;
#X connect 76 2 23 0;
#X connect 76 3 36 0;
#X connect 78 0 9 0;
#X connect 79 0 84 0;
#X connect 79 0 86 0;
#X connect 80 0 36 0;
#X connect 81 0 23 0;
#X connect 82 0 72 0;
#X connect 83 0 76 0;
#X connect 84 0 79 1;
#X connect 86 0 78 0;
#X connect 87 0 66 0;
#X connect 90 0 66 0;
