#N canvas 394 206 892 744 10;
#X obj 93 102 print;
#X obj 93 73 spigot;
#X obj 132 52 tgl 15 0 empty empty empty 17 7 0 10 -262144 -1 -1 0
1;
#X obj 133 641 throw~ ch2;
#X obj 214 641 throw~ ch2pre;
#X obj 353 222 round_zero 0.01;
#X obj 352 242 * 5;
#X text 61 642 OUTPUTS:;
#X obj 134 612 hip~ 20;
#X floatatom 456 547 5 0 1 0 - patch2level -, f 5;
#X obj 456 638 switch~;
#X floatatom 469 613 2 0 0 0 - - -, f 2;
#X text 486 612 dsp;
#X obj 456 596 tgl 15 0 empty empty empty 17 7 0 10 -262144 -1 -1 0
1;
#X obj 456 567 oneARDinCOMPARE 0.1;
#X obj 353 199 r PTCH2_PAR_A3;
#X obj 135 411 catch~ grain;
#X obj 288 375 r light_gate;
#X obj 285 425 line~;
#X obj 243 412 tgl 15 0 empty empty empty 17 7 0 10 -262144 -1 -1 0
1;
#X obj 135 456 *~, f 22;
#X obj 134 575 +~, f 22;
#X obj 141 228 r PTCH2_PAR_A1;
#X obj 201 280 r PTCH2_PAR_A2;
#N canvas 315 172 1020 801 grains 1;
#N canvas 692 172 657 401 one_grain_basic_cosine 0;
#X obj 115 122 line~;
#X obj 115 302 *~ 0.5;
#X obj 115 191 *~;
#X obj 115 279 *~;
#X text 219 67 THIS is the basic : ONE GRAIN;
#X text 180 90 start point in smpl(0-1) \, destination (0-1) \, time
;
#X obj 115 36 inlet;
#X text 163 278 multiply audio file * envelope;
#X msg 45 95 0 \, 1 100;
#X text 261 179 we get cosine by taking cos of line \, taking half
of it (how?) then dividing by 2 and adding 1 so it sits at zero;
#X text 266 208 or use a table;
#X obj 133 165 r length;
#X msg 115 90 \$1 \, \$2 \$3;
#X msg 210 149 0 \, 127 \$3;
#X obj 115 64 t l l, f 14;
#X obj 210 175 line~;
#X obj 210 250 tabread~ hanning01;
#X obj 115 334 throw~ grain;
#X obj 115 215 tabread4~ kac;
#X connect 0 0 2 0;
#X connect 1 0 17 0;
#X connect 2 0 18 0;
#X connect 3 0 1 0;
#X connect 6 0 14 0;
#X connect 8 0 0 0;
#X connect 11 0 2 1;
#X connect 12 0 0 0;
#X connect 13 0 15 0;
#X connect 14 0 12 0;
#X connect 14 1 13 0;
#X connect 15 0 16 0;
#X connect 16 0 3 1;
#X connect 18 0 3 0;
#X restore 693 613 pd one_grain_basic_cosine;
#X text 333 704 global controls: start dur pitch;
#X text 290 722 each grain has control over: start dest time;
#X obj 129 14 r length;
#X obj 454 410 random 1000;
#X obj 268 428 t f f;
#X obj 129 210 s g_start;
#X obj 570 394 random 1000;
#X text 439 531 destination (0-1);
#X text 602 567 time (0-50ms);
#X floatatom 213 209 9 0 0 0 - - -, f 9;
#X obj 199 81 change;
#X obj 199 14 r min_sens;
#X obj 129 176 *, f 15;
#X obj 148 147 t b f;
#X obj 807 254 r length;
#X obj 807 343 *, f 15;
#X obj 807 375 s slice_length;
#X obj 644 336 r slice_length;
#X obj 406 465 /;
#X obj 118 229 r g_start;
#X obj 268 406 /;
#X obj 321 351 t f f f, f 30;
#X obj 118 304 t b f b b, f 65;
#X obj 118 612 pack 0 0 0 0, f 65;
#X obj 592 360 bng 15 250 50 0 empty empty empty 17 7 0 10 -262144
-1 -1;
#X obj 385 387 bng 15 250 50 0 empty empty empty 17 7 0 10 -262144
-1 -1;
#X obj 293 334 bng 15 250 50 0 empty empty empty 17 7 0 10 -262144
-1 -1;
#X obj 133 273 bng 15 250 50 0 empty empty empty 17 7 0 10 -262144
-1 -1;
#X floatatom 246 51 5 0 0 0 - - -, f 5;
#X obj 118 416 i, f 12;
#X text 10 357 play clone based on sensor number;
#X floatatom 138 445 5 0 0 0 - - -, f 5;
#X text 280 500 start 0-1;
#X obj 686 151 inlet len;
#X obj 570 532 *, f 17;
#X obj 448 155 inlet len;
#X obj 430 570 *;
#X obj 226 498 print;
#X obj 219 115 / 32, f 17;
#X floatatom 727 378 9 0 0 0 - - -, f 9;
#X floatatom 671 379 5 0 0 0 - - -, f 5;
#X obj 321 330 r slice_length;
#X floatatom 752 277 10 0 0 0 - - -, f 10;
#X floatatom 219 137 5 0 0 0 - - -, f 5;
#X obj 50 580 print;
#X obj 50 551 spigot;
#X obj 89 530 tgl 15 0 empty empty empty 17 7 0 10 -262144 -1 -1 0
1;
#X floatatom 475 450 5 0 0 0 - - -, f 5;
#X obj 406 532 +;
#X obj 570 554 + 5;
#X obj 686 193 * 1;
#X obj 570 438 * 0.001;
#X obj 118 647 clone -s 1 1_grain_list_clone 32;
#X connect 3 0 13 0;
#X connect 4 0 19 0;
#X connect 5 0 24 1;
#X connect 5 1 49 0;
#X connect 7 0 52 0;
#X connect 11 0 30 1;
#X connect 11 0 39 0;
#X connect 12 0 11 0;
#X connect 13 0 10 0;
#X connect 13 0 6 0;
#X connect 14 0 13 0;
#X connect 14 1 13 1;
#X connect 15 0 16 0;
#X connect 15 0 43 0;
#X connect 16 0 17 0;
#X connect 16 0 40 0;
#X connect 18 0 7 1;
#X connect 18 0 41 0;
#X connect 19 0 49 1;
#X connect 20 0 23 0;
#X connect 21 0 5 0;
#X connect 22 0 21 1;
#X connect 22 1 19 1;
#X connect 22 2 4 1;
#X connect 23 0 30 0;
#X connect 23 1 21 0;
#X connect 23 2 4 0;
#X connect 23 3 7 0;
#X connect 24 0 53 0;
#X connect 25 0 7 0;
#X connect 26 0 4 0;
#X connect 27 0 22 0;
#X connect 28 0 23 0;
#X connect 29 0 11 0;
#X connect 30 0 24 0;
#X connect 30 0 32 0;
#X connect 34 0 51 0;
#X connect 35 0 50 0;
#X connect 36 0 37 1;
#X connect 37 0 24 2;
#X connect 39 0 14 0;
#X connect 39 0 44 0;
#X connect 39 0 16 1;
#X connect 42 0 22 0;
#X connect 46 0 45 0;
#X connect 47 0 46 1;
#X connect 49 0 37 0;
#X connect 50 0 24 3;
#X connect 51 0 35 1;
#X connect 52 0 35 0;
#X restore 141 306 pd grains;
#X text 141 209 length factor;
#X text 202 265 destination;
#X obj 652 549 bng 15 250 50 0 empty empty empty 17 7 0 10 -262144
-1 -1;
#X obj 632 527 r PTCH2_PAR_D1;
#X text 631 508 load smpl;
#N canvas 0 172 1398 512 manage_samples 0;
#X obj 47 43 r SMPL_SELECT;
#X obj 47 66 + 1;
#X floatatom 47 91 5 0 0 0 - - -, f 5;
#X text 1035 58 load new sample;
#X obj 536 431 soundfiler;
#X floatatom 536 456 15 0 0 0 - - -, f 15;
#X obj 536 474 s length;
#X msg 536 410 read -resize \$1 kac;
#X obj 74 135 bng 15 250 50 0 empty empty empty 17 7 0 10 -262144 -1
-1;
#X obj 142 174 + 1;
#X obj 100 183 i;
#X obj 100 255 + 100;
#X floatatom 193 160 5 0 0 0 - - -, f 5;
#X obj 181 138 r SMPL_FX_AMT;
#X msg 100 280 /home/ccrma/pd/sample/FX/FX_SMPL0\$1.wav;
#X obj 142 196 %, f 6;
#X obj 100 305 prepend read;
#X obj 383 164 bng 15 250 50 0 empty empty empty 17 7 0 10 -262144
-1 -1;
#X obj 451 202 + 1;
#X obj 409 211 i;
#X obj 451 224 %, f 6;
#X obj 409 253 + 100;
#X obj 490 175 r SMPL_VOICE_AMT, f 7;
#X msg 409 275 /home/ccrma/pd/sample/VOICE/VC_SMPL0\$1.wav;
#X obj 410 301 prepend read;
#X obj 760 196 + 1;
#X obj 718 215 i;
#X obj 718 247 + 100;
#X obj 760 218 %, f 6;
#X obj 718 297 prepend read;
#X obj 1006 177 bng 15 250 50 0 empty empty empty 17 7 0 10 -262144
-1 -1;
#X obj 1060 186 + 1;
#X obj 1028 205 i;
#X obj 1048 267 + 100;
#X obj 1060 208 %, f 6;
#X obj 1048 317 prepend read;
#X msg 1048 292 /home/ccrma/pd/sample/DRUM_LOOPS/DRL_SMPL0\$1.wav;
#X obj 799 151 r SMPL_STRINGS_AMT, f 9;
#X obj 1078 130 r SMPL_DRUM_LOOPS_AMT, f 10;
#X msg 718 272 /home/ccrma/pd/sample/STRINGS/STR_SMPL0\$1.wav;
#X obj 1028 39 inlet;
#X obj 726 355 print;
#X obj 100 85 cyclone/gate 4 1, f 133;
#X obj 795 112 loadbang;
#X connect 0 0 1 0;
#X connect 1 0 2 0;
#X connect 1 0 42 0;
#X connect 4 0 5 0;
#X connect 5 0 6 0;
#X connect 7 0 4 0;
#X connect 8 0 10 0;
#X connect 9 0 15 0;
#X connect 10 0 9 0;
#X connect 10 0 11 0;
#X connect 11 0 14 0;
#X connect 13 0 12 0;
#X connect 13 0 15 1;
#X connect 14 0 16 0;
#X connect 15 0 10 1;
#X connect 16 0 7 0;
#X connect 17 0 19 0;
#X connect 18 0 20 0;
#X connect 19 0 18 0;
#X connect 19 0 21 0;
#X connect 20 0 19 1;
#X connect 21 0 23 0;
#X connect 22 0 20 1;
#X connect 23 0 24 0;
#X connect 24 0 7 0;
#X connect 25 0 28 0;
#X connect 26 0 25 0;
#X connect 26 0 27 0;
#X connect 27 0 39 0;
#X connect 28 0 26 1;
#X connect 29 0 7 0;
#X connect 29 0 41 0;
#X connect 30 0 32 0;
#X connect 31 0 34 0;
#X connect 32 0 31 0;
#X connect 32 0 33 0;
#X connect 33 0 36 0;
#X connect 34 0 32 1;
#X connect 35 0 7 0;
#X connect 36 0 35 0;
#X connect 37 0 28 1;
#X connect 38 0 31 1;
#X connect 39 0 29 0;
#X connect 40 0 42 1;
#X connect 42 0 10 0;
#X connect 42 1 19 0;
#X connect 42 2 26 0;
#X connect 42 3 32 0;
#X connect 43 0 26 0;
#X restore 632 573 pd manage_samples;
#X floatatom 632 617 15 0 0 0 - - -, f 15;
#X obj 632 596 r length;
#N canvas 421 227 643 394 hanning 0;
#N canvas 0 50 450 278 (subpatch) 0;
#X array hanning01 512 float 0;
#X coords 0 1 511 -1 200 140 1 0 0;
#X restore 14 126 graph;
#X text 250 159 0.5*(1+cos(pi*x));
#X obj 222 71 t f f;
#X obj 222 157 *;
#X obj 153 12 bng 15 250 50 0 empty empty empty 17 7 0 10 -262144 -1
-1;
#X obj 222 181 cos;
#X obj 222 202 + 1;
#X obj 222 224 * 0.5;
#X obj 222 248 tabwrite hanning01;
#X obj 327 97 - 1;
#X obj 222 117 - 1;
#X text 247 117 from -1 to 1;
#X obj 178 11 loadbang;
#X floatatom 17 77 5 0 0 0 - - -, f 5;
#X obj 17 56 expr size("$s1");
#X msg 17 34 symbol hanning01;
#X obj 23 289 table hanning2;
#X text 413 161 0.5*(1+cos(pi*x));
#X obj 385 73 t f f;
#X obj 385 159 *;
#X obj 346 23 bng 15 250 50 0 empty empty empty 17 7 0 10 -262144 -1
-1;
#X obj 385 183 cos;
#X obj 385 204 + 1;
#X obj 385 226 * 0.5;
#X obj 484 99 - 1;
#X obj 385 119 - 1;
#X obj 385 96 / 64;
#X text 410 119 from -1 to 1;
#X obj 371 22 loadbang;
#X obj 385 250 tabwrite hanning2;
#X obj 222 94 / 256;
#X obj 153 31 cyclone/uzi 512;
#X obj 346 42 cyclone/uzi 128;
#X obj 255 140 else/pi;
#X obj 417 139 else/pi;
#X connect 2 0 30 0;
#X connect 2 1 9 0;
#X connect 3 0 5 0;
#X connect 4 0 31 0;
#X connect 4 0 15 0;
#X connect 5 0 6 0;
#X connect 6 0 7 0;
#X connect 7 0 8 0;
#X connect 9 0 8 1;
#X connect 10 0 3 0;
#X connect 12 0 31 0;
#X connect 14 0 13 0;
#X connect 15 0 14 0;
#X connect 18 0 26 0;
#X connect 18 1 24 0;
#X connect 19 0 21 0;
#X connect 20 0 32 0;
#X connect 21 0 22 0;
#X connect 22 0 23 0;
#X connect 23 0 29 0;
#X connect 24 0 29 1;
#X connect 25 0 19 0;
#X connect 26 0 25 0;
#X connect 28 0 32 0;
#X connect 30 0 10 0;
#X connect 31 2 2 0;
#X connect 32 2 18 0;
#X connect 33 0 3 1;
#X connect 34 0 19 1;
#X restore 631 641 pd hanning;
#X obj 676 549 bng 15 250 50 0 empty load_smpl_at_start load_smpl_at_start
17 7 0 10 -262144 -1 -1;
#N canvas 0 50 450 278 (subpatch) 0;
#X array kac 6809 float 2;
#X coords 0 1 6809 -1 200 140 1;
#X restore 513 209 graph;
#X obj 183 99 s PTCH2_PAR_A1;
#X obj 289 99 s PTCH2_PAR_A2;
#X obj 396 99 s PTCH2_PAR_A3;
#X obj 503 100 s PTCH2_PAR_D1;
#X obj 642 101 s PTCH2_PAR_D2;
#X obj 183 16 r PTCH2_CTRL_LIST;
#X obj 183 38 unpack f f f f f, f 61;
#X text 311 19 CTRL INPUTS;
#X text 186 116 length factor;
#X text 309 119 destination;
#X text 419 117 not used?;
#X obj 503 63 1_ARD_DIG_BTN 4 0;
#X text 519 121 load smpl;
#X msg 285 401 \$1 5;
#X obj 295 502 rev2~ 90 90 5000 40;
#X floatatom 206 76 5 0 0 0 - - -, f 5;
#X floatatom 316 76 5 0 0 0 - - -, f 5;
#X obj 347 414 tgl 15 0 empty empty empty 17 7 0 10 -262144 -1 -1 0
1;
#X obj 642 61 1_ARD_DIG_BTN;
#X connect 1 0 0 0;
#X connect 2 0 1 1;
#X connect 5 0 6 0;
#X connect 8 0 3 0;
#X connect 8 0 4 0;
#X connect 9 0 14 0;
#X connect 11 0 10 0;
#X connect 13 0 10 0;
#X connect 14 0 13 0;
#X connect 15 0 5 0;
#X connect 16 0 20 0;
#X connect 16 0 50 0;
#X connect 17 0 49 0;
#X connect 17 0 53 0;
#X connect 18 0 20 1;
#X connect 19 0 49 0;
#X connect 20 0 21 0;
#X connect 21 0 8 0;
#X connect 22 0 24 0;
#X connect 23 0 24 1;
#X connect 28 0 27 0;
#X connect 28 0 30 0;
#X connect 32 0 31 0;
#X connect 34 0 30 0;
#X connect 41 0 42 0;
#X connect 42 0 36 0;
#X connect 42 0 51 0;
#X connect 42 1 37 0;
#X connect 42 1 52 0;
#X connect 42 2 38 0;
#X connect 42 3 47 0;
#X connect 42 4 54 0;
#X connect 47 0 39 0;
#X connect 49 0 18 0;
#X connect 50 0 21 0;
#X connect 50 1 21 0;
#X connect 54 0 40 0;
