#N canvas 524 113 781 687 12;
#N canvas 0 22 450 278 (subpatch) 0;
#X array sampleData 17473 float 2;
#X coords 0 1 17473 -1 100 100 1 0 0;
#X restore 309 64 graph;
#X msg 105 45 read -resize \$1 sampleData;
#X obj 105 68 soundfiler;
#X obj 105 23 openpanel;
#X obj 105 4 bng 15 250 50 0 empty empty empty 17 7 0 10 #fcfcfc #000000 #000000;
#X floatatom 105 91 15 0 0 0 - - - 0;
#X obj 57 528 tabread4~ sampleData;
#X obj 57 576 *~;
#X obj 57 603 dac~;
#X floatatom 75 552 8 0 1 0 - - - 0;
#X obj 57 503 vline~;
#X msg 57 479 \$1 \, \$2 \$3;
#X text 138 450 start \, end time;
#X obj 57 454 pack f f f;
#X obj 124 431 / 44.1;
#X obj 83 71 bng 15 250 50 0 empty empty empty 17 7 0 10 #fcfcfc #000000 #000000;
#X msg 218 93 \; pd dsp \$1;
#X obj 218 73 tgl 15 0 empty empty empty 17 7 0 10 #fcfcfc #000000 #000000 0 1;
#X obj 105 115 t b f;
#X text 275 283 devide the length of the sequence by the number of subdivisions;
#X obj 170 289 expr $f2 / $f1;
#X floatatom 105 139 5 0 16 0 - - - 0;
#X floatatom 170 314 10 0 0 0 - - - 0;
#X text 239 166 stick to the power of two so we devide by multiples of 2;
#X obj 105 162 expr pow(2 \, $f1);
#X floatatom 105 247 5 0 0 0 - - - 0;
#X text 146 251 number of divisions;
#X obj 56 293 random;
#X obj 105 268 t f f;
#X obj 56 268 bng 15 250 50 0 empty empty empty 17 7 0 10 #fcfcfc #000000 #000000;
#X floatatom 116 315 5 0 0 0 - - - 0;
#X text 247 315 length of 1 segment;
#X obj 56 363 *;
#X text 97 355 start time = duration of each segment times number of segment;
#X text 131 385 end time will be the same (length of individual segment);
#X text 131 400 times number of segment + 1;
#X obj 90 387 + 1;
#X obj 90 411 *;
#X text 192 431 duration = segment length / sample rate;
#X obj 56 316 t f f;
#X floatatom 158 473 5 0 0 0 - - - 0;
#X obj 158 496 s metro;
#X text 200 472 time interval should be length of our segment;
#X obj 10 226 metro;
#X obj 42 190 r metro;
#X obj 10 191 tgl 15 0 empty empty empty 17 7 0 10 #fcfcfc #000000 #000000 0 1;
#X msg 116 225 32;
#X obj 128 202 v LDRS_AMOUNT;
#X connect 1 0 2 0;
#X connect 2 0 5 0;
#X connect 3 0 1 0;
#X connect 4 0 3 0;
#X connect 5 0 18 0;
#X connect 6 0 7 0;
#X connect 7 0 8 0;
#X connect 7 0 8 1;
#X connect 9 0 7 1;
#X connect 10 0 6 0;
#X connect 11 0 10 0;
#X connect 13 0 11 0;
#X connect 14 0 13 2;
#X connect 14 0 40 0;
#X connect 15 0 5 0;
#X connect 17 0 16 0;
#X connect 18 0 21 0;
#X connect 18 1 20 1;
#X connect 20 0 22 0;
#X connect 21 0 24 0;
#X connect 22 0 32 1;
#X connect 22 0 37 1;
#X connect 22 0 14 0;
#X connect 24 0 46 0;
#X connect 25 0 28 0;
#X connect 27 0 30 0;
#X connect 27 0 39 0;
#X connect 28 0 27 1;
#X connect 28 1 20 0;
#X connect 29 0 27 0;
#X connect 32 0 13 0;
#X connect 36 0 37 0;
#X connect 37 0 13 1;
#X connect 39 0 32 0;
#X connect 39 1 36 0;
#X connect 40 0 41 0;
#X connect 43 0 27 0;
#X connect 44 0 43 1;
#X connect 45 0 43 0;
#X connect 46 0 25 0;
#X connect 47 0 46 0;
