#N canvas 421 68 605 641 10;
#X obj 152 402 tabread4~ sampleData;
#X obj 152 377 vline~;
#X msg 152 336 \$1 \, \$2 \$3;
#X text 233 312 start \, end time;
#X obj 152 311 pack f f f;
#X obj 152 252 t f f;
#X floatatom 95 230 15 0 0 0 - - -, f 15;
#X obj 185 277 +;
#X floatatom 250 203 5 1 10000 0 DUR - -, f 5;
#X obj 250 246 * 44.1;
#X floatatom 342 187 5 0 0 0 speed - -, f 5;
#X obj 326 275 / 1;
#X obj 325 247 t b f;
#X obj 137 164 bng 15 250 50 0 empty empty empty 17 7 0 10 -262144
-1 -1;
#X floatatom 57 278 10 0 0 0 - - -, f 10;
#X obj 152 490 outlet~;
#X obj 92 25 inlet;
#X obj 250 28 r g-dur;
#X obj 325 30 r g-speed;
#X obj 334 432 vline~;
#X msg 334 405 1 20 \, 0 20 \$1;
#X obj 152 463 *~;
#X obj 334 381 f;
#X obj 354 360 - 20;
#X obj 334 360 bng 15 250 50 0 empty empty empty 17 7 0 10 -262144
-1 -1;
#X obj 93 56 unpack 0 0;
#X obj 94 139 / 127;
#X obj 148 24 r total_dur;
#X floatatom 40 146 5 0 0 0 - - -, f 5;
#X obj 162 78 > 0;
#X obj 162 104 tgl 15 0 empty empty empty 17 7 0 10 -262144 -1 -1 0
1;
#X obj 271 80 sel 1;
#X obj 95 169 *;
#X text 38 125 0 - 1;
#X text 32 171 SMPL LEN;
#X obj 95 198 +;
#X text 128 199 jitter;
#X obj 93 108 t f b;
#X obj 93 81 change;
#X obj 174 169 random 100;
#X obj 400 32 r g-start_jitter;
#X floatatom 411 66 5 0 0 0 - - -, f 5;
#X obj 272 104 random 2000;
#X obj 271 129 / 1000;
#X obj 271 153 - 1;
#X obj 324 217 +;
#X connect 0 0 21 0;
#X connect 1 0 0 0;
#X connect 2 0 1 0;
#X connect 2 0 24 0;
#X connect 4 0 2 0;
#X connect 5 0 4 0;
#X connect 5 0 14 0;
#X connect 5 1 7 0;
#X connect 6 0 5 0;
#X connect 7 0 4 1;
#X connect 8 0 9 0;
#X connect 8 0 11 0;
#X connect 9 0 7 1;
#X connect 10 0 45 1;
#X connect 11 0 4 2;
#X connect 11 0 23 0;
#X connect 12 0 11 0;
#X connect 12 1 11 1;
#X connect 13 0 6 0;
#X connect 16 0 25 0;
#X connect 17 0 8 0;
#X connect 18 0 10 0;
#X connect 19 0 21 1;
#X connect 20 0 19 0;
#X connect 21 0 15 0;
#X connect 22 0 20 0;
#X connect 23 0 22 1;
#X connect 24 0 22 0;
#X connect 25 0 38 0;
#X connect 25 1 29 0;
#X connect 26 0 28 0;
#X connect 26 0 32 0;
#X connect 27 0 32 1;
#X connect 29 0 30 0;
#X connect 29 0 31 0;
#X connect 31 0 42 0;
#X connect 32 0 35 0;
#X connect 35 0 6 0;
#X connect 37 0 26 0;
#X connect 37 1 39 0;
#X connect 38 0 37 0;
#X connect 39 0 35 1;
#X connect 40 0 39 1;
#X connect 40 0 41 0;
#X connect 42 0 43 0;
#X connect 43 0 44 0;
#X connect 44 0 45 0;
#X connect 45 0 12 0;
