#N canvas 17 94 1407 702 12;
#X obj 1149 582 switch~;
#X floatatom 1081 558 3 0 0 0 - - -;
#X floatatom 1081 537 3 0 0 0 - - -;
#X obj 286 256 r minSENS;
#X text 283 229 NAJJASNIEJSZY;
#X text 1108 583 dsp;
#X floatatom 1148 559 2 0 0 0 - - -;
#X obj 1081 483 r PATCH3PAR1;
#X obj 1172 483 r PATCH3PAR2;
#X obj 296 295 r PATCH3PAR2;
#X obj 1147 533 r PATCH3dsp;
#X text 1165 558 dsp;
#X obj 1081 506 speedlim 100;
#X obj 1172 506 speedlim 100;
#X obj 1081 575 tgl 25 0 empty empty empty 17 7 0 10 -258113 -1 -1
0 1;
#X obj 1143 37 unsig~;
#X obj 1144 61 abs;
#X text 703 81 audio in!;
#X obj 87 101 *~ 0.99;
#X text 756 621 shift signal vector elements left or right;
#X text 845 582 frequency shifter;
#X obj 87 142 delwrite~ VCD 1000;
#X text 89 119 write to delay buffer;
#X obj 852 603 lrshift~ 7;
#X floatatom 1145 84 5 0 0 0 - - -;
#X obj 1036 197 *~;
#X obj 1067 199 nbx 5 14 -1e+37 1e+37 0 0 empty empty empty 0 -8 0
10 -262144 -1 -1 0 256;
#X obj 1054 174 r PATCH7PAR1;
#X obj 656 81 adc~ 1;
#X text 1104 531 del;
#X text 1082 559 flt+Fshif;
#X obj 306 328 r PATCH7PAR2;
#X text 532 28 we need two separate controls for them in order to get
just effect \, without feedback;
#X text 1034 228 in->out clean amt;
#X text 997 156 feedback amount - clean;
#X floatatom 140 489 5 0 0 0 - - -;
#N canvas 12 102 495 555 delay 0;
#X obj 78 467 *~ 0.99;
#X obj 96 201 int;
#X floatatom 120 228 5 0 0 0 - - -;
#X obj 110 107 bng 15 250 50 0 empty empty empty 17 7 0 10 -262144
-1 -1;
#X obj 78 55 change;
#X obj 78 80 t f b;
#X obj 78 160 +;
#X obj 78 232 *;
#X obj 110 126 random 5;
#X text 140 441 delay time in ms;
#X obj 78 442 vd~ VCD;
#X obj 79 491 outlet~;
#X obj 149 490 outlet;
#X obj 78 29 inlet;
#X obj 217 33 inlet;
#X obj 196 215 bng 15 250 50 0 empty empty empty 17 7 0 10 -262144
-1 -1;
#X obj 216 178 <= 1;
#X obj 216 106 int;
#X msg 216 212 0;
#X obj 276 179 > 1;
#X msg 270 215 0.99;
#X obj 216 77 moses 1;
#X obj 78 378 line~;
#X floatatom 150 179 5 0 0 0 - - -;
#X obj 78 124 * 1;
#X text 133 54 nie trzeba dodawac 1 bo random 5 dodajemy;
#X obj 78 328 pack f f;
#X msg 78 353 \$1 \$2;
#X floatatom 131 282 5 1 2000 0 - - -;
#X text 81 304 del value / how fast it goes there (2-1000);
#X obj 287 32 inlet;
#X obj 287 108 int;
#X floatatom 334 34 5 0 0 0 - - -;
#X obj 287 83 scale 0.1 3.1 1 2000;
#N canvas 739 339 515 372 lfo 0;
#X obj -594 59 phasor~;
#X obj -464 144 triangle~;
#X obj -594 259 spigot~;
#X text -408 262 choose between 3 different lfo shapes;
#X obj -293 83 + 1;
#X floatatom -262 106 5 0 0 0 - - -;
#X obj -317 54 bng 15 250 50 0 empty empty empty 17 7 0 10 -262144
-1 -1;
#X obj -293 107 % 3;
#X obj -339 78 i 0;
#X obj -338 138 sel 0 1 2;
#X msg -338 164 0 1 1;
#X msg -279 164 1 0 1;
#X msg -223 163 1 1 0;
#X obj -338 194 unpack f f f;
#X text -300 49 choose different lfo shapes;
#X obj -533 259 spigot~;
#X obj -465 259 spigot~;
#X obj -531 168 *~ 0.5;
#X obj -532 194 +~ 0.5;
#X obj -463 168 *~ 0.5;
#X obj -464 194 +~ 0.5;
#X obj -532 144 sin~;
#X obj -595 340 outlet~;
#X obj -594 314 *~ 1;
#X obj -594 7 inlet;
#X obj -339 6 inlet;
#X obj -491 9 inlet;
#X obj -291 29 loadbang;
#X obj -593 199 tanh~;
#X obj -593 113 -~ 3.14159;
#X obj -593 90 *~ 6.28319;
#X connect 0 0 1 0;
#X connect 0 0 21 0;
#X connect 0 0 30 0;
#X connect 1 0 19 0;
#X connect 2 0 23 0;
#X connect 4 0 7 0;
#X connect 6 0 8 0;
#X connect 7 0 8 1;
#X connect 8 0 4 0;
#X connect 8 0 5 0;
#X connect 8 0 9 0;
#X connect 9 0 10 0;
#X connect 9 1 11 0;
#X connect 9 2 12 0;
#X connect 10 0 13 0;
#X connect 11 0 13 0;
#X connect 12 0 13 0;
#X connect 13 0 2 1;
#X connect 13 1 15 1;
#X connect 13 2 16 1;
#X connect 15 0 23 0;
#X connect 16 0 23 0;
#X connect 17 0 18 0;
#X connect 18 0 15 0;
#X connect 19 0 20 0;
#X connect 20 0 16 0;
#X connect 21 0 17 0;
#X connect 23 0 22 0;
#X connect 24 0 0 0;
#X connect 25 0 8 0;
#X connect 26 0 23 1;
#X connect 27 0 6 0;
#X connect 28 0 2 0;
#X connect 29 0 28 0;
#X connect 30 0 29 0;
#X restore 323 238 pd lfo;
#X obj 324 141 inlet;
#X obj 372 143 inlet;
#X obj 423 143 inlet;
#X obj 79 405 +~;
#X connect 0 0 11 0;
#X connect 1 0 2 0;
#X connect 1 0 7 1;
#X connect 3 0 8 0;
#X connect 4 0 5 0;
#X connect 5 0 24 0;
#X connect 5 1 3 0;
#X connect 6 0 7 0;
#X connect 6 0 23 0;
#X connect 7 0 26 0;
#X connect 8 0 6 1;
#X connect 10 0 0 0;
#X connect 13 0 4 0;
#X connect 14 0 1 0;
#X connect 14 0 21 0;
#X connect 16 0 15 0;
#X connect 16 0 18 0;
#X connect 17 0 16 0;
#X connect 18 0 0 1;
#X connect 19 0 20 0;
#X connect 20 0 0 1;
#X connect 21 0 17 0;
#X connect 21 1 19 0;
#X connect 22 0 38 0;
#X connect 24 0 6 0;
#X connect 26 0 27 0;
#X connect 26 0 12 0;
#X connect 27 0 22 0;
#X connect 28 0 26 1;
#X connect 30 0 32 0;
#X connect 30 0 33 0;
#X connect 31 0 26 1;
#X connect 33 0 31 0;
#X connect 34 0 38 1;
#X connect 35 0 34 0;
#X connect 36 0 34 1;
#X connect 37 0 34 2;
#X connect 38 0 10 0;
#X restore 88 440 pd delay;
#X obj 98 276 r PATCH3PAR1;
#N canvas 467 51 544 727 VCF 0;
#X obj -748 -437 inlet;
#X obj -662 138 inlet;
#X obj -748 -414 change;
#X obj -748 -365 t f b;
#X obj -748 -288 +;
#X obj -698 -344 bng 15 250 50 0 empty empty empty 17 7 0 10 -262144
-1 -1;
#X obj -748 174 *~ 0;
#X obj -804 246 outlet~;
#X obj -804 -308 inlet~;
#X obj -803 219 vcf~ 2;
#X obj -597 139 inlet;
#X obj -748 96 *~ 1500;
#X obj -748 -177 phasor~;
#X obj -747 119 +~ 20;
#X obj -696 252 outlet;
#X floatatom -647 -191 5 0 0 0 - - -;
#X obj -696 225 pack f f f;
#X floatatom -674 -294 5 0 0 0 - - -;
#X obj -674 -322 / 16;
#X obj -748 -339 int;
#X text -604 -194 LFO range 0.125-16.875 hz;
#X obj -748 -390 - 1;
#X obj -674 -346 + 1;
#X obj -674 -370 random 4;
#X text -654 -398 add rndm amount to lfo 0.125 - 4;
#X obj -618 -14 triangle~;
#X obj -748 61 spigot~;
#X text -562 64 choose between 3 different lfo shapes;
#X obj -467 -105 + 1;
#X floatatom -554 -83 5 0 0 0 - - -;
#X obj -513 -134 bng 15 250 50 0 empty empty empty 17 7 0 10 -262144
-1 -1;
#X obj -467 -81 % 3;
#X obj -513 -110 i 0;
#X obj -512 -50 sel 0 1 2;
#X msg -512 -24 0 1 1;
#X msg -453 -24 1 0 1;
#X msg -397 -25 1 1 0;
#X obj -512 6 unpack f f f;
#X text -496 -139 choose different lfo shapes;
#X floatatom -662 195 5 0 0 0 - - -;
#X floatatom -595 196 5 0 0 0 - - -;
#X text -603 -220 MAKE LFO DEPENDENT ON MASTER CLOCK SOMEHOW;
#X obj -573 -350 r MASTERclk;
#X floatatom -573 -325 5 0 0 0 - - -;
#X floatatom -527 -272 8 0 0 0 - - -;
#X obj -573 -299 expr 1 / ($f1/ 1000);
#X text -464 -271 CONVERT MS TO HZ;
#X obj -748 -225 /;
#X floatatom -573 -244 5 0 0 0 - - -;
#X obj -573 -271 * 60;
#X obj -687 61 spigot~;
#X obj -619 61 spigot~;
#X obj -685 10 *~ 0.5;
#X obj -686 36 +~ 0.5;
#X obj -617 10 *~ 0.5;
#X obj -618 36 +~ 0.5;
#X obj -686 -14 sin~;
#X obj -513 -162 loadbang;
#X obj -396 -397 inlet;
#X connect 0 0 2 0;
#X connect 1 0 6 1;
#X connect 1 0 16 1;
#X connect 1 0 39 0;
#X connect 2 0 21 0;
#X connect 3 0 19 0;
#X connect 3 1 5 0;
#X connect 3 1 23 0;
#X connect 4 0 47 0;
#X connect 6 0 9 1;
#X connect 8 0 9 0;
#X connect 9 0 7 0;
#X connect 10 0 9 2;
#X connect 10 0 16 2;
#X connect 10 0 40 0;
#X connect 11 0 13 0;
#X connect 12 0 26 0;
#X connect 12 0 25 0;
#X connect 12 0 56 0;
#X connect 13 0 6 0;
#X connect 16 0 14 0;
#X connect 18 0 4 1;
#X connect 18 0 17 0;
#X connect 19 0 4 0;
#X connect 21 0 3 0;
#X connect 22 0 18 0;
#X connect 23 0 22 0;
#X connect 25 0 54 0;
#X connect 26 0 11 0;
#X connect 28 0 31 0;
#X connect 30 0 32 0;
#X connect 31 0 32 1;
#X connect 32 0 28 0;
#X connect 32 0 29 0;
#X connect 32 0 33 0;
#X connect 33 0 34 0;
#X connect 33 1 35 0;
#X connect 33 2 36 0;
#X connect 34 0 37 0;
#X connect 35 0 37 0;
#X connect 36 0 37 0;
#X connect 37 0 26 1;
#X connect 37 1 50 1;
#X connect 37 2 51 1;
#X connect 42 0 43 0;
#X connect 43 0 45 0;
#X connect 45 0 44 0;
#X connect 45 0 49 0;
#X connect 47 0 12 0;
#X connect 47 0 15 0;
#X connect 47 0 16 0;
#X connect 49 0 48 0;
#X connect 49 0 47 1;
#X connect 50 0 11 0;
#X connect 51 0 11 0;
#X connect 52 0 53 0;
#X connect 53 0 50 0;
#X connect 54 0 55 0;
#X connect 55 0 51 0;
#X connect 56 0 52 0;
#X connect 57 0 30 0;
#X connect 58 0 30 0;
#X restore 277 378 pd VCF;
#X floatatom 111 301 5 0 0 0 - - -;
#X obj 88 240 r minSENS;
#X text 85 221 NAJJASNIEJSZY;
#X text 158 439 <1 : mute delay;
#X text 355 251 lfo rate;
#X text 399 446 Q;
#X text 141 508 del;
#X obj 140 464 unpack f f;
#X floatatom 207 487 4 0 0 0 - - -;
#X text 181 507 del slew;
#X obj 316 403 unpack f f f;
#X floatatom 303 429 5 0 0 0 - - -;
#X floatatom 356 427 4 0 0 0 - - -;
#X floatatom 397 430 4 0 0 0 - - -;
#X text 400 326 Q;
#X text 354 445 FFmul;
#X text 306 311 FF mult 0-2;
#X text 292 446 lfo rate;
#X obj 109 323 r PATCH7PAR2;
#X text 159 339 del slew;
#X text 282 184 in->filt amt;
#X text 143 101 in->del amt;
#X obj 441 48 r minSENS;
#X text 438 29 NAJJASNIEJSZY;
#X floatatom 441 72 5 0 0 0 - - -;
#X obj 111 584 r MASTERclk;
#X floatatom 111 605 5 0 0 0 - - -;
#X floatatom 149 648 8 0 0 0 - - -;
#X obj 111 626 expr 1 / ($f1/ 1000);
#X text 216 647 CONVERT MS TO HZ;
#X text 1187 83 input level;
#X text 673 311 amp modulation;
#X floatatom 712 269 5 -100 100 0 - - -;
#X floatatom 679 329 5 0 500 0 - - -;
#X text 747 264 LFO FREQ;
#X obj 690 352 bng 15 250 50 0 empty empty empty 17 7 0 10 -262144
-1 -1;
#X text 1006 63 built-in envelope;
#X obj 1034 47 env~;
#X floatatom 1034 83 5 0 0 0 - - -;
#X text 1070 50 follower;
#X text 849 415 index;
#X obj 466 483 *~;
#X floatatom 580 485 5 0 10 0 - - -;
#X text 474 412 RINGMOD;
#X floatatom 822 309 5 0 0 0 - - -;
#X floatatom 870 456 5 0 0 0 - - -;
#X obj 858 188 tgl 15 0 empty empty empty 17 7 0 10 -262144 -1 -1 1
1;
#X obj 879 238 *~;
#X obj 943 217 tgl 15 0 empty empty empty 17 7 0 10 -262144 -1 -1 0
1;
#X text 906 239 for FM;
#X text 103 31 audio in->delay&filt&RMod&Amod&other effects;
#X text 108 70 VCDelay;
#X text 307 131 VCF;
#X text 682 138 AM;
#X text 519 142 RM;
#X obj 692 192 r minSENS;
#X text 689 176 NAJJASNIEJSZY;
#X floatatom 692 213 5 0 0 0 - - -;
#X obj 692 234 * 0.5;
#X obj 824 187 *~ 2;
#X obj 879 213 *~ 0.25;
#X obj 111 649 * 60;
#X floatatom 111 671 5 0 0 0 - - -;
#X text 217 670 THEN TO bpm;
#X obj 88 535 tanh~;
#X floatatom 702 374 5 0 1 0 - - -;
#X obj 667 257 gate;
#X floatatom 667 290 5 0 0 0 - - -;
#X obj 667 239 tgl 15 0 empty empty empty 17 7 0 10 -262144 -1 -1 0
1;
#X text 716 323 LFOrange;
#X text 751 276 -100 100;
#X text 718 333 0-500;
#X obj 277 519 tanh~;
#N canvas 486 415 258 272 aMOD 0;
#X obj -612 -164 *~;
#X text -585 -224 amp modulation;
#N canvas 742 341 515 372 lfo 0;
#X obj -594 59 phasor~;
#X obj -464 144 triangle~;
#X obj -594 259 spigot~;
#X text -408 262 choose between 3 different lfo shapes;
#X obj -293 83 + 1;
#X floatatom -262 106 5 0 0 0 - - -;
#X obj -317 54 bng 15 250 50 0 empty empty empty 17 7 0 10 -262144
-1 -1;
#X obj -293 107 % 3;
#X obj -339 78 i 0;
#X obj -338 138 sel 0 1 2;
#X msg -338 164 0 1 1;
#X msg -279 164 1 0 1;
#X msg -223 163 1 1 0;
#X obj -338 194 unpack f f f;
#X text -300 49 choose different lfo shapes;
#X obj -533 259 spigot~;
#X obj -465 259 spigot~;
#X obj -531 168 *~ 0.5;
#X obj -532 194 +~ 0.5;
#X obj -463 168 *~ 0.5;
#X obj -464 194 +~ 0.5;
#X obj -532 144 sin~;
#X obj -595 340 outlet~;
#X obj -594 314 *~ 1;
#X obj -594 7 inlet;
#X obj -339 6 inlet;
#X obj -491 9 inlet;
#X obj -291 29 loadbang;
#X connect 0 0 2 0;
#X connect 0 0 1 0;
#X connect 0 0 21 0;
#X connect 1 0 19 0;
#X connect 2 0 23 0;
#X connect 4 0 7 0;
#X connect 6 0 8 0;
#X connect 7 0 8 1;
#X connect 8 0 4 0;
#X connect 8 0 5 0;
#X connect 8 0 9 0;
#X connect 9 0 10 0;
#X connect 9 1 11 0;
#X connect 9 2 12 0;
#X connect 10 0 13 0;
#X connect 11 0 13 0;
#X connect 12 0 13 0;
#X connect 13 0 2 1;
#X connect 13 1 15 1;
#X connect 13 2 16 1;
#X connect 15 0 23 0;
#X connect 16 0 23 0;
#X connect 17 0 18 0;
#X connect 18 0 15 0;
#X connect 19 0 20 0;
#X connect 20 0 16 0;
#X connect 21 0 17 0;
#X connect 23 0 22 0;
#X connect 24 0 0 0;
#X connect 25 0 8 0;
#X connect 26 0 23 1;
#X connect 27 0 6 0;
#X restore -593 -204 pd lfo;
#X obj -613 -277 *~ 1;
#X obj -613 -99 tanh~;
#X obj -575 -147 line~ \$1 20;
#X obj -613 -125 *~;
#X obj -615 -337 inlet~;
#X obj -562 -331 inlet;
#X obj -514 -329 inlet;
#X obj -463 -329 inlet;
#X obj -413 -330 inlet;
#X obj -613 -65 outlet~;
#X connect 0 0 6 0;
#X connect 2 0 0 1;
#X connect 3 0 0 0;
#X connect 4 0 12 0;
#X connect 5 0 6 1;
#X connect 6 0 4 0;
#X connect 7 0 3 0;
#X connect 8 0 2 0;
#X connect 9 0 2 1;
#X connect 10 0 2 2;
#X connect 11 0 5 0;
#X restore 656 506 pd aMOD;
#X text 741 377 vol;
#X text 314 210 bo cicho;
#X obj 316 353 bng 15 250 50 0 empty empty empty 17 7 0 10 -262144
-1 -1;
#X text 336 349 LFOshape;
#X text 269 277 also depends on MASTERclock;
#X obj 278 209 *~ 2;
#X floatatom 130 385 5 0 25 0 - - -;
#X text 105 419 SHAPE (RAMP/SIN/TRI);
#X obj 141 406 bng 15 250 50 0 empty empty empty 17 7 0 10 -262144
-1 -1;
#X floatatom 119 361 5 -20 20 0 - - -;
#X text 198 386 0-25;
#X text 164 372 FREQ-20 20;
#X text 161 382 range;
#X text 165 360 LFO;
#X text 700 349 (RAMP/SIN/TRI);
#X obj 466 528 tanh~;
#X obj 466 506 *~ 0;
#X obj 466 268 *~ 2;
#X text 600 302 freq;
#X text 616 485 amt;
#X obj 566 169 r minSENS;
#X text 562 152 NAJJASNIEJSZY;
#X floatatom 578 225 5 0 0 0 - - -;
#X obj 541 224 gate;
#X obj 541 203 tgl 15 0 empty empty empty 17 7 0 10 -262144 -1 -1 0
1;
#N canvas 736 337 515 372 lfo 0;
#X obj -594 59 phasor~;
#X obj -464 144 triangle~;
#X obj -594 259 spigot~;
#X text -408 262 choose between 3 different lfo shapes;
#X obj -293 83 + 1;
#X floatatom -262 106 5 0 0 0 - - -;
#X obj -317 54 bng 15 250 50 0 empty empty empty 17 7 0 10 -262144
-1 -1;
#X obj -293 107 % 3;
#X obj -339 78 i 0;
#X obj -338 138 sel 0 1 2;
#X msg -338 164 0 1 1;
#X msg -279 164 1 0 1;
#X msg -223 163 1 1 0;
#X obj -338 194 unpack f f f;
#X text -300 49 choose different lfo shapes;
#X obj -533 259 spigot~;
#X obj -465 259 spigot~;
#X obj -531 168 *~ 0.5;
#X obj -532 194 +~ 0.5;
#X obj -463 168 *~ 0.5;
#X obj -464 194 +~ 0.5;
#X obj -532 144 sin~;
#X obj -595 340 outlet~;
#X obj -594 314 *~ 1;
#X obj -594 7 inlet;
#X obj -339 6 inlet;
#X obj -491 9 inlet;
#X obj -291 29 loadbang;
#X obj -593 199 tanh~;
#X obj -593 113 -~ 3.14159;
#X obj -593 90 *~ 6.28319;
#X connect 0 0 1 0;
#X connect 0 0 21 0;
#X connect 0 0 30 0;
#X connect 1 0 19 0;
#X connect 2 0 23 0;
#X connect 4 0 7 0;
#X connect 6 0 8 0;
#X connect 7 0 8 1;
#X connect 8 0 4 0;
#X connect 8 0 5 0;
#X connect 8 0 9 0;
#X connect 9 0 10 0;
#X connect 9 1 11 0;
#X connect 9 2 12 0;
#X connect 10 0 13 0;
#X connect 11 0 13 0;
#X connect 12 0 13 0;
#X connect 13 0 2 1;
#X connect 13 1 15 1;
#X connect 13 2 16 1;
#X connect 15 0 23 0;
#X connect 16 0 23 0;
#X connect 17 0 18 0;
#X connect 18 0 15 0;
#X connect 19 0 20 0;
#X connect 20 0 16 0;
#X connect 21 0 17 0;
#X connect 23 0 22 0;
#X connect 24 0 0 0;
#X connect 25 0 8 0;
#X connect 26 0 23 1;
#X connect 27 0 6 0;
#X connect 28 0 2 0;
#X connect 29 0 28 0;
#X connect 30 0 29 0;
#X restore 484 395 pd lfo;
#X obj 484 460 osc~;
#X floatatom 503 223 5 0 100 0 - - -;
#X text 478 181 LFO FREQ;
#X floatatom 484 200 5 -50 50 0 - - -;
#X text 488 237 LFOrange;
#X text 535 371 (RAMP/SIN/TRI);
#X obj 565 193 / 31;
#X obj 523 370 bng 15 250 50 0 empty empty empty 17 7 0 10 -262144
-1 -1;
#X obj 485 434 +~;
#X floatatom 600 330 5 0 0 0 - - -;
#X obj 542 412 +;
#X text 490 247 0-100;
#X obj 878 164 loadbang;
#X msg 858 165 1;
#X text 890 130 FM;
#X text 117 178 VCD;
#X floatatom 934 458 5 0 1 0 - - -;
#X text 975 457 vol;
#X obj 823 264 delwrite~ dfm 100;
#X msg 942 195 0;
#X obj 907 459 tgl 15 0 empty empty empty 17 7 0 10 -262144 -1 -1 0
1;
#N canvas 733 335 515 372 lfo 0;
#X obj -594 59 phasor~;
#X obj -464 144 triangle~;
#X obj -594 259 spigot~;
#X text -408 262 choose between 3 different lfo shapes;
#X obj -293 83 + 1;
#X floatatom -262 106 5 0 0 0 - - -;
#X obj -317 54 bng 15 250 50 0 empty empty empty 17 7 0 10 -262144
-1 -1;
#X obj -293 107 % 3;
#X obj -339 78 i 0;
#X obj -338 138 sel 0 1 2;
#X msg -338 164 0 1 1;
#X msg -279 164 1 0 1;
#X msg -223 163 1 1 0;
#X obj -338 194 unpack f f f;
#X text -300 49 choose different lfo shapes;
#X obj -533 259 spigot~;
#X obj -465 259 spigot~;
#X obj -531 168 *~ 0.5;
#X obj -532 194 +~ 0.5;
#X obj -463 168 *~ 0.5;
#X obj -464 194 +~ 0.5;
#X obj -532 144 sin~;
#X obj -595 340 outlet~;
#X obj -594 314 *~ 1;
#X obj -594 7 inlet;
#X obj -339 6 inlet;
#X obj -491 9 inlet;
#X obj -291 29 loadbang;
#X obj -593 199 tanh~;
#X obj -593 113 -~ 3.14159;
#X obj -593 90 *~ 6.28319;
#X connect 0 0 1 0;
#X connect 0 0 21 0;
#X connect 0 0 30 0;
#X connect 1 0 19 0;
#X connect 2 0 23 0;
#X connect 4 0 7 0;
#X connect 6 0 8 0;
#X connect 7 0 8 1;
#X connect 8 0 4 0;
#X connect 8 0 5 0;
#X connect 8 0 9 0;
#X connect 9 0 10 0;
#X connect 9 1 11 0;
#X connect 9 2 12 0;
#X connect 10 0 13 0;
#X connect 11 0 13 0;
#X connect 12 0 13 0;
#X connect 13 0 2 1;
#X connect 13 1 15 1;
#X connect 13 2 16 1;
#X connect 15 0 23 0;
#X connect 16 0 23 0;
#X connect 17 0 18 0;
#X connect 18 0 15 0;
#X connect 19 0 20 0;
#X connect 20 0 16 0;
#X connect 21 0 17 0;
#X connect 23 0 22 0;
#X connect 24 0 0 0;
#X connect 25 0 8 0;
#X connect 26 0 23 1;
#X connect 27 0 6 0;
#X connect 28 0 2 0;
#X connect 29 0 28 0;
#X connect 30 0 29 0;
#X restore 839 394 pd lfo;
#X floatatom 858 351 5 0 100 0 - - -;
#X text 876 329 LFO FREQ;
#X floatatom 839 330 5 -50 50 0 - - -;
#X text 894 345 LFOrange;
#X text 844 375 (RAMP/SIN/TRI);
#X obj 878 375 bng 15 250 50 0 empty empty empty 17 7 0 10 -262144
-1 -1;
#X text 896 355 0-100;
#X obj 822 416 +~;
#N canvas 1182 671 481 293 fmaudioIN 0;
#X obj 123 -171 inlet;
#X obj 48 -172 inlet~;
#X obj 212 -171 inlet;
#X obj 48 75 outlet~;
#X obj 48 -143 osc~;
#X obj 49 -112 +~ 1;
#X obj 48 -88 *~ 0.5;
#X obj 49 1 vd~ dfm;
#X obj 49 -25 *~;
#X obj 48 48 tanh~;
#X obj 320 -100 line~ \$1 25;
#X obj 48 25 *~;
#X obj 123 -51 +~;
#X obj 123 -106 pack 0 50;
#X obj 212 -85 gate;
#X floatatom 213 -60 5 0 0 0 - - -;
#X obj 320 -129 inlet;
#X obj 262 -171 r minSENS;
#X obj 262 -150 * 5;
#X text -33 -139 MODULATOR;
#X text 215 -129 index;
#X text 367 -122 volume;
#X obj 123 -79 line~;
#X connect 0 0 13 0;
#X connect 1 0 4 0;
#X connect 2 0 14 0;
#X connect 4 0 5 0;
#X connect 5 0 6 0;
#X connect 6 0 8 0;
#X connect 7 0 11 0;
#X connect 8 0 7 0;
#X connect 9 0 3 0;
#X connect 10 0 11 1;
#X connect 11 0 9 0;
#X connect 12 0 8 1;
#X connect 13 0 22 0;
#X connect 14 0 15 0;
#X connect 14 0 12 1;
#X connect 16 0 10 0;
#X connect 17 0 18 0;
#X connect 18 0 14 1;
#X connect 22 0 12 0;
#X restore 823 493 pd fmaudioIN;
#X text 859 311 MODULATOR;
#X text 890 436 sensor in;
#X obj 1036 497 tanh~;
#X obj 880 185 osc~ 440;
#X text 94 259 >1:del* this;
#X text 153 302 dil l;
#X obj 484 340 *;
#X floatatom 591 426 5 0 0 0 - - -;
#X obj 543 252 t f f f;
#X obj 511 340 *;
#X floatatom 601 398 5 0 0 0 - - -;
#X obj 555 278 * 200;
#X obj 581 624 dac~;
#X connect 3 0 38 1;
#X connect 6 0 0 0;
#X connect 7 0 12 0;
#X connect 8 0 13 0;
#X connect 9 0 38 2;
#X connect 10 0 6 0;
#X connect 10 0 14 0;
#X connect 12 0 2 0;
#X connect 13 0 1 0;
#X connect 15 0 16 0;
#X connect 16 0 24 0;
#X connect 18 0 21 0;
#X connect 25 0 172 0;
#X connect 27 0 26 0;
#X connect 27 0 25 1;
#X connect 28 0 18 0;
#X connect 28 0 25 0;
#X connect 28 0 15 0;
#X connect 28 0 76 0;
#X connect 28 0 98 0;
#X connect 28 0 112 0;
#X connect 28 0 118 0;
#X connect 28 0 130 0;
#X connect 31 0 38 3;
#X connect 36 0 103 0;
#X connect 36 1 46 0;
#X connect 37 0 36 1;
#X connect 37 0 39 0;
#X connect 38 0 111 0;
#X connect 38 1 49 0;
#X connect 40 0 36 0;
#X connect 46 0 35 0;
#X connect 46 1 47 0;
#X connect 49 0 50 0;
#X connect 49 1 51 0;
#X connect 49 2 52 0;
#X connect 57 0 36 2;
#X connect 61 0 63 0;
#X connect 64 0 65 0;
#X connect 65 0 67 0;
#X connect 67 0 66 0;
#X connect 67 0 100 0;
#X connect 71 0 112 1;
#X connect 72 0 112 2;
#X connect 74 0 112 3;
#X connect 76 0 77 0;
#X connect 80 0 129 0;
#X connect 81 0 129 1;
#X connect 83 0 168 0;
#X connect 84 0 169 1;
#X connect 85 0 98 1;
#X connect 86 0 157 0;
#X connect 87 0 86 1;
#X connect 94 0 96 0;
#X connect 96 0 97 0;
#X connect 97 0 105 1;
#X connect 98 0 157 0;
#X connect 99 0 86 0;
#X connect 100 0 101 0;
#X connect 103 0 182 0;
#X connect 104 0 112 4;
#X connect 105 0 106 0;
#X connect 106 0 112 1;
#X connect 107 0 105 0;
#X connect 111 0 182 0;
#X connect 112 0 182 0;
#X connect 115 0 38 4;
#X connect 118 0 38 0;
#X connect 119 0 36 4;
#X connect 121 0 36 5;
#X connect 122 0 36 3;
#X connect 128 0 182 0;
#X connect 129 0 128 0;
#X connect 130 0 80 0;
#X connect 133 0 145 0;
#X connect 136 0 178 0;
#X connect 137 0 136 0;
#X connect 138 0 147 0;
#X connect 139 0 80 1;
#X connect 140 0 179 1;
#X connect 142 0 176 1;
#X connect 145 0 136 1;
#X connect 145 0 135 0;
#X connect 146 0 138 2;
#X connect 147 0 139 0;
#X connect 148 0 149 1;
#X connect 149 0 147 1;
#X connect 151 0 152 0;
#X connect 151 0 158 0;
#X connect 152 0 85 0;
#X connect 155 0 169 3;
#X connect 158 0 87 0;
#X connect 159 0 169 2;
#X connect 160 0 168 1;
#X connect 161 0 160 1;
#X connect 163 0 160 0;
#X connect 166 0 160 2;
#X connect 168 0 169 0;
#X connect 169 0 182 0;
#X connect 173 0 99 0;
#X connect 176 0 138 0;
#X connect 176 0 177 0;
#X connect 178 0 176 0;
#X connect 178 1 181 0;
#X connect 178 2 149 0;
#X connect 179 0 138 1;
#X connect 179 0 180 0;
#X connect 181 0 179 0;
