#N canvas 0 172 1242 548 10;
#X obj 73 228 cyclone/zl slice 32;
#X msg 78 98 1;
#X msg 115 97 2;
#X obj 73 181 + 1;
#X obj 664 234 cyclone/zl slice 32;
#X obj 664 211 cyclone/zl group 33;
#X obj 341 408 print;
#X obj 341 379 spigot;
#X obj 380 358 tgl 15 0 empty empty empty 17 7 0 10 -262144 -1 -1 0
1;
#X obj 73 205 cyclone/zl group 33;
#X obj 664 257 maxlib/listfunnel;
#X obj 73 251 maxlib/listfunnel;
#X obj 73 271 clone -x 1_LDR_smooth 32 0.25, f 16;
#X obj 133 358 unpack 0 0;
#X obj 200 390 zl group 32;
#X obj 79 42 hradio 15 1 1 5 empty empty empty 0 -8 0 10 -262144 -1
-1 2;
#X floatatom 79 62 5 0 0 0 - - -, f 5;
#X text 171 155 normalize 0-1;
#X text 172 166 inverse -1-0;
#X text 173 180 shift 0-1;
#X obj 73 157 * -0.000976562;
#X obj 270 169 expr $f1 * -0.000976562 + 1, f 19;
#X obj 270 228 cyclone/zl slice 32;
#X obj 270 205 cyclone/zl group 33;
#X obj 270 251 maxlib/listfunnel;
#X obj 270 271 clone -x 1_LDR_smooth 32 0.25, f 16;
#X obj 73 129 cyclone/gate 5 1, f 113;
#X obj 467 225 cyclone/zl slice 32;
#X obj 467 202 cyclone/zl group 33;
#X obj 467 248 maxlib/listfunnel;
#X obj 467 269 clone -x 1_ldr_norm_inv_smt 32 0.25, f 19;
#X obj 664 278 clone -x 1_ldr_norm_inv_smt_old_v 32 0.25, f 19;
#X connect 0 0 11 0;
#X connect 1 0 26 0;
#X connect 2 0 26 0;
#X connect 3 0 9 0;
#X connect 4 0 10 0;
#X connect 5 0 4 0;
#X connect 7 0 6 0;
#X connect 8 0 7 1;
#X connect 9 0 0 0;
#X connect 10 0 31 0;
#X connect 11 0 12 0;
#X connect 12 0 13 0;
#X connect 13 1 14 0;
#X connect 15 0 16 0;
#X connect 16 0 26 0;
#X connect 20 0 3 0;
#X connect 21 0 23 0;
#X connect 22 0 24 0;
#X connect 23 0 22 0;
#X connect 24 0 25 0;
#X connect 25 0 13 0;
#X connect 26 0 20 0;
#X connect 26 1 21 0;
#X connect 26 2 28 0;
#X connect 26 3 5 0;
#X connect 27 0 29 0;
#X connect 28 0 27 0;
#X connect 29 0 30 0;
#X connect 30 0 13 0;
#X connect 31 0 13 0;
