#N canvas 293 51 784 195 10;
#X obj 41 48 cnv 15 700 90 empty empty Serial_R_LDRs 0 -10 0 20 -178368
-4160 0;
#X obj 63 53 tgl 15 0 empty empty empty 17 7 0 10 -262144 -1 -1 0 1
;
#X obj 62 78 tgl 15 0 light_gate LG_GLOBAL LG 0 8 0 14 -4034 -258113
-4160 0 1;
#X obj 201 31 tgl 15 0 empty LDR_ARD_ON A_LDR_ON 17 7 0 10 -4034 -258113
-258113 0 1;
#N canvas 0 50 450 250 (subpatch) 0;
#X array LDRS_INV_10_SMT 32 float 2;
#X coords 0 1 32 0 150 50 1 0 0;
#X restore 487 65 graph;
#X floatatom 573 120 5 0 1 1 TRESHOLD - GLOBAL_SENS_TRESH, f 5;
#X obj 475 65 vsl 10 48 0 1 0 0 empty GLOBAL_SENS_TRESH empty 0 -9
0 10 -204800 -1 -1 0 1;
#X floatatom 475 120 5 0 0 1 TRESHOLD - -, f 5;
#N canvas 316 77 928 720 Read_32LDRs 0;
#X obj 149 215 sel 255, f 15;
#X obj 156 270 < 128;
#X obj 156 290 + 1;
#X obj 156 333 - 128;
#X msg 149 149 99;
#X obj 251 235 t f f;
#X msg 216 122 open 3;
#X msg 293 120 close;
#X obj 487 410 print;
#X obj 488 274 switch;
#X obj 488 256 tgl 15 0 empty empty empty 17 7 0 10 -262144 -1 -1 0
1;
#X msg 401 140 info;
#X obj 465 96 bng 15 250 50 0 empty empty empty 17 7 0 10 -262144 -1
-1;
#X obj 369 73 t b b;
#X text 198 281 everything above 127;
#X text 193 293 is control index;
#X obj 171 30 inlet;
#X obj 149 31 tgl 15 0 empty empty empty 17 7 0 10 -262144 -1 -1 0
1;
#X text 215 27 open/close port;
#X obj 149 64 sel 1, f 21;
#X floatatom 392 368 5 0 0 0 - - -, f 5;
#X obj 156 312 cyclone/gate 2;
#X obj 149 356 cyclone/zl group 100;
#X obj 149 90 t b b, f 10;
#X text 500 52 open at startup;
#X text 438 141 check if open;
#X obj 487 387 timer;
#X obj 487 342 cyclone/cycle 2;
#X msg 487 318 symbol bang;
#X obj 487 296 t b b;
#X obj 487 363 bng 15 250 50 0 empty empty empty 17 7 0 10 -262144
-1 -1;
#X obj 519 363 bng 15 250 50 0 empty empty empty 17 7 0 10 -262144
-1 -1;
#X msg 378 174 devicename /dev/ttyUSB2 \, baud 115200 \, 99;
#X obj 149 191 comport 3 115200, f 27;
#X obj 369 52 r serial_ldr_start;
#X obj 401 96 del 1000;
#X text 180 144 start pulling;
#X text 180 156 re-initialize port;
#N canvas 0 74 541 350 serial_open? 0;
#X obj 94 26 inlet;
#X floatatom 63 87 3 0 0 0 port - -, f 3;
#X obj 94 52 route port open;
#X obj 94 87 == 3;
#X obj 145 85 == 1;
#X obj 94 135 &&;
#X obj 101 110 t b f;
#X text 238 217 if port3 open send 1;
#X obj 147 218 s LDR_ARD_ON;
#X obj 94 216 outlet;
#X connect 0 0 2 0;
#X connect 2 0 1 0;
#X connect 2 0 3 0;
#X connect 2 1 4 0;
#X connect 3 0 5 0;
#X connect 4 0 6 0;
#X connect 5 0 8 0;
#X connect 5 0 9 0;
#X connect 6 0 5 0;
#X connect 6 1 5 1;
#X restore 416 208 pd serial_open?;
#X text 434 226 if port3 open send 1;
#X obj 416 229 tgl 15 0 empty empty empty 17 7 0 10 -262144 -1 -1 0
1;
#X obj 149 122 del 2500;
#X text 507 255 test speed;
#X obj 392 349 list length;
#N canvas 277 307 364 512 32_analog_ins 0;
#X obj 39 79 inlet;
#X obj 78 171 << 7;
#X obj 39 196 +, f 6;
#X obj 39 107 cyclone/zl iter 2;
#X obj 39 128 cyclone/zl slice 1, f 10;
#X obj 106 434 outlet;
#N canvas 292 82 329 529 scale_ldrs_0-100 0;
#X obj 115 155 r scaledLIST100;
#N canvas 0 50 450 300 (subpatch) 0;
#X array ldrs_no_filt_scaled 16 float 2;
#X coords 0 100 16 0 200 200 1 0 0;
#X restore 33 301 graph;
#X obj 34 222 unpack 0 0;
#X obj 34 244 swap;
#X obj 34 154 tgl 15 0 empty empty empty 17 7 0 10 -262144 -1 -1 0
1;
#X obj 34 177 cyclone/gate;
#X obj 34 200 maxlib/listfunnel;
#X obj 34 265 tabwrite ldrs_no_filt_scaled;
#X obj 33 133 s scaledLIST100;
#X obj 33 87 expr (((($s2[$f1])/1024)*-1)+1)*100;
#X obj 34 25 t b b;
#X obj 34 65 - 1;
#X msg 153 42 symbol ldrs_no_filt;
#X obj 34 45 cyclone/Uzi 16;
#X obj 33 112 cyclone/zl group 16;
#X connect 0 0 5 1;
#X connect 2 0 3 0;
#X connect 2 1 3 1;
#X connect 3 0 7 0;
#X connect 3 1 7 1;
#X connect 4 0 5 0;
#X connect 5 0 6 0;
#X connect 6 0 2 0;
#X connect 9 0 14 0;
#X connect 10 0 13 0;
#X connect 10 1 12 0;
#X connect 11 0 9 0;
#X connect 12 0 9 1;
#X connect 13 2 11 0;
#X connect 14 0 8 0;
#X restore 196 176 pd scale_ldrs_0-100;
#N canvas 0 172 532 330 other_tests 0;
#X obj 53 70 mapping/autoscale;
#X text 186 70 dobry pomysł ale nie działa;
#X obj 47 113 list-abs/list-map;
#X obj 185 113 mapping/smooth 0.25;
#X text 199 144 tez nie działa;
#X floatatom 247 165 5 0 1 0 - - -, f 5;
#X obj 56 197 list-abs/list-apply * -0.000976562;
#X text 54 -3 If you use [autoscale] with no arguments \, then the
output range defaults to 0-1.;
#X text 54 22 [autoscale] scales a stream of numbers based on an output
range set as arguments \, and an input range which is set dynamically.
;
#X connect 2 1 3 0;
#X connect 3 0 2 1;
#X connect 5 0 6 2;
#X restore 195 118 pd other_tests;
#X obj 39 283 cyclone/zl slice 32;
#X obj 39 260 cyclone/zl group 33;
#X obj 39 306 maxlib/listfunnel;
#X obj 39 385 unpack 0 0;
#X obj 39 223 expr $f1 * -0.000976562 + 1, f 19;
#X obj 39 336 clone -x 1_LDR_smooth 32 0.25, f 16;
#X obj 106 407 cyclone/zl group 32;
#X connect 0 0 3 0;
#X connect 1 0 2 1;
#X connect 2 0 12 0;
#X connect 3 0 4 0;
#X connect 4 0 2 0;
#X connect 4 1 1 0;
#X connect 8 0 10 0;
#X connect 9 0 8 0;
#X connect 10 0 13 0;
#X connect 11 1 14 0;
#X connect 12 0 9 0;
#X connect 13 0 11 0;
#X connect 14 0 5 0;
#X restore 149 392 pd 32_analog_ins;
#N canvas 921 200 453 581 LDR_treshold 0;
#X obj 32 57 maxlib/listfunnel;
#X obj 297 375 value LDRS_AMOUNT;
#X obj 297 349 bng 15 250 50 0 empty empty empty 17 7 0 10 -262144
-1 -1;
#X floatatom 297 407 5 0 0 0 - - -, f 5;
#X obj 32 416 / 32, f 5;
#X obj 330 346 loadbang;
#X floatatom 141 529 5 0 0 0 - - -, f 5;
#X text 212 37 USEFUL FOR MANY PATCHES;
#X obj 32 502 line;
#X msg 32 480 \$1 \$2;
#X obj 32 458 pack f 20;
#X obj 92 436 r sens_01_slew;
#X obj 64 155 change;
#X obj 32 361 t f f, f 29;
#X text 32 11 GET BRIGHT SENS and VALUE 0-1 FROM BRIGHTEST SENSRO;
#X obj 32 532 outlet 0-1;
#X obj 232 492 outlet BRIGHTEST;
#X obj 32 28 inlet ldr_list;
#X obj 129 158 unpack f f;
#X obj 129 305 s TRSHLD_SENS_NUM;
#X obj 129 248 pack f f;
#X obj 320 265 spigot;
#X obj 358 245 tgl 15 0 empty empty empty 17 7 0 10 -262144 -1 -1 0
1;
#X obj 320 287 print on;
#X obj 218 110 t l l;
#X obj 64 276 l, f 27;
#X obj 64 197 t b f;
#X obj 32 114 t f f;
#X obj 32 82 clone 1_sens_treshold 32;
#X connect 0 0 28 0;
#X connect 1 0 3 0;
#X connect 1 0 4 1;
#X connect 2 0 1 0;
#X connect 4 0 10 0;
#X connect 5 0 1 0;
#X connect 8 0 6 0;
#X connect 8 0 15 0;
#X connect 9 0 8 0;
#X connect 10 0 9 0;
#X connect 11 0 10 1;
#X connect 12 0 26 0;
#X connect 13 0 4 0;
#X connect 13 1 16 0;
#X connect 17 0 0 0;
#X connect 18 0 20 0;
#X connect 20 0 19 0;
#X connect 21 0 23 0;
#X connect 22 0 21 1;
#X connect 24 0 18 0;
#X connect 24 1 25 1;
#X connect 26 0 25 0;
#X connect 26 1 20 1;
#X connect 27 0 13 0;
#X connect 27 1 12 0;
#X connect 28 0 27 0;
#X connect 28 1 24 0;
#X restore 149 518 pd LDR_treshold;
#X obj 149 634 outlet 0-1;
#X obj 251 634 outlet sens_last_treshjold, f 27;
#X obj 720 464 s LDRS_INV_10_SMT_list, f 23;
#X obj 529 463 smlib/vmax, f 25;
#X obj 701 560 change;
#X obj 529 562 > 0.6;
#X obj 149 434 t l l l l, f 82;
#X obj 561 530 r GLOBAL_SENS_TRESH;
#X obj 47 605 spigot;
#X obj 86 586 tgl 15 0 empty empty empty 17 7 0 10 -262144 -1 -1 0
1;
#X obj 47 627 print;
#N canvas 0 51 867 403 4_LGs 0;
#X obj 180 22 inlet;
#X obj 247 217 / 8;
#X obj 389 216 / 8;
#X obj 541 221 / 8;
#X obj 693 223 / 8;
#X obj 247 196 change;
#X obj 389 193 change;
#X obj 541 199 change;
#X obj 693 199 change;
#X obj 180 295 change;
#X obj 180 66 list split 8, f 41;
#X obj 322 296 change;
#X obj 474 296 change;
#X obj 605 295 change;
#X obj 322 101 list split 8, f 44;
#X obj 474 133 list split 8, f 38;
#X obj 180 173 smlib/vmax;
#X obj 322 172 smlib/vmax;
#X obj 474 173 smlib/vmax;
#X obj 605 172 smlib/vmax, f 13;
#X obj 180 243 >;
#X obj 322 243 >;
#X obj 474 243 >;
#X obj 605 243 >;
#X obj 25 226 r GLOBAL_SENS_TRESH;
#X text 475 66 first row;
#X text 636 103 second row;
#X obj 180 338 s LG_L_1;
#X obj 247 338 s 01_L_1;
#X obj 322 338 s LG_L_2;
#X obj 389 338 s 01_L_2;
#X obj 474 339 s LG_L_3;
#X obj 541 341 s 01_L_3;
#X obj 605 341 s LG_L_4;
#X obj 693 343 s 01_L_4, f 9;
#X floatatom 280 218 5 0 0 0 - - -, f 5;
#X connect 0 0 10 0;
#X connect 1 0 28 0;
#X connect 2 0 30 0;
#X connect 3 0 32 0;
#X connect 4 0 34 0;
#X connect 5 0 1 0;
#X connect 5 0 35 0;
#X connect 6 0 2 0;
#X connect 7 0 3 0;
#X connect 8 0 4 0;
#X connect 9 0 27 0;
#X connect 10 0 16 0;
#X connect 10 1 14 0;
#X connect 11 0 29 0;
#X connect 12 0 31 0;
#X connect 13 0 33 0;
#X connect 14 0 17 0;
#X connect 14 1 15 0;
#X connect 15 0 18 0;
#X connect 15 1 19 0;
#X connect 16 0 20 0;
#X connect 16 1 5 0;
#X connect 17 0 21 0;
#X connect 17 1 6 0;
#X connect 18 0 22 0;
#X connect 18 1 7 0;
#X connect 19 0 23 0;
#X connect 19 1 8 0;
#X connect 20 0 9 0;
#X connect 21 0 11 0;
#X connect 22 0 12 0;
#X connect 23 0 13 0;
#X connect 24 0 23 1;
#X connect 24 0 22 1;
#X connect 24 0 21 1;
#X connect 24 0 20 1;
#X restore 339 523 pd 4_LGs;
#X text 340 553 each row has a LG;
#X text 343 579 and 1-8/8 val;
#N canvas 14 78 1262 354 scale_sensors 0;
#X obj 748 61 list-abs/list-compare;
#X obj 748 34 mapping/smooth_double;
#X obj 63 99 edge;
#X obj 63 140 bng 20 250 50 0 empty empty empty 0 -6 0 8 -262144 -1
-1;
#X obj 90 121 bng 20 250 50 0 empty empty empty 0 -6 0 8 -262144 -1
-1;
#X text 119 121 falling edge detected;
#X text 91 141 rising edge detected;
#X text 95 76 edge :: detect rising or falling edge in floats;
#X floatatom 89 66 5 0 0 0 - - -, f 5;
#X obj 63 64 tgl 20 0 empty empty empty 0 -6 0 8 -262144 -1 -1 0 1
;
#X text 158 95 written by <olaf.matthes@gmx.de>;
#X text 762 227 Arguments:;
#X text 851 228 1 trigger threshold;
#X floatatom 561 153 5 0 0 0 - - -, f 5;
#X obj 583 281 print trigger;
#X obj 724 281 print rest;
#X text 851 259 3 rest threshold;
#X msg 633 186 1;
#X msg 669 186 0;
#X text 702 167 "set" to change the parameters;
#X text 706 181 zero or nonszero in inlet to set the state to "high"
or "low". There is no debounce period after this.;
#X text 748 84 threshold monitors its input float stream and outputs
bangs when the signal exceeds a specified "trigger" value \, and also
when the input value recedes below a "rest" value. You can specify
debounce in number of floats received \, for the threshold~ to wait
after the two event types before triggering again.;
#X text 851 244 2 trigger debounce number;
#X text 850 276 4 rest debounce number;
#X obj 564 99 hsl 128 15 0 127 0 0 empty empty empty -2 -6 0 8 -262144
-1 -1 0 1;
#X msg 620 126 set 50 0 10 0;
#X msg 621 149 set 50 15 10 15;
#X obj 705 281 bng 15 250 50 0 empty empty empty 0 -6 0 8 -262144 -1
-1;
#X obj 561 281 bng 15 250 50 0 empty empty empty 0 -6 0 8 -262144 -1
-1;
#X obj 1021 268 smlib/threshold;
#X msg 74 193 bla foo dog;
#X msg 94 218 bla foo 23;
#X msg 55 170 bla foo dog 17;
#X obj 78 292 print list;
#X text 231 205 written by Olaf Matthes <olaf.matthes@gmx.de>;
#X text 153 238 The creation argument specifies whether nchange works
for floats \, symbols or lists.;
#X obj 159 292 cyclone/past;
#X text 261 293 like treshold;
#X obj 561 250 smlib/threshold 70 10 30 10;
#X obj 78 264 maxlib/nchange l, f 41;
#X connect 2 0 3 0;
#X connect 2 1 4 0;
#X connect 8 0 2 0;
#X connect 9 0 2 0;
#X connect 13 0 38 0;
#X connect 24 0 13 0;
#X connect 25 0 38 0;
#X connect 26 0 38 0;
#X connect 30 0 39 0;
#X connect 31 0 39 0;
#X connect 32 0 39 0;
#X connect 38 0 14 0;
#X connect 38 0 28 0;
#X connect 38 1 15 0;
#X connect 38 1 27 0;
#X connect 39 0 33 0;
#X restore 619 307 pd scale_sensors;
#X floatatom 172 565 5 0 0 0 - - -, f 5;
#X obj 529 594 change;
#X obj 529 634 s LG_GLOBAL;
#X text 38 122 SER INIT;
#X text 18 271 UNPACK SER MESS;
#X text 16 392 SCALE NORML SMOOTH;
#X text 149 662 SENS MAX FROM TRESHOLD KEEPS LAST VALUE - more stable
;
#X text 530 663 SENS MAX FROM SMLIB/VMAX JUMPS MORE WHEN NO LED ON
;
#X floatatom 539 485 5 0 0 1 MAX_SENS_VAL - MAX_LDR_V, f 5;
#X text 627 588 THIS USED TO BE OUR SENS MIN/MAX;
#X text 628 603 BUT WITH TRESHOLD IS MUCH MORE ACCURATE;
#N canvas 0 51 956 361 4_LGs 0;
#X obj 55 22 inlet;
#X obj 55 66 list split 8, f 57;
#X obj 253 101 list split 8, f 44;
#X obj 425 133 list split 8, f 51;
#X text 470 66 first row;
#X text 567 103 second row;
#X obj 156 319 s LG_L_1;
#X obj 55 319 s 01_L_1;
#X obj 55 177 maxlib/listfunnel;
#X obj 55 292 line;
#X msg 55 270 \$1 \$2;
#X obj 55 248 pack f 20;
#X obj 774 231 r sens_01_slew;
#X obj 55 226 / 8, f 5;
#X floatatom 15 232 5 0 0 0 - - -, f 5;
#X obj 711 88 print;
#X obj 711 66 spigot;
#X obj 750 45 tgl 15 0 empty empty empty 17 7 0 10 -262144 -1 -1 0
1;
#X obj 55 202 clone 1_sens_treshold 8;
#X obj 146 225 unpack f f;
#X obj 253 177 maxlib/listfunnel;
#X obj 253 292 line;
#X msg 253 270 \$1 \$2;
#X obj 253 248 pack f 20;
#X obj 253 226 / 8, f 5;
#X obj 253 202 clone 1_sens_treshold 8;
#X obj 344 225 unpack f f;
#X obj 253 319 s 01_L_2;
#X obj 344 319 s LG_L_2;
#X obj 425 177 maxlib/listfunnel;
#X obj 425 292 line;
#X msg 425 270 \$1 \$2;
#X obj 425 248 pack f 20;
#X obj 425 226 / 8, f 5;
#X obj 425 202 clone 1_sens_treshold 8;
#X obj 516 225 unpack f f;
#X obj 602 177 maxlib/listfunnel;
#X obj 602 292 line;
#X msg 602 270 \$1 \$2;
#X obj 602 248 pack f 20;
#X obj 602 226 / 8, f 5;
#X obj 602 202 clone 1_sens_treshold 8;
#X obj 693 225 unpack f f;
#X obj 425 319 s 01_L_3;
#X obj 516 319 s LG_L_3;
#X obj 602 319 s 01_L_4;
#X obj 693 319 s LG_L_4, f 19;
#X connect 0 0 1 0;
#X connect 1 0 8 0;
#X connect 1 1 2 0;
#X connect 2 0 20 0;
#X connect 2 1 3 0;
#X connect 3 0 29 0;
#X connect 3 1 36 0;
#X connect 8 0 18 0;
#X connect 9 0 7 0;
#X connect 10 0 9 0;
#X connect 11 0 10 0;
#X connect 12 0 11 1;
#X connect 12 0 23 1;
#X connect 12 0 32 1;
#X connect 12 0 39 1;
#X connect 13 0 11 0;
#X connect 16 0 15 0;
#X connect 17 0 16 1;
#X connect 18 0 14 0;
#X connect 18 0 13 0;
#X connect 18 2 19 0;
#X connect 19 1 6 0;
#X connect 20 0 25 0;
#X connect 21 0 27 0;
#X connect 22 0 21 0;
#X connect 23 0 22 0;
#X connect 24 0 23 0;
#X connect 25 0 24 0;
#X connect 25 2 26 0;
#X connect 26 1 28 0;
#X connect 29 0 34 0;
#X connect 30 0 43 0;
#X connect 31 0 30 0;
#X connect 32 0 31 0;
#X connect 33 0 32 0;
#X connect 34 0 33 0;
#X connect 34 2 35 0;
#X connect 35 1 44 0;
#X connect 36 0 41 0;
#X connect 37 0 45 0;
#X connect 38 0 37 0;
#X connect 39 0 38 0;
#X connect 40 0 39 0;
#X connect 41 0 40 0;
#X connect 41 2 42 0;
#X connect 42 1 46 0;
#X restore 416 524 pd 4_LGs;
#X connect 0 0 22 0;
#X connect 0 1 5 0;
#X connect 1 0 2 0;
#X connect 2 0 21 0;
#X connect 3 0 22 0;
#X connect 4 0 33 0;
#X connect 5 0 21 1;
#X connect 5 1 1 0;
#X connect 6 0 33 0;
#X connect 7 0 33 0;
#X connect 9 0 29 0;
#X connect 10 0 9 0;
#X connect 11 0 33 0;
#X connect 12 0 11 0;
#X connect 13 0 41 0;
#X connect 13 1 35 0;
#X connect 16 0 19 0;
#X connect 17 0 19 0;
#X connect 19 0 23 0;
#X connect 19 1 7 0;
#X connect 21 0 3 0;
#X connect 21 1 22 0;
#X connect 22 0 9 1;
#X connect 22 0 44 0;
#X connect 23 0 41 0;
#X connect 23 1 6 0;
#X connect 26 0 8 0;
#X connect 27 0 30 0;
#X connect 27 1 31 0;
#X connect 28 0 27 0;
#X connect 29 0 28 0;
#X connect 30 0 26 0;
#X connect 31 0 26 1;
#X connect 32 0 33 0;
#X connect 33 0 0 0;
#X connect 33 1 38 0;
#X connect 34 0 13 0;
#X connect 35 0 11 0;
#X connect 38 0 40 0;
#X connect 41 0 4 0;
#X connect 43 0 20 0;
#X connect 44 0 52 0;
#X connect 45 0 46 0;
#X connect 45 0 61 0;
#X connect 45 1 47 0;
#X connect 49 0 51 0;
#X connect 49 0 69 0;
#X connect 49 1 50 0;
#X connect 51 0 62 0;
#X connect 52 0 45 0;
#X connect 52 1 72 0;
#X connect 52 2 49 0;
#X connect 52 3 48 0;
#X connect 53 0 51 1;
#X connect 54 0 56 0;
#X connect 55 0 54 1;
#X connect 62 0 63 0;
#X restore 80 52 pd Read_32LDRs;
#X floatatom 62 100 2 0 0 1 MIN_SENS - min_sens, f 2;
#X floatatom 62 119 2 0 0 1 MAX_SENS - max_sens, f 2;
#X obj 248 114 hsl 50 15 0 1 0 0 empty 01_L_1 BTM_R 2 8 0 10 -261234
-258113 -262144 0 1;
#X obj 231 114 tgl 15 0 empty LG_L_1 empty 17 7 0 10 -262144 -1 -1
0 1;
#X obj 248 99 hsl 50 15 0 1 0 0 empty 01_L_2 3RD_R 2 8 0 10 -261234
-258113 -262144 0 1;
#X obj 231 99 tgl 15 0 empty LG_L_2 empty 17 7 0 10 -262144 -1 -1 0
1;
#X obj 248 84 hsl 50 15 0 1 0 0 empty 01_L_3 2ND_R 2 8 0 10 -261234
-258113 -262144 0 1;
#X obj 231 84 tgl 15 0 empty LG_L_3 empty 17 7 0 10 -262144 -1 -1 0
1;
#X obj 248 69 hsl 50 15 0 1 0 0 empty 01_L_4 TOP_R 2 8 0 10 -261234
-258113 -262144 0 1;
#X obj 231 69 tgl 15 0 empty LG_L_4 empty 17 7 0 10 -262144 -1 -1 0
1;
#X floatatom 231 55 3 0 1000 1 01_SLEW 01_SLEW sens_01_slew, f 3;
#X obj 83 78 hsl 100 15 0 1 0 0 empty empty 01_F_TRSHLD 2 8 0 10 -33289
-258113 -262144 0 1;
#X floatatom 637 65 5 0 1 3 SMTH_LDRS smooth smooth_factor_ldrs, f
5;
#X obj 464 65 vsl 10 48 0 1 0 0 empty MAX_LDR_V MAX_LDR_V -50 -9 0
10 -204800 -1 -1 0 1;
#X text 270 30 SENSORS COUNT 1-32 (FROM LIST) \, but arrays are index
from 0;
#X connect 1 0 8 0;
#X connect 6 0 7 0;
#X connect 8 0 20 0;
#X connect 8 1 10 0;
#X connect 8 1 9 0;
