#N canvas 407 55 929 202 10;
#X obj 11 24 cnv 15 900 90 empty empty Read_Serial 0 -10 0 20 -158827
-4160 0;
#X msg 16 30 99;
#X msg 43 30 close;
#X msg 89 30 open 1;
#X obj 527 51 tgl 15 0 empty empty empty 17 7 0 10 -262144 -1 -1 1
1;
#X floatatom 815 53 5 0 0 1 TRESHOLD GLOBAL_SENS_TRESH -, f 5;
#X floatatom 815 82 2 0 0 1 MIN_SENS min_sens -, f 2;
#X floatatom 815 96 2 0 0 1 MAX_SENS max_sens -, f 2;
#N canvas 458 287 588 589 Serial_Read_Nano_32LDRs 0;
#X obj 39 215 sel 255, f 15;
#X obj 46 280 < 128;
#X obj 46 300 + 1;
#X obj 46 343 - 128;
#X msg 39 149 99;
#X obj 141 235 t f f;
#X msg 106 122 open 3;
#X msg 183 120 close;
#X obj 220 557 print;
#X obj 221 403 tgl 15 0 empty empty empty 17 7 0 10 -262144 -1 -1 0
1;
#X text 153 214 unpacking;
#X msg 291 140 info;
#X obj 355 96 bng 15 250 50 0 empty empty empty 17 7 0 10 -262144 -1
-1;
#X obj 259 73 t b b;
#X text 148 281 everything above 127;
#X text 143 293 is control index;
#X text 350 345 ldrs;
#X obj 61 30 inlet;
#X obj 39 31 tgl 15 0 empty empty empty 17 7 0 10 -262144 -1 -1 0 1
;
#X text 105 27 open/close port;
#X obj 39 64 sel 1, f 21;
#X floatatom 350 321 5 0 0 0 - - -, f 5;
#X obj 46 322 cyclone/gate 2;
#X obj 39 376 cyclone/zl group 100;
#X obj 350 302 length;
#X obj 39 90 t b b, f 10;
#X text 390 52 open at startup;
#X text 328 141 check if open;
#X obj 220 534 timer;
#X obj 220 489 cyclone/cycle 2;
#X msg 220 465 symbol bang;
#X obj 220 443 t b b;
#X obj 220 510 bng 15 250 50 0 empty empty empty 17 7 0 10 -262144
-1 -1;
#X obj 252 510 bng 15 250 50 0 empty empty empty 17 7 0 10 -262144
-1 -1;
#X msg 268 174 devicename /dev/ttyUSB2 \, baud 115200 \, 99;
#X obj 100 471 print;
#X obj 100 442 spigot;
#X obj 139 421 tgl 15 0 empty empty empty 17 7 0 10 -262144 -1 -1 0
1;
#X obj 39 191 comport 3 115200, f 27;
#X obj 259 52 r serial_ldr_start;
#X obj 291 96 del 1000;
#X text 70 144 start pulling;
#X text 70 156 re-initialize port;
#N canvas 0 74 541 350 serial_open? 0;
#X obj 94 26 inlet;
#X floatatom 63 87 3 0 0 0 port - -, f 3;
#X obj 94 52 route port open;
#X obj 94 87 == 3;
#X obj 145 85 == 1;
#X obj 94 135 &&;
#X obj 101 110 t b f;
#X text 238 217 if port3 open send 1;
#X obj 147 218 s LDR_ARD_ON;
#X obj 94 216 outlet;
#X connect 0 0 2 0;
#X connect 2 0 1 0;
#X connect 2 0 3 0;
#X connect 2 1 4 0;
#X connect 3 0 5 0;
#X connect 4 0 6 0;
#X connect 5 0 8 0;
#X connect 5 0 9 0;
#X connect 6 0 5 0;
#X connect 6 1 5 1;
#X restore 306 208 pd serial_open?;
#X text 324 226 if port3 open send 1;
#X obj 306 229 tgl 15 0 empty empty empty 17 7 0 10 -262144 -1 -1 0
1;
#X obj 39 122 del 2500;
#X obj 39 410 outlet;
#X text 240 402 test speed;
#X obj 221 421 cyclone/switch;
#X connect 0 0 23 0;
#X connect 0 1 5 0;
#X connect 1 0 2 0;
#X connect 2 0 22 0;
#X connect 3 0 23 0;
#X connect 4 0 38 0;
#X connect 5 0 22 1;
#X connect 5 1 1 0;
#X connect 6 0 38 0;
#X connect 7 0 38 0;
#X connect 9 0 49 0;
#X connect 11 0 38 0;
#X connect 12 0 11 0;
#X connect 13 0 46 0;
#X connect 13 1 40 0;
#X connect 17 0 20 0;
#X connect 18 0 20 0;
#X connect 20 0 25 0;
#X connect 20 1 7 0;
#X connect 22 0 3 0;
#X connect 22 1 23 0;
#X connect 23 0 36 0;
#X connect 23 0 47 0;
#X connect 23 0 49 1;
#X connect 24 0 21 0;
#X connect 25 0 46 0;
#X connect 25 1 6 0;
#X connect 28 0 8 0;
#X connect 29 0 32 0;
#X connect 29 1 33 0;
#X connect 30 0 29 0;
#X connect 31 0 30 0;
#X connect 32 0 28 0;
#X connect 33 0 28 1;
#X connect 34 0 38 0;
#X connect 36 0 35 0;
#X connect 37 0 36 1;
#X connect 38 0 0 0;
#X connect 38 1 43 0;
#X connect 39 0 13 0;
#X connect 40 0 11 0;
#X connect 43 0 45 0;
#X connect 46 0 4 0;
#X connect 49 0 31 0;
#X restore 527 68 pd Serial_Read_Nano_32LDRs;
#X obj 151 4 tgl 15 0 empty ARD_MEGA_ON ARDUINO_MEGA_ON 17 7 0 10 -4034
-258113 -258113 0 1;
#X obj 279 1 tgl 15 0 empty LDR_ARD_ON LDR_ARD_ON 17 7 0 10 -4034 -258113
-258113 0 1;
#N canvas 0 50 450 250 (subpatch) 0;
#X array LDRS_INV_10_SMT 32 float 2;
#X coords 0 1 32 0 100 70 1 0 0;
#X restore 715 39 graph;
#X msg 543 49 0;
#X msg 572 49 1;
#N canvas 261 175 957 602 ser_Read_and_write_MEGA 0;
#X obj 203 180 sel 255;
#X obj 226 251 < 128;
#X obj 226 275 + 1;
#X obj 226 322 - 128;
#X msg 580 139 devices;
#X msg 251 94 99;
#X text 261 179 unpacking stuff;
#X obj 249 204 t f f;
#X msg 530 139 close;
#X obj 226 299 cyclone/gate 2;
#X msg 475 139 open 1;
#X obj 203 414 route 1 2 3 4 5, f 93;
#X obj 30 102 r to_comport;
#N canvas 143 194 572 327 MESStoCOMPORT 0;
#X obj 72 50 loadbang;
#X msg 72 111 bits 8;
#X msg 72 144 parity 0;
#X msg 72 174 stopbit 0;
#X obj 72 72 bng 15 250 50 0 empty empty empty 17 7 0 10 -262144 -1
-1;
#X obj 72 226 outlet;
#X msg 203 54 devices;
#X msg 225 111 print HELLO;
#X obj 225 90 bng 15 250 50 0 empty empty empty 17 7 0 10 -262144 -1
-1;
#X msg 212 140 10;
#X msg 267 55 info;
#X msg 183 185 devicename /dev/ttyUSB0 \, baud 115200 \, 99;
#X connect 0 0 4 0;
#X connect 1 0 5 0;
#X connect 2 0 5 0;
#X connect 3 0 5 0;
#X connect 4 0 1 0;
#X connect 4 0 2 0;
#X connect 4 0 3 0;
#X connect 6 0 5 0;
#X connect 8 0 7 0;
#X connect 8 0 9 0;
#X connect 9 0 5 0;
#X connect 10 0 5 0;
#X connect 11 0 5 0;
#X restore 650 139 pd MESStoCOMPORT;
#N canvas 469 72 815 371 digitalIns 0;
#X obj 339 62 unpack 0 0;
#X obj 406 84 << 7;
#X obj 340 112 +;
#X text 325 89 digital;
#X obj 22 172 & 1;
#X obj 22 206 == 0;
#X obj 68 206 == 0;
#X obj 68 172 & 2;
#X obj 115 206 == 0;
#X obj 161 206 == 0;
#X obj 115 172 & 4;
#X obj 161 172 & 8;
#X obj 208 205 == 0;
#X obj 254 205 == 0;
#X obj 301 205 == 0;
#X obj 347 205 == 0;
#X obj 208 171 & 16;
#X obj 254 171 & 32;
#X obj 301 171 & 64;
#X obj 347 171 & 128;
#X obj 393 204 == 0;
#X obj 439 204 == 0;
#X obj 486 204 == 0;
#X obj 393 170 & 256;
#X obj 439 170 & 512;
#X obj 486 170 & 1024;
#X text 276 317 digital outs;
#X obj 339 35 inlet;
#X obj 534 206 == 0;
#X obj 583 205 == 0;
#X obj 633 206 == 0;
#X obj 682 206 == 0;
#X obj 534 172 & 2048;
#X obj 583 171 & 4096;
#X obj 633 172 & 8192;
#X obj 682 172 & 16384;
#X obj 22 329 outlet;
#X obj 707 131 print;
#X obj 707 102 spigot;
#X obj 746 81 tgl 15 0 empty empty empty 17 7 0 10 -262144 -1 -1 0
1;
#X obj 22 238 change;
#X obj 68 238 change;
#X obj 115 238 change;
#X obj 161 238 change;
#X obj 208 238 change;
#X obj 254 238 change;
#X obj 301 238 change;
#X obj 347 238 change;
#X obj 393 238 change;
#X obj 439 238 change;
#X obj 486 238 change;
#X obj 534 238 change;
#X obj 583 238 change;
#X obj 633 238 change;
#X obj 682 238 change;
#X obj 22 285 else/pack2 0 0 0 0 0 0 0 0 0 0 0 0 0 0 0, f 94;
#X connect 0 0 2 0;
#X connect 0 1 1 0;
#X connect 1 0 2 1;
#X connect 2 0 4 0;
#X connect 2 0 7 0;
#X connect 2 0 10 0;
#X connect 2 0 11 0;
#X connect 2 0 16 0;
#X connect 2 0 17 0;
#X connect 2 0 18 0;
#X connect 2 0 19 0;
#X connect 2 0 23 0;
#X connect 2 0 24 0;
#X connect 2 0 25 0;
#X connect 2 0 32 0;
#X connect 2 0 33 0;
#X connect 2 0 34 0;
#X connect 2 0 35 0;
#X connect 4 0 5 0;
#X connect 5 0 40 0;
#X connect 6 0 41 0;
#X connect 7 0 6 0;
#X connect 8 0 42 0;
#X connect 9 0 43 0;
#X connect 10 0 8 0;
#X connect 11 0 9 0;
#X connect 12 0 44 0;
#X connect 13 0 45 0;
#X connect 14 0 46 0;
#X connect 15 0 47 0;
#X connect 16 0 12 0;
#X connect 17 0 13 0;
#X connect 18 0 14 0;
#X connect 19 0 15 0;
#X connect 20 0 48 0;
#X connect 21 0 49 0;
#X connect 22 0 50 0;
#X connect 23 0 20 0;
#X connect 24 0 21 0;
#X connect 25 0 22 0;
#X connect 27 0 0 0;
#X connect 27 0 38 0;
#X connect 28 0 51 0;
#X connect 29 0 52 0;
#X connect 30 0 53 0;
#X connect 31 0 54 0;
#X connect 32 0 28 0;
#X connect 33 0 29 0;
#X connect 34 0 30 0;
#X connect 35 0 31 0;
#X connect 38 0 37 0;
#X connect 39 0 38 1;
#X connect 40 0 55 0;
#X connect 41 0 55 1;
#X connect 42 0 55 2;
#X connect 43 0 55 3;
#X connect 44 0 55 4;
#X connect 45 0 55 5;
#X connect 46 0 55 6;
#X connect 47 0 55 7;
#X connect 48 0 55 8;
#X connect 49 0 55 9;
#X connect 50 0 55 10;
#X connect 51 0 55 11;
#X connect 52 0 55 12;
#X connect 53 0 55 13;
#X connect 54 0 55 14;
#X connect 55 0 36 0;
#X restore 462 480 pd digitalIns;
#N canvas 126 246 783 357 digitalIns 0;
#X obj 339 62 unpack 0 0;
#X obj 406 84 << 7;
#X text 379 108 digital;
#X obj 339 35 inlet;
#X obj 339 111 +;
#X obj 21 161 & 1;
#X obj 21 195 == 0;
#X obj 67 195 == 0;
#X obj 67 161 & 2;
#X obj 114 195 == 0;
#X obj 160 195 == 0;
#X obj 114 161 & 4;
#X obj 160 161 & 8;
#X obj 207 194 == 0;
#X obj 253 194 == 0;
#X obj 300 194 == 0;
#X obj 346 194 == 0;
#X obj 207 160 & 16;
#X obj 253 160 & 32;
#X obj 300 160 & 64;
#X obj 346 160 & 128;
#X obj 392 193 == 0;
#X obj 438 193 == 0;
#X obj 485 193 == 0;
#X obj 392 159 & 256;
#X obj 438 159 & 512;
#X obj 485 159 & 1024;
#X text 275 306 digital outs;
#X obj 533 195 == 0;
#X obj 582 194 == 0;
#X obj 632 195 == 0;
#X obj 681 195 == 0;
#X obj 533 161 & 2048;
#X obj 582 160 & 4096;
#X obj 632 161 & 8192;
#X obj 681 161 & 16384;
#X obj 21 318 outlet;
#X obj 21 227 change;
#X obj 67 227 change;
#X obj 114 227 change;
#X obj 160 227 change;
#X obj 207 227 change;
#X obj 253 227 change;
#X obj 300 227 change;
#X obj 346 227 change;
#X obj 392 227 change;
#X obj 438 227 change;
#X obj 485 227 change;
#X obj 533 227 change;
#X obj 582 227 change;
#X obj 632 227 change;
#X obj 681 227 change;
#X obj 559 55 print;
#X obj 559 26 spigot;
#X obj 598 5 tgl 15 0 empty empty empty 17 7 0 10 -262144 -1 -1 0 1
;
#X obj 21 274 else/pack2 0 0 0 0 0 0 0 0 0 0 0 0 0 0 0, f 94;
#X connect 0 0 4 0;
#X connect 0 1 1 0;
#X connect 1 0 4 1;
#X connect 3 0 0 0;
#X connect 3 0 53 0;
#X connect 4 0 5 0;
#X connect 4 0 8 0;
#X connect 4 0 11 0;
#X connect 4 0 12 0;
#X connect 4 0 17 0;
#X connect 4 0 18 0;
#X connect 4 0 19 0;
#X connect 4 0 20 0;
#X connect 4 0 24 0;
#X connect 4 0 25 0;
#X connect 4 0 26 0;
#X connect 4 0 32 0;
#X connect 4 0 33 0;
#X connect 4 0 34 0;
#X connect 4 0 35 0;
#X connect 5 0 6 0;
#X connect 6 0 37 0;
#X connect 7 0 38 0;
#X connect 8 0 7 0;
#X connect 9 0 39 0;
#X connect 10 0 40 0;
#X connect 11 0 9 0;
#X connect 12 0 10 0;
#X connect 13 0 41 0;
#X connect 14 0 42 0;
#X connect 15 0 43 0;
#X connect 16 0 44 0;
#X connect 17 0 13 0;
#X connect 18 0 14 0;
#X connect 19 0 15 0;
#X connect 20 0 16 0;
#X connect 21 0 45 0;
#X connect 22 0 46 0;
#X connect 23 0 47 0;
#X connect 24 0 21 0;
#X connect 25 0 22 0;
#X connect 26 0 23 0;
#X connect 28 0 48 0;
#X connect 29 0 49 0;
#X connect 30 0 50 0;
#X connect 31 0 51 0;
#X connect 32 0 28 0;
#X connect 33 0 29 0;
#X connect 34 0 30 0;
#X connect 35 0 31 0;
#X connect 37 0 55 0;
#X connect 38 0 55 1;
#X connect 39 0 55 2;
#X connect 40 0 55 3;
#X connect 41 0 55 4;
#X connect 42 0 55 5;
#X connect 43 0 55 6;
#X connect 44 0 55 7;
#X connect 45 0 55 8;
#X connect 46 0 55 9;
#X connect 47 0 55 10;
#X connect 48 0 55 11;
#X connect 49 0 55 12;
#X connect 50 0 55 13;
#X connect 51 0 55 14;
#X connect 53 0 52 0;
#X connect 54 0 53 1;
#X connect 55 0 36 0;
#X restore 591 481 pd digitalIns;
#N canvas 665 298 774 389 digitalIns 0;
#X obj 336 35 inlet;
#X obj 336 61 unpack 0 0;
#X obj 403 93 << 7;
#X text 376 117 digital;
#X obj 336 120 +;
#X obj 18 170 & 1;
#X obj 18 204 == 0;
#X obj 64 204 == 0;
#X obj 64 170 & 2;
#X obj 111 204 == 0;
#X obj 157 204 == 0;
#X obj 111 170 & 4;
#X obj 157 170 & 8;
#X obj 204 203 == 0;
#X obj 250 203 == 0;
#X obj 297 203 == 0;
#X obj 343 203 == 0;
#X obj 204 169 & 16;
#X obj 250 169 & 32;
#X obj 297 169 & 64;
#X obj 343 169 & 128;
#X obj 389 202 == 0;
#X obj 435 202 == 0;
#X obj 482 202 == 0;
#X obj 389 168 & 256;
#X obj 435 168 & 512;
#X obj 482 168 & 1024;
#X text 272 315 digital outs;
#X obj 530 204 == 0;
#X obj 579 203 == 0;
#X obj 629 204 == 0;
#X obj 678 204 == 0;
#X obj 530 170 & 2048;
#X obj 579 169 & 4096;
#X obj 629 170 & 8192;
#X obj 678 170 & 16384;
#X obj 18 327 outlet;
#X obj 18 236 change;
#X obj 64 236 change;
#X obj 111 236 change;
#X obj 157 236 change;
#X obj 204 236 change;
#X obj 250 236 change;
#X obj 297 236 change;
#X obj 343 236 change;
#X obj 389 236 change;
#X obj 435 236 change;
#X obj 482 236 change;
#X obj 530 236 change;
#X obj 579 236 change;
#X obj 629 236 change;
#X obj 678 236 change;
#X obj 18 283 else/pack2 0 0 0 0 0 0 0 0 0 0 0 0 0 0 0, f 94;
#X connect 0 0 1 0;
#X connect 1 0 4 0;
#X connect 1 1 2 0;
#X connect 2 0 4 1;
#X connect 4 0 5 0;
#X connect 4 0 8 0;
#X connect 4 0 11 0;
#X connect 4 0 12 0;
#X connect 4 0 17 0;
#X connect 4 0 18 0;
#X connect 4 0 19 0;
#X connect 4 0 20 0;
#X connect 4 0 24 0;
#X connect 4 0 25 0;
#X connect 4 0 26 0;
#X connect 4 0 32 0;
#X connect 4 0 33 0;
#X connect 4 0 34 0;
#X connect 4 0 35 0;
#X connect 5 0 6 0;
#X connect 6 0 37 0;
#X connect 7 0 38 0;
#X connect 8 0 7 0;
#X connect 9 0 39 0;
#X connect 10 0 40 0;
#X connect 11 0 9 0;
#X connect 12 0 10 0;
#X connect 13 0 41 0;
#X connect 14 0 42 0;
#X connect 15 0 43 0;
#X connect 16 0 44 0;
#X connect 17 0 13 0;
#X connect 18 0 14 0;
#X connect 19 0 15 0;
#X connect 20 0 16 0;
#X connect 21 0 45 0;
#X connect 22 0 46 0;
#X connect 23 0 47 0;
#X connect 24 0 21 0;
#X connect 25 0 22 0;
#X connect 26 0 23 0;
#X connect 28 0 48 0;
#X connect 29 0 49 0;
#X connect 30 0 50 0;
#X connect 31 0 51 0;
#X connect 32 0 28 0;
#X connect 33 0 29 0;
#X connect 34 0 30 0;
#X connect 35 0 31 0;
#X connect 37 0 52 0;
#X connect 38 0 52 1;
#X connect 39 0 52 2;
#X connect 40 0 52 3;
#X connect 41 0 52 4;
#X connect 42 0 52 5;
#X connect 43 0 52 6;
#X connect 44 0 52 7;
#X connect 45 0 52 8;
#X connect 46 0 52 9;
#X connect 47 0 52 10;
#X connect 48 0 52 11;
#X connect 49 0 52 12;
#X connect 50 0 52 13;
#X connect 51 0 52 14;
#X connect 52 0 36 0;
#X restore 721 479 pd digitalIns;
#X obj 591 504 s dig_val2;
#X obj 462 503 s dig_val1;
#X obj 721 503 s dig_val3;
#X obj 203 381 cyclone/zl group 240;
#X obj 203 31 inlet;
#X text 249 541 FIRST NORMALIZE ALL INPUTS TO 0-1 THEN SCALE TO APPROPRIATE
VALUES IN PATCHES;
#X text 156 481 analog;
#X text 317 477 analog;
#X text 474 461 digital;
#X text 601 460 digital;
#X text 734 459 digital;
#X msg 332 98 info;
#X obj 332 76 del 1000;
#X obj 251 52 t b b, f 12;
#X text 371 100 check if serial open;
#X text 405 75 DEFAULT POLLING INTERVAL IS 10MS;
#X obj 62 447 print;
#X obj 62 418 spigot;
#X obj 101 397 tgl 15 0 empty empty empty 17 7 0 10 -262144 -1 -1 0
1;
#X obj 10 300 print;
#X obj 11 140 tgl 15 0 empty empty empty 17 7 0 10 -262144 -1 -1 0
1;
#X text 36 139 for debugging;
#X obj 10 277 timer;
#X obj 10 232 cyclone/cycle 2;
#X msg 10 208 symbol bang;
#X obj 10 186 t b b;
#X obj 10 253 bng 15 250 50 0 empty empty empty 17 7 0 10 -262144 -1
-1;
#X obj 112 254 bng 15 250 50 0 empty empty empty 17 7 0 10 -262144
-1 -1;
#X text 270 250 above 127 is control index;
#N canvas 0 103 283 249 serial_open? 0;
#X obj 95 46 inlet;
#X floatatom 67 102 3 0 0 0 port - -, f 3;
#X obj 95 75 route port open;
#X obj 146 98 == 1;
#X obj 95 148 &&;
#X obj 102 123 t b f;
#X obj 95 100 == 1;
#X obj 155 187 s ARD_MEGA_ON;
#X text 152 206 if port1 open send 1;
#X obj 95 184 outlet;
#X connect 0 0 2 0;
#X connect 2 0 1 0;
#X connect 2 0 6 0;
#X connect 2 1 3 0;
#X connect 3 0 5 0;
#X connect 4 0 7 0;
#X connect 4 0 9 0;
#X connect 5 0 4 0;
#X connect 5 1 4 1;
#X connect 6 0 4 0;
#X restore 474 173 pd serial_open?;
#X obj 474 192 tgl 15 0 empty empty empty 17 7 0 10 -262144 -1 -1 0
1;
#X text 493 192 if port1 open send 1;
#X obj 251 30 r serial_mega_start;
#X text 12 64 LED CTRL from serial out;
#X text 2 77 bootm-panel and pwm leds;
#X obj 203 156 comport 1 19200;
#N canvas 760 220 563 611 48_a_in_norm_10_smth 0;
#X obj 50 82 inlet;
#X obj 173 167 << 7;
#X obj 50 197 +;
#X obj 50 114 cyclone/zl iter 2;
#X obj 50 141 cyclone/zl slice 1;
#X obj 50 381 cyclone/zl group 49;
#X obj 50 403 cyclone/zl slice 48;
#X obj 261 273 print;
#X obj 262 83 tgl 15 0 empty empty empty 17 7 0 10 -262144 -1 -1 0
1;
#X text 281 82 for debugging;
#X obj 261 250 timer;
#X obj 261 185 cyclone/cycle 2;
#X msg 261 161 symbol bang;
#X obj 261 129 t b b;
#X obj 261 216 bng 15 250 50 0 empty empty empty 17 7 0 10 -262144
-1 -1;
#X obj 363 217 bng 15 250 50 0 empty empty empty 17 7 0 10 -262144
-1 -1;
#X obj 287 343 print;
#X obj 287 314 spigot;
#X obj 326 293 tgl 15 0 empty empty empty 17 7 0 10 -262144 -1 -1 0
1;
#X obj 117 541 array set 48_analog_norm;
#X obj 50 426 maxlib/listfunnel;
#X obj 50 495 unpack 0 0;
#X obj 50 224 expr $f1 * -0.000976562 + 1, f 19;
#X obj 50 446 clone -x 1_LDR_smooth 48 0.25, f 16;
#X obj 117 517 zl group 48;
#X msg 50 339 0;
#X obj 64 303 bng 15 250 50 0 empty empty empty 17 7 0 10 -262144 -1
-1;
#X obj 50 275 moses 0.08;
#X obj 262 107 cyclone/switch;
#X connect 0 0 3 0;
#X connect 1 0 2 1;
#X connect 2 0 22 0;
#X connect 2 0 28 1;
#X connect 3 0 4 0;
#X connect 4 0 2 0;
#X connect 4 1 1 0;
#X connect 5 0 6 0;
#X connect 6 0 20 0;
#X connect 8 0 28 0;
#X connect 10 0 7 0;
#X connect 11 0 14 0;
#X connect 11 1 15 0;
#X connect 12 0 11 0;
#X connect 13 0 12 0;
#X connect 14 0 10 0;
#X connect 15 0 10 1;
#X connect 17 0 16 0;
#X connect 18 0 17 1;
#X connect 20 0 23 0;
#X connect 21 1 24 0;
#X connect 22 0 27 0;
#X connect 23 0 21 0;
#X connect 24 0 19 0;
#X connect 24 0 17 0;
#X connect 25 0 5 0;
#X connect 27 0 25 0;
#X connect 27 1 5 0;
#X connect 28 0 13 0;
#X restore 102 501 pd 48_a_in_norm_10_smth;
#N canvas 974 275 345 503 32_a_in_norm_10_smt 0;
#X obj 45 22 inlet;
#X obj 111 107 << 7;
#X obj 45 137 +;
#X obj 45 48 cyclone/zl iter 2;
#X obj 45 81 cyclone/zl slice 1;
#X obj 45 305 cyclone/zl slice 32;
#X obj 45 188 + 1;
#X obj 45 282 cyclone/zl group 33;
#X obj 45 328 maxlib/listfunnel;
#X obj 45 348 clone -x 1_LDR_smooth 32 0.25, f 16;
#X obj 45 164 * -0.000976562;
#X obj 45 398 unpack 0 0;
#X obj 47 451 array set 32_a_ins_norm_smt;
#X obj 112 420 zl group 32;
#X msg 45 244 0;
#X obj 45 210 moses 0.09;
#X connect 0 0 3 0;
#X connect 1 0 2 1;
#X connect 2 0 10 0;
#X connect 3 0 4 0;
#X connect 4 0 2 0;
#X connect 4 1 1 0;
#X connect 5 0 8 0;
#X connect 6 0 15 0;
#X connect 7 0 5 0;
#X connect 8 0 9 0;
#X connect 9 0 11 0;
#X connect 10 0 6 0;
#X connect 11 1 13 0;
#X connect 13 0 12 0;
#X connect 14 0 7 0;
#X connect 15 0 14 0;
#X connect 15 1 7 0;
#X restore 278 501 pd 32_a_in_norm_10_smt;
#X obj 251 75 del 12000;
#X obj 11 164 cyclone/switch;
#X connect 0 0 20 0;
#X connect 0 1 7 0;
#X connect 1 0 2 0;
#X connect 2 0 9 0;
#X connect 3 0 20 0;
#X connect 4 0 52 0;
#X connect 5 0 52 0;
#X connect 7 0 9 1;
#X connect 7 1 1 0;
#X connect 8 0 52 0;
#X connect 9 0 3 0;
#X connect 9 1 20 0;
#X connect 10 0 52 0;
#X connect 11 0 53 0;
#X connect 11 1 54 0;
#X connect 11 2 14 0;
#X connect 11 3 15 0;
#X connect 11 4 16 0;
#X connect 12 0 52 0;
#X connect 12 0 56 1;
#X connect 14 0 18 0;
#X connect 15 0 17 0;
#X connect 16 0 19 0;
#X connect 20 0 11 0;
#X connect 21 0 52 0;
#X connect 28 0 52 0;
#X connect 29 0 28 0;
#X connect 30 0 55 0;
#X connect 30 1 29 0;
#X connect 34 0 33 0;
#X connect 35 0 34 1;
#X connect 37 0 56 0;
#X connect 39 0 36 0;
#X connect 40 0 43 0;
#X connect 40 1 44 0;
#X connect 41 0 40 0;
#X connect 42 0 41 0;
#X connect 43 0 39 0;
#X connect 44 0 39 1;
#X connect 46 0 47 0;
#X connect 49 0 30 0;
#X connect 52 0 0 0;
#X connect 52 1 46 0;
#X connect 55 0 5 0;
#X connect 56 0 42 0;
#X restore 16 50 pd ser_Read_and_write_MEGA;
#X floatatom 815 39 5 0 1 1 TRESHOLD - GLOBAL_SENS_TRESH, f 5;
#N canvas 731 310 667 512 scale_sensors_+_LCG 0;
#X obj 432 386 list-abs/list-compare;
#X obj 432 359 mapping/smooth_double;
#N canvas 319 215 1061 548 32_analog_ins 0;
#X obj 39 79 inlet;
#X obj 78 171 << 7;
#X obj 39 196 +, f 6;
#X obj 39 107 cyclone/zl iter 2;
#X obj 39 128 cyclone/zl slice 1, f 10;
#X obj 221 281 cyclone/zl slice 32;
#X obj 106 444 outlet;
#X msg 196 151 1;
#X msg 233 150 2;
#X obj 221 234 + 1;
#X obj 812 287 cyclone/zl slice 32;
#X obj 812 264 cyclone/zl group 33;
#X obj 489 461 print;
#X obj 489 432 spigot;
#X obj 528 411 tgl 15 0 empty empty empty 17 7 0 10 -262144 -1 -1 0
1;
#X obj 221 258 cyclone/zl group 33;
#X obj 812 310 maxlib/listfunnel;
#X obj 221 304 maxlib/listfunnel;
#X obj 221 324 clone -x 1_LDR_smooth 32 0.25, f 16;
#X obj 281 411 unpack 0 0;
#X obj 348 443 zl group 32;
#X obj 197 95 hradio 15 1 1 5 empty empty empty 0 -8 0 10 -262144 -1
-1 2;
#X floatatom 197 115 5 0 0 0 - - -, f 5;
#X text 319 208 normalize 0-1;
#X text 320 219 inverse -1-0;
#X text 321 233 shift 0-1;
#X obj 221 210 * -0.000976562;
#X text 680 140 ldrs;
#X floatatom 680 116 5 0 0 0 - - -, f 5;
#X obj 680 97 length;
#N canvas 307 92 329 529 scale_ldrs_0-100 0;
#X obj 115 155 r scaledLIST100;
#N canvas 0 50 450 300 (subpatch) 0;
#X array ldrs_no_filt_scaled 16 float 2;
#X coords 0 100 16 0 200 200 1 0 0;
#X restore 33 301 graph;
#X obj 34 222 unpack 0 0;
#X obj 34 244 swap;
#X obj 34 154 tgl 15 0 empty empty empty 17 7 0 10 -262144 -1 -1 0
1;
#X obj 34 177 cyclone/gate;
#X obj 34 200 maxlib/listfunnel;
#X obj 34 265 tabwrite ldrs_no_filt_scaled;
#X obj 33 133 s scaledLIST100;
#X obj 33 112 zl group 16;
#X obj 33 87 expr (((($s2[$f1])/1024)*-1)+1)*100;
#X obj 34 25 t b b;
#X obj 34 65 - 1;
#X msg 153 42 symbol ldrs_no_filt;
#X obj 34 45 cyclone/Uzi 16;
#X connect 0 0 5 1;
#X connect 2 0 3 0;
#X connect 2 1 3 1;
#X connect 3 0 7 0;
#X connect 3 1 7 1;
#X connect 4 0 5 0;
#X connect 5 0 6 0;
#X connect 6 0 2 0;
#X connect 9 0 8 0;
#X connect 10 0 9 0;
#X connect 11 0 14 0;
#X connect 11 1 13 0;
#X connect 12 0 10 0;
#X connect 13 0 10 1;
#X connect 14 2 12 0;
#X restore 766 79 pd scale_ldrs_0-100;
#X obj 418 222 expr $f1 * -0.000976562 + 1, f 19;
#X obj 418 281 cyclone/zl slice 32;
#X obj 418 258 cyclone/zl group 33;
#X obj 418 304 maxlib/listfunnel;
#X obj 418 324 clone -x 1_LDR_smooth 32 0.25, f 16;
#X obj 221 182 cyclone/gate 5 1, f 113;
#N canvas 0 172 532 330 other_tests 0;
#X obj 53 70 mapping/autoscale;
#X text 186 70 dobry pomysł ale nie działa;
#X obj 47 113 list-abs/list-map;
#X obj 185 113 mapping/smooth 0.25;
#X text 199 144 tez nie działa;
#X floatatom 247 165 5 0 1 0 - - -, f 5;
#X obj 56 197 list-abs/list-apply * -0.000976562;
#X text 54 -3 If you use [autoscale] with no arguments \, then the
output range defaults to 0-1.;
#X text 54 22 [autoscale] scales a stream of numbers based on an output
range set as arguments \, and an input range which is set dynamically.
;
#X connect 2 1 3 0;
#X connect 3 0 2 1;
#X connect 5 0 6 2;
#X restore 539 60 pd other_tests;
#X obj 615 278 cyclone/zl slice 32;
#X obj 615 255 cyclone/zl group 33;
#X obj 615 301 maxlib/listfunnel;
#X obj 615 322 clone -x 1_ldr_norm_inv_smt 32 0.25, f 19;
#X obj 812 331 clone -x 1_ldr_norm_inv_smt_old_v 32 0.25, f 19;
#X obj 39 283 cyclone/zl slice 32;
#X obj 39 260 cyclone/zl group 33;
#X obj 39 306 maxlib/listfunnel;
#X obj 39 336 clone -x 1_LDR_smooth 32 0.25, f 16;
#X obj 39 395 unpack 0 0;
#X obj 106 417 zl group 32;
#X obj 39 223 expr $f1 * -0.000976562 + 1, f 19;
#X connect 0 0 3 0;
#X connect 1 0 2 1;
#X connect 2 0 49 0;
#X connect 3 0 4 0;
#X connect 4 0 2 0;
#X connect 4 1 1 0;
#X connect 5 0 17 0;
#X connect 7 0 36 0;
#X connect 8 0 36 0;
#X connect 9 0 15 0;
#X connect 10 0 16 0;
#X connect 11 0 10 0;
#X connect 13 0 12 0;
#X connect 14 0 13 1;
#X connect 15 0 5 0;
#X connect 16 0 42 0;
#X connect 17 0 18 0;
#X connect 18 0 19 0;
#X connect 19 1 20 0;
#X connect 21 0 22 0;
#X connect 22 0 36 0;
#X connect 26 0 9 0;
#X connect 29 0 28 0;
#X connect 31 0 33 0;
#X connect 32 0 34 0;
#X connect 33 0 32 0;
#X connect 34 0 35 0;
#X connect 35 0 19 0;
#X connect 36 0 26 0;
#X connect 36 1 31 0;
#X connect 36 2 39 0;
#X connect 36 3 11 0;
#X connect 38 0 40 0;
#X connect 39 0 38 0;
#X connect 40 0 41 0;
#X connect 41 0 19 0;
#X connect 42 0 19 0;
#X connect 43 0 45 0;
#X connect 44 0 43 0;
#X connect 45 0 46 0;
#X connect 46 0 47 0;
#X connect 47 1 48 0;
#X connect 47 1 13 0;
#X connect 48 0 6 0;
#X connect 49 0 44 0;
#X restore 170 80 pd 32_analog_ins;
#X obj 437 117 array set LDRS_SMTH;
#X obj 200 444 smlib/vmax;
#X obj 439 178 array set LDRS_NO_FILT;
#X floatatom 352 335 5 0 0 0 - - -, f 5;
#X floatatom 267 466 5 0 0 0 - - -, f 5;
#X obj 236 336 + 1;
#X obj 440 238 array define LDRS_NO_FILT;
#X obj 230 163 array set LDRS_INV_10_SMT;
#X obj 322 356 s max_sens;
#X floatatom 331 464 5 0 0 0 - - -, f 5;
#X obj 322 336 + 1;
#X obj 201 423 array min LDRS_SMTH;
#X obj 236 356 s min_sens;
#X obj 438 212 array define LDRS_SMTH;
#X floatatom 170 301 5 0 0 0 - - -, f 5;
#X obj 210 199 s LDRS_INV_10_SMT_list;
#X obj 170 277 array max LDRS_INV_10_SMT;
#X obj 439 152 s LDR_NO_FILT;
#X obj 100 359 outlet;
#X obj 26 317 print;
#X obj 27 127 tgl 15 0 empty empty empty 17 7 0 10 -262144 -1 -1 0
1;
#X text 435 85 ldrs;
#X floatatom 25 371 5 0 0 0 - - -, f 5;
#X obj 25 352 length;
#X obj 26 294 timer;
#X obj 26 229 cyclone/cycle 2;
#X msg 26 205 symbol bang;
#X obj 26 260 bng 15 250 50 0 empty empty empty 17 7 0 10 -262144 -1
-1;
#X obj 128 261 bng 15 250 50 0 empty empty empty 17 7 0 10 -262144
-1 -1;
#X obj 29 89 print;
#X obj 29 60 spigot;
#X obj 68 39 tgl 15 0 empty empty empty 17 7 0 10 -262144 -1 -1 0 1
;
#X obj 170 38 inlet;
#X obj 26 173 t b;
#X text 46 126 test speed;
#N canvas 19 172 1373 807 lightGATE 0;
#X text 77 199 compare value of brightest sensor;
#X text 78 215 with our treszhold \, only output sound if its larger
;
#X text 77 231 if no light is on \, there is no sound!!!;
#X text 77 250 kind of like noise gate?;
#X floatatom 279 111 5 0 0 0 - - -, f 5;
#X text 134 180 treszhold;
#X text 276 134 0-1 from norm pot;
#X obj 86 156 > 0.6;
#X text 201 179 najlepiej kolo 0.6;
#X obj 86 132 array max LDRS_INV_10_SMT;
#X obj 279 86 r GLOBAL_SENS_TRESH;
#X obj 86 81 bng 15 250 50 0 empty empty empty 17 7 0 10 -262144 -1
-1;
#X floatatom 143 154 5 0 0 0 - - -, f 5;
#X floatatom 258 159 5 0 0 0 - - -, f 5;
#X obj 515 481 outlet;
#X text 936 435 compare value of brightest sensor;
#X text 936 448 with our treszhold \, only output sound if its larger
;
#X text 828 53 if no light is on \, there is no sound!!!;
#X text 829 41 kind of like noise gate?;
#X text 1001 363 treszhold;
#X text 1003 375 najlepiej od 250-450;
#X obj 515 441 change;
#X text 940 477 filter out repetitions;
#X text 880 198 because they control different samples;
#X text 512 503 light gate 1;
#X floatatom 951 398 5 0 0 0 - - -, f 5;
#X text 624 28 All sensors as list;
#X text 987 317 my own scaling;
#X text 1005 342 inverse - 1-x;
#X text 1052 512 0-1;
#X text 879 184 separately for first and last 16 LDRS;
#X text 1005 391 ale inne pacze potrzebuja innego;
#X obj 515 238 smlib/vmin;
#X floatatom 565 298 5 0 0 0 - - -, f 5;
#X obj 515 62 list split 8, f 30;
#X floatatom 535 124 5 0 0 0 - - -, f 5;
#X floatatom 434 117 5 0 0 0 - - -, f 5;
#X text 844 91 TRESHOLDS DETECT FOR 1 row;
#X text 620 40 rest of ldrs to next raw;
#X obj 515 34 inlet;
#X obj 618 482 outlet;
#X obj 618 442 change;
#X text 615 504 light gate 1;
#X obj 618 239 smlib/vmin;
#X floatatom 668 299 5 0 0 0 - - -, f 5;
#X obj 730 482 outlet;
#X obj 730 442 change;
#X text 727 504 light gate 1;
#X obj 730 239 smlib/vmin;
#X floatatom 780 299 5 0 0 0 - - -, f 5;
#X obj 826 481 outlet;
#X obj 826 441 change;
#X text 823 503 light gate 1;
#X obj 826 238 smlib/vmin;
#X floatatom 876 298 5 0 0 0 - - -, f 5;
#X obj 618 87 list split 8, f 28;
#X floatatom 638 141 5 0 0 0 - - -, f 5;
#X obj 730 119 list split 8, f 28;
#X floatatom 770 173 48 0 0 0 - - -, f 48;
#X obj 931 248 r GLOBAL_SENS_TRESH;
#X obj 931 329 f;
#X obj 434 97 list length;
#X obj 535 104 list length;
#X obj 638 121 list length;
#X obj 770 153 list length;
#X obj 116 41 tgl 15 0 empty empty empty 17 7 0 10 -262144 -1 -1 0
1;
#X obj 116 95 metro 20;
#X obj 140 27 loadbang;
#X msg 140 72 1;
#X obj 140 47 del 20000;
#X text 137 308 SENT TO SOUND PATCH 2 \, 3 \, 4?;
#X obj 86 446 s light_gate;
#X text 82 404 (usefull to reduce the flow controling pd event...)
;
#X text 78 381 output a new value only if the difference between the
input and last output is greater than \$1;
#X obj 91 591 bng 20 250 50 0 empty empty empty 0 -6 0 8 -262144 -1
-1;
#X obj 118 572 bng 20 250 50 0 empty empty empty 0 -6 0 8 -262144 -1
-1;
#X text 147 572 falling edge detected;
#X text 119 592 rising edge detected;
#X text 123 527 edge :: detect rising or falling edge in floats;
#X floatatom 117 517 5 0 0 0 - - -, f 5;
#X obj 91 515 tgl 20 0 empty empty empty 0 -6 0 8 -262144 -1 -1 0 1
;
#X text 186 546 written by <olaf.matthes@gmx.de>;
#X text 740 688 Arguments:;
#X text 829 689 1 trigger threshold;
#X floatatom 539 614 5 0 0 0 - - -, f 5;
#X obj 561 742 print trigger;
#X obj 702 742 print rest;
#X text 829 720 3 rest threshold;
#X msg 611 647 1;
#X msg 647 647 0;
#X text 680 628 "set" to change the parameters;
#X text 684 642 zero or nonszero in inlet to set the state to "high"
or "low". There is no debounce period after this.;
#X text 726 545 threshold monitors its input float stream and outputs
bangs when the signal exceeds a specified "trigger" value \, and also
when the input value recedes below a "rest" value. You can specify
debounce in number of floats received \, for the threshold~ to wait
after the two event types before triggering again.;
#X text 829 705 2 trigger debounce number;
#X text 828 737 4 rest debounce number;
#X obj 542 550 hsl 128 15 0 127 0 0 empty empty empty -2 -6 0 8 -262144
-1 -1 0 1;
#X msg 598 587 set 50 0 10 0;
#X msg 599 610 set 50 15 10 15;
#X obj 683 742 bng 15 250 50 0 empty empty empty 0 -6 0 8 -262144 -1
-1;
#X obj 539 742 bng 15 250 50 0 empty empty empty 0 -6 0 8 -262144 -1
-1;
#X obj 999 729 smlib/threshold;
#X msg 52 654 bla foo dog;
#X msg 72 679 bla foo 23;
#X msg 33 631 bla foo dog 17;
#X obj 56 753 print list;
#X text 209 666 written by Olaf Matthes <olaf.matthes@gmx.de>;
#X text 131 699 The creation argument specifies whether nchange works
for floats \, symbols or lists.;
#X obj 137 753 cyclone/past;
#X text 239 754 like treshold;
#X obj 539 711 smlib/threshold 70 10 30 10;
#X obj 56 725 maxlib/nchange l;
#X obj 515 401 <;
#X obj 618 402 <;
#X obj 730 402 <;
#X obj 826 401 <;
#X obj 91 550 maxlib/edge;
#X connect 7 0 71 0;
#X connect 9 0 7 0;
#X connect 9 0 12 0;
#X connect 9 1 13 0;
#X connect 10 0 4 0;
#X connect 10 0 7 1;
#X connect 11 0 9 0;
#X connect 21 0 14 0;
#X connect 32 0 33 0;
#X connect 32 0 111 0;
#X connect 34 0 32 0;
#X connect 34 0 61 0;
#X connect 34 1 55 0;
#X connect 34 1 62 0;
#X connect 39 0 34 0;
#X connect 41 0 40 0;
#X connect 43 0 44 0;
#X connect 43 0 112 0;
#X connect 46 0 45 0;
#X connect 48 0 49 0;
#X connect 48 0 113 0;
#X connect 51 0 50 0;
#X connect 53 0 54 0;
#X connect 53 0 114 0;
#X connect 55 0 43 0;
#X connect 55 1 57 0;
#X connect 55 1 63 0;
#X connect 57 0 48 0;
#X connect 57 1 53 0;
#X connect 57 1 64 0;
#X connect 59 0 60 0;
#X connect 60 0 25 0;
#X connect 60 0 111 1;
#X connect 60 0 112 1;
#X connect 60 0 113 1;
#X connect 60 0 114 1;
#X connect 61 0 36 0;
#X connect 62 0 35 0;
#X connect 63 0 56 0;
#X connect 64 0 58 0;
#X connect 65 0 66 0;
#X connect 66 0 9 0;
#X connect 67 0 69 0;
#X connect 68 0 66 0;
#X connect 69 0 68 0;
#X connect 79 0 115 0;
#X connect 80 0 115 0;
#X connect 84 0 109 0;
#X connect 95 0 84 0;
#X connect 96 0 109 0;
#X connect 97 0 109 0;
#X connect 101 0 110 0;
#X connect 102 0 110 0;
#X connect 103 0 110 0;
#X connect 109 0 85 0;
#X connect 109 0 99 0;
#X connect 109 1 86 0;
#X connect 109 1 98 0;
#X connect 110 0 104 0;
#X connect 111 0 21 0;
#X connect 112 0 41 0;
#X connect 113 0 46 0;
#X connect 114 0 51 0;
#X connect 115 0 74 0;
#X connect 115 1 75 0;
#X restore 190 244 pd lightGATE;
#X obj 170 124 t b l l l;
#X obj 339 306 change;
#X obj 236 312 change;
#X obj 27 151 cyclone/switch;
#X connect 2 0 39 0;
#X connect 2 0 33 0;
#X connect 4 1 7 0;
#X connect 8 0 15 0;
#X connect 13 0 11 0;
#X connect 14 1 12 0;
#X connect 19 0 17 0;
#X connect 19 1 40 0;
#X connect 19 1 41 0;
#X connect 23 0 42 0;
#X connect 26 0 25 0;
#X connect 27 0 22 0;
#X connect 28 0 30 0;
#X connect 28 1 31 0;
#X connect 29 0 28 0;
#X connect 30 0 27 0;
#X connect 31 0 27 1;
#X connect 33 0 32 0;
#X connect 34 0 33 1;
#X connect 35 0 2 0;
#X connect 36 0 29 0;
#X connect 39 0 19 0;
#X connect 39 1 38 0;
#X connect 39 2 18 0;
#X connect 39 3 10 0;
#X connect 40 0 13 0;
#X connect 41 0 8 0;
#X connect 42 0 36 0;
#X restore 527 92 pd scale_sensors_+_LCG;
#X floatatom 815 67 5 0 1 1 SMOOOTH smooth smooth_factor_ldrs, f 5
;
#N canvas 0 50 450 250 (subpatch) 0;
#X array 48_analog_norm 48 float 2;
#X coords 0 1 48 0 150 60 1 0 0;
#X restore 215 53 graph;
#N canvas 0 50 450 250 (subpatch) 0;
#X array 32_a_ins_norm_smt 32 float 2;
#X coords 0 1 32 0 150 75 1 0 0;
#X restore 368 37 graph;
#X obj 125 165 tgl 10 0 empty empty empty 17 7 0 10 -262144 -1 -1 1
1;
#X obj 162 165 tgl 10 0 empty empty empty 17 7 0 10 -262144 -1 -1 0
1;
#X obj 181 165 tgl 10 0 empty empty empty 17 7 0 10 -262144 -1 -1 0
1;
#X obj 200 165 tgl 10 0 empty empty empty 17 7 0 10 -262144 -1 -1 0
1;
#X obj 144 165 tgl 10 0 empty empty empty 17 7 0 10 -262144 -1 -1 0
1;
#X obj 218 165 tgl 10 0 empty empty empty 17 7 0 10 -262144 -1 -1 1
1;
#X obj 14 122 r dig_val1;
#X text 91 123 LFOsrcRM;
#X text 721 124 ch1_mute;
#X obj 256 165 tgl 10 0 empty empty empty 17 7 0 10 -262144 -1 -1 0
1;
#X obj 237 165 tgl 10 0 empty empty empty 17 7 0 10 -262144 -1 -1 1
1;
#X obj 107 165 tgl 10 0 empty empty empty 17 7 0 10 -262144 -1 -1 0
1;
#X obj 88 165 tgl 10 0 empty empty empty 17 7 0 10 -262144 -1 -1 0
1;
#X obj 69 165 tgl 10 0 empty empty empty 17 7 0 10 -262144 -1 -1 0
1;
#X obj 51 165 tgl 10 0 empty empty empty 17 7 0 10 -262144 -1 -1 0
1;
#X obj 32 165 tgl 10 0 empty empty empty 17 7 0 10 -262144 -1 -1 0
1;
#X obj 14 166 tgl 10 0 empty empty empty 17 7 0 10 -262144 -1 -1 0
1;
#X obj 419 164 tgl 10 0 empty empty empty 17 7 0 10 -262144 -1 -1 0
1;
#X obj 448 164 tgl 10 0 empty empty empty 17 7 0 10 -262144 -1 -1 1
1;
#X obj 468 164 tgl 10 0 empty empty empty 17 7 0 10 -262144 -1 -1 1
1;
#X obj 487 164 tgl 10 0 empty empty empty 17 7 0 10 -262144 -1 -1 0
1;
#X obj 439 164 tgl 10 0 empty empty empty 17 7 0 10 -262144 -1 -1 0
1;
#X obj 507 164 tgl 10 0 empty empty empty 17 7 0 10 -262144 -1 -1 0
1;
#X obj 400 164 tgl 10 0 empty empty empty 17 7 0 10 -262144 -1 -1 1
1;
#X obj 380 164 tgl 10 0 empty empty empty 17 7 0 10 -262144 -1 -1 0
1;
#X obj 361 164 tgl 10 0 empty empty empty 17 7 0 10 -262144 -1 -1 1
1;
#X obj 341 164 tgl 10 0 empty empty empty 17 7 0 10 -262144 -1 -1 0
1;
#X obj 322 164 tgl 10 0 empty empty empty 17 7 0 10 -262144 -1 -1 0
1;
#X obj 303 165 tgl 10 0 empty empty empty 17 7 0 10 -262144 -1 -1 0
1;
#X obj 303 121 r dig_val2;
#X obj 680 164 tgl 10 0 empty empty empty 17 7 0 10 -262144 -1 -1 0
1;
#X obj 719 164 tgl 10 0 empty empty empty 17 7 0 10 -262144 -1 -1 0
1;
#X obj 739 164 tgl 10 0 empty empty empty 17 7 0 10 -262144 -1 -1 0
1;
#X obj 758 164 tgl 10 0 empty empty empty 17 7 0 10 -262144 -1 -1 0
1;
#X obj 700 164 tgl 10 0 empty empty empty 17 7 0 10 -262144 -1 -1 1
1;
#X obj 778 164 tgl 10 0 empty empty empty 17 7 0 10 -262144 -1 -1 0
1;
#X obj 661 164 tgl 10 0 empty empty empty 17 7 0 10 -262144 -1 -1 0
1;
#X obj 641 164 tgl 10 0 empty empty empty 17 7 0 10 -262144 -1 -1 0
1;
#X obj 622 164 tgl 10 0 empty empty empty 17 7 0 10 -262144 -1 -1 0
1;
#X obj 602 164 tgl 10 0 empty empty empty 17 7 0 10 -262144 -1 -1 0
1;
#X obj 583 164 tgl 10 0 empty empty empty 17 7 0 10 -262144 -1 -1 0
1;
#X obj 564 165 tgl 10 0 empty empty empty 17 7 0 10 -262144 -1 -1 0
1;
#X obj 564 121 r dig_val3;
#X obj 107 180 s szat_down_4;
#X obj 14 138 unpack 0 0 0 0 0 0 0 0 0 0 0 0 0 0 0;
#X obj 266 165 tgl 10 0 empty empty empty 17 7 0 10 -262144 -1 -1 1
1;
#X obj 303 138 unpack 0 0 0 0 0 0 0 0 0 0 0 0 0 0 0;
#X obj 516 165 tgl 10 0 empty empty empty 17 7 0 10 -262144 -1 -1 1
1;
#X obj 534 165 tgl 10 0 empty empty empty 17 7 0 10 -262144 -1 -1 1
1;
#X obj 552 165 tgl 10 0 empty empty empty 17 7 0 10 -262144 -1 -1 1
1;
#X obj 564 138 unpack 0 0 0 0 0 0 0 0 0 0 0 0 0 0 0;
#X obj 789 164 tgl 10 0 empty empty empty 17 7 0 10 -262144 -1 -1 1
1;
#X obj 798 164 tgl 10 0 empty empty empty 17 7 0 10 -262144 -1 -1 1
1;
#X obj 808 164 tgl 10 0 empty empty empty 17 7 0 10 -262144 -1 -1 1
1;
#X connect 1 0 14 0;
#X connect 2 0 14 0;
#X connect 3 0 14 0;
#X connect 4 0 8 0;
#X connect 8 0 16 0;
#X connect 12 0 8 0;
#X connect 13 0 8 0;
#X connect 26 0 64 0;
#X connect 31 0 63 0;
#X connect 49 0 66 0;
#X connect 62 0 70 0;
#X connect 64 0 36 0;
#X connect 64 1 35 0;
#X connect 64 2 34 0;
#X connect 64 3 33 0;
#X connect 64 4 32 0;
#X connect 64 5 31 0;
#X connect 64 6 20 0;
#X connect 64 7 24 0;
#X connect 64 8 21 0;
#X connect 64 9 22 0;
#X connect 64 10 23 0;
#X connect 64 11 25 0;
#X connect 64 12 30 0;
#X connect 64 13 29 0;
#X connect 64 14 65 0;
#X connect 66 0 48 0;
#X connect 66 1 47 0;
#X connect 66 2 46 0;
#X connect 66 3 45 0;
#X connect 66 4 44 0;
#X connect 66 5 43 0;
#X connect 66 6 37 0;
#X connect 66 7 41 0;
#X connect 66 8 38 0;
#X connect 66 9 39 0;
#X connect 66 10 40 0;
#X connect 66 11 42 0;
#X connect 66 12 67 0;
#X connect 66 13 68 0;
#X connect 66 14 69 0;
#X connect 70 0 61 0;
#X connect 70 1 60 0;
#X connect 70 2 59 0;
#X connect 70 3 58 0;
#X connect 70 4 57 0;
#X connect 70 5 56 0;
#X connect 70 6 50 0;
#X connect 70 7 54 0;
#X connect 70 8 51 0;
#X connect 70 9 52 0;
#X connect 70 10 53 0;
#X connect 70 11 55 0;
#X connect 70 12 71 0;
#X connect 70 13 72 0;
#X connect 70 14 73 0;
