#N canvas 723 209 597 565 10;
#X obj 36 85 cnv 15 300 280 empty empty INPUTS 220 12 0 20 -158827
-4160 0;
#N canvas 87 72 633 752 serialRead 1;
#X obj 157 173 sel 255;
#X obj 45 244 < 128;
#X obj 45 268 + 1;
#X obj 44 326 - 128;
#X text 263 52 print available devices (wait for it...);
#X msg 96 79 ports;
#X msg 223 52 info;
#X obj 293 304 outlet;
#X obj 97 56 loadbang;
#X obj 251 151 print SERIAL ports available;
#X msg 156 52 devices;
#X text 210 174 unpacking stuff;
#X obj 97 213 t f f;
#X text 180 250 everything above 127 is control index;
#X obj 58 540 print;
#X msg 43 92 close;
#X obj 278 474 << 7;
#X obj 155 501 +;
#X obj 145 646 unpack 0 0;
#X obj 146 674 swap;
#X obj 226 606 s LDRlistfunnel;
#X text 49 415 POTS;
#X obj 56 482 print;
#X obj 146 701 tabwrite main;
#X text 349 178 for nano with 2 mplexers - 23;
#X text 351 192 so prolly analog ins + 1;
#X text 351 207 for 7 mplexers 56 + 2 = 58;
#X text 361 219 for 8 nie działa;
#X obj 45 297 cyclone/gate 2;
#X obj 157 417 cyclone/zl iter 2;
#X obj 157 417 cyclone/zl iter 2;
#X obj 157 417 cyclone/zl iter 2;
#X obj 155 444 cyclone/zl slice 1;
#X obj 156 572 maxlib/listfunnel;
#X obj 158 129 comport 1 115200;
#X msg 323 83 open 1;
#X obj 57 443 length;
#X obj 474 481 << 7;
#X obj 358 505 +;
#X obj 347 647 unpack 0 0;
#X obj 348 675 swap;
#X obj 521 578 zl slice 22;
#X obj 358 422 cyclone/zl iter 2;
#X obj 358 422 cyclone/zl iter 2;
#X obj 358 422 cyclone/zl iter 2;
#X obj 356 449 cyclone/zl slice 1;
#X obj 363 573 maxlib/listfunnel;
#X obj 348 702 tabwrite main2;
#X obj 362 553 cyclone/zl slice 32;
#X msg 401 82 open 3;
#X msg 43 48 99;
#X obj 157 357 cyclone/zl group 200;
#X obj 157 388 route 1 2 3 4 5;
#X obj 155 528 cyclone/zl group 49;
#X obj 155 550 cyclone/zl slice 48;
#X msg 223 80 baud 19200;
#X obj 362 529 cyclone/zl group 33;
#X obj 428 607 s LDRlistfunnel2;
#X connect 0 0 51 0;
#X connect 0 1 12 0;
#X connect 1 0 2 0;
#X connect 2 0 28 0;
#X connect 3 0 51 0;
#X connect 6 0 34 0;
#X connect 8 0 5 0;
#X connect 10 0 34 0;
#X connect 12 0 28 1;
#X connect 12 1 1 0;
#X connect 15 0 34 0;
#X connect 16 0 17 1;
#X connect 17 0 53 0;
#X connect 18 0 19 0;
#X connect 18 1 19 1;
#X connect 19 0 23 0;
#X connect 19 1 23 1;
#X connect 28 0 3 0;
#X connect 28 1 51 0;
#X connect 29 0 32 0;
#X connect 32 0 17 0;
#X connect 32 1 16 0;
#X connect 33 0 18 0;
#X connect 33 0 20 0;
#X connect 34 0 0 0;
#X connect 34 1 9 0;
#X connect 35 0 34 0;
#X connect 36 0 22 0;
#X connect 37 0 38 1;
#X connect 38 0 56 0;
#X connect 39 0 40 0;
#X connect 39 1 40 1;
#X connect 40 0 47 0;
#X connect 40 1 47 1;
#X connect 42 0 45 0;
#X connect 45 0 38 0;
#X connect 45 1 37 0;
#X connect 46 0 39 0;
#X connect 46 0 57 0;
#X connect 48 0 46 0;
#X connect 49 0 34 0;
#X connect 50 0 34 0;
#X connect 51 0 52 0;
#X connect 52 0 29 0;
#X connect 52 1 42 0;
#X connect 53 0 54 0;
#X connect 54 0 33 0;
#X connect 55 0 34 0;
#X connect 56 0 48 0;
#X restore 50 94 pd serialRead;
#N canvas 258 251 856 484 digitalIns 0;
#X obj 67 52 unpack 0 0;
#X obj 116 78 << 7;
#X obj 69 110 +;
#X text 132 53 digital;
#X obj 22 172 & 1;
#X obj 20 206 == 0;
#X obj 58 206 == 0;
#X obj 60 172 & 2;
#X obj 98 206 == 0;
#X obj 136 206 == 0;
#X obj 100 172 & 4;
#X obj 138 172 & 8;
#X obj 170 205 == 0;
#X obj 208 205 == 0;
#X obj 248 205 == 0;
#X obj 286 205 == 0;
#X obj 172 171 & 16;
#X obj 210 171 & 32;
#X obj 250 171 & 64;
#X obj 288 171 & 128;
#X obj 327 204 == 0;
#X obj 367 204 == 0;
#X obj 405 204 == 0;
#X obj 329 170 & 256;
#X obj 369 170 & 512;
#X obj 407 170 & 1024;
#X obj 137 245 pack 0 0 0 0 0 0 0 0 0 0 0;
#X text 320 242 digital outs;
#X obj 127 297 unpack 0 0 0 0 0 0 0 0 0 0 0 0;
#X floatatom 362 327 5 0 0 0 - - -, f 5;
#X text 33 295 digital outs;
#X obj 64 10 inlet;
#X obj 183 325 tgl 15 0 empty empty empty 17 7 0 10 -262144 -1 -1 0
1;
#X obj 239 324 tgl 15 0 empty empty empty 17 7 0 10 -262144 -1 -1 0
1;
#X obj 268 326 tgl 15 0 empty empty empty 17 7 0 10 -262144 -1 -1 0
1;
#X obj 301 324 tgl 15 0 empty empty empty 17 7 0 10 -262144 -1 -1 0
1;
#X obj 318 324 tgl 15 0 empty empty empty 17 7 0 10 -262144 -1 -1 0
1;
#X obj 70 272 outlet;
#X obj 145 322 tgl 15 0 empty empty empty 17 7 0 10 -262144 -1 -1 0
1;
#X obj 107 350 s TS1;
#X obj 150 353 s TS2;
#X obj 214 355 s TS3;
#X obj 265 377 s B1;
#X obj 308 357 s B2;
#X obj 372 359 s B3;
#X obj 419 345 tgl 15 0 empty empty empty 17 7 0 10 -262144 -1 -1 0
1;
#X obj 167 324 tgl 15 0 empty empty empty 17 7 0 10 -262144 -1 -1 0
1;
#X obj 417 307 r TS4;
#X text 467 307 read from analog 4;
#X obj 199 325 tgl 15 0 empty empty empty 17 7 0 10 -262144 -1 -1 0
1;
#X obj 263 350 sel 1;
#X obj 544 92 change;
#X text 584 38 button in;
#X obj 544 39 r B1;
#X floatatom 617 123 5 0 0 0 - - -, f 5;
#X obj 544 68 speedlim 100;
#X obj 543 119 sel 1;
#X obj 578 145 + 1;
#X obj 544 147 i;
#X floatatom 543 197 5 0 0 0 - - -, f 5;
#X obj 576 168 % 3;
#X obj 544 171 + 1;
#X text 684 46 debouncing kind of?;
#X connect 0 0 2 0;
#X connect 0 1 1 0;
#X connect 1 0 2 1;
#X connect 2 0 4 0;
#X connect 2 0 7 0;
#X connect 2 0 10 0;
#X connect 2 0 11 0;
#X connect 2 0 16 0;
#X connect 2 0 17 0;
#X connect 2 0 18 0;
#X connect 2 0 19 0;
#X connect 2 0 23 0;
#X connect 2 0 24 0;
#X connect 2 0 25 0;
#X connect 4 0 5 0;
#X connect 5 0 26 0;
#X connect 6 0 26 1;
#X connect 7 0 6 0;
#X connect 8 0 26 2;
#X connect 9 0 26 3;
#X connect 10 0 8 0;
#X connect 11 0 9 0;
#X connect 12 0 26 4;
#X connect 13 0 26 5;
#X connect 14 0 26 6;
#X connect 15 0 26 7;
#X connect 16 0 12 0;
#X connect 17 0 13 0;
#X connect 18 0 14 0;
#X connect 19 0 15 0;
#X connect 20 0 26 8;
#X connect 21 0 26 9;
#X connect 22 0 26 10;
#X connect 23 0 20 0;
#X connect 24 0 21 0;
#X connect 25 0 22 0;
#X connect 26 0 28 0;
#X connect 26 0 37 0;
#X connect 28 1 38 0;
#X connect 28 2 46 0;
#X connect 28 3 32 0;
#X connect 28 4 49 0;
#X connect 28 6 33 0;
#X connect 28 8 34 0;
#X connect 28 8 42 0;
#X connect 28 9 35 0;
#X connect 28 10 36 0;
#X connect 28 11 29 0;
#X connect 31 0 0 0;
#X connect 32 0 40 0;
#X connect 33 0 41 0;
#X connect 34 0 50 0;
#X connect 35 0 43 0;
#X connect 36 0 44 0;
#X connect 38 0 39 0;
#X connect 47 0 45 0;
#X connect 51 0 54 0;
#X connect 51 0 56 0;
#X connect 53 0 55 0;
#X connect 55 0 51 0;
#X connect 56 0 58 0;
#X connect 57 0 60 0;
#X connect 58 0 57 0;
#X connect 58 0 61 0;
#X connect 60 0 58 1;
#X connect 61 0 59 0;
#X restore 50 118 pd digitalIns;
#N canvas 108 117 637 307 (subpatch) 0;
#X array main 48 float 2;
#X coords 0 1024 48 0 500 150 1 0 0;
#X restore 41 151 graph;
#N canvas 0 50 450 250 (subpatch) 0;
#X array main2 32 float 2;
#X coords 0 0 32 1024 500 150 1 0 0;
#X restore 39 323 graph;
#X connect 1 0 2 0;
