#N canvas 0 51 450 300 10;
#X obj 124 99 s PTCH2_PAR_A1;
#X obj 230 99 s PTCH2_PAR_A2;
#X obj 337 99 s PTCH2_PAR_A3;
#X obj 444 100 s PTCH2_PAR_D1;
#X obj 563 101 s PTCH2_PAR_D2;
#X obj 676 99 bng 15 250 50 0 empty empty empty 17 7 0 10 -262144 -1
-1;
#X obj 458 84 bng 15 250 50 0 empty empty empty 17 7 0 10 -262144 -1
-1;
#X obj 124 16 r PTCH2_CTRL_LIST;
#X obj 124 38 unpack f f f f f, f 61;
#X obj 35 81 print;
#X obj 35 52 spigot;
#X obj 74 31 tgl 15 0 empty empty empty 17 7 0 10 -262144 -1 -1 0 1
;
#X obj 315 581 throw~ ch2;
#X obj 396 581 throw~ ch2pre;
#X obj 389 413 bng 15 250 50 0 empty empty empty 17 7 0 10 -262144
-1 -1;
#X obj 521 412 bng 15 250 50 0 empty empty empty 17 7 0 10 -262144
-1 -1;
#N canvas 921 120 649 591 fft-analysis 0;
#X obj 10 219 inlet~;
#X obj 11 243 rfft~;
#X obj 10 384 *~;
#X obj 44 383 *~;
#X text 87 375 Multiply the (complex-valued) spectrum amplitudes by
the (real-valued) gain-and-normalization-factor;
#X text 65 409 Real-valued inverse Fourier transform. This uses only
the first N/@ points of its inputs \, supplying the rest by symmerty
(so it's OK that rfft~ obly puts out those N/2 points.) There's only
one outlet because the output is real-valued.;
#X obj 11 552 outlet~;
#X text 70 512 This repackages the output into 64-sample chunks for
the parent window. Since we're operating with an overlap \, the outlet~
object performs an overlapped sum of the blocks computed in this window.
;
#X msg 3 125 set 128 1 2;
#X msg 363 125 set 256 1 2;
#X obj 273 166 block~ 256 1 2;
#X obj 269 3 loadbang;
#X msg 273 126 set 256 1 8;
#X msg 457 124 set 256 1 4;
#X msg 91 125 set 128 1 4;
#X msg 183 125 set 128 1 8;
#X msg 549 125 set 512 1 8;
#X msg 310 28 clear;
#X floatatom 360 29 5 0 0 0 - - -, f 5;
#X text 182 185 fft settings;
#X text 116 205 block~ object specifies vector size of 256 and overlap
2 This window now computes blocks of 256 samples at intervals of 128
samples computed on the parent patch.;
#X obj 61 298 *~;
#X obj 61 325 *~;
#X obj 61 352 /~ 768;
#X text 90 294 divide by 3N/2 (factor of N because rfft and rifft aren't
normalized \, and 3/2 is the gain of overlap-4 reconstruction when
Hann window function is applied twice.);
#X obj 11 438 rifft~;
#X obj 11 524 *~;
#X obj 273 186 s fftsettings;
#X text 335 5 change fft settings;
#X obj 224 2 inlet;
#X obj 28 486 tabreceive~ hannn;
#X obj 224 53 sel 0 1 2 3 4 5 6;
#X obj 224 29 cyclone/urn 7;
#X obj 61 271 tabreceive~ FFT;
#X connect 0 0 1 0;
#X connect 1 0 2 0;
#X connect 1 1 3 0;
#X connect 2 0 25 0;
#X connect 3 0 25 1;
#X connect 8 0 10 0;
#X connect 8 0 27 0;
#X connect 9 0 10 0;
#X connect 9 0 27 0;
#X connect 11 0 32 0;
#X connect 12 0 10 0;
#X connect 12 0 27 0;
#X connect 13 0 10 0;
#X connect 13 0 27 0;
#X connect 14 0 10 0;
#X connect 14 0 27 0;
#X connect 15 0 10 0;
#X connect 15 0 27 0;
#X connect 16 0 10 0;
#X connect 16 0 27 0;
#X connect 17 0 32 0;
#X connect 21 0 22 0;
#X connect 21 0 22 1;
#X connect 22 0 23 0;
#X connect 23 0 3 1;
#X connect 23 0 2 1;
#X connect 25 0 26 0;
#X connect 26 0 6 0;
#X connect 29 0 32 0;
#X connect 30 0 26 1;
#X connect 31 0 8 0;
#X connect 31 1 14 0;
#X connect 31 2 15 0;
#X connect 31 3 12 0;
#X connect 31 4 9 0;
#X connect 31 5 13 0;
#X connect 31 6 16 0;
#X connect 32 0 18 0;
#X connect 32 0 31 0;
#X connect 32 1 17 0;
#X connect 33 0 21 0;
#X connect 33 0 21 1;
#X restore 317 325 pd fft-analysis;
#X obj 316 515 *~, f 22;
#X obj 317 350 clip~ -0.99 0.99;
#N canvas 0 164 492 322 Hann-window 0;
#N canvas 552 51 506 345 (subpatch) 0;
#X array hannn 512 float 0;
#X coords 0 1 511 0 200 120 1 0 0;
#X restore 253 169 graph;
#X msg 137 140 0;
#X obj 31 189 osc~;
#X obj 31 141 samplerate~;
#X obj 31 212 *~ -0.5;
#X obj 31 235 +~ 0.5;
#X text 245 158 1;
#X text 238 276 0;
#X text 254 289 0;
#X obj 31 165 / 512;
#X obj 23 118 bng 15 250 50 0 empty empty empty 0 -6 0 8 -262144 -1
-1;
#X text 302 138 Hann window;
#X text 79 187 period 512;
#X text 112 86 recalculate Hann;
#X text 147 101 window table;
#X obj 23 53 loadbang;
#X text 27 13 The Hann window is now recomputed on 'loadbang' to make
the file smaller (it doesn't have to be saved with the array.);
#X text 440 292 511;
#X obj 23 79 del 15000;
#X obj 23 270 tabwrite~ hannn;
#X connect 1 0 2 1;
#X connect 2 0 4 0;
#X connect 3 0 9 0;
#X connect 4 0 5 0;
#X connect 5 0 19 0;
#X connect 9 0 2 0;
#X connect 10 0 3 0;
#X connect 10 0 1 0;
#X connect 10 0 19 0;
#X connect 15 0 18 0;
#X connect 18 0 10 0;
#X restore 874 92 pd Hann-window;
#X obj 231 241 adc~ 1;
#X text 240 216 ext in;
#X text 734 92 HANN WINDOW DISPLAY;
#X text 813 71 FFT GAINS DISPLAY;
#X obj 290 237 round_zero 0.01;
#X obj 434 237 bng 15 250 50 0 empty empty empty 17 7 0 10 -262144
-1 -1;
#X obj 241 282 *~ 1;
#X obj 289 257 * 5;
#X obj 42 246 *~ 0.1, f 13;
#X text 417 196 change fft set;
#X text 133 265 sound sources;
#X text 285 197 level of signal in;
#X text 252 19 CTRL INPUTS;
#X text 243 582 OUTPUTS:;
#X text 427 323 AUDIO PATCH GUTS;
#X obj 316 552 hip~ 20;
#X text 794 50 OTHER-UTILITIES \, GRAPHS...;
#X obj 809 216 bng 15 250 50 0 empty empty empty 17 7 0 10 -262144
-1 -1;
#X obj 41 212 else/pink~;
#X obj 420 215 r PTCH2_PAR_D1;
#X obj 697 216 r PTCH2_PAR_D2;
#X floatatom 715 483 5 0 1 0 - patch2level -, f 5;
#X obj 715 574 switch~;
#X floatatom 728 549 2 0 0 0 - - -, f 2;
#X text 745 548 dsp;
#X obj 715 532 tgl 15 0 empty empty empty 17 7 0 10 -262144 -1 -1 1
1;
#X obj 715 503 oneARDinCOMPARE 0.1;
#X obj 291 214 r PTCH2_PAR_A3;
#X floatatom 321 284 5 0 0 0 - - -, f 5;
#N canvas 0 51 1382 497 randomize_FFTgrains_new 0;
#X text 999 28 where we insert new value;
#X text 997 15 randomize position in the list;
#X text 1156 280 position in the list;
#X text 1154 297 where we insert new value;
#X floatatom 1277 350 5 0 0 0 - - -, f 5;
#X obj 1235 350 + 64;
#X obj 1234 324 random 32;
#X floatatom 1114 346 5 0 0 0 - - -, f 5;
#X obj 1072 346 + 32;
#X obj 1071 320 random 16;
#X obj 99 328 random 128;
#X obj 262 332 random 128;
#X obj 425 333 random 128;
#X obj 588 327 random 128;
#X obj 748 323 random 128;
#X obj 911 327 random 128;
#X floatatom 924 357 5 0 0 0 - - -, f 5;
#X floatatom 760 351 5 0 0 0 - - -, f 5;
#X floatatom 598 349 5 0 0 0 - - -, f 5;
#X floatatom 435 355 5 0 0 0 - - -, f 5;
#X floatatom 272 354 5 0 0 0 - - -, f 5;
#X floatatom 109 350 5 0 0 0 - - -, f 5;
#X obj 830 73 t l l, f 39;
#X text 837 43 control amp from LDR;
#X obj 673 132 list split 16;
#X obj 546 171 list split 8;
#X obj 354 209 list split 4;
#X obj 190 239 list split 2;
#X obj 27 283 list split 1;
#X obj 832 99 list split 24;
#X obj 50 252 bng 15 250 50 0 empty empty empty 17 7 0 10 -262144 -1
-1;
#X msg 241 114 0;
#X obj 241 85 loadbang;
#X obj 659 77 print;
#X obj 659 48 spigot;
#X obj 698 27 tgl 15 0 empty empty empty 17 7 0 10 -262144 -1 -1 0
1;
#X obj 828 20 r LDR_NO_FILT;
#X obj 99 215 t b b;
#X obj 99 176 inlet;
#X obj 27 372 array set FFT \$1;
#X obj 190 372 array set FFT \$1;
#X obj 353 372 array set FFT \$1;
#X obj 516 372 array set FFT \$1;
#X obj 676 373 array set FFT \$1;
#X obj 839 373 array set FFT \$1;
#X obj 1000 373 array set FFT \$1;
#X obj 1163 373 array set FFT \$1;
#X msg 241 134 \; FFT const \$1 \;;
#X connect 5 0 4 0;
#X connect 5 0 46 1;
#X connect 6 0 5 0;
#X connect 8 0 7 0;
#X connect 8 0 45 1;
#X connect 9 0 8 0;
#X connect 10 0 21 0;
#X connect 10 0 39 1;
#X connect 11 0 20 0;
#X connect 11 0 40 1;
#X connect 12 0 19 0;
#X connect 12 0 41 1;
#X connect 13 0 18 0;
#X connect 13 0 42 1;
#X connect 14 0 17 0;
#X connect 14 0 43 1;
#X connect 15 0 16 0;
#X connect 15 0 44 1;
#X connect 22 0 29 0;
#X connect 22 1 46 0;
#X connect 24 0 25 0;
#X connect 24 1 44 0;
#X connect 25 0 26 0;
#X connect 25 1 43 0;
#X connect 26 0 27 0;
#X connect 26 1 42 0;
#X connect 27 0 28 0;
#X connect 27 1 41 0;
#X connect 28 0 39 0;
#X connect 28 1 40 0;
#X connect 29 0 24 0;
#X connect 29 1 45 0;
#X connect 31 0 47 0;
#X connect 32 0 31 0;
#X connect 34 0 33 0;
#X connect 35 0 34 1;
#X connect 36 0 22 0;
#X connect 37 0 30 0;
#X connect 37 0 10 0;
#X connect 37 0 11 0;
#X connect 37 0 12 0;
#X connect 37 0 13 0;
#X connect 37 0 14 0;
#X connect 37 0 15 0;
#X connect 37 0 9 0;
#X connect 37 0 6 0;
#X connect 37 1 31 0;
#X connect 38 0 37 0;
#X restore 697 236 pd randomize_FFTgrains_new;
#X msg 356 410 1;
#X msg 492 411 0;
#X obj 356 436 change, f 7;
#X floatatom 368 460 5 0 0 0 - - -, f 5;
#X obj 130 215 r PTCH2_PAR_A1;
#X msg 556 345 set \$1 0 \$2 0;
#X obj 555 247 pack f f;
#X obj 555 214 r PTCH2_PAR_A2;
#X floatatom 620 250 5 0 0 0 - - -, f 5;
#X obj 317 473 *~ 0.5;
#X obj 482 512 tgl 15 0 empty empty empty 17 7 0 10 -262144 -1 -1 0
1;
#X obj 356 385 threshold~ 0.66 1 0.66 1;
#X obj 467 487 r light_gate;
#X obj 831 114 array define FFT 512;
#X text 556 199 treshold?;
#X text 251 120 treshold?;
#X text 566 120 change FFT bins;
#X text 697 198 change FFT bins;
#X text 329 118 level of signal in;
#X text 39 194 noise in lev;
#X text 129 121 noise in lev;
#X obj 563 61 oneARDdigBUTTON;
#X floatatom 499 130 5 0 0 0 - - -, f 5;
#X obj 445 63 1_ARD_DIG_BTN;
#X connect 7 0 8 0;
#X connect 8 0 0 0;
#X connect 8 1 1 0;
#X connect 8 2 2 0;
#X connect 8 3 73 0;
#X connect 8 4 71 0;
#X connect 10 0 9 0;
#X connect 11 0 10 1;
#X connect 16 0 18 0;
#X connect 17 0 35 0;
#X connect 18 0 59 0;
#X connect 18 0 61 0;
#X connect 20 0 26 0;
#X connect 24 0 27 0;
#X connect 26 0 16 0;
#X connect 27 0 26 1;
#X connect 27 0 48 0;
#X connect 28 0 16 0;
#X connect 35 0 12 0;
#X connect 35 0 13 0;
#X connect 38 0 28 0;
#X connect 39 0 25 0;
#X connect 39 0 16 1;
#X connect 40 0 37 0;
#X connect 40 0 49 0;
#X connect 41 0 46 0;
#X connect 43 0 42 0;
#X connect 45 0 42 0;
#X connect 46 0 45 0;
#X connect 47 0 24 0;
#X connect 50 0 52 0;
#X connect 51 0 52 0;
#X connect 52 0 53 0;
#X connect 52 0 59 1;
#X connect 54 0 28 1;
#X connect 55 0 61 0;
#X connect 56 0 55 0;
#X connect 57 0 58 0;
#X connect 57 0 56 0;
#X connect 59 0 17 0;
#X connect 61 0 14 0;
#X connect 61 0 50 0;
#X connect 61 1 15 0;
#X connect 61 1 51 0;
#X connect 62 0 17 1;
#X connect 62 0 60 0;
#X connect 71 0 5 0;
#X connect 71 0 4 0;
#X connect 73 0 6 0;
#X connect 73 1 72 0;
#X connect 73 1 3 0;
