#N canvas 280 329 321 148 10;
#N canvas 1062 490 450 300 beat 0;
#X obj 278 -49 adc~;
#X obj 279 22 bonk~;
#X obj 280 -25 +~;
#X obj 150 39 r gettempo;
#N canvas 0 0 108 216 bangbpnk 0;
#X obj 15 5 inlet;
#X obj 19 159 outlet;
#X obj 20 131 spigot;
#X msg 53 100 1;
#X msg 15 29 0;
#X obj 17 54 t f b;
#X obj 53 79 del 25;
#X text 9 180 a speed limit;
#X connect 0 0 4 0;
#X connect 2 0 1 0;
#X connect 3 0 2 1;
#X connect 4 0 5 0;
#X connect 5 0 2 1;
#X connect 5 1 2 0;
#X connect 5 1 6 0;
#X connect 6 0 3 0;
#X restore 279 49 pd bangbpnk;
#X obj 280 -1 lop~ 120;
#X obj 73 170 s gettempo;
#X floatatom 102 130 5 0 0 0 - - -;
#X obj 102 106 bng 15 250 50 0 empty empty empty 17 7 0 10 -262144
-1 -1;
#X text 102 142 tempo;
#X obj 14 12 loadbang;
#X msg 13 35 \; pd dsp 1 \;;
#N canvas 680 29 419 521 the_gets_is_in_here 0;
#X obj 104 27 inlet;
#X obj 256 45 inlet;
#X obj 186 180 bag;
#X msg 250 153 \$1 1;
#X obj 263 128 realtime;
#X obj 256 94 sel 0 1;
#X obj 203 128 realtime;
#X msg 186 92 flush;
#X msg 186 203 add2 \$1;
#X msg 171 225;
#X msg 141 190 set;
#X obj 205 287 list split 1;
#X obj 299 288 list;
#X obj 202 311 +;
#X obj 227 311 f;
#X obj 249 342 bang;
#X obj 249 362 int;
#X obj 275 363 + 1;
#X msg 126 268 0;
#X obj 156 392 expr $f1/($f2+1);
#X obj 156 370 float;
#X obj 171 259 list split 1;
#X obj 111 68 t b b b b b b;
#X obj 156 457 outlet;
#X text 303 143 tok;
#X text 194 108 tic;
#X obj 128 348 bng 15 250 50 0 empty empty empty 17 7 0 10 -262144
-1 -1;
#X obj 256 71 countto 2;
#N canvas 0 0 228 176 ms2tempo 0;
#X obj 88 -33 inlet;
#X obj 9 15 expr 60000/$f1;
#X obj 10 54 outlet;
#X obj 91 -13 sel 0;
#X obj 64 57 outlet;
#X text 61 72 outlet 2 bang on foo/0;
#X connect 0 0 3 0;
#X connect 1 0 2 0;
#X connect 3 0 4 0;
#X connect 3 1 1 0;
#X restore 156 414 pd ms2tempo;
#X text 232 405 yay avging time! convertronic unit;
#X text 203 221 collect time lapse elements in a list;
#X text 20 297 chop up the list and sum all'em elements;
#X text 2 391 then divide by list size;
#X text 242 183 between each beats;
#X text 241 172 the time it lapses;
#X connect 0 0 22 0;
#X connect 1 0 27 0;
#X connect 2 0 8 0;
#X connect 3 0 2 0;
#X connect 4 0 3 0;
#X connect 5 0 4 0;
#X connect 5 0 6 1;
#X connect 5 1 6 0;
#X connect 5 1 4 1;
#X connect 6 0 3 0;
#X connect 7 0 2 0;
#X connect 8 0 9 0;
#X connect 9 0 21 0;
#X connect 10 0 9 0;
#X connect 11 0 13 0;
#X connect 11 1 12 0;
#X connect 12 0 11 0;
#X connect 13 0 14 0;
#X connect 13 0 20 1;
#X connect 14 0 13 1;
#X connect 14 0 15 0;
#X connect 15 0 16 0;
#X connect 16 0 17 0;
#X connect 16 0 19 1;
#X connect 17 0 16 1;
#X connect 18 0 16 1;
#X connect 18 0 13 1;
#X connect 19 0 28 0;
#X connect 20 0 19 0;
#X connect 21 1 11 0;
#X connect 22 1 18 0;
#X connect 22 2 10 0;
#X connect 22 3 20 0;
#X connect 22 4 9 0;
#X connect 22 5 7 0;
#X connect 26 0 20 0;
#X connect 27 0 5 0;
#X connect 28 0 23 0;
#X restore 148 70 pd the_gets_is_in_here;
#X connect 0 0 2 0;
#X connect 0 1 2 1;
#X connect 1 0 4 0;
#X connect 2 0 5 0;
#X connect 3 0 12 0;
#X connect 4 0 12 1;
#X connect 5 0 1 0;
#X connect 8 0 6 0;
#X connect 10 0 11 0;
#X connect 12 0 7 0;
#X coords 0 -1 1 1 40 60 2 100 100;
#X restore -242 -42 pd beat;
#X text -183 -21 this beat detect generates an arbitrarily;
#X text -177 -9 long list of previous perceived beats;
#X text -174 8 with;
#X obj -144 8 bonk~;
#X text -240 27 the bang averages all of them since the last bang;
#X text -233 50 todo: a list trimmer that detects when tempo;
#X text -100 62 or rhythm changes;
#X text -191 74 to throw out old parts of the list;
