#N canvas 432 148 997 700 12;
#N canvas 0 50 450 300 (subpatch) 0;
#X array table20 44103 float 0;
#X coords 0 1.02 44100 -1.02 200 130 1;
#X restore 651 30 graph;
#X obj 33 445 hip~ 5;
#X floatatom 107 69 0 0 0 0 - - -;
#X text 146 68 <-- frequency (Hz.);
#X floatatom 170 128 0 0 0 0 - - -;
#X obj 170 153 * 441;
#X obj 70 240 +~ 1;
#X obj 107 93 phasor~ 0;
#X msg 195 293 bang;
#X text 209 127 <-- chunk size (100ths of a second);
#X obj 596 363 adc~ 1;
#X obj 596 387 hip~ 5;
#X msg 611 410 bang;
#X text 670 478 v-- re-read the original sample;
#N canvas 0 50 450 300 (subpatch) 0;
#X array graph20 44100 float 0;
#X coords 0 44100 44100 0 200 130 1;
#X restore 653 199 graph;
#X obj 33 421 *~;
#X obj 92 328 line~;
#X obj 169 262 * 441;
#X floatatom 169 238 0 0 0 0 - - -;
#X obj 92 304 pack 0 100;
#X text 204 237 <-- read point in 100ths of a second;
#X obj 71 376 +~;
#X text 238 292 <-- graph table index;
#X obj 92 352 samphold~;
#X obj 94 190 samphold~;
#X obj 71 216 *~;
#X text 663 335 ----- 1 second ------;
#X text 651 164 ---- 44103 samples ---;
#X obj 611 528 soundfiler;
#X text 41 28 SLIDING STABLE LOOPS WITHOUT DOPPLER SHIFT;
#X msg 602 554 \; graph20 ylabel 48000 0 44100;
#X text 651 410 <-- record;
#X obj 32 123 -~ 0.5;
#X obj 32 147 *~ 0.5;
#X obj 32 170 cos~;
#X obj 195 373 tabwrite~ graph20;
#X obj 71 401 tabread4~ table20;
#X obj 596 437 tabwrite~ table20;
#X text 31 538 This example differs from the previous one in having
samphold~ objects which allow the chunk size and especially the read
point to change only at points where the phase wraps around. This removes
signal discontinuities (when the chunk size changes) and doppler shift
when the read point is changing.;
#X text 672 612 updated for Pd version 0.37;
#X obj 33 471 /usr/share/puredata/doc/3.audio.examples/output~;
#X obj 599 478 loadbang;
#X msg 602 502 read smpl.wav table20;
#X obj 761 428 openpanel;
#X obj 761 405 bng 15 250 50 0 empty empty empty 17 7 0 10 -262144
-1 -1;
#X msg 761 452 read \$1 table20;
#X connect 1 0 40 0;
#X connect 1 0 40 1;
#X connect 2 0 7 0;
#X connect 4 0 5 0;
#X connect 5 0 24 0;
#X connect 6 0 21 0;
#X connect 7 0 23 1;
#X connect 7 0 24 1;
#X connect 7 0 25 0;
#X connect 7 0 32 0;
#X connect 8 0 35 0;
#X connect 10 0 11 0;
#X connect 11 0 37 0;
#X connect 12 0 37 0;
#X connect 15 0 1 0;
#X connect 16 0 23 0;
#X connect 17 0 19 0;
#X connect 18 0 17 0;
#X connect 19 0 16 0;
#X connect 21 0 35 0;
#X connect 21 0 36 0;
#X connect 23 0 21 1;
#X connect 24 0 25 1;
#X connect 25 0 6 0;
#X connect 32 0 33 0;
#X connect 33 0 34 0;
#X connect 34 0 15 0;
#X connect 36 0 15 1;
#X connect 41 0 42 0;
#X connect 42 0 28 0;
#X connect 42 0 30 0;
#X connect 43 0 45 0;
#X connect 44 0 43 0;
#X connect 45 0 28 0;
