#N canvas 312 90 654 522 12;
#X obj 37 287 bng 15 250 50 0 empty empty empty 17 7 0 10 -262144 -1
-1;
#X obj 25 309 tabplay~ impulse;
#X text 81 17 useful filter settings on bpass q of 17 - poltonowy filter
q of 4 - third octave filter q of 100 - speed of fluctuation gts around
4 hz at 440 centre freq q of 1 = 1 octave band width for white noise
making an impulse - make a table with 1 points - 1 sample will be 1
the rest 0 q describes the amount if times that filter rings before
dying out;
#X obj 70 477 throw~ 1imp;
#X text 60 288 impulse;
#X obj 70 149 inlet;
#X obj 33 201 bng 15 250 50 0 empty empty empty 17 7 0 10 -262144 -1
-1;
#X obj 219 144 inlet;
#X obj 70 433 atan~;
#X floatatom 252 164 5 0 0 0 - - -;
#X obj 367 155 r Q;
#X floatatom 215 332 5 0 0 0 - - -;
#X floatatom 189 269 5 0 0 0 - - -;
#X floatatom 560 198 5 0 0 0 - - -;
#X text 217 115 midi note;
#X text 74 115 INLETS - BANG /TRIG;
#X obj 536 164 r G;
#X obj 178 303 mtof;
#X obj 166 238 f \$1;
#X floatatom 207 213 5 0 0 0 - - -;
#X floatatom 376 180 5 0 0 0 - - -;
#X obj 272 220 loadbang;
#X obj 430 169 loadbang;
#X text 575 170 gain;
#X obj 33 147 bng 15 250 50 0 empty empty empty 17 7 0 10 -262144 -1
-1;
#X floatatom 316 279 5 0 0 0 - - -;
#X obj 70 185 t b b b b, f 50;
#X obj 70 366 bp~ \$1 1000, f 33;
#X obj 70 395 *~ 20, f 52;
#X floatatom 465 299 5 0 0 0 - - -;
#X obj 430 254 f 20;
#X obj 301 253 f 1000;
#X connect 0 0 1 0;
#X connect 1 0 27 0;
#X connect 5 0 6 0;
#X connect 5 0 26 0;
#X connect 7 0 9 0;
#X connect 7 0 18 1;
#X connect 8 0 3 0;
#X connect 10 0 20 0;
#X connect 10 0 31 1;
#X connect 16 0 13 0;
#X connect 16 0 30 1;
#X connect 17 0 11 0;
#X connect 17 0 27 1;
#X connect 18 0 12 0;
#X connect 18 0 17 0;
#X connect 19 0 18 1;
#X connect 21 0 31 0;
#X connect 22 0 30 0;
#X connect 24 0 26 0;
#X connect 26 0 1 0;
#X connect 26 1 18 0;
#X connect 26 2 31 0;
#X connect 26 3 30 0;
#X connect 27 0 28 0;
#X connect 28 0 8 0;
#X connect 30 0 28 1;
#X connect 30 0 29 0;
#X connect 31 0 25 0;
#X connect 31 0 27 2;
