#N canvas 174 23 1059 755 12;
#X obj 25 87 tgl 15 0 empty empty empty 17 7 0 10 -4032 -1 -1 1 1;
#X msg 496 67 \; pd dsp \$1;
#X obj 496 49 tgl 15 0 empty empty empty 17 7 0 10 -262144 -1 -1 1
1;
#X obj 24 274 hradio 8 1 0 16 empty empty empty 0 -8 0 10 -262144 -1
-1 0;
#X obj 159 274 hradio 8 1 0 16 empty empty empty 0 -8 0 10 -262144
-1 -1 0;
#N canvas 525 244 526 420 euclid 0;
#X obj 90 24 inlet;
#X obj 152 339 outlet;
#X obj 126 122 + 0;
#X text 5 121 offset the start;
#X obj 126 147 *;
#X obj 126 171 % 16;
#X obj 126 195 <;
#X obj 126 219 sel 1;
#X obj 126 254 bng 15 250 50 0 empty empty empty 17 7 0 10 -262144
-1 -1;
#X text 86 251 notes;
#X obj 191 255 bng 15 250 50 0 empty empty empty 17 7 0 10 -262144
-1 -1;
#X text 210 253 rests;
#X obj 136 92 t f f;
#X obj 152 305 f;
#X text 180 305 store the step number;
#X text 38 89 step number;
#X text 332 218 number of hits we want;
#X floatatom 317 239 5 0 16 0 - - -;
#X obj 197 70 random 16;
#X obj 136 23 r clock;
#X obj 197 21 r change;
#X text 324 261 hits;
#X obj 197 112 + 1;
#X obj 263 21 r hits_max;
#X obj 351 22 r hits_min;
#X floatatom 271 45 5 0 0 0 - - -;
#X floatatom 366 46 5 0 0 0 - - -;
#X obj 151 49 bng 15 250 50 0 empty empty empty 17 7 0 10 -262144 -1
-1;
#X obj 318 336 outlet;
#X obj 444 25 inlet;
#X floatatom 445 56 5 0 0 0 - - -;
#X text 357 106 set steps manually;
#X connect 0 0 12 0;
#X connect 2 0 4 0;
#X connect 4 0 5 0;
#X connect 5 0 6 0;
#X connect 6 0 7 0;
#X connect 7 0 8 0;
#X connect 7 1 10 0;
#X connect 8 0 13 0;
#X connect 12 0 2 0;
#X connect 12 1 13 1;
#X connect 13 0 1 0;
#X connect 17 0 28 0;
#X connect 18 0 22 0;
#X connect 19 0 12 0;
#X connect 20 0 18 0;
#X connect 22 0 17 0;
#X connect 22 0 6 1;
#X connect 22 0 4 1;
#X connect 23 0 25 0;
#X connect 23 0 18 1;
#X connect 24 0 26 0;
#X connect 24 0 22 1;
#X connect 27 0 12 0;
#X connect 29 0 30 0;
#X connect 29 0 4 1;
#X connect 29 0 6 1;
#X connect 29 0 17 0;
#X restore 24 224 pd euclid;
#X obj 292 274 hradio 8 1 0 16 empty empty empty 0 -8 0 10 -262144
-1 -1 0;
#X obj 24 286 t b b;
#X obj 659 566 dac~;
#X obj 159 287 t b b;
#X obj 292 287 t f b;
#X obj 426 274 hradio 8 1 0 16 empty empty empty 0 -8 0 10 -262144
-1 -1 2;
#X obj 558 274 hradio 8 1 0 16 empty empty empty 0 -8 0 10 -262144
-1 -1 0;
#X obj 690 274 hradio 8 1 0 16 empty empty empty 0 -8 0 10 -262144
-1 -1 0;
#X obj 426 287 t b b;
#X obj 558 287 t b b;
#X obj 690 287 t f b;
#X obj 827 274 hradio 8 1 0 16 empty empty empty 0 -8 0 10 -262144
-1 -1 0;
#X obj 962 274 hradio 8 1 0 16 empty empty empty 0 -8 0 10 -262144
-1 -1 0;
#X obj 827 288 t b b;
#X obj 962 288 t f b;
#X obj 24 364 spigot;
#X obj 63 345 tgl 15 0 empty empty empty 17 7 0 10 -203904 -1 -1 0
1;
#X obj 159 366 spigot;
#X obj 198 345 tgl 15 0 empty empty empty 17 7 0 10 -203904 -1 -1 0
1;
#X obj 292 364 spigot;
#X obj 331 344 tgl 15 0 empty empty empty 17 7 0 10 -203904 -1 -1 1
1;
#X obj 426 365 spigot;
#X obj 465 344 tgl 15 0 empty empty empty 17 7 0 10 -203904 -1 -1 1
1;
#X obj 558 363 spigot;
#X obj 597 344 tgl 15 0 empty empty empty 17 7 0 10 -203904 -1 -1 1
1;
#X obj 690 364 spigot;
#X obj 729 344 tgl 15 0 empty empty empty 17 7 0 10 -203904 -1 -1 1
1;
#X obj 827 364 spigot;
#X obj 866 344 tgl 15 0 empty empty empty 17 7 0 10 -203904 -1 -1 1
1;
#X obj 962 362 spigot;
#X obj 1001 344 tgl 15 0 empty empty empty 17 7 0 10 -203904 -1 -1
1 1;
#X obj 840 128 s midi_len;
#X floatatom 840 105 5 1 250 0 - - -;
#X text 50 248 hits;
#X obj 684 128 s hits_max;
#X obj 761 128 s hits_min;
#X floatatom 684 104 2 2 14 0 - - -;
#X floatatom 761 101 2 1 12 0 - - -;
#N canvas 205 222 450 300 euclidean_theory 0;
#X text 21 14 spacing steps in sequance evenly;
#X text 14 43 [ 0 0 0 0 0 0 0 0 ];
#X text 15 64 [ 1 1 1 0 0 0 0 0 ];
#X text 15 86 [ 1 0 1 0 1 0 0 0 ];
#X text 16 109 [ 1 0 0 1 0 0 1 0 ];
#X text 162 110 most evenly spaced;
#X text 20 131 how do we do it with an algorhitms?;
#X restore 1006 24 pd euclidean_theory;
#N canvas 608 190 575 400 seq 0;
#X obj 14 38 inlet;
#X obj 137 32 inlet;
#X obj 77 124 metro 200;
#X obj 50 69 tgl 15 0 empty empty empty 17 7 0 10 -262144 -1 -1 0 1
;
#X obj 78 152 f;
#X obj 113 152 + 1;
#X obj 15 122 == 0;
#X obj 78 200 % 16;
#N canvas 0 23 450 300 bpm_to_MS 0;
#X obj 61 20 inlet;
#X obj 76 246 outlet;
#X text 111 56 BPM to MS Equation: The equation is 60 \, 0 / BPM =
MS;
#X text 158 185 whole note;
#X text 158 247 quarter note;
#X text 227 80 MS * BPM = 60000;
#X text 225 99 BPM = 60000 / MS;
#X floatatom 76 185 10 0 0 0 - - -;
#X floatatom 61 61 5 0 0 0 - - -;
#X obj 76 159 /;
#X msg 43 118 60000;
#X obj 62 85 t b f;
#X obj 76 211 / 4;
#X obj 156 208 s hole_not;
#X connect 0 0 8 0;
#X connect 7 0 12 0;
#X connect 7 0 13 0;
#X connect 8 0 11 0;
#X connect 9 0 7 0;
#X connect 10 0 9 0;
#X connect 11 0 10 0;
#X connect 11 1 9 1;
#X connect 12 0 1 0;
#X restore 137 91 pd bpm_to_MS;
#X floatatom 241 122 5 0 0 0 - - -;
#X floatatom 181 61 5 0 0 0 - - -;
#X floatatom 103 177 5 0 0 0 - - -;
#X obj 78 276 sel 1;
#X obj 78 225 t f f;
#X obj 25 360 bng 15 250 50 0 empty empty empty 17 7 0 10 -262144 -1
-1;
#X obj 78 249 == 0;
#X text 145 155 when metro start;
#X text 141 142 reset count;
#X obj 49 361 outlet;
#X obj 157 328 outlet;
#X text 208 325 clock out;
#X text 94 369 at the beggining of sequence;
#X text 94 355 send bang to randomize steps amount;
#X text 285 119 dur;
#X connect 0 0 2 0;
#X connect 0 0 6 0;
#X connect 1 0 10 0;
#X connect 1 0 8 0;
#X connect 2 0 4 0;
#X connect 3 0 2 0;
#X connect 3 0 6 0;
#X connect 4 0 5 0;
#X connect 4 0 7 0;
#X connect 5 0 4 1;
#X connect 6 0 4 1;
#X connect 7 0 13 0;
#X connect 8 0 9 0;
#X connect 8 0 2 1;
#X connect 11 0 7 1;
#X connect 12 0 14 0;
#X connect 12 0 18 0;
#X connect 13 0 15 0;
#X connect 13 1 19 0;
#X connect 15 0 12 0;
#X restore 25 126 pd seq;
#X text 49 86 START;
#X text 63 105 BPM;
#X text 869 82 length;
#X obj 24 200 bng 15 250 50 0 empty empty empty 17 7 0 10 -262144 -1
-1;
#X floatatom 84 249 5 0 0 0 - - -;
#X floatatom 45 199 2 0 0 0 - - -;
#X obj 89 172 s clock;
#X obj 25 172 s change;
#X obj 25 150 spigot;
#X obj 94 90 tgl 15 1 empty empty empty 17 7 0 10 -4034 -1 -1 1 1;
#X obj 89 149 spigot;
#X obj 95 110 tgl 15 1 empty empty empty 17 7 0 10 -258113 -1 -1 1
1;
#X text 113 108 send clock?;
#X floatatom 83 200 2 1 16 0 - - -;
#N canvas 525 244 526 420 euclid 0;
#X obj 90 24 inlet;
#X obj 152 339 outlet;
#X obj 126 122 + 0;
#X text 5 121 offset the start;
#X obj 126 147 *;
#X obj 126 171 % 16;
#X obj 126 195 <;
#X obj 126 219 sel 1;
#X obj 126 254 bng 15 250 50 0 empty empty empty 17 7 0 10 -262144
-1 -1;
#X text 86 251 notes;
#X obj 191 255 bng 15 250 50 0 empty empty empty 17 7 0 10 -262144
-1 -1;
#X text 210 253 rests;
#X obj 136 92 t f f;
#X obj 152 305 f;
#X text 180 305 store the step number;
#X text 38 89 step number;
#X text 332 218 number of hits we want;
#X floatatom 317 239 5 0 16 0 - - -;
#X obj 197 70 random 16;
#X obj 136 23 r clock;
#X obj 197 21 r change;
#X text 324 261 hits;
#X obj 197 112 + 1;
#X obj 263 21 r hits_max;
#X obj 351 22 r hits_min;
#X floatatom 271 45 5 0 0 0 - - -;
#X floatatom 366 46 5 0 0 0 - - -;
#X obj 151 49 bng 15 250 50 0 empty empty empty 17 7 0 10 -262144 -1
-1;
#X obj 318 336 outlet;
#X obj 444 25 inlet;
#X floatatom 445 56 5 0 0 0 - - -;
#X text 357 106 set steps manually;
#X connect 0 0 12 0;
#X connect 2 0 4 0;
#X connect 4 0 5 0;
#X connect 5 0 6 0;
#X connect 6 0 7 0;
#X connect 7 0 8 0;
#X connect 7 1 10 0;
#X connect 8 0 13 0;
#X connect 12 0 2 0;
#X connect 12 1 13 1;
#X connect 13 0 1 0;
#X connect 17 0 28 0;
#X connect 18 0 22 0;
#X connect 19 0 12 0;
#X connect 20 0 18 0;
#X connect 22 0 17 0;
#X connect 22 0 6 1;
#X connect 22 0 4 1;
#X connect 23 0 25 0;
#X connect 23 0 18 1;
#X connect 24 0 26 0;
#X connect 24 0 22 1;
#X connect 27 0 12 0;
#X connect 29 0 30 0;
#X connect 29 0 4 1;
#X connect 29 0 6 1;
#X connect 29 0 17 0;
#X restore 159 226 pd euclid;
#X text 185 250 hits;
#X obj 159 202 bng 15 250 50 0 empty empty empty 17 7 0 10 -262144
-1 -1;
#X floatatom 219 251 5 0 0 0 - - -;
#X floatatom 180 201 2 0 0 0 - - -;
#X floatatom 218 202 2 1 16 0 - - -;
#X text 1041 205 randomize;
#X text 1041 218 must be off;
#N canvas 525 244 526 420 euclid 0;
#X obj 90 24 inlet;
#X obj 152 339 outlet;
#X obj 126 122 + 0;
#X text 5 121 offset the start;
#X obj 126 147 *;
#X obj 126 171 % 16;
#X obj 126 195 <;
#X obj 126 219 sel 1;
#X obj 126 254 bng 15 250 50 0 empty empty empty 17 7 0 10 -262144
-1 -1;
#X text 86 251 notes;
#X obj 191 255 bng 15 250 50 0 empty empty empty 17 7 0 10 -262144
-1 -1;
#X text 210 253 rests;
#X obj 136 92 t f f;
#X obj 152 305 f;
#X text 180 305 store the step number;
#X text 38 89 step number;
#X text 332 218 number of hits we want;
#X floatatom 317 239 5 0 16 0 - - -;
#X obj 197 70 random 16;
#X obj 136 23 r clock;
#X obj 197 21 r change;
#X text 324 261 hits;
#X obj 197 112 + 1;
#X obj 263 21 r hits_max;
#X obj 351 22 r hits_min;
#X floatatom 271 45 5 0 0 0 - - -;
#X floatatom 366 46 5 0 0 0 - - -;
#X obj 151 49 bng 15 250 50 0 empty empty empty 17 7 0 10 -262144 -1
-1;
#X obj 318 336 outlet;
#X obj 444 25 inlet;
#X floatatom 445 56 5 0 0 0 - - -;
#X text 357 106 set steps manually;
#X connect 0 0 12 0;
#X connect 2 0 4 0;
#X connect 4 0 5 0;
#X connect 5 0 6 0;
#X connect 6 0 7 0;
#X connect 7 0 8 0;
#X connect 7 1 10 0;
#X connect 8 0 13 0;
#X connect 12 0 2 0;
#X connect 12 1 13 1;
#X connect 13 0 1 0;
#X connect 17 0 28 0;
#X connect 18 0 22 0;
#X connect 19 0 12 0;
#X connect 20 0 18 0;
#X connect 22 0 17 0;
#X connect 22 0 6 1;
#X connect 22 0 4 1;
#X connect 23 0 25 0;
#X connect 23 0 18 1;
#X connect 24 0 26 0;
#X connect 24 0 22 1;
#X connect 27 0 12 0;
#X connect 29 0 30 0;
#X connect 29 0 4 1;
#X connect 29 0 6 1;
#X connect 29 0 17 0;
#X restore 292 222 pd euclid;
#X text 318 246 hits;
#X obj 292 198 bng 15 250 50 0 empty empty empty 17 7 0 10 -262144
-1 -1;
#X floatatom 352 247 5 0 0 0 - - -;
#X floatatom 313 197 2 0 0 0 - - -;
#X floatatom 351 198 2 1 16 0 - - -;
#N canvas 525 244 526 420 euclid 0;
#X obj 90 24 inlet;
#X obj 152 339 outlet;
#X obj 126 122 + 0;
#X text 5 121 offset the start;
#X obj 126 147 *;
#X obj 126 171 % 16;
#X obj 126 195 <;
#X obj 126 219 sel 1;
#X obj 126 254 bng 15 250 50 0 empty empty empty 17 7 0 10 -262144
-1 -1;
#X text 86 251 notes;
#X obj 191 255 bng 15 250 50 0 empty empty empty 17 7 0 10 -262144
-1 -1;
#X text 210 253 rests;
#X obj 136 92 t f f;
#X obj 152 305 f;
#X text 180 305 store the step number;
#X text 38 89 step number;
#X text 332 218 number of hits we want;
#X floatatom 317 239 5 0 16 0 - - -;
#X obj 197 70 random 16;
#X obj 136 23 r clock;
#X obj 197 21 r change;
#X text 324 261 hits;
#X obj 197 112 + 1;
#X obj 263 21 r hits_max;
#X obj 351 22 r hits_min;
#X floatatom 271 45 5 0 0 0 - - -;
#X floatatom 366 46 5 0 0 0 - - -;
#X obj 151 49 bng 15 250 50 0 empty empty empty 17 7 0 10 -262144 -1
-1;
#X obj 318 336 outlet;
#X obj 444 25 inlet;
#X floatatom 445 56 5 0 0 0 - - -;
#X text 357 106 set steps manually;
#X connect 0 0 12 0;
#X connect 2 0 4 0;
#X connect 4 0 5 0;
#X connect 5 0 6 0;
#X connect 6 0 7 0;
#X connect 7 0 8 0;
#X connect 7 1 10 0;
#X connect 8 0 13 0;
#X connect 12 0 2 0;
#X connect 12 1 13 1;
#X connect 13 0 1 0;
#X connect 17 0 28 0;
#X connect 18 0 22 0;
#X connect 19 0 12 0;
#X connect 20 0 18 0;
#X connect 22 0 17 0;
#X connect 22 0 6 1;
#X connect 22 0 4 1;
#X connect 23 0 25 0;
#X connect 23 0 18 1;
#X connect 24 0 26 0;
#X connect 24 0 22 1;
#X connect 27 0 12 0;
#X connect 29 0 30 0;
#X connect 29 0 4 1;
#X connect 29 0 6 1;
#X connect 29 0 17 0;
#X restore 426 225 pd euclid;
#X text 452 249 hits;
#X obj 426 201 bng 15 250 50 0 empty empty empty 17 7 0 10 -262144
-1 -1;
#X floatatom 486 250 5 0 0 0 - - -;
#X floatatom 447 200 2 0 0 0 - - -;
#X floatatom 485 201 2 1 16 0 - - -;
#N canvas 525 244 526 420 euclid 0;
#X obj 90 24 inlet;
#X obj 152 339 outlet;
#X obj 126 122 + 0;
#X text 5 121 offset the start;
#X obj 126 147 *;
#X obj 126 171 % 16;
#X obj 126 195 <;
#X obj 126 219 sel 1;
#X obj 126 254 bng 15 250 50 0 empty empty empty 17 7 0 10 -262144
-1 -1;
#X text 86 251 notes;
#X obj 191 255 bng 15 250 50 0 empty empty empty 17 7 0 10 -262144
-1 -1;
#X text 210 253 rests;
#X obj 136 92 t f f;
#X obj 152 305 f;
#X text 180 305 store the step number;
#X text 38 89 step number;
#X text 332 218 number of hits we want;
#X floatatom 317 239 5 0 16 0 - - -;
#X obj 197 70 random 16;
#X obj 136 23 r clock;
#X obj 197 21 r change;
#X text 324 261 hits;
#X obj 197 112 + 1;
#X obj 263 21 r hits_max;
#X obj 351 22 r hits_min;
#X floatatom 271 45 5 0 0 0 - - -;
#X floatatom 366 46 5 0 0 0 - - -;
#X obj 151 49 bng 15 250 50 0 empty empty empty 17 7 0 10 -262144 -1
-1;
#X obj 318 336 outlet;
#X obj 444 25 inlet;
#X floatatom 445 56 5 0 0 0 - - -;
#X text 357 106 set steps manually;
#X connect 0 0 12 0;
#X connect 2 0 4 0;
#X connect 4 0 5 0;
#X connect 5 0 6 0;
#X connect 6 0 7 0;
#X connect 7 0 8 0;
#X connect 7 1 10 0;
#X connect 8 0 13 0;
#X connect 12 0 2 0;
#X connect 12 1 13 1;
#X connect 13 0 1 0;
#X connect 17 0 28 0;
#X connect 18 0 22 0;
#X connect 19 0 12 0;
#X connect 20 0 18 0;
#X connect 22 0 17 0;
#X connect 22 0 6 1;
#X connect 22 0 4 1;
#X connect 23 0 25 0;
#X connect 23 0 18 1;
#X connect 24 0 26 0;
#X connect 24 0 22 1;
#X connect 27 0 12 0;
#X connect 29 0 30 0;
#X connect 29 0 4 1;
#X connect 29 0 6 1;
#X connect 29 0 17 0;
#X restore 558 224 pd euclid;
#X text 584 248 hits;
#X obj 558 200 bng 15 250 50 0 empty empty empty 17 7 0 10 -262144
-1 -1;
#X floatatom 618 249 5 0 0 0 - - -;
#X floatatom 579 199 2 0 0 0 - - -;
#X floatatom 617 200 2 1 16 0 - - -;
#N canvas 525 244 526 420 euclid 0;
#X obj 90 24 inlet;
#X obj 152 339 outlet;
#X obj 126 122 + 0;
#X text 5 121 offset the start;
#X obj 126 147 *;
#X obj 126 171 % 16;
#X obj 126 195 <;
#X obj 126 219 sel 1;
#X obj 126 254 bng 15 250 50 0 empty empty empty 17 7 0 10 -262144
-1 -1;
#X text 86 251 notes;
#X obj 191 255 bng 15 250 50 0 empty empty empty 17 7 0 10 -262144
-1 -1;
#X text 210 253 rests;
#X obj 136 92 t f f;
#X obj 152 305 f;
#X text 180 305 store the step number;
#X text 38 89 step number;
#X text 332 218 number of hits we want;
#X floatatom 317 239 5 0 16 0 - - -;
#X obj 197 70 random 16;
#X obj 136 23 r clock;
#X obj 197 21 r change;
#X text 324 261 hits;
#X obj 197 112 + 1;
#X obj 263 21 r hits_max;
#X obj 351 22 r hits_min;
#X floatatom 271 45 5 0 0 0 - - -;
#X floatatom 366 46 5 0 0 0 - - -;
#X obj 151 49 bng 15 250 50 0 empty empty empty 17 7 0 10 -262144 -1
-1;
#X obj 318 336 outlet;
#X obj 444 25 inlet;
#X floatatom 445 56 5 0 0 0 - - -;
#X text 357 106 set steps manually;
#X connect 0 0 12 0;
#X connect 2 0 4 0;
#X connect 4 0 5 0;
#X connect 5 0 6 0;
#X connect 6 0 7 0;
#X connect 7 0 8 0;
#X connect 7 1 10 0;
#X connect 8 0 13 0;
#X connect 12 0 2 0;
#X connect 12 1 13 1;
#X connect 13 0 1 0;
#X connect 17 0 28 0;
#X connect 18 0 22 0;
#X connect 19 0 12 0;
#X connect 20 0 18 0;
#X connect 22 0 17 0;
#X connect 22 0 6 1;
#X connect 22 0 4 1;
#X connect 23 0 25 0;
#X connect 23 0 18 1;
#X connect 24 0 26 0;
#X connect 24 0 22 1;
#X connect 27 0 12 0;
#X connect 29 0 30 0;
#X connect 29 0 4 1;
#X connect 29 0 6 1;
#X connect 29 0 17 0;
#X restore 690 222 pd euclid;
#X text 716 246 hits;
#X obj 690 198 bng 15 250 50 0 empty empty empty 17 7 0 10 -262144
-1 -1;
#X floatatom 750 247 5 0 0 0 - - -;
#X floatatom 711 197 2 0 0 0 - - -;
#X floatatom 749 198 2 1 16 0 - - -;
#N canvas 525 244 526 420 euclid 0;
#X obj 90 24 inlet;
#X obj 152 339 outlet;
#X obj 126 122 + 0;
#X text 5 121 offset the start;
#X obj 126 147 *;
#X obj 126 171 % 16;
#X obj 126 195 <;
#X obj 126 219 sel 1;
#X obj 126 254 bng 15 250 50 0 empty empty empty 17 7 0 10 -262144
-1 -1;
#X text 86 251 notes;
#X obj 191 255 bng 15 250 50 0 empty empty empty 17 7 0 10 -262144
-1 -1;
#X text 210 253 rests;
#X obj 136 92 t f f;
#X obj 152 305 f;
#X text 180 305 store the step number;
#X text 38 89 step number;
#X text 332 218 number of hits we want;
#X floatatom 317 239 5 0 16 0 - - -;
#X obj 197 70 random 16;
#X obj 136 23 r clock;
#X obj 197 21 r change;
#X text 324 261 hits;
#X obj 197 112 + 1;
#X obj 263 21 r hits_max;
#X obj 351 22 r hits_min;
#X floatatom 271 45 5 0 0 0 - - -;
#X floatatom 366 46 5 0 0 0 - - -;
#X obj 151 49 bng 15 250 50 0 empty empty empty 17 7 0 10 -262144 -1
-1;
#X obj 318 336 outlet;
#X obj 444 25 inlet;
#X floatatom 445 56 5 0 0 0 - - -;
#X text 357 106 set steps manually;
#X connect 0 0 12 0;
#X connect 2 0 4 0;
#X connect 4 0 5 0;
#X connect 5 0 6 0;
#X connect 6 0 7 0;
#X connect 7 0 8 0;
#X connect 7 1 10 0;
#X connect 8 0 13 0;
#X connect 12 0 2 0;
#X connect 12 1 13 1;
#X connect 13 0 1 0;
#X connect 17 0 28 0;
#X connect 18 0 22 0;
#X connect 19 0 12 0;
#X connect 20 0 18 0;
#X connect 22 0 17 0;
#X connect 22 0 6 1;
#X connect 22 0 4 1;
#X connect 23 0 25 0;
#X connect 23 0 18 1;
#X connect 24 0 26 0;
#X connect 24 0 22 1;
#X connect 27 0 12 0;
#X connect 29 0 30 0;
#X connect 29 0 4 1;
#X connect 29 0 6 1;
#X connect 29 0 17 0;
#X restore 827 220 pd euclid;
#X text 853 244 hits;
#X obj 827 196 bng 15 250 50 0 empty empty empty 17 7 0 10 -262144
-1 -1;
#X floatatom 887 245 5 0 0 0 - - -;
#X floatatom 848 195 2 0 0 0 - - -;
#X floatatom 886 196 2 1 16 0 - - -;
#N canvas 525 244 526 420 euclid 0;
#X obj 90 24 inlet;
#X obj 152 339 outlet;
#X obj 126 122 + 0;
#X text 5 121 offset the start;
#X obj 126 147 *;
#X obj 126 171 % 16;
#X obj 126 195 <;
#X obj 126 219 sel 1;
#X obj 126 254 bng 15 250 50 0 empty empty empty 17 7 0 10 -262144
-1 -1;
#X text 86 251 notes;
#X obj 191 255 bng 15 250 50 0 empty empty empty 17 7 0 10 -262144
-1 -1;
#X text 210 253 rests;
#X obj 136 92 t f f;
#X obj 152 305 f;
#X text 180 305 store the step number;
#X text 38 89 step number;
#X text 332 218 number of hits we want;
#X floatatom 317 239 5 0 16 0 - - -;
#X obj 197 70 random 16;
#X obj 136 23 r clock;
#X obj 197 21 r change;
#X text 324 261 hits;
#X obj 197 112 + 1;
#X obj 263 21 r hits_max;
#X obj 351 22 r hits_min;
#X floatatom 271 45 5 0 0 0 - - -;
#X floatatom 366 46 5 0 0 0 - - -;
#X obj 151 49 bng 15 250 50 0 empty empty empty 17 7 0 10 -262144 -1
-1;
#X obj 318 336 outlet;
#X obj 444 25 inlet;
#X floatatom 445 56 5 0 0 0 - - -;
#X text 357 106 set steps manually;
#X connect 0 0 12 0;
#X connect 2 0 4 0;
#X connect 4 0 5 0;
#X connect 5 0 6 0;
#X connect 6 0 7 0;
#X connect 7 0 8 0;
#X connect 7 1 10 0;
#X connect 8 0 13 0;
#X connect 12 0 2 0;
#X connect 12 1 13 1;
#X connect 13 0 1 0;
#X connect 17 0 28 0;
#X connect 18 0 22 0;
#X connect 19 0 12 0;
#X connect 20 0 18 0;
#X connect 22 0 17 0;
#X connect 22 0 6 1;
#X connect 22 0 4 1;
#X connect 23 0 25 0;
#X connect 23 0 18 1;
#X connect 24 0 26 0;
#X connect 24 0 22 1;
#X connect 27 0 12 0;
#X connect 29 0 30 0;
#X connect 29 0 4 1;
#X connect 29 0 6 1;
#X connect 29 0 17 0;
#X restore 962 221 pd euclid;
#X text 988 245 hits;
#X obj 962 197 bng 15 250 50 0 empty empty empty 17 7 0 10 -262144
-1 -1;
#X floatatom 1022 246 5 0 0 0 - - -;
#X floatatom 983 196 2 0 0 0 - - -;
#X floatatom 1021 197 2 1 16 0 - - -;
#X text 1112 326 SEND MIDI?;
#X obj 1190 329 tgl 15 0 empty empty empty 17 7 0 10 -203904 -1 -1
0 1;
#X text 1041 190 set hits amount by hand;
#X obj 684 41 loadbang;
#X msg 684 83 7;
#X msg 761 84 2;
#X msg 840 83 8;
#X obj 241 28 loadbang;
#X obj 241 49 t b;
#X obj 684 61 t b b b;
#X text 745 62 random range;
#X obj 241 92 s BPM;
#X msg 241 70 160;
#X text 111 87 rndm steps ON/OFF;
#N canvas 98 44 1099 470 change_dur 0;
#X obj 33 344 outlet;
#X obj 220 29 inlet;
#X obj 33 32 r hole_not;
#X floatatom 33 221 5 0 0 0 - - -;
#X msg 691 152 0.5;
#X msg 754 152 0.66;
#X msg 792 152 0.75;
#X msg 540 152 0.25;
#X msg 913 152 1;
#X obj 68 172 t b f;
#X obj 360 132 bng 15 250 50 0 empty empty empty 17 7 0 10 -262144
-1 -1;
#X obj 540 132 bng 15 250 50 0 empty empty empty 17 7 0 10 -262144
-1 -1;
#X obj 616 131 bng 15 250 50 0 empty empty empty 17 7 0 10 -262144
-1 -1;
#X obj 691 133 bng 15 250 50 0 empty empty empty 17 7 0 10 -262144
-1 -1;
#X obj 754 133 bng 15 250 50 0 empty empty empty 17 7 0 10 -262144
-1 -1;
#X obj 792 133 bng 15 250 50 0 empty empty empty 17 7 0 10 -262144
-1 -1;
#X obj 913 133 bng 15 250 50 0 empty empty empty 17 7 0 10 -262144
-1 -1;
#X obj 865 133 bng 15 250 50 0 empty empty empty 17 7 0 10 -262144
-1 -1;
#X obj 953 111 bng 15 250 50 0 empty empty empty 17 7 0 10 -262144
-1 -1;
#X obj 953 152 * 0.001;
#X obj 953 130 random;
#X floatatom 98 344 5 0 0 0 - - -;
#X msg 234 369 1.25;
#X msg 277 369 1.33;
#X msg 320 369 1.5;
#X msg 352 371 1.66;
#X msg 390 371 1.75;
#X msg 431 372 2;
#X obj 234 347 bng 15 250 50 0 empty empty empty 17 7 0 10 -262144
-1 -1;
#X obj 277 349 bng 15 250 50 0 empty empty empty 17 7 0 10 -262144
-1 -1;
#X obj 320 349 bng 15 250 50 0 empty empty empty 17 7 0 10 -262144
-1 -1;
#X obj 351 349 bng 15 250 50 0 empty empty empty 17 7 0 10 -262144
-1 -1;
#X obj 384 344 bng 15 250 50 0 empty empty empty 17 7 0 10 -262144
-1 -1;
#X obj 431 347 bng 15 250 50 0 empty empty empty 17 7 0 10 -262144
-1 -1;
#X msg 865 152 0.875;
#X obj 132 132 bng 15 250 50 0 empty empty empty 17 7 0 10 -262144
-1 -1;
#X msg 132 153 0.004;
#X obj 33 299 *;
#X text 136 183 1/256;
#X obj 177 132 bng 15 250 50 0 empty empty empty 17 7 0 10 -262144
-1 -1;
#X msg 177 153 0.008;
#X text 182 184 1/128;
#X obj 222 132 bng 15 250 50 0 empty empty empty 17 7 0 10 -262144
-1 -1;
#X text 229 184 1/64;
#X msg 222 153 0.016;
#X text 269 184 1/32;
#X obj 266 132 bng 15 250 50 0 empty empty empty 17 7 0 10 -262144
-1 -1;
#X msg 266 153 0.032;
#X text 312 184 3/64;
#X obj 312 131 bng 15 250 50 0 empty empty empty 17 7 0 10 -262144
-1 -1;
#X msg 312 152 0.047;
#X text 360 184 1/16;
#X obj 404 132 bng 15 250 50 0 empty empty empty 17 7 0 10 -262144
-1 -1;
#X msg 360 152 0.063;
#X text 404 184 3/32;
#X msg 404 152 0.094;
#X obj 448 132 bng 15 250 50 0 empty empty empty 17 7 0 10 -262144
-1 -1;
#X obj 494 132 bng 15 250 50 0 empty empty empty 17 7 0 10 -262144
-1 -1;
#X msg 448 152 0.125;
#X text 452 183 1/8;
#X text 497 183 3/16;
#X msg 494 152 0.188;
#X text 543 183 1/4;
#X text 623 183 3/8;
#X msg 616 152 0.375;
#X obj 578 132 bng 15 250 50 0 empty empty empty 17 7 0 10 -262144
-1 -1;
#X msg 578 152 0.33;
#X text 582 183 1/3;
#X obj 660 133 bng 15 250 50 0 empty empty empty 17 7 0 10 -262144
-1 -1;
#X msg 660 152 0.4;
#X obj 220 52 sel 0 1 2 3 4 5 6 7 8 9 10 11 12 13 14 15 16 17 18 19
20;
#X obj 722 133 bng 15 250 50 0 empty empty empty 17 7 0 10 -262144
-1 -1;
#X msg 722 152 0.6;
#X text 692 182 1/2;
#X text 663 183 2/5;
#X text 724 183 3/5;
#X text 758 182 2/3;
#X text 795 181 3/4;
#X text 870 179 7/8;
#X obj 832 133 bng 15 250 50 0 empty empty empty 17 7 0 10 -262144
-1 -1;
#X msg 832 152 0.8;
#X text 833 180 4/5;
#X text 282 321 too large;
#X obj 992 107 / 2;
#X connect 1 0 70 0;
#X connect 2 0 3 0;
#X connect 3 0 37 0;
#X connect 3 0 83 0;
#X connect 4 0 9 0;
#X connect 5 0 9 0;
#X connect 6 0 9 0;
#X connect 7 0 9 0;
#X connect 8 0 9 0;
#X connect 9 0 3 0;
#X connect 9 1 37 1;
#X connect 10 0 53 0;
#X connect 11 0 7 0;
#X connect 12 0 64 0;
#X connect 13 0 4 0;
#X connect 14 0 5 0;
#X connect 15 0 6 0;
#X connect 16 0 8 0;
#X connect 17 0 34 0;
#X connect 18 0 20 0;
#X connect 19 0 9 0;
#X connect 20 0 19 0;
#X connect 28 0 22 0;
#X connect 29 0 23 0;
#X connect 30 0 24 0;
#X connect 31 0 25 0;
#X connect 32 0 26 0;
#X connect 33 0 27 0;
#X connect 34 0 9 0;
#X connect 35 0 36 0;
#X connect 36 0 9 0;
#X connect 37 0 0 0;
#X connect 37 0 21 0;
#X connect 39 0 40 0;
#X connect 40 0 9 0;
#X connect 42 0 44 0;
#X connect 44 0 9 0;
#X connect 46 0 47 0;
#X connect 47 0 9 0;
#X connect 49 0 50 0;
#X connect 50 0 9 0;
#X connect 52 0 55 0;
#X connect 53 0 9 0;
#X connect 55 0 9 0;
#X connect 56 0 58 0;
#X connect 57 0 61 0;
#X connect 58 0 9 0;
#X connect 61 0 9 0;
#X connect 64 0 9 0;
#X connect 65 0 66 0;
#X connect 66 0 9 0;
#X connect 68 0 69 0;
#X connect 69 0 9 0;
#X connect 70 0 35 0;
#X connect 70 1 39 0;
#X connect 70 2 42 0;
#X connect 70 3 46 0;
#X connect 70 4 49 0;
#X connect 70 5 10 0;
#X connect 70 6 52 0;
#X connect 70 7 56 0;
#X connect 70 8 57 0;
#X connect 70 9 11 0;
#X connect 70 10 65 0;
#X connect 70 11 12 0;
#X connect 70 12 68 0;
#X connect 70 13 13 0;
#X connect 70 14 71 0;
#X connect 70 15 14 0;
#X connect 70 16 15 0;
#X connect 70 17 79 0;
#X connect 70 18 17 0;
#X connect 70 19 16 0;
#X connect 70 21 18 0;
#X connect 71 0 72 0;
#X connect 72 0 9 0;
#X connect 79 0 80 0;
#X connect 80 0 9 0;
#X connect 83 0 20 1;
#X restore 340 129 pd change_dur;
#X obj 340 170 s dur;
#X floatatom 340 150 5 0 0 0 - - -;
#X obj 340 111 hradio 15 1 1 22 empty empty empty 0 -8 0 10 -262144
-1 -1 8;
#X obj 394 26 r change;
#X obj 341 39 vradio 15 1 1 3 empty empty empty 0 -8 0 10 -261234 -1
-1 1;
#X obj 342 91 switch 2 1;
#X text 358 38 MAN;
#X text 358 54 RND;
#X text 357 68 SZORT;
#X obj 441 135 hsl 128 15 1 666 1 0 empty empty empty -2 -8 0 10 -4160
-1 -1 0 1;
#X floatatom 275 69 5 0 0 0 - - -;
#X obj 394 48 random 20;
#X text 861 170 8-16?;
#X text 718 169 1-7?;
#X text 983 61 add global key \, now we're at 60hz;
#X obj 927 130 s key;
#X obj 927 107 mtof;
#X floatatom 974 130 5 0 0 0 - - -;
#X floatatom 927 87 5 0 0 0 - - -;
#X msg 966 88 28;
#X msg 997 88 30;
#X msg 1028 88 32;
#X msg 1060 88 33;
#X msg 1092 88 35;
#X msg 1124 88 37;
#X msg 1156 88 39;
#X msg 999 107 42;
#X msg 968 107 40;
#X msg 1032 108 44;
#X text 684 22 EJ WARTOSCI FLOAT POMIEDZY ROBIA COS INNEGO!;
#N canvas 0 22 1180 569 8LDRS_IN 0;
#X msg 94 70 close;
#X msg 94 92 devices;
#X msg 211 91 99;
#N canvas 598 325 511 420 serialRead 0;
#X obj 61 115 sel 255;
#X obj 139 174 < 128;
#X obj 139 198 + 1;
#X obj 69 228 gate 2;
#X obj 69 267 - 128;
#X obj 61 338 route 1 2;
#X text 248 102 Close Serial port;
#X text 193 85 Open serial port by number;
#X text 210 131 print available devices (wait for it...);
#X msg 268 10 ports;
#X obj 61 313 zl group 100;
#X obj 61 385 outlet;
#X obj 152 385 outlet;
#X obj 61 9 inlet;
#X obj 15 10 inlet;
#X obj 107 141 t 0 0;
#X obj 61 83 comport 4 115200;
#X connect 0 0 10 0;
#X connect 0 1 15 0;
#X connect 1 0 2 0;
#X connect 2 0 3 0;
#X connect 3 0 4 0;
#X connect 3 1 10 0;
#X connect 4 0 10 0;
#X connect 5 0 11 0;
#X connect 5 1 12 0;
#X connect 9 0 16 0;
#X connect 10 0 5 0;
#X connect 13 0 16 0;
#X connect 14 0 16 0;
#X connect 15 0 3 1;
#X connect 15 1 1 0;
#X connect 16 0 0 0;
#X restore 123 115 pd serialRead;
#N canvas 333 301 887 470 digitalIns 0;
#X obj 374 131 unpack 0 0;
#X obj 376 189 +;
#X text 439 132 digital;
#X obj 329 251 & 1;
#X obj 327 285 == 0;
#X obj 365 285 == 0;
#X obj 367 251 & 2;
#X obj 405 285 == 0;
#X obj 443 285 == 0;
#X obj 407 251 & 4;
#X obj 445 251 & 8;
#X obj 477 284 == 0;
#X obj 515 284 == 0;
#X obj 555 284 == 0;
#X obj 593 284 == 0;
#X obj 479 250 & 16;
#X obj 517 250 & 32;
#X obj 557 250 & 64;
#X obj 595 250 & 128;
#X obj 634 283 == 0;
#X obj 674 283 == 0;
#X obj 712 283 == 0;
#X obj 636 249 & 256;
#X obj 676 249 & 512;
#X obj 714 249 & 1024;
#X obj 444 324 pack 0 0 0 0 0 0 0 0 0 0 0;
#X text 627 321 digital outs;
#X obj 444 346 unpack 0 0 0 0 0 0 0 0 0 0 0 0;
#X floatatom 681 376 5 0 0 0 - - -;
#X text 367 324 digital outs;
#X obj 180 75 inlet;
#X obj 617 387 tgl 15 0 empty empty empty 17 7 0 10 -262144 -1 -1 0
1;
#X obj 595 387 tgl 15 0 empty empty empty 17 7 0 10 -262144 -1 -1 0
1;
#X obj 661 391 tgl 15 0 empty empty empty 17 7 0 10 -262144 -1 -1 0
1;
#X obj 639 388 tgl 15 0 empty empty empty 17 7 0 10 -262144 -1 -1 0
1;
#X obj 470 388 tgl 15 0 empty empty empty 17 7 0 10 -262144 -1 -1 0
1;
#X obj 448 388 tgl 15 0 empty empty empty 17 7 0 10 -262144 -1 -1 0
1;
#X obj 428 390 tgl 15 0 empty empty empty 17 7 0 10 -262144 -1 -1 0
1;
#X obj 492 389 tgl 15 0 empty empty empty 17 7 0 10 -262144 -1 -1 0
1;
#X obj 554 382 tgl 15 0 empty empty empty 17 7 0 10 -262144 -1 -1 0
1;
#X obj 532 382 tgl 15 0 empty empty empty 17 7 0 10 -262144 -1 -1 0
1;
#X obj 512 384 tgl 15 0 empty empty empty 17 7 0 10 -262144 -1 -1 0
1;
#X obj 576 383 tgl 15 0 empty empty empty 17 7 0 10 -262144 -1 -1 0
1;
#X obj 423 157 << 7;
#X connect 0 0 1 0;
#X connect 0 1 43 0;
#X connect 1 0 3 0;
#X connect 1 0 6 0;
#X connect 1 0 9 0;
#X connect 1 0 10 0;
#X connect 1 0 15 0;
#X connect 1 0 16 0;
#X connect 1 0 17 0;
#X connect 1 0 18 0;
#X connect 1 0 22 0;
#X connect 1 0 23 0;
#X connect 1 0 24 0;
#X connect 3 0 4 0;
#X connect 4 0 25 0;
#X connect 5 0 25 1;
#X connect 6 0 5 0;
#X connect 7 0 25 2;
#X connect 8 0 25 3;
#X connect 9 0 7 0;
#X connect 10 0 8 0;
#X connect 11 0 25 4;
#X connect 12 0 25 5;
#X connect 13 0 25 6;
#X connect 14 0 25 7;
#X connect 15 0 11 0;
#X connect 16 0 12 0;
#X connect 17 0 13 0;
#X connect 18 0 14 0;
#X connect 19 0 25 8;
#X connect 20 0 25 9;
#X connect 21 0 25 10;
#X connect 22 0 19 0;
#X connect 23 0 20 0;
#X connect 24 0 21 0;
#X connect 25 0 27 0;
#X connect 27 0 37 0;
#X connect 27 1 36 0;
#X connect 27 2 35 0;
#X connect 27 3 38 0;
#X connect 27 4 41 0;
#X connect 27 5 40 0;
#X connect 27 6 39 0;
#X connect 27 7 42 0;
#X connect 27 8 32 0;
#X connect 27 9 31 0;
#X connect 27 10 34 0;
#X connect 27 11 28 0;
#X connect 30 0 0 0;
#X connect 43 0 1 1;
#X restore 299 150 pd digitalIns;
#X floatatom 383 233 5 0 0 0 - - -;
#X floatatom 343 232 5 0 0 0 - - -;
#X floatatom 420 231 5 0 0 0 - - -;
#X floatatom 458 232 5 0 0 0 - - -;
#X floatatom 497 234 5 0 0 0 - - -;
#X floatatom 534 234 5 0 0 0 - - -;
#X floatatom 266 227 5 0 0 0 - - -;
#X floatatom 304 228 5 0 0 0 - - -;
#X msg 95 46 open 4;
#X obj 211 46 loadbang;
#X obj 211 69 del 2000;
#X text 246 91 magic number to start receiving;
#N canvas 64 35 657 296 demultiplex_analogVal 0;
#X obj 106 98 << 7;
#X obj 40 190 listfunnel;
#X obj 39 70 zl slice 1;
#X obj 39 126 +;
#X text 127 161 FOR DIFFRENT MULTIPLEXERS AMOUNT LOOK INSIDE;
#X obj 39 15 inlet;
#X obj 39 44 zl iter 2;
#X text 145 99 shit 7 bits to read next component;
#X obj 40 222 outlet;
#X obj 40 158 zl group 28;
#X connect 0 0 3 1;
#X connect 1 0 8 0;
#X connect 2 0 3 0;
#X connect 2 1 0 0;
#X connect 3 0 9 0;
#X connect 5 0 6 0;
#X connect 6 0 2 0;
#X connect 9 0 1 0;
#X restore 123 150 pd demultiplex_analogVal;
#X obj 123 176 spray 8;
#X floatatom 462 502 5 0 0 0 - - -;
#X obj 462 477 ldr_smooth_EXTENDEDI;
#X floatatom 610 501 5 0 0 0 - - -;
#X obj 610 476 ldr_smooth_EXTENDEDI;
#X obj 419 185 s smooth_factor_ldrs;
#X floatatom 755 501 5 0 0 0 - - -;
#X obj 755 476 ldr_smooth_EXTENDEDI;
#N canvas 0 22 450 300 (subpatch) 0;
#X array 8LDRS 8 float 3;
#A 0 388 512 477 414 304 162 320 218;
#X coords 0 1024 8 0 200 140 1;
#X restore 629 120 graph;
#X obj 518 298 bng 15 250 50 0 empty empty empty 17 7 0 10 -262144
-1 -1;
#X obj 518 318 f;
#X obj 518 342 % 16;
#X obj 554 318 + 1;
#X obj 518 369 hradio 15 1 0 16 empty empty empty 0 -8 0 10 -262144
-1 -1 0;
#X floatatom 191 307 5 0 16 0 - - -;
#X obj 191 330 int;
#X floatatom 46 327 5 0 0 0 - - -;
#X obj 46 239 listfunnel;
#X text 232 308 index (0-15);
#X text 85 328 value;
#X obj 46 266 unpack 0 0;
#X obj 46 293 swap;
#X floatatom 141 327 5 0 0 0 - - -;
#X obj 518 390 tabread \$0-pitches;
#X obj 518 275 metro 250;
#X obj 46 215 pack f f f f f f f f;
#X obj 46 353 tabwrite 8LDRS;
#X connect 0 0 3 0;
#X connect 1 0 3 0;
#X connect 2 0 3 1;
#X connect 3 0 17 0;
#X connect 3 1 4 0;
#X connect 13 0 3 0;
#X connect 14 0 15 0;
#X connect 15 0 2 0;
#X connect 17 0 18 0;
#X connect 18 0 11 0;
#X connect 18 0 20 0;
#X connect 18 0 43 0;
#X connect 18 1 12 0;
#X connect 18 1 43 1;
#X connect 18 2 6 0;
#X connect 18 2 25 0;
#X connect 18 2 43 2;
#X connect 18 3 5 0;
#X connect 18 3 43 3;
#X connect 18 4 7 0;
#X connect 18 4 43 4;
#X connect 18 5 8 0;
#X connect 18 5 43 5;
#X connect 18 6 9 0;
#X connect 18 6 43 6;
#X connect 18 7 10 0;
#X connect 18 7 43 7;
#X connect 20 0 19 0;
#X connect 22 0 21 0;
#X connect 25 0 24 0;
#X connect 27 0 28 0;
#X connect 28 0 29 0;
#X connect 28 0 30 0;
#X connect 29 0 31 0;
#X connect 30 0 28 1;
#X connect 31 0 41 0;
#X connect 32 0 33 0;
#X connect 33 0 44 1;
#X connect 34 0 44 0;
#X connect 35 0 38 0;
#X connect 38 0 39 0;
#X connect 38 1 39 1;
#X connect 39 0 34 0;
#X connect 39 1 40 0;
#X connect 40 0 44 1;
#X connect 42 0 27 0;
#X connect 43 0 35 0;
#X restore 1141 277 pd 8LDRS_IN;
#X obj 428 69 + 22;
#N canvas 326 46 346 400 templ_manipulation 0;
#X obj 166 360 bng 15 250 50 0 empty empty empty 17 7 0 10 -262144
-1 -1;
#X obj 14 74 tgl 15 0 empty empty empty 17 7 0 10 -262144 -1 -1 0 1
;
#X obj 130 211 line;
#X floatatom 204 294 5 0 0 0 - - -;
#X floatatom 62 136 5 0 0 0 - - -;
#X msg 130 184 \$1 \$2;
#X floatatom 248 138 5 0 0 0 - - -;
#X obj 131 40 tgl 15 0 empty empty empty 17 7 0 10 -262144 -1 -1 0
1;
#X obj 131 60 metro 2000;
#X obj 130 161 pack f 1000;
#X obj 163 8 inlet;
#X obj 97 356 outlet;
#N canvas 0 23 522 315 bpm_to_MS 0;
#X obj 61 20 inlet;
#X obj 76 246 outlet;
#X text 111 56 BPM to MS Equation: The equation is 60 \, 0 / BPM =
MS;
#X text 158 185 whole note;
#X text 158 247 quarter note;
#X text 227 80 MS * BPM = 60000;
#X text 225 99 BPM = 60000 / MS;
#X floatatom 76 185 10 0 0 0 - - -;
#X floatatom 61 61 5 0 0 0 - - -;
#X obj 76 159 /;
#X msg 43 118 60000;
#X obj 62 85 t b f;
#X obj 76 211 / 4;
#X connect 0 0 8 0;
#X connect 7 0 12 0;
#X connect 8 0 11 0;
#X connect 9 0 7 0;
#X connect 10 0 9 0;
#X connect 11 0 10 0;
#X connect 11 1 9 1;
#X connect 12 0 1 0;
#X restore 130 240 pd bpm_to_MS;
#X obj 98 275 metro;
#X obj 14 9 inlet;
#X obj 199 357 outlet;
#X obj 14 43 t f f;
#X floatatom 229 19 5 0 0 0 - - -;
#X obj 214 79 bng 15 250 50 0 empty empty empty 17 7 0 10 -262144 -1
-1;
#X obj 214 104 random 30000;
#X obj 131 111 + 20;
#X obj 131 84 random 80;
#X floatatom 246 173 5 0 0 0 - - -;
#X connect 1 0 13 0;
#X connect 2 0 12 0;
#X connect 5 0 2 0;
#X connect 6 0 9 1;
#X connect 7 0 8 0;
#X connect 8 0 18 0;
#X connect 8 0 21 0;
#X connect 9 0 5 0;
#X connect 10 0 8 1;
#X connect 12 0 13 1;
#X connect 12 0 15 0;
#X connect 12 0 3 0;
#X connect 13 0 0 0;
#X connect 13 0 11 0;
#X connect 14 0 16 0;
#X connect 16 0 1 0;
#X connect 16 1 7 0;
#X connect 17 0 8 1;
#X connect 18 0 19 0;
#X connect 19 0 9 1;
#X connect 19 0 22 0;
#X connect 20 0 9 0;
#X connect 21 0 4 0;
#X connect 21 0 20 0;
#X restore 22 40 pd templ_manipulation;
#X obj 22 20 tgl 15 0 empty empty empty 17 7 0 10 -262144 -1 -1 0 1
;
#X obj 38 105 bng 15 250 50 0 empty empty empty 17 7 0 10 -262144 -1
-1;
#X floatatom 110 18 8 0 0 0 - - -;
#X text 38 18 HOW OFTEN;
#X floatatom 166 65 5 0 0 0 - - -;
#X obj 659 519 catch~ 1imp;
#X obj 659 541 *~;
#X obj 746 523 tgl 15 0 empty empty empty 17 7 0 10 -262144 -1 -1 1
1;
#X obj 567 470 bng 15 250 50 0 empty empty empty 17 7 0 10 -262144
-1 -1;
#X obj 837 475 bng 15 250 50 0 empty empty empty 17 7 0 10 -262144
-1 -1;
#X obj 702 473 bng 15 250 50 0 empty empty empty 17 7 0 10 -262144
-1 -1;
#X obj 972 475 bng 15 250 50 0 empty empty empty 17 7 0 10 -262144
-1 -1;
#X obj 40 471 bng 15 250 50 0 empty empty empty 17 7 0 10 -262144 -1
-1;
#X obj 168 471 bng 15 250 50 0 empty empty empty 17 7 0 10 -262144
-1 -1;
#X text 58 468 bang;
#X text 92 471 note;
#X obj 304 469 bng 15 250 50 0 empty empty empty 17 7 0 10 -262144
-1 -1;
#X obj 435 469 bng 15 250 50 0 empty empty empty 17 7 0 10 -262144
-1 -1;
#X obj 23 447 r b1;
#X obj 158 447 r b2;
#X obj 293 448 r b3;
#X obj 425 449 r b4;
#X obj 558 449 r b5;
#X obj 692 449 r b6;
#X obj 828 449 r b7;
#X obj 962 449 r b8;
#X floatatom 155 563 5 0 0 0 - - -;
#X obj 155 584 s Q;
#X text 46 563 GAIN 10 - 100;
#X obj 24 385 s b1;
#X obj 159 386 s b2;
#X obj 292 385 s b3;
#X obj 426 386 s b4;
#X obj 558 384 s b5;
#X obj 690 385 s b6;
#X obj 827 385 s b7;
#X obj 962 384 s b8;
#X msg 155 541 10;
#X msg 214 541 100;
#X msg 245 541 1000;
#X msg 185 541 17;
#X text 685 544 midi note;
#X text 213 571 INLETS - BANG /TRIG;
#X obj 18 560 s G;
#X obj 542 475 bng 15 250 50 0 empty empty empty 17 7 0 10 -262144
-1 -1;
#X floatatom 17 539 5 0 0 0 - - -;
#X obj 158 495 1pluk 60 20;
#X obj 23 494 1pluk 63 20;
#X obj 293 492 1pluk 67 20;
#X obj 425 492 1pluk 70 20;
#X obj 558 491 1pluk 73 20;
#X obj 692 492 1pluk 76 31;
#X obj 828 492 1pluk 79 31;
#X obj 958 495 1pluk 82 31;
#X obj 773 634 array set impulse;
#N canvas 0 23 450 278 (subpatch) 0;
#X array impulse 20 float 3;
#A 0 1 0 0 0 0 0 0 0 0 0 0 0 0 0 0 0 0 0 0 0;
#X coords 0 1 20 0 200 140 1 0 0;
#X restore 560 589 graph;
#X msg 400 555 10;
#X msg 459 555 100;
#X msg 490 555 1000;
#X msg 430 555 17;
#X obj 414 610 r G;
#X floatatom 411 642 5 0 0 0 - - -;
#X text 27 634 G & Q PAIR;
#X text 11 654 GAIN 10 - 100;
#X text 13 673 Q - 1-10000;
#X floatatom 471 640 5 0 0 0 - - -;
#X obj 474 608 r Q;
#X msg 109 694 \; G \$1 \; Q \$2;
#X msg 69 611 50 500;
#X msg 777 561 \; impulse const \$1;
#X msg 811 532 0;
#X msg 778 533 1;
#X msg 123 611 200 1500;
#X msg 25 611 2 10;
#X msg 205 613 700 30000;
#X msg 772 599 1 0 0 0 0 0 0 0 0;
#X connect 0 0 45 0;
#X connect 2 0 1 0;
#X connect 3 0 7 0;
#X connect 4 0 9 0;
#X connect 5 0 3 0;
#X connect 5 1 50 0;
#X connect 6 0 10 0;
#X connect 7 0 21 0;
#X connect 9 0 23 0;
#X connect 10 0 25 0;
#X connect 11 0 14 0;
#X connect 12 0 15 0;
#X connect 13 0 16 0;
#X connect 14 0 27 0;
#X connect 15 0 29 0;
#X connect 16 0 31 0;
#X connect 17 0 19 0;
#X connect 18 0 20 0;
#X connect 19 0 33 0;
#X connect 20 0 35 0;
#X connect 21 0 181 0;
#X connect 22 0 21 1;
#X connect 23 0 182 0;
#X connect 24 0 23 1;
#X connect 25 0 183 0;
#X connect 26 0 25 1;
#X connect 27 0 184 0;
#X connect 28 0 27 1;
#X connect 29 0 185 0;
#X connect 30 0 29 1;
#X connect 31 0 186 0;
#X connect 32 0 31 1;
#X connect 33 0 187 0;
#X connect 34 0 33 1;
#X connect 35 0 188 0;
#X connect 36 0 35 1;
#X connect 38 0 37 0;
#X connect 42 0 40 0;
#X connect 43 0 41 0;
#X connect 45 0 54 0;
#X connect 45 1 56 0;
#X connect 49 0 5 0;
#X connect 51 0 5 0;
#X connect 54 0 53 0;
#X connect 55 0 54 1;
#X connect 56 0 52 0;
#X connect 57 0 56 1;
#X connect 59 0 5 1;
#X connect 60 0 4 0;
#X connect 60 1 63 0;
#X connect 62 0 60 0;
#X connect 64 0 60 0;
#X connect 65 0 60 1;
#X connect 68 0 6 0;
#X connect 68 1 71 0;
#X connect 70 0 68 0;
#X connect 72 0 68 0;
#X connect 73 0 68 1;
#X connect 74 0 11 0;
#X connect 74 1 77 0;
#X connect 76 0 74 0;
#X connect 78 0 74 0;
#X connect 79 0 74 1;
#X connect 80 0 12 0;
#X connect 80 1 83 0;
#X connect 82 0 80 0;
#X connect 84 0 80 0;
#X connect 85 0 80 1;
#X connect 86 0 13 0;
#X connect 86 1 89 0;
#X connect 88 0 86 0;
#X connect 90 0 86 0;
#X connect 91 0 86 1;
#X connect 92 0 17 0;
#X connect 92 1 95 0;
#X connect 94 0 92 0;
#X connect 96 0 92 0;
#X connect 97 0 92 1;
#X connect 98 0 18 0;
#X connect 98 1 101 0;
#X connect 100 0 98 0;
#X connect 102 0 98 0;
#X connect 103 0 98 1;
#X connect 105 0 36 0;
#X connect 105 0 34 0;
#X connect 105 0 32 0;
#X connect 105 0 30 0;
#X connect 105 0 28 0;
#X connect 105 0 26 0;
#X connect 105 0 24 0;
#X connect 105 0 22 0;
#X connect 107 0 113 0;
#X connect 108 0 42 0;
#X connect 109 0 43 0;
#X connect 110 0 38 0;
#X connect 111 0 112 0;
#X connect 112 0 116 0;
#X connect 113 0 108 0;
#X connect 113 1 109 0;
#X connect 113 2 110 0;
#X connect 116 0 115 0;
#X connect 118 0 120 0;
#X connect 120 0 119 0;
#X connect 121 0 118 0;
#X connect 122 0 130 0;
#X connect 123 0 124 0;
#X connect 124 0 121 0;
#X connect 128 0 120 0;
#X connect 129 0 115 0;
#X connect 130 0 124 1;
#X connect 130 0 150 0;
#X connect 135 0 136 0;
#X connect 135 0 134 0;
#X connect 137 0 135 0;
#X connect 138 0 135 0;
#X connect 139 0 135 0;
#X connect 140 0 135 0;
#X connect 141 0 135 0;
#X connect 142 0 135 0;
#X connect 143 0 135 0;
#X connect 144 0 135 0;
#X connect 145 0 135 0;
#X connect 146 0 135 0;
#X connect 147 0 135 0;
#X connect 150 0 124 2;
#X connect 151 0 153 0;
#X connect 151 1 156 0;
#X connect 152 0 151 0;
#X connect 154 0 151 1;
#X connect 156 0 45 1;
#X connect 157 0 158 0;
#X connect 158 0 8 0;
#X connect 158 0 8 1;
#X connect 159 0 158 1;
#X connect 170 0 164 0;
#X connect 170 0 199 0;
#X connect 171 0 165 0;
#X connect 171 0 198 0;
#X connect 172 0 168 0;
#X connect 172 0 200 0;
#X connect 173 0 169 0;
#X connect 173 0 201 0;
#X connect 174 0 160 0;
#X connect 174 0 202 0;
#X connect 175 0 162 0;
#X connect 175 0 203 0;
#X connect 176 0 161 0;
#X connect 176 0 204 0;
#X connect 177 0 163 0;
#X connect 177 0 205 0;
#X connect 178 0 179 0;
#X connect 189 0 178 0;
#X connect 190 0 178 0;
#X connect 191 0 178 0;
#X connect 192 0 178 0;
#X connect 196 0 202 0;
#X connect 197 0 195 0;
#X connect 212 0 213 0;
#X connect 218 0 217 0;
#X connect 220 0 219 0;
#X connect 222 0 221 0;
#X connect 223 0 221 0;
#X connect 224 0 219 0;
#X connect 225 0 219 0;
#X connect 226 0 219 0;
#X connect 227 0 206 0;
