#N canvas 63 88 616 274 12;
#X obj 181 142 *~ 0.99;
#X text 186 119 VCDelay;
#N canvas 114 116 756 745 VCDlfo 0;
#X obj -1247 222 r minSENS;
#X text -856 532 <1 : mute delay;
#X text -1411 618 del;
#X text -1371 617 del slew;
#X obj -1157 131 r PATCH7PAR2;
#X text -1155 105 del slew;
#X obj -1146 629 tanh~;
#X floatatom -920 124 5 0 250 0 - - - 0;
#X text -876 125 SHAPE (RAMP/SIN/TRI);
#X obj -840 112 bng 15 250 50 0 empty empty empty 17 7 0 10 #fcfcfc #000000 #000000;
#X floatatom -1002 126 5 0 50 0 - - - 0;
#X text -929 105 range;
#X text -1023 102 LFO;
#X text -855 511 >1:del* this;
#X obj -910 478 r PATCH6PAR1;
#X floatatom -1140 154 5 0 0 0 - - - 0;
#X obj -1146 658 outlet~;
#X obj -1394 40 switch~;
#X floatatom -1395 17 2 0 0 0 - - - 0;
#X text -1378 16 dsp;
#X obj -1396 -9 r PATCH6dsp;
#X floatatom -1144 35 5 0 0 0 - - - 0;
#X floatatom -1105 35 5 0 0 0 - - - 0;
#X floatatom -1068 35 5 0 0 0 - - - 0;
#X floatatom -1030 35 5 0 0 0 - - - 0;
#X floatatom -992 35 5 0 0 0 - - - 0;
#X floatatom -955 35 5 0 0 0 - - - 0;
#X floatatom -917 35 5 0 0 0 - - - 0;
#X obj -1160 5 unpack f f f f f f f f;
#X floatatom -1183 35 5 0 0 0 - - - 0;
#X obj -1160 -20 inlet;
#X floatatom -1055 621 5 0 1 0 - - - 0;
#X text -1017 622 vol;
#X obj -1053 645 line~ \$1 20;
#X obj -1146 602 *~ 0.99;
#X obj -930 582 bng 15 250 50 0 empty empty empty 17 7 0 10 #fcfcfc #000000 #000000;
#X obj -910 555 <= 1;
#X obj -910 533 int;
#X msg -910 582 0;
#X obj -864 556 > 1;
#X msg -864 582 0.99;
#X obj -910 504 moses 1;
#X text -1085 578 delay time in ms;
#X obj -1147 579 vd~ VCD;
#N canvas 739 339 515 372 lfo 0;
#X obj -594 59 phasor~;
#X obj -464 144 triangle~;
#X obj -594 259 spigot~;
#X text -408 262 choose between 3 different lfo shapes;
#X obj -293 83 + 1;
#X floatatom -262 106 5 0 0 0 - - - 0;
#X obj -317 54 bng 15 250 50 0 empty empty empty 17 7 0 10 #fcfcfc #000000 #000000;
#X obj -293 107 % 3;
#X obj -339 78 i 0;
#X obj -338 138 sel 0 1 2;
#X msg -338 164 0 1 1;
#X msg -279 164 1 0 1;
#X msg -223 163 1 1 0;
#X obj -338 194 unpack f f f;
#X text -300 49 choose different lfo shapes;
#X obj -533 259 spigot~;
#X obj -465 259 spigot~;
#X obj -531 168 *~ 0.5;
#X obj -532 194 +~ 0.5;
#X obj -463 168 *~ 0.5;
#X obj -464 194 +~ 0.5;
#X obj -532 144 sin~;
#X obj -595 340 outlet~;
#X obj -594 314 *~ 1;
#X obj -594 7 inlet;
#X obj -339 6 inlet;
#X obj -491 9 inlet;
#X obj -291 29 loadbang;
#X obj -593 199 tanh~;
#X obj -593 113 -~ 3.14159;
#X obj -593 90 *~ 6.28319;
#X connect 0 0 1 0;
#X connect 0 0 21 0;
#X connect 0 0 30 0;
#X connect 1 0 19 0;
#X connect 2 0 23 0;
#X connect 4 0 7 0;
#X connect 6 0 8 0;
#X connect 7 0 8 1;
#X connect 8 0 4 0;
#X connect 8 0 5 0;
#X connect 8 0 9 0;
#X connect 9 0 10 0;
#X connect 9 1 11 0;
#X connect 9 2 12 0;
#X connect 10 0 13 0;
#X connect 11 0 13 0;
#X connect 12 0 13 0;
#X connect 13 0 2 1;
#X connect 13 1 15 1;
#X connect 13 2 16 1;
#X connect 15 0 23 0;
#X connect 16 0 23 0;
#X connect 17 0 18 0;
#X connect 18 0 15 0;
#X connect 19 0 20 0;
#X connect 20 0 16 0;
#X connect 21 0 17 0;
#X connect 23 0 22 0;
#X connect 24 0 0 0;
#X connect 25 0 8 0;
#X connect 26 0 23 1;
#X connect 27 0 6 0;
#X connect 28 0 2 0;
#X connect 29 0 28 0;
#X connect 30 0 29 0;
#X restore -1020 534 pd lfo;
#X obj -1431 314 int;
#X floatatom -1431 374 5 0 0 0 - - - 0;
#X obj -1272 270 change;
#X obj -1272 294 t f b;
#X obj -1272 360 +;
#X obj -1240 320 random 5;
#X obj -1279 534 line~;
#X floatatom -1244 387 5 0 0 0 - - - 0;
#X obj -1272 319 * 1;
#X text -1402 339 nie trzeba dodawac 1 bo random 5 dodajemy;
#X obj -1279 484 pack f f;
#X msg -1279 509 \$1 \$2;
#X obj -1157 460 int;
#X obj -1157 180 scale 0.1 3.1 1 2000;
#X obj -1147 553 +~;
#X text -1407 118 dil l;
#X obj -1431 147 r PATCH6PAR1;
#X text -1002 102 FREQ 0 50;
#X obj -1394 517 unpack f f;
#X floatatom -1393 636 5 0 0 0 - - - 0;
#X floatatom -1345 635 5 0 0 0 - - - 0;
#X obj -1272 247 gate;
#X obj -1272 142 tgl 15 0 empty empty empty 17 7 0 10 #fcfcfc #000000 #000000 0 1;
#X obj -1319 393 t b f;
#X text -1248 195 brightest;
#X obj -1319 216 sel 0;
#X obj -1279 458 *;
#X msg -1319 247 1;
#X text -1318 119 SENS IN 1/0;
#X text -1019 85 (LFO)FREQ;
#X text -932 90 0-250;
#X obj -1282 18 loadbang;
#X msg -1281 43 1;
#X connect 0 0 66 1;
#X connect 4 0 15 0;
#X connect 4 0 58 0;
#X connect 6 0 16 0;
#X connect 7 0 44 1;
#X connect 9 0 44 2;
#X connect 10 0 44 0;
#X connect 14 0 41 0;
#X connect 18 0 17 0;
#X connect 20 0 18 0;
#X connect 28 0 29 0;
#X connect 28 1 21 0;
#X connect 28 2 22 0;
#X connect 28 3 23 0;
#X connect 28 4 24 0;
#X connect 28 5 25 0;
#X connect 28 6 26 0;
#X connect 28 7 27 0;
#X connect 30 0 28 0;
#X connect 31 0 33 0;
#X connect 34 0 6 0;
#X connect 36 0 35 0;
#X connect 36 0 38 0;
#X connect 37 0 36 0;
#X connect 38 0 34 1;
#X connect 39 0 40 0;
#X connect 40 0 34 1;
#X connect 41 0 37 0;
#X connect 41 1 39 0;
#X connect 43 0 34 0;
#X connect 44 0 59 1;
#X connect 45 0 46 0;
#X connect 45 0 71 0;
#X connect 47 0 48 0;
#X connect 48 0 53 0;
#X connect 48 1 50 0;
#X connect 49 0 52 0;
#X connect 49 0 68 0;
#X connect 50 0 49 1;
#X connect 51 0 59 0;
#X connect 53 0 49 0;
#X connect 55 0 56 0;
#X connect 55 0 63 0;
#X connect 56 0 51 0;
#X connect 57 0 55 1;
#X connect 58 0 57 0;
#X connect 59 0 43 0;
#X connect 61 0 45 0;
#X connect 63 0 64 0;
#X connect 63 1 65 0;
#X connect 66 0 47 0;
#X connect 67 0 66 0;
#X connect 67 0 70 0;
#X connect 68 0 71 0;
#X connect 68 1 71 1;
#X connect 70 0 72 0;
#X connect 71 0 55 0;
#X connect 72 0 68 0;
#X connect 76 0 77 0;
#X connect 77 0 67 0;
#X restore 261 65 pd VCDlfo;
#X obj 261 142 *~;
#X obj 292 144 nbx 5 14 -1e+37 1e+37 0 0 empty empty empty 0 -8 0 10 #fcfcfc #000000 #000000 0 256;
#X text 266 100 del feedbak amount;
#X obj 279 119 r PATCH6PAR2;
#X obj 181 183 delwrite~ VCD 10000;
#X connect 0 0 7 0;
#X connect 2 0 3 0;
#X connect 3 0 7 0;
#X connect 6 0 4 0;
#X connect 6 0 3 1;
