#N canvas 107 132 436 261 10;
#X obj 19 117 adc~;
#X obj 19 199 dac~;
#X obj 76 68 hsl 128 15 0 127 0 0 empty empty empty -2 -8 0 10 -262144
-1 -1 0 1;
#X obj 49 34 hsl 128 15 0 127 0 0 empty empty empty -2 -8 0 10 -262144
-1 -1 0 1;
#X text 90 8 Mix;
#N canvas 116 51 1378 752 FM-effect 1;
#X obj 168 0 inlet~;
#X obj 107 694 outlet~;
#X obj 856 114 inlet;
#X obj 354 -2 inlet;
#X obj 354 53 / 127;
#X msg 354 108 \$1 20;
#X obj 354 163 line~;
#X obj 358 621 *~;
#X obj 6 291 -~;
#X obj 5 233 sig~ 1;
#X obj 106 463 *~;
#X floatatom 856 171 5 0 0 0 - - -, f 5;
#X floatatom 480 56 5 0 0 0 - - -, f 5;
#X obj 562 356 *~;
#X text 472 5 Mix;
#X text 984 192 in MIDI;
#X obj 856 225 mtof;
#X floatatom 856 281 5 0 0 0 - - -, f 5;
#X text 978 270 Carrier freq;
#X text 983 307 in Hz;
#X text 988 150 Carrier freq;
#X obj 790 434 +~;
#X obj 789 494 osc~;
#X obj 628 236 inlet;
#X obj 423 563 *~;
#N canvas 263 94 733 617 my-env~ 0;
#X obj 26 17 inlet~;
#X obj 36 537 outlet~;
#X obj 27 81 *~;
#X obj 27 218 lop~ 20;
#X obj 26 275 lop~ 40;
#X obj 26 161 lop~ 30;
#X obj 44 350 sqrt~;
#X obj 44 471 max~ 0;
#X obj 45 411 -~ 0.01;
#X connect 0 0 2 0;
#X connect 0 0 2 1;
#X connect 2 0 5 0;
#X connect 3 0 4 0;
#X connect 4 0 6 0;
#X connect 5 0 3 0;
#X connect 6 0 8 0;
#X connect 7 0 1 0;
#X connect 8 0 7 0;
#X restore 424 469 pd my-env~;
#X obj 628 295 * 100;
#X connect 0 0 10 1;
#X connect 0 0 13 0;
#X connect 0 0 25 0;
#X connect 2 0 11 0;
#X connect 3 0 4 0;
#X connect 4 0 5 0;
#X connect 4 0 12 0;
#X connect 5 0 6 0;
#X connect 6 0 8 1;
#X connect 6 0 7 0;
#X connect 7 0 1 0;
#X connect 8 0 10 0;
#X connect 9 0 8 0;
#X connect 10 0 1 0;
#X connect 11 0 16 0;
#X connect 13 0 21 0;
#X connect 16 0 17 0;
#X connect 17 0 21 1;
#X connect 21 0 22 0;
#X connect 22 0 24 1;
#X connect 23 0 26 0;
#X connect 24 0 7 1;
#X connect 25 0 24 0;
#X connect 26 0 13 1;
#X restore 19 153 pd FM-effect;
#X floatatom 100 109 5 20 80 0 - - -, f 5;
#X text 206 69 Bandwidth/brightness;
#X text 183 34 Weird FM-effect;
#X text 143 104 MIDI note number;
#X text 138 123 for carrier freq;
#X text 61 201 (C) 2016 Louisiana State University;
#X text 68 182 Edgar Berdahl;
#X connect 0 0 5 0;
#X connect 0 1 5 0;
#X connect 2 0 5 2;
#X connect 3 0 5 1;
#X connect 5 0 1 0;
#X connect 5 0 1 1;
#X connect 6 0 5 3;
