#N canvas 584 208 450 300 10;
#X obj 71 66 adc~;
#X obj 55 105 *~;
#X obj 109 148 *~;
#X floatatom 140 42 5 0 0 0 - - -;
#X obj 165 151 nbx 5 14 -1e+37 1e+37 0 0 empty empty empty 0 -8 0 10
-262144 -1 -1 0 256;
#X obj 143 95 / 100;
#X obj 172 205 print;
#X obj 67 257 dac~;
#X msg 221 19 \; pd dsp \$1;
#X connect 0 0 1 0;
#X connect 0 1 2 0;
#X connect 1 0 7 0;
#X connect 2 0 7 1;
#X connect 3 0 5 0;
#X connect 5 0 6 0;
#X connect 5 0 1 1;
#X connect 5 0 2 1;
