#N canvas 660 225 658 404 10;
#X obj -77 85 f \$1;
#X obj -76 107 mtof;
#X text -79 37 initialize argument for abstraction - it gets it from
the name argument and is in midi (floating point);
#X obj 38 84 inlet;
#X text -15 65 contorl value for amplitude from sensor;
#X floatatom 37 127 5 0 0 0 - - -;
#X obj 95 88 r SinAttack;
#X obj 95 109 t b f;
#X obj -4 217 line~;
#X obj 38 276 outlet;
#X text 141 110 attach of allsines from 1 pot;
#X obj -70 289 *~;
#X obj -70 347 outlet~;
#X text 28 297 audio out;
#X obj 38 107 dbtorms;
#X obj 112 297 print;
#X obj 37 248 pack 0 0 0;
#X obj 38 185 unpack 0 20;
#X obj 101 209 t b f;
#X obj 38 207 t b f;
#X obj -77 9 loadbang;
#X obj -11 12 bng 15 250 50 0 empty empty empty 17 7 0 10 -262144 -1
-1;
#X text 83 275 output freq amp and attack as list;
#X obj -4 247 +~;
#X obj -76 132 square~;
#X obj 38 158 pack 0 0;
#X connect 0 0 1 0;
#X connect 1 0 16 0;
#X connect 1 0 24 0;
#X connect 3 0 14 0;
#X connect 5 0 25 0;
#X connect 6 0 7 0;
#X connect 7 0 25 0;
#X connect 7 1 25 1;
#X connect 8 0 23 0;
#X connect 11 0 12 0;
#X connect 14 0 5 0;
#X connect 16 0 9 0;
#X connect 17 0 19 0;
#X connect 17 1 18 0;
#X connect 18 0 16 0;
#X connect 18 1 16 2;
#X connect 19 0 16 0;
#X connect 19 1 16 1;
#X connect 20 0 0 0;
#X connect 21 0 0 0;
#X connect 23 0 11 1;
#X connect 24 0 11 0;
#X connect 25 0 8 0;
#X connect 25 0 17 0;
