#N canvas -3 51 950 581 10;
#X obj 212 220 t b f;
#X obj 166 220 t b f;
#X obj 117 220 t b f;
#X msg 110 303 \; led_levelss \$1 \$2 \$3 \$4;
#X obj 175 84 + 1;
#X obj 141 108 i;
#X obj 142 86 bng 15 250 50 0 empty empty empty 17 7 0 10 -262144 -1
-1;
#X floatatom 152 136 5 0 0 0 - - -;
#X obj 173 107 % 3;
#X text 71 55 button in;
#X obj 145 28 key;
#X text 107 34 RGB?;
#X text 254 39 LED NO;
#X text 232 114 pot in;
#X obj 219 38 key;
#X obj 217 64 sel 108;
#X obj 211 98 random 1024;
#X obj 214 131 bng 15 250 50 0 empty empty empty 17 7 0 10 -262144
-1 -1;
#X obj 143 54 sel 107;
#X obj 147 190 gate 3;
#X obj 147 163 + 1;
#X floatatom 332 106 5 0 0 0 - - -;
#X obj 481 226 t b f;
#X obj 435 226 t b f;
#X obj 386 226 t b f;
#X msg 374 278 \; led_levelss \$1 \$2 \$3 \$4;
#X obj 444 90 + 1;
#X obj 410 114 i;
#X obj 411 92 bng 15 250 50 0 empty empty empty 17 7 0 10 -262144 -1
-1;
#X floatatom 421 142 5 0 0 0 - - -;
#X obj 442 113 % 3;
#X text 340 61 button in;
#X obj 414 34 key;
#X text 376 40 RGB?;
#X text 523 45 LED NO;
#X text 501 120 pot in;
#X obj 488 44 key;
#X obj 486 70 sel 108;
#X obj 480 104 random 1024;
#X obj 483 137 bng 15 250 50 0 empty empty empty 17 7 0 10 -262144
-1 -1;
#X obj 412 60 sel 107;
#X obj 416 196 gate 3;
#X obj 416 169 + 1;
#X floatatom 287 136 5 0 0 0 - - -;
#X obj 56 306 print;
#X obj 298 291 print 2;
#X obj 110 280 pack 0 0 0 0;
#X text 221 280 led 1;
#X text 486 255 led 16;
#X obj 374 255 pack 45 0 0 0;
#X connect 0 0 46 0;
#X connect 0 1 46 3;
#X connect 1 0 46 0;
#X connect 1 1 46 2;
#X connect 2 0 46 0;
#X connect 2 1 46 1;
#X connect 4 0 8 0;
#X connect 5 0 4 0;
#X connect 5 0 7 0;
#X connect 6 0 5 0;
#X connect 7 0 20 0;
#X connect 8 0 5 1;
#X connect 10 0 18 0;
#X connect 14 0 15 0;
#X connect 15 0 16 0;
#X connect 16 0 17 0;
#X connect 17 0 19 1;
#X connect 18 0 6 0;
#X connect 19 0 2 0;
#X connect 19 1 1 0;
#X connect 19 2 0 0;
#X connect 20 0 19 0;
#X connect 21 0 41 1;
#X connect 22 0 49 0;
#X connect 22 1 49 3;
#X connect 23 0 49 0;
#X connect 23 1 49 2;
#X connect 24 0 49 0;
#X connect 24 1 49 1;
#X connect 26 0 30 0;
#X connect 27 0 26 0;
#X connect 27 0 29 0;
#X connect 28 0 27 0;
#X connect 29 0 42 0;
#X connect 30 0 27 1;
#X connect 32 0 40 0;
#X connect 36 0 37 0;
#X connect 37 0 38 0;
#X connect 38 0 39 0;
#X connect 39 0 41 1;
#X connect 40 0 28 0;
#X connect 41 0 24 0;
#X connect 41 1 23 0;
#X connect 41 2 22 0;
#X connect 42 0 41 0;
#X connect 43 0 19 1;
#X connect 46 0 3 0;
#X connect 46 0 44 0;
#X connect 49 0 25 0;
#X connect 49 0 45 0;
