#N canvas 129 56 983 790 12;
#X obj 306 657 dac~;
#X obj 287 582 +~;
#X obj 333 582 +~;
#X obj 431 513 tgl 15 0 empty empty empty 17 7 0 10 -4032 -1 -1 1 1
;
#X obj 87 580 *~;
#X obj 132 579 *~;
#X text 447 503 Disable;
#X text 447 514 stereo;
#X obj 333 610 *~;
#X obj 287 610 *~;
#X obj 379 582 line~ 1;
#X obj 379 556 r amplitude;
#X obj 431 487 loadbang;
#N canvas 0 50 450 278 (subpatch) 0;
#X array kacsound 17473 float 2;
#X coords 0 1 17473 -1 200 140 1 0 0;
#X restore 538 487 graph;
#X obj 25 30 cnv 15 525 415 empty empty empty 20 12 0 14 -159808 -66577
0;
#X obj 292 337 s pitchshiftfactor;
#X obj 290 79 s graintimems;
#X obj 291 161 s maxrandomdelay;
#X text 321 286 No pitch shift;
#X floatatom 292 312 5 0 0 0 - - -, f 5;
#X floatatom 290 55 8 0 100000 0 - - -, f 8;
#X floatatom 291 136 10 0 100000 0 - - -, f 10;
#X floatatom 559 203 5 0 0 0 - - -, f 5;
#X obj 292 412 s go;
#X obj 292 376 tgl 30 0 empty empty empty 17 7 0 10 -4034 -1 -1 0 1
;
#X obj 562 155 hsl 195 17 0 127 0 0 empty empty empty -2 -8 0 10 -262144
-1 -1 0 1;
#X obj 559 177 * 0.0078125;
#X text 373 138 ms;
#X text 358 55 ms;
#X msg 292 286 0;
#X text 334 312 Semitones of pitch shift;
#X text 288 35 Length of grain played;
#X text 291 106 Maximum of additional delay;
#X text 289 118 for grain starts;
#X text 603 203 Number between 0 and 1;
#X floatatom 292 224 10 0 100000 0 - - -, f 10;
#X text 374 226 ms;
#X text 290 194 Maximum of random delay;
#X text 554 113 POINTER:;
#X text 288 206 to superimpose on POINTER;
#X obj 292 249 s maxrandomdelaypointer;
#X text 323 383 Enable granular synthesizer;
#X obj 559 228 s positioninfilerelative;
#X floatatom 28 53 7 -50 18 0 - - -, f 7;
#N canvas 26 50 151 173 adjustvolume 0;
#X obj -66 11 inlet;
#X obj -66 142 s amplitude;
#X obj -66 64 dbtorms;
#X floatatom -55 91 5 0 0 0 - - -, f 5;
#X obj -66 38 + 100;
#X msg -66 117 \$1 30;
#X obj 0 67 loadbang;
#X msg 0 92 1;
#X connect 0 0 4 0;
#X connect 2 0 3 0;
#X connect 2 0 5 0;
#X connect 4 0 2 0;
#X connect 5 0 1 0;
#X connect 6 0 7 0;
#X connect 7 0 5 0;
#X restore 28 77 pd adjustvolume;
#X text 87 53 dB;
#X obj 210 33 loadbang;
#X msg 210 58 40;
#X text 554 125 Relative position in input file;
#X text 553 137 where the grain should start;
#X obj 554 408 s play_1_grain;
#X obj 554 387 bng 15 250 50 0 empty empty empty 17 7 0 10 -262144
-1 -1;
#N canvas 520 455 908 405 manage_samples_and_windows 0;
#N canvas 0 50 450 278 (subpatch) 0;
#X array mywindow 515 float 2;
#X coords 0 1 515 -1 100 70 1 0 0;
#X restore 394 300 graph;
#X msg 395 59 \; mywindow cosinesum 512 0.5 -0.5;
#X msg 395 101 \; mywindow cosinesum 512 0.9;
#X msg 395 142 \; mywindow cosinesum 512 0.456258 -0.5 0.050505 -0.02
0.010204 -0.0061725 0.004132;
#X text 463 32 Set the shape of the windowing function;
#X obj 395 33 loadbang;
#X text 609 112 "No window"/always on;
#X text 648 68 Raised cosine window;
#X text 428 195 More like a triangular window;
#X obj 18 329 soundfiler;
#X floatatom 18 353 10 0 0 0 - - -, f 10;
#X obj 18 376 s samplelength;
#X text 102 352 Size of loaded sound in samples;
#X obj 18 259 bng 15 250 50 0 empty empty empty 17 7 0 10 -4160 -1
-1;
#X obj 18 279 openpanel;
#X text 33 257 Load a file from disk into mysound;
#X msg 18 304 read -resize \$1 kacsound;
#X obj 17 31 loadbang;
#X text 13 12 read input sound;
#X text 80 32 from same folder;
#X text 190 104 from parent folder;
#X text 34 149 from grandparent children folder!!!;
#X msg 17 56 read -resize smpl.wav kacsound;
#X obj 17 172 soundfiler;
#X floatatom 17 196 10 0 0 0 - - -, f 10;
#X obj 17 219 s samplelength;
#X text 101 195 Size of loaded sound in samples;
#X msg 28 82 read -resize ../KacSampel02.wav kacsound;
#X msg 38 127 read -resize ../../sample/KIKS/KC_SMPL0111.wav kacsound
;
#X connect 5 0 1 0;
#X connect 9 0 10 0;
#X connect 10 0 11 0;
#X connect 13 0 14 0;
#X connect 14 0 16 0;
#X connect 16 0 9 0;
#X connect 17 0 22 0;
#X connect 22 0 23 0;
#X connect 23 0 24 0;
#X connect 24 0 25 0;
#X connect 27 0 23 0;
#X connect 28 0 23 0;
#X restore 558 34 pd manage_samples_and_windows;
#X obj 558 59 r samplelength;
#X floatatom 558 81 5 0 0 0 - - -, f 5;
#X obj 96 483 kacgrain;
#X obj 173 483 kacgrain;
#X obj 251 483 kacgrain;
#X obj 329 484 kacgrain;
#X obj 329 508 kacgrain;
#X obj 251 507 kacgrain;
#X obj 173 507 kacgrain;
#X obj 96 507 kacgrain;
#X connect 1 0 9 0;
#X connect 2 0 8 0;
#X connect 3 0 5 1;
#X connect 3 0 4 1;
#X connect 4 0 2 0;
#X connect 5 0 1 0;
#X connect 8 0 0 1;
#X connect 9 0 0 0;
#X connect 10 0 8 1;
#X connect 10 0 9 1;
#X connect 11 0 10 0;
#X connect 12 0 3 0;
#X connect 19 0 15 0;
#X connect 20 0 16 0;
#X connect 21 0 17 0;
#X connect 22 0 42 0;
#X connect 24 0 23 0;
#X connect 25 0 26 0;
#X connect 26 0 22 0;
#X connect 29 0 19 0;
#X connect 35 0 40 0;
#X connect 43 0 44 0;
#X connect 46 0 47 0;
#X connect 47 0 20 0;
#X connect 51 0 50 0;
#X connect 53 0 54 0;
#X connect 55 0 1 0;
#X connect 55 0 4 0;
#X connect 55 1 5 0;
#X connect 55 1 2 0;
#X connect 56 0 4 0;
#X connect 56 0 1 0;
#X connect 56 1 5 0;
#X connect 56 1 2 0;
#X connect 57 0 1 0;
#X connect 57 0 4 0;
#X connect 57 1 5 0;
#X connect 57 1 2 0;
#X connect 58 0 4 0;
#X connect 58 0 1 0;
#X connect 58 1 5 0;
#X connect 58 1 2 0;
#X connect 59 0 1 0;
#X connect 59 0 4 0;
#X connect 59 1 2 0;
#X connect 59 1 5 0;
#X connect 60 0 4 0;
#X connect 60 0 1 0;
#X connect 60 1 5 0;
#X connect 60 1 2 0;
#X connect 61 0 4 0;
#X connect 61 0 1 0;
#X connect 61 1 2 0;
#X connect 61 1 5 0;
#X connect 62 0 1 0;
#X connect 62 0 4 0;
#X connect 62 1 5 0;
#X connect 62 1 2 0;
