#N canvas 0 51 1185 726 12;
#X obj 326 40 soundfiler;
#X floatatom 326 64 10 0 0 0 - - -, f 10;
#X obj 326 87 s samplelength;
#X text 408 64 Size of loaded sound in samples;
#N canvas 0 50 450 278 (subpatch) 0;
#X array mywindow 515 float 2;
#X coords 0 1 515 -1 100 70 1 0 0;
#X restore 549 447 graph;
#X msg 127 454 \; mywindow cosinesum 512 0.5 -0.5;
#X msg 127 496 \; mywindow cosinesum 512 0.9;
#X msg 127 537 \; mywindow cosinesum 512 0.456258 -0.5 0.050505 -0.02
0.010204 -0.0061725 0.004132;
#X text 197 427 Set the shape of the windowing function;
#X obj 127 428 loadbang;
#X text 340 506 "No window"/always on;
#X text 380 463 Raised cosine window;
#X text 160 590 More like a triangular window;
#X obj 326 -30 bng 15 250 50 0 empty empty empty 17 7 0 10 -4160 -1
-1;
#X obj 326 -10 openpanel;
#X msg 326 15 read -resize \$1 mysound;
#X text 341 -32 Load a file from disk into mysound;
#X obj -219 -60 cnv 15 525 445 empty empty empty 20 12 0 14 -159808
-66577 0;
#X obj 49 252 s pitchshiftfactor;
#X obj 47 -4 s graintimems;
#X obj 48 78 s maxrandomdelay;
#X text 80 202 No pitch shift;
#X floatatom 49 229 5 0 0 0 - - -, f 5;
#X floatatom 47 -28 8 0 100000 0 - - -, f 8;
#X floatatom 48 53 10 0 100000 0 - - -, f 10;
#X floatatom -214 287 5 0 0 0 - - -, f 5;
#X obj 49 329 s go;
#X obj 49 293 tgl 30 0 empty empty empty 17 7 0 10 -4034 -1 -1 0 1
;
#X obj -211 199 hsl 195 17 0 127 0 0 empty empty empty -2 -8 0 10 -262144
-1 -1 0 1;
#X obj -214 261 * 0.0078125;
#X text 132 53 ms;
#X text 114 -27 ms;
#X msg 49 203 0;
#X text 92 228 Semitones of pitch shift;
#X text 45 -47 Length of grain played;
#X text 48 24 Maximum of additional delay;
#X text 46 34 for grain starts;
#X text -171 288 Number between 0 and 1;
#X floatatom 49 141 10 0 100000 0 - - -, f 10;
#X text 133 141 ms;
#X text 47 111 Maximum of random delay;
#X text -209 214 POINTER:;
#X text 45 123 to superimpose on POINTER;
#X obj 49 166 s maxrandomdelaypointer;
#X text 79 298 Enable granular synthesizer;
#X obj -214 312 s positioninfilerelative;
#N canvas 0 50 450 278 (subpatch) 0;
#X array mysound 663392 float 2;
#X coords 0 1 663392 -1 200 140 1;
#X restore -214 55 graph;
#X obj -159 574 dac~;
#X obj -88 496 +~;
#X obj -42 496 +~;
#X obj 16 427 tgl 15 0 empty empty empty 17 7 0 10 -4032 -1 -1 1 1
;
#X obj -81 454 *~;
#X obj -36 453 *~;
#X text 32 417 Disable;
#X text 32 428 stereo;
#X obj -86 422 mygrain;
#X obj -71 557 cnv 15 180 85 empty empty empty 20 12 0 14 -257985 -66577
0;
#X obj -64 617 writesf~ 2;
#X floatatom -214 -27 7 -50 18 0 - - -, f 7;
#N canvas 26 50 151 173 adjustvolume 0;
#X obj -66 11 inlet;
#X obj -66 142 s amplitude;
#X obj -66 64 dbtorms;
#X floatatom -55 91 5 0 0 0 - - -, f 5;
#X obj -66 38 + 100;
#X msg -66 117 \$1 30;
#X obj 0 67 loadbang;
#X msg 0 92 1;
#X connect 0 0 4 0;
#X connect 2 0 3 0;
#X connect 2 0 5 0;
#X connect 4 0 2 0;
#X connect 5 0 1 0;
#X connect 6 0 7 0;
#X connect 7 0 5 0;
#X restore -214 -3 pd adjustvolume;
#X text -155 -27 dB;
#X obj -42 524 *~;
#X obj -88 524 *~;
#X obj 4 496 line~ 1;
#X obj 4 470 r amplitude;
#X obj -63 562 tgl 25 0 empty empty empty 17 7 0 10 -258113 -1 -1 0
1;
#X text -37 564 Record START/STOP;
#X obj -86 398 mygrain;
#X obj -144 397 mygrain;
#X obj -144 421 mygrain;
#X obj -202 421 mygrain;
#X obj -259 421 mygrain;
#X obj -202 397 mygrain;
#X obj -259 397 mygrain;
#N canvas 349 239 568 247 handle-writesf~ 0;
#X obj 72 15 inlet;
#X obj 72 42 sel 1;
#X obj 72 163 outlet;
#X obj 72 69 t b b;
#X obj 72 106 delay 100;
#X obj 12 107 sel 0;
#X msg 72 133 start;
#X msg 12 133 stop;
#X obj 157 104 + 1;
#X obj 157 78 float;
#X obj 182 185 print;
#X msg 30 200 Stop recording;
#X obj 30 225 print;
#X obj 242 66 s pd;
#X msg 242 41 dsp 1;
#X obj 242 15 loadbang;
#X msg 182 159 Recording into outputwave\$1.wav;
#X msg 157 129 open outputwave\$1.wav;
#X connect 0 0 1 0;
#X connect 0 0 5 0;
#X connect 1 0 3 0;
#X connect 3 0 4 0;
#X connect 3 1 9 0;
#X connect 4 0 6 0;
#X connect 5 0 7 0;
#X connect 5 0 11 0;
#X connect 6 0 2 0;
#X connect 7 0 2 0;
#X connect 8 0 9 1;
#X connect 8 0 17 0;
#X connect 8 0 16 0;
#X connect 9 0 8 0;
#X connect 11 0 12 0;
#X connect 14 0 13 0;
#X connect 15 0 14 0;
#X connect 16 0 10 0;
#X connect 17 0 2 0;
#X restore -63 592 pd handle-writesf~;
#X obj -28 -54 loadbang;
#X msg -28 -30 40;
#X obj 16 401 loadbang;
#X text -209 226 Relative position in WAV file;
#X text -210 238 where the grain should start;
#X obj 468 111 key;
#X floatatom 467 136 5 0 0 0 - - -, f 5;
#X obj 467 161 sel 97 115 100 102 103 104 106 107 108 59 39;
#X msg 466 188 0;
#X msg 499 218 1;
#X msg 530 246 2;
#X msg 562 186 3;
#X msg 595 216 4;
#X msg 626 245 5;
#X msg 657 186 6;
#X msg 690 216 7;
#X msg 721 245 8;
#X msg 752 195 9;
#X msg 785 225 10;
#X msg 816 254 11;
#X text 370 345 Edgar Berdahl;
#X text 510 105 GRANULAR SYNTHESIZER - Manual control with MIDI;
#X text 368 325 (C) 2016 Louisiana State University;
#X connect 0 0 1 0;
#X connect 1 0 2 0;
#X connect 9 0 5 0;
#X connect 13 0 14 0;
#X connect 14 0 15 0;
#X connect 15 0 0 0;
#X connect 22 0 18 0;
#X connect 23 0 19 0;
#X connect 24 0 20 0;
#X connect 25 0 45 0;
#X connect 27 0 26 0;
#X connect 28 0 29 0;
#X connect 29 0 25 0;
#X connect 32 0 22 0;
#X connect 38 0 43 0;
#X connect 48 0 62 0;
#X connect 49 0 61 0;
#X connect 50 0 52 1;
#X connect 50 0 51 1;
#X connect 51 0 49 0;
#X connect 52 0 48 0;
#X connect 55 0 48 0;
#X connect 55 0 51 0;
#X connect 55 1 49 0;
#X connect 55 1 52 0;
#X connect 58 0 59 0;
#X connect 61 0 57 1;
#X connect 61 0 47 1;
#X connect 62 0 57 0;
#X connect 62 0 47 0;
#X connect 63 0 61 1;
#X connect 63 0 62 1;
#X connect 64 0 63 0;
#X connect 65 0 74 0;
#X connect 67 0 51 0;
#X connect 67 0 48 0;
#X connect 67 1 52 0;
#X connect 67 1 49 0;
#X connect 68 0 48 0;
#X connect 68 0 51 0;
#X connect 68 1 52 0;
#X connect 68 1 49 0;
#X connect 69 0 51 0;
#X connect 69 0 48 0;
#X connect 69 1 52 0;
#X connect 69 1 49 0;
#X connect 70 0 51 0;
#X connect 70 0 48 0;
#X connect 70 1 49 0;
#X connect 70 1 52 0;
#X connect 71 0 48 0;
#X connect 71 0 51 0;
#X connect 71 1 52 0;
#X connect 71 1 49 0;
#X connect 72 0 51 0;
#X connect 72 0 48 0;
#X connect 72 1 52 0;
#X connect 72 1 49 0;
#X connect 73 0 48 0;
#X connect 73 0 51 0;
#X connect 73 1 52 0;
#X connect 73 1 49 0;
#X connect 74 0 57 0;
#X connect 75 0 76 0;
#X connect 76 0 23 0;
#X connect 77 0 50 0;
#X connect 80 0 81 0;
#X connect 81 0 82 0;
#X connect 82 0 83 0;
#X connect 82 1 84 0;
#X connect 82 2 85 0;
#X connect 82 3 86 0;
#X connect 82 4 87 0;
#X connect 82 5 88 0;
#X connect 82 6 89 0;
#X connect 82 7 90 0;
#X connect 82 8 91 0;
#X connect 82 9 92 0;
#X connect 82 10 93 0;
#X connect 82 11 94 0;
#X connect 83 0 22 0;
#X connect 84 0 22 0;
#X connect 85 0 22 0;
#X connect 86 0 22 0;
#X connect 87 0 22 0;
#X connect 88 0 22 0;
#X connect 89 0 22 0;
#X connect 90 0 22 0;
#X connect 91 0 22 0;
#X connect 92 0 22 0;
#X connect 93 0 22 0;
#X connect 94 0 22 0;
