#N canvas 532 51 847 793 10;
#X obj 343 751 dac~;
#X obj 300 666 +~;
#X obj 406 666 +~;
#X obj 570 577 tgl 15 0 empty empty empty 17 7 0 10 -4032 -1 -1 1 1
;
#X obj 199 603 *~;
#X obj 552 609 *~;
#X text 586 567 Disable;
#X text 586 578 stereo;
#X obj 406 714 *~;
#X obj 300 714 *~;
#X obj 472 696 line~ 1;
#X obj 472 670 r amplitude;
#X obj 570 551 loadbang;
#N canvas 0 50 450 278 (subpatch) 0;
#X array kacsound 17473 float 2;
#X coords 0 1 17473 -1 200 70 1 0 0;
#X restore 611 184 graph;
#X obj 440 476 s pitchshiftfactor;
#X obj 52 452 s go;
#X obj 52 416 tgl 30 0 empty empty empty 17 7 0 10 -4034 -1 -1 1 1
;
#X text 663 427 Number between 0 and 1;
#X text 610 463 POINTER:;
#X obj 612 446 s positioninfilerelative;
#X floatatom 612 126 7 -50 18 0 - - -, f 7;
#N canvas 26 50 151 173 adjustvolume 0;
#X obj -66 11 inlet;
#X obj -66 142 s amplitude;
#X obj -66 64 dbtorms;
#X floatatom -55 91 5 0 0 0 - - -, f 5;
#X obj -66 38 + 100;
#X msg -66 117 \$1 30;
#X obj 0 67 loadbang;
#X msg 0 92 1;
#X connect 0 0 4 0;
#X connect 2 0 3 0;
#X connect 2 0 5 0;
#X connect 4 0 2 0;
#X connect 5 0 1 0;
#X connect 6 0 7 0;
#X connect 7 0 5 0;
#X restore 612 150 pd adjustvolume;
#X text 661 126 dB;
#X text 610 475 Relative position in input file;
#X text 611 487 where the grain should start;
#X obj 187 477 s play_1_grain;
#X obj 197 455 bng 15 250 50 0 empty empty empty 17 7 0 10 -262144
-1 -1;
#N canvas 514 451 908 405 manage_samples_and_windows 0;
#N canvas 0 50 450 278 (subpatch) 0;
#X array mywindow 515 float 2;
#X coords 0 1 515 -1 100 70 1 0 0;
#X restore 394 300 graph;
#X msg 455 59 \; mywindow cosinesum 512 0.5 -0.5;
#X msg 455 101 \; mywindow cosinesum 512 0.9;
#X msg 455 142 \; mywindow cosinesum 512 0.456258 -0.5 0.050505 -0.02
0.010204 -0.0061725 0.004132;
#X text 523 32 Set the shape of the windowing function;
#X obj 455 33 loadbang;
#X text 649 112 "No window"/always on;
#X text 688 68 Raised cosine window;
#X text 488 195 More like a triangular window;
#X obj 18 329 soundfiler;
#X floatatom 18 353 10 0 0 0 - - -, f 10;
#X obj 18 376 s samplelength;
#X text 102 352 Size of loaded sound in samples;
#X obj 18 259 bng 15 250 50 0 empty empty empty 17 7 0 10 -4160 -1
-1;
#X obj 18 279 openpanel;
#X text 33 257 Load a file from disk into mysound;
#X msg 18 304 read -resize \$1 kacsound;
#X obj 17 31 loadbang;
#X text 13 12 read input sound;
#X text 80 32 from same folder;
#X text 190 104 from parent folder;
#X text 34 149 from grandparent children folder!!!;
#X msg 17 56 read -resize smpl.wav kacsound;
#X obj 17 172 soundfiler;
#X floatatom 17 196 10 0 0 0 - - -, f 10;
#X obj 17 219 s samplelength;
#X text 101 195 Size of loaded sound in samples;
#X msg 28 82 read -resize ../KacSampel02.wav kacsound;
#X msg 38 127 read -resize ../../sample/KIKS/KC_SMPL0111.wav kacsound
;
#X connect 5 0 1 0;
#X connect 9 0 10 0;
#X connect 10 0 11 0;
#X connect 13 0 14 0;
#X connect 14 0 16 0;
#X connect 16 0 9 0;
#X connect 17 0 22 0;
#X connect 22 0 23 0;
#X connect 23 0 24 0;
#X connect 24 0 25 0;
#X connect 27 0 23 0;
#X connect 28 0 23 0;
#X restore 611 103 pd manage_samples_and_windows;
#X obj 726 130 r samplelength;
#X floatatom 726 152 5 0 0 0 - - -, f 5;
#X obj 200 551 kacgrain;
#X text 462 458 pt shf semitone;
#X obj 499 549 kacgrain;
#X obj 499 549 kacgrain;
#X obj 200 551 kacgrain;
#X obj 303 478 s graintimems;
#X text 457 185 FROM 01-bright sensor;
#X obj 440 356 r min_sens;
#X floatatom 623 428 5 0 0 0 - - -, f 5;
#X obj 440 378 t f f, f 25;
#X floatatom 477 434 5 0 0 0 - - -, f 5;
#X obj 440 400 * 32;
#X obj 440 422 - 16;
#X floatatom 530 437 5 0 0 0 - - -, f 5;
#X obj 303 412 random 200;
#X obj 303 434 + 20;
#X text 335 434 min grain len;
#X floatatom 333 456 5 0 0 0 - - -, f 5;
#X obj 187 389 t b b, f 17;
#X obj 187 367 r treshold_bang;
#X obj 197 412 bng 15 250 50 0 empty empty empty 17 7 0 10 -262144
-1 -1;
#X obj 459 220 s min_sens;
#X floatatom 459 202 5 0 0.95 0 - - -, f 5;
#X obj 319 220 s treshold_bang;
#X obj 319 198 bng 15 250 50 0 empty empty empty 17 7 0 10 -262144
-1 -1;
#X text 337 200 when trsh passed;
#X obj 52 327 r light_gate;
#X obj 52 349 route float bang;
#X obj 68 381 tgl 15 0 empty empty empty 17 7 0 10 -262144 -1 -1 1
1;
#X obj 52 222 s light_gate;
#X obj 72 197 bng 15 250 50 0 empty empty empty 17 7 0 10 -262144 -1
-1;
#X obj 52 175 tgl 15 0 empty empty empty 17 7 0 10 -262144 -1 -1 1
1;
#X text 69 176 0/1 - starts stops grain loop playback;
#X text 93 196 bang - plays single rndm grain;
#N canvas 800 298 610 288 orig_ctrl 0;
#X obj 38 235 s graintimems;
#X obj 209 134 s maxrandomdelay;
#X floatatom 38 216 8 0 100000 0 - - -, f 8;
#X floatatom 209 120 10 0 100000 0 - - -, f 10;
#X text 281 118 ms;
#X text 96 215 ms;
#X text 36 157 Length of grain played;
#X text 207 104 for grain starts;
#X obj 38 175 loadbang;
#X msg 38 195 40;
#X text 207 80 Maximum of;
#X text 207 92 additional delay;
#X floatatom 36 117 10 0 100000 0 - - -, f 10;
#X text 118 119 ms;
#X obj 36 134 s maxrandomdelaypointer;
#X text 34 92 Max random delay;
#X text 34 102 superimpose on POINTER;
#X obj 35 67 s go;
#X obj 35 31 tgl 30 0 empty empty empty 17 7 0 10 -4034 -1 -1 0 1;
#X text 66 38 Enable granular synthesizer;
#X obj 146 234 s pitchshiftfactor;
#X text 176 200 No pitch shift;
#X floatatom 146 217 3 0 0 0 - - -, f 3;
#X msg 146 198 0;
#X text 168 216 pt shf semitone;
#X floatatom 336 177 5 0 0 0 - - -, f 5;
#X obj 339 135 hsl 195 17 0 127 0 0 empty empty empty -2 -8 0 10 -262144
-1 -1 0 1;
#X obj 336 155 * 0.0078125;
#X text 377 175 Number between 0 and 1;
#X text 334 211 POINTER:;
#X obj 336 194 s positioninfilerelative;
#X text 334 223 Relative position in input file;
#X text 335 235 where the grain should start;
#X connect 2 0 0 0;
#X connect 3 0 1 0;
#X connect 8 0 9 0;
#X connect 9 0 2 0;
#X connect 12 0 14 0;
#X connect 18 0 17 0;
#X connect 22 0 20 0;
#X connect 23 0 22 0;
#X connect 25 0 30 0;
#X connect 26 0 27 0;
#X connect 27 0 25 0;
#X restore 728 280 pd orig_ctrl;
#X msg 644 659 \; pd dsp \$1;
#X obj 654 622 tgl 15 0 empty empty empty 17 7 0 10 -262144 -1 -1 1
1;
#X connect 1 0 9 0;
#X connect 2 0 8 0;
#X connect 3 0 5 1;
#X connect 3 0 4 1;
#X connect 4 0 2 0;
#X connect 5 0 1 0;
#X connect 8 0 0 1;
#X connect 9 0 0 0;
#X connect 10 0 8 1;
#X connect 10 0 9 1;
#X connect 11 0 10 0;
#X connect 12 0 3 0;
#X connect 16 0 15 0;
#X connect 20 0 21 0;
#X connect 26 0 25 0;
#X connect 28 0 29 0;
#X connect 30 0 1 0;
#X connect 30 0 4 0;
#X connect 30 1 5 0;
#X connect 30 1 2 0;
#X connect 32 0 4 0;
#X connect 32 0 1 0;
#X connect 32 1 5 0;
#X connect 32 1 2 0;
#X connect 33 0 1 0;
#X connect 33 0 4 0;
#X connect 33 1 2 0;
#X connect 33 1 5 0;
#X connect 34 0 4 0;
#X connect 34 0 1 0;
#X connect 34 1 5 0;
#X connect 34 1 2 0;
#X connect 37 0 39 0;
#X connect 39 0 41 0;
#X connect 39 1 38 0;
#X connect 39 1 19 0;
#X connect 41 0 42 0;
#X connect 42 0 40 0;
#X connect 42 0 14 0;
#X connect 43 0 14 0;
#X connect 44 0 45 0;
#X connect 45 0 47 0;
#X connect 45 0 35 0;
#X connect 48 0 25 0;
#X connect 48 0 50 0;
#X connect 48 1 44 0;
#X connect 49 0 48 0;
#X connect 52 0 51 0;
#X connect 54 0 53 0;
#X connect 56 0 57 0;
#X connect 57 0 58 0;
#X connect 57 0 16 0;
#X connect 57 1 48 0;
#X connect 60 0 59 0;
#X connect 61 0 59 0;
#X connect 66 0 65 0;
