#N canvas 398 51 954 815 10;
#X obj 176 488 line~;
#X floatatom 114 286 5 0 0 0 - - -, f 5;
#X obj 373 129 r maxrandomdelay;
#X obj 114 242 t b f;
#X floatatom 114 181 5 0 0 0 - - -, f 5;
#X text 153 181 ms;
#X obj 693 314 r pd;
#X obj 693 336 route audio-dialog;
#X floatatom 693 376 5 0 0 0 - - -, f 5;
#X obj 438 177 r graintimems;
#X obj 554 170 r pitchshiftfactor;
#X floatatom 554 191 5 0 0 0 - - -, f 5;
#X floatatom 554 231 5 0 0 0 - - -, f 5;
#X text 592 191 Semitones;
#X obj 426 371 * 1, f 13;
#X text 589 232 Relative playback speed;
#X floatatom 426 392 5 0 0 0 - - -, f 5;
#X text 545 541 Stored duration in WAV file over which to play in ms
;
#X floatatom 693 413 5 0 0 0 - - -, f 5;
#X obj 176 607 +~, f 47;
#X text 185 543 Convert from ms;
#X text 184 554 to samples;
#X obj 693 393 * 0.001;
#X text 732 375 Hz;
#X text 725 364 Sampling;
#X text 752 374 rate;
#X obj 176 576 *~ 44.1, f 36;
#X obj 106 762 outlet~;
#X obj 177 763 outlet~;
#X obj 177 689 *~ 0.1;
#X obj 47 423 random 100;
#X obj 47 632 * 0.01;
#X obj 106 735 *~;
#X obj 177 736 *~;
#X obj 47 710 expr 1-$f1;
#X obj 114 7 r go;
#X obj 114 200 t b f, f 8;
#X obj 114 263 delay;
#X msg 438 196 set \$1;
#X obj 176 443 pack 0 0, f 15;
#X msg 176 465 0 \, \$2 \$1;
#X obj 622 276 r maxrandomdelaypointer;
#X obj 176 510 +~, f 28;
#X obj 489 410 random 0;
#X obj 114 221 random 0;
#X obj 177 669 *~;
#X obj 365 659 line~;
#X obj 365 680 tabread4~ mywindow;
#X obj 554 210 expr pow(2 \, $f1/12);
#X obj 307 34 random 200;
#X obj 307 14 loadbang;
#X floatatom 307 53 5 0 0 0 - - -, f 5;
#X obj 775 499 r samplelength;
#X obj 722 477 r positioninfilerelative;
#X obj 502 580 float, f 19;
#X obj 722 520 * 441000;
#X floatatom 788 521 9 0 0 0 - - -, f 9;
#X msg 373 148 set \$1;
#X obj 114 326 pipe;
#X obj 114 303 t f f;
#X obj 83 116 spigot, f 19;
#X obj 244 53 tgl 15 0 empty empty empty 17 7 0 10 -262144 -1 -1 0
1;
#X obj 114 55 sel 1;
#X obj 114 78 delay, f 28;
#X obj 114 30 t f f, f 19;
#X obj 828 317 loadbang;
#X msg 828 337 44100;
#X obj 114 348 t b f b f b f b, f 54;
#X msg 365 638 0 \, 512 \$1;
#X msg 693 356 \$17;
#X obj 176 631 tabread4~ kacsound;
#X obj 329 100 r play_1_grain;
#X floatatom 622 295 5 0 0 0 - - -, f 5;
#X obj 27 111 bng 15 250 50 0 empty empty empty 17 7 0 10 -262144 -1
-1;
#X obj 24 201 bng 15 250 50 0 empty empty empty 17 7 0 10 -262144 -1
-1;
#X connect 0 0 42 0;
#X connect 1 0 59 0;
#X connect 2 0 57 0;
#X connect 3 0 37 0;
#X connect 3 1 37 1;
#X connect 4 0 36 0;
#X connect 6 0 7 0;
#X connect 7 0 69 0;
#X connect 8 0 22 0;
#X connect 9 0 38 0;
#X connect 10 0 11 0;
#X connect 11 0 48 0;
#X connect 12 0 14 1;
#X connect 14 0 16 0;
#X connect 16 0 39 1;
#X connect 18 0 26 1;
#X connect 19 0 70 0;
#X connect 22 0 18 0;
#X connect 26 0 19 0;
#X connect 29 0 32 0;
#X connect 29 0 33 0;
#X connect 30 0 31 0;
#X connect 31 0 34 0;
#X connect 31 0 33 1;
#X connect 32 0 27 0;
#X connect 33 0 28 0;
#X connect 34 0 32 1;
#X connect 35 0 64 0;
#X connect 36 0 44 0;
#X connect 36 1 44 1;
#X connect 37 0 1 0;
#X connect 38 0 1 0;
#X connect 39 0 40 0;
#X connect 40 0 0 0;
#X connect 41 0 43 1;
#X connect 41 0 72 0;
#X connect 42 0 26 0;
#X connect 43 0 42 1;
#X connect 44 0 3 0;
#X connect 45 0 29 0;
#X connect 46 0 47 0;
#X connect 47 0 45 1;
#X connect 48 0 12 0;
#X connect 49 0 51 0;
#X connect 50 0 49 0;
#X connect 51 0 63 1;
#X connect 52 0 55 1;
#X connect 52 0 56 0;
#X connect 53 0 55 0;
#X connect 54 0 19 1;
#X connect 55 0 54 1;
#X connect 57 0 4 0;
#X connect 58 0 67 0;
#X connect 59 0 58 0;
#X connect 59 1 58 1;
#X connect 60 0 4 0;
#X connect 61 0 60 1;
#X connect 62 0 63 0;
#X connect 63 0 4 0;
#X connect 64 0 62 0;
#X connect 64 1 61 0;
#X connect 65 0 66 0;
#X connect 66 0 8 0;
#X connect 67 0 74 0;
#X connect 67 1 39 0;
#X connect 67 2 30 0;
#X connect 67 3 68 0;
#X connect 67 4 54 0;
#X connect 67 5 14 0;
#X connect 67 6 43 0;
#X connect 68 0 46 0;
#X connect 69 0 8 0;
#X connect 70 0 45 0;
#X connect 71 0 4 0;
#X connect 73 0 4 0;
#X connect 74 0 60 0;
