#N canvas 0 51 755 434 10;
#X obj 92 70 inlet;
#X obj 132 257 outlet;
#X obj 160 51 inlet;
#X obj 226 51 inlet;
#X obj 294 51 inlet;
#X obj 359 128 inlet;
#X obj 101 302 % 1e+20;
#X obj 359 161 + 1;
#X obj 92 97 bng 15 250 50 0 empty empty empty 17 7 0 10 -262144 -1
-1;
#X obj 132 232 + 1;
#X floatatom 67 204 5 0 0 0 - - -, f 5;
#X msg 101 336 set \$1;
#X text 211 313 This emulates a counter whose maximum can be set.;
#X text 212 282 Bangs are counted starting from 1;
#X text 44 404 Edgar Berdahl;
#X text 42 384 (C) 2014 Louisiana State University;
#X connect 0 0 8 0;
#X connect 5 0 7 0;
#X connect 6 0 11 0;
#X connect 7 0 6 1;
#X connect 8 0 10 0;
#X connect 9 0 1 0;
#X connect 9 0 6 0;
#X connect 10 0 9 0;
#X connect 11 0 10 0;
