#N canvas 428 51 954 815 10;
#X obj 274 631 tabread4~ mysound;
#X obj 274 438 line~;
#X floatatom 274 236 5 0 0 0 - - -, f 5;
#X obj 145 44 r maxrandomdelay;
#X obj 274 179 t b f;
#X floatatom 274 104 5 0 0 0 - - -, f 5;
#X text 313 103 ms;
#X obj 623 403 r pd;
#X obj 623 427 route audio-dialog;
#X floatatom 623 476 5 0 0 0 - - -, f 5;
#X obj 143 174 r graintimems;
#X obj 588 221 r pitchshiftfactor;
#X floatatom 588 246 5 0 0 0 - - -, f 5;
#X floatatom 588 295 5 0 0 0 - - -, f 5;
#X text 633 243 Semitones;
#X obj 499 337 * 1, f 13;
#X text 633 289 Relative playback speed;
#X floatatom 499 358 5 0 0 0 - - -, f 5;
#X text 545 631 Stored duration in WAV file over which to play in ms
;
#X floatatom 623 516 5 0 0 0 - - -, f 5;
#X obj 274 607 +~, f 55;
#X text 283 523 Convert from ms;
#X text 282 534 to samples;
#X obj 623 495 * 0.001;
#X text 662 475 Hz;
#X text 551 468 Sampling;
#X text 578 478 rate;
#X obj 274 556 *~ 44.1, f 40;
#X obj 175 772 outlet~;
#X obj 256 773 outlet~;
#X obj 256 709 *~ 0.1;
#X obj 67 413 random 100;
#X obj 67 672 * 0.01;
#X obj 175 745 *~;
#X obj 256 746 *~;
#X obj 67 720 expr 1-$f1;
#X obj 274 11 r go;
#X obj 274 128 t b f;
#X obj 274 206 delay;
#X msg 143 198 set \$1;
#X obj 274 372 pack 0 0;
#X msg 274 409 0 \, \$2 \$1;
#X obj 595 376 r maxrandomdelaypointer;
#X obj 274 497 +~;
#X obj 542 402 random 0;
#X obj 274 153 random 0;
#X obj 256 689 *~;
#X obj 422 659 line~;
#X obj 422 683 tabread4~ mywindow;
#X obj 588 270 expr pow(2 \, $f1/12);
#X obj 409 50 random 200;
#X obj 409 26 loadbang;
#X floatatom 409 74 5 0 0 0 - - -, f 5;
#X obj 745 534 r samplelength;
#X obj 692 509 r positioninfilerelative;
#X obj 660 586 float;
#X obj 692 560 * 441000;
#X floatatom 758 561 9 0 0 0 - - -, f 9;
#X msg 145 69 set \$1;
#X obj 274 290 pipe;
#X obj 274 263 t f f;
#X obj 367 126 spigot;
#X obj 369 61 tgl 15 0 empty empty empty 17 7 0 10 -262144 -1 -1 0
1;
#X obj 274 56 sel 1;
#X obj 274 80 delay;
#X obj 274 34 t f f, f 14;
#X obj 758 405 loadbang;
#X msg 758 430 44100;
#X obj 274 316 t b f b f b f b, f 39;
#X msg 422 630 0 \, 512 \$1;
#X msg 623 452 \$17;
#X text 511 157 Edgar Berdahl;
#X text 508 138 (C) 2014 Louisiana State University;
#X obj 149 100 bng 15 250 50 0 empty empty empty 17 7 0 10 -262144
-1 -1;
#X connect 0 0 46 1;
#X connect 1 0 43 0;
#X connect 2 0 60 0;
#X connect 3 0 58 0;
#X connect 4 0 38 0;
#X connect 4 1 38 1;
#X connect 5 0 37 0;
#X connect 7 0 8 0;
#X connect 8 0 70 0;
#X connect 9 0 23 0;
#X connect 10 0 39 0;
#X connect 11 0 12 0;
#X connect 12 0 49 0;
#X connect 13 0 15 1;
#X connect 15 0 17 0;
#X connect 17 0 40 1;
#X connect 19 0 27 1;
#X connect 20 0 0 0;
#X connect 23 0 19 0;
#X connect 27 0 20 0;
#X connect 30 0 33 0;
#X connect 30 0 34 0;
#X connect 31 0 32 0;
#X connect 32 0 35 0;
#X connect 32 0 34 1;
#X connect 33 0 28 0;
#X connect 34 0 29 0;
#X connect 35 0 33 1;
#X connect 36 0 65 0;
#X connect 37 0 45 0;
#X connect 37 1 45 1;
#X connect 38 0 2 0;
#X connect 39 0 2 0;
#X connect 40 0 41 0;
#X connect 41 0 1 0;
#X connect 42 0 44 1;
#X connect 43 0 27 0;
#X connect 44 0 43 1;
#X connect 45 0 4 0;
#X connect 46 0 30 0;
#X connect 47 0 48 0;
#X connect 48 0 46 0;
#X connect 49 0 13 0;
#X connect 50 0 52 0;
#X connect 51 0 50 0;
#X connect 52 0 64 1;
#X connect 53 0 56 1;
#X connect 53 0 57 0;
#X connect 54 0 56 0;
#X connect 55 0 20 1;
#X connect 56 0 55 1;
#X connect 58 0 5 0;
#X connect 59 0 68 0;
#X connect 60 0 59 0;
#X connect 60 1 59 1;
#X connect 61 0 5 0;
#X connect 62 0 61 1;
#X connect 63 0 64 0;
#X connect 64 0 5 0;
#X connect 65 0 63 0;
#X connect 65 1 62 0;
#X connect 66 0 67 0;
#X connect 67 0 9 0;
#X connect 68 0 61 0;
#X connect 68 1 40 0;
#X connect 68 2 31 0;
#X connect 68 3 69 0;
#X connect 68 4 55 0;
#X connect 68 5 15 0;
#X connect 68 6 44 0;
#X connect 69 0 47 0;
#X connect 70 0 9 0;
#X connect 73 0 37 0;
