#N canvas 135 52 745 647 10;
#X obj 143 523 line;
#X text -172 4 to jako opcja sterowania sekwencerem z fade in i fade
out;
#X text -166 22 pomysl jest taki - losuj 3 kolory (ledy?);
#X text -165 140 kiedy skonczy sie calosc wywylamy bang i ladujemy
nastepna obwiednie;
#X text 182 531 creation arguments:;
#X text 182 541 1 initial value;
#X text 181 553 2 time grain in milliseconds;
#X obj 416 210 + 25;
#X obj 287 209 + 25;
#X obj 416 187 random 235;
#X obj 110 210 + 25;
#X obj -42 213 + 25;
#X obj 398 441 pack f f;
#X obj 263 46 bng 25 250 50 0 empty empty empty 17 7 0 10 -258113 -1
-1;
#X text -165 39 kazdy dostaje swoje parametry: - 1 docelowac jasnosc
(20 do 255 random? sustain value) - 2 czas na ramp up (random 10 sekund?
atak time) - 3 swoj czas na pozostanie na tej wartosci (sustain time
\, rnd 5000?) - 4 decay time (CZAS NA ZEJSCIE DO ZERA rand 2000?);
#X text 450 209 1 sustain val;
#X text 320 209 2 atak;
#X text 140 209 3 sus time;
#X text -13 212 4 dec time;
#X msg 398 463 \$2 \$1;
#X text 438 459 odwruc kolejnosc;
#X obj 232 273 del;
#X floatatom 338 234 5 0 0 0 - - -;
#X floatatom 460 236 5 0 0 0 - - -;
#X floatatom 9 234 5 0 0 0 - - -;
#X floatatom 224 426 5 0 0 0 - - -;
#X obj 217 447 pack f f;
#X msg 216 468 \$2 \$1;
#X text 181 519 lista (dwa elementy - poczatek i ramp time);
#X text 252 467 odwruc kolejnosc;
#X obj 408 486 print atak;
#X obj 225 491 print sus;
#X text 216 315 opuzniony o czas ataku;
#X text -156 120 - w sumie potrzeba 3 obwiednie: atak sus decay;
#X text 275 446 sus;
#X text 459 440 atak;
#X obj 218 297 bng 15 250 50 0 empty empty empty 17 7 0 10 -262144
-1 -1;
#X floatatom 144 546 5 0 0 0 - - -;
#X text 100 449 dec;
#X text 83 469;
#X msg 67 459 0 \$1;
#X obj 58 483 print dec;
#X obj 218 403 int;
#X floatatom 172 237 5 0 0 0 - - -;
#X obj 93 319 del;
#X obj 66 406 int;
#X text 117 335 opuzniony o czas ataku;
#X text 120 346 + czas sustain;
#X floatatom 78 435 5 0 0 0 - - -;
#X obj 63 340 bng 15 250 50 0 empty empty empty 17 7 0 10 -262144 -1
-1;
#X obj -41 190 random 10000;
#X obj 110 190 random 10000;
#X obj 287 187 random 10000;
#X obj -41 404 del;
#X obj -41 478 s lineEND;
#X obj -15 452 bng 15 250 50 0 empty empty empty 17 7 0 10 -262144
-1 -1;
#X obj 326 100 r lineEND;
#X obj 144 268 +;
#X obj -98 309 +;
#X text -163 352 total length of envelop;
#X obj 292 100 gate;
#X obj 292 78 tgl 15 0 empty empty empty 17 7 0 10 -262144 -1 -1 1
1;
#X obj -65 580 hsl 500 50 0 255 0 0 empty empty empty -2 -8 0 10 -4034
-1 -1 13894 1;
#X obj 416 235 t f f;
#X obj 287 234 t f f f;
#X obj 110 237 t f f f b;
#X text -17 404 del total;
#X obj -52 236 t f f f;
#X obj -41 429 t b b;
#X text 317 76 loop on off;
#X text 292 49 start;
#X obj 262 125 t b b b b b;
#X floatatom -98 334 5 0 0 0 - - -;
#X obj 237 297 t b b;
#X obj 83 340 t b b;
#X connect 0 0 37 0;
#X connect 0 0 62 0;
#X connect 7 0 23 0;
#X connect 7 0 63 0;
#X connect 8 0 22 0;
#X connect 8 0 64 0;
#X connect 9 0 7 0;
#X connect 10 0 43 0;
#X connect 10 0 65 0;
#X connect 11 0 24 0;
#X connect 11 0 67 0;
#X connect 12 0 19 0;
#X connect 13 0 71 0;
#X connect 19 0 30 0;
#X connect 19 0 0 0;
#X connect 21 0 36 0;
#X connect 21 0 73 0;
#X connect 26 0 27 0;
#X connect 27 0 31 0;
#X connect 27 0 0 0;
#X connect 40 0 41 0;
#X connect 40 0 0 0;
#X connect 42 0 26 0;
#X connect 42 0 25 0;
#X connect 44 0 49 0;
#X connect 44 0 74 0;
#X connect 45 0 40 0;
#X connect 45 0 48 0;
#X connect 50 0 11 0;
#X connect 51 0 10 0;
#X connect 52 0 8 0;
#X connect 53 0 68 0;
#X connect 56 0 60 1;
#X connect 57 0 58 1;
#X connect 58 0 72 0;
#X connect 60 0 71 0;
#X connect 61 0 60 0;
#X connect 63 0 26 1;
#X connect 63 1 12 1;
#X connect 64 0 57 1;
#X connect 64 1 21 1;
#X connect 64 2 12 0;
#X connect 65 0 44 1;
#X connect 65 1 42 1;
#X connect 65 2 57 0;
#X connect 65 3 21 0;
#X connect 67 0 58 0;
#X connect 67 1 53 1;
#X connect 67 2 45 1;
#X connect 68 0 54 0;
#X connect 68 1 55 0;
#X connect 71 1 50 0;
#X connect 71 2 51 0;
#X connect 71 3 52 0;
#X connect 71 4 9 0;
#X connect 73 0 44 0;
#X connect 73 1 42 0;
#X connect 74 0 53 0;
#X connect 74 1 45 0;
