#N canvas 254 118 691 560 10;
#X msg 266 376 open 1;
#X msg 209 376 devices;
#X msg 314 375 open 2;
#X obj 85 441 comport 1 9600;
#X msg 366 375 close;
#X text 161 350 new line in ascii = end of message;
#X obj 99 116 vsl 15 128 0 15 0 0 empty empty empty 0 -9 0 10 -262144
-1 -1 12700 1;
#X obj 103 -7 tgl 15 0 empty empty empty 17 7 0 10 -262144 -1 -1 1
1;
#X obj 101 49 counter 2 0 15;
#X obj 98 68 * 3;
#X obj 98 88 + 0;
#X msg 228 306 baud 115200;
#X msg 238 325 baud 9600;
#X obj 299 93 hsl 128 15 0 255 0 0 empty empty empty -2 -6 0 8 -262144
-1 -1 0 1;
#X obj 305 117 % 255;
#X floatatom 343 134 5 0 0 0 - - -;
#X obj 306 156 key;
#X obj 334 173 sel 0;
#X floatatom 413 190 4 0 0 0 ascii - -;
#X msg 407 219 13;
#X text 301 250 send a list of bytes:;
#X text 369 219 <CR>:;
#X text 176 155 or from the terminal:;
#X obj 18 346 print;
#X floatatom 143 173 5 0 0 0 - - -;
#X obj 14 381 tgl 15 0 empty empty empty 17 7 0 10 -262144 -1 -1 0
1;
#X obj 14 410 metro 10;
#X obj 102 16 metro 100;
#X obj 191 227 spell;
#X obj 77 372 Append 10;
#X obj 75 333 float2ascii;
#X obj 107 278 ascii2int;
#X msg 435 254 48 49 50 51 52 56;
#X connect 0 0 3 0;
#X connect 1 0 3 0;
#X connect 2 0 3 0;
#X connect 4 0 3 0;
#X connect 7 0 27 0;
#X connect 8 0 9 0;
#X connect 9 0 10 0;
#X connect 10 0 6 0;
#X connect 11 0 3 0;
#X connect 12 0 3 0;
#X connect 13 0 14 0;
#X connect 14 0 15 0;
#X connect 16 0 17 0;
#X connect 17 1 18 0;
#X connect 25 0 26 0;
#X connect 26 0 3 0;
#X connect 27 0 8 0;
#X connect 27 0 24 0;
#X connect 29 0 3 0;
#X connect 29 0 23 0;
#X connect 30 0 29 0;
#X connect 31 0 23 0;
#X connect 32 0 3 0;
