#N canvas 29 217 1187 747 10;
#X obj 17 96 s PTCHl_PAR_A1;
#X obj 179 126 s PTCHl_PAR_A2;
#X obj 314 91 s PTCHl_PAR_A3;
#X obj 461 89 s PTCHl_PAR_A4;
#X obj 609 87 s PTCH1_PAR_A5;
#X obj 17 8 r PTCH1_CTRL_LIST;
#X obj 17 30 unpack f f f f f, f 85;
#X obj 259 641 throw~ ch1;
#X obj 65 641 throw~ ch1pre;
#X text 166 585 lowcut;
#X text 327 255 all the hard work;
#X text 688 212 The creation arguments (level \, liveness \, crossover
frequency \, HF damping) may also be supplied in four inlets as shown.
The "liveness" (actually the internal feedback percentage) should be
100 for infinite reverb \, 90 for longish \, and 80 for short. The
crossover frequency and HF damping work together: at frequencies above
crossover \, the feedback is diminished by the "damping" as a percentage.
So zero HF damping means equal reverb time at all frequencies \, and
100% damping means almost nothing above the crossover frequency gets
through.;
#X text 614 172 HF damping \, percent;
#X text 149 9 CTRL INPUTS;
#X text 193 644 OUTPUTS:;
#X text 486 171 crossover freq \, Hz;
#X floatatom 280 474 5 0 1 0 - patch1level -, f 5;
#X obj 280 525 pow 2;
#X obj 280 549 sig~;
#X obj 280 573 lop~ 10;
#X obj 369 571 switch~;
#X floatatom 362 546 2 0 0 0 - - -, f 2;
#X text 379 545 dsp;
#X obj 386 519 tgl 15 0 empty empty empty 17 7 0 10 -262144 -1 -1 1
1;
#X obj 386 490 oneARDinCOMPARE 0.1;
#X obj 102 579 hip~ 20;
#X obj 101 605 *~, f 26;
#X text 313 111 crossover freq \, Hz;
#X obj 488 192 r PTCHl_PAR_A3;
#X obj 617 191 r PTCHl_PAR_A4;
#X text 426 275 reverb;
#X text 138 142 q factor;
#X text 328 234 control amp from LDR;
#X obj 12 332 tgl 15 0 empty empty empty 17 7 0 10 -262144 -1 -1 0
1;
#X obj 12 405 print;
#X text 138 152 to clones;
#X obj 815 48 tgl 15 0 empty empty empty 17 7 0 10 -262144 -1 -1 0
1;
#X obj 815 18 r SHIFT_SND_CTRL;
#X obj 903 75 tgl 15 0 empty empty empty 17 7 0 10 -262144 -1 -1 0
1;
#X obj 807 97 s inverse_q_mapping;
#X text 773 115 change Q mapping of clone patch;
#X text 891 129 based on Ffreq;
#X text 462 107 HF damping \, percent;
#X text 619 115 level of signal in;
#X text 619 103 ext audio;
#N canvas 0 162 450 300 sound_inputs 0;
#X obj 46 277 outlet~;
#X obj 162 103 adc~ 1;
#X text 99 165 noise;
#X text 40 128 sound sources;
#X obj 179 153 round_zero 0.01;
#X text 186 174 make louder;
#X text 211 104 level of signal in;
#X text 158 82 ext audio;
#X obj 179 129 r PTCH1_PAR_A5;
#X obj 179 197 sig~;
#X obj 179 221 lop~ 10;
#X obj 162 243 *~;
#X floatatom 245 209 5 0 0 0 - - -, f 5;
#X obj 59 194 else/brown~;
#X obj 45 171 noise~;
#X obj 46 244 *~ 0.1;
#X connect 1 0 11 0;
#X connect 4 0 9 0;
#X connect 4 0 12 0;
#X connect 8 0 4 0;
#X connect 9 0 10 0;
#X connect 10 0 11 1;
#X connect 11 0 0 0;
#X connect 13 0 15 0;
#X connect 14 0 15 0;
#X connect 15 0 0 0;
#X restore 100 192 pd sound_inputs;
#X obj 12 378 speedlim 10;
#X obj 144 105 s q_factor;
#X obj 287 192 r LDRS_INV_10_SMT_list;
#X obj 193 361 cyclone/atan~, f 17;
#X obj 287 214 listfunnel;
#X obj 12 352 cyclone/gate;
#X obj 14 306 print;
#X obj 14 284 spigot;
#X obj 53 263 tgl 15 0 empty empty empty 17 7 0 10 -262144 -1 -1 0
1;
#X obj 165 55 * 5000;
#X obj 173 81 + 1;
#X obj 314 51 * 10000;
#X obj 461 50 * 100;
#X obj 609 52 * 5, f 17;
#X msg 124 223 vis 31 1;
#X obj 127 295 rev2~ 95 90 2000 10, f 74;
#X obj 314 70 + 500;
#X obj 101 529 *~;
#X obj 192 529 *~;
#X text 42 528 dry sig;
#X text 220 529 wet sig;
#X obj 119 440 sig~ 1;
#X obj 119 479 -~;
#X obj 210 441 sig~;
#X text 249 442 convert to signal;
#X obj 759 383 r PTCHl_PAR_A1;
#X floatatom 785 407 5 0 0 0 - - -, f 5;
#X text 19 119 dry/wet contrl;
#X text 763 361 dry/wet contrl;
#X obj 836 43 1_ARD_DIG_BTN 2;
#X obj 101 255 clone 1_BP_FLT_FB_314 32 24;
#X connect 5 0 6 0;
#X connect 6 0 0 0;
#X connect 6 0 53 0;
#X connect 6 1 55 0;
#X connect 6 2 57 0;
#X connect 6 3 58 0;
#X connect 6 4 59 0;
#X connect 16 0 17 0;
#X connect 16 0 24 0;
#X connect 17 0 18 0;
#X connect 18 0 19 0;
#X connect 19 0 26 1;
#X connect 21 0 20 0;
#X connect 23 0 20 0;
#X connect 24 0 23 0;
#X connect 25 0 26 0;
#X connect 26 0 7 0;
#X connect 26 0 8 0;
#X connect 28 0 61 3;
#X connect 29 0 61 4;
#X connect 33 0 51 0;
#X connect 37 0 36 0;
#X connect 37 0 75 0;
#X connect 38 0 39 0;
#X connect 45 0 76 0;
#X connect 46 0 34 0;
#X connect 48 0 50 0;
#X connect 49 0 64 0;
#X connect 50 0 76 1;
#X connect 51 0 46 0;
#X connect 53 0 52 0;
#X connect 54 0 53 1;
#X connect 55 0 56 0;
#X connect 56 0 1 0;
#X connect 56 0 47 0;
#X connect 57 0 62 0;
#X connect 58 0 3 0;
#X connect 59 0 4 0;
#X connect 60 0 76 1;
#X connect 61 0 49 0;
#X connect 61 1 49 0;
#X connect 61 2 49 0;
#X connect 62 0 2 0;
#X connect 63 0 25 0;
#X connect 64 0 25 0;
#X connect 67 0 68 0;
#X connect 68 0 63 1;
#X connect 69 0 68 1;
#X connect 69 0 64 1;
#X connect 71 0 72 0;
#X connect 71 0 69 0;
#X connect 75 1 38 0;
#X connect 76 0 61 0;
#X connect 76 0 63 0;
