#N canvas 507 280 840 614 10;
#X obj 173 63 inlet;
#X floatatom 287 119 5 0 0 0 - - -, f 5;
#X obj 13 333 *~ 0.99;
#X obj 332 120 f \$1;
#X obj 333 142 mtof;
#X obj 332 87 loadbang;
#X text 13 380 audio out;
#X obj 232 382 outlet;
#X text 232 400 center frequency;
#X obj 313 88 bng 15 250 50 0 empty empty empty 17 7 0 10 -262144 -1
-1;
#X obj 13 62 inlet~;
#X floatatom 493 167 5 0 0 0 - - -, f 5;
#X obj 13 302 hip~ 15;
#X text 569 207 center freq = 60;
#X floatatom 530 208 5 0 0 0 - - -, f 5;
#X obj 493 188 ftom;
#X floatatom 530 243 5 0 0 0 - - -, f 5;
#X floatatom 536 84 5 0 0 0 - - -, f 5;
#X obj 536 114 mtof;
#X obj 493 208 / 60;
#X obj 493 238 * 50;
#X floatatom 358 324 5 0 0 0 - - -, f 5;
#X text 247 485 Q ZMIENIALO SIE Z CZESTOTLIWOSCIA? \, IM WYZSZA TYM
WIEKSZE Q;
#X text 363 395 Q for this patch;
#X obj 358 372 outlet;
#X obj 13 364 outlet~;
#X text 16 31 audio in;
#X floatatom 207 108 5 0 0 0 - - -, f 5;
#X floatatom 187 227 5 0 0 0 - - -, f 5;
#X obj 13 272 cyclone/reson~ 1 100 50, f 69;
#X text 344 248 FREQ;
#X text 503 257 Q;
#X text 178 252 GAIN;
#X text 87 31 sensor VALUE to ctrl gain;
#X text 370 144 filtra freq from creation argument \$1;
#X floatatom 346 166 5 0 0 0 - - -, f 5;
#X text 384 30 ARGUMENT TO ABSTRACTION \$1 = FILTER FREQUENCY IN MIDI!
;
#X obj 173 196 * 100;
#X connect 0 0 27 0;
#X connect 0 0 37 0;
#X connect 1 0 4 0;
#X connect 2 0 25 0;
#X connect 3 0 4 0;
#X connect 4 0 7 0;
#X connect 4 0 11 0;
#X connect 4 0 29 2;
#X connect 4 0 35 0;
#X connect 5 0 3 0;
#X connect 9 0 3 0;
#X connect 10 0 29 0;
#X connect 11 0 15 0;
#X connect 12 0 2 0;
#X connect 15 0 14 0;
#X connect 15 0 19 0;
#X connect 17 0 18 0;
#X connect 18 0 15 0;
#X connect 19 0 16 0;
#X connect 19 0 20 0;
#X connect 20 0 21 0;
#X connect 20 0 29 3;
#X connect 21 0 24 0;
#X connect 29 0 12 0;
#X connect 37 0 28 0;
#X connect 37 0 29 1;
