#N canvas 619 34 648 323 10;
#X obj -224 151 bng 15 250 50 0 empty empty empty 17 7 0 10 -262144
-1 -1;
#X floatatom -76 153 5 0 0 0 - - -;
#X obj -113 174 mtof;
#X floatatom -78 175 5 0 0 0 - - -;
#X floatatom -37 188 5 0 0 0 - - -;
#X obj -37 214 + 1;
#X text -3 194 Q;
#X text -114 111 freq;
#X obj -121 233 *~;
#X obj -120 265 *~;
#X floatatom 19 200 5 0 100 0 - - -;
#X obj -120 297 dac~;
#X msg -132 75 \; impulse 0 1 0 0 0 0 0 0 0 0;
#X obj -20 38 table impulse 10;
#X obj -221 172 tabplay~ impulse;
#X floatatom 18 246 5 0 0 0 - - -;
#X text -208 148 impulse;
#X obj -227 9 loadbang;
#X msg -131 37 100;
#X msg -168 36 36;
#X obj -223 36 del 500;
#X obj -170 10 t b b b b;
#X msg -99 37 80;
#X obj -121 207 bp~;
#X obj 19 220 / 100;
#X msg -62 38 1;
#X obj -214 71 tgl 15 0 empty empty empty 17 7 0 10 -262144 -1 -1 1
1;
#X obj -210 113 t b b;
#X obj -112 129 random 48;
#X obj -112 152 + 24;
#X obj -212 92 metro 500;
#X text 85 15 higher picz last szorter;
#X text 86 31 q = f / bandwidth;
#X text 63 68 useful filter settings on bpass q of 17 - poltonowy filter
q of 4 - third octave filter q of 100 - speed of fluctuation gts around
4 hz at 440 centre freq q of 1 = 1 octave band width for white noise
making an impulse - make a table with 1 points - 1 sample will be 1
the rest 0 q describes the amount if times that filter rings before
dying out;
#X connect 0 0 14 0;
#X connect 1 0 2 0;
#X connect 2 0 3 0;
#X connect 2 0 23 1;
#X connect 4 0 5 0;
#X connect 4 0 23 2;
#X connect 5 0 8 1;
#X connect 8 0 9 0;
#X connect 9 0 11 0;
#X connect 9 0 11 1;
#X connect 10 0 24 0;
#X connect 14 0 23 0;
#X connect 17 0 21 0;
#X connect 18 0 4 0;
#X connect 19 0 1 0;
#X connect 20 0 0 0;
#X connect 21 0 20 0;
#X connect 21 1 19 0;
#X connect 21 1 25 0;
#X connect 21 2 18 0;
#X connect 21 3 22 0;
#X connect 21 3 12 0;
#X connect 22 0 10 0;
#X connect 23 0 8 0;
#X connect 24 0 9 1;
#X connect 24 0 15 0;
#X connect 25 0 26 0;
#X connect 26 0 30 0;
#X connect 27 0 0 0;
#X connect 27 1 28 0;
#X connect 28 0 29 0;
#X connect 29 0 1 0;
#X connect 30 0 27 0;
