#N canvas 175 22 798 585 10;
#X obj -27 -93 metro;
#X obj -27 -64 bng 15 250 50 0 empty empty empty 17 7 0 10 -262144
-1 -1;
#X msg 33 11 255;
#X msg 3 12 3;
#X obj -27 -43 t b b b;
#X obj -27 -16 del 500;
#X msg -26 11 0;
#X floatatom 101 -36 5 1 1000 0 - - -;
#X obj 100 -154 loadbang;
#X msg 101 -134 100;
#X text 22 -15 after how long led will turn off;
#X obj 109 -88 * 1000;
#X obj 109 -65 + 10;
#X obj 64 -371 i;
#X obj 109 -351 r MANUALmetroONoff;
#X obj -27 -181 gate;
#X obj -109 -364 tgl 15 0 empty empty empty 17 7 0 10 -262144 -1 -1
1 1;
#X msg -76 -392 0;
#X msg -109 -392 1;
#X obj 109 -109 r LEDdelFACTOR;
#X obj -109 -412 sel \$1;
#X obj -109 -433 inlet;
#X text -421 -474 start metro;
#X text -445 -461 based on external in;
#X text -447 -446 1=start 0 = stop;
#X obj -176 -432 inlet;
#X obj 63 -393 inlet;
#X text -109 -467 which metro conotrlling???;
#X text -113 -525 arguments to abstraction: \$1 which metro are we
contorlling (1-16);
#X text 63 -410 tempo of this metro;
#X obj -26 35 OneLedClear \$2;
#X text -111 -497 \$2 - which led are we switching on of 1-16;
#X obj -101 35 outlet;
#X text -93 12 bang;
#X text -508 -223 switch on manual contorl of this metro!!!;
#X text -65 -511 switch on manual contorl of this metro!!!;
#X obj -175 -381 tgl 15 0 empty empty empty 17 7 0 10 -262144 -1 -1
1 1;
#X floatatom 92 -372 5 0 0 0 - - -;
#X obj -125 -296 &&;
#X obj -125 -262 tgl 15 0 empty empty empty 17 7 0 10 -262144 -1 -1
1 1;
#X obj -109 -324 t b f;
#X obj -220 -432 inlet;
#X obj -220 -404 tgl 15 0 empty empty empty 17 7 0 10 -262144 -1 -1
1 1;
#X obj -220 -296 &&;
#X obj -210 -323 t b f;
#X obj -220 -263 tgl 15 0 empty empty empty 17 7 0 10 -262144 -1 -1
1 1;
#X text -256 -454 main pacz=5;
#X text -185 -454 subpacz=2;
#X obj -168 -263 t b f;
#X obj -168 -238 &&;
#X obj -168 -209 tgl 15 0 empty empty empty 17 7 0 10 -262144 -1 -1
1 1;
#X text -505 -522 poprawic jeszcze tlko pamiec z subpacza tak jak w
4poly mode;
#X text -510 -211 jak te wszystkie warunki sa spelnione to mozemy sterowac
wybrane metro - on/off + tempo;
#X text -112 -455 input from gate \$1: 1-16;
#X text -490 -423 na starcie nic nie wysylamy;
#X text -504 -422 0;
#X text -505 -404 1 if main seq patch is selected first toggle ON;
#X text -505 -384 2 if manual sub seq patch is selected second toggle
ON;
#X text -506 -363 3 if gate number \$1 opened - third toggle ON;
#X text 129 -372 metro ON/OFF;
#X obj 64 -273 pack f f;
#X msg -81 -124 1 5000;
#X obj 86 -297 tgl 15 0 empty empty empty 17 7 0 10 -262144 -1 -1 0
1;
#X obj 120 -319 tgl 15 0 empty empty empty 17 7 0 10 -262144 -1 -1
1 1;
#X floatatom 73 -350 5 0 0 0 - - -;
#X msg -27 -154 \$2 \$1;
#X obj 109 -297 t b f;
#X text -343 -49 fix the led output;
#X connect 0 0 1 0;
#X connect 0 0 32 0;
#X connect 1 0 4 0;
#X connect 2 0 30 1;
#X connect 3 0 30 0;
#X connect 4 0 5 0;
#X connect 4 1 3 0;
#X connect 4 2 2 0;
#X connect 5 0 6 0;
#X connect 6 0 30 1;
#X connect 7 0 5 1;
#X connect 8 0 9 0;
#X connect 9 0 7 0;
#X connect 11 0 12 0;
#X connect 12 0 7 0;
#X connect 13 0 60 0;
#X connect 14 0 62 0;
#X connect 14 0 66 0;
#X connect 15 0 65 0;
#X connect 16 0 40 0;
#X connect 17 0 16 0;
#X connect 18 0 16 0;
#X connect 19 0 11 0;
#X connect 20 0 18 0;
#X connect 20 1 17 0;
#X connect 21 0 20 0;
#X connect 25 0 36 0;
#X connect 26 0 13 0;
#X connect 26 0 37 0;
#X connect 36 0 44 0;
#X connect 36 0 38 0;
#X connect 38 0 39 0;
#X connect 38 0 48 0;
#X connect 40 0 38 0;
#X connect 40 1 38 1;
#X connect 41 0 42 0;
#X connect 42 0 43 0;
#X connect 43 0 45 0;
#X connect 43 0 49 0;
#X connect 44 0 43 0;
#X connect 44 1 43 1;
#X connect 48 0 49 0;
#X connect 48 1 49 1;
#X connect 49 0 50 0;
#X connect 49 0 15 0;
#X connect 60 0 15 1;
#X connect 61 0 0 0;
#X connect 63 0 66 0;
#X connect 64 0 60 0;
#X connect 65 0 0 0;
#X connect 66 0 60 0;
#X connect 66 1 60 1;
