#N canvas 131 56 711 531 24;
#X obj 19 160 cnv 15 550 75 empty empty empty 20 12 0 14 -101905 -66577
0;
#X floatatom 97 70 5 0 0 0 - - -, f 5;
#X floatatom 38 31 7 0 0 0 - - -, f 7;
#X floatatom 156 109 5 0 0 0 - - -, f 5;
#X text 164 69 Harmonicity ratio;
#X text 123 30 Carrier frequency in Hz;
#N canvas 564 152 647 533 simpleFM 0;
#X floatatom 186 131 5 0 0 0 - - -, f 5;
#X floatatom 44 49 7 0 0 0 - - -, f 7;
#X obj 104 235 *;
#X obj 186 168 t b f;
#X obj 282 269 *;
#X obj 282 225 t b f;
#X floatatom 281 192 5 0 0 0 - - -, f 5;
#X text 346 192 Modulation index;
#X text 252 129 Harmonicity ratio;
#X text 129 52 Carrier frequency in Hz;
#X obj 104 321 osc~;
#X obj 104 359 *~;
#X text 161 320 Modulating oscillator;
#X text 329 269 Calculate modulating amplitude;
#X obj 14 411 +~;
#X obj 14 447 osc~;
#X obj 44 12 inlet;
#X obj 186 93 inlet;
#X obj 281 158 inlet;
#X obj 14 490 outlet~;
#X text 65 404 In Frequency Modulation (FM) \, the *output* of one
oscillator is used to control the frequency of a second oscillator.
;
#X connect 0 0 3 0;
#X connect 1 0 2 0;
#X connect 1 0 14 1;
#X connect 2 0 4 0;
#X connect 2 0 10 0;
#X connect 3 0 2 0;
#X connect 3 1 2 1;
#X connect 4 0 11 1;
#X connect 5 0 4 0;
#X connect 5 1 4 1;
#X connect 6 0 5 0;
#X connect 10 0 11 0;
#X connect 11 0 14 0;
#X connect 14 0 15 0;
#X connect 15 0 19 0;
#X connect 16 0 1 0;
#X connect 17 0 0 0;
#X connect 18 0 6 0;
#X restore 38 182 pd simpleFM;
#X text 192 184 <--- Subpatch (click me to see inside);
#X obj 39 402 *~;
#X obj 72 274 hsl 128 15 0 127 0 0 empty empty empty -2 -8 0 10 -262144
-1 -1 0 1;
#X floatatom 69 297 5 0 0 0 - - -, f 5;
#X floatatom 69 367 5 0 0 0 - - -, f 5;
#X obj 16 441 dac~;
#X text 210 272 Volume gain control;
#X text 208 295 (Initially set to zero);
#X obj 69 332 / 1270;
#X text 218 108 Modulation amplitude/index;
#X text 162 431 (C) Louisiana State University;
#X text 166 462 Edgar Berdahl \, 2014;
#X connect 1 0 6 1;
#X connect 2 0 6 0;
#X connect 3 0 6 2;
#X connect 6 0 8 0;
#X connect 8 0 12 0;
#X connect 8 0 12 1;
#X connect 9 0 10 0;
#X connect 10 0 15 0;
#X connect 11 0 8 1;
#X connect 15 0 11 0;
