#N canvas 21 157 769 560 10;
#X obj 133 493 outlet;
#X text 12 175 offset the start;
#X obj 133 301 *, f 19;
#X obj 133 369 <, f 53;
#X obj 133 413 sel 1;
#X obj 133 438 bng 15 250 50 0 empty empty empty 17 7 0 10 -262144
-1 -1;
#X text 87 436 notes;
#X obj 166 439 bng 15 250 50 0 empty empty empty 17 7 0 10 -262144
-1 -1;
#X text 184 438 rests;
#X obj 133 130 t f f, f 9;
#X obj 133 459 f, f 9;
#X text 204 460 store the step number;
#X text 148 110 step number;
#X floatatom 561 346 5 0 16 0 - - -, f 5;
#X text 602 363 hits;
#X floatatom 344 82 5 0 0 0 - - -, f 5;
#X floatatom 422 57 5 0 0 0 - - -, f 5;
#X obj 110 32 bng 15 250 50 0 empty empty empty 17 7 0 10 -262144 -1
-1;
#X obj 561 483 outlet;
#X obj 561 34 inlet;
#X floatatom 561 261 5 0 0 0 - - -, f 5;
#X text 574 238 set steps manually;
#X obj 203 31 r SEQ_MODE3_change, f 8;
#X obj 133 31 r SEQ_MODE3_CLOCK, f 8;
#X obj 330 32 r SEQ3_MODE_RNDM_MAX, f 9;
#X floatatom 605 261 5 0 0 0 - - -, f 5;
#X obj 582 163 bng 15 250 50 0 empty empty empty 17 7 0 10 -262144
-1 -1;
#X obj 133 176 + \$1;
#X text 602 344 number of hits;
#X text 18 224 arguments;
#X text 3 249 \$1 - seq offset;
#X text 3 269 \$2 - random max;
#X text 3 287 \$3 rndm low boundry;
#X obj 133 345 % \$4, f 31;
#X text 4 312 \$4 euclid modulo;
#X text 5 338 \$5 set steps bu hand;
#X text 613 199 \$5 set steps bu hand;
#X text 361 347 \$4 euclid modulo;
#X text 367 160 \$3 rndm low boundry;
#X text 306 102 \$2 - random max;
#X text 169 175 \$1 - seq offset;
#X obj 407 33 r SEQ_MOODE3_RNDM_LOW;
#X obj 233 220 random, f 10;
#X obj 617 107 i \$3;
#X obj 300 159 +, f 9;
#X obj 608 33 loadbang;
#X msg 643 75 2;
#X obj 609 54 t b b;
#X obj 266 28 loadbang;
#X msg 296 78 2;
#X obj 267 49 t b b;
#X obj 270 100 i \$2;
#X obj 580 200 i \$5;
#X floatatom 317 197 5 0 0 0 - - -, f 5;
#X floatatom 210 261 5 0 0 0 - - -, f 5;
#X connect 2 0 13 0;
#X connect 2 0 33 0;
#X connect 3 0 4 0;
#X connect 4 0 5 0;
#X connect 4 1 7 0;
#X connect 5 0 10 0;
#X connect 9 0 27 0;
#X connect 9 1 10 1;
#X connect 10 0 0 0;
#X connect 13 0 18 0;
#X connect 17 0 9 0;
#X connect 19 0 20 0;
#X connect 20 0 2 1;
#X connect 20 0 13 0;
#X connect 20 0 3 1;
#X connect 22 0 42 0;
#X connect 23 0 9 0;
#X connect 24 0 15 0;
#X connect 24 0 44 0;
#X connect 26 0 52 0;
#X connect 27 0 2 0;
#X connect 33 0 3 0;
#X connect 41 0 16 0;
#X connect 41 0 44 1;
#X connect 42 0 3 1;
#X connect 42 0 2 1;
#X connect 42 0 54 0;
#X connect 43 0 44 1;
#X connect 44 0 42 1;
#X connect 44 0 53 0;
#X connect 45 0 47 0;
#X connect 45 0 26 0;
#X connect 46 0 43 1;
#X connect 47 0 43 0;
#X connect 47 1 46 0;
#X connect 48 0 50 0;
#X connect 49 0 51 1;
#X connect 50 0 51 0;
#X connect 50 1 49 0;
#X connect 51 0 44 0;
#X connect 52 0 25 0;
#X connect 52 0 20 0;
