#N canvas 429 40 851 712 12;
#X text 338 146 spacing steps in sequance evenly;
#X text 331 175 [ 0 0 0 0 0 0 0 0 ];
#X text 332 196 [ 1 1 1 0 0 0 0 0 ];
#X text 332 218 [ 1 0 1 0 1 0 0 0 ];
#X text 333 241 [ 1 0 0 1 0 0 1 0 ];
#X text 479 242 most evenly spaced;
#X text 337 263 how do we do it with an algorhitms?;
#X obj 123 92 metro 200;
#X obj 123 63 tgl 15 0 empty empty empty 17 7 0 10 -262144 -1 -1 1
1;
#X obj 124 120 f;
#X obj 159 120 + 1;
#X obj 75 92 == 0;
#X obj 124 168 % 16;
#X floatatom 79 372 5 0 16 0 - - -;
#X text 94 397 number of hits we want;
#X obj 19 577 *~;
#X obj 19 608 dac~;
#X obj 87 553 vline~;
#X obj 273 566 *~;
#X obj 273 593 dac~;
#N canvas 0 23 450 300 bpm_to_MS 1;
#X obj 61 20 inlet;
#X obj 76 246 outlet;
#X text 111 56 BPM to MS Equation: The equation is 60 \, 0 / BPM =
MS;
#X text 158 185 whole note;
#X text 162 209 quarter note;
#X text 227 80 MS * BPM = 60000;
#X text 225 99 BPM = 60000 / MS;
#X floatatom 76 185 10 0 0 0 - - -;
#X floatatom 61 61 5 0 0 0 - - -;
#X obj 76 159 /;
#X msg 43 118 60000;
#X obj 62 85 t b f;
#X obj 76 211 / 4;
#X connect 0 0 8 0;
#X connect 7 0 12 0;
#X connect 8 0 11 0;
#X connect 9 0 7 0;
#X connect 10 0 9 0;
#X connect 11 0 10 0;
#X connect 11 1 9 1;
#X connect 12 0 1 0;
#X restore 183 33 pd bpm_to_MS;
#X floatatom 205 60 5 0 0 0 - - -;
#X floatatom 183 9 5 0 0 0 - - -;
#X msg 334 63 \; pd dsp \$1;
#X obj 335 42 tgl 15 0 empty empty empty 17 7 0 10 -262144 -1 -1 1
1;
#X obj 19 427 hradio 15 1 0 16 empty empty empty 0 -8 0 10 -262144
-1 -1 2;
#X text 191 118 reset count when metro start;
#X obj 272 428 hradio 15 1 0 16 empty empty empty 0 -8 0 10 -262144
-1 -1 0;
#N canvas 0 22 419 411 euclid 0;
#X obj 57 25 inlet;
#X obj 72 336 outlet;
#X obj 159 24 inlet;
#X floatatom 159 92 5 0 0 0 - - -;
#X obj 46 119 + 0;
#X text -75 118 offset the start;
#X obj 46 144 *;
#X obj 46 168 % 16;
#X obj 46 192 <;
#X obj 46 216 sel 1;
#X obj 46 251 bng 15 250 50 0 empty empty empty 17 7 0 10 -262144 -1
-1;
#X text 6 248 notes;
#X obj 78 252 bng 15 250 50 0 empty empty empty 17 7 0 10 -262144 -1
-1;
#X text 97 250 rests;
#X obj 56 89 t f f;
#X obj 72 302 f;
#X text 100 302 store the step number;
#X text -42 86 step number;
#X text 163 117 number of hits we want;
#X connect 0 0 14 0;
#X connect 2 0 3 0;
#X connect 2 0 6 1;
#X connect 2 0 8 1;
#X connect 4 0 6 0;
#X connect 6 0 7 0;
#X connect 7 0 8 0;
#X connect 8 0 9 0;
#X connect 9 0 10 0;
#X connect 9 1 12 0;
#X connect 10 0 15 0;
#X connect 14 0 4 0;
#X connect 14 1 15 1;
#X connect 15 0 1 0;
#X restore 19 399 pd euclid;
#X floatatom 149 145 5 0 0 0 - - -;
#N canvas 0 22 419 411 euclid 0;
#X obj 57 25 inlet;
#X obj 72 336 outlet;
#X obj 159 24 inlet;
#X floatatom 159 92 5 0 0 0 - - -;
#X obj 46 119 + 0;
#X text -75 118 offset the start;
#X obj 46 144 *;
#X obj 46 168 % 16;
#X obj 46 192 <;
#X obj 46 216 sel 1;
#X obj 46 251 bng 15 250 50 0 empty empty empty 17 7 0 10 -262144 -1
-1;
#X text 6 248 notes;
#X obj 78 252 bng 15 250 50 0 empty empty empty 17 7 0 10 -262144 -1
-1;
#X text 97 250 rests;
#X obj 56 89 t f f;
#X obj 72 302 f;
#X text 100 302 store the step number;
#X text -42 86 step number;
#X text 163 117 number of hits we want;
#X connect 0 0 14 0;
#X connect 2 0 3 0;
#X connect 2 0 6 1;
#X connect 2 0 8 1;
#X connect 4 0 6 0;
#X connect 6 0 7 0;
#X connect 7 0 8 0;
#X connect 8 0 9 0;
#X connect 9 0 10 0;
#X connect 9 1 12 0;
#X connect 10 0 15 0;
#X connect 14 0 4 0;
#X connect 14 1 15 1;
#X connect 15 0 1 0;
#X restore 272 404 pd euclid;
#X obj 124 244 sel 1;
#X obj 79 347 random 16;
#X obj 124 217 == 15;
#X obj 19 318 r clock;
#X obj 180 217 s clock;
#X obj 124 193 t f f;
#X obj 272 328 r clock;
#X obj 124 271 s change;
#X obj 96 272 bng 15 250 50 0 empty empty empty 17 7 0 10 -262144 -1
-1;
#X obj 79 318 r change;
#X floatatom 332 381 5 0 16 0 - - -;
#X obj 332 356 random 16;
#X obj 332 327 r change;
#X obj 522 425 hradio 15 1 0 16 empty empty empty 0 -8 0 10 -262144
-1 -1 2;
#N canvas 0 22 419 411 euclid 0;
#X obj 57 25 inlet;
#X obj 72 336 outlet;
#X obj 159 24 inlet;
#X floatatom 159 92 5 0 0 0 - - -;
#X obj 46 119 + 0;
#X text -75 118 offset the start;
#X obj 46 144 *;
#X obj 46 168 % 16;
#X obj 46 192 <;
#X obj 46 216 sel 1;
#X obj 46 251 bng 15 250 50 0 empty empty empty 17 7 0 10 -262144 -1
-1;
#X text 6 248 notes;
#X obj 78 252 bng 15 250 50 0 empty empty empty 17 7 0 10 -262144 -1
-1;
#X text 97 250 rests;
#X obj 56 89 t f f;
#X obj 72 302 f;
#X text 100 302 store the step number;
#X text -42 86 step number;
#X text 163 117 number of hits we want;
#X connect 0 0 14 0;
#X connect 2 0 3 0;
#X connect 2 0 6 1;
#X connect 2 0 8 1;
#X connect 4 0 6 0;
#X connect 6 0 7 0;
#X connect 7 0 8 0;
#X connect 8 0 9 0;
#X connect 9 0 10 0;
#X connect 9 1 12 0;
#X connect 10 0 15 0;
#X connect 14 0 4 0;
#X connect 14 1 15 1;
#X connect 15 0 1 0;
#X restore 522 401 pd euclid;
#X obj 522 325 r clock;
#X floatatom 582 378 5 0 16 0 - - -;
#X text 629 381 number of hits we want;
#X obj 582 353 random 16;
#X obj 582 324 r change;
#X text 379 384 number of hits;
#X obj 205 83 s dur;
#X obj 104 482 r dur;
#X obj 86 506 f;
#X obj 19 470 t f b;
#X obj 19 522 mtof;
#X obj 273 539 vline~;
#X obj 290 458 r dur;
#X msg 272 506 0.5 10 \, 0 \$1 10;
#X obj 272 482 f;
#X obj 522 573 *~;
#X obj 522 604 dac~;
#X obj 589 544 vline~;
#X obj 606 463 r dur;
#X msg 588 521 0.5 10 \, 0 \$1 10;
#X obj 588 497 f;
#X obj 522 466 t f b;
#X obj 522 514 mtof;
#X obj 522 542 osc~ 660;
#X obj 522 491 + 72;
#X obj 354 539 noise~ 440;
#X obj 19 549 osc~ 220;
#X obj 19 495 + 12;
#X msg 86 530 2.5 1 \, 0 \$1 1;
#X connect 7 0 9 0;
#X connect 8 0 7 0;
#X connect 8 0 11 0;
#X connect 9 0 10 0;
#X connect 9 0 12 0;
#X connect 10 0 9 1;
#X connect 11 0 9 1;
#X connect 12 0 36 0;
#X connect 13 0 28 1;
#X connect 15 0 16 1;
#X connect 15 0 16 0;
#X connect 17 0 15 1;
#X connect 18 0 19 1;
#X connect 18 0 19 0;
#X connect 20 0 21 0;
#X connect 20 0 7 1;
#X connect 21 0 52 0;
#X connect 22 0 20 0;
#X connect 24 0 23 0;
#X connect 25 0 55 0;
#X connect 27 0 60 0;
#X connect 28 0 25 0;
#X connect 29 0 12 1;
#X connect 30 0 27 0;
#X connect 31 0 38 0;
#X connect 31 0 39 0;
#X connect 32 0 13 0;
#X connect 33 0 31 0;
#X connect 34 0 28 0;
#X connect 36 0 33 0;
#X connect 36 1 35 0;
#X connect 37 0 30 0;
#X connect 40 0 32 0;
#X connect 41 0 30 1;
#X connect 42 0 41 0;
#X connect 43 0 42 0;
#X connect 44 0 67 0;
#X connect 45 0 44 0;
#X connect 46 0 45 0;
#X connect 47 0 45 1;
#X connect 49 0 47 0;
#X connect 50 0 49 0;
#X connect 53 0 54 1;
#X connect 54 0 74 0;
#X connect 55 0 73 0;
#X connect 55 1 54 0;
#X connect 56 0 72 0;
#X connect 57 0 18 0;
#X connect 58 0 60 1;
#X connect 59 0 57 0;
#X connect 60 0 59 0;
#X connect 61 0 62 1;
#X connect 61 0 62 0;
#X connect 63 0 61 1;
#X connect 64 0 66 1;
#X connect 65 0 63 0;
#X connect 66 0 65 0;
#X connect 67 0 70 0;
#X connect 67 1 66 0;
#X connect 68 0 69 0;
#X connect 69 0 61 0;
#X connect 70 0 68 0;
#X connect 71 0 18 1;
#X connect 72 0 15 0;
#X connect 73 0 56 0;
#X connect 74 0 17 0;
