#N canvas 0 23 1275 752 12;
#X obj 60 33 tgl 15 0 empty empty empty 17 7 0 10 -4032 -1 -1 1 1;
#X msg 439 43 \; pd dsp \$1;
#X obj 439 15 tgl 25 0 empty empty empty 17 7 0 10 -258113 -1 -1 1
1;
#X obj 24 285 hradio 8 1 0 16 empty empty empty 0 -8 0 10 -262144 -1
-1 0;
#X obj 159 285 hradio 8 1 0 16 empty empty empty 0 -8 0 10 -262144
-1 -1 0;
#N canvas 525 244 526 420 euclid 0;
#X obj 90 24 inlet;
#X obj 152 339 outlet;
#X obj 126 122 + 0;
#X text 5 121 offset the start;
#X obj 126 147 *;
#X obj 126 171 % 16;
#X obj 126 195 <;
#X obj 126 219 sel 1;
#X obj 126 254 bng 15 250 50 0 empty empty empty 17 7 0 10 -262144
-1 -1;
#X text 86 251 notes;
#X obj 191 255 bng 15 250 50 0 empty empty empty 17 7 0 10 -262144
-1 -1;
#X text 210 253 rests;
#X obj 136 92 t f f;
#X obj 152 305 f;
#X text 180 305 store the step number;
#X text 38 89 step number;
#X text 332 218 number of hits we want;
#X floatatom 317 239 5 0 16 0 - - -;
#X obj 197 70 random 16;
#X obj 136 23 r clock;
#X obj 197 21 r change;
#X text 324 261 hits;
#X obj 197 112 + 1;
#X obj 263 21 r hits_max;
#X obj 351 22 r hits_min;
#X floatatom 271 45 5 0 0 0 - - -;
#X floatatom 366 46 5 0 0 0 - - -;
#X obj 151 49 bng 15 250 50 0 empty empty empty 17 7 0 10 -262144 -1
-1;
#X obj 318 336 outlet;
#X obj 444 25 inlet;
#X floatatom 445 56 5 0 0 0 - - -;
#X text 357 106 set steps manually;
#X connect 0 0 12 0;
#X connect 2 0 4 0;
#X connect 4 0 5 0;
#X connect 5 0 6 0;
#X connect 6 0 7 0;
#X connect 7 0 8 0;
#X connect 7 1 10 0;
#X connect 8 0 13 0;
#X connect 12 0 2 0;
#X connect 12 1 13 1;
#X connect 13 0 1 0;
#X connect 17 0 28 0;
#X connect 18 0 22 0;
#X connect 19 0 12 0;
#X connect 20 0 18 0;
#X connect 22 0 17 0;
#X connect 22 0 6 1;
#X connect 22 0 4 1;
#X connect 23 0 25 0;
#X connect 23 0 18 1;
#X connect 24 0 26 0;
#X connect 24 0 22 1;
#X connect 27 0 12 0;
#X connect 29 0 30 0;
#X connect 29 0 4 1;
#X connect 29 0 6 1;
#X connect 29 0 17 0;
#X restore 24 235 pd euclid;
#X obj 294 286 hradio 8 1 0 16 empty empty empty 0 -8 0 10 -262144
-1 -1 0;
#N canvas 6 23 878 574 kick 0;
#X obj 149 25 inlet;
#X obj 381 413 *~;
#X obj 206 306 vline~;
#X obj 199 26 r dur;
#X obj 148 63 f;
#X obj 188 492 throw~ kik;
#X obj 206 339 *~;
#X msg 206 277 1 10 0 \, 0 \$1 10;
#X obj 473 329 pink~;
#X obj 381 283 vline~;
#X obj 381 316 *~;
#X msg 380 260 1 10 0 \, 0 \$1 10;
#X obj 188 384 *~;
#X obj 188 461 +~;
#X obj 19 265 curve~;
#X obj 19 296 osc~ 60;
#X obj 473 353 *~ 0.99;
#X obj 539 178 / 100;
#X obj 510 152 bng 15 250 50 0 empty empty empty 17 7 0 10 -262144
-1 -1;
#X obj 473 379 bp~ 120 0.5;
#X obj 561 347 - 0.5;
#X obj 148 89 t f f f b;
#X obj 539 153 drunk 100 10;
#X floatatom 553 208 5 0 0 0 - - -;
#X obj 539 55 r clock;
#X floatatom 606 83 5 0 0 0 - - -;
#X obj 539 85 == 0;
#X obj 590 119 tgl 15 0 empty empty empty 17 7 0 10 -262144 -1 -1 0
1;
#X obj 539 117 sel 1;
#X obj 510 243 f;
#X floatatom 561 266 5 0 0 0 - - -;
#X obj 512 113 bng 15 250 50 0 empty empty empty 17 7 0 10 -262144
-1 -1;
#X obj 547 241 * 0.75;
#X text 485 29 choose new q at start of seq;
#X text 598 241 lower q on subsequent step;
#X text 608 269 makes it brighter;
#X obj 380 234 * 3;
#X obj 188 413 *~ 0.99;
#X obj 206 246 * 2;
#X msg 20 241 300 10 -0.5 60 \$1 -0.9;
#X connect 0 0 4 0;
#X connect 1 0 13 1;
#X connect 2 0 6 0;
#X connect 2 0 6 1;
#X connect 3 0 4 1;
#X connect 4 0 21 0;
#X connect 6 0 12 1;
#X connect 7 0 2 0;
#X connect 8 0 16 0;
#X connect 9 0 10 0;
#X connect 9 0 10 1;
#X connect 10 0 1 0;
#X connect 11 0 9 0;
#X connect 12 0 37 0;
#X connect 13 0 5 0;
#X connect 14 0 15 0;
#X connect 15 0 12 0;
#X connect 16 0 19 0;
#X connect 17 0 23 0;
#X connect 17 0 29 1;
#X connect 18 0 29 0;
#X connect 19 0 1 1;
#X connect 20 0 19 2;
#X connect 21 0 39 0;
#X connect 21 1 38 0;
#X connect 21 2 36 0;
#X connect 21 3 18 0;
#X connect 22 0 17 0;
#X connect 24 0 25 0;
#X connect 24 0 26 0;
#X connect 26 0 27 0;
#X connect 26 0 28 0;
#X connect 28 0 22 0;
#X connect 29 0 32 0;
#X connect 31 0 22 0;
#X connect 32 0 30 0;
#X connect 32 0 19 2;
#X connect 32 0 29 1;
#X connect 36 0 11 0;
#X connect 37 0 13 0;
#X connect 38 0 7 0;
#X connect 39 0 14 0;
#X restore 56 321 pd kick;
#X obj 24 297 t b b;
#X obj 22 618 catch~ kik;
#X obj 22 668 *~;
#X obj 40 646 tgl 15 0 empty empty empty 17 7 0 10 -262144 -1 -1 1
1;
#N canvas 68 23 461 550 snare 0;
#X obj 56 34 inlet;
#X obj 56 293 *~;
#X obj 56 176 vline~;
#X obj 104 35 r dur;
#X obj 56 62 f;
#X obj 56 363 throw~ snare;
#X msg 56 141 0.99 10 \, 0 \$1 10;
#X obj 56 215 *~;
#X obj 198 176 pink~;
#X obj 113 176 noise~;
#X obj 56 85 t f f f;
#X obj 113 206 *~ 0.75;
#X obj 71 324 rev3~ 85 90 1000 20;
#X floatatom 303 247 5 0 0 0 - - -;
#X obj 250 207 line;
#X obj 250 146 * 1;
#X floatatom 303 204 5 0 0 0 - - -;
#X obj 198 251 bp~ 350 0.3;
#X msg 250 174 1500 \, 350 \$1;
#X connect 0 0 4 0;
#X connect 1 0 5 0;
#X connect 1 0 12 0;
#X connect 2 0 7 0;
#X connect 2 0 7 1;
#X connect 3 0 4 1;
#X connect 4 0 10 0;
#X connect 6 0 2 0;
#X connect 7 0 1 0;
#X connect 8 0 17 0;
#X connect 9 0 11 0;
#X connect 10 0 6 0;
#X connect 10 1 15 0;
#X connect 11 0 17 0;
#X connect 12 0 5 0;
#X connect 12 1 5 0;
#X connect 14 0 13 0;
#X connect 14 0 17 1;
#X connect 15 0 18 0;
#X connect 16 0 17 2;
#X connect 17 0 1 1;
#X connect 18 0 14 0;
#X restore 191 322 pd snare;
#X obj 156 618 catch~ snare;
#X obj 156 667 *~;
#X obj 174 645 tgl 15 0 empty empty empty 17 7 0 10 -262144 -1 -1 1
1;
#X obj 572 721 dac~;
#X obj 159 298 t b b;
#X obj 293 667 *~;
#X obj 311 645 tgl 15 0 empty empty empty 17 7 0 10 -262144 -1 -1 0
1;
#X obj 294 299 t f b;
#X obj 431 286 hradio 8 1 0 16 empty empty empty 0 -8 0 10 -262144
-1 -1 0;
#X obj 565 286 hradio 8 1 0 16 empty empty empty 0 -8 0 10 -262144
-1 -1 0;
#X obj 700 286 hradio 8 1 0 16 empty empty empty 0 -8 0 10 -262144
-1 -1 0;
#X obj 431 299 t b b;
#X obj 565 299 t b b;
#X obj 700 299 t f b;
#X obj 837 286 hradio 8 1 0 16 empty empty empty 0 -8 0 10 -262144
-1 -1 0;
#X obj 973 286 hradio 8 1 0 16 empty empty empty 0 -8 0 10 -262144
-1 -1 0;
#X obj 837 300 t b b;
#X obj 973 300 t f b;
#X obj 24 375 spigot;
#X obj 63 356 tgl 15 0 empty empty empty 17 7 0 10 -203904 -1 -1 1
1;
#X obj 159 377 spigot;
#X obj 198 356 tgl 15 0 empty empty empty 17 7 0 10 -203904 -1 -1 1
1;
#X obj 294 376 spigot;
#X obj 333 356 tgl 15 0 empty empty empty 17 7 0 10 -203904 -1 -1 1
1;
#X obj 431 377 spigot;
#X obj 470 356 tgl 15 0 empty empty empty 17 7 0 10 -203904 -1 -1 1
1;
#X obj 565 375 spigot;
#X obj 604 356 tgl 15 0 empty empty empty 17 7 0 10 -203904 -1 -1 1
1;
#X obj 700 376 spigot;
#X obj 739 356 tgl 15 0 empty empty empty 17 7 0 10 -203904 -1 -1 1
1;
#X obj 837 376 spigot;
#X obj 876 356 tgl 15 0 empty empty empty 17 7 0 10 -203904 -1 -1 1
1;
#X obj 973 374 spigot;
#X obj 1012 356 tgl 15 0 empty empty empty 17 7 0 10 -203904 -1 -1
1 1;
#X obj 835 114 s midi_len;
#X floatatom 835 94 5 1 250 0 - - -;
#X text 50 259 hits;
#X obj 681 114 s hits_max;
#X obj 758 114 s hits_min;
#X floatatom 681 94 2 2 14 0 - - -;
#X floatatom 758 94 2 1 12 0 - - -;
#N canvas 0 23 450 300 euclidean_theory 0;
#X text 21 14 spacing steps in sequance evenly;
#X text 14 43 [ 0 0 0 0 0 0 0 0 ];
#X text 15 64 [ 1 1 1 0 0 0 0 0 ];
#X text 15 86 [ 1 0 1 0 1 0 0 0 ];
#X text 16 109 [ 1 0 0 1 0 0 1 0 ];
#X text 162 110 most evenly spaced;
#X text 20 131 how do we do it with an algorhitms?;
#X restore 1003 39 pd euclidean_theory;
#N canvas 608 190 575 400 seq 0;
#X obj 220 24 inlet;
#X obj 136 25 inlet;
#X obj 258 84 tgl 15 0 empty empty empty 17 7 0 10 -262144 -1 -1 0
1;
#X obj 78 164 f;
#X obj 113 164 + 1;
#X obj 258 144 == 0;
#X obj 78 230 % 16;
#N canvas 0 23 450 300 bpm_to_MS 0;
#X obj 61 20 inlet;
#X obj 76 246 outlet;
#X text 111 56 BPM to MS Equation: The equation is 60 \, 0 / BPM =
MS;
#X text 158 185 whole note;
#X text 158 247 quarter note;
#X text 227 80 MS * BPM = 60000;
#X text 225 99 BPM = 60000 / MS;
#X floatatom 76 185 10 0 0 0 - - -;
#X floatatom 62 61 5 0 0 0 - - -;
#X obj 76 159 /;
#X msg 43 118 60000;
#X obj 62 85 t b f;
#X obj 76 211 / 4;
#X obj 156 208 s hole_not;
#X connect 0 0 8 0;
#X connect 7 0 12 0;
#X connect 7 0 13 0;
#X connect 8 0 11 0;
#X connect 9 0 7 0;
#X connect 10 0 9 0;
#X connect 11 0 10 0;
#X connect 11 1 9 1;
#X connect 12 0 1 0;
#X restore 136 89 pd bpm_to_MS;
#X floatatom 152 124 5 0 0 0 - - -;
#X floatatom 91 56 5 0 0 0 - - -;
#X floatatom 103 207 5 0 0 0 - - -;
#X obj 78 306 sel 1;
#X obj 78 255 t f f;
#X obj 25 360 bng 15 250 50 0 empty empty empty 17 7 0 10 -262144 -1
-1;
#X obj 78 279 == 0;
#X text 296 144 when metro start;
#X text 294 127 reset count;
#X obj 49 361 outlet;
#X obj 157 328 outlet;
#X text 208 325 clock out;
#X text 94 369 at the beggining of sequence;
#X text 94 355 send bang to randomize steps amount;
#X text 196 121 dur;
#X obj 76 124 metro 200;
#X connect 0 0 5 0;
#X connect 0 0 23 0;
#X connect 1 0 9 0;
#X connect 1 0 7 0;
#X connect 2 0 5 0;
#X connect 2 0 23 0;
#X connect 3 0 4 0;
#X connect 3 0 6 0;
#X connect 4 0 3 1;
#X connect 5 0 3 1;
#X connect 6 0 12 0;
#X connect 7 0 8 0;
#X connect 7 0 23 1;
#X connect 10 0 6 1;
#X connect 11 0 13 0;
#X connect 11 0 17 0;
#X connect 12 0 14 0;
#X connect 12 1 18 0;
#X connect 14 0 11 0;
#X connect 23 0 3 0;
#X restore 21 132 pd seq;
#X text 80 33 START;
#X text 60 108 BPM;
#X obj 431 618 catch~ kik2;
#X obj 431 666 *~;
#X obj 449 644 tgl 15 0 empty empty empty 17 7 0 10 -262144 -1 -1 0
1;
#N canvas 697 107 583 470 snare2 0;
#X obj 25 32 inlet;
#X obj 48 243 *~;
#X obj 48 185 vline~;
#X obj 121 34 r dur;
#X obj 48 89 f;
#X obj 48 379 throw~ snare2;
#X obj 48 214 *~;
#X obj 261 99 pink~;
#X obj 194 98 noise~;
#X obj 194 128 *~ 0.75;
#X obj 68 329 rev3~ 85 90 1000 20;
#X floatatom 366 170 5 0 0 0 - - -;
#X obj 313 130 line;
#X obj 313 69 * 1;
#X floatatom 366 127 5 0 0 0 - - -;
#X msg 313 97 1500 \, 600 \$1;
#X obj 48 273 clip~ -1 1;
#X obj 25 57 t f b f;
#X obj 261 174 bp~ 1500 0.33;
#X obj 48 126 / 2;
#X msg 48 161 2.5 \, 0 \$1;
#X connect 0 0 17 0;
#X connect 1 0 16 0;
#X connect 2 0 6 0;
#X connect 2 0 6 1;
#X connect 3 0 4 1;
#X connect 4 0 19 0;
#X connect 6 0 1 0;
#X connect 7 0 18 0;
#X connect 8 0 9 0;
#X connect 9 0 18 0;
#X connect 10 0 5 0;
#X connect 10 1 5 0;
#X connect 12 0 11 0;
#X connect 12 0 18 1;
#X connect 13 0 15 0;
#X connect 14 0 18 2;
#X connect 15 0 12 0;
#X connect 16 0 5 0;
#X connect 16 0 10 0;
#X connect 17 1 4 0;
#X connect 17 2 13 0;
#X connect 18 0 1 1;
#X connect 19 0 20 0;
#X connect 20 0 2 0;
#X restore 597 323 pd snare2;
#N canvas 277 52 791 596 sinsynt2 0;
#X obj 243 473 *~;
#X obj 261 305 vline~;
#X obj 330 24 r dur;
#X obj 260 62 f;
#X obj 260 11 inlet;
#X obj 260 34 t b b;
#X obj 261 351 *~;
#X floatatom 280 231 5 0 0 0 - - -;
#X obj 243 554 throw~ sisynt2;
#X obj 16 365 expr~ if ($v1 > 0 \, 1 \, -1);
#X obj 16 342 osc~;
#X text 86 344 RECT;
#X obj 326 91 t f f;
#X obj 16 313 curve~;
#X msg 260 282 1 10 \, 0 \$1 50;
#X obj 260 253 * 6;
#X floatatom 63 194 5 -1 1 0 - - -;
#X floatatom 112 193 5 -1 1 0 - - -;
#X obj 17 28 r key;
#X obj 17 52 t b f;
#X text 16 14 CHANGE KEY FROM GLOBAL;
#X floatatom 329 49 5 0 0 0 - - -;
#X floatatom 22 194 5 0 0 0 - - -;
#X obj 16 257 pack f 0.25 -0.75 41.2 f;
#X obj 326 172 / 4;
#X text 197 171 DECAY;
#X text 50 172 CURVEUP;
#X text 100 174 CURVEDOWN;
#X text 164 172 KEY;
#X floatatom 160 193 5 0 0 0 - - -;
#X text 18 175 ATAK;
#X text 105 161 -0.6-1;
#X text 57 159 0.3-1;
#X floatatom 200 192 5 0 0 0 - - -;
#X obj 393 52 r key;
#X obj 393 76 t b f;
#X msg 16 285 1000 \$1 \$2 \$4 \$5 \$3;
#X obj 657 288 vline~;
#X obj 657 394 *~;
#X floatatom 676 204 5 0 0 0 - - -;
#X obj 656 226 * 8;
#X obj 392 453 *~;
#X obj 392 541 throw~ sisynt2;
#X msg 656 265 1 10 0 \, 0 \$1 50;
#X obj 392 510 hip~ 20;
#X obj 243 523 hip~ 20;
#X obj 392 343 curve~;
#X floatatom 449 242 5 -1 1 0 - - -;
#X floatatom 498 241 5 -1 1 0 - - -;
#X floatatom 405 241 5 0 0 0 - - -;
#X obj 392 287 pack f 0.25 -0.75 41.2 f;
#X text 583 221 DECAY;
#X text 436 222 CURVEUP;
#X text 486 222 CURVEDOWN;
#X text 550 222 KEY;
#X floatatom 546 241 5 0 0 0 - - -;
#X text 401 222 ATAK;
#X text 491 211 -0.6-1;
#X text 443 209 0.3-1;
#X floatatom 586 241 5 0 0 0 - - -;
#X obj 392 391 expr~ $v1 *2 -1;
#X text 361 391 SAW;
#X obj 392 367 osc~;
#X msg 392 315 2000 \$1 \$2 \$4 \$5 \$3;
#X obj 392 475 lop~ 2000;
#X obj 243 495 lop~ 1500;
#X connect 0 0 65 0;
#X connect 1 0 6 0;
#X connect 1 0 6 1;
#X connect 2 0 21 0;
#X connect 2 0 3 1;
#X connect 3 0 12 0;
#X connect 3 0 15 0;
#X connect 4 0 5 0;
#X connect 5 0 3 0;
#X connect 6 0 0 1;
#X connect 7 0 15 1;
#X connect 9 0 0 0;
#X connect 10 0 9 0;
#X connect 12 0 33 0;
#X connect 12 0 24 0;
#X connect 12 0 59 0;
#X connect 12 1 40 0;
#X connect 13 0 10 0;
#X connect 14 0 1 0;
#X connect 15 0 14 0;
#X connect 16 0 23 1;
#X connect 17 0 23 2;
#X connect 18 0 19 0;
#X connect 19 0 23 0;
#X connect 19 1 29 0;
#X connect 22 0 23 0;
#X connect 23 0 36 0;
#X connect 24 0 49 0;
#X connect 24 0 22 0;
#X connect 29 0 23 3;
#X connect 33 0 23 4;
#X connect 34 0 35 0;
#X connect 35 0 50 0;
#X connect 35 1 55 0;
#X connect 36 0 13 0;
#X connect 37 0 38 0;
#X connect 37 0 38 1;
#X connect 38 0 41 1;
#X connect 39 0 40 1;
#X connect 40 0 43 0;
#X connect 41 0 64 0;
#X connect 43 0 37 0;
#X connect 44 0 42 0;
#X connect 45 0 8 0;
#X connect 46 0 62 0;
#X connect 47 0 50 1;
#X connect 48 0 50 2;
#X connect 49 0 50 0;
#X connect 50 0 63 0;
#X connect 55 0 50 3;
#X connect 59 0 50 4;
#X connect 60 0 41 0;
#X connect 62 0 60 0;
#X connect 63 0 46 0;
#X connect 64 0 44 0;
#X connect 65 0 45 0;
#X restore 732 323 pd sinsynt2;
#N canvas 0 23 450 300 sinsynt3 0;
#X obj 36 244 *~;
#X obj 143 215 vline~;
#X obj 160 64 r dur;
#X obj 142 98 f;
#X obj 36 67 t f b;
#X obj 36 185 mtof;
#X obj 36 213 osc~ 660;
#X obj 36 18 inlet;
#X obj 36 275 throw~ sisynt3;
#X obj 142 122 t f f;
#X obj 194 145 * 4;
#X obj 142 145 / 2;
#X text 75 166 ATK;
#X text 205 168 DEC;
#X obj 141 168 pack f f;
#X floatatom 285 172 5 0 0 0 - - -;
#X floatatom 48 161 5 0 0 0 - - -;
#X msg 142 191 0.99 \$1 0 \, 0 \$2 50;
#X obj 112 24 r key;
#X obj 36 92 + 36;
#X connect 0 0 8 0;
#X connect 1 0 0 1;
#X connect 2 0 3 1;
#X connect 3 0 9 0;
#X connect 4 0 19 0;
#X connect 4 1 3 0;
#X connect 5 0 6 0;
#X connect 6 0 0 0;
#X connect 7 0 4 0;
#X connect 9 0 11 0;
#X connect 9 1 10 0;
#X connect 10 0 14 1;
#X connect 10 0 15 0;
#X connect 11 0 14 0;
#X connect 11 0 16 0;
#X connect 14 0 17 0;
#X connect 17 0 1 0;
#X connect 19 0 5 0;
#X restore 1005 324 pd sinsynt3;
#X floatatom 91 551 5 1 1000 0 - - -;
#X text 862 72 length;
#X text 40 552 length;
#X floatatom 225 551 5 1 1000 0 - - -;
#X text 179 552 length;
#X text 311 554 length;
#X floatatom 498 552 5 1 1000 0 - - -;
#X text 448 551 length;
#X floatatom 632 552 5 1 1000 0 - - -;
#X text 583 554 length;
#X floatatom 767 550 5 1 1000 0 - - -;
#X text 716 548 length;
#X floatatom 905 551 5 1 1000 0 - - -;
#X text 853 550 length;
#X floatatom 1039 549 5 1 1000 0 - - -;
#X text 981 551 length;
#X obj 24 211 bng 15 250 50 0 empty empty empty 17 7 0 10 -262144 -1
-1;
#X floatatom 84 260 5 0 0 0 - - -;
#X floatatom 45 210 2 0 0 0 - - -;
#X obj 84 175 s clock;
#X obj 21 175 s change;
#X obj 21 154 spigot;
#X obj 91 109 tgl 15 1 empty empty empty 17 7 0 10 -4034 -1 -1 1 1
;
#X obj 84 153 spigot;
#X obj 89 131 tgl 15 1 empty empty empty 17 7 0 10 -258113 -1 -1 1
1;
#X floatatom 83 211 2 1 16 0 - - -;
#N canvas 525 244 526 420 euclid 0;
#X obj 90 24 inlet;
#X obj 152 339 outlet;
#X obj 126 122 + 0;
#X text 5 121 offset the start;
#X obj 126 147 *;
#X obj 126 171 % 16;
#X obj 126 195 <;
#X obj 126 219 sel 1;
#X obj 126 254 bng 15 250 50 0 empty empty empty 17 7 0 10 -262144
-1 -1;
#X text 86 251 notes;
#X obj 191 255 bng 15 250 50 0 empty empty empty 17 7 0 10 -262144
-1 -1;
#X text 210 253 rests;
#X obj 136 92 t f f;
#X obj 152 305 f;
#X text 180 305 store the step number;
#X text 38 89 step number;
#X text 332 218 number of hits we want;
#X floatatom 317 239 5 0 16 0 - - -;
#X obj 197 70 random 16;
#X obj 136 23 r clock;
#X obj 197 21 r change;
#X text 324 261 hits;
#X obj 197 112 + 1;
#X obj 263 21 r hits_max;
#X obj 351 22 r hits_min;
#X floatatom 271 45 5 0 0 0 - - -;
#X floatatom 366 46 5 0 0 0 - - -;
#X obj 151 49 bng 15 250 50 0 empty empty empty 17 7 0 10 -262144 -1
-1;
#X obj 318 336 outlet;
#X obj 444 25 inlet;
#X floatatom 445 56 5 0 0 0 - - -;
#X text 357 106 set steps manually;
#X connect 0 0 12 0;
#X connect 2 0 4 0;
#X connect 4 0 5 0;
#X connect 5 0 6 0;
#X connect 6 0 7 0;
#X connect 7 0 8 0;
#X connect 7 1 10 0;
#X connect 8 0 13 0;
#X connect 12 0 2 0;
#X connect 12 1 13 1;
#X connect 13 0 1 0;
#X connect 17 0 28 0;
#X connect 18 0 22 0;
#X connect 19 0 12 0;
#X connect 20 0 18 0;
#X connect 22 0 17 0;
#X connect 22 0 6 1;
#X connect 22 0 4 1;
#X connect 23 0 25 0;
#X connect 23 0 18 1;
#X connect 24 0 26 0;
#X connect 24 0 22 1;
#X connect 27 0 12 0;
#X connect 29 0 30 0;
#X connect 29 0 4 1;
#X connect 29 0 6 1;
#X connect 29 0 17 0;
#X restore 159 237 pd euclid;
#X text 185 261 hits;
#X obj 159 213 bng 15 250 50 0 empty empty empty 17 7 0 10 -262144
-1 -1;
#X floatatom 219 262 5 0 0 0 - - -;
#X floatatom 180 212 2 0 0 0 - - -;
#X floatatom 218 213 2 1 16 0 - - -;
#X text 1052 217 randomize;
#X text 1052 230 must be off;
#N canvas 525 244 526 420 euclid 0;
#X obj 90 24 inlet;
#X obj 152 339 outlet;
#X obj 126 122 + 0;
#X text 5 121 offset the start;
#X obj 126 147 *;
#X obj 126 171 % 16;
#X obj 126 195 <;
#X obj 126 219 sel 1;
#X obj 126 254 bng 15 250 50 0 empty empty empty 17 7 0 10 -262144
-1 -1;
#X text 86 251 notes;
#X obj 191 255 bng 15 250 50 0 empty empty empty 17 7 0 10 -262144
-1 -1;
#X text 210 253 rests;
#X obj 136 92 t f f;
#X obj 152 305 f;
#X text 180 305 store the step number;
#X text 38 89 step number;
#X text 332 218 number of hits we want;
#X floatatom 317 239 5 0 16 0 - - -;
#X obj 197 70 random 16;
#X obj 136 23 r clock;
#X obj 197 21 r change;
#X text 324 261 hits;
#X obj 197 112 + 1;
#X obj 263 21 r hits_max;
#X obj 351 22 r hits_min;
#X floatatom 271 45 5 0 0 0 - - -;
#X floatatom 366 46 5 0 0 0 - - -;
#X obj 151 49 bng 15 250 50 0 empty empty empty 17 7 0 10 -262144 -1
-1;
#X obj 318 336 outlet;
#X obj 444 25 inlet;
#X floatatom 445 56 5 0 0 0 - - -;
#X text 357 106 set steps manually;
#X connect 0 0 12 0;
#X connect 2 0 4 0;
#X connect 4 0 5 0;
#X connect 5 0 6 0;
#X connect 6 0 7 0;
#X connect 7 0 8 0;
#X connect 7 1 10 0;
#X connect 8 0 13 0;
#X connect 12 0 2 0;
#X connect 12 1 13 1;
#X connect 13 0 1 0;
#X connect 17 0 28 0;
#X connect 18 0 22 0;
#X connect 19 0 12 0;
#X connect 20 0 18 0;
#X connect 22 0 17 0;
#X connect 22 0 6 1;
#X connect 22 0 4 1;
#X connect 23 0 25 0;
#X connect 23 0 18 1;
#X connect 24 0 26 0;
#X connect 24 0 22 1;
#X connect 27 0 12 0;
#X connect 29 0 30 0;
#X connect 29 0 4 1;
#X connect 29 0 6 1;
#X connect 29 0 17 0;
#X restore 294 234 pd euclid;
#X text 320 258 hits;
#X obj 294 210 bng 15 250 50 0 empty empty empty 17 7 0 10 -262144
-1 -1;
#X floatatom 354 259 5 0 0 0 - - -;
#X floatatom 315 209 2 0 0 0 - - -;
#X floatatom 353 210 2 1 16 0 - - -;
#N canvas 525 244 526 420 euclid 0;
#X obj 90 24 inlet;
#X obj 152 339 outlet;
#X obj 126 122 + 0;
#X text 5 121 offset the start;
#X obj 126 147 *;
#X obj 126 171 % 16;
#X obj 126 195 <;
#X obj 126 219 sel 1;
#X obj 126 254 bng 15 250 50 0 empty empty empty 17 7 0 10 -262144
-1 -1;
#X text 86 251 notes;
#X obj 191 255 bng 15 250 50 0 empty empty empty 17 7 0 10 -262144
-1 -1;
#X text 210 253 rests;
#X obj 136 92 t f f;
#X obj 152 305 f;
#X text 180 305 store the step number;
#X text 38 89 step number;
#X text 332 218 number of hits we want;
#X floatatom 317 239 5 0 16 0 - - -;
#X obj 197 70 random 16;
#X obj 136 23 r clock;
#X obj 197 21 r change;
#X text 324 261 hits;
#X obj 197 112 + 1;
#X obj 263 21 r hits_max;
#X obj 351 22 r hits_min;
#X floatatom 271 45 5 0 0 0 - - -;
#X floatatom 366 46 5 0 0 0 - - -;
#X obj 151 49 bng 15 250 50 0 empty empty empty 17 7 0 10 -262144 -1
-1;
#X obj 318 336 outlet;
#X obj 444 25 inlet;
#X floatatom 445 56 5 0 0 0 - - -;
#X text 357 106 set steps manually;
#X connect 0 0 12 0;
#X connect 2 0 4 0;
#X connect 4 0 5 0;
#X connect 5 0 6 0;
#X connect 6 0 7 0;
#X connect 7 0 8 0;
#X connect 7 1 10 0;
#X connect 8 0 13 0;
#X connect 12 0 2 0;
#X connect 12 1 13 1;
#X connect 13 0 1 0;
#X connect 17 0 28 0;
#X connect 18 0 22 0;
#X connect 19 0 12 0;
#X connect 20 0 18 0;
#X connect 22 0 17 0;
#X connect 22 0 6 1;
#X connect 22 0 4 1;
#X connect 23 0 25 0;
#X connect 23 0 18 1;
#X connect 24 0 26 0;
#X connect 24 0 22 1;
#X connect 27 0 12 0;
#X connect 29 0 30 0;
#X connect 29 0 4 1;
#X connect 29 0 6 1;
#X connect 29 0 17 0;
#X restore 431 237 pd euclid;
#X text 457 261 hits;
#X obj 431 213 bng 15 250 50 0 empty empty empty 17 7 0 10 -262144
-1 -1;
#X floatatom 491 262 5 0 0 0 - - -;
#X floatatom 452 212 2 0 0 0 - - -;
#X floatatom 490 213 2 1 16 0 - - -;
#N canvas 525 244 526 420 euclid 0;
#X obj 90 24 inlet;
#X obj 152 339 outlet;
#X obj 126 122 + 0;
#X text 5 121 offset the start;
#X obj 126 147 *;
#X obj 126 171 % 16;
#X obj 126 195 <;
#X obj 126 219 sel 1;
#X obj 126 254 bng 15 250 50 0 empty empty empty 17 7 0 10 -262144
-1 -1;
#X text 86 251 notes;
#X obj 191 255 bng 15 250 50 0 empty empty empty 17 7 0 10 -262144
-1 -1;
#X text 210 253 rests;
#X obj 136 92 t f f;
#X obj 152 305 f;
#X text 180 305 store the step number;
#X text 38 89 step number;
#X text 332 218 number of hits we want;
#X floatatom 317 239 5 0 16 0 - - -;
#X obj 197 70 random 16;
#X obj 136 23 r clock;
#X obj 197 21 r change;
#X text 324 261 hits;
#X obj 197 112 + 1;
#X obj 263 21 r hits_max;
#X obj 351 22 r hits_min;
#X floatatom 271 45 5 0 0 0 - - -;
#X floatatom 366 46 5 0 0 0 - - -;
#X obj 151 49 bng 15 250 50 0 empty empty empty 17 7 0 10 -262144 -1
-1;
#X obj 318 336 outlet;
#X obj 444 25 inlet;
#X floatatom 445 56 5 0 0 0 - - -;
#X text 357 106 set steps manually;
#X connect 0 0 12 0;
#X connect 2 0 4 0;
#X connect 4 0 5 0;
#X connect 5 0 6 0;
#X connect 6 0 7 0;
#X connect 7 0 8 0;
#X connect 7 1 10 0;
#X connect 8 0 13 0;
#X connect 12 0 2 0;
#X connect 12 1 13 1;
#X connect 13 0 1 0;
#X connect 17 0 28 0;
#X connect 18 0 22 0;
#X connect 19 0 12 0;
#X connect 20 0 18 0;
#X connect 22 0 17 0;
#X connect 22 0 6 1;
#X connect 22 0 4 1;
#X connect 23 0 25 0;
#X connect 23 0 18 1;
#X connect 24 0 26 0;
#X connect 24 0 22 1;
#X connect 27 0 12 0;
#X connect 29 0 30 0;
#X connect 29 0 4 1;
#X connect 29 0 6 1;
#X connect 29 0 17 0;
#X restore 565 236 pd euclid;
#X text 591 260 hits;
#X obj 565 212 bng 15 250 50 0 empty empty empty 17 7 0 10 -262144
-1 -1;
#X floatatom 625 261 5 0 0 0 - - -;
#X floatatom 586 211 2 0 0 0 - - -;
#X floatatom 624 212 2 1 16 0 - - -;
#N canvas 525 244 526 420 euclid 0;
#X obj 90 24 inlet;
#X obj 152 339 outlet;
#X obj 126 122 + 0;
#X text 5 121 offset the start;
#X obj 126 147 *;
#X obj 126 171 % 16;
#X obj 126 195 <;
#X obj 126 219 sel 1;
#X obj 126 254 bng 15 250 50 0 empty empty empty 17 7 0 10 -262144
-1 -1;
#X text 86 251 notes;
#X obj 191 255 bng 15 250 50 0 empty empty empty 17 7 0 10 -262144
-1 -1;
#X text 210 253 rests;
#X obj 136 92 t f f;
#X obj 152 305 f;
#X text 180 305 store the step number;
#X text 38 89 step number;
#X text 332 218 number of hits we want;
#X floatatom 317 239 5 0 16 0 - - -;
#X obj 197 70 random 16;
#X obj 136 23 r clock;
#X obj 197 21 r change;
#X text 324 261 hits;
#X obj 197 112 + 1;
#X obj 263 21 r hits_max;
#X obj 351 22 r hits_min;
#X floatatom 271 45 5 0 0 0 - - -;
#X floatatom 366 46 5 0 0 0 - - -;
#X obj 151 49 bng 15 250 50 0 empty empty empty 17 7 0 10 -262144 -1
-1;
#X obj 318 336 outlet;
#X obj 444 25 inlet;
#X floatatom 445 56 5 0 0 0 - - -;
#X text 357 106 set steps manually;
#X connect 0 0 12 0;
#X connect 2 0 4 0;
#X connect 4 0 5 0;
#X connect 5 0 6 0;
#X connect 6 0 7 0;
#X connect 7 0 8 0;
#X connect 7 1 10 0;
#X connect 8 0 13 0;
#X connect 12 0 2 0;
#X connect 12 1 13 1;
#X connect 13 0 1 0;
#X connect 17 0 28 0;
#X connect 18 0 22 0;
#X connect 19 0 12 0;
#X connect 20 0 18 0;
#X connect 22 0 17 0;
#X connect 22 0 6 1;
#X connect 22 0 4 1;
#X connect 23 0 25 0;
#X connect 23 0 18 1;
#X connect 24 0 26 0;
#X connect 24 0 22 1;
#X connect 27 0 12 0;
#X connect 29 0 30 0;
#X connect 29 0 4 1;
#X connect 29 0 6 1;
#X connect 29 0 17 0;
#X restore 700 234 pd euclid;
#X text 726 258 hits;
#X obj 700 210 bng 15 250 50 0 empty empty empty 17 7 0 10 -262144
-1 -1;
#X floatatom 760 259 5 0 0 0 - - -;
#X floatatom 721 209 2 0 0 0 - - -;
#X floatatom 759 210 2 1 16 0 - - -;
#N canvas 525 244 526 420 euclid 0;
#X obj 90 24 inlet;
#X obj 152 339 outlet;
#X obj 126 122 + 0;
#X text 5 121 offset the start;
#X obj 126 147 *;
#X obj 126 171 % 16;
#X obj 126 195 <;
#X obj 126 219 sel 1;
#X obj 126 254 bng 15 250 50 0 empty empty empty 17 7 0 10 -262144
-1 -1;
#X text 86 251 notes;
#X obj 191 255 bng 15 250 50 0 empty empty empty 17 7 0 10 -262144
-1 -1;
#X text 210 253 rests;
#X obj 136 92 t f f;
#X obj 152 305 f;
#X text 180 305 store the step number;
#X text 38 89 step number;
#X text 332 218 number of hits we want;
#X floatatom 317 239 5 0 16 0 - - -;
#X obj 197 70 random 16;
#X obj 136 23 r clock;
#X obj 197 21 r change;
#X text 324 261 hits;
#X obj 197 112 + 1;
#X obj 263 21 r hits_max;
#X obj 351 22 r hits_min;
#X floatatom 271 45 5 0 0 0 - - -;
#X floatatom 366 46 5 0 0 0 - - -;
#X obj 151 49 bng 15 250 50 0 empty empty empty 17 7 0 10 -262144 -1
-1;
#X obj 318 336 outlet;
#X obj 444 25 inlet;
#X floatatom 445 56 5 0 0 0 - - -;
#X text 357 106 set steps manually;
#X connect 0 0 12 0;
#X connect 2 0 4 0;
#X connect 4 0 5 0;
#X connect 5 0 6 0;
#X connect 6 0 7 0;
#X connect 7 0 8 0;
#X connect 7 1 10 0;
#X connect 8 0 13 0;
#X connect 12 0 2 0;
#X connect 12 1 13 1;
#X connect 13 0 1 0;
#X connect 17 0 28 0;
#X connect 18 0 22 0;
#X connect 19 0 12 0;
#X connect 20 0 18 0;
#X connect 22 0 17 0;
#X connect 22 0 6 1;
#X connect 22 0 4 1;
#X connect 23 0 25 0;
#X connect 23 0 18 1;
#X connect 24 0 26 0;
#X connect 24 0 22 1;
#X connect 27 0 12 0;
#X connect 29 0 30 0;
#X connect 29 0 4 1;
#X connect 29 0 6 1;
#X connect 29 0 17 0;
#X restore 837 232 pd euclid;
#X text 863 256 hits;
#X obj 837 208 bng 15 250 50 0 empty empty empty 17 7 0 10 -262144
-1 -1;
#X floatatom 897 257 5 0 0 0 - - -;
#X floatatom 858 207 2 0 0 0 - - -;
#X floatatom 896 208 2 1 16 0 - - -;
#N canvas 525 244 526 420 euclid 0;
#X obj 90 24 inlet;
#X obj 152 339 outlet;
#X obj 126 122 + 0;
#X text 5 121 offset the start;
#X obj 126 147 *;
#X obj 126 171 % 16;
#X obj 126 195 <;
#X obj 126 219 sel 1;
#X obj 126 254 bng 15 250 50 0 empty empty empty 17 7 0 10 -262144
-1 -1;
#X text 86 251 notes;
#X obj 191 255 bng 15 250 50 0 empty empty empty 17 7 0 10 -262144
-1 -1;
#X text 210 253 rests;
#X obj 136 92 t f f;
#X obj 152 305 f;
#X text 180 305 store the step number;
#X text 38 89 step number;
#X text 332 218 number of hits we want;
#X floatatom 317 239 5 0 16 0 - - -;
#X obj 197 70 random 16;
#X obj 136 23 r clock;
#X obj 197 21 r change;
#X text 324 261 hits;
#X obj 197 112 + 1;
#X obj 263 21 r hits_max;
#X obj 351 22 r hits_min;
#X floatatom 271 45 5 0 0 0 - - -;
#X floatatom 366 46 5 0 0 0 - - -;
#X obj 151 49 bng 15 250 50 0 empty empty empty 17 7 0 10 -262144 -1
-1;
#X obj 318 336 outlet;
#X obj 444 25 inlet;
#X floatatom 445 56 5 0 0 0 - - -;
#X text 357 106 set steps manually;
#X connect 0 0 12 0;
#X connect 2 0 4 0;
#X connect 4 0 5 0;
#X connect 5 0 6 0;
#X connect 6 0 7 0;
#X connect 7 0 8 0;
#X connect 7 1 10 0;
#X connect 8 0 13 0;
#X connect 12 0 2 0;
#X connect 12 1 13 1;
#X connect 13 0 1 0;
#X connect 17 0 28 0;
#X connect 18 0 22 0;
#X connect 19 0 12 0;
#X connect 20 0 18 0;
#X connect 22 0 17 0;
#X connect 22 0 6 1;
#X connect 22 0 4 1;
#X connect 23 0 25 0;
#X connect 23 0 18 1;
#X connect 24 0 26 0;
#X connect 24 0 22 1;
#X connect 27 0 12 0;
#X connect 29 0 30 0;
#X connect 29 0 4 1;
#X connect 29 0 6 1;
#X connect 29 0 17 0;
#X restore 973 233 pd euclid;
#X text 999 257 hits;
#X obj 973 209 bng 15 250 50 0 empty empty empty 17 7 0 10 -262144
-1 -1;
#X floatatom 1033 258 5 0 0 0 - - -;
#X floatatom 994 208 2 0 0 0 - - -;
#X floatatom 1032 209 2 1 16 0 - - -;
#N canvas 0 23 303 266 midiout 0;
#X obj 27 21 inlet;
#X obj 140 18 inlet;
#X floatatom 90 55 5 0 0 0 - - -;
#X obj 27 195 makenote;
#X obj 27 222 noteout;
#X msg 40 167 60 100 15;
#X obj 115 103 i 15;
#X obj 27 138 pack 60 100 f;
#X obj 27 57 t b b;
#X obj 201 19 r midi_len;
#X connect 0 0 8 0;
#X connect 1 0 2 0;
#X connect 1 0 6 1;
#X connect 3 0 4 0;
#X connect 3 1 4 1;
#X connect 5 0 3 0;
#X connect 6 0 7 2;
#X connect 7 0 3 0;
#X connect 8 0 7 0;
#X connect 8 1 6 0;
#X connect 9 0 6 1;
#X restore 24 572 pd midiout;
#N canvas 0 23 303 266 midiout 0;
#X obj 27 21 inlet;
#X obj 140 18 inlet;
#X floatatom 90 55 5 0 0 0 - - -;
#X obj 27 195 makenote;
#X obj 27 222 noteout;
#X obj 115 103 i 15;
#X obj 27 57 t b b;
#X obj 201 19 r midi_len;
#X obj 27 138 pack 61 100 f;
#X msg 40 167 61 100 15;
#X connect 0 0 6 0;
#X connect 1 0 2 0;
#X connect 1 0 5 1;
#X connect 3 0 4 0;
#X connect 3 1 4 1;
#X connect 5 0 8 2;
#X connect 6 0 8 0;
#X connect 6 1 5 0;
#X connect 7 0 5 1;
#X connect 8 0 3 0;
#X connect 9 0 3 0;
#X restore 159 572 pd midiout;
#N canvas 0 23 303 266 midiout 0;
#X obj 27 21 inlet;
#X obj 140 18 inlet;
#X floatatom 90 55 5 0 0 0 - - -;
#X obj 27 195 makenote;
#X obj 27 222 noteout;
#X obj 115 103 i 15;
#X obj 27 57 t b b;
#X obj 201 19 r midi_len;
#X msg 40 167 62 100 15;
#X obj 27 138 pack 62 100 f;
#X connect 0 0 6 0;
#X connect 1 0 2 0;
#X connect 1 0 5 1;
#X connect 3 0 4 0;
#X connect 3 1 4 1;
#X connect 5 0 9 2;
#X connect 6 0 9 0;
#X connect 6 1 5 0;
#X connect 7 0 5 1;
#X connect 8 0 3 0;
#X connect 9 0 3 0;
#X restore 294 572 pd midiout;
#N canvas 0 23 303 266 midiout 0;
#X obj 27 21 inlet;
#X obj 140 18 inlet;
#X floatatom 90 55 5 0 0 0 - - -;
#X obj 27 195 makenote;
#X obj 27 222 noteout;
#X obj 115 103 i 15;
#X obj 27 57 t b b;
#X obj 201 19 r midi_len;
#X msg 40 167 63 100 15;
#X obj 27 138 pack 63 100 f;
#X connect 0 0 6 0;
#X connect 1 0 2 0;
#X connect 1 0 5 1;
#X connect 3 0 4 0;
#X connect 3 1 4 1;
#X connect 5 0 9 2;
#X connect 6 0 9 0;
#X connect 6 1 5 0;
#X connect 7 0 5 1;
#X connect 8 0 3 0;
#X connect 9 0 3 0;
#X restore 431 572 pd midiout;
#N canvas 0 23 303 266 midiout 0;
#X obj 27 21 inlet;
#X obj 140 18 inlet;
#X floatatom 90 55 5 0 0 0 - - -;
#X obj 27 195 makenote;
#X obj 27 222 noteout;
#X obj 115 103 i 15;
#X obj 27 57 t b b;
#X obj 201 19 r midi_len;
#X obj 27 138 pack 64 100 f;
#X msg 40 167 64 100 15;
#X connect 0 0 6 0;
#X connect 1 0 2 0;
#X connect 1 0 5 1;
#X connect 3 0 4 0;
#X connect 3 1 4 1;
#X connect 5 0 8 2;
#X connect 6 0 8 0;
#X connect 6 1 5 0;
#X connect 7 0 5 1;
#X connect 8 0 3 0;
#X connect 9 0 3 0;
#X restore 565 572 pd midiout;
#N canvas 0 23 303 266 midiout 0;
#X obj 27 21 inlet;
#X obj 140 18 inlet;
#X floatatom 90 55 5 0 0 0 - - -;
#X obj 27 195 makenote;
#X obj 27 222 noteout;
#X obj 115 103 i 15;
#X obj 27 57 t b b;
#X obj 201 19 r midi_len;
#X obj 27 138 pack 65 100 f;
#X msg 40 167 65 100 15;
#X connect 0 0 6 0;
#X connect 1 0 2 0;
#X connect 1 0 5 1;
#X connect 3 0 4 0;
#X connect 3 1 4 1;
#X connect 5 0 8 2;
#X connect 6 0 8 0;
#X connect 6 1 5 0;
#X connect 7 0 5 1;
#X connect 8 0 3 0;
#X connect 9 0 3 0;
#X restore 700 570 pd midiout;
#N canvas 0 23 303 266 midiout 0;
#X obj 27 21 inlet;
#X obj 140 18 inlet;
#X floatatom 90 55 5 0 0 0 - - -;
#X obj 27 195 makenote;
#X obj 27 222 noteout;
#X obj 115 103 i 15;
#X obj 27 57 t b b;
#X obj 201 19 r midi_len;
#X msg 40 167 66 100 15;
#X obj 27 138 pack 66 100 f;
#X connect 0 0 6 0;
#X connect 1 0 2 0;
#X connect 1 0 5 1;
#X connect 3 0 4 0;
#X connect 3 1 4 1;
#X connect 5 0 9 2;
#X connect 6 0 9 0;
#X connect 6 1 5 0;
#X connect 7 0 5 1;
#X connect 8 0 3 0;
#X connect 9 0 3 0;
#X restore 837 572 pd midiout;
#N canvas 0 23 303 266 midiout 0;
#X obj 27 21 inlet;
#X obj 140 18 inlet;
#X floatatom 90 55 5 0 0 0 - - -;
#X obj 27 195 makenote;
#X obj 27 222 noteout;
#X obj 115 103 i 15;
#X obj 27 57 t b b;
#X obj 201 19 r midi_len;
#X obj 27 138 pack 67 100 f;
#X msg 40 167 67 100 15;
#X connect 0 0 6 0;
#X connect 1 0 2 0;
#X connect 1 0 5 1;
#X connect 3 0 4 0;
#X connect 3 1 4 1;
#X connect 5 0 8 2;
#X connect 6 0 8 0;
#X connect 6 1 5 0;
#X connect 7 0 5 1;
#X connect 8 0 3 0;
#X connect 9 0 3 0;
#X restore 973 572 pd midiout;
#X obj 24 399 t b b;
#X floatatom 56 525 5 0 0 0 - - -;
#X obj 56 474 drunk 30;
#X obj 56 450 spigot;
#X obj 95 431 tgl 15 0 empty empty empty 17 7 0 10 -257985 -1 -1 0
1;
#X obj 56 500 + 5;
#X floatatom 191 528 5 0 0 0 - - -;
#X obj 191 476 drunk 30;
#X obj 191 451 spigot;
#X obj 230 431 tgl 15 0 empty empty empty 17 7 0 10 -257985 -1 -1 0
1;
#X obj 191 503 + 5;
#X obj 159 404 t b b;
#X floatatom 360 552 5 1 1000 0 - - -;
#X obj 294 401 t b b;
#X floatatom 326 527 5 0 0 0 - - -;
#X obj 326 476 drunk 30;
#X obj 326 452 spigot;
#X obj 365 431 tgl 15 0 empty empty empty 17 7 0 10 -257985 -1 -1 0
1;
#X obj 326 502 + 5;
#X floatatom 463 530 5 0 0 0 - - -;
#X obj 463 476 drunk 30;
#X obj 463 451 spigot;
#X obj 502 431 tgl 15 0 empty empty empty 17 7 0 10 -257985 -1 -1 0
1;
#X obj 463 505 + 5;
#X obj 431 406 t b b;
#X obj 565 401 t b b;
#X floatatom 597 527 5 0 0 0 - - -;
#X obj 597 477 drunk 30;
#X obj 597 452 spigot;
#X obj 636 431 tgl 15 0 empty empty empty 17 7 0 10 -257985 -1 -1 0
1;
#X obj 597 502 + 5;
#X floatatom 733 530 5 0 0 0 - - -;
#X obj 733 478 drunk 30;
#X obj 733 452 spigot;
#X obj 772 431 tgl 15 0 empty empty empty 17 7 0 10 -257985 -1 -1 0
1;
#X obj 733 505 + 5;
#X obj 701 406 t b b;
#X obj 837 400 t b b;
#X floatatom 869 526 5 0 0 0 - - -;
#X obj 869 476 drunk 30;
#X obj 869 452 spigot;
#X obj 908 431 tgl 15 0 empty empty empty 17 7 0 10 -257985 -1 -1 0
1;
#X obj 869 501 + 5;
#X floatatom 1005 528 5 0 0 0 - - -;
#X obj 1005 478 drunk 30;
#X obj 1005 453 spigot;
#X obj 1044 431 tgl 15 0 empty empty empty 17 7 0 10 -257985 -1 -1
0 1;
#X obj 1005 503 + 5;
#X obj 973 398 t b b;
#X text 1123 338 SEND MIDI?;
#X obj 1201 341 tgl 15 0 empty empty empty 17 7 0 10 -203904 -1 -1
1 1;
#X text 1052 202 set hits amount by hand;
#X obj 1202 416 tgl 15 0 empty empty empty 17 7 0 10 -257985 -1 -1
0 1;
#X text 1071 412 DRUNK MIDI LENGTH?;
#N canvas 8 56 630 535 sawsynt 0;
#X obj 199 324 *~;
#X obj 383 228 vline~;
#X obj 347 44 r dur;
#X obj 176 73 f;
#X obj 176 9 inlet;
#X obj 176 37 t b b;
#X obj 383 271 *~;
#X floatatom 405 120 5 0 0 0 - - -;
#X obj 199 405 throw~ sawsynt;
#X obj 200 170 curve~;
#X obj 9 255 phasor~;
#X obj 9 279 expr~ $v1 *2 -1;
#X obj 9 171 curve~;
#X obj 176 104 t f f f;
#X msg 383 172 0.77 10 \, 0 \$1 10;
#X obj 383 143 * 4;
#X msg 199 138 4000 20 0.5 60 \$1 -0.9;
#X msg 9 140 2001 20 0.9 30.1 \$1 -0.9;
#X obj 200 277 expr~ $v1 *2 -1;
#X obj 200 253 osc~;
#X obj 199 354 lop~ 3000;
#X connect 0 0 20 0;
#X connect 1 0 6 0;
#X connect 1 0 6 1;
#X connect 2 0 3 1;
#X connect 3 0 13 0;
#X connect 4 0 5 0;
#X connect 5 0 3 0;
#X connect 5 1 3 0;
#X connect 6 0 0 1;
#X connect 7 0 15 1;
#X connect 9 0 19 0;
#X connect 10 0 11 0;
#X connect 11 0 0 0;
#X connect 12 0 10 0;
#X connect 13 0 17 0;
#X connect 13 1 16 0;
#X connect 13 2 15 0;
#X connect 14 0 1 0;
#X connect 15 0 14 0;
#X connect 16 0 9 0;
#X connect 17 0 12 0;
#X connect 18 0 0 0;
#X connect 19 0 18 0;
#X connect 20 0 8 0;
#X restore 326 323 pd sawsynt;
#X obj 681 31 loadbang;
#X msg 681 73 7;
#X msg 758 73 2;
#X msg 835 73 8;
#X obj 21 58 loadbang;
#X obj 681 51 t b b b;
#X text 742 52 random range;
#X msg 21 80 160;
#N canvas 680 23 600 493 kick2 0;
#X obj 109 25 inlet;
#X obj 332 306 *~;
#X obj 199 236 vline~;
#X obj 159 26 r dur;
#X obj 108 63 f;
#X obj 199 269 *~;
#X obj 10 254 osc~ 60;
#X obj 198 187 * 8;
#X obj 108 89 t f f f;
#X obj 332 223 vline~;
#X obj 332 256 *~;
#X obj 148 314 *~;
#X obj 263 378 +~;
#X obj 263 409 throw~ kik2;
#X obj 331 174 * 2;
#X obj 183 70 bng 15 250 50 0 empty empty empty 17 7 0 10 -262144 -1
-1;
#X obj 10 220 curve~;
#X msg 198 213 1 1 0 \, 0 \$1 1;
#X obj 391 233 pink~;
#X obj 391 257 *~ 0.99;
#X obj 479 251 - 0.5;
#X msg 10 189 300 0 -0.5 60 \$1 -0.5;
#X floatatom 466 228 5 0 0 0 - - -;
#X obj 391 282 bp~ 60 0.2;
#X msg 331 200 1 0 0 \, 0 \$1 100;
#X connect 0 0 4 0;
#X connect 0 0 15 0;
#X connect 1 0 12 1;
#X connect 2 0 5 0;
#X connect 2 0 5 1;
#X connect 3 0 4 1;
#X connect 4 0 8 0;
#X connect 5 0 11 1;
#X connect 6 0 11 0;
#X connect 7 0 17 0;
#X connect 8 0 21 0;
#X connect 8 1 14 0;
#X connect 8 2 7 0;
#X connect 9 0 10 0;
#X connect 9 0 10 1;
#X connect 10 0 1 0;
#X connect 11 0 12 0;
#X connect 12 0 13 0;
#X connect 14 0 24 0;
#X connect 16 0 6 0;
#X connect 17 0 2 0;
#X connect 18 0 19 0;
#X connect 19 0 23 0;
#X connect 20 0 23 2;
#X connect 21 0 16 0;
#X connect 22 0 23 2;
#X connect 23 0 1 1;
#X connect 24 0 9 0;
#X restore 463 324 pd kick2;
#X obj 293 618 catch~ sawsynt;
#X obj 571 618 catch~ snare2;
#X obj 571 663 *~;
#X obj 589 641 tgl 15 0 empty empty empty 17 7 0 10 -262144 -1 -1 0
1;
#X obj 699 663 *~;
#X obj 717 641 tgl 15 0 empty empty empty 17 7 0 10 -262144 -1 -1 0
1;
#X obj 699 618 catch~ sisynt2;
#N canvas 98 44 1099 470 change_dur 0;
#X obj 33 344 outlet;
#X obj 220 29 inlet;
#X obj 33 32 r hole_not;
#X floatatom 33 221 5 0 0 0 - - -;
#X msg 691 152 0.5;
#X msg 754 152 0.66;
#X msg 792 152 0.75;
#X msg 540 152 0.25;
#X msg 913 152 1;
#X obj 68 172 t b f;
#X obj 360 132 bng 15 250 50 0 empty empty empty 17 7 0 10 -262144
-1 -1;
#X obj 540 132 bng 15 250 50 0 empty empty empty 17 7 0 10 -262144
-1 -1;
#X obj 616 131 bng 15 250 50 0 empty empty empty 17 7 0 10 -262144
-1 -1;
#X obj 691 133 bng 15 250 50 0 empty empty empty 17 7 0 10 -262144
-1 -1;
#X obj 754 133 bng 15 250 50 0 empty empty empty 17 7 0 10 -262144
-1 -1;
#X obj 792 133 bng 15 250 50 0 empty empty empty 17 7 0 10 -262144
-1 -1;
#X obj 913 133 bng 15 250 50 0 empty empty empty 17 7 0 10 -262144
-1 -1;
#X obj 865 133 bng 15 250 50 0 empty empty empty 17 7 0 10 -262144
-1 -1;
#X obj 953 111 bng 15 250 50 0 empty empty empty 17 7 0 10 -262144
-1 -1;
#X obj 953 152 * 0.001;
#X obj 953 130 random;
#X floatatom 98 344 5 0 0 0 - - -;
#X msg 234 369 1.25;
#X msg 277 369 1.33;
#X msg 320 369 1.5;
#X msg 352 371 1.66;
#X msg 390 371 1.75;
#X msg 431 372 2;
#X obj 234 347 bng 15 250 50 0 empty empty empty 17 7 0 10 -262144
-1 -1;
#X obj 277 349 bng 15 250 50 0 empty empty empty 17 7 0 10 -262144
-1 -1;
#X obj 320 349 bng 15 250 50 0 empty empty empty 17 7 0 10 -262144
-1 -1;
#X obj 351 349 bng 15 250 50 0 empty empty empty 17 7 0 10 -262144
-1 -1;
#X obj 384 344 bng 15 250 50 0 empty empty empty 17 7 0 10 -262144
-1 -1;
#X obj 431 347 bng 15 250 50 0 empty empty empty 17 7 0 10 -262144
-1 -1;
#X msg 865 152 0.875;
#X obj 132 132 bng 15 250 50 0 empty empty empty 17 7 0 10 -262144
-1 -1;
#X msg 132 153 0.004;
#X obj 33 299 *;
#X text 136 183 1/256;
#X obj 177 132 bng 15 250 50 0 empty empty empty 17 7 0 10 -262144
-1 -1;
#X msg 177 153 0.008;
#X text 182 184 1/128;
#X obj 222 132 bng 15 250 50 0 empty empty empty 17 7 0 10 -262144
-1 -1;
#X text 229 184 1/64;
#X msg 222 153 0.016;
#X text 269 184 1/32;
#X obj 266 132 bng 15 250 50 0 empty empty empty 17 7 0 10 -262144
-1 -1;
#X msg 266 153 0.032;
#X text 312 184 3/64;
#X obj 312 131 bng 15 250 50 0 empty empty empty 17 7 0 10 -262144
-1 -1;
#X msg 312 152 0.047;
#X text 360 184 1/16;
#X obj 404 132 bng 15 250 50 0 empty empty empty 17 7 0 10 -262144
-1 -1;
#X msg 360 152 0.063;
#X text 404 184 3/32;
#X msg 404 152 0.094;
#X obj 448 132 bng 15 250 50 0 empty empty empty 17 7 0 10 -262144
-1 -1;
#X obj 494 132 bng 15 250 50 0 empty empty empty 17 7 0 10 -262144
-1 -1;
#X msg 448 152 0.125;
#X text 452 183 1/8;
#X text 497 183 3/16;
#X msg 494 152 0.188;
#X text 543 183 1/4;
#X text 623 183 3/8;
#X msg 616 152 0.375;
#X obj 578 132 bng 15 250 50 0 empty empty empty 17 7 0 10 -262144
-1 -1;
#X msg 578 152 0.33;
#X text 582 183 1/3;
#X obj 660 133 bng 15 250 50 0 empty empty empty 17 7 0 10 -262144
-1 -1;
#X msg 660 152 0.4;
#X obj 220 52 sel 0 1 2 3 4 5 6 7 8 9 10 11 12 13 14 15 16 17 18 19
20;
#X obj 722 133 bng 15 250 50 0 empty empty empty 17 7 0 10 -262144
-1 -1;
#X msg 722 152 0.6;
#X text 692 182 1/2;
#X text 663 183 2/5;
#X text 724 183 3/5;
#X text 758 182 2/3;
#X text 795 181 3/4;
#X text 870 179 7/8;
#X obj 832 133 bng 15 250 50 0 empty empty empty 17 7 0 10 -262144
-1 -1;
#X msg 832 152 0.8;
#X text 833 180 4/5;
#X text 282 321 too large;
#X obj 992 107 / 2;
#X connect 1 0 70 0;
#X connect 2 0 3 0;
#X connect 3 0 37 0;
#X connect 3 0 83 0;
#X connect 4 0 9 0;
#X connect 5 0 9 0;
#X connect 6 0 9 0;
#X connect 7 0 9 0;
#X connect 8 0 9 0;
#X connect 9 0 3 0;
#X connect 9 1 37 1;
#X connect 10 0 53 0;
#X connect 11 0 7 0;
#X connect 12 0 64 0;
#X connect 13 0 4 0;
#X connect 14 0 5 0;
#X connect 15 0 6 0;
#X connect 16 0 8 0;
#X connect 17 0 34 0;
#X connect 18 0 20 0;
#X connect 19 0 9 0;
#X connect 20 0 19 0;
#X connect 28 0 22 0;
#X connect 29 0 23 0;
#X connect 30 0 24 0;
#X connect 31 0 25 0;
#X connect 32 0 26 0;
#X connect 33 0 27 0;
#X connect 34 0 9 0;
#X connect 35 0 36 0;
#X connect 36 0 9 0;
#X connect 37 0 0 0;
#X connect 37 0 21 0;
#X connect 39 0 40 0;
#X connect 40 0 9 0;
#X connect 42 0 44 0;
#X connect 44 0 9 0;
#X connect 46 0 47 0;
#X connect 47 0 9 0;
#X connect 49 0 50 0;
#X connect 50 0 9 0;
#X connect 52 0 55 0;
#X connect 53 0 9 0;
#X connect 55 0 9 0;
#X connect 56 0 58 0;
#X connect 57 0 61 0;
#X connect 58 0 9 0;
#X connect 61 0 9 0;
#X connect 64 0 9 0;
#X connect 65 0 66 0;
#X connect 66 0 9 0;
#X connect 68 0 69 0;
#X connect 69 0 9 0;
#X connect 70 0 35 0;
#X connect 70 1 39 0;
#X connect 70 2 42 0;
#X connect 70 3 46 0;
#X connect 70 4 49 0;
#X connect 70 5 10 0;
#X connect 70 6 52 0;
#X connect 70 7 56 0;
#X connect 70 8 57 0;
#X connect 70 9 11 0;
#X connect 70 10 65 0;
#X connect 70 11 12 0;
#X connect 70 12 68 0;
#X connect 70 13 13 0;
#X connect 70 14 71 0;
#X connect 70 15 14 0;
#X connect 70 16 15 0;
#X connect 70 17 79 0;
#X connect 70 18 17 0;
#X connect 70 19 16 0;
#X connect 70 21 18 0;
#X connect 71 0 72 0;
#X connect 72 0 9 0;
#X connect 79 0 80 0;
#X connect 80 0 9 0;
#X connect 83 0 20 1;
#X restore 264 135 pd change_dur;
#X obj 264 176 s dur;
#X floatatom 265 156 5 0 0 0 - - -;
#X obj 264 123 hradio 8 1 1 22 empty empty empty 0 -8 0 6 -262144 -1
-1 5;
#X obj 297 35 r change;
#X obj 264 48 vradio 15 1 1 3 empty empty empty 0 -8 0 10 -261234 -1
-1 1;
#X obj 264 101 switch 2 1;
#X text 239 47 MAN;
#X text 239 63 RND;
#X text 238 77 SZORT;
#X obj 311 158 hsl 128 15 1 666 1 0 empty empty empty -2 -8 0 10 -4160
-1 -1 0 1;
#N canvas 363 88 754 690 slew_synt 0;
#X obj 29 7 inlet;
#X obj 170 42 bng 15 250 50 0 empty empty empty 17 7 0 10 -262144 -1
-1;
#X obj 29 80 f;
#X obj 29 107 % 4;
#X floatatom 116 135 5 0 0 0 - - -;
#X obj 29 135 sel 0 1 2 3;
#X obj 119 248 bng 15 250 50 0 empty empty empty 17 7 0 10 -262144
-1 -1;
#X obj 193 251 bng 15 250 50 0 empty empty empty 17 7 0 10 -262144
-1 -1;
#X obj 271 254 bng 15 250 50 0 empty empty empty 17 7 0 10 -262144
-1 -1;
#X floatatom 29 369 5 0 0 0 - - -;
#X floatatom 110 368 5 0 0 0 - - -;
#X floatatom 193 371 5 0 0 0 - - -;
#X floatatom 243 405 5 0 0 0 - - -;
#X obj 165 425 sel 0;
#X floatatom 197 455 5 0 0 0 - - -;
#X obj 61 79 + 1;
#X obj 387 324 expr~ $v1 * 2 -1;
#X obj 387 290 phasor~;
#X obj 387 375 *~;
#X text 438 259 slew generator;
#X floatatom 482 140 5 0 0 0 - - -;
#X obj 387 456 throw~ slew;
#X obj 577 12 r dur;
#X obj 11 58 bng 15 250 50 0 empty empty empty 17 7 0 10 -262144 -1
-1;
#X obj 193 344 mtof;
#X obj 544 287 vline~;
#X obj 577 122 / 2;
#X obj 577 90 t f f;
#X obj 679 208 print;
#X obj 29 34 t b b;
#X obj 110 342 mtof;
#X obj 41 254 bng 15 250 50 0 empty empty empty 17 7 0 10 -262144 -1
-1;
#X floatatom 269 369 15 0 0 0 - - -;
#X obj 269 342 mtof;
#X floatatom 653 91 5 0 0 0 - - -;
#X obj 544 317 *~;
#X obj 577 52 / 4;
#X obj 193 287 random 48;
#X obj 110 288 random 127;
#X obj 611 121 * 2;
#X obj 387 261 curve~;
#X text 580 144 ATK;
#X text 620 143 DECAY;
#X obj 621 319 print;
#X obj 435 127 + 2;
#X msg 29 289 20;
#X obj 435 93 * 2;
#X floatatom 540 148 5 0 0 0 - - -;
#X floatatom 670 148 5 0 0 0 - - -;
#X obj 544 200 pack 0 f f f;
#X msg 544 260 1 \$2 0 \, 0 \$3 \$4;
#X floatatom 392 128 5 0 0 0 - - -;
#X obj 269 286 random 200;
#X obj 625 175 + 50;
#X obj 387 406 bp~ 500 0.5;
#X obj 388 200 pack 0 100 0.5;
#X connect 0 0 1 0;
#X connect 0 0 29 0;
#X connect 2 0 15 0;
#X connect 2 0 3 0;
#X connect 3 0 4 0;
#X connect 3 0 5 0;
#X connect 5 0 31 0;
#X connect 5 0 45 0;
#X connect 5 1 6 0;
#X connect 5 1 38 0;
#X connect 5 2 7 0;
#X connect 5 3 8 0;
#X connect 5 3 52 0;
#X connect 7 0 37 0;
#X connect 9 0 13 0;
#X connect 10 0 13 0;
#X connect 11 0 13 0;
#X connect 12 0 13 0;
#X connect 13 1 14 0;
#X connect 13 1 55 0;
#X connect 15 0 2 1;
#X connect 16 0 18 0;
#X connect 17 0 16 0;
#X connect 18 0 54 0;
#X connect 20 0 55 2;
#X connect 22 0 36 0;
#X connect 22 0 46 0;
#X connect 23 0 2 0;
#X connect 24 0 11 0;
#X connect 25 0 35 0;
#X connect 25 0 35 1;
#X connect 26 0 47 0;
#X connect 26 0 49 1;
#X connect 26 0 53 0;
#X connect 27 0 26 0;
#X connect 27 1 39 0;
#X connect 29 0 2 0;
#X connect 29 1 49 0;
#X connect 30 0 10 0;
#X connect 32 0 13 0;
#X connect 33 0 32 0;
#X connect 35 0 18 1;
#X connect 36 0 34 0;
#X connect 36 0 27 0;
#X connect 37 0 24 0;
#X connect 38 0 30 0;
#X connect 39 0 48 0;
#X connect 39 0 49 2;
#X connect 40 0 17 0;
#X connect 44 0 55 1;
#X connect 45 0 9 0;
#X connect 46 0 44 0;
#X connect 46 0 51 0;
#X connect 49 0 50 0;
#X connect 50 0 25 0;
#X connect 52 0 33 0;
#X connect 53 0 49 3;
#X connect 54 0 21 0;
#X connect 55 0 40 0;
#X restore 869 324 pd slew_synt;
#X obj 838 617 catch~ slew;
#X obj 838 661 *~;
#X obj 856 640 tgl 15 0 empty empty empty 17 7 0 10 -262144 -1 -1 0
1;
#X text 1018 396 CHECK BEST RANGE FOR EACH DRUM;
#X obj 297 57 random 20;
#X text 871 187 8-16?;
#X text 728 186 1-7?;
#X obj 956 129 s key;
#X obj 956 106 mtof;
#X floatatom 1003 129 5 0 0 0 - - -;
#X floatatom 956 86 5 0 0 0 - - -;
#X msg 995 87 28;
#X msg 1026 87 30;
#X msg 1057 87 32;
#X msg 1089 87 33;
#X msg 1121 87 35;
#X msg 1153 87 37;
#X msg 1185 87 39;
#X msg 1028 106 42;
#X msg 997 106 40;
#X msg 1061 107 44;
#X text 903 180 EJ WARTOSCI FLOAT POMIEDZY ROBIA COS INNEGO!;
#N canvas 206 83 856 509 8LDRS_IN 0;
#X msg 34 70 close;
#X msg 34 92 devices;
#X msg 151 91 99;
#N canvas 598 325 511 420 serialRead 0;
#X obj 61 115 sel 255;
#X obj 139 174 < 128;
#X obj 139 198 + 1;
#X obj 69 228 gate 2;
#X obj 69 267 - 128;
#X obj 61 338 route 1 2;
#X text 248 102 Close Serial port;
#X text 193 85 Open serial port by number;
#X text 210 131 print available devices (wait for it...);
#X msg 268 10 ports;
#X obj 61 313 zl group 100;
#X obj 61 385 outlet;
#X obj 152 385 outlet;
#X obj 61 9 inlet;
#X obj 15 10 inlet;
#X obj 107 141 t 0 0;
#X obj 61 83 comport 4 115200;
#X connect 0 0 10 0;
#X connect 0 1 15 0;
#X connect 1 0 2 0;
#X connect 2 0 3 0;
#X connect 3 0 4 0;
#X connect 3 1 10 0;
#X connect 4 0 10 0;
#X connect 5 0 11 0;
#X connect 5 1 12 0;
#X connect 9 0 16 0;
#X connect 10 0 5 0;
#X connect 13 0 16 0;
#X connect 14 0 16 0;
#X connect 15 0 3 1;
#X connect 15 1 1 0;
#X connect 16 0 0 0;
#X restore 63 115 pd serialRead;
#N canvas 333 301 887 470 digitalIns 0;
#X obj 374 131 unpack 0 0;
#X obj 376 189 +;
#X text 439 132 digital;
#X obj 329 251 & 1;
#X obj 327 285 == 0;
#X obj 365 285 == 0;
#X obj 367 251 & 2;
#X obj 405 285 == 0;
#X obj 443 285 == 0;
#X obj 407 251 & 4;
#X obj 445 251 & 8;
#X obj 477 284 == 0;
#X obj 515 284 == 0;
#X obj 555 284 == 0;
#X obj 593 284 == 0;
#X obj 479 250 & 16;
#X obj 517 250 & 32;
#X obj 557 250 & 64;
#X obj 595 250 & 128;
#X obj 634 283 == 0;
#X obj 674 283 == 0;
#X obj 712 283 == 0;
#X obj 636 249 & 256;
#X obj 676 249 & 512;
#X obj 714 249 & 1024;
#X obj 444 324 pack 0 0 0 0 0 0 0 0 0 0 0;
#X text 627 321 digital outs;
#X obj 444 346 unpack 0 0 0 0 0 0 0 0 0 0 0 0;
#X floatatom 681 376 5 0 0 0 - - -;
#X text 367 324 digital outs;
#X obj 180 75 inlet;
#X obj 617 387 tgl 15 0 empty empty empty 17 7 0 10 -262144 -1 -1 0
1;
#X obj 595 387 tgl 15 0 empty empty empty 17 7 0 10 -262144 -1 -1 0
1;
#X obj 661 391 tgl 15 0 empty empty empty 17 7 0 10 -262144 -1 -1 0
1;
#X obj 639 388 tgl 15 0 empty empty empty 17 7 0 10 -262144 -1 -1 0
1;
#X obj 470 388 tgl 15 0 empty empty empty 17 7 0 10 -262144 -1 -1 0
1;
#X obj 448 388 tgl 15 0 empty empty empty 17 7 0 10 -262144 -1 -1 0
1;
#X obj 428 390 tgl 15 0 empty empty empty 17 7 0 10 -262144 -1 -1 0
1;
#X obj 492 389 tgl 15 0 empty empty empty 17 7 0 10 -262144 -1 -1 0
1;
#X obj 554 382 tgl 15 0 empty empty empty 17 7 0 10 -262144 -1 -1 0
1;
#X obj 532 382 tgl 15 0 empty empty empty 17 7 0 10 -262144 -1 -1 0
1;
#X obj 512 384 tgl 15 0 empty empty empty 17 7 0 10 -262144 -1 -1 0
1;
#X obj 576 383 tgl 15 0 empty empty empty 17 7 0 10 -262144 -1 -1 0
1;
#X obj 423 157 << 7;
#X connect 0 0 1 0;
#X connect 0 1 43 0;
#X connect 1 0 3 0;
#X connect 1 0 6 0;
#X connect 1 0 9 0;
#X connect 1 0 10 0;
#X connect 1 0 15 0;
#X connect 1 0 16 0;
#X connect 1 0 17 0;
#X connect 1 0 18 0;
#X connect 1 0 22 0;
#X connect 1 0 23 0;
#X connect 1 0 24 0;
#X connect 3 0 4 0;
#X connect 4 0 25 0;
#X connect 5 0 25 1;
#X connect 6 0 5 0;
#X connect 7 0 25 2;
#X connect 8 0 25 3;
#X connect 9 0 7 0;
#X connect 10 0 8 0;
#X connect 11 0 25 4;
#X connect 12 0 25 5;
#X connect 13 0 25 6;
#X connect 14 0 25 7;
#X connect 15 0 11 0;
#X connect 16 0 12 0;
#X connect 17 0 13 0;
#X connect 18 0 14 0;
#X connect 19 0 25 8;
#X connect 20 0 25 9;
#X connect 21 0 25 10;
#X connect 22 0 19 0;
#X connect 23 0 20 0;
#X connect 24 0 21 0;
#X connect 25 0 27 0;
#X connect 27 0 37 0;
#X connect 27 1 36 0;
#X connect 27 2 35 0;
#X connect 27 3 38 0;
#X connect 27 4 41 0;
#X connect 27 5 40 0;
#X connect 27 6 39 0;
#X connect 27 7 42 0;
#X connect 27 8 32 0;
#X connect 27 9 31 0;
#X connect 27 10 34 0;
#X connect 27 11 28 0;
#X connect 30 0 0 0;
#X connect 43 0 1 1;
#X restore 218 150 pd digitalIns;
#X floatatom 302 216 5 0 0 0 - - -;
#X floatatom 263 216 5 0 0 0 - - -;
#X floatatom 341 216 5 0 0 0 - - -;
#X floatatom 380 216 5 0 0 0 - - -;
#X floatatom 419 216 5 0 0 0 - - -;
#X floatatom 458 216 5 0 0 0 - - -;
#X floatatom 185 216 5 0 0 0 - - -;
#X floatatom 224 216 5 0 0 0 - - -;
#X msg 35 46 open 4;
#X obj 151 46 loadbang;
#X obj 151 69 del 2000;
#N canvas 64 35 657 296 demultiplex_analogVal 0;
#X obj 106 98 << 7;
#X obj 40 190 listfunnel;
#X obj 39 70 zl slice 1;
#X obj 39 126 +;
#X text 127 161 FOR DIFFRENT MULTIPLEXERS AMOUNT LOOK INSIDE;
#X obj 39 15 inlet;
#X obj 39 44 zl iter 2;
#X text 145 99 shit 7 bits to read next component;
#X obj 40 222 outlet;
#X obj 40 158 zl group 28;
#X connect 0 0 3 1;
#X connect 1 0 8 0;
#X connect 2 0 3 0;
#X connect 2 1 0 0;
#X connect 3 0 9 0;
#X connect 5 0 6 0;
#X connect 6 0 2 0;
#X connect 9 0 1 0;
#X restore 36 150 pd demultiplex_analogVal;
#X obj 36 176 spray 8;
#N canvas 0 22 450 300 (subpatch) 0;
#X array 8LDRS 8 float 3;
#A 0 672.912 702.169 680.226 665.598 672.912 680.226 680.226 680.226
;
#X coords 0 1024 8 0 200 140 1 0 0;
#X restore 371 32 graph;
#X obj 564 242 bng 15 250 50 0 empty empty empty 17 7 0 10 -262144
-1 -1;
#X obj 564 262 f;
#X obj 564 286 % 16;
#X obj 600 262 + 1;
#X obj 564 313 hradio 15 1 0 16 empty empty empty 0 -8 0 10 -262144
-1 -1 0;
#X floatatom 129 363 5 0 16 0 - - -;
#X obj 129 386 int;
#X floatatom 36 387 5 0 0 0 - - -;
#X obj 36 279 listfunnel;
#X text 35 434 value;
#X obj 36 306 unpack 0 0;
#X obj 36 353 swap;
#X floatatom 76 387 5 0 0 0 - - -;
#X obj 564 219 metro 250;
#X obj 36 215 pack f f f f f f f f;
#X obj 36 413 tabwrite 8LDRS;
#X obj 565 334 tabread 8LDRS;
#X text 564 194 For instance:;
#N canvas 0 22 450 278 (subpatch) 0;
#X array 8LDRS_01 8 float 2;
#X coords 0 1 8 0 200 140 1 0 0;
#X restore 582 32 graph;
#X text 164 113 magic number=start receiving;
#X obj 185 250 t l l;
#X text 86 434 index (0-7);
#X floatatom 332 379 5 0 16 0 - - -;
#X obj 332 402 int;
#X floatatom 217 403 5 0 0 0 - - -;
#X obj 217 276 listfunnel;
#X text 216 450 value;
#X obj 217 303 unpack 0 0;
#X obj 217 359 swap;
#X floatatom 257 403 5 0 0 0 - - -;
#X text 267 450 index (0-7);
#X obj 284 330 / 1024;
#X obj 217 429 tabwrite 8LDRS_01;
#X text 337 328 scale sensors to 0-1;
#X obj 426 298 print;
#X obj 420 267 spigot;
#X obj 458 245 tgl 15 0 empty empty empty 17 7 0 10 -262144 -1 -1 0
1;
#X obj 400 405 s ldr2_01;
#X msg 90 30 open \$1;
#X msg 85 7 5;
#X connect 0 0 3 0;
#X connect 1 0 3 0;
#X connect 2 0 3 1;
#X connect 3 0 16 0;
#X connect 3 1 4 0;
#X connect 12 0 54 0;
#X connect 13 0 3 0;
#X connect 14 0 15 0;
#X connect 15 0 2 0;
#X connect 16 0 17 0;
#X connect 17 0 11 0;
#X connect 17 0 33 0;
#X connect 17 1 12 0;
#X connect 17 1 33 1;
#X connect 17 2 6 0;
#X connect 17 2 33 2;
#X connect 17 3 5 0;
#X connect 17 3 33 3;
#X connect 17 4 7 0;
#X connect 17 4 33 4;
#X connect 17 5 8 0;
#X connect 17 5 33 5;
#X connect 17 6 9 0;
#X connect 17 6 33 6;
#X connect 17 7 10 0;
#X connect 17 7 33 7;
#X connect 19 0 20 0;
#X connect 20 0 21 0;
#X connect 20 0 22 0;
#X connect 21 0 23 0;
#X connect 22 0 20 1;
#X connect 23 0 35 0;
#X connect 24 0 25 0;
#X connect 25 0 34 1;
#X connect 26 0 34 0;
#X connect 27 0 29 0;
#X connect 29 0 30 0;
#X connect 29 1 30 1;
#X connect 30 0 26 0;
#X connect 30 1 31 0;
#X connect 31 0 34 1;
#X connect 32 0 19 0;
#X connect 33 0 39 0;
#X connect 39 0 27 0;
#X connect 39 1 44 0;
#X connect 41 0 42 0;
#X connect 42 0 51 1;
#X connect 43 0 51 0;
#X connect 44 0 46 0;
#X connect 46 0 47 0;
#X connect 46 1 50 0;
#X connect 47 0 43 0;
#X connect 47 1 48 0;
#X connect 48 0 51 1;
#X connect 50 0 47 1;
#X connect 54 0 53 0;
#X connect 55 0 54 1;
#X connect 57 0 3 0;
#X connect 58 0 57 0;
#X restore 546 35 pd 8LDRS_IN;
#X obj 331 78 + 22;
#X obj 973 664 *~;
#X obj 991 643 tgl 15 0 empty empty empty 17 7 0 10 -262144 -1 -1 0
1;
#X obj 973 620 catch~ sisynt3;
#X obj 93 60 tgl 15 0 empty empty empty 17 7 0 10 -262144 -1 -1 0 1
;
#X floatatom 174 59 8 0 0 0 - - -;
#X text 106 58 HOW OFTEN;
#X text 538 9 SCOPE W PD EXTERNAL POWODUJE CRASH JAK SIE OTWORZY W
PD;
#X floatatom 21 107 5 0 0 0 - - -;
#X text 962 70 Global key \, now we're at 60hz;
#X text 107 106 RDMz step amt?;
#N canvas 326 46 296 502 temp_chng 0;
#X obj 39 49 inlet;
#X obj 63 435 outlet;
#X obj 63 358 line;
#X floatatom 94 382 5 0 0 0 - - -;
#X floatatom 63 274 5 0 0 0 - - -;
#X msg 63 321 \$1 \$2;
#X floatatom 160 280 5 0 0 0 - - -;
#X obj 64 147 metro 2000;
#X obj 63 298 pack f 5000;
#X obj 148 202 random 30000;
#X obj 64 173 t b b;
#X obj 158 92 inlet;
#X obj 64 234 + 60;
#X msg 172 329 stop;
#X msg 38 124 1;
#X msg 83 119 0;
#X obj 100 80 t b b;
#X obj 39 79 sel 1;
#X obj 172 144 bng 15 250 50 0 empty empty empty 17 7 0 10 -262144
-1 -1;
#X obj 201 144 bng 15 250 50 0 empty empty empty 17 7 0 10 -262144
-1 -1;
#X obj 64 201 random 160;
#X connect 0 0 17 0;
#X connect 2 0 3 0;
#X connect 2 0 1 0;
#X connect 4 0 8 0;
#X connect 5 0 2 0;
#X connect 6 0 8 1;
#X connect 7 0 10 0;
#X connect 8 0 5 0;
#X connect 9 0 8 1;
#X connect 10 0 20 0;
#X connect 10 1 9 0;
#X connect 11 0 7 1;
#X connect 12 0 4 0;
#X connect 13 0 2 0;
#X connect 14 0 7 0;
#X connect 15 0 7 0;
#X connect 16 0 15 0;
#X connect 16 1 13 0;
#X connect 16 1 19 0;
#X connect 17 0 14 0;
#X connect 17 0 18 0;
#X connect 17 1 16 0;
#X connect 20 0 12 0;
#X restore 93 80 pd temp_chng;
#X text 107 129 S clock?;
#N canvas 135 351 597 315 ctrl_audio_in_by_LDRS 0;
#X obj 37 42 adc~ 1 2;
#X obj 37 91 *~;
#X obj 90 91 *~;
#X obj 137 32 hsl 128 15 0 5 0 0 empty empty GAIN -2 -8 0 10 -258113
-1 -1 0 1;
#X floatatom 183 50 5 0 0 0 - - -;
#X obj 134 73 line~;
#X msg 134 51 \$1 20;
#X obj 321 65 sig~;
#X obj 320 13 r ldr2_01;
#X floatatom 371 54 5 0 0 0 - - -;
#X obj 427 132 tabread 8LDRS_01;
#X obj 427 61 metro 1;
#X obj 427 42 tgl 15 0 empty empty empty 17 7 0 10 -262144 -1 -1 0
1;
#X floatatom 429 161 5 0 0 0 - - -;
#X msg 427 86 1;
#X obj 155 235 dac~;
#X obj 229 154 line~;
#X msg 236 116 \$1 20;
#X obj 154 170 *~;
#X connect 0 0 1 0;
#X connect 0 1 2 0;
#X connect 1 0 18 0;
#X connect 2 0 18 0;
#X connect 3 0 6 0;
#X connect 3 0 4 0;
#X connect 5 0 2 1;
#X connect 5 0 1 1;
#X connect 6 0 5 0;
#X connect 7 0 18 1;
#X connect 10 0 13 0;
#X connect 11 0 14 0;
#X connect 12 0 11 0;
#X connect 13 0 7 0;
#X connect 14 0 10 0;
#X connect 18 0 15 0;
#X connect 18 0 15 1;
#X restore 467 112 pd ctrl_audio_in_by_LDRS;
#X obj 152 26 line;
#X obj 199 145 print;
#X msg 121 3 80;
#X msg 152 3 800 600000;
#X msg 238 6 200 600000;
#X msg 91 3 20;
#X msg 324 5 80 60000;
#N canvas 285 86 760 461 midi_in 0;
#X obj 159 12 ctlin;
#X floatatom 197 60 5 0 0 0 - - -;
#X floatatom 144 59 5 0 0 0 - - -;
#X obj 143 110 route 73 72 74 71;
#X obj 144 85 pack f f;
#X floatatom 29 149 5 0 0 0 - - -;
#X floatatom 170 148 5 0 0 0 - - -;
#X floatatom 236 147 5 0 0 0 - - -;
#X floatatom 323 147 5 0 0 0 - - -;
#X obj 28 230 s length;
#X floatatom 100 232 5 0 0 0 - - -;
#X obj 170 177 > 64;
#X obj 170 226 tgl 15 0 empty empty empty 17 7 0 10 -262144 -1 -1 0
1;
#X obj 170 202 change;
#X obj 170 258 s randomize_steps;
#X floatatom 607 76 0 0 0 0 - - -;
#X obj 461 30 notein;
#X floatatom 588 99 0 0 0 0 - - -;
#X text 637 77 velocity;
#X text 618 99 note;
#X floatatom 497 193 5 0 0 0 - - -;
#X floatatom 563 192 5 0 0 0 - - -;
#X floatatom 650 192 5 0 0 0 - - -;
#X obj 497 222 > 64;
#X obj 497 271 tgl 15 0 empty empty empty 17 7 0 10 -262144 -1 -1 0
1;
#X obj 497 247 change;
#X obj 470 155 route 72 73 74 75;
#X floatatom 524 106 5 0 0 0 - - -;
#X floatatom 471 105 5 0 0 0 - - -;
#X obj 471 131 pack f f;
#X floatatom 426 214 5 0 0 0 - - -;
#X obj 426 268 change;
#X obj 466 320 + 1;
#X obj 426 320 f;
#X floatatom 549 360 5 0 0 0 - - -;
#X obj 426 296 bng 15 250 50 0 empty empty empty 17 7 0 10 -262144
-1 -1;
#X obj 426 243 == 0;
#X obj 426 354 % 2;
#X floatatom 485 384 5 0 0 0 - - -;
#X obj 421 389 sel 0;
#X obj 322 193 > 64;
#X obj 322 242 tgl 15 0 empty empty empty 17 7 0 10 -262144 -1 -1 0
1;
#X obj 322 218 change;
#X obj 322 274 s start_stop;
#X obj 28 201 scale 1 126 1 200;
#X connect 0 0 1 0;
#X connect 0 1 2 0;
#X connect 1 0 4 1;
#X connect 2 0 4 0;
#X connect 3 0 5 0;
#X connect 3 1 6 0;
#X connect 3 2 7 0;
#X connect 3 3 8 0;
#X connect 4 0 3 0;
#X connect 5 0 44 0;
#X connect 6 0 11 0;
#X connect 7 0 40 0;
#X connect 11 0 13 0;
#X connect 12 0 14 0;
#X connect 13 0 12 0;
#X connect 16 0 17 0;
#X connect 16 0 28 0;
#X connect 16 1 15 0;
#X connect 16 1 27 0;
#X connect 20 0 23 0;
#X connect 23 0 25 0;
#X connect 25 0 24 0;
#X connect 26 0 30 0;
#X connect 26 1 20 0;
#X connect 26 2 21 0;
#X connect 26 3 22 0;
#X connect 27 0 29 1;
#X connect 28 0 29 0;
#X connect 29 0 26 0;
#X connect 30 0 36 0;
#X connect 31 0 35 0;
#X connect 32 0 33 1;
#X connect 33 0 32 0;
#X connect 33 0 34 0;
#X connect 33 0 37 0;
#X connect 35 0 33 0;
#X connect 36 0 31 0;
#X connect 37 0 38 0;
#X connect 40 0 42 0;
#X connect 41 0 43 0;
#X connect 42 0 41 0;
#X connect 44 0 9 0;
#X connect 44 0 10 0;
#X restore 545 60 pd midi_in;
#X obj 860 36 r length;
#X obj 487 146 r randomize_steps;
#X obj -2 3 r start_stop;
#N canvas 16 23 717 569 KEYS_in 0;
#X obj 289 530 s length;
#X obj 152 264 s randomize_steps;
#X obj 35 83 key;
#X text 34 32 S = start / stop;
#X text 35 43 R = randomixe steps ON/ off;
#X text 35 58 K L / MIDI len UP down;
#X obj 75 160 + 1;
#X obj 35 160 f;
#X obj 35 136 bng 15 250 50 0 empty empty empty 17 7 0 10 -262144 -1
-1;
#X obj 34 264 s start_stop;
#X obj 34 184 % 2;
#X obj 34 211 == 1;
#X obj 34 237 tgl 15 0 empty empty empty 17 7 0 10 -262144 -1 -1 1
1;
#X text 34 19 CONTROL PATCH WITH KEYBORD;
#X obj 193 168 + 1;
#X obj 153 168 f;
#X obj 153 144 bng 15 250 50 0 empty empty empty 17 7 0 10 -262144
-1 -1;
#X obj 152 192 % 2;
#X obj 152 219 == 1;
#X obj 152 245 tgl 15 0 empty empty empty 17 7 0 10 -262144 -1 -1 1
1;
#X obj 35 108 route 115 114 107 108, f 75;
#X obj 289 315 switch, f 42;
#X obj 434 231 f;
#X obj 434 207 bng 15 250 50 0 empty empty empty 17 7 0 10 -262144
-1 -1;
#X obj 474 231 - 1;
#X obj 580 234 f;
#X obj 580 210 bng 15 250 50 0 empty empty empty 17 7 0 10 -262144
-1 -1;
#X obj 620 234 + 1;
#X obj 289 153 key;
#X obj 289 216 == 107;
#X obj 289 183 t f f;
#X obj 338 215 == 108;
#X msg 289 269 1;
#X msg 338 269 2;
#X obj 317 272 bng 15 250 50 0 empty empty empty 17 7 0 10 -262144
-1 -1;
#X obj 290 241 sel 1;
#X obj 338 239 sel 1;
#X obj 370 271 bng 15 250 50 0 empty empty empty 17 7 0 10 -262144
-1 -1;
#X obj 187 359 loadbang;
#X msg 187 383 8;
#X obj 310 352 bng 15 250 50 0 empty empty empty 17 7 0 10 -262144
-1 -1;
#X obj 289 484 f;
#X obj 289 402 t b f;
#X obj 340 482 +;
#X floatatom 397 416 5 0 0 0 - - -;
#X floatatom 381 358 5 0 0 0 - - -;
#X floatatom 289 506 5 0 0 0 - - -;
#X msg 434 266 -1;
#X msg 580 267 1;
#X connect 2 0 20 0;
#X connect 6 0 7 1;
#X connect 7 0 6 0;
#X connect 7 0 10 0;
#X connect 8 0 7 0;
#X connect 10 0 11 0;
#X connect 11 0 12 0;
#X connect 12 0 9 0;
#X connect 14 0 15 1;
#X connect 15 0 14 0;
#X connect 15 0 17 0;
#X connect 16 0 15 0;
#X connect 17 0 18 0;
#X connect 18 0 19 0;
#X connect 19 0 1 0;
#X connect 20 0 8 0;
#X connect 20 1 16 0;
#X connect 20 2 23 0;
#X connect 20 3 26 0;
#X connect 21 0 40 0;
#X connect 21 0 42 0;
#X connect 21 0 45 0;
#X connect 22 0 24 0;
#X connect 22 0 47 0;
#X connect 23 0 22 0;
#X connect 24 0 22 1;
#X connect 25 0 27 0;
#X connect 25 0 48 0;
#X connect 26 0 25 0;
#X connect 27 0 25 1;
#X connect 28 0 30 0;
#X connect 29 0 35 0;
#X connect 30 0 29 0;
#X connect 30 1 31 0;
#X connect 31 0 36 0;
#X connect 32 0 21 0;
#X connect 33 0 21 0;
#X connect 35 0 34 0;
#X connect 35 0 32 0;
#X connect 36 0 37 0;
#X connect 36 0 33 0;
#X connect 38 0 39 0;
#X connect 39 0 41 1;
#X connect 41 0 43 0;
#X connect 41 0 46 0;
#X connect 42 0 41 0;
#X connect 42 1 44 0;
#X connect 42 1 43 1;
#X connect 43 0 41 1;
#X connect 46 0 0 0;
#X connect 47 0 21 1;
#X connect 48 0 21 2;
#X restore 546 84 pd KEYS_in;
#X connect 0 0 55 1;
#X connect 2 0 1 0;
#X connect 3 0 8 0;
#X connect 4 0 17 0;
#X connect 5 0 3 0;
#X connect 5 1 81 0;
#X connect 6 0 20 0;
#X connect 8 0 31 0;
#X connect 8 1 7 0;
#X connect 9 0 10 0;
#X connect 10 0 16 0;
#X connect 10 0 16 1;
#X connect 11 0 10 1;
#X connect 13 0 14 0;
#X connect 14 0 16 0;
#X connect 14 0 16 1;
#X connect 15 0 14 1;
#X connect 17 0 33 0;
#X connect 17 1 12 0;
#X connect 18 0 16 0;
#X connect 18 0 16 1;
#X connect 19 0 18 1;
#X connect 20 0 35 0;
#X connect 20 1 196 0;
#X connect 21 0 24 0;
#X connect 22 0 25 0;
#X connect 23 0 26 0;
#X connect 24 0 37 0;
#X connect 24 1 205 0;
#X connect 25 0 39 0;
#X connect 25 1 61 0;
#X connect 26 0 41 0;
#X connect 26 1 62 0;
#X connect 27 0 29 0;
#X connect 28 0 30 0;
#X connect 29 0 43 0;
#X connect 29 1 224 0;
#X connect 30 0 45 0;
#X connect 30 1 63 0;
#X connect 31 0 142 0;
#X connect 32 0 31 1;
#X connect 33 0 153 0;
#X connect 34 0 33 1;
#X connect 35 0 155 0;
#X connect 36 0 35 1;
#X connect 37 0 166 0;
#X connect 38 0 37 1;
#X connect 39 0 167 0;
#X connect 40 0 39 1;
#X connect 41 0 178 0;
#X connect 42 0 41 1;
#X connect 43 0 179 0;
#X connect 44 0 43 1;
#X connect 45 0 190 0;
#X connect 46 0 45 1;
#X connect 48 0 47 0;
#X connect 52 0 50 0;
#X connect 53 0 51 0;
#X connect 55 0 85 0;
#X connect 55 1 87 0;
#X connect 58 0 59 0;
#X connect 59 0 16 0;
#X connect 59 0 16 1;
#X connect 60 0 59 1;
#X connect 64 0 134 1;
#X connect 67 0 135 1;
#X connect 70 0 137 1;
#X connect 72 0 138 1;
#X connect 74 0 139 1;
#X connect 76 0 140 1;
#X connect 78 0 141 1;
#X connect 80 0 5 0;
#X connect 82 0 5 0;
#X connect 85 0 84 0;
#X connect 86 0 85 1;
#X connect 87 0 83 0;
#X connect 88 0 87 1;
#X connect 89 0 5 1;
#X connect 90 0 4 0;
#X connect 90 1 93 0;
#X connect 92 0 90 0;
#X connect 94 0 90 0;
#X connect 95 0 90 1;
#X connect 98 0 6 0;
#X connect 98 1 101 0;
#X connect 100 0 98 0;
#X connect 102 0 98 0;
#X connect 103 0 98 1;
#X connect 104 0 21 0;
#X connect 104 1 107 0;
#X connect 106 0 104 0;
#X connect 108 0 104 0;
#X connect 109 0 104 1;
#X connect 110 0 22 0;
#X connect 110 1 113 0;
#X connect 112 0 110 0;
#X connect 114 0 110 0;
#X connect 115 0 110 1;
#X connect 116 0 23 0;
#X connect 116 1 119 0;
#X connect 118 0 116 0;
#X connect 120 0 116 0;
#X connect 121 0 116 1;
#X connect 122 0 27 0;
#X connect 122 1 125 0;
#X connect 124 0 122 0;
#X connect 126 0 122 0;
#X connect 127 0 122 1;
#X connect 128 0 28 0;
#X connect 128 1 131 0;
#X connect 130 0 128 0;
#X connect 132 0 128 0;
#X connect 133 0 128 1;
#X connect 142 0 134 0;
#X connect 142 1 145 0;
#X connect 143 0 134 1;
#X connect 144 0 147 0;
#X connect 145 0 144 0;
#X connect 146 0 145 1;
#X connect 147 0 143 0;
#X connect 148 0 135 1;
#X connect 149 0 152 0;
#X connect 150 0 149 0;
#X connect 151 0 150 1;
#X connect 152 0 148 0;
#X connect 153 0 135 0;
#X connect 153 1 150 0;
#X connect 154 0 136 1;
#X connect 155 0 136 0;
#X connect 155 1 158 0;
#X connect 156 0 136 1;
#X connect 157 0 160 0;
#X connect 158 0 157 0;
#X connect 159 0 158 1;
#X connect 160 0 156 0;
#X connect 161 0 137 1;
#X connect 162 0 165 0;
#X connect 163 0 162 0;
#X connect 164 0 163 1;
#X connect 165 0 161 0;
#X connect 166 0 137 0;
#X connect 166 1 163 0;
#X connect 167 0 138 0;
#X connect 167 1 170 0;
#X connect 168 0 138 1;
#X connect 169 0 172 0;
#X connect 170 0 169 0;
#X connect 171 0 170 1;
#X connect 172 0 168 0;
#X connect 173 0 139 1;
#X connect 174 0 177 0;
#X connect 175 0 174 0;
#X connect 176 0 175 1;
#X connect 177 0 173 0;
#X connect 178 0 139 0;
#X connect 178 1 175 0;
#X connect 179 0 140 0;
#X connect 179 1 182 0;
#X connect 180 0 140 1;
#X connect 181 0 184 0;
#X connect 182 0 181 0;
#X connect 183 0 182 1;
#X connect 184 0 180 0;
#X connect 185 0 141 1;
#X connect 186 0 189 0;
#X connect 187 0 186 0;
#X connect 188 0 187 1;
#X connect 189 0 185 0;
#X connect 190 0 141 0;
#X connect 190 1 187 0;
#X connect 192 0 46 0;
#X connect 192 0 44 0;
#X connect 192 0 42 0;
#X connect 192 0 40 0;
#X connect 192 0 38 0;
#X connect 192 0 36 0;
#X connect 192 0 34 0;
#X connect 192 0 32 0;
#X connect 194 0 146 0;
#X connect 194 0 151 0;
#X connect 194 0 159 0;
#X connect 194 0 164 0;
#X connect 194 0 171 0;
#X connect 194 0 176 0;
#X connect 194 0 183 0;
#X connect 194 0 188 0;
#X connect 197 0 202 0;
#X connect 198 0 52 0;
#X connect 199 0 53 0;
#X connect 200 0 48 0;
#X connect 201 0 204 0;
#X connect 202 0 198 0;
#X connect 202 1 199 0;
#X connect 202 2 200 0;
#X connect 204 0 256 0;
#X connect 206 0 18 0;
#X connect 207 0 208 0;
#X connect 208 0 16 0;
#X connect 208 0 16 1;
#X connect 209 0 208 1;
#X connect 210 0 16 1;
#X connect 210 0 16 0;
#X connect 211 0 210 1;
#X connect 212 0 210 0;
#X connect 213 0 215 0;
#X connect 215 0 214 0;
#X connect 216 0 213 0;
#X connect 217 0 229 0;
#X connect 218 0 219 0;
#X connect 219 0 216 0;
#X connect 223 0 215 0;
#X connect 225 0 226 0;
#X connect 226 0 16 0;
#X connect 226 0 16 1;
#X connect 227 0 226 1;
#X connect 229 0 219 1;
#X connect 229 0 248 0;
#X connect 233 0 234 0;
#X connect 233 0 232 0;
#X connect 235 0 233 0;
#X connect 236 0 233 0;
#X connect 237 0 233 0;
#X connect 238 0 233 0;
#X connect 239 0 233 0;
#X connect 240 0 233 0;
#X connect 241 0 233 0;
#X connect 242 0 233 0;
#X connect 243 0 233 0;
#X connect 244 0 233 0;
#X connect 245 0 233 0;
#X connect 248 0 219 2;
#X connect 249 0 16 0;
#X connect 249 0 16 1;
#X connect 250 0 249 1;
#X connect 251 0 249 0;
#X connect 252 0 259 0;
#X connect 253 0 259 1;
#X connect 256 0 55 0;
#X connect 259 0 256 0;
#X connect 262 0 256 0;
#X connect 264 0 262 0;
#X connect 265 0 262 0;
#X connect 266 0 262 0;
#X connect 267 0 262 0;
#X connect 268 0 262 0;
#X connect 270 0 48 0;
#X connect 271 0 86 0;
#X connect 272 0 0 0;
