#N canvas 0 -877 1397 829 12;
#X text 696 22 spacing steps in sequance evenly;
#X text 689 51 [ 0 0 0 0 0 0 0 0 ];
#X text 690 72 [ 1 1 1 0 0 0 0 0 ];
#X text 690 94 [ 1 0 1 0 1 0 0 0 ];
#X text 691 117 [ 1 0 0 1 0 0 1 0 ];
#X text 696 160 most evenly spaced;
#X text 695 139 how do we do it with an algorhitms?;
#X obj 266 74 metro 200;
#X obj 266 45 tgl 15 0 empty empty empty 17 7 0 10 -262144 -1 -1 1
1;
#X obj 267 102 f;
#X obj 302 102 + 1;
#X obj 225 75 == 0;
#X obj 267 134 % 16;
#X floatatom 222 334 5 0 16 0 - - -;
#X obj 160 547 *~;
#X obj 302 485 vline~;
#X obj 433 539 *~;
#X obj 434 600 dac~;
#N canvas 0 23 450 300 bpm_to_MS 0;
#X obj 61 20 inlet;
#X obj 76 246 outlet;
#X text 111 56 BPM to MS Equation: The equation is 60 \, 0 / BPM =
MS;
#X text 158 185 whole note;
#X text 162 209 quarter note;
#X text 227 80 MS * BPM = 60000;
#X text 225 99 BPM = 60000 / MS;
#X floatatom 76 185 10 0 0 0 - - -;
#X floatatom 61 61 5 0 0 0 - - -;
#X obj 76 159 /;
#X msg 43 118 60000;
#X obj 62 85 t b f;
#X obj 76 211 / 4;
#X connect 0 0 8 0;
#X connect 7 0 12 0;
#X connect 8 0 11 0;
#X connect 9 0 7 0;
#X connect 10 0 9 0;
#X connect 11 0 10 0;
#X connect 11 1 9 1;
#X connect 12 0 1 0;
#X restore 326 45 pd bpm_to_MS;
#X floatatom 348 72 5 0 0 0 - - -;
#X floatatom 326 21 5 0 0 0 - - -;
#X msg 574 66 \; pd dsp \$1;
#X obj 575 45 tgl 15 0 empty empty empty 17 7 0 10 -262144 -1 -1 1
1;
#X obj 162 379 hradio 10 1 0 16 empty empty empty 0 -8 0 10 -262144
-1 -1 11;
#X obj 433 401 hradio 10 1 0 16 empty empty empty 0 -8 0 10 -262144
-1 -1 10;
#N canvas 0 22 419 411 euclid 0;
#X obj 57 25 inlet;
#X obj 72 336 outlet;
#X obj 159 24 inlet;
#X floatatom 159 92 5 0 0 0 - - -;
#X obj 46 119 + 0;
#X text -75 118 offset the start;
#X obj 46 144 *;
#X obj 46 168 % 16;
#X obj 46 192 <;
#X obj 46 216 sel 1;
#X obj 46 251 bng 15 250 50 0 empty empty empty 17 7 0 10 -262144 -1
-1;
#X text 6 248 notes;
#X obj 78 252 bng 15 250 50 0 empty empty empty 17 7 0 10 -262144 -1
-1;
#X text 97 250 rests;
#X obj 56 89 t f f;
#X obj 72 302 f;
#X text 100 302 store the step number;
#X text -42 86 step number;
#X text 163 117 number of hits we want;
#X connect 0 0 14 0;
#X connect 2 0 3 0;
#X connect 2 0 6 1;
#X connect 2 0 8 1;
#X connect 4 0 6 0;
#X connect 6 0 7 0;
#X connect 7 0 8 0;
#X connect 8 0 9 0;
#X connect 9 0 10 0;
#X connect 9 1 12 0;
#X connect 10 0 15 0;
#X connect 14 0 4 0;
#X connect 14 1 15 1;
#X connect 15 0 1 0;
#X restore 162 356 pd euclid;
#X floatatom 426 100 5 0 32 0 - - -;
#N canvas 0 22 419 411 euclid 0;
#X obj 57 25 inlet;
#X obj 72 336 outlet;
#X obj 159 24 inlet;
#X floatatom 159 92 5 0 0 0 - - -;
#X obj 46 119 + 0;
#X text -75 118 offset the start;
#X obj 46 144 *;
#X obj 46 168 % 16;
#X obj 46 192 <;
#X obj 46 216 sel 1;
#X obj 46 251 bng 15 250 50 0 empty empty empty 17 7 0 10 -262144 -1
-1;
#X text 6 248 notes;
#X obj 78 252 bng 15 250 50 0 empty empty empty 17 7 0 10 -262144 -1
-1;
#X text 97 250 rests;
#X obj 56 89 t f f;
#X obj 72 302 f;
#X text 100 302 store the step number;
#X text -42 86 step number;
#X text 163 117 number of hits we want;
#X connect 0 0 14 0;
#X connect 2 0 3 0;
#X connect 2 0 6 1;
#X connect 2 0 8 1;
#X connect 4 0 6 0;
#X connect 6 0 7 0;
#X connect 7 0 8 0;
#X connect 8 0 9 0;
#X connect 9 0 10 0;
#X connect 9 1 12 0;
#X connect 10 0 15 0;
#X connect 14 0 4 0;
#X connect 14 1 15 1;
#X connect 15 0 1 0;
#X restore 433 377 pd euclid;
#X obj 267 211 sel 1;
#X obj 222 309 random 16;
#X obj 162 280 r clock;
#X obj 323 183 s clock;
#X obj 267 159 t f f;
#X obj 433 281 r clock;
#X obj 267 238 s change;
#X obj 239 239 bng 15 250 50 0 empty empty empty 17 7 0 10 -262144
-1 -1;
#X obj 222 280 r change;
#X floatatom 493 334 5 0 16 0 - - -;
#X obj 493 309 random 16;
#X obj 493 280 r change;
#X obj 600 402 hradio 10 1 0 16 empty empty empty 0 -8 0 10 -262144
-1 -1 11;
#N canvas 0 22 419 411 euclid 0;
#X obj 57 25 inlet;
#X obj 72 336 outlet;
#X obj 159 24 inlet;
#X floatatom 159 92 5 0 0 0 - - -;
#X obj 46 119 + 0;
#X text -75 118 offset the start;
#X obj 46 144 *;
#X obj 46 168 % 16;
#X obj 46 192 <;
#X obj 46 216 sel 1;
#X obj 46 251 bng 15 250 50 0 empty empty empty 17 7 0 10 -262144 -1
-1;
#X text 6 248 notes;
#X obj 78 252 bng 15 250 50 0 empty empty empty 17 7 0 10 -262144 -1
-1;
#X text 97 250 rests;
#X obj 56 89 t f f;
#X obj 72 302 f;
#X text 100 302 store the step number;
#X text -42 86 step number;
#X text 163 117 number of hits we want;
#X connect 0 0 14 0;
#X connect 2 0 3 0;
#X connect 2 0 6 1;
#X connect 2 0 8 1;
#X connect 4 0 6 0;
#X connect 6 0 7 0;
#X connect 7 0 8 0;
#X connect 8 0 9 0;
#X connect 9 0 10 0;
#X connect 9 1 12 0;
#X connect 10 0 15 0;
#X connect 14 0 4 0;
#X connect 14 1 15 1;
#X connect 15 0 1 0;
#X restore 600 378 pd euclid;
#X obj 600 282 r clock;
#X floatatom 660 335 5 0 16 0 - - -;
#X text 606 355 number of hits we want;
#X obj 660 310 random 16;
#X obj 660 281 r change;
#X text 478 351 number of hits;
#X obj 348 95 s dur;
#X obj 327 371 r dur;
#X obj 160 432 f;
#X obj 433 512 vline~;
#X obj 451 415 r dur;
#X msg 432 487 0.5 10 \, 0 \$1 10;
#X obj 433 436 f;
#X obj 600 530 *~;
#X obj 600 591 dac~;
#X obj 667 501 vline~;
#X obj 684 420 r dur;
#X msg 666 478 0.5 10 \, 0 \$1 10;
#X obj 666 454 f;
#X obj 600 471 mtof;
#X obj 600 499 osc~ 660;
#X obj 600 448 + 72;
#X obj 505 512 noise~ 440;
#X text 163 98 reset count;
#X text 162 109 w clk start;
#X text 427 74 upper lim for %;
#X obj 267 183 == 0;
#X text 318 213 select different divisions on every loop of seq;
#X obj 302 513 *~;
#X obj 160 508 osc~ 60;
#X obj 160 483 vline~;
#X obj 160 400 t b b;
#X obj 434 571 *~;
#X obj 471 547 tgl 15 0 empty empty empty 17 7 0 10 -262144 -1 -1 1
1;
#X obj 601 558 *~;
#X obj 640 535 tgl 15 0 empty empty empty 17 7 0 10 -262144 -1 -1 1
1;
#X obj 160 633 dac~;
#X obj 160 604 *~;
#X obj 197 580 tgl 15 0 empty empty empty 17 7 0 10 -262144 -1 -1 1
1;
#X obj 327 394 / 1;
#X floatatom 355 419 5 0 0 0 - - -;
#X obj 284 350 bng 15 250 50 0 empty empty empty 17 7 0 10 -262144
-1 -1;
#X obj 282 549 scope~ 130 130 256 3 128 -1 1 0 0 0 0 205 229 232 74
79 77 96 98 102 0 empty;
#X msg 302 459 1 10 0 \, 0 \$1 500;
#X obj 302 433 f;
#X msg 160 460 400 20 0 \, 40 \$1 20;
#X obj 785 553 *~;
#X obj 785 405 hradio 10 1 0 16 empty empty empty 0 -8 0 10 -262144
-1 -1 8;
#N canvas 0 22 419 411 euclid 0;
#X obj 57 25 inlet;
#X obj 72 336 outlet;
#X obj 159 24 inlet;
#X floatatom 159 92 5 0 0 0 - - -;
#X obj 46 119 + 0;
#X text -75 118 offset the start;
#X obj 46 144 *;
#X obj 46 168 % 16;
#X obj 46 192 <;
#X obj 46 216 sel 1;
#X obj 46 251 bng 15 250 50 0 empty empty empty 17 7 0 10 -262144 -1
-1;
#X text 6 248 notes;
#X obj 78 252 bng 15 250 50 0 empty empty empty 17 7 0 10 -262144 -1
-1;
#X text 97 250 rests;
#X obj 56 89 t f f;
#X obj 72 302 f;
#X text 100 302 store the step number;
#X text -42 86 step number;
#X text 163 117 number of hits we want;
#X connect 0 0 14 0;
#X connect 2 0 3 0;
#X connect 2 0 6 1;
#X connect 2 0 8 1;
#X connect 4 0 6 0;
#X connect 6 0 7 0;
#X connect 7 0 8 0;
#X connect 8 0 9 0;
#X connect 9 0 10 0;
#X connect 9 1 12 0;
#X connect 10 0 15 0;
#X connect 14 0 4 0;
#X connect 14 1 15 1;
#X connect 15 0 1 0;
#X restore 785 381 pd euclid;
#X obj 785 285 r clock;
#X floatatom 845 338 5 0 16 0 - - -;
#X obj 845 313 random 16;
#X obj 845 284 r change;
#X obj 952 406 hradio 10 1 0 16 empty empty empty 0 -8 0 10 -262144
-1 -1 8;
#N canvas 0 22 419 411 euclid 0;
#X obj 57 25 inlet;
#X obj 72 336 outlet;
#X obj 159 24 inlet;
#X floatatom 159 92 5 0 0 0 - - -;
#X obj 46 119 + 0;
#X text -75 118 offset the start;
#X obj 46 144 *;
#X obj 46 168 % 16;
#X obj 46 192 <;
#X obj 46 216 sel 1;
#X obj 46 251 bng 15 250 50 0 empty empty empty 17 7 0 10 -262144 -1
-1;
#X text 6 248 notes;
#X obj 78 252 bng 15 250 50 0 empty empty empty 17 7 0 10 -262144 -1
-1;
#X text 97 250 rests;
#X obj 56 89 t f f;
#X obj 72 302 f;
#X text 100 302 store the step number;
#X text -42 86 step number;
#X text 163 117 number of hits we want;
#X connect 0 0 14 0;
#X connect 2 0 3 0;
#X connect 2 0 6 1;
#X connect 2 0 8 1;
#X connect 4 0 6 0;
#X connect 6 0 7 0;
#X connect 7 0 8 0;
#X connect 8 0 9 0;
#X connect 9 0 10 0;
#X connect 9 1 12 0;
#X connect 10 0 15 0;
#X connect 14 0 4 0;
#X connect 14 1 15 1;
#X connect 15 0 1 0;
#X restore 952 382 pd euclid;
#X obj 952 286 r clock;
#X floatatom 1012 339 5 0 16 0 - - -;
#X text 958 359 number of hits we want;
#X obj 1012 314 random 16;
#X obj 1012 285 r change;
#X text 830 355 number of hits;
#X obj 785 526 vline~;
#X obj 803 419 r dur;
#X msg 785 493 0.5 10 \, 0 \$1 10;
#X obj 785 440 f;
#X obj 952 534 *~;
#X obj 1019 505 vline~;
#X obj 1036 424 r dur;
#X msg 1018 482 0.5 10 \, 0 \$1 10;
#X obj 1018 458 f;
#X obj 952 475 mtof;
#X obj 952 503 osc~ 660;
#X obj 952 452 + 72;
#X obj 857 526 noise~ 440;
#X obj 823 561 tgl 15 0 empty empty empty 17 7 0 10 -262144 -1 -1 1
1;
#X obj 1142 388 hradio 10 1 0 16 empty empty empty 0 -8 0 10 -262144
-1 -1 11;
#N canvas 0 22 419 411 euclid 0;
#X obj 57 25 inlet;
#X obj 72 336 outlet;
#X obj 159 24 inlet;
#X floatatom 159 92 5 0 0 0 - - -;
#X obj 46 119 + 0;
#X text -75 118 offset the start;
#X obj 46 144 *;
#X obj 46 168 % 16;
#X obj 46 192 <;
#X obj 46 216 sel 1;
#X obj 46 251 bng 15 250 50 0 empty empty empty 17 7 0 10 -262144 -1
-1;
#X text 6 248 notes;
#X obj 78 252 bng 15 250 50 0 empty empty empty 17 7 0 10 -262144 -1
-1;
#X text 97 250 rests;
#X obj 56 89 t f f;
#X obj 72 302 f;
#X text 100 302 store the step number;
#X text -42 86 step number;
#X text 163 117 number of hits we want;
#X connect 0 0 14 0;
#X connect 2 0 3 0;
#X connect 2 0 6 1;
#X connect 2 0 8 1;
#X connect 4 0 6 0;
#X connect 6 0 7 0;
#X connect 7 0 8 0;
#X connect 8 0 9 0;
#X connect 9 0 10 0;
#X connect 9 1 12 0;
#X connect 10 0 15 0;
#X connect 14 0 4 0;
#X connect 14 1 15 1;
#X connect 15 0 1 0;
#X restore 1142 364 pd euclid;
#X obj 1142 268 r clock;
#X floatatom 1202 321 5 0 16 0 - - -;
#X text 1148 341 number of hits we want;
#X obj 1202 296 random 16;
#X obj 1202 267 r change;
#X obj 1142 516 *~;
#X obj 1209 487 vline~;
#X obj 1226 406 r dur;
#X msg 1208 464 0.5 10 \, 0 \$1 10;
#X obj 1208 440 f;
#X obj 1142 457 mtof;
#X obj 1142 485 osc~ 660;
#X obj 1142 434 + 72;
#X obj 1327 539 *~;
#X obj 1327 391 hradio 10 1 0 16 empty empty empty 0 -8 0 10 -262144
-1 -1 10;
#N canvas 0 22 419 411 euclid 0;
#X obj 57 25 inlet;
#X obj 72 336 outlet;
#X obj 159 24 inlet;
#X floatatom 159 92 5 0 0 0 - - -;
#X obj 46 119 + 0;
#X text -75 118 offset the start;
#X obj 46 144 *;
#X obj 46 168 % 16;
#X obj 46 192 <;
#X obj 46 216 sel 1;
#X obj 46 251 bng 15 250 50 0 empty empty empty 17 7 0 10 -262144 -1
-1;
#X text 6 248 notes;
#X obj 78 252 bng 15 250 50 0 empty empty empty 17 7 0 10 -262144 -1
-1;
#X text 97 250 rests;
#X obj 56 89 t f f;
#X obj 72 302 f;
#X text 100 302 store the step number;
#X text -42 86 step number;
#X text 163 117 number of hits we want;
#X connect 0 0 14 0;
#X connect 2 0 3 0;
#X connect 2 0 6 1;
#X connect 2 0 8 1;
#X connect 4 0 6 0;
#X connect 6 0 7 0;
#X connect 7 0 8 0;
#X connect 8 0 9 0;
#X connect 9 0 10 0;
#X connect 9 1 12 0;
#X connect 10 0 15 0;
#X connect 14 0 4 0;
#X connect 14 1 15 1;
#X connect 15 0 1 0;
#X restore 1327 367 pd euclid;
#X obj 1327 271 r clock;
#X floatatom 1387 324 5 0 16 0 - - -;
#X obj 1387 299 random 16;
#X obj 1387 270 r change;
#X obj 1494 392 hradio 10 1 0 16 empty empty empty 0 -8 0 10 -262144
-1 -1 11;
#N canvas 0 22 419 411 euclid 0;
#X obj 57 25 inlet;
#X obj 72 336 outlet;
#X obj 159 24 inlet;
#X floatatom 159 92 5 0 0 0 - - -;
#X obj 46 119 + 0;
#X text -75 118 offset the start;
#X obj 46 144 *;
#X obj 46 168 % 16;
#X obj 46 192 <;
#X obj 46 216 sel 1;
#X obj 46 251 bng 15 250 50 0 empty empty empty 17 7 0 10 -262144 -1
-1;
#X text 6 248 notes;
#X obj 78 252 bng 15 250 50 0 empty empty empty 17 7 0 10 -262144 -1
-1;
#X text 97 250 rests;
#X obj 56 89 t f f;
#X obj 72 302 f;
#X text 100 302 store the step number;
#X text -42 86 step number;
#X text 163 117 number of hits we want;
#X connect 0 0 14 0;
#X connect 2 0 3 0;
#X connect 2 0 6 1;
#X connect 2 0 8 1;
#X connect 4 0 6 0;
#X connect 6 0 7 0;
#X connect 7 0 8 0;
#X connect 8 0 9 0;
#X connect 9 0 10 0;
#X connect 9 1 12 0;
#X connect 10 0 15 0;
#X connect 14 0 4 0;
#X connect 14 1 15 1;
#X connect 15 0 1 0;
#X restore 1494 368 pd euclid;
#X obj 1494 272 r clock;
#X floatatom 1554 325 5 0 16 0 - - -;
#X text 1500 345 number of hits we want;
#X obj 1554 300 random 16;
#X obj 1554 271 r change;
#X text 1372 341 number of hits;
#X obj 1327 512 vline~;
#X obj 1345 405 r dur;
#X msg 1327 479 0.5 10 \, 0 \$1 10;
#X obj 1327 426 f;
#X obj 1494 520 *~;
#X obj 1561 491 vline~;
#X obj 1578 410 r dur;
#X msg 1560 468 0.5 10 \, 0 \$1 10;
#X obj 1560 444 f;
#X obj 1494 461 mtof;
#X obj 1494 489 osc~ 660;
#X obj 1494 438 + 72;
#X obj 1383 511 noise~ 440;
#X obj 161 720 makenote;
#X obj 162 668 bng 15 250 50 0 empty empty empty 17 7 0 10 -262144
-1 -1;
#X msg 161 693 60 100 10;
#X obj 161 749 noteout;
#X obj 471 719 makenote;
#X obj 472 667 bng 15 250 50 0 empty empty empty 17 7 0 10 -262144
-1 -1;
#X obj 471 748 noteout;
#X obj 432 457 t f b;
#X msg 471 692 61 100 10;
#X obj 628 716 makenote;
#X obj 629 664 bng 15 250 50 0 empty empty empty 17 7 0 10 -262144
-1 -1;
#X obj 628 745 noteout;
#X msg 628 689 62 100 10;
#X obj 600 423 t f b b;
#X obj 787 710 makenote;
#X obj 788 658 bng 15 250 50 0 empty empty empty 17 7 0 10 -262144
-1 -1;
#X obj 787 739 noteout;
#X obj 785 466 t f b;
#X obj 795 611 dac~;
#X obj 787 581 *~;
#X msg 787 683 63 100 10;
#X obj 964 709 makenote;
#X obj 965 657 bng 15 250 50 0 empty empty empty 17 7 0 10 -262144
-1 -1;
#X obj 964 738 noteout;
#X obj 952 427 t f b b;
#X msg 964 682 64 100 10;
#X obj 1149 704 makenote;
#X obj 1150 652 bng 15 250 50 0 empty empty empty 17 7 0 10 -262144
-1 -1;
#X obj 1149 733 noteout;
#X obj 988 545 tgl 15 0 empty empty empty 17 7 0 10 -262144 -1 -1 1
1;
#X obj 951 594 dac~;
#X obj 952 565 *~;
#X obj 1178 532 tgl 15 0 empty empty empty 17 7 0 10 -262144 -1 -1
1 1;
#X obj 1141 581 dac~;
#X obj 1142 552 *~;
#X msg 1149 677 65 100 10;
#X obj 1142 409 t f b b;
#X obj 1334 702 makenote;
#X obj 1335 650 bng 15 250 50 0 empty empty empty 17 7 0 10 -262144
-1 -1;
#X obj 1334 731 noteout;
#X obj 1327 453 t f b;
#X obj 1364 551 tgl 15 0 empty empty empty 17 7 0 10 -262144 -1 -1
1 1;
#X obj 1327 600 dac~;
#X obj 1328 571 *~;
#X msg 1334 675 66 100 10;
#X obj 1493 705 makenote;
#X obj 1494 653 bng 15 250 50 0 empty empty empty 17 7 0 10 -262144
-1 -1;
#X obj 1493 734 noteout;
#X msg 1493 678 67 100 10;
#X obj 1499 580 dac~;
#X obj 1500 551 *~;
#X obj 1541 534 tgl 15 0 empty empty empty 17 7 0 10 -262144 -1 -1
1 1;
#X obj 1494 413 t f b b;
#X connect 7 0 9 0;
#X connect 8 0 7 0;
#X connect 8 0 11 0;
#X connect 9 0 10 0;
#X connect 9 0 12 0;
#X connect 10 0 9 1;
#X connect 11 0 9 1;
#X connect 12 0 32 0;
#X connect 13 0 25 1;
#X connect 14 0 79 0;
#X connect 14 0 84 0;
#X connect 15 0 70 0;
#X connect 15 0 70 1;
#X connect 16 0 74 0;
#X connect 18 0 19 0;
#X connect 18 0 7 1;
#X connect 19 0 48 0;
#X connect 20 0 18 0;
#X connect 22 0 21 0;
#X connect 23 0 73 0;
#X connect 24 0 54 0;
#X connect 25 0 23 0;
#X connect 26 0 12 1;
#X connect 27 0 24 0;
#X connect 28 0 34 0;
#X connect 28 0 35 0;
#X connect 29 0 13 0;
#X connect 30 0 25 0;
#X connect 32 0 68 0;
#X connect 32 1 31 0;
#X connect 33 0 27 0;
#X connect 36 0 29 0;
#X connect 37 0 27 1;
#X connect 38 0 37 0;
#X connect 39 0 38 0;
#X connect 40 0 173 0;
#X connect 41 0 40 0;
#X connect 42 0 41 0;
#X connect 43 0 41 1;
#X connect 45 0 43 0;
#X connect 46 0 45 0;
#X connect 49 0 81 0;
#X connect 50 0 87 0;
#X connect 51 0 16 0;
#X connect 52 0 54 1;
#X connect 53 0 51 0;
#X connect 54 0 167 0;
#X connect 55 0 76 0;
#X connect 57 0 55 1;
#X connect 58 0 60 1;
#X connect 59 0 57 0;
#X connect 60 0 59 0;
#X connect 61 0 62 0;
#X connect 62 0 55 0;
#X connect 63 0 61 0;
#X connect 64 0 16 1;
#X connect 68 0 28 0;
#X connect 70 0 14 1;
#X connect 71 0 14 0;
#X connect 72 0 71 0;
#X connect 73 0 50 0;
#X connect 73 0 161 0;
#X connect 73 1 86 0;
#X connect 74 0 17 0;
#X connect 74 0 17 1;
#X connect 75 0 74 1;
#X connect 76 0 56 0;
#X connect 77 0 76 1;
#X connect 79 0 78 0;
#X connect 79 0 78 1;
#X connect 80 0 79 1;
#X connect 81 0 82 0;
#X connect 81 0 86 1;
#X connect 81 0 50 1;
#X connect 83 0 73 0;
#X connect 85 0 15 0;
#X connect 86 0 85 0;
#X connect 87 0 72 0;
#X connect 88 0 179 0;
#X connect 89 0 106 0;
#X connect 90 0 89 0;
#X connect 91 0 90 0;
#X connect 92 0 90 1;
#X connect 93 0 92 0;
#X connect 94 0 93 0;
#X connect 95 0 184 0;
#X connect 96 0 95 0;
#X connect 97 0 96 0;
#X connect 98 0 96 1;
#X connect 100 0 98 0;
#X connect 101 0 100 0;
#X connect 103 0 88 0;
#X connect 104 0 106 1;
#X connect 105 0 103 0;
#X connect 106 0 177 0;
#X connect 107 0 191 0;
#X connect 108 0 107 1;
#X connect 109 0 111 1;
#X connect 110 0 108 0;
#X connect 111 0 110 0;
#X connect 112 0 113 0;
#X connect 113 0 107 0;
#X connect 114 0 112 0;
#X connect 115 0 88 1;
#X connect 116 0 179 1;
#X connect 117 0 196 0;
#X connect 118 0 117 0;
#X connect 119 0 118 0;
#X connect 120 0 118 1;
#X connect 122 0 120 0;
#X connect 123 0 122 0;
#X connect 124 0 194 0;
#X connect 125 0 124 1;
#X connect 126 0 128 1;
#X connect 127 0 125 0;
#X connect 128 0 127 0;
#X connect 129 0 130 0;
#X connect 130 0 124 0;
#X connect 131 0 129 0;
#X connect 132 0 203 0;
#X connect 133 0 150 0;
#X connect 134 0 133 0;
#X connect 135 0 134 0;
#X connect 136 0 134 1;
#X connect 137 0 136 0;
#X connect 138 0 137 0;
#X connect 139 0 212 0;
#X connect 140 0 139 0;
#X connect 141 0 140 0;
#X connect 142 0 140 1;
#X connect 144 0 142 0;
#X connect 145 0 144 0;
#X connect 147 0 132 0;
#X connect 148 0 150 1;
#X connect 149 0 147 0;
#X connect 150 0 200 0;
#X connect 151 0 210 0;
#X connect 152 0 151 1;
#X connect 153 0 155 1;
#X connect 154 0 152 0;
#X connect 155 0 154 0;
#X connect 156 0 157 0;
#X connect 157 0 151 0;
#X connect 158 0 156 0;
#X connect 159 0 132 1;
#X connect 160 0 163 0;
#X connect 160 1 163 1;
#X connect 161 0 162 0;
#X connect 162 0 160 0;
#X connect 164 0 166 0;
#X connect 164 1 166 1;
#X connect 165 0 168 0;
#X connect 167 0 53 0;
#X connect 167 1 165 0;
#X connect 168 0 164 0;
#X connect 169 0 171 0;
#X connect 169 1 171 1;
#X connect 170 0 172 0;
#X connect 172 0 169 0;
#X connect 173 0 63 0;
#X connect 173 1 60 0;
#X connect 173 2 170 0;
#X connect 174 0 176 0;
#X connect 174 1 176 1;
#X connect 175 0 180 0;
#X connect 177 0 105 0;
#X connect 177 1 175 0;
#X connect 179 0 178 1;
#X connect 180 0 174 0;
#X connect 181 0 183 0;
#X connect 181 1 183 1;
#X connect 182 0 185 0;
#X connect 184 0 114 0;
#X connect 184 1 111 0;
#X connect 184 2 182 0;
#X connect 185 0 181 0;
#X connect 186 0 188 0;
#X connect 186 1 188 1;
#X connect 187 0 195 0;
#X connect 189 0 191 1;
#X connect 191 0 190 1;
#X connect 191 0 190 0;
#X connect 192 0 194 1;
#X connect 194 0 193 1;
#X connect 194 0 193 0;
#X connect 195 0 186 0;
#X connect 196 0 131 0;
#X connect 196 1 128 0;
#X connect 196 2 187 0;
#X connect 197 0 199 0;
#X connect 197 1 199 1;
#X connect 198 0 204 0;
#X connect 200 0 149 0;
#X connect 200 1 198 0;
#X connect 201 0 203 1;
#X connect 203 0 202 1;
#X connect 203 0 202 0;
#X connect 204 0 197 0;
#X connect 205 0 207 0;
#X connect 205 1 207 1;
#X connect 206 0 208 0;
#X connect 208 0 205 0;
#X connect 210 0 209 1;
#X connect 210 0 209 0;
#X connect 211 0 210 1;
#X connect 212 0 158 0;
#X connect 212 1 155 0;
#X connect 212 2 206 0;
