#N canvas 88 189 1312 686 10;
#X obj 23 13 tgl 15 0 empty empty empty 17 7 0 10 -4032 -1 -1 1 1;
#X floatatom 29 31 5 10 666 0 - BPM -, f 5;
#X obj 24 255 hradio 8 1 0 16 empty empty empty 0 -8 0 10 -262144 -1
-1 0;
#X obj 159 255 hradio 8 1 0 16 empty empty empty 0 -8 0 10 -262144
-1 -1 0;
#N canvas 519 240 526 420 euclid 0;
#X obj 90 24 inlet;
#X obj 152 339 outlet;
#X obj 126 122 + 0;
#X text 5 121 offset the start;
#X obj 126 147 *;
#X obj 126 171 % 16;
#X obj 126 195 <;
#X obj 126 219 sel 1;
#X obj 126 254 bng 15 250 50 0 empty empty empty 17 7 0 10 -262144
-1 -1;
#X text 86 251 notes;
#X obj 191 255 bng 15 250 50 0 empty empty empty 17 7 0 10 -262144
-1 -1;
#X text 210 253 rests;
#X obj 136 92 t f f;
#X obj 152 305 f;
#X text 180 305 store the step number;
#X text 38 89 step number;
#X text 332 218 number of hits we want;
#X floatatom 317 239 5 0 16 0 - - -, f 5;
#X obj 197 70 random 16;
#X obj 136 23 r clock;
#X obj 197 21 r change;
#X text 324 261 hits;
#X obj 197 112 + 1;
#X obj 263 21 r hits_max;
#X obj 351 22 r hits_min;
#X floatatom 271 45 5 0 0 0 - - -, f 5;
#X floatatom 366 46 5 0 0 0 - - -, f 5;
#X obj 151 49 bng 15 250 50 0 empty empty empty 17 7 0 10 -262144 -1
-1;
#X obj 318 336 outlet;
#X obj 444 25 inlet;
#X floatatom 445 56 5 0 0 0 - - -, f 5;
#X text 357 106 set steps manually;
#X connect 0 0 12 0;
#X connect 2 0 4 0;
#X connect 4 0 5 0;
#X connect 5 0 6 0;
#X connect 6 0 7 0;
#X connect 7 0 8 0;
#X connect 7 1 10 0;
#X connect 8 0 13 0;
#X connect 12 0 2 0;
#X connect 12 1 13 1;
#X connect 13 0 1 0;
#X connect 17 0 28 0;
#X connect 18 0 22 0;
#X connect 19 0 12 0;
#X connect 20 0 18 0;
#X connect 22 0 17 0;
#X connect 22 0 6 1;
#X connect 22 0 4 1;
#X connect 23 0 25 0;
#X connect 23 0 18 1;
#X connect 24 0 26 0;
#X connect 24 0 22 1;
#X connect 27 0 12 0;
#X connect 29 0 30 0;
#X connect 29 0 4 1;
#X connect 29 0 6 1;
#X connect 29 0 17 0;
#X restore 24 205 pd euclid;
#X obj 294 256 hradio 8 1 0 16 empty empty empty 0 -8 0 10 -262144
-1 -1 0;
#X obj 431 256 hradio 8 1 0 16 empty empty empty 0 -8 0 10 -262144
-1 -1 0;
#X obj 565 256 hradio 8 1 0 16 empty empty empty 0 -8 0 10 -262144
-1 -1 0;
#X obj 700 256 hradio 8 1 0 16 empty empty empty 0 -8 0 10 -262144
-1 -1 0;
#X obj 837 256 hradio 8 1 0 16 empty empty empty 0 -8 0 10 -262144
-1 -1 0;
#X obj 973 256 hradio 8 1 0 16 empty empty empty 0 -8 0 10 -262144
-1 -1 0;
#X obj 837 88 s midi_len;
#X floatatom 837 65 5 1 250 0 - - -, f 5;
#X text 50 229 hits;
#X obj 681 88 s hits_max;
#X obj 758 88 s hits_min;
#X floatatom 681 64 2 2 14 0 - - -, f 2;
#X floatatom 758 66 2 1 12 0 - - -, f 2;
#N canvas 0 50 450 300 euclidean_theory 0;
#X text 21 14 spacing steps in sequance evenly;
#X text 14 43 [ 0 0 0 0 0 0 0 0 ];
#X text 15 64 [ 1 1 1 0 0 0 0 0 ];
#X text 15 86 [ 1 0 1 0 1 0 0 0 ];
#X text 16 109 [ 1 0 0 1 0 0 1 0 ];
#X text 162 110 most evenly spaced;
#X text 20 131 how do we do it with an algorhitms?;
#X restore 1003 9 pd euclidean_theory;
#N canvas 605 188 575 400 seq 0;
#X obj 71 34 inlet;
#X obj 137 32 inlet;
#X obj 77 124 metro 200;
#X obj 50 69 tgl 15 0 empty empty empty 17 7 0 10 -262144 -1 -1 0 1
;
#X obj 78 152 f;
#X obj 113 152 + 1;
#X obj 150 123 == 0;
#X obj 78 200 % 16;
#N canvas 0 50 450 300 bpm_to_MS 0;
#X obj 61 20 inlet;
#X obj 76 246 outlet;
#X text 111 56 BPM to MS Equation: The equation is 60 \, 0 / BPM =
MS;
#X text 158 185 whole note;
#X text 158 247 quarter note;
#X text 227 80 MS * BPM = 60000;
#X text 225 99 BPM = 60000 / MS;
#X floatatom 76 185 10 0 0 0 - - -, f 10;
#X floatatom 61 61 5 0 0 0 - - -, f 5;
#X obj 76 159 /;
#X msg 43 118 60000;
#X obj 62 85 t b f;
#X obj 76 211 / 4;
#X obj 156 208 s hole_not;
#X connect 0 0 8 0;
#X connect 7 0 12 0;
#X connect 7 0 13 0;
#X connect 8 0 11 0;
#X connect 9 0 7 0;
#X connect 10 0 9 0;
#X connect 11 0 10 0;
#X connect 11 1 9 1;
#X connect 12 0 1 0;
#X restore 137 91 pd bpm_to_MS;
#X floatatom 241 122 5 0 0 0 - - -, f 5;
#X floatatom 181 61 5 0 0 0 - - -, f 5;
#X floatatom 103 177 5 0 0 0 - - -, f 5;
#X obj 78 276 sel 1;
#X obj 78 225 t f f;
#X obj 25 360 bng 15 250 50 0 empty empty empty 17 7 0 10 -262144 -1
-1;
#X obj 78 249 == 0;
#X text 145 155 when metro start;
#X text 141 142 reset count;
#X obj 49 361 outlet;
#X obj 157 328 outlet;
#X text 208 325 clock out;
#X text 94 369 at the beggining of sequence;
#X text 94 355 send bang to randomize steps amount;
#X text 285 119 dur;
#X connect 0 0 2 0;
#X connect 0 0 6 0;
#X connect 1 0 10 0;
#X connect 1 0 8 0;
#X connect 2 0 4 0;
#X connect 3 0 2 0;
#X connect 3 0 6 0;
#X connect 4 0 5 0;
#X connect 4 0 7 0;
#X connect 5 0 4 1;
#X connect 6 0 4 1;
#X connect 7 0 13 0;
#X connect 8 0 9 0;
#X connect 8 0 2 1;
#X connect 11 0 7 1;
#X connect 12 0 14 0;
#X connect 12 0 18 0;
#X connect 13 0 15 0;
#X connect 13 1 19 0;
#X connect 15 0 12 0;
#X restore 23 52 pd seq;
#X text 47 12 START;
#X text 61 31 BPM;
#X text 866 42 length;
#X obj 24 181 bng 15 250 50 0 empty empty empty 17 7 0 10 -262144 -1
-1;
#X floatatom 84 230 5 0 0 0 - - -, f 5;
#X floatatom 45 180 2 0 0 0 - - -, f 2;
#X obj 87 98 s clock;
#X obj 23 98 s change;
#X obj 23 76 spigot;
#X obj 92 16 tgl 15 1 empty empty empty 17 7 0 10 -4034 -1 -1 0 1;
#X obj 87 75 spigot;
#X obj 93 36 tgl 15 1 empty empty empty 17 7 0 10 -258113 -1 -1 1 1
;
#X text 111 34 send clock?;
#X floatatom 83 181 2 1 16 0 - - -, f 2;
#N canvas 525 244 526 420 euclid 0;
#X obj 90 24 inlet;
#X obj 152 339 outlet;
#X obj 126 122 + 0;
#X text 5 121 offset the start;
#X obj 126 147 *;
#X obj 126 171 % 16;
#X obj 126 195 <;
#X obj 126 219 sel 1;
#X obj 126 254 bng 15 250 50 0 empty empty empty 17 7 0 10 -262144
-1 -1;
#X text 86 251 notes;
#X obj 191 255 bng 15 250 50 0 empty empty empty 17 7 0 10 -262144
-1 -1;
#X text 210 253 rests;
#X obj 136 92 t f f;
#X obj 152 305 f;
#X text 180 305 store the step number;
#X text 38 89 step number;
#X text 332 218 number of hits we want;
#X floatatom 317 239 5 0 16 0 - - -, f 5;
#X obj 197 70 random 16;
#X obj 136 23 r clock;
#X obj 197 21 r change;
#X text 324 261 hits;
#X obj 197 112 + 1;
#X obj 263 21 r hits_max;
#X obj 351 22 r hits_min;
#X floatatom 271 45 5 0 0 0 - - -, f 5;
#X floatatom 366 46 5 0 0 0 - - -, f 5;
#X obj 151 49 bng 15 250 50 0 empty empty empty 17 7 0 10 -262144 -1
-1;
#X obj 318 336 outlet;
#X obj 444 25 inlet;
#X floatatom 445 56 5 0 0 0 - - -, f 5;
#X text 357 106 set steps manually;
#X connect 0 0 12 0;
#X connect 2 0 4 0;
#X connect 4 0 5 0;
#X connect 5 0 6 0;
#X connect 6 0 7 0;
#X connect 7 0 8 0;
#X connect 7 1 10 0;
#X connect 8 0 13 0;
#X connect 12 0 2 0;
#X connect 12 1 13 1;
#X connect 13 0 1 0;
#X connect 17 0 28 0;
#X connect 18 0 22 0;
#X connect 19 0 12 0;
#X connect 20 0 18 0;
#X connect 22 0 17 0;
#X connect 22 0 6 1;
#X connect 22 0 4 1;
#X connect 23 0 25 0;
#X connect 23 0 18 1;
#X connect 24 0 26 0;
#X connect 24 0 22 1;
#X connect 27 0 12 0;
#X connect 29 0 30 0;
#X connect 29 0 4 1;
#X connect 29 0 6 1;
#X connect 29 0 17 0;
#X restore 159 207 pd euclid;
#X text 185 231 hits;
#X obj 159 183 bng 15 250 50 0 empty empty empty 17 7 0 10 -262144
-1 -1;
#X floatatom 219 232 5 0 0 0 - - -, f 5;
#X floatatom 180 182 2 0 0 0 - - -, f 2;
#X floatatom 218 183 2 1 16 0 - - -, f 2;
#X text 1052 187 randomize;
#X text 1052 200 must be off;
#N canvas 525 244 526 420 euclid 0;
#X obj 90 24 inlet;
#X obj 152 339 outlet;
#X obj 126 122 + 0;
#X text 5 121 offset the start;
#X obj 126 147 *;
#X obj 126 171 % 16;
#X obj 126 195 <;
#X obj 126 219 sel 1;
#X obj 126 254 bng 15 250 50 0 empty empty empty 17 7 0 10 -262144
-1 -1;
#X text 86 251 notes;
#X obj 191 255 bng 15 250 50 0 empty empty empty 17 7 0 10 -262144
-1 -1;
#X text 210 253 rests;
#X obj 136 92 t f f;
#X obj 152 305 f;
#X text 180 305 store the step number;
#X text 38 89 step number;
#X text 332 218 number of hits we want;
#X floatatom 317 239 5 0 16 0 - - -, f 5;
#X obj 197 70 random 16;
#X obj 136 23 r clock;
#X obj 197 21 r change;
#X text 324 261 hits;
#X obj 197 112 + 1;
#X obj 263 21 r hits_max;
#X obj 351 22 r hits_min;
#X floatatom 271 45 5 0 0 0 - - -, f 5;
#X floatatom 366 46 5 0 0 0 - - -, f 5;
#X obj 151 49 bng 15 250 50 0 empty empty empty 17 7 0 10 -262144 -1
-1;
#X obj 318 336 outlet;
#X obj 444 25 inlet;
#X floatatom 445 56 5 0 0 0 - - -, f 5;
#X text 357 106 set steps manually;
#X connect 0 0 12 0;
#X connect 2 0 4 0;
#X connect 4 0 5 0;
#X connect 5 0 6 0;
#X connect 6 0 7 0;
#X connect 7 0 8 0;
#X connect 7 1 10 0;
#X connect 8 0 13 0;
#X connect 12 0 2 0;
#X connect 12 1 13 1;
#X connect 13 0 1 0;
#X connect 17 0 28 0;
#X connect 18 0 22 0;
#X connect 19 0 12 0;
#X connect 20 0 18 0;
#X connect 22 0 17 0;
#X connect 22 0 6 1;
#X connect 22 0 4 1;
#X connect 23 0 25 0;
#X connect 23 0 18 1;
#X connect 24 0 26 0;
#X connect 24 0 22 1;
#X connect 27 0 12 0;
#X connect 29 0 30 0;
#X connect 29 0 4 1;
#X connect 29 0 6 1;
#X connect 29 0 17 0;
#X restore 294 204 pd euclid;
#X text 320 228 hits;
#X obj 294 180 bng 15 250 50 0 empty empty empty 17 7 0 10 -262144
-1 -1;
#X floatatom 354 229 5 0 0 0 - - -, f 5;
#X floatatom 315 179 2 0 0 0 - - -, f 2;
#X floatatom 353 180 2 1 16 0 - - -, f 2;
#N canvas 525 244 526 420 euclid 0;
#X obj 90 24 inlet;
#X obj 152 339 outlet;
#X obj 126 122 + 0;
#X text 5 121 offset the start;
#X obj 126 147 *;
#X obj 126 171 % 16;
#X obj 126 195 <;
#X obj 126 219 sel 1;
#X obj 126 254 bng 15 250 50 0 empty empty empty 17 7 0 10 -262144
-1 -1;
#X text 86 251 notes;
#X obj 191 255 bng 15 250 50 0 empty empty empty 17 7 0 10 -262144
-1 -1;
#X text 210 253 rests;
#X obj 136 92 t f f;
#X obj 152 305 f;
#X text 180 305 store the step number;
#X text 38 89 step number;
#X text 332 218 number of hits we want;
#X floatatom 317 239 5 0 16 0 - - -, f 5;
#X obj 197 70 random 16;
#X obj 136 23 r clock;
#X obj 197 21 r change;
#X text 324 261 hits;
#X obj 197 112 + 1;
#X obj 263 21 r hits_max;
#X obj 351 22 r hits_min;
#X floatatom 271 45 5 0 0 0 - - -, f 5;
#X floatatom 366 46 5 0 0 0 - - -, f 5;
#X obj 151 49 bng 15 250 50 0 empty empty empty 17 7 0 10 -262144 -1
-1;
#X obj 318 336 outlet;
#X obj 444 25 inlet;
#X floatatom 445 56 5 0 0 0 - - -, f 5;
#X text 357 106 set steps manually;
#X connect 0 0 12 0;
#X connect 2 0 4 0;
#X connect 4 0 5 0;
#X connect 5 0 6 0;
#X connect 6 0 7 0;
#X connect 7 0 8 0;
#X connect 7 1 10 0;
#X connect 8 0 13 0;
#X connect 12 0 2 0;
#X connect 12 1 13 1;
#X connect 13 0 1 0;
#X connect 17 0 28 0;
#X connect 18 0 22 0;
#X connect 19 0 12 0;
#X connect 20 0 18 0;
#X connect 22 0 17 0;
#X connect 22 0 6 1;
#X connect 22 0 4 1;
#X connect 23 0 25 0;
#X connect 23 0 18 1;
#X connect 24 0 26 0;
#X connect 24 0 22 1;
#X connect 27 0 12 0;
#X connect 29 0 30 0;
#X connect 29 0 4 1;
#X connect 29 0 6 1;
#X connect 29 0 17 0;
#X restore 431 207 pd euclid;
#X text 457 231 hits;
#X obj 431 183 bng 15 250 50 0 empty empty empty 17 7 0 10 -262144
-1 -1;
#X floatatom 491 232 5 0 0 0 - - -, f 5;
#X floatatom 452 182 2 0 0 0 - - -, f 2;
#X floatatom 490 183 2 1 16 0 - - -, f 2;
#N canvas 525 244 526 420 euclid 0;
#X obj 90 24 inlet;
#X obj 152 339 outlet;
#X obj 126 122 + 0;
#X text 5 121 offset the start;
#X obj 126 147 *;
#X obj 126 171 % 16;
#X obj 126 195 <;
#X obj 126 219 sel 1;
#X obj 126 254 bng 15 250 50 0 empty empty empty 17 7 0 10 -262144
-1 -1;
#X text 86 251 notes;
#X obj 191 255 bng 15 250 50 0 empty empty empty 17 7 0 10 -262144
-1 -1;
#X text 210 253 rests;
#X obj 136 92 t f f;
#X obj 152 305 f;
#X text 180 305 store the step number;
#X text 38 89 step number;
#X text 332 218 number of hits we want;
#X floatatom 317 239 5 0 16 0 - - -, f 5;
#X obj 197 70 random 16;
#X obj 136 23 r clock;
#X obj 197 21 r change;
#X text 324 261 hits;
#X obj 197 112 + 1;
#X obj 263 21 r hits_max;
#X obj 351 22 r hits_min;
#X floatatom 271 45 5 0 0 0 - - -, f 5;
#X floatatom 366 46 5 0 0 0 - - -, f 5;
#X obj 151 49 bng 15 250 50 0 empty empty empty 17 7 0 10 -262144 -1
-1;
#X obj 318 336 outlet;
#X obj 444 25 inlet;
#X floatatom 445 56 5 0 0 0 - - -, f 5;
#X text 357 106 set steps manually;
#X connect 0 0 12 0;
#X connect 2 0 4 0;
#X connect 4 0 5 0;
#X connect 5 0 6 0;
#X connect 6 0 7 0;
#X connect 7 0 8 0;
#X connect 7 1 10 0;
#X connect 8 0 13 0;
#X connect 12 0 2 0;
#X connect 12 1 13 1;
#X connect 13 0 1 0;
#X connect 17 0 28 0;
#X connect 18 0 22 0;
#X connect 19 0 12 0;
#X connect 20 0 18 0;
#X connect 22 0 17 0;
#X connect 22 0 6 1;
#X connect 22 0 4 1;
#X connect 23 0 25 0;
#X connect 23 0 18 1;
#X connect 24 0 26 0;
#X connect 24 0 22 1;
#X connect 27 0 12 0;
#X connect 29 0 30 0;
#X connect 29 0 4 1;
#X connect 29 0 6 1;
#X connect 29 0 17 0;
#X restore 565 206 pd euclid;
#X text 591 230 hits;
#X obj 565 182 bng 15 250 50 0 empty empty empty 17 7 0 10 -262144
-1 -1;
#X floatatom 625 231 5 0 0 0 - - -, f 5;
#X floatatom 586 181 2 0 0 0 - - -, f 2;
#X floatatom 624 182 2 1 16 0 - - -, f 2;
#N canvas 525 244 526 420 euclid 0;
#X obj 90 24 inlet;
#X obj 152 339 outlet;
#X obj 126 122 + 0;
#X text 5 121 offset the start;
#X obj 126 147 *;
#X obj 126 171 % 16;
#X obj 126 195 <;
#X obj 126 219 sel 1;
#X obj 126 254 bng 15 250 50 0 empty empty empty 17 7 0 10 -262144
-1 -1;
#X text 86 251 notes;
#X obj 191 255 bng 15 250 50 0 empty empty empty 17 7 0 10 -262144
-1 -1;
#X text 210 253 rests;
#X obj 136 92 t f f;
#X obj 152 305 f;
#X text 180 305 store the step number;
#X text 38 89 step number;
#X text 332 218 number of hits we want;
#X floatatom 317 239 5 0 16 0 - - -, f 5;
#X obj 197 70 random 16;
#X obj 136 23 r clock;
#X obj 197 21 r change;
#X text 324 261 hits;
#X obj 197 112 + 1;
#X obj 263 21 r hits_max;
#X obj 351 22 r hits_min;
#X floatatom 271 45 5 0 0 0 - - -, f 5;
#X floatatom 366 46 5 0 0 0 - - -, f 5;
#X obj 151 49 bng 15 250 50 0 empty empty empty 17 7 0 10 -262144 -1
-1;
#X obj 318 336 outlet;
#X obj 444 25 inlet;
#X floatatom 445 56 5 0 0 0 - - -, f 5;
#X text 357 106 set steps manually;
#X connect 0 0 12 0;
#X connect 2 0 4 0;
#X connect 4 0 5 0;
#X connect 5 0 6 0;
#X connect 6 0 7 0;
#X connect 7 0 8 0;
#X connect 7 1 10 0;
#X connect 8 0 13 0;
#X connect 12 0 2 0;
#X connect 12 1 13 1;
#X connect 13 0 1 0;
#X connect 17 0 28 0;
#X connect 18 0 22 0;
#X connect 19 0 12 0;
#X connect 20 0 18 0;
#X connect 22 0 17 0;
#X connect 22 0 6 1;
#X connect 22 0 4 1;
#X connect 23 0 25 0;
#X connect 23 0 18 1;
#X connect 24 0 26 0;
#X connect 24 0 22 1;
#X connect 27 0 12 0;
#X connect 29 0 30 0;
#X connect 29 0 4 1;
#X connect 29 0 6 1;
#X connect 29 0 17 0;
#X restore 700 204 pd euclid;
#X text 726 228 hits;
#X obj 700 180 bng 15 250 50 0 empty empty empty 17 7 0 10 -262144
-1 -1;
#X floatatom 760 229 5 0 0 0 - - -, f 5;
#X floatatom 721 179 2 0 0 0 - - -, f 2;
#X floatatom 759 180 2 1 16 0 - - -, f 2;
#N canvas 525 244 526 420 euclid 0;
#X obj 90 24 inlet;
#X obj 152 339 outlet;
#X obj 126 122 + 0;
#X text 5 121 offset the start;
#X obj 126 147 *;
#X obj 126 171 % 16;
#X obj 126 195 <;
#X obj 126 219 sel 1;
#X obj 126 254 bng 15 250 50 0 empty empty empty 17 7 0 10 -262144
-1 -1;
#X text 86 251 notes;
#X obj 191 255 bng 15 250 50 0 empty empty empty 17 7 0 10 -262144
-1 -1;
#X text 210 253 rests;
#X obj 136 92 t f f;
#X obj 152 305 f;
#X text 180 305 store the step number;
#X text 38 89 step number;
#X text 332 218 number of hits we want;
#X floatatom 317 239 5 0 16 0 - - -, f 5;
#X obj 197 70 random 16;
#X obj 136 23 r clock;
#X obj 197 21 r change;
#X text 324 261 hits;
#X obj 197 112 + 1;
#X obj 263 21 r hits_max;
#X obj 351 22 r hits_min;
#X floatatom 271 45 5 0 0 0 - - -, f 5;
#X floatatom 366 46 5 0 0 0 - - -, f 5;
#X obj 151 49 bng 15 250 50 0 empty empty empty 17 7 0 10 -262144 -1
-1;
#X obj 318 336 outlet;
#X obj 444 25 inlet;
#X floatatom 445 56 5 0 0 0 - - -, f 5;
#X text 357 106 set steps manually;
#X connect 0 0 12 0;
#X connect 2 0 4 0;
#X connect 4 0 5 0;
#X connect 5 0 6 0;
#X connect 6 0 7 0;
#X connect 7 0 8 0;
#X connect 7 1 10 0;
#X connect 8 0 13 0;
#X connect 12 0 2 0;
#X connect 12 1 13 1;
#X connect 13 0 1 0;
#X connect 17 0 28 0;
#X connect 18 0 22 0;
#X connect 19 0 12 0;
#X connect 20 0 18 0;
#X connect 22 0 17 0;
#X connect 22 0 6 1;
#X connect 22 0 4 1;
#X connect 23 0 25 0;
#X connect 23 0 18 1;
#X connect 24 0 26 0;
#X connect 24 0 22 1;
#X connect 27 0 12 0;
#X connect 29 0 30 0;
#X connect 29 0 4 1;
#X connect 29 0 6 1;
#X connect 29 0 17 0;
#X restore 837 202 pd euclid;
#X text 863 226 hits;
#X obj 837 178 bng 15 250 50 0 empty empty empty 17 7 0 10 -262144
-1 -1;
#X floatatom 897 227 5 0 0 0 - - -, f 5;
#X floatatom 858 177 2 0 0 0 - - -, f 2;
#X floatatom 896 178 2 1 16 0 - - -, f 2;
#N canvas 525 244 526 420 euclid 0;
#X obj 90 24 inlet;
#X obj 152 339 outlet;
#X obj 126 122 + 0;
#X text 5 121 offset the start;
#X obj 126 147 *;
#X obj 126 171 % 16;
#X obj 126 195 <;
#X obj 126 219 sel 1;
#X obj 126 254 bng 15 250 50 0 empty empty empty 17 7 0 10 -262144
-1 -1;
#X text 86 251 notes;
#X obj 191 255 bng 15 250 50 0 empty empty empty 17 7 0 10 -262144
-1 -1;
#X text 210 253 rests;
#X obj 136 92 t f f;
#X obj 152 305 f;
#X text 180 305 store the step number;
#X text 38 89 step number;
#X text 332 218 number of hits we want;
#X floatatom 317 239 5 0 16 0 - - -, f 5;
#X obj 197 70 random 16;
#X obj 136 23 r clock;
#X obj 197 21 r change;
#X text 324 261 hits;
#X obj 197 112 + 1;
#X obj 263 21 r hits_max;
#X obj 351 22 r hits_min;
#X floatatom 271 45 5 0 0 0 - - -, f 5;
#X floatatom 366 46 5 0 0 0 - - -, f 5;
#X obj 151 49 bng 15 250 50 0 empty empty empty 17 7 0 10 -262144 -1
-1;
#X obj 318 336 outlet;
#X obj 444 25 inlet;
#X floatatom 445 56 5 0 0 0 - - -, f 5;
#X text 357 106 set steps manually;
#X connect 0 0 12 0;
#X connect 2 0 4 0;
#X connect 4 0 5 0;
#X connect 5 0 6 0;
#X connect 6 0 7 0;
#X connect 7 0 8 0;
#X connect 7 1 10 0;
#X connect 8 0 13 0;
#X connect 12 0 2 0;
#X connect 12 1 13 1;
#X connect 13 0 1 0;
#X connect 17 0 28 0;
#X connect 18 0 22 0;
#X connect 19 0 12 0;
#X connect 20 0 18 0;
#X connect 22 0 17 0;
#X connect 22 0 6 1;
#X connect 22 0 4 1;
#X connect 23 0 25 0;
#X connect 23 0 18 1;
#X connect 24 0 26 0;
#X connect 24 0 22 1;
#X connect 27 0 12 0;
#X connect 29 0 30 0;
#X connect 29 0 4 1;
#X connect 29 0 6 1;
#X connect 29 0 17 0;
#X restore 973 203 pd euclid;
#X text 999 227 hits;
#X obj 973 179 bng 15 250 50 0 empty empty empty 17 7 0 10 -262144
-1 -1;
#X floatatom 1033 228 5 0 0 0 - - -, f 5;
#X floatatom 994 178 2 0 0 0 - - -, f 2;
#X floatatom 1032 179 2 1 16 0 - - -, f 2;
#X text 1052 172 set hits amount by hand;
#X obj 681 1 loadbang;
#X msg 681 43 7;
#X msg 758 44 2;
#X msg 837 43 8;
#X obj 240 14 loadbang;
#X obj 240 35 t b;
#X obj 681 21 t b b b;
#X text 742 22 random range;
#X obj 240 78 s BPM;
#X msg 240 56 160;
#X text 109 13 rndm steps ON/OFF;
#N canvas 95 51 1099 470 change_dur 0;
#X obj 33 344 outlet;
#X obj 220 29 inlet;
#X obj 33 32 r hole_not;
#X floatatom 33 221 5 0 0 0 - - -, f 5;
#X msg 691 152 0.5;
#X msg 754 152 0.66;
#X msg 792 152 0.75;
#X msg 540 152 0.25;
#X msg 913 152 1;
#X obj 68 172 t b f;
#X obj 360 132 bng 15 250 50 0 empty empty empty 17 7 0 10 -262144
-1 -1;
#X obj 540 132 bng 15 250 50 0 empty empty empty 17 7 0 10 -262144
-1 -1;
#X obj 616 131 bng 15 250 50 0 empty empty empty 17 7 0 10 -262144
-1 -1;
#X obj 691 133 bng 15 250 50 0 empty empty empty 17 7 0 10 -262144
-1 -1;
#X obj 754 133 bng 15 250 50 0 empty empty empty 17 7 0 10 -262144
-1 -1;
#X obj 792 133 bng 15 250 50 0 empty empty empty 17 7 0 10 -262144
-1 -1;
#X obj 913 133 bng 15 250 50 0 empty empty empty 17 7 0 10 -262144
-1 -1;
#X obj 865 133 bng 15 250 50 0 empty empty empty 17 7 0 10 -262144
-1 -1;
#X obj 953 111 bng 15 250 50 0 empty empty empty 17 7 0 10 -262144
-1 -1;
#X obj 953 152 * 0.001;
#X obj 953 130 random;
#X floatatom 98 344 5 0 0 0 - - -, f 5;
#X msg 234 369 1.25;
#X msg 277 369 1.33;
#X msg 320 369 1.5;
#X msg 352 371 1.66;
#X msg 390 371 1.75;
#X msg 431 372 2;
#X obj 234 347 bng 15 250 50 0 empty empty empty 17 7 0 10 -262144
-1 -1;
#X obj 277 349 bng 15 250 50 0 empty empty empty 17 7 0 10 -262144
-1 -1;
#X obj 320 349 bng 15 250 50 0 empty empty empty 17 7 0 10 -262144
-1 -1;
#X obj 351 349 bng 15 250 50 0 empty empty empty 17 7 0 10 -262144
-1 -1;
#X obj 384 344 bng 15 250 50 0 empty empty empty 17 7 0 10 -262144
-1 -1;
#X obj 431 347 bng 15 250 50 0 empty empty empty 17 7 0 10 -262144
-1 -1;
#X msg 865 152 0.875;
#X obj 132 132 bng 15 250 50 0 empty empty empty 17 7 0 10 -262144
-1 -1;
#X msg 132 153 0.004;
#X obj 33 299 *;
#X text 136 183 1/256;
#X obj 177 132 bng 15 250 50 0 empty empty empty 17 7 0 10 -262144
-1 -1;
#X msg 177 153 0.008;
#X text 182 184 1/128;
#X obj 222 132 bng 15 250 50 0 empty empty empty 17 7 0 10 -262144
-1 -1;
#X text 229 184 1/64;
#X msg 222 153 0.016;
#X text 269 184 1/32;
#X obj 266 132 bng 15 250 50 0 empty empty empty 17 7 0 10 -262144
-1 -1;
#X msg 266 153 0.032;
#X text 312 184 3/64;
#X obj 312 131 bng 15 250 50 0 empty empty empty 17 7 0 10 -262144
-1 -1;
#X msg 312 152 0.047;
#X text 360 184 1/16;
#X obj 404 132 bng 15 250 50 0 empty empty empty 17 7 0 10 -262144
-1 -1;
#X msg 360 152 0.063;
#X text 404 184 3/32;
#X msg 404 152 0.094;
#X obj 448 132 bng 15 250 50 0 empty empty empty 17 7 0 10 -262144
-1 -1;
#X obj 494 132 bng 15 250 50 0 empty empty empty 17 7 0 10 -262144
-1 -1;
#X msg 448 152 0.125;
#X text 452 183 1/8;
#X text 497 183 3/16;
#X msg 494 152 0.188;
#X text 543 183 1/4;
#X text 623 183 3/8;
#X msg 616 152 0.375;
#X obj 578 132 bng 15 250 50 0 empty empty empty 17 7 0 10 -262144
-1 -1;
#X msg 578 152 0.33;
#X text 582 183 1/3;
#X obj 660 133 bng 15 250 50 0 empty empty empty 17 7 0 10 -262144
-1 -1;
#X msg 660 152 0.4;
#X obj 220 52 sel 0 1 2 3 4 5 6 7 8 9 10 11 12 13 14 15 16 17 18 19
20;
#X obj 722 133 bng 15 250 50 0 empty empty empty 17 7 0 10 -262144
-1 -1;
#X msg 722 152 0.6;
#X text 692 182 1/2;
#X text 663 183 2/5;
#X text 724 183 3/5;
#X text 758 182 2/3;
#X text 795 181 3/4;
#X text 870 179 7/8;
#X obj 832 133 bng 15 250 50 0 empty empty empty 17 7 0 10 -262144
-1 -1;
#X msg 832 152 0.8;
#X text 833 180 4/5;
#X text 282 321 too large;
#X obj 992 107 / 2;
#X connect 1 0 70 0;
#X connect 2 0 3 0;
#X connect 3 0 37 0;
#X connect 3 0 83 0;
#X connect 4 0 9 0;
#X connect 5 0 9 0;
#X connect 6 0 9 0;
#X connect 7 0 9 0;
#X connect 8 0 9 0;
#X connect 9 0 3 0;
#X connect 9 1 37 1;
#X connect 10 0 53 0;
#X connect 11 0 7 0;
#X connect 12 0 64 0;
#X connect 13 0 4 0;
#X connect 14 0 5 0;
#X connect 15 0 6 0;
#X connect 16 0 8 0;
#X connect 17 0 34 0;
#X connect 18 0 20 0;
#X connect 19 0 9 0;
#X connect 20 0 19 0;
#X connect 28 0 22 0;
#X connect 29 0 23 0;
#X connect 30 0 24 0;
#X connect 31 0 25 0;
#X connect 32 0 26 0;
#X connect 33 0 27 0;
#X connect 34 0 9 0;
#X connect 35 0 36 0;
#X connect 36 0 9 0;
#X connect 37 0 0 0;
#X connect 37 0 21 0;
#X connect 39 0 40 0;
#X connect 40 0 9 0;
#X connect 42 0 44 0;
#X connect 44 0 9 0;
#X connect 46 0 47 0;
#X connect 47 0 9 0;
#X connect 49 0 50 0;
#X connect 50 0 9 0;
#X connect 52 0 55 0;
#X connect 53 0 9 0;
#X connect 55 0 9 0;
#X connect 56 0 58 0;
#X connect 57 0 61 0;
#X connect 58 0 9 0;
#X connect 61 0 9 0;
#X connect 64 0 9 0;
#X connect 65 0 66 0;
#X connect 66 0 9 0;
#X connect 68 0 69 0;
#X connect 69 0 9 0;
#X connect 70 0 35 0;
#X connect 70 1 39 0;
#X connect 70 2 42 0;
#X connect 70 3 46 0;
#X connect 70 4 49 0;
#X connect 70 5 10 0;
#X connect 70 6 52 0;
#X connect 70 7 56 0;
#X connect 70 8 57 0;
#X connect 70 9 11 0;
#X connect 70 10 65 0;
#X connect 70 11 12 0;
#X connect 70 12 68 0;
#X connect 70 13 13 0;
#X connect 70 14 71 0;
#X connect 70 15 14 0;
#X connect 70 16 15 0;
#X connect 70 17 79 0;
#X connect 70 18 17 0;
#X connect 70 19 16 0;
#X connect 70 21 18 0;
#X connect 71 0 72 0;
#X connect 72 0 9 0;
#X connect 79 0 80 0;
#X connect 80 0 9 0;
#X connect 83 0 20 1;
#X restore 377 108 pd change_dur;
#X obj 378 164 s dur;
#X floatatom 378 129 5 0 0 0 - - -, f 5;
#X obj 377 90 hradio 15 1 1 20 empty empty empty 0 -8 0 10 -262144
-1 -1 5;
#X obj 410 2 r change;
#X obj 377 22 vradio 15 1 1 3 empty empty empty 0 -8 0 10 -261234 -1
-1 0;
#X obj 377 68 switch 2 1;
#X text 352 21 MAN;
#X text 352 37 RND;
#X text 351 51 SZORT;
#X obj 424 131 hsl 128 15 1 666 1 0 empty empty empty -2 -8 0 10 -4160
-1 -1 6000 1;
#X floatatom 274 55 5 0 0 0 - - -, f 5;
#X obj 444 48 + 20;
#X obj 410 24 random 20;
#X text 871 157 8-16?;
#X text 728 156 1-7?;
#X text 884 135 EJ WARTOSCI FLOAT POMIEDZY ROBIA COS INNEGO!;
#X obj 21 541 array set 8_LEDS;
#X obj 24 267 s SEQ_E1;
#X obj 21 325 r SEQ_E1;
#X obj 21 483 s update_8_LEDS;
#X msg 69 459 0 0 0;
#X obj 21 348 t b b;
#X obj 37 432 t b b;
#X msg 53 371 0 250 0;
#X obj 37 402 del 100;
#X obj 159 267 s SEQ_E2;
#X obj 83 346 r dur;
#X text 39 572 ctrl 1NEOPIX;
#X msg 23 514 250 0 0;
#X msg 88 514 0 0 250;
#X obj 158 484 s update_8_LEDS;
#X msg 206 460 0 0 0;
#X obj 158 357 t b b;
#X obj 174 433 t b b;
#X msg 190 384 0 250 0;
#X obj 174 411 del 100;
#X obj 220 355 r dur;
#X text 178 573 ctrl 1NEOPIX;
#X msg 160 515 250 0 0;
#X msg 225 515 0 0 250;
#X obj 158 334 r SEQ_E2;
#X obj 160 542 array set 8_LEDS 4;
#X obj 292 484 s update_8_LEDS;
#X msg 340 460 0 0 0;
#X obj 292 359 t b b;
#X obj 308 433 t b b;
#X msg 324 386 0 250 0;
#X obj 308 411 del 100;
#X obj 354 356 r dur;
#X text 308 564 ctrl 1NEOPIX;
#X msg 294 515 250 0 0;
#X msg 352 515 0 0 250;
#X obj 292 336 r SEQ_E3;
#X obj 294 542 array set 8_LEDS 8;
#X obj 294 268 s SEQ_E3;
#X obj 431 493 s update_8_LEDS;
#X msg 479 469 0 0 0;
#X obj 431 358 t b b;
#X obj 447 442 t b b;
#X msg 463 381 0 250 0;
#X obj 447 412 del 100;
#X obj 493 356 r dur;
#X text 449 582 ctrl 1NEOPIX;
#X msg 433 524 250 0 0;
#X msg 498 524 0 0 250;
#X obj 568 494 s update_8_LEDS;
#X msg 616 470 0 0 0;
#X obj 568 367 t b b;
#X obj 584 443 t b b;
#X msg 600 394 0 250 0;
#X obj 584 421 del 100;
#X obj 630 365 r dur;
#X text 588 583 ctrl 1NEOPIX;
#X msg 570 525 250 0 0;
#X msg 635 525 0 0 250;
#X obj 709 494 s update_8_LEDS;
#X msg 757 470 0 0 0;
#X obj 709 369 t b b;
#X obj 725 443 t b b;
#X msg 741 396 0 250 0;
#X obj 725 421 del 100;
#X obj 771 366 r dur;
#X text 724 574 ctrl 1NEOPIX;
#X msg 711 525 250 0 0;
#X msg 769 525 0 0 250;
#X obj 431 551 array set 8_LEDS 12;
#X obj 570 552 array set 8_LEDS 16;
#X obj 710 552 array set 8_LEDS 20;
#X obj 431 335 r SEQ_E4;
#X obj 568 344 r SEQ_E5;
#X obj 709 346 r SEQ_E6;
#X obj 433 269 s SEQ_E4;
#X obj 568 269 s SEQ_E5;
#X obj 703 270 s SEQ_E6;
#X obj 848 494 s update_8_LEDS;
#X msg 896 470 0 0 0;
#X obj 848 367 t b b;
#X obj 864 443 t b b;
#X msg 880 394 0 250 0;
#X obj 864 421 del 100;
#X obj 910 365 r dur;
#X text 868 583 ctrl 1NEOPIX;
#X msg 850 525 250 0 0;
#X msg 915 525 0 0 250;
#X obj 989 494 s update_8_LEDS;
#X msg 1037 470 0 0 0;
#X obj 989 369 t b b;
#X obj 1005 443 t b b;
#X msg 1021 396 0 250 0;
#X obj 1005 421 del 100;
#X obj 1051 366 r dur;
#X text 1004 574 ctrl 1NEOPIX;
#X msg 991 525 250 0 0;
#X msg 1049 525 0 0 250;
#X obj 848 344 r SEQ_E7;
#X obj 989 346 r SEQ_E8;
#X obj 850 552 array set 8_LEDS 24;
#X obj 990 552 array set 8_LEDS 28;
#X obj 838 271 s SEQ_E7;
#X obj 973 272 s SEQ_E8;
#X connect 0 0 19 0;
#X connect 1 0 19 1;
#X connect 2 0 108 0;
#X connect 3 0 116 0;
#X connect 4 0 2 0;
#X connect 4 1 24 0;
#X connect 5 0 145 0;
#X connect 6 0 182 0;
#X connect 7 0 183 0;
#X connect 8 0 184 0;
#X connect 9 0 209 0;
#X connect 10 0 210 0;
#X connect 12 0 11 0;
#X connect 16 0 14 0;
#X connect 17 0 15 0;
#X connect 19 0 28 0;
#X connect 19 1 30 0;
#X connect 23 0 4 0;
#X connect 25 0 4 0;
#X connect 28 0 27 0;
#X connect 29 0 28 1;
#X connect 30 0 26 0;
#X connect 31 0 30 1;
#X connect 33 0 4 1;
#X connect 34 0 3 0;
#X connect 34 1 37 0;
#X connect 36 0 34 0;
#X connect 38 0 34 0;
#X connect 39 0 34 1;
#X connect 42 0 5 0;
#X connect 42 1 45 0;
#X connect 44 0 42 0;
#X connect 46 0 42 0;
#X connect 47 0 42 1;
#X connect 48 0 6 0;
#X connect 48 1 51 0;
#X connect 50 0 48 0;
#X connect 52 0 48 0;
#X connect 53 0 48 1;
#X connect 54 0 7 0;
#X connect 54 1 57 0;
#X connect 56 0 54 0;
#X connect 58 0 54 0;
#X connect 59 0 54 1;
#X connect 60 0 8 0;
#X connect 60 1 63 0;
#X connect 62 0 60 0;
#X connect 64 0 60 0;
#X connect 65 0 60 1;
#X connect 66 0 9 0;
#X connect 66 1 69 0;
#X connect 68 0 66 0;
#X connect 70 0 66 0;
#X connect 71 0 66 1;
#X connect 72 0 10 0;
#X connect 72 1 75 0;
#X connect 74 0 72 0;
#X connect 76 0 72 0;
#X connect 77 0 72 1;
#X connect 79 0 85 0;
#X connect 80 0 16 0;
#X connect 81 0 17 0;
#X connect 82 0 12 0;
#X connect 83 0 84 0;
#X connect 84 0 88 0;
#X connect 85 0 80 0;
#X connect 85 1 81 0;
#X connect 85 2 82 0;
#X connect 88 0 87 0;
#X connect 90 0 92 0;
#X connect 92 0 91 0;
#X connect 93 0 90 0;
#X connect 94 0 103 0;
#X connect 95 0 96 0;
#X connect 96 0 93 0;
#X connect 100 0 92 0;
#X connect 101 0 87 0;
#X connect 102 0 96 2;
#X connect 103 0 96 1;
#X connect 103 0 102 0;
#X connect 109 0 112 0;
#X connect 111 0 107 0;
#X connect 112 0 110 0;
#X connect 112 0 115 0;
#X connect 112 1 114 0;
#X connect 113 0 110 0;
#X connect 113 1 111 0;
#X connect 114 0 107 0;
#X connect 115 0 113 0;
#X connect 117 0 115 1;
#X connect 119 0 107 0;
#X connect 120 0 107 0;
#X connect 122 0 132 0;
#X connect 123 0 121 0;
#X connect 123 0 126 0;
#X connect 123 1 125 0;
#X connect 124 0 121 0;
#X connect 124 1 122 0;
#X connect 125 0 132 0;
#X connect 126 0 124 0;
#X connect 127 0 126 1;
#X connect 129 0 132 0;
#X connect 130 0 132 0;
#X connect 131 0 123 0;
#X connect 134 0 144 0;
#X connect 135 0 133 0;
#X connect 135 0 138 0;
#X connect 135 1 137 0;
#X connect 136 0 133 0;
#X connect 136 1 134 0;
#X connect 137 0 144 0;
#X connect 138 0 136 0;
#X connect 139 0 138 1;
#X connect 141 0 144 0;
#X connect 142 0 144 0;
#X connect 143 0 135 0;
#X connect 147 0 176 0;
#X connect 148 0 146 0;
#X connect 148 0 151 0;
#X connect 148 1 150 0;
#X connect 149 0 146 0;
#X connect 149 1 147 0;
#X connect 150 0 176 0;
#X connect 151 0 149 0;
#X connect 152 0 151 1;
#X connect 154 0 176 0;
#X connect 155 0 176 0;
#X connect 157 0 177 0;
#X connect 158 0 156 0;
#X connect 158 0 161 0;
#X connect 158 1 160 0;
#X connect 159 0 156 0;
#X connect 159 1 157 0;
#X connect 160 0 177 0;
#X connect 161 0 159 0;
#X connect 162 0 161 1;
#X connect 164 0 177 0;
#X connect 165 0 177 0;
#X connect 167 0 178 0;
#X connect 168 0 166 0;
#X connect 168 0 171 0;
#X connect 168 1 170 0;
#X connect 169 0 166 0;
#X connect 169 1 167 0;
#X connect 170 0 178 0;
#X connect 171 0 169 0;
#X connect 172 0 171 1;
#X connect 174 0 178 0;
#X connect 175 0 178 0;
#X connect 179 0 148 0;
#X connect 180 0 158 0;
#X connect 181 0 168 0;
#X connect 186 0 207 0;
#X connect 187 0 185 0;
#X connect 187 0 190 0;
#X connect 187 1 189 0;
#X connect 188 0 185 0;
#X connect 188 1 186 0;
#X connect 189 0 207 0;
#X connect 190 0 188 0;
#X connect 191 0 190 1;
#X connect 193 0 207 0;
#X connect 194 0 207 0;
#X connect 196 0 208 0;
#X connect 197 0 195 0;
#X connect 197 0 200 0;
#X connect 197 1 199 0;
#X connect 198 0 195 0;
#X connect 198 1 196 0;
#X connect 199 0 208 0;
#X connect 200 0 198 0;
#X connect 201 0 200 1;
#X connect 203 0 208 0;
#X connect 204 0 208 0;
#X connect 205 0 187 0;
#X connect 206 0 197 0;
