#N canvas 459 211 907 629 10;
#X text 66 18 two timelines that meet at the beggining of a cycle;
#X obj 115 41 tgl 15 0 empty empty empty 17 7 0 10 -262144 -1 -1 1
1;
#X obj 115 87 bng 15 250 50 0 empty empty empty 17 7 0 10 -262144 -1
-1;
#X obj 115 105 s met;
#X obj 70 105 s tog;
#X floatatom 204 34 5 0 0 0 - - -, f 5;
#X obj 182 105 s dur;
#X obj 365 154 r dur;
#X floatatom 238 200 5 0 0 0 - - -, f 5;
#X obj 238 223 expr $f2 / $f1;
#X obj 238 154 hradio 15 1 0 8 empty empty empty 0 -8 0 10 -262144
-1 -1 1;
#X obj 238 174 + 1;
#X text 269 173 subdivisions;
#X floatatom 238 253 5 0 0 0 - - -, f 5;
#X obj 191 152 r tog;
#X obj 191 278 metro;
#X obj 191 300 bng 15 250 50 0 empty empty empty 17 7 0 10 -262144
-1 -1;
#X obj -78 413 *~;
#X obj -78 444 dac~;
#X obj -59 344 vline~;
#X msg -59 322 0.5 10 \, 0 100 10;
#X obj 126 420 *~;
#X obj 126 451 dac~;
#X obj 190 345 vline~;
#X msg 190 323 0.5 10 \, 0 100 10;
#X msg -89 48 \; pd dsp \$1;
#X obj -88 29 tgl 15 0 empty empty empty 17 7 0 10 -262144 -1 -1 1
1;
#X obj 102 142 r dur;
#X floatatom -27 191 5 0 0 0 - - -, f 5;
#X obj -27 214 expr $f2 / $f1;
#X obj -27 145 hradio 15 1 0 8 empty empty empty 0 -8 0 10 -262144
-1 -1 4;
#X obj -27 165 + 1;
#X text 4 164 subdivisions;
#X floatatom -27 244 5 0 0 0 - - -, f 5;
#X obj -91 141 r tog;
#X obj -59 279 metro;
#X obj -59 301 bng 15 250 50 0 empty empty empty 17 7 0 10 -262144
-1 -1;
#X obj 125 376 osc~ 660;
#X obj -78 369 osc~ 440;
#X obj 590 157 r dur;
#X floatatom 463 203 5 0 0 0 - - -, f 5;
#X obj 463 226 expr $f2 / $f1;
#X obj 463 157 hradio 15 1 0 8 empty empty empty 0 -8 0 10 -262144
-1 -1 3;
#X obj 463 177 + 1;
#X text 494 176 subdivisions;
#X floatatom 463 256 5 0 0 0 - - -, f 5;
#X obj 416 155 r tog;
#X obj 416 281 metro;
#X obj 416 303 bng 15 250 50 0 empty empty empty 17 7 0 10 -262144
-1 -1;
#X obj 351 423 *~;
#X obj 351 454 dac~;
#X obj 415 348 vline~;
#X msg 415 326 0.5 10 \, 0 100 10;
#X obj 350 379 osc~ 880;
#X obj 115 65 metro 2000;
#X connect 1 0 4 0;
#X connect 1 0 54 0;
#X connect 2 0 3 0;
#X connect 5 0 6 0;
#X connect 5 0 54 1;
#X connect 7 0 9 1;
#X connect 8 0 9 0;
#X connect 9 0 13 0;
#X connect 10 0 11 0;
#X connect 11 0 8 0;
#X connect 13 0 15 1;
#X connect 14 0 15 0;
#X connect 15 0 16 0;
#X connect 16 0 24 0;
#X connect 17 0 18 1;
#X connect 17 0 18 0;
#X connect 19 0 17 1;
#X connect 20 0 19 0;
#X connect 21 0 22 1;
#X connect 21 0 22 0;
#X connect 23 0 21 1;
#X connect 24 0 23 0;
#X connect 26 0 25 0;
#X connect 27 0 29 1;
#X connect 28 0 29 0;
#X connect 29 0 33 0;
#X connect 30 0 31 0;
#X connect 31 0 28 0;
#X connect 33 0 35 1;
#X connect 34 0 35 0;
#X connect 35 0 36 0;
#X connect 36 0 20 0;
#X connect 37 0 21 0;
#X connect 38 0 17 0;
#X connect 39 0 41 1;
#X connect 40 0 41 0;
#X connect 41 0 45 0;
#X connect 42 0 43 0;
#X connect 43 0 40 0;
#X connect 45 0 47 1;
#X connect 46 0 47 0;
#X connect 47 0 48 0;
#X connect 48 0 52 0;
#X connect 49 0 50 1;
#X connect 49 0 50 0;
#X connect 51 0 49 1;
#X connect 52 0 51 0;
#X connect 53 0 49 0;
#X connect 54 0 2 0;
