#N canvas 1421 609 1263 681 10;
#X obj -77 85 f \$1;
#X obj -76 107 mtof;
#X text -79 37 initialize argument for abstraction - it gets it from
the name argument and is in midi (floating point);
#X obj -75 153 osc~;
#X obj -12 84 inlet;
#X text -15 65 contorl value for amplitude from sensor;
#X floatatom -13 127 5 0 0 0 - - -;
#X obj 45 88 r SinAttack;
#X obj -12 158 pack 0 20;
#X obj 45 109 t b f;
#X obj -61 192 line~;
#X obj -12 276 outlet;
#X text 91 110 attach of allsines from 1 pot;
#X obj -72 270 *~;
#X obj -73 298 outlet~;
#X text -22 297 audio out;
#X obj -12 107 dbtorms;
#X obj 62 297 print;
#X obj -13 248 pack 0 0 0;
#X obj -12 185 unpack 0 20;
#X obj 51 209 t b f;
#X obj -12 207 t b f;
#X obj -77 9 loadbang;
#X obj -11 12 bng 15 250 50 0 empty empty empty 17 7 0 10 -262144 -1
-1;
#X text 33 275 output freq amp and attack as list;
#X obj 321 118 r maxx;
#X floatatom 321 154 5 0 0 0 - - -;
#X obj 321 176 / 1024;
#X obj 324 221 sig~;
#X obj 143 221 *~;
#X obj 143 199 osc~ 2;
#X floatatom 366 228 5 0 0 0 - - -;
#X obj 185 172 int;
#X floatatom 242 178 5 0 0 0 - - -;
#X obj 400 178 change;
#X obj 390 118 r minSENS;
#X obj 414 206 bng 15 250 50 0 empty empty empty 17 7 0 10 -262144
-1 -1;
#X obj 200 142 / 250;
#X floatatom 207 196 5 0 0 0 - - -;
#X connect 0 0 1 0;
#X connect 1 0 18 0;
#X connect 1 0 3 0;
#X connect 3 0 13 0;
#X connect 4 0 16 0;
#X connect 6 0 8 0;
#X connect 7 0 9 0;
#X connect 8 0 10 0;
#X connect 8 0 19 0;
#X connect 9 0 8 0;
#X connect 9 1 8 1;
#X connect 13 0 14 0;
#X connect 16 0 6 0;
#X connect 18 0 11 0;
#X connect 19 0 21 0;
#X connect 19 1 20 0;
#X connect 20 0 18 0;
#X connect 20 1 18 2;
#X connect 21 0 18 0;
#X connect 21 1 18 1;
#X connect 22 0 0 0;
#X connect 23 0 0 0;
#X connect 25 0 26 0;
#X connect 26 0 27 0;
#X connect 26 0 37 0;
#X connect 27 0 28 0;
#X connect 27 0 31 0;
#X connect 28 0 29 1;
#X connect 29 0 13 1;
#X connect 30 0 29 0;
#X connect 32 0 30 0;
#X connect 32 0 38 0;
#X connect 34 0 36 0;
#X connect 35 0 34 0;
#X connect 36 0 32 0;
#X connect 37 0 32 1;
#X connect 37 0 33 0;
