#N canvas 439 51 863 813 12;
#X text 15 11 ABSTRACTION TO PLAY 1 GRAIN WHEN SENSOR TRESHOLD IS PASSED
;
#X obj 16 77 s \$0-play_1_grain;
#X text 553 346 Semitones of pitch shift;
#X text 270 664 1 set start of grain in delay buffer based on sensor
number;
#X text 271 646 del length buffer = 3200 ms;
#X obj 16 52 inlet 1_grain;
#X obj 16 110 r \$0-play_1_grain;
#X text 15 29 we expect bang and float (sensor number);
#X text 270 706 3 randomize length of envelope for playback time;
#X text 268 727 4 set pan position of grain;
#X text 268 746 5 play grain with amp envelope;
#X floatatom 606 249 5 0 0 0 - - -, f 5;
#X obj 582 195 / 32;
#X obj 582 220 * 3200;
#X text 639 220 del buff length;
#X obj 491 340 - 16;
#X text 554 363 0 = No pitch shift;
#X floatatom 507 363 5 0 0 0 - - -, f 5;
#X text 269 685 2 set transpose of grain (based on sensor number);
#X text 592 267 start of grain in del buffer;
#X floatatom 70 255 5 0 0 0 - - -, f 5;
#X obj 16 283 pipe, f 5;
#X obj 16 256 t f f;
#X obj 16 189 random 200, f 22;
#X obj 16 220 + 20;
#X text 56 220 min len;
#X text 112 254 length 1 grain;
#X obj 189 161 r rand_grain_max_len_ms;
#X floatatom 497 425 5 0 0 0 - - -, f 5;
#X obj 373 424 * 1, f 14;
#X text 545 423 Relative playback speed;
#X floatatom 449 453 5 0 0 0 - - -, f 5;
#X obj 491 396 expr pow(2 \, $f1/12);
#X text 504 453 length;
#X obj 16 518 line~;
#X obj 16 468 pack 0 0, f 45;
#X obj 17 545 +~, f 71;
#X msg 16 493 \$2 \, \$1 \$1;
#X obj 16 641 *~ 0.1;
#X obj 254 359 line~;
#X msg 254 334 0 \, 512 \$1;
#X obj 16 612 *~, f 30;
#X obj 254 386 tabread4~ kac_win, f 9;
#X text 594 543 Offset/delay in ms;
#X text 270 426 amp env;
#X text 265 613 amp env;
#X obj 15 750 outlet~;
#X obj 117 750 outlet~;
#X obj 135 356 random 100;
#X obj 135 383 * 0.01;
#X obj 15 723 *~;
#X obj 117 723 *~;
#X obj 36 694 expr 1-$f1;
#X text 81 431 random pan position;
#X obj 16 135 t b f, f 48;
#X obj 397 169 t f f f, f 24;
#X obj 16 305 t f b f f, f 45;
#X obj 135 408 s \$0_grain_pan;
#X obj 138 653 r \$0_grain_pan;
#X floatatom 158 688 5 0 0 0 - - -, f 5;
#X text 60 161 global variable;
#X text 65 409 local v;
#X obj 16 584 vd~ kac_del;
#X floatatom 345 583 0 0 0 0 - - -;
#X text 380 585 float input (delay time in ms);
#X obj 345 616 delread~ kac_del 1000;
#X msg 644 481 \$2 \, \$1 \$1;
#X obj 644 506 line;
#X connect 5 0 1 0;
#X connect 6 0 54 0;
#X connect 12 0 13 0;
#X connect 13 0 11 0;
#X connect 13 0 36 1;
#X connect 15 0 17 0;
#X connect 15 0 32 0;
#X connect 21 0 56 0;
#X connect 22 0 21 0;
#X connect 22 1 21 1;
#X connect 23 0 24 0;
#X connect 24 0 20 0;
#X connect 24 0 22 0;
#X connect 27 0 23 1;
#X connect 29 0 31 0;
#X connect 29 0 35 1;
#X connect 32 0 28 0;
#X connect 32 0 29 1;
#X connect 34 0 36 0;
#X connect 35 0 37 0;
#X connect 35 0 66 0;
#X connect 36 0 62 0;
#X connect 37 0 34 0;
#X connect 38 0 50 0;
#X connect 39 0 42 0;
#X connect 40 0 39 0;
#X connect 41 0 38 0;
#X connect 42 0 41 1;
#X connect 48 0 49 0;
#X connect 49 0 57 0;
#X connect 50 0 46 0;
#X connect 51 0 47 0;
#X connect 52 0 50 1;
#X connect 54 0 23 0;
#X connect 54 1 55 0;
#X connect 55 1 15 0;
#X connect 55 2 12 0;
#X connect 56 0 35 0;
#X connect 56 1 48 0;
#X connect 56 2 40 0;
#X connect 56 3 29 0;
#X connect 58 0 51 1;
#X connect 58 0 52 0;
#X connect 58 0 59 0;
#X connect 62 0 41 0;
#X connect 63 0 65 0;
#X connect 66 0 67 0;
