#N canvas 340 51 1012 762 10;
#X text 570 224 Patch made by Edgar Berdahl;
#X obj 141 478 dac~;
#X obj 142 400 +~;
#X obj 188 400 +~;
#X obj 44 334 tgl 15 0 empty empty empty 17 7 0 10 -4032 -1 -1 1 1
;
#X obj 166 363 *~;
#X obj 105 363 *~;
#X text 60 324 Disable;
#X text 60 335 stereo;
#N canvas 0 50 450 278 (subpatch) 0;
#X array mywindow 515 float 2;
#X coords 0 1 515 -1 100 70 1 0 0;
#X restore 787 378 graph;
#X msg 351 419 \; mywindow cosinesum 512 0.5 -0.5;
#X msg 351 367 \; mywindow cosinesum 512 0.456258 -0.5 0.050505 -0.02
0.010204 -0.0061725 0.004132;
#X text 419 339 Set the shape of the windowing function;
#X obj 351 340 loadbang;
#X text 604 428 Raised cosine window;
#X text 563 367 More like a triangular window;
#X obj 749 138 s pitchshiftfactor;
#X obj 340 138 s maxrandomdelay;
#X text 778 87 No pitch shift;
#X floatatom 749 113 5 0 0 0 - - -, f 5;
#X floatatom 135 115 8 0 100000 0 - - -, f 8;
#X floatatom 340 113 10 0 100000 0 - - -, f 10;
#X obj 268 265 s go;
#X obj 268 229 tgl 30 0 empty empty empty 17 7 0 10 -4034 -1 -1 1 1
;
#X text 422 115 ms;
#X text 203 115 ms;
#X msg 749 87 0;
#X text 791 113 Semitones of pitch shift;
#X text 340 83 Maximum of additional delay;
#X text 338 95 for grain starts;
#X floatatom 558 113 10 0 100000 0 - - -, f 10;
#X text 640 111 ms;
#X text 556 83 Maximum of random delay;
#X text 554 95 to superimpose on POINTER;
#X obj 558 138 s maxrandomdelaypointer;
#X text 299 236 Enable granular synthesizer;
#X obj 195 331 *~ 8;
#X obj 148 332 *~ 8;
#X floatatom 4 69 7 -50 18 0 - - -, f 7;
#N canvas 17 128 151 173 adjustvolume 0;
#X obj 4 11 inlet;
#X obj 4 142 s amplitude;
#X obj 4 64 dbtorms;
#X floatatom 15 91 5 0 0 0 - - -, f 5;
#X obj 4 38 + 100;
#X msg 4 117 \$1 30;
#X obj 70 67 loadbang;
#X msg 70 92 1;
#X connect 0 0 4 0;
#X connect 2 0 3 0;
#X connect 2 0 5 0;
#X connect 4 0 2 0;
#X connect 5 0 1 0;
#X connect 6 0 7 0;
#X connect 7 0 5 0;
#X restore 4 93 pd adjustvolume;
#X text 63 69 dB;
#X obj 188 428 *~;
#X obj 142 428 *~;
#X obj 234 400 line~ 1;
#X obj 234 374 r amplitude;
#X obj 136 49 loadbang;
#X msg 136 74 40;
#X obj 44 308 loadbang;
#X obj 148 307 mygraineffect;
#X obj 150 251 adc~;
#X text 570 208 GRANULAR EFFECT - Manual control;
#X obj 149 285 *~ 1;
#X text 133 95 max rand grain length;
#X obj 135 139 s max_rand_grain_timems;
#X connect 2 0 42 0;
#X connect 3 0 41 0;
#X connect 4 0 6 1;
#X connect 4 0 5 1;
#X connect 5 0 3 0;
#X connect 6 0 2 0;
#X connect 13 0 11 0;
#X connect 19 0 16 0;
#X connect 20 0 53 0;
#X connect 21 0 17 0;
#X connect 23 0 22 0;
#X connect 26 0 19 0;
#X connect 30 0 34 0;
#X connect 36 0 6 0;
#X connect 36 0 3 0;
#X connect 37 0 5 0;
#X connect 37 0 2 0;
#X connect 38 0 39 0;
#X connect 41 0 1 1;
#X connect 42 0 1 0;
#X connect 43 0 41 1;
#X connect 43 0 42 1;
#X connect 44 0 43 0;
#X connect 45 0 46 0;
#X connect 46 0 20 0;
#X connect 47 0 4 0;
#X connect 48 0 37 0;
#X connect 48 1 36 0;
#X connect 49 0 51 0;
#X connect 49 1 51 0;
#X connect 51 0 48 0;
