#N canvas 834 184 531 614 10;
#X obj 127 453 dac~, f 10;
#X text 357 92 ms;
#X obj 191 304 *~ 8;
#X obj 126 298 *~ 8;
#X floatatom 274 338 7 -50 18 0 - - -, f 7;
#N canvas 5 228 151 173 adjustvolume 0;
#X obj 4 11 inlet;
#X obj 4 64 dbtorms;
#X floatatom 15 91 5 0 0 0 - - -, f 5;
#X obj 4 38 + 100;
#X msg 4 117 \$1 30;
#X obj 70 67 loadbang;
#X msg 70 92 1;
#X obj 4 142 outlet;
#X connect 0 0 3 0;
#X connect 1 0 2 0;
#X connect 1 0 4 0;
#X connect 3 0 1 0;
#X connect 4 0 7 0;
#X connect 5 0 6 0;
#X connect 6 0 4 0;
#X restore 274 356 pd adjustvolume;
#X text 333 338 dB;
#X obj 192 418 *~;
#X obj 127 418 *~;
#X obj 274 402 line~ 1;
#X obj 221 72 loadbang;
#X obj 23 499 adc~;
#X obj 126 273 1_kac_grain_fx;
#X text 12 8 GRANULAR PLAYBACK OF DELAY BUFFER CONTROLLED BY ldrs;
#X obj 15 62 r LDRS;
#X floatatom 126 256 5 0 0 0 - - -, f 5;
#X obj 15 108 print;
#X obj 15 85 spigot;
#X obj 70 65 tgl 15 0 empty empty empty 17 7 0 10 -262144 -1 -1 0 1
;
#N canvas 0 51 648 238 amp_envelope_window 0;
#N canvas 0 50 450 278 (subpatch) 0;
#X array kac_win 515 float 2;
#X coords 0 1 515 -1 100 70 1 0 0;
#X restore 471 76 graph;
#X text 103 37 Set the shape of the windowing function;
#X obj 35 38 loadbang;
#X text 288 126 Raised cosine window;
#X text 247 65 More like a triangular window;
#X msg 35 65 \; kac_win cosinesum 512 0.456258 -0.5 0.050505 -0.02
0.010204 -0.0061725 0.004132;
#X msg 35 117 \; kac_win cosinesum 512 0.5 -0.5;
#X connect 2 0 5 0;
#X restore 197 563 pd amp_envelope_window;
#X obj 294 381 r fx_5_level;
#X floatatom 292 94 8 0 100000 0 - - -, f 8;
#X text 334 403 output level;
#X text 286 74 rand grain length max;
#X obj 221 112 s rand_grain_max_len_ms;
#X text 17 31 when treshold passed send trigger and sensor number;
#X obj 101 69 bng 15 250 50 0 empty empty empty 17 7 0 10 -262144 -1
-1;
#X obj 101 89 random 32;
#X obj 126 234 r tresh_min_sens;
#X text 72 545 input gain;
#X obj 22 565 delwrite~ kac_del 3200;
#X obj 101 111 s tresh_min_sens;
#X msg 221 92 100;
#X msg 136 51 32;
#X msg 169 50 28;
#X msg 179 76 4;
#X obj 22 543 *~ 5, f 6;
#X obj 23 521 hip~ 10;
#X connect 2 0 7 0;
#X connect 3 0 8 0;
#X connect 4 0 5 0;
#X connect 5 0 9 0;
#X connect 7 0 0 1;
#X connect 8 0 0 0;
#X connect 9 0 7 1;
#X connect 9 0 8 1;
#X connect 10 0 32 0;
#X connect 11 0 37 0;
#X connect 12 0 3 0;
#X connect 12 1 2 0;
#X connect 14 0 17 0;
#X connect 15 0 12 0;
#X connect 17 0 16 0;
#X connect 18 0 17 1;
#X connect 20 0 9 0;
#X connect 21 0 24 0;
#X connect 26 0 27 0;
#X connect 27 0 31 0;
#X connect 28 0 15 0;
#X connect 32 0 24 0;
#X connect 33 0 31 0;
#X connect 34 0 31 0;
#X connect 35 0 31 0;
#X connect 36 0 30 0;
#X connect 37 0 36 0;
