#N canvas 324 51 978 832 12;
#X obj 284 507 line~;
#X floatatom 321 285 5 0 0 0 - - -, f 5;
#X obj 21 8 r maxrandomdelay;
#X obj 237 172 t b f;
#X floatatom 237 83 5 0 0 0 - - -, f 5;
#X obj 639 373 r pitchshiftfactor;
#X floatatom 811 400 5 0 0 0 - - -, f 5;
#X floatatom 656 427 5 0 0 0 - - -, f 5;
#X text 791 375 Semitones;
#X obj 474 426 * 1, f 21;
#X text 704 425 Relative playback speed;
#X floatatom 494 455 5 0 0 0 - - -, f 5;
#X obj 283 781 outlet~;
#X obj 353 781 outlet~;
#X obj 284 638 *~ 0.1;
#X obj 374 647 random 100;
#X obj 374 674 * 0.01;
#X obj 283 754 *~;
#X obj 353 754 *~;
#X obj 304 725 expr 1-$f1;
#X obj 237 -49 r go;
#X obj 237 110 t b f, f 8;
#X obj 237 197 delay;
#X msg 546 197 set \$1;
#X obj 284 457 pack 0 0, f 24;
#X obj 583 341 r maxrandomdelaypointer;
#X obj 285 534 +~, f 30;
#X obj 522 390 random 0;
#X obj 237 136 random 0;
#X obj 379 388 line~;
#X obj 379 415 tabread4~ mywindow, f 9;
#X obj 639 398 expr pow(2 \, $f1/12);
#X obj 306 27 random 200;
#X obj 306 3 loadbang;
#X floatatom 326 56 5 0 0 0 - - -, f 5;
#X msg 21 33 set \$1;
#X obj 237 309 pipe, f 5;
#X obj 237 282 t f f;
#X obj 493 63 spigot;
#X obj 549 43 tgl 15 0 empty empty empty 17 7 0 10 -262144 -1 -1 0
1;
#X obj 237 5 sel 1;
#X obj 237 53 delay, f 9;
#X obj 237 -22 t f f, f 38;
#X obj 237 335 t b f b f b f b, f 36;
#X msg 379 363 0 \, 512 \$1;
#X obj 20 -48 inlet~;
#X obj 285 559 +~ 400;
#X text 338 561 Offset/delay in ms;
#X obj 285 585 vd~ \$0-mydel5;
#X obj 76 111 bng 20 250 50 0 empty \$0-play_1_grain \$0-play_1_grain
20 10 0 10 -258113 -4034 -4160;
#X obj 713 724 print;
#X obj 20 -23 delwrite~ \$0-mydel5 5000;
#X msg 284 482 \$2 \, \$1 \$1;
#X text 628 756 by Edgar Berdahl;
#X obj 713 698 spigot;
#X obj 758 678 tgl 15 0 empty empty empty 17 7 0 10 -262144 -1 -1 1
1;
#X text 327 174 del between grains in ms;
#X floatatom 285 175 5 0 0 0 - - -, f 5;
#X text 283 83 del max between grains in ms;
#X obj 548 4 tgl 15 0 empty empty empty 17 7 0 10 -262144 -1 -1 0 1
;
#X text 426 673 random pan position;
#X obj 546 173 r max_rand_grain_timems;
#X obj 237 222 random 200, f 39;
#X obj 237 246 + 20;
#X text 277 246 min len;
#X text 565 41 open to keep loop going;
#X text 363 284 length 1 grain;
#X obj 284 613 *~, f 12;
#X connect 0 0 26 0;
#X connect 2 0 35 0;
#X connect 3 0 22 0;
#X connect 3 1 22 1;
#X connect 4 0 21 0;
#X connect 5 0 6 0;
#X connect 5 0 31 0;
#X connect 9 0 11 0;
#X connect 9 0 24 1;
#X connect 14 0 17 0;
#X connect 14 0 18 0;
#X connect 15 0 16 0;
#X connect 16 0 19 0;
#X connect 16 0 18 1;
#X connect 17 0 12 0;
#X connect 18 0 13 0;
#X connect 19 0 17 1;
#X connect 20 0 42 0;
#X connect 21 0 28 0;
#X connect 21 1 28 1;
#X connect 22 0 62 0;
#X connect 23 0 62 1;
#X connect 24 0 52 0;
#X connect 25 0 27 1;
#X connect 26 0 46 0;
#X connect 27 0 26 1;
#X connect 28 0 3 0;
#X connect 28 0 57 0;
#X connect 29 0 30 0;
#X connect 30 0 67 1;
#X connect 31 0 7 0;
#X connect 31 0 9 1;
#X connect 32 0 34 0;
#X connect 32 0 41 1;
#X connect 33 0 32 0;
#X connect 35 0 4 0;
#X connect 36 0 43 0;
#X connect 37 0 36 0;
#X connect 37 1 36 1;
#X connect 38 0 4 0;
#X connect 39 0 38 1;
#X connect 40 0 41 0;
#X connect 41 0 4 0;
#X connect 42 0 40 0;
#X connect 42 1 38 1;
#X connect 42 1 59 0;
#X connect 43 0 38 0;
#X connect 43 1 24 0;
#X connect 43 2 15 0;
#X connect 43 3 44 0;
#X connect 43 5 9 0;
#X connect 43 6 27 0;
#X connect 44 0 29 0;
#X connect 45 0 51 0;
#X connect 46 0 48 0;
#X connect 48 0 67 0;
#X connect 49 0 28 0;
#X connect 52 0 0 0;
#X connect 54 0 50 0;
#X connect 55 0 54 1;
#X connect 61 0 23 0;
#X connect 62 0 63 0;
#X connect 63 0 1 0;
#X connect 63 0 37 0;
#X connect 67 0 14 0;
