#N canvas 318 58 986 747 10;
#X obj 20 12 bng 15 250 50 0 empty empty empty 17 7 0 10 -262144 -1
-1;
#X obj 20 30 openpanel;
#X msg 20 51 read -resize \$1 bob;
#X obj 20 72 soundfiler;
#N canvas 0 51 450 278 (subpatch) 0;
#X array bob 36581 float 0;
#X array s 1000 float 2;
#X coords 0 1 604800 -1 200 140 1 0 0;
#X restore 633 43 graph;
#X text 42 12 read sample;
#X obj 762 247 tgl 15 0 empty empty empty 17 7 0 10 -262144 -1 -1 0
1;
#X floatatom 81 101 15 0 0 0 - - -, f 15;
#N canvas 237 50 932 357 intro_paczes 0;
#X obj 13 137 tabread4~ bob;
#X text 109 159 it takes float as an input and spits the value for
that index \, floats means it can interpolate between two samples.
;
#X obj 13 160 *~ 0.5;
#X obj 13 188 dac~;
#X obj 309 15 hsl 128 15 0 604801 0 0 empty empty empty -2 -8 0 10
-262144 -1 -1 0 1;
#X obj 153 74 *~ 604801;
#X obj 306 57 line~;
#X msg 307 36 \$1 10;
#X obj 306 79 lop~ 0.3;
#X text 363 79 gives similar result to tape start stop / like cap ch/disch
;
#X obj 153 50 phasor~ 1;
#X floatatom 163 29 15 0 0 0 - - -, f 15;
#X obj 156 10 hsl 128 15 -2 2 0 0 empty empty empty -2 -8 0 10 -262144
-1 -1 0 1;
#X obj 153 95 *~ 0;
#X obj 195 96 tgl 15 0 empty empty empty 17 7 0 10 -262144 -1 -1 0
1;
#X text 312 106 skraczer;
#X text 218 75 looper;
#X obj 13 31 phasor~ 1;
#X obj 16 9 hsl 128 15 -2 2 0 0 empty empty empty -2 -8 0 10 -262144
-1 -1 0 1;
#X obj 13 102 *~ 0;
#X obj 45 103 tgl 15 0 empty empty empty 17 7 0 10 -262144 -1 -1 0
1;
#X obj 13 81 *~;
#X text 40 80 length;
#X obj 13 58 +~ 0.125;
#X text 73 55 looper 2;
#X obj 759 77 bng 15 250 50 0 empty empty empty 17 7 0 10 -262144 -1
-1;
#X obj 759 96 tabplay~ bob;
#X obj 759 127 *~ 0.5;
#X obj 759 155 dac~;
#X obj 827 60 gate;
#X obj 827 34 tgl 15 0 empty empty empty 17 7 0 10 -262144 -1 -1 0
1;
#X text 775 32 LOOP o/1;
#X text 784 77 play whole sample;
#X obj 35 253 *~ -1;
#X obj 14 230 phasor~ 100;
#X obj 35 276 +~ 1;
#X obj 14 298 min~;
#X obj 14 319 *~ 2;
#X text 89 228 why not use another tri osc?;
#X text 90 238 because like this we get a phase-locked env gen for
free (very cheap) for every grain;
#X text 49 304 saw to tri;
#X obj 497 254 line~;
#X obj 497 326 *~ 0;
#X obj 529 327 tgl 15 0 empty empty empty 17 7 0 10 -262144 -1 -1 0
1;
#X obj 497 305 *~;
#X text 524 304 length;
#X obj 497 282 +~ 0.125;
#X text 554 282 offset;
#X msg 497 227 0 \, 0.125 100;
#X text 537 245 we want an envelope for amplitude that will move in
the same time as this going 0 to 1 and back to 0;
#X connect 0 0 2 0;
#X connect 2 0 3 0;
#X connect 2 0 3 1;
#X connect 4 0 7 0;
#X connect 5 0 13 0;
#X connect 6 0 8 0;
#X connect 7 0 6 0;
#X connect 8 0 0 0;
#X connect 10 0 5 0;
#X connect 11 0 10 0;
#X connect 12 0 10 0;
#X connect 13 0 0 0;
#X connect 14 0 13 1;
#X connect 17 0 23 0;
#X connect 18 0 17 0;
#X connect 19 0 0 0;
#X connect 20 0 19 1;
#X connect 21 0 19 0;
#X connect 23 0 21 0;
#X connect 25 0 26 0;
#X connect 26 0 27 0;
#X connect 26 1 29 1;
#X connect 27 0 28 0;
#X connect 27 0 28 1;
#X connect 29 0 25 0;
#X connect 30 0 29 0;
#X connect 33 0 35 0;
#X connect 34 0 33 0;
#X connect 34 0 36 0;
#X connect 35 0 36 1;
#X connect 36 0 37 0;
#X connect 41 0 46 0;
#X connect 43 0 42 1;
#X connect 44 0 42 0;
#X connect 46 0 44 0;
#X connect 48 0 41 0;
#X restore 192 16 pd intro_paczes;
#X obj 630 668 dac~;
#X obj 61 356 bng 15 250 50 0 empty empty empty 17 7 0 10 -262144 -1
-1;
#X obj 762 295 t b b b;
#X floatatom 762 405 5 0 0 0 - - -, f 5;
#X obj 480 490 print;
#X obj 835 409 + 5;
#X text 191 142 in other patches he controls: offset \, duration \,
pitch;
#N canvas 858 497 495 331 one_grain_basic_triangle 0;
#X obj -135 261 outlet~;
#X obj -135 38 line~;
#X text -23 85 why not use another tri osc?;
#X text -22 95 because like this we get a phase-locked env gen for
free (very cheap) for every grain;
#X obj -18 127 *~ -1;
#X obj -18 150 +~ 1;
#X obj -39 173 min~;
#X obj -39 195 *~ 2;
#X obj -135 175 tabread4~ bob;
#X obj -135 240 *~ 0.5;
#X obj -135 149 *~;
#X msg -46 21 0 \, 0.125 100;
#X obj -135 219 *~;
#X obj -120 122 v smp_lgnt;
#X obj -120 103 bng 15 250 50 0 empty empty empty 17 7 0 10 -262144
-1 -1;
#X text -45 -30 THIS is the basic : ONE GRAIN;
#X text -70 0 start point in smpl(0-1) \, destination (0-1) \, time
;
#X obj -135 -24 inlet;
#X msg -135 0 \$1 \, \$2 \$3;
#X text -107 218 multiply audio file * envelope;
#X text 11 62 TRIANGLE window - will porduce more artefacts;
#X obj -119 82 r length;
#X connect 1 0 4 0;
#X connect 1 0 6 0;
#X connect 1 0 10 0;
#X connect 4 0 5 0;
#X connect 5 0 6 1;
#X connect 6 0 7 0;
#X connect 7 0 12 1;
#X connect 8 0 12 0;
#X connect 9 0 0 0;
#X connect 10 0 8 0;
#X connect 11 0 1 0;
#X connect 12 0 9 0;
#X connect 13 0 10 1;
#X connect 14 0 13 0;
#X connect 17 0 18 0;
#X connect 18 0 1 0;
#X connect 21 0 14 0;
#X restore 630 644 pd one_grain_basic_triangle;
#N canvas 644 141 481 574 one_grain_basic_cosine 0;
#X obj -54 314 outlet~;
#X obj -135 102 line~;
#X obj -135 215 tabread4~ bob;
#X obj -135 282 *~ 0.5;
#X obj -135 191 *~;
#X obj -135 259 *~;
#X text -136 -14 THIS is the basic : ONE GRAIN;
#X text -70 70 start point in smpl(0-1) \, destination (0-1) \, time
;
#X obj -135 16 inlet;
#X text -87 258 multiply audio file * envelope;
#X msg -205 75 0 \, 1 100;
#X text 86 220 or use a table;
#X obj -120 155 r length;
#X msg -135 70 \$1 \, \$2 \$3;
#X msg -34 129 0 \, 127 \$3;
#X obj -135 44 t l l;
#X obj -34 155 line~;
#X obj -34 220 tabread~ hanning01;
#X obj -135 314 throw~ grain;
#X text 11 159 comment;
#X connect 1 0 4 0;
#X connect 2 0 5 0;
#X connect 3 0 0 0;
#X connect 3 0 18 0;
#X connect 4 0 2 0;
#X connect 5 0 3 0;
#X connect 8 0 15 0;
#X connect 10 0 1 0;
#X connect 12 0 4 1;
#X connect 13 0 1 0;
#X connect 14 0 16 0;
#X connect 15 0 13 0;
#X connect 15 1 14 0;
#X connect 16 0 17 0;
#X connect 17 0 5 1;
#X restore 164 572 pd one_grain_basic_cosine;
#X obj 410 611 dac~;
#X obj 20 100 s length;
#N canvas 686 296 520 460 hanning 0;
#N canvas 0 50 450 278 (subpatch) 0;
#X array hanning01 512 float 0;
#X coords 0 1 511 -1 200 140 1 0 0;
#X restore -406 -377 graph;
#X text -170 -344 0.5*(1+cos(pi*x));
#X obj -198 -432 t f f;
#X obj -165 -363 pi;
#X obj -198 -346 *;
#X obj -237 -472 bng 15 250 50 0 empty empty empty 17 7 0 10 -262144
-1 -1;
#X obj -198 -322 cos;
#X obj -198 -301 + 1;
#X obj -198 -279 * 0.5;
#X obj -198 -255 tabwrite hanning01;
#X obj -93 -406 - 1;
#X obj -198 -386 - 1;
#X text -173 -386 from -1 to 1;
#X obj -212 -473 loadbang;
#X floatatom -403 -426 5 0 0 0 - - -, f 5;
#X obj -403 -447 expr size("$s1");
#X msg -403 -469 symbol hanning01;
#X obj -397 -214 table hanning2;
#X text -7 -342 0.5*(1+cos(pi*x));
#X obj -35 -430 t f f;
#X obj -2 -361 pi;
#X obj -35 -344 *;
#X obj -74 -470 bng 15 250 50 0 empty empty empty 17 7 0 10 -262144
-1 -1;
#X obj -35 -320 cos;
#X obj -35 -299 + 1;
#X obj -35 -277 * 0.5;
#X obj -74 -451 uzi 128;
#X obj 64 -404 - 1;
#X obj -35 -384 - 1;
#X obj -35 -407 / 64;
#X text -10 -384 from -1 to 1;
#X obj -49 -471 loadbang;
#X obj -35 -253 tabwrite hanning2;
#X obj -237 -453 uzi 512;
#X obj -198 -409 / 256;
#X connect 2 0 34 0;
#X connect 2 1 10 0;
#X connect 3 0 4 1;
#X connect 4 0 6 0;
#X connect 5 0 33 0;
#X connect 6 0 7 0;
#X connect 7 0 8 0;
#X connect 8 0 9 0;
#X connect 10 0 9 1;
#X connect 11 0 4 0;
#X connect 13 0 33 0;
#X connect 15 0 14 0;
#X connect 16 0 15 0;
#X connect 19 0 29 0;
#X connect 19 1 27 0;
#X connect 20 0 21 1;
#X connect 21 0 23 0;
#X connect 22 0 26 0;
#X connect 23 0 24 0;
#X connect 24 0 25 0;
#X connect 25 0 32 0;
#X connect 26 2 19 0;
#X connect 27 0 32 1;
#X connect 28 0 21 0;
#X connect 29 0 28 0;
#X connect 31 0 26 0;
#X connect 33 2 2 0;
#X connect 34 0 11 0;
#X restore 296 17 pd hanning;
#X obj 598 242 hsl 128 15 0 1 0 0 empty empty empty -2 -8 0 10 -262144
-1 -1 0 1;
#X text 191 159 start point in smpl(0-1) \, destination (0-1) \, time
(0-50ms);
#X obj 853 389 hsl 128 15 10 100 0 0 empty empty empty -2 -8 0 10 -262144
-1 -1 0 1;
#X floatatom 835 435 5 0 0 0 - - -, f 5;
#X obj 835 356 random 10;
#X obj 63 390 f;
#X obj 87 388 + 1;
#X obj 63 414 mod 4;
#X obj 164 547 route 0 1 2 3;
#X obj 164 523 pack f f f f;
#X obj 409 555 catch~ grain;
#N canvas 672 51 584 336 one_grain_basic_cosine 0;
#X obj -54 314 outlet~;
#X obj -135 102 line~;
#X obj -135 215 tabread4~ bob;
#X obj -135 282 *~ 0.5;
#X obj -135 191 *~;
#X obj -135 259 *~;
#X text -31 47 THIS is the basic : ONE GRAIN;
#X text -70 70 start point in smpl(0-1) \, destination (0-1) \, time
;
#X obj -135 16 inlet;
#X text -87 258 multiply audio file * envelope;
#X msg -205 75 0 \, 1 100;
#X text 11 159 we get cosine by taking cos of line \, taking half of
it (how?) then dividing by 2 and adding 1 so it sits at zero;
#X text 16 188 or use a table;
#X obj -120 145 r length;
#X msg -135 70 \$1 \, \$2 \$3;
#X msg -34 129 0 \, 127 \$3;
#X obj -135 44 t l l;
#X obj -34 155 line~;
#X obj -34 220 tabread~ hanning01;
#X obj -135 314 throw~ grain;
#X connect 1 0 4 0;
#X connect 2 0 5 0;
#X connect 3 0 0 0;
#X connect 3 0 19 0;
#X connect 4 0 2 0;
#X connect 5 0 3 0;
#X connect 8 0 16 0;
#X connect 10 0 1 0;
#X connect 13 0 4 1;
#X connect 14 0 1 0;
#X connect 15 0 17 0;
#X connect 16 0 14 0;
#X connect 16 1 15 0;
#X connect 17 0 18 0;
#X connect 18 0 5 1;
#X restore 186 600 pd one_grain_basic_cosine;
#N canvas 182 51 584 336 one_grain_basic_cosine 0;
#X obj -54 314 outlet~;
#X obj -135 102 line~;
#X obj -135 215 tabread4~ bob;
#X obj -135 282 *~ 0.5;
#X obj -135 191 *~;
#X obj -135 259 *~;
#X text -31 47 THIS is the basic : ONE GRAIN;
#X text -70 70 start point in smpl(0-1) \, destination (0-1) \, time
;
#X obj -135 16 inlet;
#X text -87 258 multiply audio file * envelope;
#X msg -205 75 0 \, 1 100;
#X text 11 159 we get cosine by taking cos of line \, taking half of
it (how?) then dividing by 2 and adding 1 so it sits at zero;
#X text 16 188 or use a table;
#X obj -120 165 r length;
#X msg -135 70 \$1 \, \$2 \$3;
#X msg -34 129 0 \, 127 \$3;
#X obj -135 44 t l l;
#X obj -34 155 line~;
#X obj -34 220 tabread~ hanning01;
#X obj -135 314 throw~ grain;
#X connect 1 0 4 0;
#X connect 2 0 5 0;
#X connect 3 0 0 0;
#X connect 3 0 19 0;
#X connect 4 0 2 0;
#X connect 5 0 3 0;
#X connect 8 0 16 0;
#X connect 10 0 1 0;
#X connect 13 0 4 1;
#X connect 14 0 1 0;
#X connect 15 0 17 0;
#X connect 16 0 14 0;
#X connect 16 1 15 0;
#X connect 17 0 18 0;
#X connect 18 0 5 1;
#X restore 208 628 pd one_grain_basic_cosine;
#N canvas 672 51 584 336 one_grain_basic_cosine 0;
#X obj 126 295 outlet~;
#X obj 45 83 line~;
#X obj 45 196 tabread4~ bob;
#X obj 45 263 *~ 0.5;
#X obj 45 172 *~;
#X obj 45 240 *~;
#X text 149 28 THIS is the basic : ONE GRAIN;
#X text 110 51 start point in smpl(0-1) \, destination (0-1) \, time
;
#X obj 45 -3 inlet;
#X text 93 239 multiply audio file * envelope;
#X msg -25 56 0 \, 1 100;
#X text 191 140 we get cosine by taking cos of line \, taking half
of it (how?) then dividing by 2 and adding 1 so it sits at zero;
#X text 196 169 or use a table;
#X obj 60 146 r length;
#X msg 45 51 \$1 \, \$2 \$3;
#X msg 146 110 0 \, 127 \$3;
#X obj 45 25 t l l;
#X obj 146 136 line~;
#X obj 146 201 tabread~ hanning01;
#X obj 45 295 throw~ grain;
#X connect 1 0 4 0;
#X connect 2 0 5 0;
#X connect 3 0 0 0;
#X connect 3 0 19 0;
#X connect 4 0 2 0;
#X connect 5 0 3 0;
#X connect 8 0 16 0;
#X connect 10 0 1 0;
#X connect 13 0 4 1;
#X connect 14 0 1 0;
#X connect 15 0 17 0;
#X connect 16 0 14 0;
#X connect 16 1 15 0;
#X connect 17 0 18 0;
#X connect 18 0 5 1;
#X restore 230 655 pd one_grain_basic_cosine;
#X obj 435 581 rev2~ 95 95;
#X text 186 38 if we move the offset position from 0 to 1 with the
same speed as the orginal sample would be played we get granular resyntehsis
of orginal sample;
#X text 186 79 thats where time streching a pitch shifting comes from
(90's);
#X text 190 106 we can keep playback time as in original;
#X text 191 122 minuta 49 - pokazuje tmie streczing;
#X text 594 222 global start;
#X obj 750 432 -;
#X obj 750 380 / 100;
#X obj 750 357 random 1000;
#X text 388 519 global controls: start dur pitch;
#X text 345 537 each grain has control over: start dest time;
#N canvas 725 51 530 695 one_grain1 0;
#X obj 185 476 outlet~;
#X obj 104 234 line~;
#X obj 104 377 tabread4~ bob;
#X obj 104 444 *~ 0.5;
#X obj 104 353 *~;
#X obj 104 421 *~;
#X text 83 68 THIS is the basic : ONE GRAIN;
#X obj 84 98 inlet;
#X text 152 420 multiply audio file * envelope;
#X msg 172 201 0 \, 1 100;
#X text 325 382 or use a table;
#X msg 104 202 \$1 \, \$2 \$3;
#X obj 205 317 line~;
#X obj 205 382 tabread~ hanning01;
#X obj 104 476 throw~ grain;
#X obj 302 143 unpack f f f;
#X floatatom 294 180 5 0 0 0 - - -, f 5;
#X floatatom 347 179 5 0 0 0 - - -, f 5;
#X floatatom 414 180 5 0 0 0 - - -, f 5;
#X text 257 121 start(0-1) \, destination (0-1) \, time;
#X obj 261 201 s \$0-lstart;
#X obj 337 201 s \$0-ldest;
#X obj 408 201 s \$0-ltime;
#X obj 84 126 t b l l;
#X connect 1 0 4 0;
#X connect 2 0 5 0;
#X connect 3 0 0 0;
#X connect 3 0 14 0;
#X connect 4 0 2 0;
#X connect 5 0 3 0;
#X connect 7 0 23 0;
#X connect 9 0 1 0;
#X connect 11 0 1 0;
#X connect 12 0 13 0;
#X connect 13 0 5 1;
#X connect 15 0 16 0;
#X connect 15 0 20 0;
#X connect 15 1 17 0;
#X connect 15 1 21 0;
#X connect 15 2 18 0;
#X connect 15 2 22 0;
#X connect 23 1 11 0;
#X connect 23 2 15 0;
#X restore 722 491 pd one_grain1;
#X obj 595 264 t f b;
#X obj 669 398 t f f;
#X obj 622 299 f;
#X obj 637 278 r length;
#X obj 595 321 *;
#X obj 722 465 pack f f f;
#X obj 630 615 gate;
#X obj 630 587 tgl 15 0 empty empty empty 17 7 0 10 -262144 -1 -1 0
1;
#X obj 141 257 tgl 15 0 empty empty empty 17 7 0 10 -262144 -1 -1 1
1;
#X obj 141 305 t b b b;
#X floatatom 233 448 5 0 0 0 - - -, f 5;
#X obj 327 445 + 5;
#X obj 343 425 hsl 128 15 10 100 0 0 empty empty empty -2 -8 0 10 -262144
-1 -1 10900 1;
#X floatatom 327 471 5 0 0 0 - - -, f 5;
#X obj 327 392 random 10;
#X obj 211 498 -;
#X obj 221 423 / 100;
#X obj 221 400 random 1000;
#X obj 141 275 metro 100;
#X obj 762 265 metro 100;
#X obj 152 439 t f f;
#X obj 595 345 s g_start;
#X obj 669 376 r g_start;
#X obj 149 404 r g_start;
#X obj 72 509 print;
#X connect 0 0 1 0;
#X connect 1 0 2 0;
#X connect 2 0 3 0;
#X connect 3 0 19 0;
#X connect 3 0 7 0;
#X connect 6 0 66 0;
#X connect 10 0 26 0;
#X connect 11 1 43 0;
#X connect 11 2 25 0;
#X connect 14 0 24 0;
#X connect 14 0 52 2;
#X connect 16 0 9 0;
#X connect 16 0 9 1;
#X connect 21 0 47 0;
#X connect 23 0 14 1;
#X connect 25 0 14 0;
#X connect 26 0 27 0;
#X connect 26 0 28 0;
#X connect 27 0 26 1;
#X connect 28 0 30 0;
#X connect 29 0 17 0;
#X connect 29 1 32 0;
#X connect 29 2 33 0;
#X connect 29 3 34 0;
#X connect 30 0 29 0;
#X connect 31 0 18 0;
#X connect 31 0 18 1;
#X connect 31 0 35 0;
#X connect 35 0 18 0;
#X connect 35 1 18 1;
#X connect 41 0 52 1;
#X connect 42 0 12 0;
#X connect 42 0 41 0;
#X connect 43 0 42 0;
#X connect 47 0 51 0;
#X connect 47 1 49 0;
#X connect 48 0 52 0;
#X connect 48 1 41 1;
#X connect 49 0 51 1;
#X connect 50 0 49 1;
#X connect 51 0 68 0;
#X connect 52 0 46 0;
#X connect 53 0 16 0;
#X connect 54 0 53 0;
#X connect 55 0 65 0;
#X connect 56 0 26 0;
#X connect 56 1 64 0;
#X connect 56 2 61 0;
#X connect 58 0 60 0;
#X connect 58 0 30 3;
#X connect 59 0 58 1;
#X connect 61 0 58 0;
#X connect 62 0 30 2;
#X connect 63 0 57 0;
#X connect 63 0 62 0;
#X connect 64 0 63 0;
#X connect 65 0 56 0;
#X connect 66 0 11 0;
#X connect 67 0 30 1;
#X connect 67 1 62 1;
#X connect 69 0 48 0;
#X connect 70 0 67 0;
